<svg viewBox="0 0 16 17" fill="none" xmlns="http://www.w3.org/2000/svg">
<g clip-path="url(#clip0_5893_17753)">
<path d="M15.8493 2.27625C15.8918 2.37183 15.9263 2.48333 15.9529 2.61076C15.9794 2.73819 15.9927 2.87093 15.9927 3.00898C15.9927 3.14703 15.9661 3.28508 15.913 3.42313C15.8599 3.56118 15.775 3.69392 15.6582 3.82135C15.5307 3.94878 15.4166 4.06028 15.3157 4.15586C15.2148 4.25143 15.1272 4.33638 15.0529 4.41072C14.9679 4.49567 14.8883 4.57001 14.8139 4.63372L11.8352 1.65503C11.9627 1.53822 12.114 1.39751 12.2892 1.23292C12.4644 1.06832 12.6105 0.938232 12.7273 0.842659C12.8759 0.725847 13.0299 0.643548 13.1892 0.595762C13.3485 0.547975 13.5051 0.526737 13.6591 0.532046C13.8131 0.537356 13.9617 0.561249 14.1051 0.603726C14.2485 0.646203 14.3732 0.69399 14.4794 0.747086C14.7024 0.863897 14.9493 1.06832 15.2201 1.36035C15.4909 1.65237 15.7006 1.95768 15.8493 2.27625ZM3.44075 10.0495C3.50446 9.98581 3.65313 9.83449 3.88676 9.59556C4.12038 9.35662 4.41241 9.06194 4.76284 8.7115L5.92565 7.5487L7.21588 6.25846L10.6406 2.83376L13.6193 5.82839L10.1946 9.25309L8.92027 10.5433C8.4955 10.9575 8.11321 11.3371 7.77339 11.6822C7.43358 12.0274 7.15217 12.3114 6.92916 12.5344C6.70616 12.7574 6.57342 12.8849 6.53094 12.9167C6.42475 13.0123 6.30263 13.1132 6.16458 13.2194C6.02653 13.3256 5.88317 13.4105 5.7345 13.4742C5.58583 13.5486 5.36814 13.6388 5.08142 13.745C4.7947 13.8512 4.49471 13.9547 4.18144 14.0556C3.86817 14.1565 3.57083 14.2441 3.28943 14.3185C3.00802 14.3928 2.79829 14.4406 2.66024 14.4618C2.37352 14.4937 2.18237 14.4512 2.0868 14.3344C1.99122 14.2176 1.96468 14.0211 2.00715 13.745C2.02839 13.5963 2.07883 13.3813 2.15848 13.0999C2.23812 12.8185 2.32308 12.5265 2.41334 12.2238C2.5036 11.9212 2.59121 11.6424 2.67616 11.3875C2.76112 11.1327 2.83014 10.9575 2.88324 10.8619C2.94695 10.7132 3.01863 10.5778 3.09828 10.4557C3.17792 10.3336 3.29208 10.1982 3.44075 10.0495Z" fill="currentColor"/>
</g>
<defs>
<clipPath id="clip0_5893_17753">
<rect width="16" height="15.9376" fill="white" transform="translate(0 0.53125)"/>
</clipPath>
</defs>
</svg>
