<svg width="20" height="20" viewBox="0 0 20 20" fill="none" xmlns="http://www.w3.org/2000/svg">
  <path
    d="M15.9404 18.0488H3.99788C2.90523 18.0488 2.02344 17.167 2.02344 16.0744V2.02327C2.02344 0.930617 2.90523 0.0488281 3.99788 0.0488281H15.9404C17.033 0.0488281 17.9148 0.930617 17.9148 2.02327V16.0744C17.9148 17.167 17.033 18.0488 15.9404 18.0488ZM3.99788 1.19899C3.55698 1.19899 3.1736 1.58237 3.1736 2.02327V16.0744C3.1736 16.5345 3.53781 16.8987 3.99788 16.8987H15.9404C16.4004 16.8987 16.7647 16.5345 16.7647 16.0744V2.02327C16.7647 1.56321 16.4004 1.19899 15.9404 1.19899H3.99788Z"
    fill="#006EA7" />
  <path
    d="M13.6203 7.83157H6.33599C5.58839 7.83157 4.99414 7.23732 4.99414 6.48972V4.13189C4.99414 3.38429 5.58839 2.79004 6.33599 2.79004H13.6203C14.3679 2.79004 14.9622 3.38429 14.9622 4.13189V6.48972C14.9622 7.23732 14.3679 7.83157 13.6203 7.83157ZM6.33599 3.9402C6.24015 3.9402 6.1443 3.99771 6.1443 4.13189V6.48972C6.1443 6.58557 6.24015 6.68141 6.33599 6.68141H13.6203C13.7162 6.68141 13.812 6.58557 13.812 6.48972V4.13189C13.812 4.03605 13.7162 3.9402 13.6203 3.9402H6.33599Z"
    fill="#006EA7" />
  <path
    d="M5.18555 10.6882C5.18555 10.9933 5.30672 11.2858 5.52242 11.5015C5.73812 11.7172 6.03067 11.8384 6.33571 11.8384C6.64075 11.8384 6.9333 11.7172 7.14899 11.5015C7.36469 11.2858 7.48587 10.9933 7.48587 10.6882C7.48587 10.3832 7.36469 10.0907 7.14899 9.87496C6.9333 9.65926 6.64075 9.53809 6.33571 9.53809C6.03067 9.53809 5.73812 9.65926 5.52242 9.87496C5.30672 10.0907 5.18555 10.3832 5.18555 10.6882Z"
    fill="#006EA7" />
  <path
    d="M8.82812 10.6882C8.82813 10.9933 8.9493 11.2858 9.165 11.5015C9.3807 11.7172 9.67324 11.8384 9.97828 11.8384C10.2833 11.8384 10.5759 11.7172 10.7916 11.5015C11.0073 11.2858 11.1284 10.9933 11.1284 10.6882C11.1284 10.3832 11.0073 10.0907 10.7916 9.87496C10.5759 9.65926 10.2833 9.53809 9.97828 9.53809C9.67324 9.53809 9.3807 9.65926 9.165 9.87496C8.9493 10.0907 8.82813 10.3832 8.82812 10.6882Z"
    fill="#006EA7" />
  <path
    d="M12.4707 10.6882C12.4707 10.9933 12.5919 11.2858 12.8076 11.5015C13.0233 11.7172 13.3158 11.8384 13.6209 11.8384C13.9259 11.8384 14.2185 11.7172 14.4341 11.5015C14.6498 11.2858 14.771 10.9933 14.771 10.6882C14.771 10.3832 14.6498 10.0907 14.4341 9.87496C14.2185 9.65926 13.9259 9.53809 13.6209 9.53809C13.3158 9.53809 13.0233 9.65926 12.8076 9.87496C12.5919 10.0907 12.4707 10.3832 12.4707 10.6882Z"
    fill="#006EA7" />
  <path
    d="M5.18555 14.1384C5.18555 14.4435 5.30672 14.736 5.52242 14.9517C5.73812 15.1674 6.03067 15.2886 6.33571 15.2886C6.64075 15.2886 6.9333 15.1674 7.14899 14.9517C7.36469 14.736 7.48587 14.4435 7.48587 14.1384C7.48587 13.8334 7.36469 13.5409 7.14899 13.3252C6.9333 13.1095 6.64075 12.9883 6.33571 12.9883C6.03067 12.9883 5.73812 13.1095 5.52242 13.3252C5.30672 13.5409 5.18555 13.8334 5.18555 14.1384Z"
    fill="#006EA7" />
  <path
    d="M8.82812 14.1384C8.82813 14.4435 8.9493 14.736 9.165 14.9517C9.3807 15.1674 9.67324 15.2886 9.97828 15.2886C10.2833 15.2886 10.5759 15.1674 10.7916 14.9517C11.0073 14.736 11.1284 14.4435 11.1284 14.1384C11.1284 13.8334 11.0073 13.5409 10.7916 13.3252C10.5759 13.1095 10.2833 12.9883 9.97828 12.9883C9.67324 12.9883 9.3807 13.1095 9.165 13.3252C8.9493 13.5409 8.82813 13.8334 8.82812 14.1384Z"
    fill="#006EA7" />
  <path
    d="M12.4707 14.1384C12.4707 14.4435 12.5919 14.736 12.8076 14.9517C13.0233 15.1674 13.3158 15.2886 13.6209 15.2886C13.9259 15.2886 14.2185 15.1674 14.4341 14.9517C14.6498 14.736 14.771 14.4435 14.771 14.1384C14.771 13.8334 14.6498 13.5409 14.4341 13.3252C14.2185 13.1095 13.9259 12.9883 13.6209 12.9883C13.3158 12.9883 13.0233 13.1095 12.8076 13.3252C12.5919 13.5409 12.4707 13.8334 12.4707 14.1384Z"
    fill="#006EA7" />
</svg>