<svg width="65" height="7" viewBox="0 0 65 7" fill="none" xmlns="http://www.w3.org/2000/svg">
  <path fill-rule="evenodd" clip-rule="evenodd"
    d="M61.8538 0.671845L64.3836 3.21743C64.5388 3.37364 64.5388 3.6269 64.3836 3.78311L61.8538 6.3287C61.6986 6.48491 61.4469 6.48491 61.2916 6.3287C61.1364 6.17249 61.1364 5.91922 61.2916 5.76301L63.1428 3.90027H63.1087V3.10027H63.1428L61.2916 1.23753C61.1364 1.08132 61.1364 0.828054 61.2916 0.671845C61.4469 0.515635 61.6986 0.515635 61.8538 0.671845ZM1.49379 3.90027H0.5V3.10027H1.49379V3.90027ZM5.46894 3.90027H3.48137V3.10027H5.46894V3.90027ZM9.4441 3.90027H7.45652V3.10027H9.4441V3.90027ZM13.4193 3.90027H11.4317V3.10027H13.4193V3.90027ZM17.3944 3.90027H15.4068V3.10027H17.3944V3.90027ZM21.3696 3.90027H19.382V3.10027H21.3696V3.90027ZM25.3447 3.90027H23.3571V3.10027H25.3447V3.90027ZM29.3199 3.90027H27.3323V3.10027H29.3199V3.90027ZM33.295 3.90027H31.3075V3.10027H33.295V3.90027ZM37.2702 3.90027H35.2826V3.10027H37.2702V3.90027ZM41.2453 3.90027H39.2578V3.10027H41.2453V3.90027ZM45.2205 3.90027H43.2329V3.10027H45.2205V3.90027ZM49.1957 3.90027H47.2081V3.10027H49.1957V3.90027ZM53.1708 3.90027H51.1832V3.10027H53.1708V3.90027ZM57.146 3.90027H55.1584V3.10027H57.146V3.90027ZM61.1211 3.90027H59.1335V3.10027H61.1211V3.90027Z"
    fill="currentColor" />
</svg>