<svg width="55" height="50" viewBox="0 0 55 50" fill="none" xmlns="http://www.w3.org/2000/svg">
  <path
    d="M9.94425 9.21378C9.99538 8.38281 9.76953 7.71591 9.26669 7.21307C8.76811 6.70597 8.04794 6.45241 7.10618 6.45241C6.46697 6.45241 5.88104 6.5696 5.34837 6.80398C4.8157 7.03835 4.37251 7.36009 4.01882 7.76918C3.66939 8.17401 3.44993 8.63636 3.36044 9.15625C3.30504 9.4929 3.31996 9.79758 3.40518 10.0703C3.49467 10.3388 3.64169 10.5774 3.84624 10.7862C4.05078 10.995 4.30433 11.1804 4.60689 11.3423C4.90945 11.5 5.24822 11.6385 5.62322 11.7578L6.98473 12.1797C7.44922 12.3288 7.87322 12.5014 8.25675 12.6974C8.64453 12.8935 8.97053 13.1278 9.23473 13.4006C9.49894 13.669 9.68644 13.9844 9.79723 14.3466C9.91229 14.7088 9.92933 15.1264 9.84837 15.5994C9.73331 16.3026 9.45632 16.9268 9.0174 17.4723C8.57848 18.0178 8.00959 18.4439 7.31072 18.7507C6.61186 19.0575 5.80646 19.2109 4.89453 19.2109C4.05504 19.2109 3.3434 19.0682 2.75959 18.7827C2.18004 18.4972 1.75178 18.1009 1.47479 17.5938C1.1978 17.0824 1.09126 16.4943 1.15518 15.8295H1.97337C1.92649 16.3707 2.02237 16.8395 2.26101 17.2358C2.49964 17.6278 2.85547 17.9304 3.32848 18.1435C3.80575 18.3565 4.37038 18.4631 5.02237 18.4631C5.72976 18.4631 6.36896 18.3416 6.93999 18.0987C7.51527 17.8558 7.98828 17.5192 8.35902 17.0888C8.73402 16.6584 8.96839 16.1598 9.06214 15.593C9.13885 15.1328 9.09624 14.7365 8.9343 14.4041C8.77237 14.0717 8.49751 13.7862 8.10973 13.5476C7.72621 13.3047 7.23828 13.0916 6.64595 12.9084L5.17578 12.4482C4.20419 12.1371 3.49467 11.7152 3.04723 11.1825C2.59979 10.6456 2.43999 9.97869 2.56783 9.18182C2.68715 8.49574 2.96626 7.89276 3.40518 7.37287C3.84411 6.85298 4.39595 6.44602 5.06072 6.15199C5.7255 5.85795 6.44993 5.71094 7.23402 5.71094C8.01385 5.71094 8.67649 5.86222 9.22195 6.16477C9.77166 6.46307 10.1765 6.87642 10.4364 7.40483C10.7006 7.93324 10.7965 8.53622 10.7241 9.21378H9.94425ZM17.2695 9.18182L17.1481 9.87855H12.8654L12.9805 9.18182H17.2695ZM14.815 6.82955H15.5884L13.9648 16.6797C13.8967 17.0803 13.918 17.4084 14.0288 17.6641C14.1438 17.9155 14.3164 18.103 14.5465 18.2266C14.7809 18.3459 15.0472 18.4055 15.3455 18.4055C15.4776 18.4055 15.5969 18.3949 15.7035 18.3736C15.81 18.348 15.9165 18.3203 16.0231 18.2905L16.0934 19C15.9613 19.0469 15.8207 19.0852 15.6715 19.1151C15.5224 19.1449 15.3498 19.1598 15.1538 19.1598C14.7447 19.1598 14.3739 19.0682 14.0415 18.8849C13.7134 18.7017 13.4641 18.4354 13.2937 18.0859C13.1275 17.7365 13.087 17.3146 13.1722 16.8203L14.815 6.82955ZM22.2234 19.2045C21.337 19.2045 20.6019 18.9851 20.0181 18.5462C19.4343 18.1072 19.0273 17.5064 18.7972 16.7436C18.5671 15.9808 18.533 15.1115 18.695 14.1357C18.8569 13.1555 19.1808 12.282 19.6665 11.5149C20.1523 10.7479 20.7468 10.1428 21.4499 9.69957C22.1531 9.25639 22.9116 9.0348 23.7255 9.0348C24.2752 9.0348 24.7759 9.1456 25.2276 9.36719C25.6836 9.58878 26.0671 9.90625 26.3782 10.3196C26.6893 10.7287 26.9045 11.2251 27.0238 11.8089C27.1431 12.3928 27.1431 13.049 27.0238 13.7777L26.9343 14.2635H19.1616L19.283 13.554H26.2695C26.3888 12.8466 26.3548 12.2074 26.1673 11.6364C25.9798 11.0611 25.6687 10.6051 25.234 10.2685C24.8036 9.93182 24.2752 9.76349 23.6488 9.76349C23.0096 9.76349 22.4002 9.94886 21.8207 10.3196C21.2454 10.6861 20.7511 11.1761 20.3377 11.7898C19.9286 12.4034 19.6559 13.0788 19.5195 13.8161L19.4428 14.2124C19.3065 15.0561 19.3235 15.7997 19.494 16.4432C19.6687 17.0824 19.9925 17.5831 20.4656 17.9453C20.9386 18.3033 21.5565 18.4822 22.3192 18.4822C22.8519 18.4822 23.3249 18.3928 23.7383 18.2138C24.1559 18.0305 24.5096 17.8089 24.7994 17.549C25.0934 17.2891 25.3235 17.0376 25.4897 16.7947L26.1353 17.0824C25.9393 17.4105 25.658 17.7386 25.2915 18.0668C24.9251 18.3906 24.484 18.6612 23.9684 18.8786C23.4528 19.0959 22.8711 19.2045 22.2234 19.2045ZM28.2431 22.6818L30.4931 9.18182H31.2537L30.8958 11.3743H30.9917C31.2132 10.9524 31.4902 10.5646 31.8226 10.2109C32.1593 9.85724 32.5534 9.57386 33.0051 9.3608C33.4611 9.14347 33.9703 9.0348 34.5328 9.0348C35.3255 9.0348 35.9796 9.25213 36.4952 9.68679C37.0108 10.1214 37.3667 10.7202 37.5627 11.483C37.7587 12.2457 37.7757 13.1236 37.6138 14.1165C37.4476 15.1051 37.1365 15.983 36.6806 16.75C36.2289 17.5128 35.6749 18.1136 35.0186 18.5526C34.3624 18.9872 33.6422 19.2045 32.8581 19.2045C32.2999 19.2045 31.8269 19.098 31.4391 18.8849C31.0556 18.6719 30.753 18.3885 30.5314 18.0348C30.3098 17.6768 30.1564 17.2848 30.0712 16.8587H29.9945L29.0229 22.6818H28.2431ZM30.4419 14.1101C30.3056 14.9453 30.3056 15.6932 30.4419 16.3537C30.5826 17.0099 30.8553 17.5298 31.2601 17.9134C31.6692 18.2926 32.204 18.4822 32.8645 18.4822C33.5336 18.4822 34.1408 18.2905 34.6863 17.907C35.236 17.5192 35.6962 16.995 36.0669 16.3345C36.4419 15.674 36.6976 14.9325 36.834 14.1101C36.9703 13.2876 36.9703 12.5483 36.834 11.892C36.6976 11.2358 36.427 10.718 36.0222 10.3388C35.6174 9.95526 35.0762 9.76349 34.3986 9.76349C33.7338 9.76349 33.1266 9.95312 32.5769 10.3324C32.0272 10.7074 31.5669 11.223 31.1962 11.8793C30.8297 12.5312 30.5783 13.2749 30.4419 14.1101ZM44.4837 19L44.5859 18.3928L49.6229 13.5092C50.3516 12.8104 50.9332 12.218 51.3679 11.7322C51.8068 11.2464 52.1328 10.8075 52.3459 10.4155C52.5632 10.0234 52.706 9.61435 52.7741 9.18821C52.8636 8.65554 52.8232 8.18466 52.6527 7.77557C52.4865 7.36222 52.2116 7.04048 51.8281 6.81037C51.4489 6.58026 50.9865 6.4652 50.4411 6.4652C49.87 6.4652 49.3438 6.59304 48.8622 6.84872C48.3807 7.10014 47.978 7.44105 47.6541 7.87145C47.3345 8.30185 47.13 8.78338 47.0405 9.31605H46.267C46.3778 8.64276 46.6357 8.03551 47.0405 7.49432C47.4496 6.95312 47.9567 6.52486 48.5618 6.20952C49.1669 5.88991 49.8253 5.73011 50.5369 5.73011C51.2273 5.73011 51.8175 5.88139 52.3075 6.18395C52.7976 6.48651 53.1534 6.89986 53.375 7.42401C53.5966 7.94389 53.652 8.53196 53.5412 9.18821C53.4645 9.67401 53.3068 10.1406 53.0682 10.5881C52.8295 11.0312 52.4652 11.5277 51.9751 12.0774C51.4893 12.6229 50.8331 13.294 50.0064 14.0909L45.7685 18.1882L45.7621 18.2585H52.6335L52.5057 19H44.4837ZM4.75062 43H0.833008V32.8182H4.71085C5.7582 32.8182 6.66303 33.022 7.42534 33.4297C8.19096 33.834 8.78092 34.4174 9.19522 35.1797C9.61284 35.9387 9.82164 36.8485 9.82164 37.9091C9.82164 38.9697 9.61449 39.8812 9.2002 40.6435C8.7859 41.4025 8.19925 41.9858 7.44025 42.3935C6.68126 42.7978 5.78471 43 4.75062 43ZM3.59721 40.6534H4.65119C5.15498 40.6534 5.58419 40.5722 5.93883 40.4098C6.29679 40.2474 6.56857 39.9673 6.75417 39.5696C6.94309 39.1719 7.03755 38.6184 7.03755 37.9091C7.03755 37.1998 6.94144 36.6463 6.7492 36.2486C6.56028 35.8509 6.28187 35.5708 5.91397 35.4084C5.54939 35.246 5.10195 35.1648 4.57164 35.1648H3.59721V40.6534ZM14.7994 43.1392C13.9841 43.1392 13.2815 42.9834 12.6915 42.6719C12.1048 42.357 11.6524 41.9062 11.3343 41.3196C11.0194 40.7296 10.8619 40.0237 10.8619 39.2017C10.8619 38.4129 11.021 37.7235 11.3392 37.1335C11.6574 36.5436 12.1065 36.0845 12.6865 35.7564C13.2665 35.4283 13.951 35.2642 14.7398 35.2642C15.3165 35.2642 15.8385 35.3537 16.3058 35.5327C16.7732 35.7116 17.1726 35.9718 17.504 36.3132C17.8354 36.6513 18.0906 37.0623 18.2696 37.5462C18.4486 38.0301 18.5381 38.5753 18.5381 39.1818V39.8182H11.7171V38.3068H16.0125C16.0092 38.0881 15.9529 37.8958 15.8435 37.7301C15.7374 37.5611 15.5932 37.4302 15.411 37.3374C15.232 37.2412 15.0281 37.1932 14.7994 37.1932C14.5774 37.1932 14.3735 37.2412 14.1879 37.3374C14.0023 37.4302 13.8532 37.5594 13.7405 37.7251C13.6311 37.8909 13.5731 38.0848 13.5665 38.3068V39.9375C13.5665 40.1828 13.6179 40.4015 13.7206 40.5938C13.8234 40.786 13.9709 40.9368 14.1631 41.0462C14.3553 41.1555 14.5873 41.2102 14.8591 41.2102C15.048 41.2102 15.2204 41.1837 15.3762 41.1307C15.5352 41.0777 15.6711 41.0014 15.7838 40.902C15.8965 40.7992 15.9794 40.6766 16.0324 40.5341H18.5381C18.4519 41.0644 18.2481 41.5251 17.9266 41.9162C17.6051 42.304 17.1792 42.6056 16.6489 42.821C16.1219 43.0331 15.5054 43.1392 14.7994 43.1392ZM19.6579 45.8636V35.3636H22.3824V36.696H22.442C22.5415 36.4375 22.6873 36.2005 22.8795 35.9851C23.0718 35.7663 23.3104 35.5923 23.5954 35.4631C23.8805 35.3305 24.2119 35.2642 24.5898 35.2642C25.0935 35.2642 25.5725 35.3984 26.0265 35.6669C26.4839 35.9354 26.8551 36.358 27.1402 36.9347C27.4285 37.5114 27.5727 38.2604 27.5727 39.1818C27.5727 40.0634 27.4352 40.7943 27.1601 41.3743C26.8883 41.9543 26.5237 42.3868 26.0663 42.6719C25.6122 42.9569 25.1134 43.0994 24.5699 43.0994C24.2119 43.0994 23.8921 43.0414 23.6104 42.9254C23.3319 42.8061 23.0933 42.6454 22.8944 42.4432C22.6989 42.2377 22.5481 42.0057 22.442 41.7472H22.4023V45.8636H19.6579ZM22.3426 39.1818C22.3426 39.553 22.3907 39.8745 22.4868 40.1463C22.5862 40.4148 22.7254 40.6236 22.9044 40.7727C23.0867 40.9186 23.3038 40.9915 23.5557 40.9915C23.8076 40.9915 24.0213 40.9202 24.197 40.7777C24.376 40.6319 24.5119 40.4247 24.6047 40.1562C24.7008 39.8845 24.7488 39.5597 24.7488 39.1818C24.7488 38.804 24.7008 38.4808 24.6047 38.2124C24.5119 37.9406 24.376 37.7334 24.197 37.5909C24.0213 37.4451 23.8076 37.3722 23.5557 37.3722C23.3038 37.3722 23.0867 37.4451 22.9044 37.5909C22.7254 37.7334 22.5862 37.9406 22.4868 38.2124C22.3907 38.4808 22.3426 38.804 22.3426 39.1818ZM32.4014 43.1392C31.5728 43.1392 30.8635 42.9751 30.2735 42.647C29.6836 42.3156 29.2311 41.8549 28.9163 41.2649C28.6014 40.6716 28.444 39.9839 28.444 39.2017C28.444 38.4195 28.6014 37.7334 28.9163 37.1435C29.2311 36.5502 29.6836 36.0895 30.2735 35.7614C30.8635 35.4299 31.5728 35.2642 32.4014 35.2642C33.23 35.2642 33.9392 35.4299 34.5292 35.7614C35.1192 36.0895 35.5716 36.5502 35.8865 37.1435C36.2013 37.7334 36.3588 38.4195 36.3588 39.2017C36.3588 39.9839 36.2013 40.6716 35.8865 41.2649C35.5716 41.8549 35.1192 42.3156 34.5292 42.647C33.9392 42.9751 33.23 43.1392 32.4014 43.1392ZM32.4213 41.1108C32.6533 41.1108 32.8538 41.0329 33.0228 40.8771C33.1919 40.7214 33.3228 40.4993 33.4156 40.2109C33.5084 39.9226 33.5548 39.5795 33.5548 39.1818C33.5548 38.7808 33.5084 38.4377 33.4156 38.1527C33.3228 37.8643 33.1919 37.6423 33.0228 37.4865C32.8538 37.3307 32.6533 37.2528 32.4213 37.2528C32.176 37.2528 31.9655 37.3307 31.7899 37.4865C31.6142 37.6423 31.48 37.8643 31.3872 38.1527C31.2944 38.4377 31.248 38.7808 31.248 39.1818C31.248 39.5795 31.2944 39.9226 31.3872 40.2109C31.48 40.4993 31.6142 40.7214 31.7899 40.8771C31.9655 41.0329 32.176 41.1108 32.4213 41.1108ZM44.4525 37.8494H41.9269C41.9137 37.6937 41.859 37.5594 41.7629 37.4467C41.6668 37.334 41.5425 37.2479 41.39 37.1882C41.2409 37.1252 41.0751 37.0938 40.8928 37.0938C40.6575 37.0938 40.4553 37.1368 40.2863 37.223C40.1173 37.3092 40.0344 37.4318 40.0377 37.5909C40.0344 37.7036 40.0825 37.808 40.1819 37.9041C40.2847 38.0002 40.4819 38.0748 40.7735 38.1278L42.3247 38.4062C43.1069 38.5488 43.6885 38.7891 44.0697 39.1271C44.4542 39.4619 44.6481 39.911 44.6514 40.4744C44.6481 41.018 44.4856 41.4903 44.1642 41.8913C43.846 42.2891 43.4101 42.5973 42.8566 42.8161C42.3064 43.0315 41.6784 43.1392 40.9724 43.1392C39.8057 43.1392 38.8926 42.9006 38.233 42.4233C37.5768 41.946 37.2106 41.3163 37.1343 40.5341H39.8588C39.8952 40.776 40.0145 40.9633 40.2167 41.0959C40.4222 41.2251 40.6807 41.2898 40.9923 41.2898C41.2442 41.2898 41.4513 41.2467 41.6137 41.1605C41.7794 41.0743 41.864 40.9517 41.8673 40.7926C41.864 40.6468 41.791 40.5308 41.6485 40.4446C41.5093 40.3584 41.2906 40.2888 40.9923 40.2358L39.64 39.9972C38.8611 39.8613 38.2778 39.6027 37.89 39.2216C37.5022 38.8404 37.31 38.3499 37.3133 37.75C37.31 37.2197 37.4492 36.7706 37.7309 36.4027C38.016 36.0315 38.422 35.7498 38.949 35.5575C39.4793 35.362 40.1073 35.2642 40.8332 35.2642C41.9369 35.2642 42.8069 35.4929 43.4433 35.9503C44.0829 36.4077 44.4194 37.0407 44.4525 37.8494ZM45.7029 43V35.3636H48.4472V43H45.7029ZM47.075 34.5682C46.7038 34.5682 46.3856 34.4455 46.1205 34.2003C45.8553 33.955 45.7227 33.66 45.7227 33.3153C45.7227 32.9706 45.8553 32.6757 46.1205 32.4304C46.3856 32.1851 46.7038 32.0625 47.075 32.0625C47.4495 32.0625 47.7677 32.1851 48.0296 32.4304C48.2947 32.6757 48.4273 32.9706 48.4273 33.3153C48.4273 33.66 48.2947 33.955 48.0296 34.2003C47.7677 34.4455 47.4495 34.5682 47.075 34.5682ZM54.3994 35.3636V37.3523H49.3682V35.3636H54.3994ZM50.3426 33.5341H53.0869V40.544C53.0869 40.6501 53.1051 40.7396 53.1416 40.8125C53.1781 40.8821 53.2344 40.9351 53.3106 40.9716C53.3869 41.0047 53.4846 41.0213 53.604 41.0213C53.6868 41.0213 53.7829 41.0114 53.8923 40.9915C54.005 40.9716 54.0879 40.955 54.1409 40.9418L54.5386 42.8707C54.416 42.9072 54.2403 42.9519 54.0116 43.005C53.7863 43.058 53.5178 43.0928 53.2062 43.1094C52.5765 43.1425 52.0479 43.0779 51.6203 42.9155C51.1927 42.7498 50.8712 42.4896 50.6558 42.1349C50.4404 41.7803 50.336 41.3362 50.3426 40.8026V33.5341Z"
    fill="white" />
</svg>