<svg width="159" height="80" viewBox="0 0 159 80" fill="none" xmlns="http://www.w3.org/2000/svg">
  <path
    d="M61.8915 9.71378C61.9426 8.88281 61.7168 8.21591 61.214 7.71307C60.7154 7.20597 59.9952 6.95241 59.0534 6.95241C58.4142 6.95241 57.8283 7.0696 57.2956 7.30398C56.763 7.53835 56.3198 7.86009 55.9661 8.26918C55.6167 8.67401 55.3972 9.13636 55.3077 9.65625C55.2523 9.9929 55.2672 10.2976 55.3525 10.5703C55.4419 10.8388 55.589 11.0774 55.7935 11.2862C55.998 11.495 56.2516 11.6804 56.5542 11.8423C56.8567 12 57.1955 12.1385 57.5705 12.2578L58.932 12.6797C59.3965 12.8288 59.8205 13.0014 60.204 13.1974C60.5918 13.3935 60.9178 13.6278 61.182 13.9006C61.4462 14.169 61.6337 14.4844 61.7445 14.8466C61.8596 15.2088 61.8766 15.6264 61.7956 16.0994C61.6806 16.8026 61.4036 17.4268 60.9647 17.9723C60.5257 18.5178 59.9569 18.9439 59.258 19.2507C58.5591 19.5575 57.7537 19.7109 56.8418 19.7109C56.0023 19.7109 55.2907 19.5682 54.7069 19.2827C54.1273 18.9972 53.699 18.6009 53.4221 18.0938C53.1451 17.5824 53.0385 16.9943 53.1025 16.3295H53.9206C53.8738 16.8707 53.9696 17.3395 54.2083 17.7358C54.4469 18.1278 54.8027 18.4304 55.2757 18.6435C55.753 18.8565 56.3176 18.9631 56.9696 18.9631C57.677 18.9631 58.3162 18.8416 58.8873 18.5987C59.4625 18.3558 59.9355 18.0192 60.3063 17.5888C60.6813 17.1584 60.9157 16.6598 61.0094 16.093C61.0861 15.6328 61.0435 15.2365 60.8816 14.9041C60.7196 14.5717 60.4448 14.2862 60.057 14.0476C59.6735 13.8047 59.1855 13.5916 58.5932 13.4084L57.123 12.9482C56.1515 12.6371 55.4419 12.2152 54.9945 11.6825C54.5471 11.1456 54.3873 10.4787 54.5151 9.68182C54.6344 8.99574 54.9135 8.39276 55.3525 7.87287C55.7914 7.35298 56.3432 6.94602 57.008 6.65199C57.6728 6.35795 58.3972 6.21094 59.1813 6.21094C59.9611 6.21094 60.6238 6.36222 61.1692 6.66477C61.7189 6.96307 62.1238 7.37642 62.3837 7.90483C62.6479 8.43324 62.7438 9.03622 62.6713 9.71378H61.8915ZM69.2168 9.68182L69.0953 10.3786H64.8127L64.9277 9.68182H69.2168ZM66.7623 7.32955H67.5357L65.9121 17.1797C65.8439 17.5803 65.8652 17.9084 65.976 18.1641C66.0911 18.4155 66.2637 18.603 66.4938 18.7266C66.7282 18.8459 66.9945 18.9055 67.2928 18.9055C67.4249 18.9055 67.5442 18.8949 67.6507 18.8736C67.7573 18.848 67.8638 18.8203 67.9703 18.7905L68.0407 19.5C67.9086 19.5469 67.7679 19.5852 67.6188 19.6151C67.4696 19.6449 67.2971 19.6598 67.101 19.6598C66.6919 19.6598 66.3212 19.5682 65.9888 19.3849C65.6607 19.2017 65.4114 18.9354 65.2409 18.5859C65.0748 18.2365 65.0343 17.8146 65.1195 17.3203L66.7623 7.32955ZM74.1706 19.7045C73.2843 19.7045 72.5492 19.4851 71.9654 19.0462C71.3816 18.6072 70.9746 18.0064 70.7445 17.2436C70.5144 16.4808 70.4803 15.6115 70.6422 14.6357C70.8042 13.6555 71.128 12.782 71.6138 12.0149C72.0996 11.2479 72.6941 10.6428 73.3972 10.1996C74.1003 9.75639 74.8588 9.5348 75.6728 9.5348C76.2225 9.5348 76.7232 9.6456 77.1749 9.86719C77.6309 10.0888 78.0144 10.4062 78.3255 10.8196C78.6365 11.2287 78.8517 11.7251 78.9711 12.3089C79.0904 12.8928 79.0904 13.549 78.9711 14.2777L78.8816 14.7635H71.1088L71.2303 14.054H78.2168C78.3361 13.3466 78.302 12.7074 78.1145 12.1364C77.927 11.5611 77.6159 11.1051 77.1813 10.7685C76.7509 10.4318 76.2225 10.2635 75.5961 10.2635C74.9569 10.2635 74.3475 10.4489 73.7679 10.8196C73.1926 11.1861 72.6983 11.6761 72.285 12.2898C71.8759 12.9034 71.6032 13.5788 71.4668 14.3161L71.3901 14.7124C71.2537 15.5561 71.2708 16.2997 71.4412 16.9432C71.6159 17.5824 71.9398 18.0831 72.4128 18.4453C72.8858 18.8033 73.5037 18.9822 74.2665 18.9822C74.7992 18.9822 75.2722 18.8928 75.6855 18.7138C76.1032 18.5305 76.4569 18.3089 76.7466 18.049C77.0407 17.7891 77.2708 17.5376 77.437 17.2947L78.0826 17.5824C77.8865 17.9105 77.6053 18.2386 77.2388 18.5668C76.8723 18.8906 76.4313 19.1612 75.9157 19.3786C75.4 19.5959 74.8184 19.7045 74.1706 19.7045ZM80.1903 23.1818L82.4403 9.68182H83.201L82.843 11.8743H82.9389C83.1605 11.4524 83.4375 11.0646 83.7699 10.7109C84.1065 10.3572 84.5007 10.0739 84.9524 9.8608C85.4084 9.64347 85.9176 9.5348 86.4801 9.5348C87.2727 9.5348 87.9268 9.75213 88.4425 10.1868C88.9581 10.6214 89.3139 11.2202 89.5099 11.983C89.706 12.7457 89.723 13.6236 89.5611 14.6165C89.3949 15.6051 89.0838 16.483 88.6278 17.25C88.1761 18.0128 87.6222 18.6136 86.9659 19.0526C86.3097 19.4872 85.5895 19.7045 84.8054 19.7045C84.2472 19.7045 83.7741 19.598 83.3864 19.3849C83.0028 19.1719 82.7003 18.8885 82.4787 18.5348C82.2571 18.1768 82.1037 17.7848 82.0185 17.3587H81.9418L80.9702 23.1818H80.1903ZM82.3892 14.6101C82.2528 15.4453 82.2528 16.1932 82.3892 16.8537C82.5298 17.5099 82.8026 18.0298 83.2074 18.4134C83.6165 18.7926 84.1513 18.9822 84.8118 18.9822C85.4808 18.9822 86.0881 18.7905 86.6335 18.407C87.1832 18.0192 87.6435 17.495 88.0142 16.8345C88.3892 16.174 88.6449 15.4325 88.7812 14.6101C88.9176 13.7876 88.9176 13.0483 88.7812 12.392C88.6449 11.7358 88.3743 11.218 87.9695 10.8388C87.5646 10.4553 87.0234 10.2635 86.3459 10.2635C85.6811 10.2635 85.0739 10.4531 84.5241 10.8324C83.9744 11.2074 83.5142 11.723 83.1435 12.3793C82.777 13.0312 82.5256 13.7749 82.3892 14.6101ZM100.515 19.679C99.7399 19.679 99.0687 19.532 98.502 19.2379C97.9352 18.9439 97.5133 18.5369 97.2363 18.017C96.9636 17.4972 96.8805 16.9006 96.987 16.2273H97.786C97.7093 16.7599 97.7754 17.2308 97.9842 17.6399C98.193 18.0447 98.5147 18.3622 98.9494 18.5923C99.3883 18.8224 99.9125 18.9375 100.522 18.9375C101.165 18.9375 101.762 18.8097 102.312 18.554C102.861 18.2983 103.317 17.951 103.68 17.5121C104.042 17.0689 104.268 16.5703 104.357 16.0163C104.447 15.4411 104.378 14.9382 104.153 14.5078C103.927 14.0774 103.567 13.7408 103.072 13.4979C102.578 13.255 101.973 13.1335 101.257 13.1335H100.758L100.873 12.392H101.34C101.949 12.392 102.516 12.2791 103.04 12.0533C103.564 11.8232 104.001 11.5014 104.351 11.0881C104.7 10.6747 104.917 10.1868 105.003 9.62429C105.092 9.10866 105.058 8.65057 104.9 8.25C104.743 7.84943 104.474 7.53622 104.095 7.31037C103.72 7.08026 103.245 6.9652 102.67 6.9652C102.111 6.9652 101.581 7.07812 101.078 7.30398C100.579 7.52983 100.157 7.8473 99.8123 8.25639C99.4672 8.66548 99.2498 9.14062 99.1603 9.68182H98.3741C98.4934 9.00426 98.7598 8.40767 99.1731 7.89205C99.5865 7.37216 100.098 6.9652 100.707 6.67116C101.321 6.37713 101.977 6.23011 102.676 6.23011C103.413 6.23011 104.031 6.38352 104.53 6.69034C105.032 6.99716 105.393 7.41051 105.61 7.9304C105.831 8.45028 105.889 9.0277 105.782 9.66264C105.667 10.4169 105.352 11.0604 104.836 11.593C104.321 12.1214 103.69 12.4922 102.944 12.7053V12.7692C103.758 12.9609 104.361 13.3551 104.753 13.9517C105.15 14.544 105.28 15.2536 105.143 16.0803C105.028 16.7791 104.756 17.3991 104.325 17.9403C103.895 18.4815 103.351 18.9077 102.695 19.2188C102.039 19.5256 101.312 19.679 100.515 19.679ZM35.5176 43.5V33.3182H39.9324C40.7079 33.3182 41.3592 33.4226 41.8862 33.6314C42.4165 33.8402 42.8159 34.1352 43.0843 34.5163C43.3561 34.8975 43.492 35.3466 43.492 35.8636C43.492 36.2382 43.4092 36.5795 43.2434 36.8878C43.081 37.196 42.8523 37.4545 42.5574 37.6634C42.2624 37.8688 41.9177 38.0114 41.5233 38.0909V38.1903C41.9608 38.2069 42.3585 38.3179 42.7164 38.5234C43.0744 38.7256 43.3594 39.0057 43.5716 39.3636C43.7837 39.7183 43.8897 40.1359 43.8897 40.6165C43.8897 41.1733 43.7439 41.6688 43.4522 42.103C43.1639 42.5372 42.7529 42.8786 42.2193 43.1271C41.6857 43.3757 41.0493 43.5 40.3102 43.5H35.5176ZM38.2818 41.2926H39.5744C40.0384 41.2926 40.3864 41.2064 40.6184 41.0341C40.8504 40.8584 40.9664 40.5999 40.9664 40.2585C40.9664 40.0199 40.9118 39.8177 40.8024 39.652C40.693 39.4863 40.5372 39.3603 40.335 39.2741C40.1362 39.188 39.8959 39.1449 39.6142 39.1449H38.2818V41.2926ZM38.2818 37.4347H39.4153C39.6573 37.4347 39.871 37.3965 40.0566 37.3203C40.2422 37.2441 40.3864 37.1347 40.4892 36.9922C40.5952 36.8464 40.6483 36.669 40.6483 36.4602C40.6483 36.1454 40.5356 35.9051 40.3102 35.7393C40.0848 35.5703 39.7998 35.4858 39.4551 35.4858H38.2818V37.4347ZM47.0368 43.6193C46.5495 43.6193 46.1187 43.5398 45.7441 43.3807C45.3729 43.2183 45.0813 42.973 44.8691 42.6449C44.657 42.3168 44.551 41.8991 44.551 41.392C44.551 40.9744 44.6222 40.6181 44.7647 40.3232C44.9073 40.0249 45.1061 39.7812 45.3613 39.5923C45.6165 39.4034 45.9132 39.2592 46.2512 39.1598C46.5926 39.0604 46.9605 38.9957 47.3549 38.9659C47.7825 38.9328 48.1255 38.893 48.3841 38.8466C48.6459 38.7969 48.8348 38.7289 48.9508 38.6428C49.0668 38.5533 49.1248 38.4356 49.1248 38.2898V38.2699C49.1248 38.071 49.0486 37.9186 48.8961 37.8125C48.7437 37.7064 48.5481 37.6534 48.3095 37.6534C48.0476 37.6534 47.8339 37.7114 47.6681 37.8274C47.5057 37.9401 47.408 38.1141 47.3748 38.3494H44.8493C44.8824 37.8854 45.0299 37.4579 45.2917 37.0668C45.5569 36.6723 45.943 36.3575 46.4501 36.1222C46.9572 35.8835 47.5903 35.7642 48.3493 35.7642C48.8961 35.7642 49.3867 35.8288 49.8208 35.9581C50.255 36.084 50.6246 36.2614 50.9295 36.4901C51.2344 36.7154 51.4664 36.9806 51.6255 37.2855C51.7879 37.5871 51.8691 37.9152 51.8691 38.2699V43.5H49.3038V42.4261H49.2441C49.0917 42.7112 48.9061 42.9415 48.6873 43.1172C48.4719 43.2929 48.225 43.4205 47.9466 43.5C47.6715 43.5795 47.3682 43.6193 47.0368 43.6193ZM47.9316 41.8892C48.1404 41.8892 48.336 41.8461 48.5183 41.7599C48.7039 41.6738 48.8547 41.5495 48.9707 41.3871C49.0867 41.2247 49.1447 41.0275 49.1447 40.7955V40.1591C49.0718 40.1889 48.9939 40.2171 48.911 40.2436C48.8315 40.2701 48.7453 40.295 48.6525 40.3182C48.563 40.3414 48.4669 40.3629 48.3642 40.3828C48.2647 40.4027 48.1603 40.4209 48.051 40.4375C47.8388 40.4706 47.6648 40.5253 47.5289 40.6016C47.3964 40.6745 47.2969 40.7656 47.2306 40.875C47.1677 40.9811 47.1362 41.1004 47.1362 41.233C47.1362 41.4451 47.2108 41.6075 47.3599 41.7202C47.5091 41.8329 47.6996 41.8892 47.9316 41.8892ZM60.1605 38.3494H57.6349C57.6217 38.1937 57.567 38.0594 57.4709 37.9467C57.3748 37.834 57.2505 37.7479 57.098 37.6882C56.9489 37.6252 56.7831 37.5938 56.6009 37.5938C56.3655 37.5938 56.1634 37.6368 55.9943 37.723C55.8253 37.8092 55.7424 37.9318 55.7457 38.0909C55.7424 38.2036 55.7905 38.308 55.8899 38.4041C55.9927 38.5002 56.1899 38.5748 56.4815 38.6278L58.0327 38.9062C58.8149 39.0488 59.3965 39.2891 59.7777 39.6271C60.1622 39.9619 60.3561 40.411 60.3594 40.9744C60.3561 41.518 60.1937 41.9903 59.8722 42.3913C59.554 42.7891 59.1181 43.0973 58.5646 43.3161C58.0144 43.5315 57.3864 43.6392 56.6804 43.6392C55.5137 43.6392 54.6006 43.4006 53.9411 42.9233C53.2848 42.446 52.9186 41.8163 52.8423 41.0341H55.5668C55.6032 41.276 55.7225 41.4633 55.9247 41.5959C56.1302 41.7251 56.3887 41.7898 56.7003 41.7898C56.9522 41.7898 57.1593 41.7467 57.3217 41.6605C57.4875 41.5743 57.572 41.4517 57.5753 41.2926C57.572 41.1468 57.4991 41.0308 57.3565 40.9446C57.2173 40.8584 56.9986 40.7888 56.7003 40.7358L55.348 40.4972C54.5691 40.3613 53.9858 40.1027 53.598 39.7216C53.2102 39.3404 53.018 38.8499 53.0213 38.25C53.018 37.7197 53.1572 37.2706 53.4389 36.9027C53.724 36.5315 54.13 36.2498 54.657 36.0575C55.1873 35.862 55.8153 35.7642 56.5412 35.7642C57.6449 35.7642 58.5149 35.9929 59.1513 36.4503C59.791 36.9077 60.1274 37.5407 60.1605 38.3494ZM65.07 43.6392C64.2546 43.6392 63.552 43.4834 62.962 43.1719C62.3754 42.857 61.9229 42.4062 61.6048 41.8196C61.2899 41.2296 61.1325 40.5237 61.1325 39.7017C61.1325 38.9129 61.2915 38.2235 61.6097 37.6335C61.9279 37.0436 62.377 36.5845 62.957 36.2564C63.5371 35.9283 64.2215 35.7642 65.0103 35.7642C65.587 35.7642 66.109 35.8537 66.5763 36.0327C67.0437 36.2116 67.4431 36.4718 67.7745 36.8132C68.1059 37.1513 68.3612 37.5623 68.5401 38.0462C68.7191 38.5301 68.8086 39.0753 68.8086 39.6818V40.3182H61.9876V38.8068H66.283C66.2797 38.5881 66.2234 38.3958 66.114 38.2301C66.0079 38.0611 65.8638 37.9302 65.6815 37.8374C65.5025 37.7412 65.2987 37.6932 65.07 37.6932C64.8479 37.6932 64.6441 37.7412 64.4585 37.8374C64.2728 37.9302 64.1237 38.0594 64.011 38.2251C63.9016 38.3909 63.8436 38.5848 63.837 38.8068V40.4375C63.837 40.6828 63.8884 40.9015 63.9911 41.0938C64.0939 41.286 64.2414 41.4368 64.4336 41.5462C64.6258 41.6555 64.8578 41.7102 65.1296 41.7102C65.3185 41.7102 65.4909 41.6837 65.6467 41.6307C65.8058 41.5777 65.9416 41.5014 66.0543 41.402C66.167 41.2992 66.2499 41.1766 66.3029 41.0341H68.8086C68.7224 41.5644 68.5186 42.0251 68.1971 42.4162C67.8756 42.804 67.4497 43.1056 66.9194 43.321C66.3924 43.5331 65.7759 43.6392 65.07 43.6392ZM72.7175 43.5V35.8636H75.4618V43.5H72.7175ZM74.0897 35.0682C73.7185 35.0682 73.4003 34.9455 73.1351 34.7003C72.87 34.455 72.7374 34.16 72.7374 33.8153C72.7374 33.4706 72.87 33.1757 73.1351 32.9304C73.4003 32.6851 73.7185 32.5625 74.0897 32.5625C74.4642 32.5625 74.7824 32.6851 75.0442 32.9304C75.3094 33.1757 75.4419 33.4706 75.4419 33.8153C75.4419 34.16 75.3094 34.455 75.0442 34.7003C74.7824 34.9455 74.4642 35.0682 74.0897 35.0682ZM79.6044 39.2045V43.5H76.8601V35.8636H79.4652V37.3153H79.5447C79.7105 36.8314 80.0021 36.4519 80.4197 36.1768C80.8407 35.9018 81.3312 35.7642 81.8913 35.7642C82.4316 35.7642 82.9006 35.8885 83.2983 36.1371C83.6993 36.3823 84.0092 36.7204 84.228 37.1513C84.45 37.5821 84.5594 38.0743 84.5561 38.6278V43.5H81.8118V39.2045C81.8151 38.8267 81.719 38.5301 81.5234 38.3146C81.3312 38.0992 81.0627 37.9915 80.718 37.9915C80.4927 37.9915 80.2955 38.0412 80.1264 38.1406C79.9607 38.2367 79.8331 38.3759 79.7436 38.5582C79.6541 38.7372 79.6077 38.9527 79.6044 39.2045ZM89.5898 43.6392C88.7612 43.6392 88.052 43.4751 87.462 43.147C86.872 42.8156 86.4196 42.3549 86.1048 41.7649C85.7899 41.1716 85.6325 40.4839 85.6325 39.7017C85.6325 38.9195 85.7899 38.2334 86.1048 37.6435C86.4196 37.0502 86.872 36.5895 87.462 36.2614C88.052 35.9299 88.7612 35.7642 89.5898 35.7642C90.3389 35.7642 90.9869 35.9001 91.5337 36.1719C92.0839 36.4403 92.5098 36.8215 92.8114 37.3153C93.113 37.8059 93.2655 38.3826 93.2688 39.0455H90.7234C90.6869 38.6444 90.5709 38.3395 90.3754 38.1307C90.1831 37.9186 89.9345 37.8125 89.6296 37.8125C89.391 37.8125 89.1822 37.8821 89.0032 38.0213C88.8242 38.1572 88.685 38.3643 88.5856 38.6428C88.4862 38.9179 88.4364 39.2642 88.4364 39.6818C88.4364 40.0994 88.4862 40.4474 88.5856 40.7259C88.685 41.0009 88.8242 41.2081 89.0032 41.3473C89.1822 41.4832 89.391 41.5511 89.6296 41.5511C89.8318 41.5511 90.0108 41.5047 90.1665 41.4119C90.3223 41.3158 90.4483 41.1766 90.5444 40.9943C90.6438 40.8087 90.7035 40.5833 90.7234 40.3182H93.2688C93.2589 40.991 93.1048 41.5777 92.8065 42.0781C92.5082 42.5753 92.0856 42.9598 91.5387 43.2315C90.9951 43.5033 90.3455 43.6392 89.5898 43.6392ZM98.0801 43.6392C97.2515 43.6392 96.5422 43.4751 95.9522 43.147C95.3623 42.8156 94.9099 42.3549 94.595 41.7649C94.2801 41.1716 94.1227 40.4839 94.1227 39.7017C94.1227 38.9195 94.2801 38.2334 94.595 37.6435C94.9099 37.0502 95.3623 36.5895 95.9522 36.2614C96.5422 35.9299 97.2515 35.7642 98.0801 35.7642C98.9087 35.7642 99.618 35.9299 100.208 36.2614C100.798 36.5895 101.25 37.0502 101.565 37.6435C101.88 38.2334 102.037 38.9195 102.037 39.7017C102.037 40.4839 101.88 41.1716 101.565 41.7649C101.25 42.3549 100.798 42.8156 100.208 43.147C99.618 43.4751 98.9087 43.6392 98.0801 43.6392ZM98.1 41.6108C98.332 41.6108 98.5325 41.5329 98.7015 41.3771C98.8706 41.2214 99.0015 40.9993 99.0943 40.7109C99.1871 40.4226 99.2335 40.0795 99.2335 39.6818C99.2335 39.2808 99.1871 38.9377 99.0943 38.6527C99.0015 38.3643 98.8706 38.1423 98.7015 37.9865C98.5325 37.8307 98.332 37.7528 98.1 37.7528C97.8547 37.7528 97.6442 37.8307 97.4686 37.9865C97.2929 38.1423 97.1587 38.3643 97.0659 38.6527C96.9731 38.9377 96.9267 39.2808 96.9267 39.6818C96.9267 40.0795 96.9731 40.4226 97.0659 40.7109C97.1587 40.9993 97.2929 41.2214 97.4686 41.3771C97.6442 41.5329 97.8547 41.6108 98.1 41.6108ZM103.151 43.5V35.8636H105.756V37.3153H105.836C105.995 36.8381 106.267 36.4602 106.651 36.1818C107.036 35.9034 107.493 35.7642 108.023 35.7642C108.56 35.7642 109.023 35.9067 109.41 36.1918C109.798 36.4735 110.032 36.848 110.111 37.3153H110.191C110.32 36.848 110.595 36.4735 111.016 36.1918C111.437 35.9067 111.931 35.7642 112.498 35.7642C113.23 35.7642 113.823 35.9995 114.278 36.4702C114.735 36.9408 114.964 37.5672 114.964 38.3494V43.5H112.219V39.0455C112.219 38.7107 112.135 38.4489 111.966 38.2599C111.797 38.0677 111.57 37.9716 111.285 37.9716C111.003 37.9716 110.779 38.0677 110.613 38.2599C110.451 38.4489 110.37 38.7107 110.37 39.0455V43.5H107.745V39.0455C107.745 38.7107 107.66 38.4489 107.491 38.2599C107.322 38.0677 107.095 37.9716 106.81 37.9716C106.621 37.9716 106.459 38.0147 106.323 38.1009C106.187 38.187 106.081 38.3113 106.005 38.4737C105.932 38.6328 105.895 38.8234 105.895 39.0455V43.5H103.151ZM119.976 43.6392C119.161 43.6392 118.458 43.4834 117.868 43.1719C117.282 42.857 116.829 42.4062 116.511 41.8196C116.196 41.2296 116.039 40.5237 116.039 39.7017C116.039 38.9129 116.198 38.2235 116.516 37.6335C116.834 37.0436 117.283 36.5845 117.863 36.2564C118.443 35.9283 119.128 35.7642 119.917 35.7642C120.493 35.7642 121.015 35.8537 121.483 36.0327C121.95 36.2116 122.349 36.4718 122.681 36.8132C123.012 37.1513 123.267 37.5623 123.446 38.0462C123.625 38.5301 123.715 39.0753 123.715 39.6818V40.3182H116.894V38.8068H121.189C121.186 38.5881 121.13 38.3958 121.02 38.2301C120.914 38.0611 120.77 37.9302 120.588 37.8374C120.409 37.7412 120.205 37.6932 119.976 37.6932C119.754 37.6932 119.55 37.7412 119.365 37.8374C119.179 37.9302 119.03 38.0594 118.917 38.2251C118.808 38.3909 118.75 38.5848 118.743 38.8068V40.4375C118.743 40.6828 118.795 40.9015 118.897 41.0938C119 41.286 119.148 41.4368 119.34 41.5462C119.532 41.6555 119.764 41.7102 120.036 41.7102C120.225 41.7102 120.397 41.6837 120.553 41.6307C120.712 41.5777 120.848 41.5014 120.961 41.402C121.073 41.2992 121.156 41.1766 121.209 41.0341H123.715C123.629 41.5644 123.425 42.0251 123.103 42.4162C122.782 42.804 122.356 43.1056 121.826 43.321C121.299 43.5331 120.682 43.6392 119.976 43.6392Z"
    fill="white" />
  <path
    d="M0.78196 75.5V66.7727H4.27628C4.91832 66.7727 5.45384 66.8679 5.88281 67.0582C6.31179 67.2486 6.63423 67.5128 6.85014 67.8509C7.06605 68.1861 7.17401 68.5724 7.17401 69.0099C7.17401 69.3509 7.10582 69.6506 6.96946 69.9091C6.8331 70.1648 6.6456 70.375 6.40696 70.5398C6.17116 70.7017 5.90128 70.8168 5.5973 70.8849V70.9702C5.92969 70.9844 6.24077 71.0781 6.53054 71.2514C6.82315 71.4247 7.06037 71.6676 7.24219 71.9801C7.42401 72.2898 7.51492 72.6591 7.51492 73.0881C7.51492 73.5511 7.39986 73.9645 7.16974 74.3281C6.94247 74.6889 6.60582 74.9744 6.1598 75.1847C5.71378 75.3949 5.16406 75.5 4.51065 75.5H0.78196ZM2.62713 73.9915H4.13139C4.6456 73.9915 5.0206 73.8935 5.25639 73.6974C5.49219 73.4986 5.61009 73.2344 5.61009 72.9048C5.61009 72.6634 5.55185 72.4503 5.43537 72.2656C5.31889 72.081 5.1527 71.9361 4.93679 71.831C4.72372 71.7259 4.46946 71.6733 4.17401 71.6733H2.62713V73.9915ZM2.62713 70.4247H3.99503C4.24787 70.4247 4.4723 70.3807 4.66832 70.2926C4.86719 70.2017 5.02344 70.0739 5.13707 69.9091C5.25355 69.7443 5.31179 69.5469 5.31179 69.3168C5.31179 69.0014 5.19957 68.7472 4.97514 68.554C4.75355 68.3608 4.43821 68.2642 4.02912 68.2642H2.62713V70.4247ZM10.5479 75.6236C10.1303 75.6236 9.75817 75.5511 9.43146 75.4062C9.10476 75.2585 8.84624 75.0412 8.65589 74.7543C8.46839 74.4645 8.37464 74.1037 8.37464 73.6719C8.37464 73.3082 8.44141 73.0028 8.57493 72.7557C8.70845 72.5085 8.89027 72.3097 9.12038 72.1591C9.3505 72.0085 9.61186 71.8949 9.90447 71.8182C10.1999 71.7415 10.5096 71.6875 10.8335 71.6562C11.2141 71.6165 11.521 71.5795 11.7539 71.5455C11.9869 71.5085 12.1559 71.4545 12.261 71.3835C12.3661 71.3125 12.4187 71.2074 12.4187 71.0682V71.0426C12.4187 70.7727 12.3335 70.5639 12.163 70.4162C11.9954 70.2685 11.7567 70.1946 11.4471 70.1946C11.1204 70.1946 10.8604 70.267 10.6673 70.4119C10.4741 70.554 10.3462 70.733 10.2837 70.9489L8.60476 70.8125C8.68999 70.4148 8.8576 70.071 9.1076 69.7812C9.3576 69.4886 9.68004 69.2642 10.0749 69.108C10.4727 68.9489 10.9329 68.8693 11.4556 68.8693C11.8192 68.8693 12.1673 68.9119 12.4996 68.9972C12.8349 69.0824 13.1317 69.2145 13.3903 69.3935C13.6516 69.5724 13.8576 69.8026 14.0082 70.0838C14.1587 70.3622 14.234 70.696 14.234 71.0852V75.5H12.5124V74.5923H12.4613C12.3562 74.7969 12.2156 74.9773 12.0394 75.1335C11.8633 75.2869 11.6516 75.4077 11.4045 75.4957C11.1573 75.581 10.8718 75.6236 10.5479 75.6236ZM11.0678 74.3707C11.3349 74.3707 11.5707 74.3182 11.7752 74.2131C11.9798 74.1051 12.1403 73.9602 12.2567 73.7784C12.3732 73.5966 12.4315 73.3906 12.4315 73.1605V72.4659C12.3746 72.5028 12.2965 72.5369 12.1971 72.5682C12.1005 72.5966 11.9911 72.6236 11.869 72.6491C11.7468 72.6719 11.6246 72.6932 11.5025 72.7131C11.3803 72.7301 11.2695 72.7457 11.1701 72.7599C10.957 72.7912 10.771 72.8409 10.6119 72.9091C10.4528 72.9773 10.3292 73.0696 10.2411 73.1861C10.1531 73.2997 10.109 73.4418 10.109 73.6122C10.109 73.8594 10.1985 74.0483 10.3775 74.179C10.5593 74.3068 10.7894 74.3707 11.0678 74.3707ZM21.0884 70.821L19.4265 70.9233C19.3981 70.7812 19.337 70.6534 19.2433 70.5398C19.1495 70.4233 19.0259 70.331 18.8725 70.2628C18.7219 70.1918 18.5415 70.1562 18.3313 70.1562C18.0501 70.1562 17.8129 70.2159 17.6197 70.3352C17.4265 70.4517 17.3299 70.608 17.3299 70.804C17.3299 70.9602 17.3924 71.0923 17.5174 71.2003C17.6424 71.3082 17.8569 71.3949 18.1609 71.4602L19.3455 71.6989C19.9819 71.8295 20.4563 72.0398 20.7688 72.3295C21.0813 72.6193 21.2376 73 21.2376 73.4716C21.2376 73.9006 21.1112 74.277 20.8583 74.6009C20.6083 74.9247 20.2646 75.1776 19.8271 75.3594C19.3924 75.5384 18.891 75.6278 18.3228 75.6278C17.4563 75.6278 16.766 75.4474 16.2518 75.0866C15.7404 74.723 15.4407 74.2287 15.3526 73.6037L17.1381 73.5099C17.1921 73.7741 17.3228 73.9759 17.5302 74.1151C17.7376 74.2514 18.0032 74.3196 18.3271 74.3196C18.6452 74.3196 18.9009 74.2585 19.0941 74.1364C19.2901 74.0114 19.3896 73.8509 19.3924 73.6548C19.3896 73.4901 19.32 73.3551 19.1836 73.25C19.0472 73.142 18.837 73.0597 18.5529 73.0028L17.4194 72.777C16.7802 72.6491 16.3043 72.4276 15.9918 72.1122C15.6822 71.7969 15.5273 71.3949 15.5273 70.9062C15.5273 70.4858 15.641 70.1236 15.8683 69.8196C16.0984 69.5156 16.4208 69.2812 16.8356 69.1165C17.2532 68.9517 17.7418 68.8693 18.3015 68.8693C19.1282 68.8693 19.7788 69.044 20.2532 69.3935C20.7305 69.7429 21.0089 70.2187 21.0884 70.821ZM25.3636 75.6278C24.6903 75.6278 24.1108 75.4915 23.625 75.2188C23.142 74.9432 22.7699 74.554 22.5085 74.0511C22.2472 73.5455 22.1165 72.9474 22.1165 72.2571C22.1165 71.5838 22.2472 70.9929 22.5085 70.4844C22.7699 69.9759 23.1378 69.5795 23.6122 69.2955C24.0895 69.0114 24.6491 68.8693 25.2912 68.8693C25.723 68.8693 26.125 68.9389 26.4972 69.0781C26.8722 69.2145 27.1989 69.4205 27.4773 69.696C27.7585 69.9716 27.9773 70.3182 28.1335 70.7358C28.2898 71.1506 28.3679 71.6364 28.3679 72.1932V72.6918H22.8409V71.5668H26.6591C26.6591 71.3054 26.6023 71.0739 26.4886 70.8722C26.375 70.6705 26.2173 70.5128 26.0156 70.3991C25.8168 70.2827 25.5852 70.2244 25.321 70.2244C25.0455 70.2244 24.8011 70.2884 24.5881 70.4162C24.3778 70.5412 24.2131 70.7102 24.0938 70.9233C23.9744 71.1335 23.9134 71.3679 23.9105 71.6264V72.696C23.9105 73.0199 23.9702 73.2997 24.0895 73.5355C24.2116 73.7713 24.3835 73.9531 24.6051 74.081C24.8267 74.2088 25.0895 74.2727 25.3935 74.2727C25.5952 74.2727 25.7798 74.2443 25.9474 74.1875C26.1151 74.1307 26.2585 74.0455 26.3778 73.9318C26.4972 73.8182 26.5881 73.679 26.6506 73.5142L28.3295 73.625C28.2443 74.0284 28.0696 74.3807 27.8054 74.6818C27.544 74.9801 27.206 75.2131 26.7912 75.3807C26.3793 75.5455 25.9034 75.6278 25.3636 75.6278ZM33.4506 77.9545C33.2205 77.9545 33.0046 77.9361 32.8029 77.8991C32.604 77.8651 32.4393 77.821 32.3086 77.767L32.7177 76.4119C32.9308 76.4773 33.1225 76.5128 33.293 76.5185C33.4663 76.5241 33.6154 76.4844 33.7404 76.3991C33.8683 76.3139 33.9719 76.169 34.0515 75.9645L34.158 75.6875L31.81 68.9545H33.7191L35.0742 73.7614H35.1424L36.5103 68.9545H38.4322L35.8881 76.2074C35.766 76.5597 35.5998 76.8665 35.3896 77.1278C35.1822 77.392 34.9194 77.5952 34.6012 77.7372C34.283 77.8821 33.8995 77.9545 33.4506 77.9545ZM39.3612 75.5V68.9545H41.1765V75.5H39.3612ZM40.2731 68.1108C40.0032 68.1108 39.7717 68.0213 39.5785 67.8423C39.3881 67.6605 39.293 67.4432 39.293 67.1903C39.293 66.9403 39.3881 66.7259 39.5785 66.5469C39.7717 66.3651 40.0032 66.2741 40.2731 66.2741C40.543 66.2741 40.7731 66.3651 40.9634 66.5469C41.1566 66.7259 41.2532 66.9403 41.2532 67.1903C41.2532 67.4432 41.1566 67.6605 40.9634 67.8423C40.7731 68.0213 40.543 68.1108 40.2731 68.1108ZM45.6136 75.6278C44.9403 75.6278 44.3608 75.4915 43.875 75.2188C43.392 74.9432 43.0199 74.554 42.7585 74.0511C42.4972 73.5455 42.3665 72.9474 42.3665 72.2571C42.3665 71.5838 42.4972 70.9929 42.7585 70.4844C43.0199 69.9759 43.3878 69.5795 43.8622 69.2955C44.3395 69.0114 44.8991 68.8693 45.5412 68.8693C45.973 68.8693 46.375 68.9389 46.7472 69.0781C47.1222 69.2145 47.4489 69.4205 47.7273 69.696C48.0085 69.9716 48.2273 70.3182 48.3835 70.7358C48.5398 71.1506 48.6179 71.6364 48.6179 72.1932V72.6918H43.0909V71.5668H46.9091C46.9091 71.3054 46.8523 71.0739 46.7386 70.8722C46.625 70.6705 46.4673 70.5128 46.2656 70.3991C46.0668 70.2827 45.8352 70.2244 45.571 70.2244C45.2955 70.2244 45.0511 70.2884 44.8381 70.4162C44.6278 70.5412 44.4631 70.7102 44.3438 70.9233C44.2244 71.1335 44.1634 71.3679 44.1605 71.6264V72.696C44.1605 73.0199 44.2202 73.2997 44.3395 73.5355C44.4616 73.7713 44.6335 73.9531 44.8551 74.081C45.0767 74.2088 45.3395 74.2727 45.6435 74.2727C45.8452 74.2727 46.0298 74.2443 46.1974 74.1875C46.3651 74.1307 46.5085 74.0455 46.6278 73.9318C46.7472 73.8182 46.8381 73.679 46.9006 73.5142L48.5795 73.625C48.4943 74.0284 48.3196 74.3807 48.0554 74.6818C47.794 74.9801 47.456 75.2131 47.0412 75.3807C46.6293 75.5455 46.1534 75.6278 45.6136 75.6278ZM51.6179 66.7727V75.5H49.8026V66.7727H51.6179ZM55.484 75.6065C54.9869 75.6065 54.5366 75.4787 54.1332 75.223C53.7326 74.9645 53.4144 74.5852 53.1786 74.0852C52.9457 73.5824 52.8292 72.9659 52.8292 72.2358C52.8292 71.4858 52.9499 70.8622 53.1914 70.3651C53.4329 69.8651 53.7539 69.4915 54.1545 69.2443C54.5579 68.9943 54.9996 68.8693 55.4798 68.8693C55.8462 68.8693 56.1516 68.9318 56.396 69.0568C56.6431 69.179 56.842 69.3324 56.9925 69.517C57.146 69.6989 57.2624 69.8778 57.342 70.054H57.3974V66.7727H59.2085V75.5H57.4187V74.4517H57.342C57.2567 74.6335 57.136 74.8139 56.9798 74.9929C56.8263 75.169 56.6261 75.3153 56.3789 75.4318C56.1346 75.5483 55.8363 75.6065 55.484 75.6065ZM56.0593 74.1619C56.3519 74.1619 56.5991 74.0824 56.8008 73.9233C57.0053 73.7614 57.1616 73.5355 57.2695 73.2457C57.3803 72.956 57.4357 72.6165 57.4357 72.2273C57.4357 71.8381 57.3817 71.5 57.2738 71.2131C57.1658 70.9261 57.0096 70.7045 56.805 70.5483C56.6005 70.392 56.3519 70.3139 56.0593 70.3139C55.761 70.3139 55.5096 70.3949 55.305 70.5568C55.1005 70.7187 54.9457 70.9432 54.8406 71.2301C54.7354 71.517 54.6829 71.8494 54.6829 72.2273C54.6829 72.608 54.7354 72.9446 54.8406 73.2372C54.9485 73.527 55.1033 73.7543 55.305 73.919C55.5096 74.081 55.761 74.1619 56.0593 74.1619Z"
    fill="white" fill-opacity="0.45" />
  <path
    d="M72.0568 75.804V69.2415H73.1705V75.804H72.0568ZM69.3324 73.0795V71.9659H75.8949V73.0795H69.3324Z"
    fill="white" fill-opacity="0.45" />
  <path
    d="M86.907 75.5V66.7727H90.3501C91.0092 66.7727 91.5717 66.8906 92.0376 67.1264C92.5064 67.3594 92.8629 67.6903 93.1072 68.1193C93.3544 68.5455 93.478 69.0469 93.478 69.6236C93.478 70.2031 93.353 70.7017 93.103 71.1193C92.853 71.5341 92.4908 71.8523 92.0163 72.0739C91.5447 72.2955 90.9737 72.4062 90.3033 72.4062H87.9979V70.9233H90.005C90.3572 70.9233 90.6499 70.875 90.8828 70.7784C91.1158 70.6818 91.2891 70.5369 91.4027 70.3438C91.5192 70.1506 91.5774 69.9105 91.5774 69.6236C91.5774 69.3338 91.5192 69.0895 91.4027 68.8906C91.2891 68.6918 91.1143 68.5412 90.8786 68.4389C90.6456 68.3338 90.3516 68.2812 89.9964 68.2812H88.7521V75.5H86.907ZM91.62 71.5284L93.7891 75.5H91.7521L89.63 71.5284H91.62ZM102.482 69.8281H100.616C100.582 69.5866 100.512 69.3722 100.407 69.1847C100.302 68.9943 100.167 68.8324 100.002 68.6989C99.8374 68.5653 99.647 68.4631 99.4311 68.392C99.218 68.321 98.9865 68.2855 98.7365 68.2855C98.2848 68.2855 97.8913 68.3977 97.5561 68.6222C97.2209 68.8437 96.9609 69.1676 96.7763 69.5938C96.5916 70.017 96.4993 70.5312 96.4993 71.1364C96.4993 71.7585 96.5916 72.2812 96.7763 72.7045C96.9638 73.1278 97.2251 73.4474 97.5604 73.6634C97.8956 73.8793 98.2834 73.9872 98.7237 73.9872C98.9709 73.9872 99.1996 73.9545 99.4098 73.8892C99.6229 73.8239 99.8118 73.7287 99.9766 73.6037C100.141 73.4759 100.278 73.321 100.386 73.1392C100.496 72.9574 100.573 72.75 100.616 72.517L102.482 72.5256C102.434 72.9261 102.313 73.3125 102.12 73.6847C101.93 74.054 101.673 74.3849 101.349 74.6776C101.028 74.9673 100.644 75.1974 100.198 75.3679C99.755 75.5355 99.2536 75.6193 98.6939 75.6193C97.9155 75.6193 97.2195 75.4432 96.6058 75.0909C95.995 74.7386 95.5121 74.2287 95.157 73.5611C94.8047 72.8935 94.6286 72.0852 94.6286 71.1364C94.6286 70.1847 94.8075 69.375 95.1655 68.7074C95.5234 68.0398 96.0092 67.5312 96.6229 67.1818C97.2365 66.8295 97.9268 66.6534 98.6939 66.6534C99.1996 66.6534 99.6683 66.7244 100.1 66.8665C100.535 67.0085 100.92 67.2159 101.255 67.4886C101.59 67.7585 101.863 68.0895 102.073 68.4815C102.286 68.8736 102.423 69.3224 102.482 69.8281ZM103.805 75.5V66.7727H105.651V70.3736H109.396V66.7727H111.237V75.5H109.396V71.8949H105.651V75.5H103.805ZM117.04 75.5H115.063L118.076 66.7727H120.453L123.462 75.5H121.485L119.299 68.767H119.23L117.04 75.5ZM116.917 72.0696H121.587V73.5099H116.917V72.0696ZM124.513 75.5V68.9545H126.329V75.5H124.513ZM125.425 68.1108C125.156 68.1108 124.924 68.0213 124.731 67.8423C124.54 67.6605 124.445 67.4432 124.445 67.1903C124.445 66.9403 124.54 66.7259 124.731 66.5469C124.924 66.3651 125.156 66.2741 125.425 66.2741C125.695 66.2741 125.925 66.3651 126.116 66.5469C126.309 66.7259 126.406 66.9403 126.406 67.1903C126.406 67.4432 126.309 67.6605 126.116 67.8423C125.925 68.0213 125.695 68.1108 125.425 68.1108ZM127.783 75.5V68.9545H129.543V70.0966H129.611C129.73 69.6903 129.931 69.3835 130.212 69.1761C130.493 68.9659 130.817 68.8608 131.184 68.8608C131.275 68.8608 131.373 68.8665 131.478 68.8778C131.583 68.8892 131.675 68.9048 131.755 68.9247V70.5355C131.669 70.5099 131.551 70.4872 131.401 70.4673C131.25 70.4474 131.113 70.4375 130.988 70.4375C130.721 70.4375 130.482 70.4957 130.272 70.6122C130.064 70.7259 129.9 70.8849 129.777 71.0895C129.658 71.294 129.598 71.5298 129.598 71.7969V75.5H127.783ZM134.8 75.6065C134.303 75.6065 133.853 75.4787 133.45 75.223C133.049 74.9645 132.731 74.5852 132.495 74.0852C132.262 73.5824 132.146 72.9659 132.146 72.2358C132.146 71.4858 132.266 70.8622 132.508 70.3651C132.749 69.8651 133.07 69.4915 133.471 69.2443C133.874 68.9943 134.316 68.8693 134.796 68.8693C135.163 68.8693 135.468 68.9318 135.712 69.0568C135.96 69.179 136.158 69.3324 136.309 69.517C136.462 69.6989 136.579 69.8778 136.658 70.054H136.714V66.7727H138.525V75.5H136.735V74.4517H136.658C136.573 74.6335 136.452 74.8139 136.296 74.9929C136.143 75.169 135.942 75.3153 135.695 75.4318C135.451 75.5483 135.153 75.6065 134.8 75.6065ZM135.376 74.1619C135.668 74.1619 135.915 74.0824 136.117 73.9233C136.322 73.7614 136.478 73.5355 136.586 73.2457C136.697 72.956 136.752 72.6165 136.752 72.2273C136.752 71.8381 136.698 71.5 136.59 71.2131C136.482 70.9261 136.326 70.7045 136.121 70.5483C135.917 70.392 135.668 70.3139 135.376 70.3139C135.077 70.3139 134.826 70.3949 134.621 70.5568C134.417 70.7187 134.262 70.9432 134.157 71.2301C134.052 71.517 133.999 71.8494 133.999 72.2273C133.999 72.608 134.052 72.9446 134.157 73.2372C134.265 73.527 134.42 73.7543 134.621 73.919C134.826 74.081 135.077 74.1619 135.376 74.1619ZM140.017 75.5V68.9545H141.777V70.0966H141.846C141.965 69.6903 142.165 69.3835 142.446 69.1761C142.728 68.9659 143.051 68.8608 143.418 68.8608C143.509 68.8608 143.607 68.8665 143.712 68.8778C143.817 68.8892 143.909 68.9048 143.989 68.9247V70.5355C143.904 70.5099 143.786 70.4872 143.635 70.4673C143.485 70.4474 143.347 70.4375 143.222 70.4375C142.955 70.4375 142.716 70.4957 142.506 70.6122C142.299 70.7259 142.134 70.8849 142.012 71.0895C141.892 71.294 141.833 71.5298 141.833 71.7969V75.5H140.017ZM147.58 75.6278C146.918 75.6278 146.346 75.4872 145.863 75.206C145.383 74.9219 145.012 74.527 144.751 74.0213C144.489 73.5128 144.359 72.9233 144.359 72.2528C144.359 71.5767 144.489 70.9858 144.751 70.4801C145.012 69.9716 145.383 69.5767 145.863 69.2955C146.346 69.0114 146.918 68.8693 147.58 68.8693C148.242 68.8693 148.813 69.0114 149.293 69.2955C149.776 69.5767 150.148 69.9716 150.41 70.4801C150.671 70.9858 150.802 71.5767 150.802 72.2528C150.802 72.9233 150.671 73.5128 150.41 74.0213C150.148 74.527 149.776 74.9219 149.293 75.206C148.813 75.4872 148.242 75.6278 147.58 75.6278ZM147.589 74.2216C147.89 74.2216 148.141 74.1364 148.343 73.9659C148.545 73.7926 148.697 73.5568 148.799 73.2585C148.904 72.9602 148.957 72.6207 148.957 72.2401C148.957 71.8594 148.904 71.5199 148.799 71.2216C148.697 70.9233 148.545 70.6875 148.343 70.5142C148.141 70.3409 147.89 70.2543 147.589 70.2543C147.285 70.2543 147.029 70.3409 146.822 70.5142C146.617 70.6875 146.462 70.9233 146.357 71.2216C146.255 71.5199 146.204 71.8594 146.204 72.2401C146.204 72.6207 146.255 72.9602 146.357 73.2585C146.462 73.5568 146.617 73.7926 146.822 73.9659C147.029 74.1364 147.285 74.2216 147.589 74.2216ZM151.982 77.9545V68.9545H153.772V70.054H153.853C153.933 69.8778 154.048 69.6989 154.198 69.517C154.352 69.3324 154.55 69.179 154.795 69.0568C155.042 68.9318 155.349 68.8693 155.715 68.8693C156.192 68.8693 156.633 68.9943 157.036 69.2443C157.44 69.4915 157.762 69.8651 158.004 70.3651C158.245 70.8622 158.366 71.4858 158.366 72.2358C158.366 72.9659 158.248 73.5824 158.012 74.0852C157.779 74.5852 157.461 74.9645 157.058 75.223C156.657 75.4787 156.208 75.6065 155.711 75.6065C155.359 75.6065 155.059 75.5483 154.812 75.4318C154.567 75.3153 154.367 75.169 154.211 74.9929C154.055 74.8139 153.935 74.6335 153.853 74.4517H153.798V77.9545H151.982ZM153.759 72.2273C153.759 72.6165 153.813 72.956 153.921 73.2457C154.029 73.5355 154.185 73.7614 154.39 73.9233C154.594 74.0824 154.843 74.1619 155.136 74.1619C155.431 74.1619 155.681 74.081 155.886 73.919C156.09 73.7543 156.245 73.527 156.35 73.2372C156.458 72.9446 156.512 72.608 156.512 72.2273C156.512 71.8494 156.46 71.517 156.354 71.2301C156.249 70.9432 156.094 70.7187 155.89 70.5568C155.685 70.3949 155.434 70.3139 155.136 70.3139C154.84 70.3139 154.59 70.392 154.386 70.5483C154.184 70.7045 154.029 70.9261 153.921 71.2131C153.813 71.5 153.759 71.8381 153.759 72.2273Z"
    fill="white" fill-opacity="0.45" />
</svg>