<svg width="177" height="50" viewBox="0 0 177 50" fill="none" xmlns="http://www.w3.org/2000/svg">
  <path
    d="M70.9882 9.21378C71.0393 8.38281 70.8135 7.71591 70.3106 7.21307C69.8121 6.70597 69.0919 6.45241 68.1501 6.45241C67.5109 6.45241 66.925 6.5696 66.3923 6.80398C65.8596 7.03835 65.4165 7.36009 65.0628 7.76918C64.7133 8.17401 64.4939 8.63636 64.4044 9.15625C64.349 9.4929 64.3639 9.79758 64.4491 10.0703C64.5386 10.3388 64.6856 10.5774 64.8902 10.7862C65.0947 10.995 65.3483 11.1804 65.6508 11.3423C65.9534 11.5 66.2922 11.6385 66.6672 11.7578L68.0287 12.1797C68.4932 12.3288 68.9172 12.5014 69.3007 12.6974C69.6885 12.8935 70.0145 13.1278 70.2787 13.4006C70.5429 13.669 70.7304 13.9844 70.8412 14.3466C70.9562 14.7088 70.9733 15.1264 70.8923 15.5994C70.7773 16.3026 70.5003 16.9268 70.0613 17.4723C69.6224 18.0178 69.0535 18.4439 68.3547 18.7507C67.6558 19.0575 66.8504 19.2109 65.9385 19.2109C65.099 19.2109 64.3873 19.0682 63.8035 18.7827C63.224 18.4972 62.7957 18.1009 62.5187 17.5938C62.2417 17.0824 62.1352 16.4943 62.1991 15.8295H63.0173C62.9704 16.3707 63.0663 16.8395 63.305 17.2358C63.5436 17.6278 63.8994 17.9304 64.3724 18.1435C64.8497 18.3565 65.4143 18.4631 66.0663 18.4631C66.7737 18.4631 67.4129 18.3416 67.9839 18.0987C68.5592 17.8558 69.0322 17.5192 69.403 17.0888C69.778 16.6584 70.0123 16.1598 70.1061 15.593C70.1828 15.1328 70.1402 14.7365 69.9782 14.4041C69.8163 14.0717 69.5415 13.7862 69.1537 13.5476C68.7702 13.3047 68.2822 13.0916 67.6899 12.9084L66.2197 12.4482C65.2481 12.1371 64.5386 11.7152 64.0912 11.1825C63.6437 10.6456 63.4839 9.97869 63.6118 9.18182C63.7311 8.49574 64.0102 7.89276 64.4491 7.37287C64.8881 6.85298 65.4399 6.44602 66.1047 6.15199C66.7694 5.85795 67.4939 5.71094 68.278 5.71094C69.0578 5.71094 69.7204 5.86222 70.2659 6.16477C70.8156 6.46307 71.2204 6.87642 71.4804 7.40483C71.7446 7.93324 71.8405 8.53622 71.768 9.21378H70.9882ZM78.3135 9.18182L78.192 9.87855H73.9094L74.0244 9.18182H78.3135ZM75.8589 6.82955H76.6324L75.0088 16.6797C74.9406 17.0803 74.9619 17.4084 75.0727 17.6641C75.1878 17.9155 75.3604 18.103 75.5905 18.2266C75.8248 18.3459 76.0912 18.4055 76.3895 18.4055C76.5216 18.4055 76.6409 18.3949 76.7474 18.3736C76.854 18.348 76.9605 18.3203 77.067 18.2905L77.1373 19C77.0052 19.0469 76.8646 19.0852 76.7155 19.1151C76.5663 19.1449 76.3937 19.1598 76.1977 19.1598C75.7886 19.1598 75.4179 19.0682 75.0855 18.8849C74.7574 18.7017 74.5081 18.4354 74.3376 18.0859C74.1714 17.7365 74.1309 17.3146 74.2162 16.8203L75.8589 6.82955ZM83.2673 19.2045C82.3809 19.2045 81.6459 18.9851 81.0621 18.5462C80.4782 18.1072 80.0713 17.5064 79.8412 16.7436C79.6111 15.9808 79.577 15.1115 79.7389 14.1357C79.9008 13.1555 80.2247 12.282 80.7105 11.5149C81.1963 10.7479 81.7907 10.1428 82.4939 9.69957C83.197 9.25639 83.9555 9.0348 84.7694 9.0348C85.3192 9.0348 85.8199 9.1456 86.2716 9.36719C86.7275 9.58878 87.1111 9.90625 87.4221 10.3196C87.7332 10.7287 87.9484 11.2251 88.0677 11.8089C88.1871 12.3928 88.1871 13.049 88.0677 13.7777L87.9782 14.2635H80.2055L80.327 13.554H87.3135C87.4328 12.8466 87.3987 12.2074 87.2112 11.6364C87.0237 11.0611 86.7126 10.6051 86.278 10.2685C85.8476 9.93182 85.3192 9.76349 84.6927 9.76349C84.0535 9.76349 83.4442 9.94886 82.8646 10.3196C82.2893 10.6861 81.795 11.1761 81.3817 11.7898C80.9726 12.4034 80.6998 13.0788 80.5635 13.8161L80.4868 14.2124C80.3504 15.0561 80.3675 15.7997 80.5379 16.4432C80.7126 17.0824 81.0365 17.5831 81.5095 17.9453C81.9825 18.3033 82.6004 18.4822 83.3632 18.4822C83.8959 18.4822 84.3689 18.3928 84.7822 18.2138C85.1998 18.0305 85.5535 17.8089 85.8433 17.549C86.1373 17.2891 86.3675 17.0376 86.5336 16.7947L87.1792 17.0824C86.9832 17.4105 86.702 17.7386 86.3355 18.0668C85.969 18.3906 85.528 18.6612 85.0123 18.8786C84.4967 19.0959 83.915 19.2045 83.2673 19.2045ZM89.287 22.6818L91.537 9.18182H92.2977L91.9397 11.3743H92.0356C92.2572 10.9524 92.5342 10.5646 92.8666 10.2109C93.2032 9.85724 93.5974 9.57386 94.0491 9.3608C94.5051 9.14347 95.0143 9.0348 95.5768 9.0348C96.3694 9.0348 97.0235 9.25213 97.5392 9.68679C98.0548 10.1214 98.4106 10.7202 98.6066 11.483C98.8026 12.2457 98.8197 13.1236 98.6578 14.1165C98.4916 15.1051 98.1805 15.983 97.7245 16.75C97.2728 17.5128 96.7188 18.1136 96.0626 18.5526C95.4063 18.9872 94.6862 19.2045 93.9021 19.2045C93.3438 19.2045 92.8708 19.098 92.483 18.8849C92.0995 18.6719 91.797 18.3885 91.5754 18.0348C91.3538 17.6768 91.2004 17.2848 91.1151 16.8587H91.0384L90.0669 22.6818H89.287ZM91.4859 14.1101C91.3495 14.9453 91.3495 15.6932 91.4859 16.3537C91.6265 17.0099 91.8992 17.5298 92.3041 17.9134C92.7132 18.2926 93.248 18.4822 93.9085 18.4822C94.5775 18.4822 95.1847 18.2905 95.7302 17.907C96.2799 17.5192 96.7401 16.995 97.1109 16.3345C97.4859 15.674 97.7416 14.9325 97.8779 14.1101C98.0143 13.2876 98.0143 12.5483 97.8779 11.892C97.7416 11.2358 97.471 10.718 97.0661 10.3388C96.6613 9.95526 96.1201 9.76349 95.4426 9.76349C94.7778 9.76349 94.1705 9.95312 93.6208 10.3324C93.0711 10.7074 92.6109 11.223 92.2401 11.8793C91.8737 12.5312 91.6222 13.2749 91.4859 14.1101ZM105.7 16.0597L105.802 15.4205L113.3 5.90909H113.786L113.588 7.14276H113.172L106.787 15.2479V15.3182H114.349L114.221 16.0597H105.7ZM111.261 19L111.792 15.8359L111.843 15.5547L113.435 5.90909H114.214L112.041 19H111.261ZM0.822266 43V32.8182H8.16033V35.0455H3.58647V36.7955H7.78249V39.0227H3.58647V40.7727H8.14045V43H0.822266ZM11.6989 43.1193C11.2116 43.1193 10.7808 43.0398 10.4062 42.8807C10.035 42.7183 9.74337 42.473 9.53125 42.1449C9.31913 41.8168 9.21307 41.3991 9.21307 40.892C9.21307 40.4744 9.28433 40.1181 9.42685 39.8232C9.56937 39.5249 9.76823 39.2812 10.0234 39.0923C10.2786 38.9034 10.5753 38.7592 10.9134 38.6598C11.2547 38.5604 11.6226 38.4957 12.017 38.4659C12.4446 38.4328 12.7876 38.393 13.0462 38.3466C13.308 38.2969 13.4969 38.2289 13.6129 38.1428C13.7289 38.0533 13.7869 37.9356 13.7869 37.7898V37.7699C13.7869 37.571 13.7107 37.4186 13.5582 37.3125C13.4058 37.2064 13.2102 37.1534 12.9716 37.1534C12.7098 37.1534 12.496 37.2114 12.3303 37.3274C12.1679 37.4401 12.0701 37.6141 12.0369 37.8494H9.51136C9.54451 37.3854 9.692 36.9579 9.95384 36.5668C10.219 36.1723 10.6051 35.8575 11.1122 35.6222C11.6193 35.3835 12.2524 35.2642 13.0114 35.2642C13.5582 35.2642 14.0488 35.3288 14.483 35.4581C14.9171 35.584 15.2867 35.7614 15.5916 35.9901C15.8965 36.2154 16.1286 36.4806 16.2876 36.7855C16.45 37.0871 16.5312 37.4152 16.5312 37.7699V43H13.9659V41.9261H13.9062C13.7538 42.2112 13.5682 42.4415 13.3494 42.6172C13.134 42.7929 12.8871 42.9205 12.6087 43C12.3336 43.0795 12.0303 43.1193 11.6989 43.1193ZM12.5938 41.3892C12.8026 41.3892 12.9981 41.3461 13.1804 41.2599C13.366 41.1738 13.5168 41.0495 13.6328 40.8871C13.7488 40.7247 13.8068 40.5275 13.8068 40.2955V39.6591C13.7339 39.6889 13.656 39.7171 13.5732 39.7436C13.4936 39.7701 13.4074 39.795 13.3146 39.8182C13.2251 39.8414 13.129 39.8629 13.0263 39.8828C12.9268 39.9027 12.8224 39.9209 12.7131 39.9375C12.5009 39.9706 12.3269 40.0253 12.1911 40.1016C12.0585 40.1745 11.959 40.2656 11.8928 40.375C11.8298 40.4811 11.7983 40.6004 11.7983 40.733C11.7983 40.9451 11.8729 41.1075 12.022 41.2202C12.1712 41.3329 12.3617 41.3892 12.5938 41.3892ZM17.8425 43V35.3636H20.5073V36.8153H20.5868C20.726 36.2784 20.9464 35.8857 21.248 35.6371C21.553 35.3885 21.9093 35.2642 22.3169 35.2642C22.4363 35.2642 22.5539 35.2741 22.6699 35.294C22.7892 35.3106 22.9036 35.3355 23.013 35.3686V37.7102C22.8771 37.6638 22.7097 37.629 22.5108 37.6058C22.312 37.5826 22.1413 37.571 21.9988 37.571C21.7303 37.571 21.4883 37.6323 21.2729 37.755C21.0608 37.8743 20.8934 38.0433 20.7708 38.2621C20.6481 38.4775 20.5868 38.7311 20.5868 39.0227V43H17.8425ZM26.6571 38.7045V43H23.9128V35.3636H26.5179V36.8153H26.5975C26.7632 36.3314 27.0549 35.9519 27.4725 35.6768C27.8934 35.4018 28.3839 35.2642 28.9441 35.2642C29.4843 35.2642 29.9533 35.3885 30.351 35.6371C30.7521 35.8823 31.062 36.2204 31.2807 36.6513C31.5028 37.0821 31.6122 37.5743 31.6088 38.1278V43H28.8645V38.7045C28.8678 38.3267 28.7717 38.0301 28.5762 37.8146C28.3839 37.5992 28.1155 37.4915 27.7708 37.4915C27.5454 37.4915 27.3482 37.5412 27.1792 37.6406C27.0134 37.7367 26.8858 37.8759 26.7963 38.0582C26.7069 38.2372 26.6605 38.4527 26.6571 38.7045ZM35.7129 43V32.8182H43.051V35.0455H38.4771V36.7955H42.6731V39.0227H38.4771V40.7727H43.0311V43H35.7129ZM46.8281 35.3636L47.9418 37.7301L49.1151 35.3636H51.8395L49.7912 39.1818L51.9389 43H49.2344L47.9418 40.5739L46.6889 43H43.9446L46.1122 39.1818L44.0838 35.3636H46.8281ZM57.3691 35.3636V37.3523H52.3379V35.3636H57.3691ZM53.3123 33.5341H56.0566V40.544C56.0566 40.6501 56.0749 40.7396 56.1113 40.8125C56.1478 40.8821 56.2041 40.9351 56.2804 40.9716C56.3566 41.0047 56.4544 41.0213 56.5737 41.0213C56.6565 41.0213 56.7527 41.0114 56.862 40.9915C56.9747 40.9716 57.0576 40.955 57.1106 40.9418L57.5083 42.8707C57.3857 42.9072 57.2101 42.9519 56.9814 43.005C56.756 43.058 56.4875 43.0928 56.176 43.1094C55.5462 43.1425 55.0176 43.0779 54.59 42.9155C54.1625 42.7498 53.841 42.4896 53.6255 42.1349C53.4101 41.7803 53.3057 41.3362 53.3123 40.8026V33.5341ZM58.489 43V35.3636H61.1538V36.8153H61.2333C61.3725 36.2784 61.5929 35.8857 61.8945 35.6371C62.1995 35.3885 62.5558 35.2642 62.9634 35.2642C63.0827 35.2642 63.2004 35.2741 63.3164 35.294C63.4357 35.3106 63.5501 35.3355 63.6594 35.3686V37.7102C63.5236 37.6638 63.3562 37.629 63.1573 37.6058C62.9585 37.5826 62.7878 37.571 62.6452 37.571C62.3768 37.571 62.1348 37.6323 61.9194 37.755C61.7073 37.8743 61.5399 38.0433 61.4173 38.2621C61.2946 38.4775 61.2333 38.7311 61.2333 39.0227V43H58.489ZM66.3317 43.1193C65.8445 43.1193 65.4136 43.0398 65.0391 42.8807C64.6679 42.7183 64.3762 42.473 64.1641 42.1449C63.9519 41.8168 63.8459 41.3991 63.8459 40.892C63.8459 40.4744 63.9171 40.1181 64.0597 39.8232C64.2022 39.5249 64.401 39.2812 64.6562 39.0923C64.9115 38.9034 65.2081 38.7592 65.5462 38.6598C65.8875 38.5604 66.2554 38.4957 66.6499 38.4659C67.0774 38.4328 67.4205 38.393 67.679 38.3466C67.9408 38.2969 68.1297 38.2289 68.2457 38.1428C68.3617 38.0533 68.4197 37.9356 68.4197 37.7898V37.7699C68.4197 37.571 68.3435 37.4186 68.1911 37.3125C68.0386 37.2064 67.843 37.1534 67.6044 37.1534C67.3426 37.1534 67.1288 37.2114 66.9631 37.3274C66.8007 37.4401 66.7029 37.6141 66.6697 37.8494H64.1442C64.1773 37.3854 64.3248 36.9579 64.5866 36.5668C64.8518 36.1723 65.2379 35.8575 65.745 35.6222C66.2521 35.3835 66.8852 35.2642 67.6442 35.2642C68.1911 35.2642 68.6816 35.3288 69.1158 35.4581C69.55 35.584 69.9195 35.7614 70.2244 35.9901C70.5294 36.2154 70.7614 36.4806 70.9205 36.7855C71.0829 37.0871 71.1641 37.4152 71.1641 37.7699V43H68.5987V41.9261H68.5391C68.3866 42.2112 68.201 42.4415 67.9822 42.6172C67.7668 42.7929 67.5199 42.9205 67.2415 43C66.9664 43.0795 66.6631 43.1193 66.3317 43.1193ZM67.2266 41.3892C67.4354 41.3892 67.6309 41.3461 67.8132 41.2599C67.9988 41.1738 68.1496 41.0495 68.2656 40.8871C68.3816 40.7247 68.4396 40.5275 68.4396 40.2955V39.6591C68.3667 39.6889 68.2888 39.7171 68.206 39.7436C68.1264 39.7701 68.0402 39.795 67.9474 39.8182C67.858 39.8414 67.7618 39.8629 67.6591 39.8828C67.5597 39.9027 67.4553 39.9209 67.3459 39.9375C67.1338 39.9706 66.9598 40.0253 66.8239 40.1016C66.6913 40.1745 66.5919 40.2656 66.5256 40.375C66.4626 40.4811 66.4311 40.6004 66.4311 40.733C66.4311 40.9451 66.5057 41.1075 66.6548 41.2202C66.804 41.3329 66.9946 41.3892 67.2266 41.3892ZM75.2246 43V32.8182H79.6195C80.3752 32.8182 81.0364 32.9557 81.6032 33.2308C82.1699 33.5059 82.6107 33.902 82.9256 34.419C83.2405 34.9361 83.3979 35.5559 83.3979 36.2784C83.3979 37.0076 83.2355 37.6224 82.9107 38.1229C82.5892 38.6233 82.1368 39.0012 81.5534 39.2564C80.9734 39.5116 80.2956 39.6392 79.5201 39.6392H76.8951V37.4915H78.9632C79.2881 37.4915 79.5648 37.4517 79.7935 37.3722C80.0255 37.2893 80.2028 37.1584 80.3255 36.9794C80.4514 36.8004 80.5144 36.5668 80.5144 36.2784C80.5144 35.9867 80.4514 35.7498 80.3255 35.5675C80.2028 35.3819 80.0255 35.246 79.7935 35.1598C79.5648 35.0703 79.2881 35.0256 78.9632 35.0256H77.9888V43H75.2246ZM81.1905 38.3267L83.736 43H80.7331L78.2473 38.3267H81.1905ZM88.111 43.1392C87.2956 43.1392 86.593 42.9834 86.003 42.6719C85.4164 42.357 84.964 41.9062 84.6458 41.3196C84.3309 40.7296 84.1735 40.0237 84.1735 39.2017C84.1735 38.4129 84.3326 37.7235 84.6507 37.1335C84.9689 36.5436 85.418 36.0845 85.998 35.7564C86.5781 35.4283 87.2625 35.2642 88.0513 35.2642C88.628 35.2642 89.15 35.3537 89.6174 35.5327C90.0847 35.7116 90.4841 35.9718 90.8155 36.3132C91.147 36.6513 91.4022 37.0623 91.5811 37.5462C91.7601 38.0301 91.8496 38.5753 91.8496 39.1818V39.8182H85.0286V38.3068H89.324C89.3207 38.0881 89.2644 37.8958 89.155 37.7301C89.0489 37.5611 88.9048 37.4302 88.7225 37.3374C88.5435 37.2412 88.3397 37.1932 88.111 37.1932C87.8889 37.1932 87.6851 37.2412 87.4995 37.3374C87.3139 37.4302 87.1647 37.5594 87.052 37.7251C86.9426 37.8909 86.8846 38.0848 86.878 38.3068V39.9375C86.878 40.1828 86.9294 40.4015 87.0321 40.5938C87.1349 40.786 87.2824 40.9368 87.4746 41.0462C87.6668 41.1555 87.8989 41.2102 88.1706 41.2102C88.3596 41.2102 88.5319 41.1837 88.6877 41.1307C88.8468 41.0777 88.9827 41.0014 89.0953 40.902C89.208 40.7992 89.2909 40.6766 89.3439 40.5341H91.8496C91.7634 41.0644 91.5596 41.5251 91.2381 41.9162C90.9166 42.304 90.4907 42.6056 89.9604 42.821C89.4334 43.0331 88.8169 43.1392 88.111 43.1392ZM97.5234 35.3636V37.3523H92.4922V35.3636H97.5234ZM93.4666 33.5341H96.2109V40.544C96.2109 40.6501 96.2292 40.7396 96.2656 40.8125C96.3021 40.8821 96.3584 40.9351 96.4347 40.9716C96.5109 41.0047 96.6087 41.0213 96.728 41.0213C96.8108 41.0213 96.907 41.0114 97.0163 40.9915C97.129 40.9716 97.2119 40.955 97.2649 40.9418L97.6626 42.8707C97.54 42.9072 97.3643 42.9519 97.1357 43.005C96.9103 43.058 96.6418 43.0928 96.3303 43.1094C95.7005 43.1425 95.1719 43.0779 94.7443 42.9155C94.3168 42.7498 93.9953 42.4896 93.7798 42.1349C93.5644 41.7803 93.46 41.3362 93.4666 40.8026V33.5341ZM103.595 39.6591V35.3636H106.339V43H103.734V41.5483H103.655C103.489 42.0355 103.199 42.4167 102.785 42.6918C102.37 42.9635 101.878 43.0994 101.308 43.0994C100.774 43.0994 100.307 42.9768 99.9061 42.7315C99.5083 42.4863 99.1984 42.1482 98.9764 41.7173C98.7576 41.2865 98.6466 40.7926 98.6433 40.2358V35.3636H101.388V39.6591C101.391 40.0369 101.487 40.3336 101.676 40.549C101.868 40.7644 102.137 40.8722 102.481 40.8722C102.71 40.8722 102.907 40.8241 103.073 40.728C103.242 40.6286 103.371 40.4893 103.461 40.3104C103.554 40.1281 103.598 39.911 103.595 39.6591ZM107.735 43V35.3636H110.4V36.8153H110.479C110.619 36.2784 110.839 35.8857 111.141 35.6371C111.446 35.3885 111.802 35.2642 112.21 35.2642C112.329 35.2642 112.446 35.2741 112.562 35.294C112.682 35.3106 112.796 35.3355 112.906 35.3686V37.7102C112.77 37.6638 112.602 37.629 112.403 37.6058C112.205 37.5826 112.034 37.571 111.891 37.571C111.623 37.571 111.381 37.6323 111.165 37.755C110.953 37.8743 110.786 38.0433 110.663 38.2621C110.541 38.4775 110.479 38.7311 110.479 39.0227V43H107.735ZM116.55 38.7045V43H113.805V35.3636H116.411V36.8153H116.49C116.656 36.3314 116.947 35.9519 117.365 35.6768C117.786 35.4018 118.277 35.2642 118.837 35.2642C119.377 35.2642 119.846 35.3885 120.244 35.6371C120.645 35.8823 120.955 36.2204 121.173 36.6513C121.395 37.0821 121.505 37.5743 121.501 38.1278V43H118.757V38.7045C118.76 38.3267 118.664 38.0301 118.469 37.8146C118.277 37.5992 118.008 37.4915 117.663 37.4915C117.438 37.4915 117.241 37.5412 117.072 37.6406C116.906 37.7367 116.778 37.8759 116.689 38.0582C116.599 38.2372 116.553 38.4527 116.55 38.7045ZM129.324 43.1392C128.496 43.1392 127.786 42.9751 127.196 42.647C126.606 42.3156 126.154 41.8549 125.839 41.2649C125.524 40.6716 125.367 39.9839 125.367 39.2017C125.367 38.4195 125.524 37.7334 125.839 37.1435C126.154 36.5502 126.606 36.0895 127.196 35.7614C127.786 35.4299 128.496 35.2642 129.324 35.2642C130.153 35.2642 130.862 35.4299 131.452 35.7614C132.042 36.0895 132.494 36.5502 132.809 37.1435C133.124 37.7334 133.282 38.4195 133.282 39.2017C133.282 39.9839 133.124 40.6716 132.809 41.2649C132.494 41.8549 132.042 42.3156 131.452 42.647C130.862 42.9751 130.153 43.1392 129.324 43.1392ZM129.344 41.1108C129.576 41.1108 129.777 41.0329 129.946 40.8771C130.115 40.7214 130.246 40.4993 130.338 40.2109C130.431 39.9226 130.478 39.5795 130.478 39.1818C130.478 38.7808 130.431 38.4377 130.338 38.1527C130.246 37.8643 130.115 37.6423 129.946 37.4865C129.777 37.3307 129.576 37.2528 129.344 37.2528C129.099 37.2528 128.888 37.3307 128.713 37.4865C128.537 37.6423 128.403 37.8643 128.31 38.1527C128.217 38.4377 128.171 38.7808 128.171 39.1818C128.171 39.5795 128.217 39.9226 128.31 40.2109C128.403 40.4993 128.537 40.7214 128.713 40.8771C128.888 41.0329 129.099 41.1108 129.344 41.1108ZM137.14 38.7045V43H134.395V35.3636H137V36.8153H137.08C137.246 36.3314 137.537 35.9519 137.955 35.6768C138.376 35.4018 138.866 35.2642 139.426 35.2642C139.967 35.2642 140.436 35.3885 140.833 35.6371C141.234 35.8823 141.544 36.2204 141.763 36.6513C141.985 37.0821 142.095 37.5743 142.091 38.1278V43H139.347V38.7045C139.35 38.3267 139.254 38.0301 139.059 37.8146C138.866 37.5992 138.598 37.4915 138.253 37.4915C138.028 37.4915 137.831 37.5412 137.662 37.6406C137.496 37.7367 137.368 37.8759 137.279 38.0582C137.189 38.2372 137.143 38.4527 137.14 38.7045ZM145.917 35.0455V32.8182H154.766V35.0455H151.704V43H148.979V35.0455H145.917ZM158.418 43.1392C157.589 43.1392 156.88 42.9751 156.29 42.647C155.7 42.3156 155.248 41.8549 154.933 41.2649C154.618 40.6716 154.461 39.9839 154.461 39.2017C154.461 38.4195 154.618 37.7334 154.933 37.1435C155.248 36.5502 155.7 36.0895 156.29 35.7614C156.88 35.4299 157.589 35.2642 158.418 35.2642C159.247 35.2642 159.956 35.4299 160.546 35.7614C161.136 36.0895 161.588 36.5502 161.903 37.1435C162.218 37.7334 162.375 38.4195 162.375 39.2017C162.375 39.9839 162.218 40.6716 161.903 41.2649C161.588 41.8549 161.136 42.3156 160.546 42.647C159.956 42.9751 159.247 43.1392 158.418 43.1392ZM158.438 41.1108C158.67 41.1108 158.87 41.0329 159.039 40.8771C159.208 40.7214 159.339 40.4993 159.432 40.2109C159.525 39.9226 159.571 39.5795 159.571 39.1818C159.571 38.7808 159.525 38.4377 159.432 38.1527C159.339 37.8643 159.208 37.6423 159.039 37.4865C158.87 37.3307 158.67 37.2528 158.438 37.2528C158.193 37.2528 157.982 37.3307 157.806 37.4865C157.631 37.6423 157.497 37.8643 157.404 38.1527C157.311 38.4377 157.265 38.7808 157.265 39.1818C157.265 39.5795 157.311 39.9226 157.404 40.2109C157.497 40.4993 157.631 40.7214 157.806 40.8771C157.982 41.0329 158.193 41.1108 158.438 41.1108ZM163.489 45.8636V35.3636H166.213V36.696H166.273C166.373 36.4375 166.518 36.2005 166.711 35.9851C166.903 35.7663 167.141 35.5923 167.426 35.4631C167.712 35.3305 168.043 35.2642 168.421 35.2642C168.925 35.2642 169.404 35.3984 169.858 35.6669C170.315 35.9354 170.686 36.358 170.971 36.9347C171.26 37.5114 171.404 38.2604 171.404 39.1818C171.404 40.0634 171.266 40.7943 170.991 41.3743C170.719 41.9543 170.355 42.3868 169.897 42.6719C169.443 42.9569 168.944 43.0994 168.401 43.0994C168.043 43.0994 167.723 43.0414 167.441 42.9254C167.163 42.8061 166.924 42.6454 166.725 42.4432C166.53 42.2377 166.379 42.0057 166.273 41.7472H166.233V45.8636H163.489ZM166.174 39.1818C166.174 39.553 166.222 39.8745 166.318 40.1463C166.417 40.4148 166.556 40.6236 166.735 40.7727C166.918 40.9186 167.135 40.9915 167.387 40.9915C167.639 40.9915 167.852 40.9202 168.028 40.7777C168.207 40.6319 168.343 40.4247 168.436 40.1562C168.532 39.8845 168.58 39.5597 168.58 39.1818C168.58 38.804 168.532 38.4808 168.436 38.2124C168.343 37.9406 168.207 37.7334 168.028 37.5909C167.852 37.4451 167.639 37.3722 167.387 37.3722C167.135 37.3722 166.918 37.4451 166.735 37.5909C166.556 37.7334 166.417 37.9406 166.318 38.2124C166.222 38.4808 166.174 38.804 166.174 39.1818ZM175.735 32.8182L175.477 39.8182H173.21L172.951 32.8182H175.735ZM174.343 43.1591C173.959 43.1591 173.629 43.0249 173.354 42.7564C173.082 42.4846 172.948 42.1548 172.951 41.767C172.948 41.3892 173.082 41.0661 173.354 40.7976C173.629 40.5291 173.959 40.3949 174.343 40.3949C174.708 40.3949 175.029 40.5291 175.308 40.7976C175.589 41.0661 175.732 41.3892 175.735 41.767C175.732 42.0256 175.664 42.2609 175.531 42.473C175.402 42.6818 175.233 42.8492 175.024 42.9751C174.816 43.0978 174.588 43.1591 174.343 43.1591Z"
    fill="white" />
</svg>