<svg width="12" height="8" viewBox="0 0 12 8" fill="none" xmlns="http://www.w3.org/2000/svg">
  <path
    d="M10.9184 6.87441L6.43467 2.39323C6.19415 2.15271 5.7954 2.15398 5.55615 2.39323L1.07244 6.87441C0.953064 6.98971 0.793182 7.0535 0.627229 7.05206C0.461275 7.05062 0.302527 6.98405 0.185176 6.8667C0.0678244 6.74935 0.00125889 6.5906 -0.000183051 6.42465C-0.00162499 6.2587 0.0621711 6.09882 0.177466 5.97944L4.66118 1.49699C5.01593 1.1448 5.49553 0.94716 5.99541 0.94716C6.49529 0.94716 6.9749 1.1448 7.32964 1.49699L11.8146 5.98071C11.9298 6.10024 11.9933 6.26022 11.9917 6.42618C11.99 6.59213 11.9232 6.75079 11.8057 6.86798C11.6882 6.98517 11.5293 7.05151 11.3634 7.05272C11.1974 7.05392 11.0376 6.98989 10.9184 6.87441Z"
    fill="white" fill-opacity="0.24" />
</svg>