<svg width="19" height="20" viewBox="0 0 19 20" fill="none" xmlns="http://www.w3.org/2000/svg">
  <path
    d="M9.12743 1.1556C9.12743 1.1556 12.3527 1.10455 12.9583 1.24408C13.5639 1.38361 13.8217 1.51977 13.4691 2.42304L12.6167 4.60622H5.63817L4.78578 2.42304C4.43311 1.51977 4.69093 1.38361 5.29656 1.24408C5.90218 1.10455 9.12743 1.1556 9.12743 1.1556Z"
    fill="#80AB29" />
  <path
    d="M6.97921 4.60506H5.63817L4.78578 2.42188C4.43311 1.51861 4.69093 1.38244 5.29656 1.24291C5.38043 1.22363 5.51465 1.20796 5.68347 1.19531L6.97921 4.60506Z"
    fill="#FFE046" />
  <path
    d="M9.30416 0.00462153C9.30416 0.00462153 11.956 -0.136854 11.6046 1.14572L10.705 4.42849H7.9033L7.00376 1.14572C6.65233 -0.136854 9.30416 0.00462153 9.30416 0.00462153Z"
    fill="#FFE046" />
  <path
    d="M9.12728 4.16211L13.3141 5.66623C13.3141 5.66623 18.2546 10.0394 18.2546 14.337C18.2546 18.6346 15.0656 19.9996 9.12728 19.9996C3.18897 19.9996 0 18.6346 0 14.337C0 10.0394 4.94046 5.66623 4.94046 5.66623L9.12728 4.16211Z"
    fill="#80AB29" />
  <path
    d="M2.09867 18.6367C0.715159 17.7504 0 16.3729 0 14.3378C0 10.0402 4.94046 5.66699 4.94046 5.66699L5.30755 5.53516C7.64402 5.711 9.82213 6.78303 11.3867 8.5272C12.7389 10.0347 13.7531 11.6428 13.7531 13.0753C13.7531 17.3729 10.5641 18.7378 4.62584 18.7378C3.71877 18.7378 2.87585 18.706 2.09867 18.6367Z"
    fill="#FFE046" />
  <path
    d="M13.5508 4.91417C13.5508 4.49912 13.2138 4.16211 12.7988 4.16211H5.45518C5.04013 4.16211 4.70312 4.49912 4.70312 4.91417C4.70312 5.32922 5.04013 5.66623 5.45518 5.66623H12.7988C13.2138 5.66623 13.5508 5.32922 13.5508 4.91417Z"
    fill="#6C9618" />
  <path
    d="M6.34605 9.18506C6.10743 9.57577 5.59656 9.69938 5.20585 9.46084C4.81514 9.22222 4.69153 8.71135 4.93007 8.32063L6.61113 5.00273C6.84975 4.61201 7.36062 4.48841 7.75133 4.72694C8.14204 4.96557 8.26565 5.47644 8.02711 5.86715L6.34605 9.18506Z"
    fill="#6C9618" />
  <path
    d="M9.55784 8.97C9.54661 9.4276 9.16598 9.79009 8.70829 9.77886C8.2506 9.76762 7.8882 9.38699 7.89943 8.92929L7.69629 5.21537C7.70753 4.75767 8.08815 4.39527 8.54584 4.4065C9.00353 4.41774 9.36594 4.79837 9.3547 5.25606L9.55784 8.97Z"
    fill="#6C9618" />
  <path
    d="M10.985 4.91417C10.985 4.49912 10.648 4.16211 10.2329 4.16211H5.45518C5.04013 4.16211 4.70312 4.49912 4.70312 4.91417C4.70312 5.32922 5.04013 5.66623 5.45518 5.66623H10.2329C10.648 5.66623 10.985 5.32922 10.985 4.91417Z"
    fill="#ADE835" />
</svg>