<svg width="224" height="225" viewBox="0 0 224 225" fill="none" xmlns="http://www.w3.org/2000/svg">
  <circle cx="36" cy="36" r="24" fill="black" />
  <path
    d="M48.0002 44.7191V30.35C48.0025 29.9841 47.9325 29.6215 47.7942 29.2827C47.656 28.944 47.4521 28.6359 47.1945 28.3762C46.9368 28.1165 46.6304 27.9102 46.2928 27.7692C45.9552 27.6282 45.5931 27.5553 45.2273 27.5547H30.8358C30.1012 27.558 29.3978 27.8521 28.8796 28.3727C28.3613 28.8933 28.0703 29.598 28.0703 30.3326V44.7091C28.069 45.4448 28.3593 46.1511 28.8776 46.6731C29.396 47.1952 30.1001 47.4906 30.8358 47.4945H45.2148C45.9518 47.4945 46.6588 47.2024 47.1809 46.6822C47.7029 46.162 47.9976 45.4561 48.0002 44.7191ZM36.5978 41.802V40.3584C36.5978 39.9834 36.4489 39.6238 36.1838 39.3587C35.9186 39.0936 35.559 38.9446 35.184 38.9446H33.7454C33.3704 38.9446 33.0108 38.7957 32.7457 38.5305C32.4806 38.2654 32.3316 37.9058 32.3316 37.5308C32.3316 37.1556 32.4805 36.7958 32.7455 36.5302C33.0106 36.2647 33.3702 36.1152 33.7454 36.1145H35.184C35.3697 36.1145 35.5536 36.078 35.7251 36.0069C35.8966 35.9359 36.0525 35.8317 36.1838 35.7004C36.315 35.5691 36.4192 35.4133 36.4902 35.2418C36.5613 35.0702 36.5978 34.8864 36.5978 34.7007V33.2621C36.5972 33.0761 36.6332 32.8918 36.7038 32.7197C36.7743 32.5476 36.8781 32.3911 37.0092 32.2591C37.1402 32.1272 37.296 32.0223 37.4676 31.9505C37.6391 31.8787 37.8232 31.8415 38.0092 31.8408C38.3844 31.8415 38.744 31.991 39.009 32.2565C39.2741 32.522 39.423 32.8819 39.423 33.2571V34.6957C39.4236 35.0709 39.5731 35.4305 39.8387 35.6956C40.1042 35.9607 40.4641 36.1096 40.8392 36.1095H42.2779C42.6531 36.1102 43.0127 36.2597 43.2778 36.5252C43.5428 36.7908 43.6917 37.1506 43.6917 37.5258C43.6917 37.9008 43.5427 38.2604 43.2776 38.5255C43.0125 38.7907 42.6529 38.9396 42.2779 38.9396H40.8517C40.4765 38.9396 40.1166 39.0885 39.8511 39.3536C39.5856 39.6186 39.436 39.9782 39.4354 40.3534V41.7896C39.437 41.9774 39.4013 42.1636 39.3302 42.3373C39.2591 42.5111 39.1541 42.669 39.0214 42.8018C38.8886 42.9346 38.7307 43.0395 38.5569 43.1106C38.3831 43.1817 38.1969 43.2175 38.0092 43.2158C37.6346 43.2152 37.2757 43.0659 37.0111 42.8009C36.7465 42.5358 36.5978 42.1766 36.5978 41.802Z"
    fill="url(#paint0_linear_11558_28828)" />
  <path
    d="M27.4637 41.5763C27.0413 41.575 26.6365 41.4064 26.3381 41.1075C26.0396 40.8085 25.8716 40.4035 25.871 39.9811V26.9264C25.871 26.5035 26.0386 26.0979 26.3372 25.7984C26.6357 25.499 27.0408 25.3301 27.4637 25.3287H40.5208C40.9433 25.3301 41.348 25.4986 41.6465 25.7976C41.945 26.0965 42.1129 26.5015 42.1136 26.9239V27.1202H43.9448V26.2779C43.9441 25.5409 43.6509 24.8344 43.1295 24.3135C42.6082 23.7926 41.9014 23.5 41.1644 23.5H26.7804C26.0434 23.5 25.3366 23.7926 24.8152 24.3135C24.2939 24.8344 24.0007 25.5409 24 26.2779V40.6569C24 41.3943 24.2929 42.1015 24.8144 42.623C25.3358 43.1444 26.043 43.4373 26.7804 43.4373H27.6351V41.5763H27.4637Z"
    fill="url(#paint1_linear_11558_28828)" />
  <defs>
    <linearGradient id="paint0_linear_11558_28828" x1="28.0703" y1="27.1393" x2="48.0101"
      y2="47.0692" gradientUnits="userSpaceOnUse">
      <stop stop-color="white" />
      <stop offset="1" stop-color="#999999" />
    </linearGradient>
    <linearGradient id="paint1_linear_11558_28828" x1="24" y1="23.0846" x2="43.9373" y2="43.0294"
      gradientUnits="userSpaceOnUse">
      <stop stop-color="white" />
      <stop offset="1" stop-color="#999999" />
    </linearGradient>
  </defs>
</svg>