<svg width="48" height="48" viewBox="0 0 48 48" fill="none" xmlns="http://www.w3.org/2000/svg">
  <circle cx="24" cy="24" r="24" fill="black" />
  <path
    d="M28.469 15.1479L29.4834 13.2645C30.0423 12.2274 29.7095 10.8996 28.7436 10.2987C27.8939 9.77212 26.8375 9.98212 26.2172 10.7478C26.0331 9.75274 25.2157 9 24.2368 9C23.2579 9 22.4406 9.74951 22.2564 10.7478C21.6362 9.98535 20.5797 9.77212 19.7301 10.2987C18.7641 10.8996 18.4346 12.2242 18.9903 13.2645L20.0047 15.135C14.8841 17.0185 11.2012 22.2392 11.2012 28.3839C11.2012 36.1148 17.0293 37 24.2207 37C31.4121 37 37.2402 36.118 37.2402 28.3839C37.2434 22.2521 33.5766 17.0411 28.469 15.1479Z"
    fill="url(#paint0_linear_11641_13540)" />
  <rect x="24.2012" y="20.3431" width="8" height="8" rx="2" transform="rotate(45 24.2012 20.3431)"
    fill="black" />
  <defs>
    <linearGradient id="paint0_linear_11641_13540" x1="11.2012" y1="8.41667" x2="39.1275"
      y2="34.3872" gradientUnits="userSpaceOnUse">
      <stop stop-color="white" />
      <stop offset="1" stop-color="#999999" />
    </linearGradient>
  </defs>
</svg>