<svg width="48" height="48" viewBox="0 0 48 48" fill="none" xmlns="http://www.w3.org/2000/svg">
  <circle cx="24" cy="24" r="24" fill="black" />
  <g clip-path="url(#clip0_11558_28867)">
    <path
      d="M20.5026 25.5005C21.6071 25.5005 22.5026 26.3959 22.5026 27.5005V31.0023C22.5026 32.1069 21.6071 33.0023 20.5026 33.0023H14C12.8954 33.0023 12 32.1069 12 31.0023V27.5005C12 26.3959 12.8954 25.5005 14 25.5005H20.5026ZM34.0059 25.5005C35.1104 25.5005 36.0059 26.3959 36.0059 27.5005V31.0023C36.0059 32.1069 35.1104 33.0023 34.0059 33.0023H27.5033C26.3987 33.0023 25.5033 32.1069 25.5033 31.0023V27.5005C25.5033 26.3959 26.3987 25.5005 27.5033 25.5005H34.0059ZM20.5026 14.9979C21.6071 14.9979 22.5026 15.8934 22.5026 16.9979V20.4998C22.5026 21.6043 21.6071 22.4998 20.5026 22.4998H14C12.8954 22.4998 12 21.6043 12 20.4998V16.9979C12 15.8934 12.8954 14.9979 14 14.9979H20.5026ZM34.0059 14.9979C35.1104 14.9979 36.0059 15.8934 36.0059 16.9979V20.4998C36.0059 21.6043 35.1104 22.4998 34.0059 22.4998H27.5033C26.3987 22.4998 25.5033 21.6043 25.5033 20.4998V16.9979C25.5033 15.8934 26.3987 14.9979 27.5033 14.9979H34.0059Z"
      fill="url(#paint0_linear_11558_28867)" />
  </g>
  <defs>
    <linearGradient id="paint0_linear_11558_28867" x1="12" y1="14.6228" x2="29.2842" y2="37.6685"
      gradientUnits="userSpaceOnUse">
      <stop stop-color="white" />
      <stop offset="1" stop-color="#999999" />
    </linearGradient>
    <clipPath id="clip0_11558_28867">
      <rect x="12" y="14.9971" width="24" height="18.0048" rx="0.48" fill="white" />
    </clipPath>
  </defs>
</svg>