<svg width="48" height="48" viewBox="0 0 48 48" fill="none" xmlns="http://www.w3.org/2000/svg">
  <circle cx="24" cy="24" r="24" fill="black" />
  <g clip-path="url(#clip0_11558_28875)">
    <path
      d="M31.985 32.4851C30.8525 33.622 29.5023 34.5186 28.0152 35.1213C26.5811 35.7036 25.0475 36.0021 23.4997 36C21.9518 36.0021 20.4183 35.7036 18.9842 35.1213C17.497 34.5186 16.1468 33.622 15.0144 32.4851C13.8776 31.3527 12.9811 30.0026 12.3784 28.5155C11.796 27.0814 11.4976 25.5479 11.4997 24C11.4976 22.4521 11.7961 20.9185 12.3786 19.4843C12.9813 17.9972 13.8779 16.647 15.0148 15.5146C16.1471 14.3778 17.4973 13.4812 18.9843 12.8785C20.4185 12.2962 21.952 11.9978 23.4999 11.9998C25.0477 11.9978 26.5812 12.2962 28.0154 12.8785C29.5024 13.4812 30.8526 14.3778 31.985 15.5146C33.1218 16.647 34.0184 17.9972 34.6212 19.4843C35.2035 20.9184 35.5019 22.452 35.4999 23.9998C35.5019 25.5477 35.2035 27.0812 34.6212 28.5153C34.0184 30.0025 33.1218 31.3527 31.985 32.4851ZM21.0359 28.5856C20.8954 28.7264 20.8166 28.9172 20.8166 29.1161C20.8166 29.315 20.8954 29.5058 21.0359 29.6466C21.1767 29.7871 21.3675 29.8659 21.5664 29.8659C21.7652 29.8658 21.956 29.7869 22.0967 29.6464L28.1199 23.6233L28.2438 25.9727C28.2515 26.1174 28.301 26.2568 28.3862 26.3741C28.4714 26.4914 28.5888 26.5815 28.7241 26.6335C28.8594 26.6854 29.0069 26.6971 29.1487 26.667C29.2905 26.637 29.4205 26.5666 29.5232 26.4643C29.5976 26.3899 29.6556 26.3006 29.6932 26.2024C29.7309 26.1041 29.7475 25.999 29.742 25.8939L29.5524 22.2821C29.5427 22.1012 29.4809 21.9271 29.3745 21.7806C29.268 21.6341 29.1215 21.5215 28.9525 21.4565C28.7834 21.3918 28.5992 21.3774 28.4221 21.4151C28.245 21.4527 28.0826 21.5408 27.9545 21.6688L21.0359 28.5856ZM17.4774 21.5613C17.4057 21.6324 17.3493 21.7174 17.3115 21.811C17.2737 21.9046 17.2554 22.005 17.2576 22.1059L17.4472 25.7178C17.4571 25.8985 17.5191 26.0726 17.6256 26.2189C17.7322 26.3653 17.8788 26.4777 18.0477 26.5427C18.2167 26.6073 18.4008 26.6218 18.5778 26.5844C18.7548 26.5469 18.9173 26.4591 19.0456 26.3316L25.9633 19.4139C26.1038 19.2731 26.1826 19.0823 26.1826 18.8834C26.1826 18.6845 26.1038 18.4937 25.9633 18.3529C25.8225 18.2124 25.6317 18.1335 25.4328 18.1335C25.2339 18.1335 25.0431 18.2124 24.9023 18.3529L18.879 24.3762L18.7552 22.0267C18.7393 21.8325 18.6481 21.6523 18.5012 21.5243C18.3543 21.3964 18.1632 21.331 17.9687 21.3419C17.7834 21.3517 17.6083 21.4299 17.4774 21.5613Z"
      fill="url(#paint0_linear_11558_28875)" stroke="black" stroke-linecap="round" />
  </g>
  <defs>
    <linearGradient id="paint0_linear_11558_28875" x1="6.17575" y1="23.6464" x2="40.1167"
      y2="23.6466" gradientUnits="userSpaceOnUse">
      <stop stop-color="white" />
      <stop offset="1" stop-color="#999999" />
    </linearGradient>
    <clipPath id="clip0_11558_28875">
      <rect width="24" height="24" fill="white" transform="translate(6.5293 24) rotate(-45)" />
    </clipPath>
  </defs>
</svg>