<svg width="44" height="44" viewBox="0 0 44 44" fill="none" xmlns="http://www.w3.org/2000/svg">
  <circle cx="22" cy="22" r="22" fill="black" />
  <path
    d="M33.0005 29.9918V16.8202C33.0026 16.4848 32.9384 16.1523 32.8117 15.8419C32.6849 15.5314 32.4981 15.249 32.2619 15.0109C32.0258 14.7728 31.7449 14.5837 31.4354 14.4545C31.1259 14.3252 30.794 14.2584 30.4586 14.2578H17.2665C16.5931 14.2608 15.9483 14.5304 15.4732 15.0077C14.9982 15.4849 14.7314 16.1308 14.7314 16.8042V29.9827C14.7302 30.6571 14.9963 31.3045 15.4715 31.7831C15.9466 32.2616 16.5921 32.5324 17.2665 32.536H30.4473C31.1228 32.536 31.7709 32.2682 32.2495 31.7914C32.728 31.3145 32.9981 30.6674 33.0005 29.9918ZM22.5484 27.3179V25.9946C22.5484 25.6508 22.4118 25.3212 22.1688 25.0782C21.9257 24.8351 21.5961 24.6986 21.2524 24.6986H19.9336C19.5899 24.6986 19.2603 24.562 19.0172 24.319C18.7742 24.0759 18.6376 23.7463 18.6376 23.4026C18.6376 23.0587 18.7741 22.7288 19.0171 22.4854C19.26 22.242 19.5897 22.1049 19.9336 22.1043H21.2524C21.4226 22.1043 21.5911 22.0708 21.7483 22.0057C21.9056 21.9405 22.0484 21.8451 22.1688 21.7247C22.2891 21.6044 22.3846 21.4615 22.4497 21.3043C22.5148 21.1471 22.5484 20.9785 22.5484 20.8083V19.4896C22.5478 19.3191 22.5807 19.1502 22.6454 18.9924C22.7101 18.8347 22.8052 18.6912 22.9254 18.5702C23.0455 18.4493 23.1883 18.3531 23.3456 18.2873C23.5029 18.2215 23.6716 18.1874 23.8421 18.1868C24.186 18.1874 24.5156 18.3244 24.7586 18.5678C25.0016 18.8112 25.138 19.1411 25.138 19.485V20.8038C25.1386 21.1477 25.2757 21.4773 25.5191 21.7203C25.7625 21.9633 26.0924 22.0998 26.4363 22.0998H27.7551C28.099 22.1004 28.4286 22.2374 28.6716 22.4808C28.9146 22.7242 29.0511 23.0541 29.051 23.398C29.051 23.7417 28.9145 24.0714 28.6715 24.3144C28.4284 24.5575 28.0988 24.694 27.7551 24.694H26.4477C26.1038 24.694 25.7739 24.8305 25.5305 25.0735C25.2871 25.3164 25.15 25.6461 25.1494 25.99V27.3065C25.151 27.4786 25.1182 27.6493 25.053 27.8086C24.9878 27.9679 24.8916 28.1126 24.7699 28.2343C24.6482 28.356 24.5035 28.4523 24.3442 28.5174C24.1849 28.5826 24.0142 28.6154 23.8421 28.6139C23.4987 28.6133 23.1697 28.4764 22.9271 28.2335C22.6846 27.9905 22.5484 27.6612 22.5484 27.3179Z"
    fill="url(#paint0_linear_11494_22429)" />
  <path
    d="M14.175 27.1109C13.7878 27.1097 13.4168 26.9552 13.1432 26.6812C12.8696 26.4072 12.7157 26.0359 12.7151 25.6487V13.6819C12.7151 13.2943 12.8687 12.9224 13.1424 12.6479C13.4161 12.3734 13.7874 12.2186 14.175 12.2174H26.1441C26.5313 12.2186 26.9023 12.3731 27.1759 12.6471C27.4495 12.9211 27.6035 13.2924 27.6041 13.6796V13.8596H29.2827V13.0874C29.2821 12.4119 29.0133 11.7642 28.5354 11.2867C28.0575 10.8092 27.4096 10.541 26.734 10.541H13.5487C12.8731 10.541 12.2252 10.8092 11.7473 11.2867C11.2694 11.7642 11.0006 12.4119 11 13.0874V26.2682C11 26.9442 11.2685 27.5924 11.7465 28.0704C12.2245 28.5484 12.8727 28.8169 13.5487 28.8169H14.3322V27.1109H14.175Z"
    fill="url(#paint1_linear_11494_22429)" />
  <defs>
    <linearGradient id="paint0_linear_11494_22429" x1="14.7314" y1="13.877" x2="33.0096"
      y2="32.1461" gradientUnits="userSpaceOnUse">
      <stop stop-color="white" />
      <stop offset="1" stop-color="#999999" />
    </linearGradient>
    <linearGradient id="paint1_linear_11494_22429" x1="11" y1="10.1603" x2="29.2759" y2="28.443"
      gradientUnits="userSpaceOnUse">
      <stop stop-color="white" />
      <stop offset="1" stop-color="#999999" />
    </linearGradient>
  </defs>
</svg>