<svg width="48" height="48" viewBox="0 0 48 48" fill="none" xmlns="http://www.w3.org/2000/svg">
  <circle cx="24" cy="24" r="24" fill="black" />
  <g opacity="0.85" clip-path="url(#clip0_11641_13683)">
    <path
      d="M18.5561 25.8879C16.5935 25.8879 15.0021 27.4793 15 29.4419V29.4439C15 31.4065 16.5914 33 18.554 33H18.5561C20.5187 33 22.1121 31.4086 22.1121 29.446C22.1121 27.4793 20.5207 25.8879 18.5561 25.8879C18.5581 25.8879 18.5581 25.8879 18.5561 25.8879Z"
      fill="url(#paint0_linear_11641_13683)" />
    <path
      d="M16.6426 18.0391C15.7361 18.0391 15.002 18.7753 15.002 19.6817V19.7535C15.002 20.66 15.7361 21.3962 16.6426 21.3962C22.1366 21.3962 26.6053 25.8648 26.6053 31.3568C26.6053 32.2633 27.3395 32.9995 28.2459 32.9995H28.3177C29.2241 32.9995 29.9583 32.2653 29.9583 31.3589C29.9624 24.013 23.9864 18.0391 16.6426 18.0391Z"
      fill="url(#paint1_linear_11641_13683)" />
    <path
      d="M16.6427 12C15.7362 12 15 12.7362 15 13.6427C15 14.5491 15.7362 15.2854 16.6427 15.2854C25.5062 15.2854 32.7146 22.4938 32.7146 31.3553C32.7146 32.2617 33.4509 32.9979 34.3573 32.9979C35.2638 32.9979 35.9979 32.2617 36 31.3553C36 26.1853 33.9861 21.3249 30.3296 17.6684C26.6751 14.0139 21.8127 12 16.6427 12Z"
      fill="url(#paint2_linear_11641_13683)" />
  </g>
  <defs>
    <linearGradient id="paint0_linear_11641_13683" x1="15" y1="25.7397" x2="22.1121" y2="32.8518"
      gradientUnits="userSpaceOnUse">
      <stop stop-color="white" />
      <stop offset="1" stop-color="#999999" />
    </linearGradient>
    <linearGradient id="paint1_linear_11641_13683" x1="15.002" y1="17.7274" x2="29.9624"
      y2="32.6837" gradientUnits="userSpaceOnUse">
      <stop stop-color="white" />
      <stop offset="1" stop-color="#999999" />
    </linearGradient>
    <linearGradient id="paint2_linear_11641_13683" x1="15" y1="11.5625" x2="35.998" y2="32.5625"
      gradientUnits="userSpaceOnUse">
      <stop stop-color="white" />
      <stop offset="1" stop-color="#999999" />
    </linearGradient>
    <clipPath id="clip0_11641_13683">
      <rect width="21" height="21" fill="white" transform="translate(15 12)" />
    </clipPath>
  </defs>
</svg>