<svg width="41" height="16" viewBox="0 0 41 16" fill="none" xmlns="http://www.w3.org/2000/svg">
<path d="M0 6C0 2.68629 2.68629 0 6 0H34.1355C37.4492 0 40.1355 2.68629 40.1355 6V9.44C40.1355 12.7537 37.4493 15.44 34.1355 15.44H0V6Z" fill="url(#paint0_linear_6594_672)"/>
<path d="M23.0754 4H24.8854L24.5054 7.39L24.2054 9.75L24.2854 9.67C24.6154 8.88 24.9654 8.08 25.2954 7.31L26.8954 4H28.3954L28.3054 7.47C28.2654 8.23 28.2054 9.03 28.1254 9.83L28.2454 9.67C28.5354 8.87 28.8355 8.08 29.1054 7.31L30.4154 4H32.1355L28.9954 11.44H26.7454L26.9054 8.12C26.9254 7.55 26.9654 6.95 27.0654 6.39L26.9554 6.55C26.7254 7.11 26.4854 7.71 26.2454 8.28L24.7954 11.44H22.5854L23.0754 4Z" fill="black"/>
<path d="M17.4867 4H22.2067L21.8367 5.48H18.9067L18.5667 6.86H21.0567L20.6767 8.36H18.1867L17.7967 9.94H20.8367L20.4667 11.44H15.6367L17.4867 4Z" fill="black"/>
<path d="M9.85 4H11.65L12.59 7.56L12.9 9.21L13.03 9.13C13.13 8.34 13.25 7.27 13.47 6.38L14.06 4H15.76L13.91 11.44H12.11L11.19 7.85L10.87 6.22L10.74 6.3C10.61 7.13 10.52 8.15 10.29 9.05L9.7 11.44H8L9.85 4Z" fill="black"/>
<defs>
<linearGradient id="paint0_linear_6594_672" x1="-2.28043" y1="10.9705" x2="40.1304" y2="9.94675" gradientUnits="userSpaceOnUse">
<stop stop-color="#5BD313"/>
<stop offset="1" stop-color="#F6E402"/>
</linearGradient>
</defs>
</svg>
