<svg width="48" height="48" viewBox="0 0 48 48" fill="none" xmlns="http://www.w3.org/2000/svg">
  <circle cx="24" cy="24" r="24" fill="black" />
  <path
    d="M12 23.875C12 27.0576 13.2643 30.1098 15.5147 32.3603C17.7652 34.6107 20.8174 35.875 24 35.875C27.1826 35.875 30.2348 34.6107 32.4853 32.3603C34.7357 30.1098 36 27.0576 36 23.875C36 20.6924 34.7357 17.6402 32.4853 15.3897C30.2348 13.1393 27.1826 11.875 24 11.875C20.8174 11.875 17.7652 13.1393 15.5147 15.3897C13.2643 17.6402 12 20.6924 12 23.875Z"
    fill="url(#paint0_linear_11641_13670)" />
  <path
    d="M15.498 23.875C15.498 26.13 16.3938 28.2927 17.9884 29.8872C19.5829 31.4817 21.7456 32.3775 24.0006 32.3775C26.2556 32.3775 28.4182 31.4817 30.0127 29.8872C31.6073 28.2927 32.5031 26.13 32.5031 23.875C32.5031 21.62 31.6073 19.4574 30.0127 17.8628C28.4182 16.2683 26.2556 15.3725 24.0006 15.3725C21.7456 15.3725 19.5829 16.2683 17.9884 17.8628C16.3938 19.4574 15.498 21.62 15.498 23.875Z"
    fill="url(#paint1_linear_11641_13670)" />
  <path
    d="M23.9997 14.3676C29.247 14.3676 33.5072 18.6277 33.5072 23.8751C33.5072 29.1224 29.247 33.3825 23.9997 33.3825C18.7524 33.3825 14.4922 29.1224 14.4922 23.8751C14.4922 18.6277 18.7524 14.3676 23.9997 14.3676ZM23.9997 15.3725C19.307 15.3725 15.4972 19.1824 15.4972 23.8751C15.4972 28.5677 19.307 32.3776 23.9997 32.3776C28.6923 32.3776 32.5022 28.5677 32.5022 23.8751C32.5022 19.1824 28.6923 15.3725 23.9997 15.3725Z"
    fill="#FA7B4D" />
  <path
    d="M23.9997 14.3676C29.247 14.3676 33.5072 18.6277 33.5072 23.8751C33.5072 29.1224 29.247 33.3825 23.9997 33.3825C18.7524 33.3825 14.4922 29.1224 14.4922 23.8751C14.4922 18.6277 18.7524 14.3676 23.9997 14.3676ZM23.9997 15.3725C19.307 15.3725 15.4972 19.1824 15.4972 23.8751C15.4972 28.5677 19.307 32.3776 23.9997 32.3776C28.6923 32.3776 32.5022 28.5677 32.5022 23.8751C32.5022 19.1824 28.6923 15.3725 23.9997 15.3725Z"
    fill="#BBBBBB" />
  <path
    d="M23.4619 18.1977C23.5234 18.112 23.6043 18.0421 23.6982 17.9939C23.792 17.9457 23.8959 17.9206 24.0014 17.9206C24.1068 17.9206 24.2108 17.9457 24.3046 17.9939C24.3984 18.0421 24.4794 18.112 24.5408 18.1977L26.3085 20.6636C26.3919 20.7798 26.5106 20.8661 26.6469 20.9094L29.5383 21.8285C29.6388 21.8606 29.7302 21.916 29.8049 21.9904C29.8797 22.0647 29.9357 22.1558 29.9683 22.2561C30.0009 22.3564 30.0091 22.463 29.9923 22.5671C29.9755 22.6712 29.9342 22.7698 29.8717 22.8547L28.0727 25.2978C27.9879 25.413 27.9426 25.5526 27.9435 25.6956L27.9628 28.7295C27.9635 28.835 27.9391 28.9391 27.8915 29.0333C27.8439 29.1274 27.7746 29.2088 27.6893 29.2708C27.604 29.3328 27.5051 29.3736 27.4009 29.3898C27.2966 29.4059 27.1901 29.397 27.09 29.3637L24.2105 28.4077C24.0747 28.3626 23.928 28.3626 23.7923 28.4077L20.9128 29.3637C20.8127 29.397 20.7061 29.4059 20.6019 29.3897C20.4977 29.3735 20.3988 29.3328 20.3135 29.2708C20.2282 29.2088 20.1589 29.1273 20.1113 29.0332C20.0637 28.9391 20.0392 28.835 20.0399 28.7295L20.0592 25.6956C20.0602 25.5526 20.0148 25.413 19.93 25.2978L18.131 22.8547C18.0685 22.7698 18.0272 22.6712 18.0104 22.5671C17.9936 22.463 18.0019 22.3564 18.0345 22.2561C18.067 22.1558 18.123 22.0647 18.1978 21.9904C18.2726 21.916 18.364 21.8606 18.4644 21.8285L21.3558 20.9094C21.4922 20.8661 21.6109 20.7798 21.6942 20.6636L23.4619 18.1977Z"
    fill="black" />
  <path
    d="M18.144 22.737C18.102 22.5287 18.1383 22.3122 18.246 22.1291C18.3538 21.946 18.5254 21.8091 18.7279 21.7447L21.293 20.9293C21.47 20.873 21.6241 20.761 21.7324 20.6101L23.3005 18.4225C23.3803 18.3112 23.4855 18.2205 23.6073 18.1579C23.7292 18.0953 23.8642 18.0627 24.0011 18.0627C24.1381 18.0627 24.2731 18.0953 24.395 18.1579C24.5168 18.2205 24.622 18.3112 24.7018 18.4225L26.2699 20.6101C26.3782 20.761 26.5323 20.873 26.7093 20.9293L29.2744 21.7447C29.386 21.7802 29.4891 21.838 29.5776 21.9146C29.666 21.9912 29.738 22.0851 29.789 22.1904C29.84 22.2958 29.8691 22.4104 29.8744 22.5273C29.8797 22.6442 29.8611 22.761 29.8198 22.8705C28.1585 23.2127 26.277 23.4059 24.2844 23.4059C22.0458 23.4059 19.9475 23.1621 18.144 22.737Z"
    fill="black" />
  <defs>
    <linearGradient id="paint0_linear_11641_13670" x1="12" y1="11.375" x2="36" y2="35.375"
      gradientUnits="userSpaceOnUse">
      <stop stop-color="white" />
      <stop offset="1" stop-color="#999999" />
    </linearGradient>
    <linearGradient id="paint1_linear_11641_13670" x1="15.498" y1="15.0182" x2="32.5031"
      y2="32.0233" gradientUnits="userSpaceOnUse">
      <stop stop-color="white" />
      <stop offset="1" stop-color="#999999" />
    </linearGradient>
  </defs>
</svg>