<svg width="19" height="19" viewBox="0 0 19 19" fill="none" xmlns="http://www.w3.org/2000/svg">
  <path
    d="M9.15473 16.2625L9.15415 16.2625C8.72736 16.2631 8.30093 16.2377 7.87721 16.1866C7.67786 16.1616 7.47595 16.2176 7.32151 16.2733C7.15275 16.3342 6.96964 16.4219 6.78532 16.5198C6.46563 16.6895 6.1012 16.9122 5.74582 17.1293C5.69264 17.1618 5.63966 17.1942 5.58707 17.2262C5.17288 17.4786 4.78058 17.7124 4.4515 17.8692C4.2896 17.9464 4.15873 17.9972 4.05916 18.0235C4.05893 18.0028 4.05932 17.979 4.06062 17.9517C4.07197 17.7152 4.14003 17.3962 4.2248 17.0206C4.23009 16.9973 4.23543 16.9736 4.24083 16.9498C4.31654 16.6154 4.40097 16.2425 4.42983 15.927C4.44532 15.7578 4.44866 15.5713 4.41138 15.398C4.37369 15.2228 4.28107 15.0054 4.05981 14.8696L4.05763 14.8682C1.85752 13.5341 0.457054 11.3686 0.457054 8.90895C0.457054 4.90192 4.27391 1.53951 9.13885 1.53951C14.0011 1.53951 17.8365 4.88823 17.8365 8.89308C17.8365 12.9 14.0146 16.2625 9.15473 16.2625Z"
    fill="url(#paint0_linear_9543_9703)" stroke="url(#paint1_linear_9543_9703)"
    stroke-width="0.914107" />
  <path
    d="M9.07984 11.0935L9.07977 11.0935L9.08133 11.0986C9.14074 11.2911 9.26023 11.4595 9.42231 11.5792C9.58362 11.6982 9.77866 11.7628 9.97912 11.7635C10.1778 11.7687 10.3729 11.7096 10.5354 11.5951C10.6981 11.4804 10.8194 11.3162 10.8813 11.127L12.9379 5.16661C12.938 5.16651 12.938 5.1664 12.9381 5.16629C12.9971 4.99694 12.9865 4.81106 12.9086 4.64951C12.8306 4.48786 12.6916 4.3638 12.5222 4.30463C12.3527 4.24546 12.1667 4.25603 12.0051 4.334C11.8434 4.41197 11.7193 4.55097 11.6602 4.72041L11.6598 4.72143L10.0396 9.44286L8.96088 5.58733C8.91043 5.38945 8.79711 5.21327 8.6379 5.0853C8.47798 4.95676 8.2805 4.88388 8.07541 4.87773C7.87033 4.87158 7.66883 4.93248 7.50149 5.05121C7.33493 5.16939 7.21126 5.33842 7.14904 5.53288L5.08291 11.4932L5.08271 11.4938C5.02454 11.6633 5.03603 11.849 5.11464 12.01C5.19302 12.1705 5.33173 12.2935 5.50044 12.3521C5.57156 12.3778 5.64646 12.3913 5.72205 12.3921L5.72205 12.3922L5.72581 12.3921C5.86642 12.3911 6.00322 12.3462 6.11715 12.2638C6.23081 12.1816 6.31608 12.0661 6.36116 11.9333L7.99906 7.23064L9.07984 11.0935Z"
    fill="black" stroke="black" stroke-width="0.4" />
  <defs>
    <linearGradient id="paint0_linear_9543_9703" x1="18.2936" y1="0.5" x2="0" y2="0.5"
      gradientUnits="userSpaceOnUse">
      <stop stop-color="#D98A54" />
      <stop stop-color="#FFFA00" />
      <stop offset="1" stop-color="#FFA82E" />
    </linearGradient>
    <linearGradient id="paint1_linear_9543_9703" x1="18.2936" y1="0.5" x2="0" y2="0.5"
      gradientUnits="userSpaceOnUse">
      <stop stop-color="#D98A54" />
      <stop stop-color="#FFFA00" />
      <stop offset="1" stop-color="#FFA82E" />
    </linearGradient>
  </defs>
</svg>