<svg width="16" height="4" viewBox="0 0 16 4" fill="none" xmlns="http://www.w3.org/2000/svg">
  <path
    d="M0 2.00013C0 2.46132 0.183205 2.90362 0.509313 3.22973C0.835421 3.55583 1.27772 3.73904 1.7389 3.73904C2.20009 3.73904 2.64239 3.55583 2.9685 3.22973C3.2946 2.90362 3.47781 2.46132 3.47781 2.00013C3.47781 1.53895 3.2946 1.09665 2.9685 0.770544C2.64239 0.444436 2.20009 0.26123 1.7389 0.26123C1.27772 0.26123 0.835421 0.444436 0.509313 0.770544C0.183205 1.09665 0 1.53895 0 2.00013Z"
    fill="#B3B3B3" />
  <path
    d="M6.25977 2.00013C6.25977 2.46132 6.44297 2.90362 6.76908 3.22973C7.09519 3.55583 7.53748 3.73904 7.99867 3.73904C8.45986 3.73904 8.90215 3.55583 9.22826 3.22973C9.55437 2.90362 9.73757 2.46132 9.73757 2.00013C9.73757 1.53895 9.55437 1.09665 9.22826 0.770544C8.90215 0.444436 8.45986 0.26123 7.99867 0.26123C7.53748 0.26123 7.09519 0.444436 6.76908 0.770544C6.44297 1.09665 6.25977 1.53895 6.25977 2.00013Z"
    fill="#B3B3B3" />
  <path
    d="M12.5215 2.00013C12.5215 2.46132 12.7047 2.90362 13.0308 3.22973C13.3569 3.55583 13.7992 3.73904 14.2604 3.73904C14.7216 3.73904 15.1639 3.55583 15.49 3.22973C15.8161 2.90362 15.9993 2.46132 15.9993 2.00013C15.9993 1.53895 15.8161 1.09665 15.49 0.770544C15.1639 0.444436 14.7216 0.26123 14.2604 0.26123C13.7992 0.26123 13.3569 0.444436 13.0308 0.770544C12.7047 1.09665 12.5215 1.53895 12.5215 2.00013Z"
    fill="#B3B3B3" />
</svg>