<svg width="26" height="26" viewBox="0 0 26 26" fill="none" xmlns="http://www.w3.org/2000/svg">
<rect x="0.5" y="0.5" width="25" height="25" rx="12.5" fill="#25C193"/>
<rect x="0.5" y="0.5" width="25" height="25" rx="12.5" stroke="white"/>
<path d="M19.8333 5H13.1667C12.75 5 12.4167 5.25 12.3333 5.66667L9.58333 16.75L7.25 12.0833C7.08333 11.8333 6.83333 11.6667 6.5 11.6667H4.83333C4.33333 11.6667 4 12 4 12.5C4 13 4.33333 13.3333 4.83333 13.3333H6L9.08333 19.5C9.25 19.8333 9.58333 20 9.91667 19.9167C10.25 19.9167 10.5833 19.6667 10.6667 19.25L13.8333 6.66667H19.8333C20.3333 6.66667 20.6667 6.33333 20.6667 5.83333C20.6667 5.33333 20.3333 5 19.8333 5Z" fill="white"/>
<circle cx="10.334" cy="18.5" r="2" fill="#25C193" stroke="white" stroke-width="1.5"/>
</svg>
