<svg width="26" height="26" viewBox="0 0 26 26" fill="none" xmlns="http://www.w3.org/2000/svg">
<rect x="0.5" y="0.5" width="25" height="25" rx="12.5" fill="#F0496E"/>
<rect x="0.5" y="0.5" width="25" height="25" rx="12.5" stroke="white"/>
<path d="M4.83268 18H11.4993C11.916 18 12.2493 17.7903 12.3327 17.4409L15.0827 8.14516L17.416 12.0591C17.5827 12.2688 17.8327 12.4086 18.166 12.4086H19.8327C20.3327 12.4086 20.666 12.129 20.666 11.7097C20.666 11.2903 20.3327 11.0108 19.8327 11.0108H18.666L15.5827 5.83871C15.416 5.55914 15.0827 5.41935 14.7493 5.48925C14.416 5.48925 14.0827 5.69892 13.9993 6.04839L10.8327 16.6022H4.83268C4.33268 16.6022 3.99935 16.8817 3.99935 17.3011C3.99935 17.7204 4.33268 18 4.83268 18Z" fill="white"/>
<circle cx="15.3324" cy="6.83171" r="1.83162" transform="rotate(180 15.3324 6.83171)" fill="#F0496E" stroke="white" stroke-width="1.5"/>
</svg>
