<svg xmlns="http://www.w3.org/2000/svg" width="19" height="19" viewBox="0 0 19 19" fill="none">
  <path d="M18.3335 7.95209C18.0063 3.63158 14.0551 0.25 9.33851 0.25C4.57603 0.251445 0.624806 3.66625 0.334646 8.02287C0.327887 8.12479 0.351034 8.22648 0.401375 8.31602C0.451716 8.40556 0.527165 8.47925 0.618885 8.52845C0.665496 8.55416 0.715233 8.57406 0.766926 8.58768L5.82697 13.5149C5.68148 13.6663 5.60096 13.8663 5.60195 14.0739V17.5479C5.60076 17.6403 5.61851 17.732 5.65415 17.8176C5.6898 17.9032 5.74262 17.981 5.80951 18.0464C5.8764 18.1118 5.95601 18.1635 6.04367 18.1985C6.13133 18.2334 6.22526 18.2509 6.31995 18.25H12.2905C12.3848 18.2504 12.4782 18.2324 12.5654 18.1972C12.6525 18.162 12.7316 18.1102 12.798 18.0449C12.8644 17.9795 12.9168 17.9019 12.9522 17.8166C12.9876 17.7313 13.0052 17.64 13.004 17.5479V14.0725C13.0037 13.8642 12.9222 13.6638 12.776 13.512L17.8346 8.5299C17.977 8.51321 18.1074 8.44411 18.1993 8.33672C18.2912 8.22933 18.3376 8.09175 18.3291 7.95209H18.3335ZM12.1454 13.2606H11.0543L12.5347 8.77257C13.2679 8.13531 14.2176 7.78676 15.1995 7.79464C15.8939 7.79124 16.5773 7.96343 17.1832 8.29444L12.1454 13.2606ZM6.46207 13.2606L1.44347 8.36956C2.08867 7.99387 2.8269 7.79755 3.57823 7.80187C4.5388 7.79352 5.47135 8.11747 6.2104 8.71624L7.7293 13.2606H6.46207ZM8.40289 13.2606L6.86918 8.66423C7.58337 8.09769 8.47733 7.79128 9.39773 7.79753C9.69641 7.79751 9.99422 7.82899 10.286 7.89143C10.3733 7.9102 10.4592 7.93043 10.5436 7.95498C10.7576 8.01473 10.9661 8.09205 11.1668 8.1861C11.2542 8.22655 11.3385 8.27133 11.42 8.31755L11.5132 8.371C11.6486 8.45205 11.7787 8.54131 11.9026 8.63823L10.3792 13.2606H8.40289Z" fill="#51ACF1"/>
</svg>