<svg width="209" height="51" viewBox="0 0 209 51" fill="none" xmlns="http://www.w3.org/2000/svg">
  <path
    d="M86.9442 9.71378C86.9954 8.88281 86.7695 8.21591 86.2667 7.71307C85.7681 7.20597 85.0479 6.95241 84.1062 6.95241C83.467 6.95241 82.881 7.0696 82.3484 7.30398C81.8157 7.53835 81.3725 7.86009 81.0188 8.26918C80.6694 8.67401 80.4499 9.13636 80.3604 9.65625C80.305 9.9929 80.32 10.2976 80.4052 10.5703C80.4947 10.8388 80.6417 11.0774 80.8462 11.2862C81.0508 11.495 81.3043 11.6804 81.6069 11.8423C81.9094 12 82.2482 12.1385 82.6232 12.2578L83.9847 12.6797C84.4492 12.8288 84.8732 13.0014 85.2567 13.1974C85.6445 13.3935 85.9705 13.6278 86.2347 13.9006C86.4989 14.169 86.6864 14.4844 86.7972 14.8466C86.9123 15.2088 86.9293 15.6264 86.8484 16.0994C86.7333 16.8026 86.4563 17.4268 86.0174 17.9723C85.5785 18.5178 85.0096 18.9439 84.3107 19.2507C83.6119 19.5575 82.8065 19.7109 81.8945 19.7109C81.055 19.7109 80.3434 19.5682 79.7596 19.2827C79.18 18.9972 78.7518 18.6009 78.4748 18.0938C78.1978 17.5824 78.0913 16.9943 78.1552 16.3295H78.9734C78.9265 16.8707 79.0224 17.3395 79.261 17.7358C79.4996 18.1278 79.8555 18.4304 80.3285 18.6435C80.8058 18.8565 81.3704 18.9631 82.0224 18.9631C82.7298 18.9631 83.369 18.8416 83.94 18.5987C84.5153 18.3558 84.9883 18.0192 85.359 17.5888C85.734 17.1584 85.9684 16.6598 86.0621 16.093C86.1388 15.6328 86.0962 15.2365 85.9343 14.9041C85.7724 14.5717 85.4975 14.2862 85.1097 14.0476C84.7262 13.8047 84.2383 13.5916 83.646 13.4084L82.1758 12.9482C81.2042 12.6371 80.4947 12.2152 80.0472 11.6825C79.5998 11.1456 79.44 10.4787 79.5678 9.68182C79.6871 8.99574 79.9663 8.39276 80.4052 7.87287C80.8441 7.35298 81.396 6.94602 82.0607 6.65199C82.7255 6.35795 83.4499 6.21094 84.234 6.21094C85.0138 6.21094 85.6765 6.36222 86.2219 6.66477C86.7717 6.96307 87.1765 7.37642 87.4364 7.90483C87.7006 8.43324 87.7965 9.03622 87.7241 9.71378H86.9442ZM94.2695 9.68182L94.1481 10.3786H89.8654L89.9805 9.68182H94.2695ZM91.815 7.32955H92.5884L90.9648 17.1797C90.8967 17.5803 90.918 17.9084 91.0288 18.1641C91.1438 18.4155 91.3164 18.603 91.5465 18.7266C91.7809 18.8459 92.0472 18.9055 92.3455 18.9055C92.4776 18.9055 92.5969 18.8949 92.7035 18.8736C92.81 18.848 92.9165 18.8203 93.0231 18.7905L93.0934 19.5C92.9613 19.5469 92.8207 19.5852 92.6715 19.6151C92.5224 19.6449 92.3498 19.6598 92.1538 19.6598C91.7447 19.6598 91.3739 19.5682 91.0415 19.3849C90.7134 19.2017 90.4641 18.9354 90.2937 18.5859C90.1275 18.2365 90.087 17.8146 90.1722 17.3203L91.815 7.32955ZM99.2234 19.7045C98.337 19.7045 97.6019 19.4851 97.0181 19.0462C96.4343 18.6072 96.0273 18.0064 95.7972 17.2436C95.5671 16.4808 95.533 15.6115 95.695 14.6357C95.8569 13.6555 96.1808 12.782 96.6665 12.0149C97.1523 11.2479 97.7468 10.6428 98.4499 10.1996C99.1531 9.75639 99.9116 9.5348 100.725 9.5348C101.275 9.5348 101.776 9.6456 102.228 9.86719C102.684 10.0888 103.067 10.4062 103.378 10.8196C103.689 11.2287 103.904 11.7251 104.024 12.3089C104.143 12.8928 104.143 13.549 104.024 14.2777L103.934 14.7635H96.1616L96.283 14.054H103.27C103.389 13.3466 103.355 12.7074 103.167 12.1364C102.98 11.5611 102.669 11.1051 102.234 10.7685C101.804 10.4318 101.275 10.2635 100.649 10.2635C100.01 10.2635 99.4002 10.4489 98.8207 10.8196C98.2454 11.1861 97.7511 11.6761 97.3377 12.2898C96.9286 12.9034 96.6559 13.5788 96.5195 14.3161L96.4428 14.7124C96.3065 15.5561 96.3235 16.2997 96.494 16.9432C96.6687 17.5824 96.9925 18.0831 97.4656 18.4453C97.9386 18.8033 98.5565 18.9822 99.3192 18.9822C99.8519 18.9822 100.325 18.8928 100.738 18.7138C101.156 18.5305 101.51 18.3089 101.799 18.049C102.093 17.7891 102.324 17.5376 102.49 17.2947L103.135 17.5824C102.939 17.9105 102.658 18.2386 102.292 18.5668C101.925 18.8906 101.484 19.1612 100.968 19.3786C100.453 19.5959 99.8711 19.7045 99.2234 19.7045ZM105.243 23.1818L107.493 9.68182H108.254L107.896 11.8743H107.992C108.213 11.4524 108.49 11.0646 108.823 10.7109C109.159 10.3572 109.553 10.0739 110.005 9.8608C110.461 9.64347 110.97 9.5348 111.533 9.5348C112.325 9.5348 112.98 9.75213 113.495 10.1868C114.011 10.6214 114.367 11.2202 114.563 11.983C114.759 12.7457 114.776 13.6236 114.614 14.6165C114.448 15.6051 114.137 16.483 113.681 17.25C113.229 18.0128 112.675 18.6136 112.019 19.0526C111.362 19.4872 110.642 19.7045 109.858 19.7045C109.3 19.7045 108.827 19.598 108.439 19.3849C108.056 19.1719 107.753 18.8885 107.531 18.5348C107.31 18.1768 107.156 17.7848 107.071 17.3587H106.994L106.023 23.1818H105.243ZM107.442 14.6101C107.306 15.4453 107.306 16.1932 107.442 16.8537C107.583 17.5099 107.855 18.0298 108.26 18.4134C108.669 18.7926 109.204 18.9822 109.865 18.9822C110.534 18.9822 111.141 18.7905 111.686 18.407C112.236 18.0192 112.696 17.495 113.067 16.8345C113.442 16.174 113.698 15.4325 113.834 14.6101C113.97 13.7876 113.97 13.0483 113.834 12.392C113.698 11.7358 113.427 11.218 113.022 10.8388C112.617 10.4553 112.076 10.2635 111.399 10.2635C110.734 10.2635 110.127 10.4531 109.577 10.8324C109.027 11.2074 108.567 11.723 108.196 12.3793C107.83 13.0312 107.578 13.7749 107.442 14.6101ZM121.484 19.5L121.586 18.8928L126.623 14.0092C127.352 13.3104 127.933 12.718 128.368 12.2322C128.807 11.7464 129.133 11.3075 129.346 10.9155C129.563 10.5234 129.706 10.1143 129.774 9.68821C129.864 9.15554 129.823 8.68466 129.653 8.27557C129.487 7.86222 129.212 7.54048 128.828 7.31037C128.449 7.08026 127.987 6.9652 127.441 6.9652C126.87 6.9652 126.344 7.09304 125.862 7.34872C125.381 7.60014 124.978 7.94105 124.654 8.37145C124.335 8.80185 124.13 9.28338 124.04 9.81605H123.267C123.378 9.14276 123.636 8.53551 124.04 7.99432C124.45 7.45312 124.957 7.02486 125.562 6.70952C126.167 6.38991 126.825 6.23011 127.537 6.23011C128.227 6.23011 128.817 6.38139 129.308 6.68395C129.798 6.98651 130.153 7.39986 130.375 7.92401C130.597 8.44389 130.652 9.03196 130.541 9.68821C130.464 10.174 130.307 10.6406 130.068 11.0881C129.83 11.5312 129.465 12.0277 128.975 12.5774C128.489 13.1229 127.833 13.794 127.006 14.5909L122.768 18.6882L122.762 18.7585H129.634L129.506 19.5H121.484ZM0.969727 43.5V33.3182H5.36461C6.12029 33.3182 6.78152 33.4673 7.34828 33.7656C7.91504 34.0639 8.35585 34.4832 8.67072 35.0234C8.98559 35.5637 9.14302 36.1951 9.14302 36.9176C9.14302 37.6468 8.98062 38.2782 8.65581 38.8118C8.33431 39.3454 7.8819 39.7564 7.29856 40.0447C6.71854 40.3331 6.04075 40.4773 5.26518 40.4773H2.64018V38.3295H4.70836C5.03317 38.3295 5.30993 38.2732 5.53862 38.1605C5.77063 38.0445 5.94795 37.8804 6.07058 37.6683C6.19653 37.4562 6.2595 37.206 6.2595 36.9176C6.2595 36.6259 6.19653 36.3774 6.07058 36.1719C5.94795 35.9631 5.77063 35.804 5.53862 35.6946C5.30993 35.5819 5.03317 35.5256 4.70836 35.5256H3.73393V43.5H0.969727ZM15.1487 40.1591V35.8636H17.893V43.5H15.2879V42.0483H15.2084C15.0426 42.5355 14.7526 42.9167 14.3383 43.1918C13.924 43.4635 13.4318 43.5994 12.8618 43.5994C12.3282 43.5994 11.8608 43.4768 11.4598 43.2315C11.0621 42.9863 10.7522 42.6482 10.5301 42.2173C10.3113 41.7865 10.2003 41.2926 10.197 40.7358V35.8636H12.9413V40.1591C12.9446 40.5369 13.0407 40.8336 13.2297 41.049C13.4219 41.2644 13.6904 41.3722 14.0351 41.3722C14.2638 41.3722 14.461 41.3241 14.6267 41.228C14.7957 41.1286 14.925 40.9893 15.0145 40.8104C15.1073 40.6281 15.152 40.411 15.1487 40.1591ZM19.2888 43.5V35.8636H21.9536V37.3153H22.0331C22.1723 36.7784 22.3927 36.3857 22.6943 36.1371C22.9993 35.8885 23.3556 35.7642 23.7632 35.7642C23.8825 35.7642 24.0002 35.7741 24.1162 35.794C24.2355 35.8106 24.3499 35.8355 24.4593 35.8686V38.2102C24.3234 38.1638 24.156 38.129 23.9571 38.1058C23.7583 38.0826 23.5876 38.071 23.445 38.071C23.1766 38.071 22.9346 38.1323 22.7192 38.255C22.5071 38.3743 22.3397 38.5433 22.2171 38.7621C22.0944 38.9775 22.0331 39.2311 22.0331 39.5227V43.5H19.2888ZM28.6006 43.6392C27.772 43.6392 27.0627 43.4751 26.4727 43.147C25.8828 42.8156 25.4304 42.3549 25.1155 41.7649C24.8006 41.1716 24.6432 40.4839 24.6432 39.7017C24.6432 38.9195 24.8006 38.2334 25.1155 37.6435C25.4304 37.0502 25.8828 36.5895 26.4727 36.2614C27.0627 35.9299 27.772 35.7642 28.6006 35.7642C29.3496 35.7642 29.9976 35.9001 30.5445 36.1719C31.0947 36.4403 31.5206 36.8215 31.8222 37.3153C32.1238 37.8059 32.2762 38.3826 32.2796 39.0455H29.7341C29.6977 38.6444 29.5816 38.3395 29.3861 38.1307C29.1939 37.9186 28.9453 37.8125 28.6404 37.8125C28.4017 37.8125 28.1929 37.8821 28.0139 38.0213C27.835 38.1572 27.6958 38.3643 27.5963 38.6428C27.4969 38.9179 27.4472 39.2642 27.4472 39.6818C27.4472 40.0994 27.4969 40.4474 27.5963 40.7259C27.6958 41.0009 27.835 41.2081 28.0139 41.3473C28.1929 41.4832 28.4017 41.5511 28.6404 41.5511C28.8425 41.5511 29.0215 41.5047 29.1773 41.4119C29.3331 41.3158 29.459 41.1766 29.5551 40.9943C29.6546 40.8087 29.7142 40.5833 29.7341 40.3182H32.2796C32.2696 40.991 32.1155 41.5777 31.8172 42.0781C31.5189 42.5753 31.0963 42.9598 30.5494 43.2315C30.0059 43.5033 29.3563 43.6392 28.6006 43.6392ZM36.1562 39.2045V43.5H33.4118V33.3182H36.0567V37.3153H36.1363C36.3086 36.8281 36.5953 36.4486 36.9964 36.1768C37.3974 35.9018 37.8796 35.7642 38.4431 35.7642C38.9833 35.7642 39.4523 35.8868 39.8501 36.1321C40.2511 36.3774 40.561 36.7154 40.7797 37.1463C41.0018 37.5772 41.1112 38.071 41.1079 38.6278V43.5H38.3635V39.2045C38.3669 38.8267 38.2724 38.5301 38.0802 38.3146C37.8912 38.0992 37.6211 37.9915 37.2698 37.9915C37.0477 37.9915 36.8522 38.0412 36.6831 38.1406C36.5174 38.2367 36.3882 38.3759 36.2954 38.5582C36.2059 38.7372 36.1595 38.9527 36.1562 39.2045ZM44.5905 43.6193C44.1032 43.6193 43.6724 43.5398 43.2979 43.3807C42.9266 43.2183 42.635 42.973 42.4229 42.6449C42.2107 42.3168 42.1047 41.8991 42.1047 41.392C42.1047 40.9744 42.1759 40.6181 42.3184 40.3232C42.461 40.0249 42.6598 39.7812 42.915 39.5923C43.1702 39.4034 43.4669 39.2592 43.805 39.1598C44.1463 39.0604 44.5142 38.9957 44.9086 38.9659C45.3362 38.9328 45.6792 38.893 45.9378 38.8466C46.1996 38.7969 46.3885 38.7289 46.5045 38.6428C46.6205 38.5533 46.6785 38.4356 46.6785 38.2898V38.2699C46.6785 38.071 46.6023 37.9186 46.4498 37.8125C46.2974 37.7064 46.1018 37.6534 45.8632 37.6534C45.6014 37.6534 45.3876 37.7114 45.2219 37.8274C45.0595 37.9401 44.9617 38.1141 44.9285 38.3494H42.403C42.4361 37.8854 42.5836 37.4579 42.8454 37.0668C43.1106 36.6723 43.4967 36.3575 44.0038 36.1222C44.5109 35.8835 45.144 35.7642 45.903 35.7642C46.4498 35.7642 46.9404 35.8288 47.3746 35.9581C47.8087 36.084 48.1783 36.2614 48.4832 36.4901C48.7881 36.7154 49.0202 36.9806 49.1792 37.2855C49.3416 37.5871 49.4229 37.9152 49.4229 38.2699V43.5H46.8575V42.4261H46.7979C46.6454 42.7112 46.4598 42.9415 46.241 43.1172C46.0256 43.2929 45.7787 43.4205 45.5003 43.5C45.2252 43.5795 44.9219 43.6193 44.5905 43.6193ZM45.4854 41.8892C45.6942 41.8892 45.8897 41.8461 46.072 41.7599C46.2576 41.6738 46.4084 41.5495 46.5244 41.3871C46.6404 41.2247 46.6984 41.0275 46.6984 40.7955V40.1591C46.6255 40.1889 46.5476 40.2171 46.4648 40.2436C46.3852 40.2701 46.299 40.295 46.2062 40.3182C46.1167 40.3414 46.0206 40.3629 45.9179 40.3828C45.8184 40.4027 45.714 40.4209 45.6047 40.4375C45.3925 40.4706 45.2185 40.5253 45.0827 40.6016C44.9501 40.6745 44.8506 40.7656 44.7844 40.875C44.7214 40.9811 44.6899 41.1004 44.6899 41.233C44.6899 41.4451 44.7645 41.6075 44.9136 41.7202C45.0628 41.8329 45.2533 41.8892 45.4854 41.8892ZM57.7142 38.3494H55.1887C55.1754 38.1937 55.1207 38.0594 55.0246 37.9467C54.9285 37.834 54.8042 37.7479 54.6517 37.6882C54.5026 37.6252 54.3369 37.5938 54.1546 37.5938C53.9192 37.5938 53.7171 37.6368 53.548 37.723C53.379 37.8092 53.2961 37.9318 53.2994 38.0909C53.2961 38.2036 53.3442 38.308 53.4436 38.4041C53.5464 38.5002 53.7436 38.5748 54.0352 38.6278L55.5864 38.9062C56.3686 39.0488 56.9503 39.2891 57.3314 39.6271C57.7159 39.9619 57.9098 40.411 57.9131 40.9744C57.9098 41.518 57.7474 41.9903 57.4259 42.3913C57.1077 42.7891 56.6718 43.0973 56.1183 43.3161C55.5682 43.5315 54.9401 43.6392 54.2341 43.6392C53.0674 43.6392 52.1543 43.4006 51.4948 42.9233C50.8385 42.446 50.4723 41.8163 50.396 41.0341H53.1205C53.1569 41.276 53.2762 41.4633 53.4784 41.5959C53.6839 41.7251 53.9424 41.7898 54.254 41.7898C54.5059 41.7898 54.713 41.7467 54.8754 41.6605C55.0412 41.5743 55.1257 41.4517 55.129 41.2926C55.1257 41.1468 55.0528 41.0308 54.9102 40.9446C54.771 40.8584 54.5523 40.7888 54.254 40.7358L52.9017 40.4972C52.1228 40.3613 51.5395 40.1027 51.1517 39.7216C50.7639 39.3404 50.5717 38.8499 50.575 38.25C50.5717 37.7197 50.7109 37.2706 50.9926 36.9027C51.2777 36.5315 51.6837 36.2498 52.2107 36.0575C52.741 35.862 53.3691 35.7642 54.0949 35.7642C55.1986 35.7642 56.0686 35.9929 56.705 36.4503C57.3447 36.9077 57.6811 37.5407 57.7142 38.3494ZM62.6237 43.6392C61.8083 43.6392 61.1057 43.4834 60.5157 43.1719C59.9291 42.857 59.4767 42.4062 59.1585 41.8196C58.8436 41.2296 58.6862 40.5237 58.6862 39.7017C58.6862 38.9129 58.8453 38.2235 59.1634 37.6335C59.4816 37.0436 59.9307 36.5845 60.5107 36.2564C61.0908 35.9283 61.7752 35.7642 62.564 35.7642C63.1407 35.7642 63.6627 35.8537 64.1301 36.0327C64.5974 36.2116 64.9968 36.4718 65.3282 36.8132C65.6597 37.1513 65.9149 37.5623 66.0938 38.0462C66.2728 38.5301 66.3623 39.0753 66.3623 39.6818V40.3182H59.5413V38.8068H63.8367C63.8334 38.5881 63.7771 38.3958 63.6677 38.2301C63.5616 38.0611 63.4175 37.9302 63.2352 37.8374C63.0562 37.7412 62.8524 37.6932 62.6237 37.6932C62.4016 37.6932 62.1978 37.7412 62.0122 37.8374C61.8266 37.9302 61.6774 38.0594 61.5647 38.2251C61.4553 38.3909 61.3973 38.5848 61.3907 38.8068V40.4375C61.3907 40.6828 61.4421 40.9015 61.5448 41.0938C61.6476 41.286 61.7951 41.4368 61.9873 41.5462C62.1795 41.6555 62.4115 41.7102 62.6833 41.7102C62.8722 41.7102 63.0446 41.6837 63.2004 41.6307C63.3595 41.5777 63.4954 41.5014 63.608 41.402C63.7207 41.2992 63.8036 41.1766 63.8566 41.0341H66.3623C66.2761 41.5644 66.0723 42.0251 65.7508 42.4162C65.4293 42.804 65.0034 43.1056 64.4731 43.321C63.9461 43.5331 63.3296 43.6392 62.6237 43.6392ZM74.1491 43.5H70.2314V33.3182H74.1093C75.1566 33.3182 76.0615 33.522 76.8238 33.9297C77.5894 34.334 78.1794 34.9174 78.5937 35.6797C79.0113 36.4387 79.2201 37.3485 79.2201 38.4091C79.2201 39.4697 79.0129 40.3812 78.5986 41.1435C78.1843 41.9025 77.5977 42.4858 76.8387 42.8935C76.0797 43.2978 75.1831 43.5 74.1491 43.5ZM72.9956 41.1534H74.0496C74.5534 41.1534 74.9826 41.0722 75.3373 40.9098C75.6952 40.7474 75.967 40.4673 76.1526 40.0696C76.3415 39.6719 76.436 39.1184 76.436 38.4091C76.436 37.6998 76.3399 37.1463 76.1476 36.7486C75.9587 36.3509 75.6803 36.0708 75.3124 35.9084C74.9478 35.746 74.5004 35.6648 73.9701 35.6648H72.9956V41.1534ZM84.1979 43.6392C83.3825 43.6392 82.6799 43.4834 82.0899 43.1719C81.5033 42.857 81.0509 42.4062 80.7327 41.8196C80.4178 41.2296 80.2604 40.5237 80.2604 39.7017C80.2604 38.9129 80.4195 38.2235 80.7377 37.6335C81.0558 37.0436 81.5049 36.5845 82.085 36.2564C82.665 35.9283 83.3494 35.7642 84.1382 35.7642C84.7149 35.7642 85.2369 35.8537 85.7043 36.0327C86.1716 36.2116 86.571 36.4718 86.9024 36.8132C87.2339 37.1513 87.4891 37.5623 87.6681 38.0462C87.847 38.5301 87.9365 39.0753 87.9365 39.6818V40.3182H81.1155V38.8068H85.411C85.4076 38.5881 85.3513 38.3958 85.2419 38.2301C85.1359 38.0611 84.9917 37.9302 84.8094 37.8374C84.6304 37.7412 84.4266 37.6932 84.1979 37.6932C83.9758 37.6932 83.772 37.7412 83.5864 37.8374C83.4008 37.9302 83.2516 38.0594 83.1389 38.2251C83.0296 38.3909 82.9716 38.5848 82.9649 38.8068V40.4375C82.9649 40.6828 83.0163 40.9015 83.1191 41.0938C83.2218 41.286 83.3693 41.4368 83.5615 41.5462C83.7538 41.6555 83.9858 41.7102 84.2575 41.7102C84.4465 41.7102 84.6188 41.6837 84.7746 41.6307C84.9337 41.5777 85.0696 41.5014 85.1823 41.402C85.295 41.2992 85.3778 41.1766 85.4308 41.0341H87.9365C87.8503 41.5644 87.6465 42.0251 87.325 42.4162C87.0035 42.804 86.5776 43.1056 86.0473 43.321C85.5203 43.5331 84.9039 43.6392 84.1979 43.6392ZM96.0365 38.3494H93.5109C93.4977 38.1937 93.443 38.0594 93.3469 37.9467C93.2507 37.834 93.1265 37.7479 92.974 37.6882C92.8248 37.6252 92.6591 37.5938 92.4768 37.5938C92.2415 37.5938 92.0393 37.6368 91.8703 37.723C91.7013 37.8092 91.6184 37.9318 91.6217 38.0909C91.6184 38.2036 91.6665 38.308 91.7659 38.4041C91.8686 38.5002 92.0658 38.5748 92.3575 38.6278L93.9086 38.9062C94.6908 39.0488 95.2725 39.2891 95.6537 39.6271C96.0381 39.9619 96.232 40.411 96.2354 40.9744C96.232 41.518 96.0696 41.9903 95.7481 42.3913C95.43 42.7891 94.9941 43.0973 94.4406 43.3161C93.8904 43.5315 93.2623 43.6392 92.5564 43.6392C91.3897 43.6392 90.4766 43.4006 89.817 42.9233C89.1608 42.446 88.7945 41.8163 88.7183 41.0341H91.4427C91.4792 41.276 91.5985 41.4633 91.8007 41.5959C92.0062 41.7251 92.2647 41.7898 92.5763 41.7898C92.8282 41.7898 93.0353 41.7467 93.1977 41.6605C93.3634 41.5743 93.4479 41.4517 93.4513 41.2926C93.4479 41.1468 93.375 41.0308 93.2325 40.9446C93.0933 40.8584 92.8746 40.7888 92.5763 40.7358L91.224 40.4972C90.4451 40.3613 89.8618 40.1027 89.474 39.7216C89.0862 39.3404 88.894 38.8499 88.8973 38.25C88.894 37.7197 89.0332 37.2706 89.3149 36.9027C89.5999 36.5315 90.0059 36.2498 90.5329 36.0575C91.0632 35.862 91.6913 35.7642 92.4172 35.7642C93.5209 35.7642 94.3909 35.9929 95.0273 36.4503C95.6669 36.9077 96.0033 37.5407 96.0365 38.3494ZM97.2868 43.5V35.8636H100.031V43.5H97.2868ZM98.659 35.0682C98.2878 35.0682 97.9696 34.9455 97.7045 34.7003C97.4393 34.455 97.3067 34.16 97.3067 33.8153C97.3067 33.4706 97.4393 33.1757 97.7045 32.9304C97.9696 32.6851 98.2878 32.5625 98.659 32.5625C99.0335 32.5625 99.3517 32.6851 99.6135 32.9304C99.8787 33.1757 100.011 33.4706 100.011 33.8153C100.011 34.16 99.8787 34.455 99.6135 34.7003C99.3517 34.9455 99.0335 35.0682 98.659 35.0682ZM101.429 43.5V35.8636H104.094V37.3153H104.174C104.313 36.7784 104.533 36.3857 104.835 36.1371C105.14 35.8885 105.496 35.7642 105.904 35.7642C106.023 35.7642 106.141 35.7741 106.257 35.794C106.376 35.8106 106.491 35.8355 106.6 35.8686V38.2102C106.464 38.1638 106.297 38.129 106.098 38.1058C105.899 38.0826 105.728 38.071 105.586 38.071C105.317 38.071 105.075 38.1323 104.86 38.255C104.648 38.3743 104.48 38.5433 104.358 38.7621C104.235 38.9775 104.174 39.2311 104.174 39.5227V43.5H101.429ZM110.721 43.6392C109.906 43.6392 109.203 43.4834 108.613 43.1719C108.027 42.857 107.574 42.4062 107.256 41.8196C106.941 41.2296 106.784 40.5237 106.784 39.7017C106.784 38.9129 106.943 38.2235 107.261 37.6335C107.579 37.0436 108.028 36.5845 108.608 36.2564C109.188 35.9283 109.873 35.7642 110.662 35.7642C111.238 35.7642 111.76 35.8537 112.228 36.0327C112.695 36.2116 113.094 36.4718 113.426 36.8132C113.757 37.1513 114.013 37.5623 114.191 38.0462C114.37 38.5301 114.46 39.0753 114.46 39.6818V40.3182H107.639V38.8068H111.934C111.931 38.5881 111.875 38.3958 111.765 38.2301C111.659 38.0611 111.515 37.9302 111.333 37.8374C111.154 37.7412 110.95 37.6932 110.721 37.6932C110.499 37.6932 110.295 37.7412 110.11 37.8374C109.924 37.9302 109.775 38.0594 109.662 38.2251C109.553 38.3909 109.495 38.5848 109.488 38.8068V40.4375C109.488 40.6828 109.54 40.9015 109.642 41.0938C109.745 41.286 109.893 41.4368 110.085 41.5462C110.277 41.6555 110.509 41.7102 110.781 41.7102C110.97 41.7102 111.142 41.6837 111.298 41.6307C111.457 41.5777 111.593 41.5014 111.706 41.402C111.818 41.2992 111.901 41.1766 111.954 41.0341H114.46C114.374 41.5644 114.17 42.0251 113.848 42.4162C113.527 42.804 113.101 43.1056 112.571 43.321C112.044 43.5331 111.427 43.6392 110.721 43.6392ZM118.344 43.5994C117.8 43.5994 117.3 43.4569 116.843 43.1719C116.389 42.8868 116.024 42.4543 115.749 41.8743C115.477 41.2943 115.341 40.5634 115.341 39.6818C115.341 38.7604 115.484 38.0114 115.769 37.4347C116.057 36.858 116.428 36.4354 116.882 36.1669C117.34 35.8984 117.82 35.7642 118.324 35.7642C118.702 35.7642 119.033 35.8305 119.318 35.9631C119.603 36.0923 119.842 36.2663 120.034 36.4851C120.227 36.7005 120.372 36.9375 120.472 37.196H120.512V33.3182H123.256V43.5H120.532V42.2472H120.472C120.366 42.5057 120.213 42.7377 120.014 42.9432C119.819 43.1454 119.58 43.3061 119.299 43.4254C119.02 43.5414 118.702 43.5994 118.344 43.5994ZM119.358 41.4915C119.61 41.4915 119.826 41.4186 120.005 41.2727C120.187 41.1236 120.326 40.9148 120.422 40.6463C120.522 40.3745 120.571 40.053 120.571 39.6818C120.571 39.304 120.522 38.9808 120.422 38.7124C120.326 38.4406 120.187 38.2334 120.005 38.0909C119.826 37.9451 119.61 37.8722 119.358 37.8722C119.106 37.8722 118.891 37.9451 118.712 38.0909C118.536 38.2334 118.4 38.4406 118.304 38.7124C118.211 38.9808 118.165 39.304 118.165 39.6818C118.165 40.0597 118.211 40.3845 118.304 40.6562C118.4 40.9247 118.536 41.1319 118.712 41.2777C118.891 41.4202 119.106 41.4915 119.358 41.4915ZM131.29 43.5L132.96 33.3182H134.949L133.279 43.5H131.29ZM126.776 41.1733L127.114 39.1847H135.307L134.969 41.1733H126.776ZM127.71 43.5L129.381 33.3182H131.37L129.699 43.5H127.71ZM127.353 37.6335L127.691 35.6449H135.884L135.546 37.6335H127.353ZM143.13 43.6392C142.301 43.6392 141.592 43.4751 141.002 43.147C140.412 42.8156 139.96 42.3549 139.645 41.7649C139.33 41.1716 139.172 40.4839 139.172 39.7017C139.172 38.9195 139.33 38.2334 139.645 37.6435C139.96 37.0502 140.412 36.5895 141.002 36.2614C141.592 35.9299 142.301 35.7642 143.13 35.7642C143.958 35.7642 144.668 35.9299 145.258 36.2614C145.848 36.5895 146.3 37.0502 146.615 37.6435C146.93 38.2334 147.087 38.9195 147.087 39.7017C147.087 40.4839 146.93 41.1716 146.615 41.7649C146.3 42.3549 145.848 42.8156 145.258 43.147C144.668 43.4751 143.958 43.6392 143.13 43.6392ZM143.15 41.6108C143.382 41.6108 143.582 41.5329 143.751 41.3771C143.92 41.2214 144.051 40.9993 144.144 40.7109C144.237 40.4226 144.283 40.0795 144.283 39.6818C144.283 39.2808 144.237 38.9377 144.144 38.6527C144.051 38.3643 143.92 38.1423 143.751 37.9865C143.582 37.8307 143.382 37.7528 143.15 37.7528C142.905 37.7528 142.694 37.8307 142.518 37.9865C142.343 38.1423 142.208 38.3643 142.116 38.6527C142.023 38.9377 141.976 39.2808 141.976 39.6818C141.976 40.0795 142.023 40.4226 142.116 40.7109C142.208 40.9993 142.343 41.2214 142.518 41.3771C142.694 41.5329 142.905 41.6108 143.15 41.6108ZM152.775 35.8636V37.8523H147.664V35.8636H152.775ZM148.638 43.5V35.6449C148.638 35.0152 148.751 34.4931 148.976 34.0788C149.202 33.6645 149.52 33.3546 149.931 33.1491C150.342 32.9437 150.826 32.8409 151.383 32.8409C151.731 32.8409 152.069 32.8674 152.397 32.9205C152.728 32.9735 152.974 33.0199 153.133 33.0597L152.735 35.0284C152.636 34.9986 152.52 34.9754 152.387 34.9588C152.254 34.9389 152.138 34.929 152.039 34.929C151.78 34.929 151.606 34.9837 151.517 35.093C151.427 35.2024 151.383 35.3466 151.383 35.5256V43.5H148.638ZM156.305 35.5455V33.3182H165.154V35.5455H162.092V43.5H159.367V35.5455H156.305ZM166.234 43.5V35.8636H168.978V43.5H166.234ZM167.606 35.0682C167.235 35.0682 166.917 34.9455 166.652 34.7003C166.387 34.455 166.254 34.16 166.254 33.8153C166.254 33.4706 166.387 33.1757 166.652 32.9304C166.917 32.6851 167.235 32.5625 167.606 32.5625C167.981 32.5625 168.299 32.6851 168.561 32.9304C168.826 33.1757 168.959 33.4706 168.959 33.8153C168.959 34.16 168.826 34.455 168.561 34.7003C168.299 34.9455 167.981 35.0682 167.606 35.0682ZM174.056 43.6392C173.227 43.6392 172.518 43.4751 171.928 43.147C171.338 42.8156 170.885 42.3549 170.571 41.7649C170.256 41.1716 170.098 40.4839 170.098 39.7017C170.098 38.9195 170.256 38.2334 170.571 37.6435C170.885 37.0502 171.338 36.5895 171.928 36.2614C172.518 35.9299 173.227 35.7642 174.056 35.7642C174.805 35.7642 175.453 35.9001 176 36.1719C176.55 36.4403 176.976 36.8215 177.277 37.3153C177.579 37.8059 177.731 38.3826 177.735 39.0455H175.189C175.153 38.6444 175.037 38.3395 174.841 38.1307C174.649 37.9186 174.4 37.8125 174.095 37.8125C173.857 37.8125 173.648 37.8821 173.469 38.0213C173.29 38.1572 173.151 38.3643 173.051 38.6428C172.952 38.9179 172.902 39.2642 172.902 39.6818C172.902 40.0994 172.952 40.4474 173.051 40.7259C173.151 41.0009 173.29 41.2081 173.469 41.3473C173.648 41.4832 173.857 41.5511 174.095 41.5511C174.298 41.5511 174.477 41.5047 174.632 41.4119C174.788 41.3158 174.914 41.1766 175.01 40.9943C175.11 40.8087 175.169 40.5833 175.189 40.3182H177.735C177.725 40.991 177.571 41.5777 177.272 42.0781C176.974 42.5753 176.551 42.9598 176.005 43.2315C175.461 43.5033 174.811 43.6392 174.056 43.6392ZM181.333 41.6903L181.353 38.429H181.711L183.56 35.8636H186.642L183.54 39.8608H182.765L181.333 41.6903ZM178.867 43.5V33.3182H181.611V43.5H178.867ZM183.58 43.5L181.83 40.4773L183.62 38.5284L186.722 43.5H183.58ZM190.702 43.6392C189.886 43.6392 189.184 43.4834 188.594 43.1719C188.007 42.857 187.555 42.4062 187.237 41.8196C186.922 41.2296 186.764 40.5237 186.764 39.7017C186.764 38.9129 186.923 38.2235 187.242 37.6335C187.56 37.0436 188.009 36.5845 188.589 36.2564C189.169 35.9283 189.853 35.7642 190.642 35.7642C191.219 35.7642 191.741 35.8537 192.208 36.0327C192.676 36.2116 193.075 36.4718 193.406 36.8132C193.738 37.1513 193.993 37.5623 194.172 38.0462C194.351 38.5301 194.44 39.0753 194.44 39.6818V40.3182H187.619V38.8068H191.915C191.912 38.5881 191.855 38.3958 191.746 38.2301C191.64 38.0611 191.496 37.9302 191.313 37.8374C191.134 37.7412 190.93 37.6932 190.702 37.6932C190.48 37.6932 190.276 37.7412 190.09 37.8374C189.905 37.9302 189.756 38.0594 189.643 38.2251C189.533 38.3909 189.475 38.5848 189.469 38.8068V40.4375C189.469 40.6828 189.52 40.9015 189.623 41.0938C189.726 41.286 189.873 41.4368 190.065 41.5462C190.258 41.6555 190.49 41.7102 190.761 41.7102C190.95 41.7102 191.123 41.6837 191.278 41.6307C191.438 41.5777 191.573 41.5014 191.686 41.402C191.799 41.2992 191.882 41.1766 191.935 41.0341H194.44C194.354 41.5644 194.15 42.0251 193.829 42.4162C193.507 42.804 193.082 43.1056 192.551 43.321C192.024 43.5331 191.408 43.6392 190.702 43.6392ZM200.114 35.8636V37.8523H195.083V35.8636H200.114ZM196.057 34.0341H198.802V41.044C198.802 41.1501 198.82 41.2396 198.856 41.3125C198.893 41.3821 198.949 41.4351 199.025 41.4716C199.102 41.5047 199.199 41.5213 199.319 41.5213C199.402 41.5213 199.498 41.5114 199.607 41.4915C199.72 41.4716 199.803 41.455 199.856 41.4418L200.253 43.3707C200.131 43.4072 199.955 43.4519 199.726 43.505C199.501 43.558 199.233 43.5928 198.921 43.6094C198.291 43.6425 197.763 43.5779 197.335 43.4155C196.908 43.2498 196.586 42.9896 196.371 42.6349C196.155 42.2803 196.051 41.8362 196.057 41.3026V34.0341ZM208.132 38.3494H205.607C205.593 38.1937 205.539 38.0594 205.443 37.9467C205.346 37.834 205.222 37.7479 205.07 37.6882C204.921 37.6252 204.755 37.5938 204.573 37.5938C204.337 37.5938 204.135 37.6368 203.966 37.723C203.797 37.8092 203.714 37.9318 203.717 38.0909C203.714 38.2036 203.762 38.308 203.862 38.4041C203.964 38.5002 204.162 38.5748 204.453 38.6278L206.004 38.9062C206.787 39.0488 207.368 39.2891 207.749 39.6271C208.134 39.9619 208.328 40.411 208.331 40.9744C208.328 41.518 208.165 41.9903 207.844 42.3913C207.526 42.7891 207.09 43.0973 206.536 43.3161C205.986 43.5315 205.358 43.6392 204.652 43.6392C203.485 43.6392 202.572 43.4006 201.913 42.9233C201.256 42.446 200.89 41.8163 200.814 41.0341H203.538C203.575 41.276 203.694 41.4633 203.896 41.5959C204.102 41.7251 204.36 41.7898 204.672 41.7898C204.924 41.7898 205.131 41.7467 205.293 41.6605C205.459 41.5743 205.544 41.4517 205.547 41.2926C205.544 41.1468 205.471 41.0308 205.328 40.9446C205.189 40.8584 204.97 40.7888 204.672 40.7358L203.32 40.4972C202.541 40.3613 201.957 40.1027 201.57 39.7216C201.182 39.3404 200.99 38.8499 200.993 38.25C200.99 37.7197 201.129 37.2706 201.411 36.9027C201.696 36.5315 202.102 36.2498 202.629 36.0575C203.159 35.862 203.787 35.7642 204.513 35.7642C205.617 35.7642 206.487 35.9929 207.123 36.4503C207.763 36.9077 208.099 37.5407 208.132 38.3494Z"
    fill="white" />
</svg>