<svg width="127" height="50" viewBox="0 0 127 50" fill="none" xmlns="http://www.w3.org/2000/svg">
  <path
    d="M45.8915 9.21378C45.9426 8.38281 45.7168 7.71591 45.214 7.21307C44.7154 6.70597 43.9952 6.45241 43.0534 6.45241C42.4142 6.45241 41.8283 6.5696 41.2956 6.80398C40.763 7.03835 40.3198 7.36009 39.9661 7.76918C39.6167 8.17401 39.3972 8.63636 39.3077 9.15625C39.2523 9.4929 39.2672 9.79758 39.3525 10.0703C39.4419 10.3388 39.589 10.5774 39.7935 10.7862C39.998 10.995 40.2516 11.1804 40.5542 11.3423C40.8567 11.5 41.1955 11.6385 41.5705 11.7578L42.932 12.1797C43.3965 12.3288 43.8205 12.5014 44.204 12.6974C44.5918 12.8935 44.9178 13.1278 45.182 13.4006C45.4462 13.669 45.6337 13.9844 45.7445 14.3466C45.8596 14.7088 45.8766 15.1264 45.7956 15.5994C45.6806 16.3026 45.4036 16.9268 44.9647 17.4723C44.5257 18.0178 43.9569 18.4439 43.258 18.7507C42.5591 19.0575 41.7537 19.2109 40.8418 19.2109C40.0023 19.2109 39.2907 19.0682 38.7069 18.7827C38.1273 18.4972 37.699 18.1009 37.4221 17.5938C37.1451 17.0824 37.0385 16.4943 37.1025 15.8295H37.9206C37.8738 16.3707 37.9696 16.8395 38.2083 17.2358C38.4469 17.6278 38.8027 17.9304 39.2757 18.1435C39.753 18.3565 40.3176 18.4631 40.9696 18.4631C41.677 18.4631 42.3162 18.3416 42.8873 18.0987C43.4625 17.8558 43.9355 17.5192 44.3063 17.0888C44.6813 16.6584 44.9157 16.1598 45.0094 15.593C45.0861 15.1328 45.0435 14.7365 44.8816 14.4041C44.7196 14.0717 44.4448 13.7862 44.057 13.5476C43.6735 13.3047 43.1855 13.0916 42.5932 12.9084L41.123 12.4482C40.1515 12.1371 39.4419 11.7152 38.9945 11.1825C38.5471 10.6456 38.3873 9.97869 38.5151 9.18182C38.6344 8.49574 38.9135 7.89276 39.3525 7.37287C39.7914 6.85298 40.3432 6.44602 41.008 6.15199C41.6728 5.85795 42.3972 5.71094 43.1813 5.71094C43.9611 5.71094 44.6238 5.86222 45.1692 6.16477C45.7189 6.46307 46.1238 6.87642 46.3837 7.40483C46.6479 7.93324 46.7438 8.53622 46.6713 9.21378H45.8915ZM53.2168 9.18182L53.0953 9.87855H48.8127L48.9277 9.18182H53.2168ZM50.7623 6.82955H51.5357L49.9121 16.6797C49.8439 17.0803 49.8652 17.4084 49.976 17.6641C50.0911 17.9155 50.2637 18.103 50.4938 18.2266C50.7282 18.3459 50.9945 18.4055 51.2928 18.4055C51.4249 18.4055 51.5442 18.3949 51.6507 18.3736C51.7573 18.348 51.8638 18.3203 51.9703 18.2905L52.0407 19C51.9086 19.0469 51.7679 19.0852 51.6188 19.1151C51.4696 19.1449 51.2971 19.1598 51.101 19.1598C50.6919 19.1598 50.3212 19.0682 49.9888 18.8849C49.6607 18.7017 49.4114 18.4354 49.2409 18.0859C49.0748 17.7365 49.0343 17.3146 49.1195 16.8203L50.7623 6.82955ZM58.1706 19.2045C57.2843 19.2045 56.5492 18.9851 55.9654 18.5462C55.3816 18.1072 54.9746 17.5064 54.7445 16.7436C54.5144 15.9808 54.4803 15.1115 54.6422 14.1357C54.8042 13.1555 55.128 12.282 55.6138 11.5149C56.0996 10.7479 56.6941 10.1428 57.3972 9.69957C58.1003 9.25639 58.8588 9.0348 59.6728 9.0348C60.2225 9.0348 60.7232 9.1456 61.1749 9.36719C61.6309 9.58878 62.0144 9.90625 62.3255 10.3196C62.6365 10.7287 62.8517 11.2251 62.9711 11.8089C63.0904 12.3928 63.0904 13.049 62.9711 13.7777L62.8816 14.2635H55.1088L55.2303 13.554H62.2168C62.3361 12.8466 62.302 12.2074 62.1145 11.6364C61.927 11.0611 61.6159 10.6051 61.1813 10.2685C60.7509 9.93182 60.2225 9.76349 59.5961 9.76349C58.9569 9.76349 58.3475 9.94886 57.7679 10.3196C57.1926 10.6861 56.6983 11.1761 56.285 11.7898C55.8759 12.4034 55.6032 13.0788 55.4668 13.8161L55.3901 14.2124C55.2537 15.0561 55.2708 15.7997 55.4412 16.4432C55.6159 17.0824 55.9398 17.5831 56.4128 17.9453C56.8858 18.3033 57.5037 18.4822 58.2665 18.4822C58.7992 18.4822 59.2722 18.3928 59.6855 18.2138C60.1032 18.0305 60.4569 17.8089 60.7466 17.549C61.0407 17.2891 61.2708 17.0376 61.437 16.7947L62.0826 17.0824C61.8865 17.4105 61.6053 17.7386 61.2388 18.0668C60.8723 18.3906 60.4313 18.6612 59.9157 18.8786C59.4 19.0959 58.8184 19.2045 58.1706 19.2045ZM64.1903 22.6818L66.4403 9.18182H67.201L66.843 11.3743H66.9389C67.1605 10.9524 67.4375 10.5646 67.7699 10.2109C68.1065 9.85724 68.5007 9.57386 68.9524 9.3608C69.4084 9.14347 69.9176 9.0348 70.4801 9.0348C71.2727 9.0348 71.9268 9.25213 72.4425 9.68679C72.9581 10.1214 73.3139 10.7202 73.5099 11.483C73.706 12.2457 73.723 13.1236 73.5611 14.1165C73.3949 15.1051 73.0838 15.983 72.6278 16.75C72.1761 17.5128 71.6222 18.1136 70.9659 18.5526C70.3097 18.9872 69.5895 19.2045 68.8054 19.2045C68.2472 19.2045 67.7741 19.098 67.3864 18.8849C67.0028 18.6719 66.7003 18.3885 66.4787 18.0348C66.2571 17.6768 66.1037 17.2848 66.0185 16.8587H65.9418L64.9702 22.6818H64.1903ZM66.3892 14.1101C66.2528 14.9453 66.2528 15.6932 66.3892 16.3537C66.5298 17.0099 66.8026 17.5298 67.2074 17.9134C67.6165 18.2926 68.1513 18.4822 68.8118 18.4822C69.4808 18.4822 70.0881 18.2905 70.6335 17.907C71.1832 17.5192 71.6435 16.995 72.0142 16.3345C72.3892 15.674 72.6449 14.9325 72.7812 14.1101C72.9176 13.2876 72.9176 12.5483 72.7812 11.892C72.6449 11.2358 72.3743 10.718 71.9695 10.3388C71.5646 9.95526 71.0234 9.76349 70.3459 9.76349C69.6811 9.76349 69.0739 9.95312 68.5241 10.3324C67.9744 10.7074 67.5142 11.223 67.1435 11.8793C66.777 12.5312 66.5256 13.2749 66.3892 14.1101ZM84.5154 19.179C83.7399 19.179 83.0687 19.032 82.502 18.7379C81.9352 18.4439 81.5133 18.0369 81.2363 17.517C80.9636 16.9972 80.8805 16.4006 80.987 15.7273H81.786C81.7093 16.2599 81.7754 16.7308 81.9842 17.1399C82.193 17.5447 82.5147 17.8622 82.9494 18.0923C83.3883 18.3224 83.9125 18.4375 84.5218 18.4375C85.1653 18.4375 85.7619 18.3097 86.3116 18.054C86.8613 17.7983 87.3173 17.451 87.6795 17.0121C88.0417 16.5689 88.2676 16.0703 88.3571 15.5163C88.4466 14.9411 88.3784 14.4382 88.1525 14.0078C87.9267 13.5774 87.5666 13.2408 87.0723 12.9979C86.5779 12.755 85.9728 12.6335 85.2569 12.6335H84.7583L84.8734 11.892H85.34C85.9494 11.892 86.5162 11.7791 87.0403 11.5533C87.5645 11.3232 88.0012 11.0014 88.3507 10.5881C88.7001 10.1747 88.9174 9.68679 89.0027 9.12429C89.0922 8.60866 89.0581 8.15057 88.9004 7.75C88.7427 7.34943 88.4743 7.03622 88.095 6.81037C87.72 6.58026 87.2449 6.4652 86.6696 6.4652C86.1113 6.4652 85.5808 6.57812 85.0779 6.80398C84.5794 7.02983 84.1575 7.3473 83.8123 7.75639C83.4672 8.16548 83.2498 8.64062 83.1603 9.18182H82.3741C82.4934 8.50426 82.7598 7.90767 83.1731 7.39205C83.5865 6.87216 84.0978 6.4652 84.7072 6.17116C85.3208 5.87713 85.9771 5.73011 86.676 5.73011C87.4132 5.73011 88.0311 5.88352 88.5297 6.19034C89.0325 6.49716 89.3926 6.91051 89.6099 7.4304C89.8315 7.95028 89.889 8.5277 89.7825 9.16264C89.6674 9.9169 89.3521 10.5604 88.8365 11.093C88.3208 11.6214 87.6902 11.9922 86.9444 12.2053V12.2692C87.7583 12.4609 88.3613 12.8551 88.7534 13.4517C89.1497 14.044 89.2797 14.7536 89.1433 15.5803C89.0282 16.2791 88.7555 16.8991 88.3251 17.4403C87.8947 17.9815 87.3514 18.4077 86.6951 18.7188C86.0389 19.0256 85.3123 19.179 84.5154 19.179Z"
    fill="white" />
  <path
    d="M1.11834 43V32.8182H7.97914V34.593H3.27104V37.0192H7.62615V38.794H3.27104V41.2251H7.99902V43H1.11834ZM11.7687 38.5852V43H9.65083V35.3636H11.6693V36.7109H11.7588C11.9278 36.2668 12.2112 35.9155 12.6089 35.657C13.0067 35.3951 13.4889 35.2642 14.0557 35.2642C14.586 35.2642 15.0483 35.3802 15.4427 35.6122C15.8372 35.8442 16.1437 36.1757 16.3625 36.6065C16.5812 37.0341 16.6906 37.5445 16.6906 38.1378V43H14.5727V38.5156C14.576 38.0483 14.4567 37.6837 14.2148 37.4219C13.9728 37.1567 13.6397 37.0241 13.2155 37.0241C12.9304 37.0241 12.6785 37.0855 12.4598 37.2081C12.2443 37.3307 12.0753 37.5097 11.9527 37.745C11.8334 37.977 11.772 38.2571 11.7687 38.5852ZM18.3598 35.3636H20.4777V43.3778C20.4777 43.9678 20.3617 44.4451 20.1297 44.8097C19.8977 45.1742 19.5646 45.4411 19.1304 45.6101C18.6995 45.7791 18.1842 45.8636 17.5843 45.8636C17.5113 45.8636 17.4417 45.862 17.3754 45.8587C17.3058 45.8587 17.2329 45.857 17.1567 45.8537V44.1982C17.213 44.2015 17.2628 44.2031 17.3058 44.2031C17.3456 44.2064 17.3887 44.2081 17.4351 44.2081C17.7765 44.2081 18.0151 44.1352 18.151 43.9893C18.2902 43.8468 18.3598 43.6314 18.3598 43.343V35.3636ZM19.4138 34.3793C19.1022 34.3793 18.8338 34.2749 18.6084 34.0661C18.383 33.8539 18.2703 33.6004 18.2703 33.3054C18.2703 33.0137 18.383 32.7635 18.6084 32.5547C18.8338 32.3426 19.1022 32.2365 19.4138 32.2365C19.732 32.2365 20.0021 32.3426 20.2242 32.5547C20.4495 32.7635 20.5622 33.0137 20.5622 33.3054C20.5622 33.6004 20.4495 33.8539 20.2242 34.0661C20.0021 34.2749 19.732 34.3793 19.4138 34.3793ZM25.6246 43.1491C24.8523 43.1491 24.1845 42.9851 23.621 42.657C23.0609 42.3255 22.6283 41.8648 22.3234 41.2749C22.0185 40.6816 21.866 39.9938 21.866 39.2116C21.866 38.4228 22.0185 37.7334 22.3234 37.1435C22.6283 36.5502 23.0609 36.0895 23.621 35.7614C24.1845 35.4299 24.8523 35.2642 25.6246 35.2642C26.3968 35.2642 27.063 35.4299 27.6231 35.7614C28.1866 36.0895 28.6208 36.5502 28.9257 37.1435C29.2306 37.7334 29.3831 38.4228 29.3831 39.2116C29.3831 39.9938 29.2306 40.6816 28.9257 41.2749C28.6208 41.8648 28.1866 42.3255 27.6231 42.657C27.063 42.9851 26.3968 43.1491 25.6246 43.1491ZM25.6345 41.5085C25.9858 41.5085 26.2791 41.4091 26.5145 41.2102C26.7498 41.008 26.9271 40.733 27.0464 40.3849C27.1691 40.0369 27.2304 39.6409 27.2304 39.1967C27.2304 38.7526 27.1691 38.3565 27.0464 38.0085C26.9271 37.6605 26.7498 37.3854 26.5145 37.1832C26.2791 36.9811 25.9858 36.88 25.6345 36.88C25.2799 36.88 24.9816 36.9811 24.7396 37.1832C24.501 37.3854 24.3203 37.6605 24.1977 38.0085C24.0784 38.3565 24.0187 38.7526 24.0187 39.1967C24.0187 39.6409 24.0784 40.0369 24.1977 40.3849C24.3203 40.733 24.501 41.008 24.7396 41.2102C24.9816 41.4091 25.2799 41.5085 25.6345 41.5085ZM31.8216 45.8636C31.5532 45.8636 31.3013 45.8421 31.066 45.799C30.834 45.7592 30.6417 45.7079 30.4893 45.6449L30.9665 44.0639C31.2151 44.1402 31.4388 44.1816 31.6377 44.1882C31.8399 44.1948 32.0139 44.1484 32.1597 44.049C32.3089 43.9496 32.4298 43.7805 32.5226 43.5419L32.6469 43.2188L29.9076 35.3636H32.1349L33.7158 40.9716H33.7954L35.3912 35.3636H37.6334L34.6654 43.8253C34.5229 44.2363 34.329 44.5942 34.0837 44.8991C33.8418 45.2074 33.5352 45.4444 33.164 45.6101C32.7928 45.7791 32.3453 45.8636 31.8216 45.8636ZM41.9972 43V32.8182H44.1499V37.0192H48.52V32.8182H50.6677V43H48.52V38.794H44.1499V43H41.9972ZM52.4028 43V35.3636H54.5207V43H52.4028ZM53.4667 34.3793C53.1518 34.3793 52.8817 34.2749 52.6563 34.0661C52.4343 33.8539 52.3232 33.6004 52.3232 33.3054C52.3232 33.0137 52.4343 32.7635 52.6563 32.5547C52.8817 32.3426 53.1518 32.2365 53.4667 32.2365C53.7816 32.2365 54.05 32.3426 54.2721 32.5547C54.4975 32.7635 54.6102 33.0137 54.6102 33.3054C54.6102 33.6004 54.4975 33.8539 54.2721 34.0661C54.05 34.2749 53.7816 34.3793 53.4667 34.3793ZM59.6576 46.0227C58.9715 46.0227 58.3832 45.9283 57.8927 45.7393C57.4055 45.5537 57.0177 45.3002 56.7293 44.9787C56.441 44.6572 56.2537 44.2959 56.1675 43.8949L58.1263 43.6314C58.186 43.7839 58.2805 43.9264 58.4097 44.0589C58.539 44.1915 58.7097 44.2976 58.9218 44.3771C59.1372 44.46 59.3991 44.5014 59.7073 44.5014C60.168 44.5014 60.5475 44.3887 60.8458 44.1634C61.1474 43.9413 61.2982 43.5684 61.2982 43.0447V41.6477H61.2087C61.1159 41.8598 60.9767 42.0604 60.7911 42.2493C60.6055 42.4382 60.3669 42.5923 60.0752 42.7116C59.7835 42.831 59.4355 42.8906 59.0312 42.8906C58.4578 42.8906 57.9358 42.758 57.4651 42.4929C56.9978 42.2244 56.6249 41.8151 56.3465 41.2649C56.0714 40.7114 55.9339 40.0121 55.9339 39.1669C55.9339 38.3018 56.0747 37.5793 56.3564 36.9993C56.6382 36.4193 57.0127 35.9851 57.48 35.6967C57.9507 35.4084 58.4661 35.2642 59.0262 35.2642C59.4537 35.2642 59.8117 35.3371 60.1001 35.483C60.3884 35.6255 60.6204 35.8045 60.7961 36.0199C60.9751 36.232 61.1126 36.4408 61.2087 36.6463H61.2883V35.3636H63.3912V43.0746C63.3912 43.7242 63.2322 44.2678 62.914 44.7053C62.5958 45.1428 62.155 45.4709 61.5915 45.6896C61.0314 45.9117 60.3867 46.0227 59.6576 46.0227ZM59.7023 41.2997C60.0437 41.2997 60.3321 41.2152 60.5674 41.0462C60.806 40.8738 60.9883 40.6286 61.1143 40.3104C61.2435 39.9889 61.3081 39.6044 61.3081 39.157C61.3081 38.7095 61.2452 38.3217 61.1192 37.9936C60.9933 37.6622 60.811 37.4053 60.5724 37.223C60.3337 37.0407 60.0437 36.9496 59.7023 36.9496C59.3543 36.9496 59.061 37.044 58.8224 37.233C58.5837 37.4186 58.4031 37.6771 58.2805 38.0085C58.1578 38.34 58.0965 38.7228 58.0965 39.157C58.0965 39.5978 58.1578 39.9789 58.2805 40.3004C58.4064 40.6186 58.587 40.8655 58.8224 41.0412C59.061 41.2135 59.3543 41.2997 59.7023 41.2997ZM67.1945 38.5852V43H65.0766V32.8182H67.1349V36.7109H67.2243C67.3967 36.2602 67.6751 35.9072 68.0596 35.652C68.444 35.3935 68.9263 35.2642 69.5063 35.2642C70.0366 35.2642 70.499 35.3802 70.8934 35.6122C71.2911 35.8409 71.5993 36.1707 71.8181 36.6016C72.0402 37.0291 72.1495 37.5412 72.1462 38.1378V43H70.0283V38.5156C70.0316 38.045 69.9123 37.6787 69.6704 37.4169C69.4317 37.1551 69.097 37.0241 68.6661 37.0241C68.3778 37.0241 68.1225 37.0855 67.9005 37.2081C67.6817 37.3307 67.5094 37.5097 67.3834 37.745C67.2608 37.977 67.1978 38.2571 67.1945 38.5852ZM77.093 43V32.8182H81.11C81.8789 32.8182 82.5352 32.9557 83.0787 33.2308C83.6256 33.5026 84.0416 33.8887 84.3266 34.3892C84.615 34.8864 84.7591 35.4714 84.7591 36.1442C84.7591 36.8203 84.6133 37.402 84.3216 37.8892C84.03 38.3731 83.6074 38.7443 83.0539 39.0028C82.5037 39.2614 81.8375 39.3906 81.0553 39.3906H78.3657V37.6605H80.7073C81.1183 37.6605 81.4597 37.6042 81.7314 37.4915C82.0032 37.3788 82.2054 37.2098 82.338 36.9844C82.4739 36.759 82.5418 36.4789 82.5418 36.1442C82.5418 35.8061 82.4739 35.5211 82.338 35.2891C82.2054 35.0571 82.0016 34.8814 81.7265 34.7621C81.4547 34.6394 81.1117 34.5781 80.6974 34.5781H79.2456V43H77.093ZM82.5915 38.3665L85.1221 43H82.7456L80.2698 38.3665H82.5915ZM89.5977 43.1491C88.8122 43.1491 88.1361 42.9901 87.5693 42.6719C87.0059 42.3504 86.5717 41.8963 86.2668 41.3097C85.9619 40.7197 85.8094 40.022 85.8094 39.2166C85.8094 38.4311 85.9619 37.7417 86.2668 37.1484C86.5717 36.5552 87.0009 36.0928 87.5544 35.7614C88.1112 35.4299 88.7642 35.2642 89.5132 35.2642C90.017 35.2642 90.486 35.3454 90.9202 35.5078C91.3577 35.6669 91.7388 35.9072 92.0637 36.2287C92.3918 36.5502 92.647 36.9545 92.8293 37.4418C93.0116 37.9257 93.1027 38.4924 93.1027 39.142V39.7237H86.6546V38.4112H91.1091C91.1091 38.1063 91.0428 37.8362 90.9102 37.6009C90.7777 37.3655 90.5937 37.1816 90.3584 37.049C90.1264 36.9131 89.8563 36.8452 89.548 36.8452C89.2265 36.8452 88.9415 36.9197 88.6929 37.0689C88.4477 37.2147 88.2554 37.4119 88.1162 37.6605C87.977 37.9058 87.9057 38.1792 87.9024 38.4808V39.7287C87.9024 40.1065 87.972 40.433 88.1112 40.7081C88.2538 40.9832 88.4543 41.1953 88.7128 41.3445C88.9713 41.4936 89.2779 41.5682 89.6325 41.5682C89.8679 41.5682 90.0833 41.535 90.2789 41.4688C90.4744 41.4025 90.6418 41.303 90.781 41.1705C90.9202 41.0379 91.0262 40.8755 91.0992 40.6832L93.058 40.8125C92.9585 41.2831 92.7547 41.6941 92.4465 42.0455C92.1415 42.3935 91.7471 42.6652 91.2632 42.8608C90.7826 43.053 90.2275 43.1491 89.5977 43.1491ZM98.5466 35.3636V36.9545H93.9479V35.3636H98.5466ZM94.9919 33.5341H97.1098V40.6534C97.1098 40.849 97.1396 41.0014 97.1993 41.1108C97.259 41.2169 97.3418 41.2914 97.4479 41.3345C97.5573 41.3776 97.6832 41.3991 97.8257 41.3991C97.9252 41.3991 98.0246 41.3909 98.124 41.3743C98.2235 41.3544 98.2997 41.3395 98.3527 41.3295L98.6858 42.9055C98.5798 42.9387 98.4306 42.9768 98.2384 43.0199C98.0461 43.0663 97.8125 43.0945 97.5374 43.1044C97.027 43.1243 96.5795 43.0563 96.195 42.9006C95.8139 42.7448 95.5173 42.5028 95.3051 42.1747C95.093 41.8466 94.9886 41.4323 94.9919 40.9318V33.5341ZM104.823 39.7486V35.3636H106.941V43H104.908V41.6129H104.828C104.656 42.0604 104.369 42.42 103.968 42.6918C103.57 42.9635 103.085 43.0994 102.511 43.0994C102.001 43.0994 101.552 42.9834 101.164 42.7514C100.776 42.5194 100.473 42.1896 100.254 41.7621C100.039 41.3345 99.9295 40.8224 99.9262 40.2259V35.3636H102.044V39.848C102.047 40.2988 102.168 40.6551 102.407 40.9169C102.646 41.1787 102.966 41.3097 103.367 41.3097C103.622 41.3097 103.86 41.2517 104.082 41.1357C104.305 41.0163 104.484 40.8407 104.619 40.6087C104.759 40.3767 104.827 40.09 104.823 39.7486ZM108.635 43V35.3636H110.688V36.696H110.768C110.907 36.2221 111.141 35.8641 111.469 35.6222C111.797 35.3769 112.175 35.2543 112.603 35.2543C112.709 35.2543 112.823 35.2609 112.946 35.2741C113.068 35.2874 113.176 35.3056 113.269 35.3288V37.2081C113.169 37.1783 113.032 37.1518 112.856 37.1286C112.68 37.1054 112.52 37.0938 112.374 37.0938C112.062 37.0938 111.784 37.1617 111.539 37.2976C111.297 37.4302 111.104 37.6158 110.962 37.8544C110.823 38.093 110.753 38.3681 110.753 38.6797V43H108.635ZM116.482 38.5852V43H114.364V35.3636H116.382V36.7109H116.472C116.641 36.2668 116.924 35.9155 117.322 35.657C117.72 35.3951 118.202 35.2642 118.769 35.2642C119.299 35.2642 119.761 35.3802 120.156 35.6122C120.55 35.8442 120.857 36.1757 121.075 36.6065C121.294 37.0341 121.403 37.5445 121.403 38.1378V43H119.286V38.5156C119.289 38.0483 119.17 37.6837 118.928 37.4219C118.686 37.1567 118.353 37.0241 117.928 37.0241C117.643 37.0241 117.391 37.0855 117.173 37.2081C116.957 37.3307 116.788 37.5097 116.666 37.745C116.546 37.977 116.485 38.2571 116.482 38.5852ZM125.603 32.8182L125.409 39.9474H123.59L123.391 32.8182H125.603ZM124.5 43.1293C124.171 43.1293 123.89 43.0133 123.654 42.7812C123.419 42.5459 123.303 42.2642 123.306 41.9361C123.303 41.6113 123.419 41.3329 123.654 41.1009C123.89 40.8688 124.171 40.7528 124.5 40.7528C124.814 40.7528 125.091 40.8688 125.33 41.1009C125.568 41.3329 125.689 41.6113 125.693 41.9361C125.689 42.1548 125.631 42.3554 125.519 42.5376C125.409 42.7166 125.265 42.8608 125.086 42.9702C124.907 43.0762 124.712 43.1293 124.5 43.1293Z"
    fill="#FFE500" />
</svg>