<svg width="65" height="7" viewBox="0 0 65 7" fill="none" xmlns="http://www.w3.org/2000/svg">
  <path
    d="M65 3.5L60 0.613249V6.38675L65 3.5ZM1 3C0.723854 3 0.5 3.22386 0.5 3.5C0.5 3.77614 0.723854 4 1 4V3ZM62 3H60V4L62 4V3ZM58 3H56V4H58V3ZM54 3L52 3V4H54V3ZM50 3L48 3V4H50V3ZM46 3L44 3V4H46V3ZM42 3L40 3V4L42 4V3ZM38 3H36V4H38V3ZM34 3L32 3V4H34V3ZM30 3H28V4H30V3ZM26 3H24V4L26 4V3ZM22 3H20V4H22V3ZM18 3L16 3V4L18 4V3ZM14 3L12 3V4H14V3ZM10 3L8 3V4H10V3ZM6 3L4 3V4H6V3ZM2 3L1 3V4H2V3Z"
    fill="#FFE601" />
</svg>