<svg viewBox="0 0 1024 1024" version="1.1" xmlns="http://www.w3.org/2000/svg" p-id="10473">
  <path
    d="M812 146c9.941 0 18 8.059 18 18s-8.059 18-18 18h-82v112.898l-0.03 3.605c-1.576 97.274-66.865 179.06-155.955 205.448 89.09 26.384 154.379 108.17 155.956 205.444L730 713v130h82c9.941 0 18 8.059 18 18s-8.059 18-18 18H212c-9.941 0-18-8.059-18-18s8.059-18 18-18h82V713c0-98.854 65.798-182.34 155.987-209.053C359.797 477.239 294 393.753 294 294.898V182h-82c-9.941 0-18-8.059-18-18s8.059-18 18-18h600zM512 531c-99.51 0-180.368 79.863-181.976 178.99L330 713v130h364V713c0-100.516-81.484-182-182-182z m182-349H330v112.898l0.024 3.01c1.608 99.128 82.465 178.99 181.976 178.99 100.516 0 182-81.484 182-182V182z"
    fill="currentColor" p-id="10474"></path>
  <path
    d="M632 713v130H392V713c0-19.026 4.428-37.019 12.31-53.002 23.916 10.853 49.423 13.404 76.52 7.653 35.907-7.621 31.563-7.653 79.248-27.265 23.08-9.492 42.952-2.955 59.612 19.612C627.572 675.98 632 693.974 632 713zM512 432c46.85 0 87.43-26.849 107.192-65.999-19.788-5.85-41.07-5.85-63.846 0-34.164 8.775-47.58 19.042-80.048 19.042-21.645 0-45.142-6.347-70.49-19.042C424.57 405.151 465.15 432 512 432z"
    fill="currentColor" p-id="10475"></path>
</svg>