<svg width="416" height="186" viewBox="0 0 416 186" fill="none" xmlns="http://www.w3.org/2000/svg">
  <g filter="url(#filter0_b_8814_7088)">
    <path d="M0 0H416V186H0V0Z" fill="#44C476" fill-opacity="0.12" />
  </g>
  <path
    d="M293.479 127.425L286.544 123.42L286.544 131.429L293.479 127.425ZM97 128.118L287.237 128.118L287.237 126.731L97 126.731L97 128.118Z"
    fill="#43AF10" />
  <path
    d="M157.321 143.565C157.858 143.565 158.343 143.625 158.778 143.745C159.222 143.866 159.606 144.069 159.929 144.356L159.041 145.257C158.819 145.072 158.556 144.943 158.251 144.869C157.955 144.786 157.64 144.744 157.307 144.744C156.873 144.744 156.549 144.827 156.336 144.994C156.133 145.16 156.031 145.378 156.031 145.646C156.031 145.886 156.105 146.071 156.253 146.201C156.401 146.33 156.651 146.413 157.002 146.45L157.987 146.534C158.718 146.598 159.268 146.792 159.638 147.116C160.017 147.44 160.207 147.911 160.207 148.531C160.207 148.901 160.133 149.225 159.985 149.502C159.837 149.779 159.633 150.015 159.374 150.21C159.115 150.394 158.806 150.533 158.445 150.626C158.084 150.718 157.696 150.764 157.28 150.764C156.706 150.764 156.175 150.7 155.684 150.57C155.194 150.431 154.741 150.159 154.325 149.752L155.254 148.822C155.541 149.118 155.86 149.317 156.212 149.419C156.572 149.511 156.928 149.558 157.28 149.558C157.724 149.558 158.089 149.479 158.376 149.322C158.671 149.165 158.819 148.919 158.819 148.587C158.819 148.346 158.745 148.157 158.597 148.018C158.459 147.879 158.218 147.791 157.876 147.754L156.753 147.657C156.087 147.592 155.573 147.407 155.213 147.102C154.852 146.797 154.672 146.335 154.672 145.715C154.672 145.373 154.741 145.068 154.88 144.8C155.019 144.531 155.208 144.305 155.449 144.12C155.689 143.935 155.967 143.796 156.281 143.704C156.605 143.611 156.951 143.565 157.321 143.565ZM163.4 143.648H164.759V144.73H163.4V148.656C163.4 149.202 163.659 149.474 164.177 149.474H164.759V150.681H163.913C163.58 150.681 163.294 150.63 163.053 150.529C162.813 150.418 162.614 150.274 162.457 150.099C162.3 149.914 162.179 149.706 162.096 149.474C162.022 149.234 161.985 148.984 161.985 148.725V144.73H161.181V143.648H161.985V141.637H163.4V143.648ZM173.038 142.15H168.225V145.035H172.331V146.381H168.225V149.336H173.038V150.681H166.726V140.805H173.038V142.15ZM181.147 142.15H178.428V150.681H176.93V142.15H174.211V140.805H181.147V142.15ZM189.852 150.681H188.354V146.367H184.345V150.681H182.847V140.805H184.345V145.022H188.354V140.805H189.852V150.681ZM199.599 140.805C200.07 140.805 200.491 140.879 200.861 141.026C201.24 141.165 201.564 141.364 201.832 141.623C202.1 141.873 202.304 142.178 202.442 142.538C202.59 142.89 202.664 143.274 202.664 143.69C202.664 144.402 202.475 144.98 202.096 145.424C201.717 145.858 201.25 146.154 200.695 146.312L202.97 150.681H201.222L199.141 146.52H197.268V150.681H195.77V140.805H199.599ZM197.268 142.15V145.243H199.488C199.987 145.243 200.389 145.109 200.695 144.841C201.009 144.573 201.166 144.194 201.166 143.704C201.166 143.214 201.009 142.834 200.695 142.566C200.389 142.289 199.987 142.15 199.488 142.15H197.268ZM205.314 147.574C205.314 148.184 205.467 148.665 205.772 149.017C206.077 149.368 206.521 149.544 207.103 149.544C207.501 149.544 207.82 149.488 208.061 149.377C208.31 149.257 208.56 149.072 208.81 148.822L209.711 149.669C209.526 149.853 209.341 150.015 209.156 150.154C208.981 150.283 208.786 150.394 208.574 150.487C208.37 150.579 208.144 150.649 207.894 150.695C207.654 150.741 207.381 150.764 207.076 150.764C206.632 150.764 206.216 150.704 205.827 150.584C205.448 150.455 205.115 150.251 204.828 149.974C204.551 149.687 204.329 149.312 204.163 148.85C203.996 148.388 203.913 147.824 203.913 147.158C203.913 146.002 204.181 145.114 204.717 144.494C205.263 143.875 205.989 143.565 206.895 143.565C207.367 143.565 207.788 143.648 208.158 143.815C208.528 143.972 208.837 144.203 209.087 144.508C209.346 144.804 209.54 145.165 209.67 145.59C209.808 146.006 209.878 146.469 209.878 146.977V147.574H205.314ZM208.477 146.589C208.458 146.376 208.44 146.205 208.421 146.076C208.403 145.937 208.356 145.789 208.282 145.632C208.162 145.364 207.982 145.151 207.741 144.994C207.51 144.827 207.228 144.744 206.895 144.744C206.553 144.744 206.262 144.827 206.021 144.994C205.79 145.151 205.614 145.364 205.494 145.632C205.42 145.789 205.374 145.937 205.356 146.076C205.337 146.205 205.323 146.376 205.314 146.589H208.477ZM213.18 144.356C213.439 144.05 213.716 143.842 214.012 143.731C214.308 143.62 214.645 143.565 215.025 143.565C215.376 143.565 215.7 143.62 215.996 143.731C216.292 143.842 216.537 143.995 216.731 144.189C216.897 144.365 217.031 144.564 217.133 144.786C217.244 145.008 217.327 145.248 217.383 145.507C217.438 145.757 217.475 146.025 217.494 146.312C217.512 146.589 217.522 146.871 217.522 147.158C217.522 147.74 217.475 148.295 217.383 148.822C217.29 149.349 217.073 149.789 216.731 150.14C216.537 150.334 216.287 150.487 215.982 150.598C215.686 150.709 215.362 150.764 215.011 150.764C214.632 150.764 214.294 150.709 213.998 150.598C213.702 150.478 213.42 150.256 213.152 149.932V150.681H211.765V140.805H213.18V144.356ZM214.65 144.827C214.326 144.827 214.067 144.892 213.873 145.022C213.679 145.142 213.531 145.308 213.429 145.521C213.328 145.734 213.258 145.983 213.221 146.27C213.194 146.547 213.18 146.843 213.18 147.158C213.18 147.472 213.194 147.773 213.221 148.059C213.258 148.337 213.328 148.587 213.429 148.808C213.531 149.021 213.679 149.192 213.873 149.322C214.067 149.442 214.326 149.502 214.65 149.502C214.965 149.502 215.219 149.442 215.413 149.322C215.607 149.192 215.755 149.021 215.857 148.808C215.959 148.587 216.023 148.337 216.051 148.059C216.088 147.773 216.107 147.472 216.107 147.158C216.107 146.843 216.088 146.547 216.051 146.27C216.023 145.983 215.959 145.734 215.857 145.521C215.755 145.308 215.607 145.142 215.413 145.022C215.219 144.892 214.965 144.827 214.65 144.827ZM221.707 143.565C222.687 143.565 223.413 143.768 223.885 144.175C224.366 144.582 224.606 145.183 224.606 145.979V150.681H223.219V150.043C222.96 150.302 222.692 150.487 222.415 150.598C222.137 150.709 221.781 150.764 221.346 150.764C220.903 150.764 220.528 150.714 220.223 150.612C219.927 150.501 219.673 150.339 219.46 150.126C219.09 149.738 218.905 149.234 218.905 148.614C218.905 148.022 219.108 147.537 219.515 147.158C219.922 146.779 220.533 146.589 221.346 146.589H223.191V146.09C223.191 145.636 223.071 145.304 222.831 145.091C222.6 144.878 222.206 144.772 221.652 144.772C221.272 144.772 220.972 144.827 220.75 144.938C220.528 145.04 220.315 145.216 220.112 145.465L219.196 144.591C219.363 144.397 219.529 144.235 219.696 144.106C219.871 143.977 220.056 143.87 220.251 143.787C220.454 143.704 220.671 143.648 220.903 143.62C221.143 143.583 221.411 143.565 221.707 143.565ZM221.568 147.574C220.708 147.574 220.278 147.911 220.278 148.587C220.278 148.91 220.38 149.16 220.584 149.336C220.796 149.502 221.138 149.585 221.61 149.585C221.86 149.585 222.086 149.562 222.29 149.516C222.502 149.47 222.701 149.359 222.886 149.183C223.09 148.989 223.191 148.642 223.191 148.143V147.574H221.568ZM229.104 143.565C229.641 143.565 230.126 143.625 230.561 143.745C231.005 143.866 231.389 144.069 231.712 144.356L230.825 145.257C230.603 145.072 230.339 144.943 230.034 144.869C229.738 144.786 229.424 144.744 229.091 144.744C228.656 144.744 228.332 144.827 228.12 144.994C227.916 145.16 227.814 145.378 227.814 145.646C227.814 145.886 227.888 146.071 228.036 146.201C228.184 146.33 228.434 146.413 228.785 146.45L229.77 146.534C230.501 146.598 231.051 146.792 231.421 147.116C231.8 147.44 231.99 147.911 231.99 148.531C231.99 148.901 231.916 149.225 231.768 149.502C231.62 149.779 231.416 150.015 231.158 150.21C230.899 150.394 230.589 150.533 230.228 150.626C229.867 150.718 229.479 150.764 229.063 150.764C228.49 150.764 227.958 150.7 227.468 150.57C226.978 150.431 226.524 150.159 226.108 149.752L227.038 148.822C227.324 149.118 227.643 149.317 227.995 149.419C228.355 149.511 228.711 149.558 229.063 149.558C229.507 149.558 229.872 149.479 230.159 149.322C230.455 149.165 230.603 148.919 230.603 148.587C230.603 148.346 230.529 148.157 230.381 148.018C230.242 147.879 230.002 147.791 229.659 147.754L228.536 147.657C227.87 147.592 227.357 147.407 226.996 147.102C226.635 146.797 226.455 146.335 226.455 145.715C226.455 145.373 226.524 145.068 226.663 144.8C226.802 144.531 226.991 144.305 227.232 144.12C227.472 143.935 227.75 143.796 228.064 143.704C228.388 143.611 228.735 143.565 229.104 143.565ZM234.751 147.574C234.751 148.184 234.903 148.665 235.208 149.017C235.514 149.368 235.957 149.544 236.54 149.544C236.938 149.544 237.257 149.488 237.497 149.377C237.747 149.257 237.997 149.072 238.246 148.822L239.148 149.669C238.963 149.853 238.778 150.015 238.593 150.154C238.417 150.283 238.223 150.394 238.01 150.487C237.807 150.579 237.58 150.649 237.331 150.695C237.09 150.741 236.817 150.764 236.512 150.764C236.068 150.764 235.652 150.704 235.264 150.584C234.885 150.455 234.552 150.251 234.265 149.974C233.988 149.687 233.766 149.312 233.599 148.85C233.433 148.388 233.35 147.824 233.35 147.158C233.35 146.002 233.618 145.114 234.154 144.494C234.7 143.875 235.426 143.565 236.332 143.565C236.804 143.565 237.224 143.648 237.594 143.815C237.964 143.972 238.274 144.203 238.524 144.508C238.783 144.804 238.977 145.165 239.106 145.59C239.245 146.006 239.314 146.469 239.314 146.977V147.574H234.751ZM237.913 146.589C237.895 146.376 237.876 146.205 237.858 146.076C237.839 145.937 237.793 145.789 237.719 145.632C237.599 145.364 237.419 145.151 237.178 144.994C236.947 144.827 236.665 144.744 236.332 144.744C235.99 144.744 235.698 144.827 235.458 144.994C235.227 145.151 235.051 145.364 234.931 145.632C234.857 145.789 234.811 145.937 234.792 146.076C234.774 146.205 234.76 146.376 234.751 146.589H237.913Z"
    fill="black" />
  <path d="M300 186L416 186L416 146L300 146L300 186Z" fill="url(#paint0_linear_8814_7088)"
    fill-opacity="0.45" />
  <g filter="url(#filter1_b_8814_7088)">
    <path d="M299.904 106L415.904 106L415.904 -2.6061e-06L299.904 -2.28882e-05L299.904 106Z"
      fill="#44C476" fill-opacity="0.12" />
  </g>
  <path d="M299.904 106L415.904 106L415.904 146L299.904 146L299.904 106Z" fill="#51ACF1"
    fill-opacity="0.3" />
  <path
    d="M348.193 121.148C348.759 121.148 349.264 121.237 349.708 121.414C350.163 121.581 350.551 121.819 350.873 122.13C351.195 122.43 351.439 122.796 351.606 123.229C351.783 123.65 351.872 124.111 351.872 124.61C351.872 125.465 351.645 126.158 351.19 126.691C350.735 127.213 350.174 127.568 349.508 127.757L352.238 133H350.141L347.644 128.006H345.397V133H343.599V121.148H348.193ZM345.397 122.763V126.475H348.06C348.659 126.475 349.142 126.314 349.508 125.992C349.886 125.67 350.074 125.215 350.074 124.627C350.074 124.039 349.886 123.584 349.508 123.262C349.142 122.929 348.659 122.763 348.06 122.763H345.397ZM358.173 121.048C359.271 121.048 360.198 121.364 360.953 121.997C361.707 122.618 362.19 123.517 362.401 124.694H360.57C360.437 124.083 360.17 123.595 359.771 123.229C359.371 122.851 358.839 122.663 358.173 122.663C357.451 122.663 356.869 122.901 356.425 123.379C356.269 123.534 356.147 123.706 356.059 123.895C355.97 124.083 355.898 124.316 355.842 124.594C355.787 124.86 355.748 125.193 355.726 125.593C355.715 125.992 355.709 126.486 355.709 127.074C355.709 127.662 355.715 128.156 355.726 128.556C355.748 128.955 355.787 129.293 355.842 129.571C355.898 129.837 355.97 130.065 356.059 130.253C356.147 130.442 356.269 130.614 356.425 130.769C356.869 131.247 357.451 131.485 358.173 131.485C358.839 131.485 359.371 131.302 359.771 130.936C360.17 130.559 360.437 130.065 360.57 129.454H362.401C362.19 130.631 361.702 131.535 360.936 132.168C360.181 132.789 359.26 133.1 358.173 133.1C357.518 133.1 356.941 133 356.441 132.8C355.942 132.589 355.498 132.29 355.11 131.901C354.821 131.613 354.594 131.313 354.427 131.002C354.272 130.692 354.155 130.353 354.078 129.987C354 129.61 353.95 129.188 353.928 128.722C353.917 128.245 353.911 127.695 353.911 127.074C353.911 126.453 353.917 125.909 353.928 125.443C353.95 124.966 354 124.544 354.078 124.178C354.155 123.8 354.272 123.456 354.427 123.146C354.594 122.835 354.821 122.535 355.11 122.247C355.498 121.858 355.942 121.564 356.441 121.364C356.941 121.154 357.518 121.048 358.173 121.048ZM373.203 133H371.405V127.823H366.594V133H364.797V121.148H366.594V126.208H371.405V121.148H373.203V133Z"
    fill="#51ACF1" />
  <path
    d="M342.115 55.005C342.115 55.6153 342.005 56.1757 341.783 56.6862C341.572 57.1856 341.272 57.6128 340.884 57.9679C340.506 58.3231 340.057 58.6005 339.535 58.8002C339.014 59 338.453 59.0999 337.854 59.0999C337.255 59.0999 336.694 59 336.173 58.8002C335.651 58.6005 335.202 58.3231 334.825 57.9679C334.447 57.6128 334.148 57.1856 333.926 56.6862C333.715 56.1757 333.609 55.6153 333.609 55.005V47.148H335.407V54.9217C335.407 55.7207 335.629 56.3477 336.073 56.8027C336.517 57.2577 337.111 57.4852 337.854 57.4852C338.598 57.4852 339.191 57.2577 339.635 56.8027C340.09 56.3477 340.318 55.7207 340.318 54.9217V47.148H342.115V55.005ZM348.721 50.4606C349.154 50.4606 349.547 50.5272 349.903 50.6604C350.258 50.7935 350.552 50.9766 350.785 51.2097C350.985 51.4205 351.145 51.6591 351.268 51.9254C351.401 52.1918 351.501 52.4803 351.567 52.791C351.634 53.0907 351.678 53.4125 351.7 53.7565C351.723 54.0894 351.734 54.4279 351.734 54.7719C351.734 55.1159 351.723 55.4599 351.7 55.804C351.678 56.1369 351.634 56.4587 351.567 56.7694C351.501 57.0802 351.401 57.3687 351.268 57.635C351.145 57.9014 350.985 58.14 350.785 58.3508C350.552 58.5838 350.258 58.767 349.903 58.9001C349.559 59.0333 349.17 59.0999 348.737 59.0999C348.282 59.0999 347.877 59.0333 347.522 58.9001C347.167 58.767 346.834 58.5117 346.523 58.1344V62.4124H344.826V50.5605H346.49V51.4594C346.812 51.071 347.15 50.8102 347.506 50.677C347.861 50.5327 348.266 50.4606 348.721 50.4606ZM348.288 51.9754C347.9 51.9754 347.589 52.0531 347.356 52.2084C347.123 52.3527 346.945 52.5524 346.823 52.8077C346.701 53.0629 346.618 53.3626 346.573 53.7066C346.54 54.0395 346.523 54.3946 346.523 54.7719C346.523 55.1492 346.54 55.5099 346.573 55.8539C346.618 56.1868 346.701 56.4865 346.823 56.7528C346.945 57.008 347.123 57.2133 347.356 57.3687C347.589 57.513 347.9 57.5851 348.288 57.5851C348.665 57.5851 348.97 57.513 349.203 57.3687C349.436 57.2133 349.614 57.008 349.736 56.7528C349.858 56.4865 349.936 56.1868 349.969 55.8539C350.014 55.5099 350.036 55.1492 350.036 54.7719C350.036 54.3946 350.014 54.0395 349.969 53.7066C349.936 53.3626 349.858 53.0629 349.736 52.8077C349.614 52.5524 349.436 52.3527 349.203 52.2084C348.97 52.0531 348.665 51.9754 348.288 51.9754ZM356.806 50.4606C357.45 50.4606 358.033 50.5327 358.554 50.677C359.087 50.8213 359.547 51.0654 359.936 51.4094L358.87 52.4914C358.604 52.2695 358.288 52.1141 357.922 52.0253C357.566 51.9254 357.189 51.8755 356.79 51.8755C356.268 51.8755 355.88 51.9754 355.624 52.1751C355.38 52.3749 355.258 52.6357 355.258 52.9575C355.258 53.246 355.347 53.468 355.525 53.6233C355.702 53.7787 356.002 53.8786 356.423 53.923L357.605 54.0228C358.482 54.1005 359.142 54.3336 359.586 54.722C360.041 55.1104 360.269 55.6763 360.269 56.4199C360.269 56.8638 360.18 57.2522 360.002 57.5851C359.825 57.918 359.581 58.201 359.27 58.434C358.959 58.656 358.587 58.8224 358.155 58.9334C357.722 59.0444 357.256 59.0999 356.756 59.0999C356.068 59.0999 355.43 59.0222 354.842 58.8668C354.254 58.7004 353.71 58.373 353.211 57.8847L354.326 56.7694C354.67 57.1245 355.053 57.3631 355.475 57.4852C355.907 57.5962 356.335 57.6517 356.756 57.6517C357.289 57.6517 357.727 57.5573 358.071 57.3687C358.426 57.18 358.604 56.886 358.604 56.4865C358.604 56.1979 358.515 55.9704 358.338 55.804C358.171 55.6375 357.883 55.5321 357.472 55.4877L356.124 55.3712C355.325 55.2935 354.709 55.0715 354.276 54.7053C353.843 54.3391 353.627 53.7843 353.627 53.0407C353.627 52.6301 353.71 52.2639 353.877 51.9421C354.043 51.6203 354.271 51.3484 354.559 51.1264C354.848 50.9045 355.18 50.738 355.558 50.6271C355.946 50.5161 356.362 50.4606 356.806 50.4606ZM364.031 59H362.333V50.5605H364.031V59ZM364.081 48.8959H362.283V47.0981H364.081V48.8959ZM373.231 59H371.566V58.1011C371.244 58.4895 370.906 58.7559 370.551 58.9001C370.196 59.0333 369.791 59.0999 369.336 59.0999C368.903 59.0999 368.509 59.0333 368.154 58.9001C367.799 58.767 367.505 58.5838 367.272 58.3508C367.072 58.14 366.905 57.9014 366.772 57.635C366.65 57.3687 366.556 57.0857 366.489 56.7861C366.423 56.4754 366.378 56.1535 366.356 55.8206C366.334 55.4766 366.323 55.1326 366.323 54.7886C366.323 54.4445 366.334 54.1061 366.356 53.7732C366.378 53.4291 366.423 53.1018 366.489 52.791C366.556 52.4803 366.65 52.1918 366.772 51.9254C366.905 51.6591 367.072 51.4205 367.272 51.2097C367.505 50.9766 367.793 50.7935 368.137 50.6604C368.492 50.5272 368.886 50.4606 369.319 50.4606C369.774 50.4606 370.179 50.5272 370.534 50.6604C370.889 50.7935 371.222 51.0488 371.533 51.4261V47.148H373.231V59ZM369.768 51.9754C369.38 51.9754 369.069 52.0531 368.836 52.2084C368.614 52.3638 368.442 52.5691 368.32 52.8243C368.198 53.0796 368.115 53.3792 368.071 53.7232C368.037 54.0561 368.021 54.4113 368.021 54.7886C368.021 55.1659 368.037 55.5265 368.071 55.8706C368.115 56.2035 368.198 56.4976 368.32 56.7528C368.442 57.008 368.614 57.2133 368.836 57.3687C369.069 57.513 369.38 57.5851 369.768 57.5851C370.157 57.5851 370.468 57.513 370.701 57.3687C370.934 57.2133 371.111 57.008 371.233 56.7528C371.355 56.4976 371.433 56.2035 371.466 55.8706C371.511 55.5265 371.533 55.1659 371.533 54.7886C371.533 54.4113 371.511 54.0561 371.466 53.7232C371.433 53.3792 371.355 53.0796 371.233 52.8243C371.111 52.5691 370.934 52.3638 370.701 52.2084C370.468 52.0531 370.157 51.9754 369.768 51.9754ZM377.171 55.2713C377.171 56.0037 377.355 56.5808 377.721 57.0025C378.087 57.4242 378.62 57.635 379.319 57.635C379.796 57.635 380.179 57.5684 380.467 57.4353C380.767 57.291 381.067 57.0691 381.366 56.7694L382.448 57.7848C382.226 58.0068 382.004 58.201 381.782 58.3675C381.572 58.5228 381.339 58.656 381.083 58.767C380.839 58.8779 380.567 58.9612 380.268 59.0166C379.979 59.0721 379.652 59.0999 379.286 59.0999C378.753 59.0999 378.253 59.0277 377.787 58.8835C377.332 58.7281 376.933 58.484 376.589 58.1511C376.256 57.807 375.99 57.3576 375.79 56.8027C375.59 56.2479 375.49 55.5709 375.49 54.7719C375.49 53.3847 375.812 52.3194 376.456 51.5759C377.11 50.8324 377.982 50.4606 379.069 50.4606C379.635 50.4606 380.14 50.5605 380.584 50.7602C381.028 50.9489 381.4 51.2263 381.699 51.5925C382.01 51.9476 382.243 52.3804 382.398 52.8909C382.565 53.3903 382.648 53.9452 382.648 54.5555V55.2713H377.171ZM380.967 54.0894C380.945 53.8342 380.922 53.6289 380.9 53.4735C380.878 53.3071 380.822 53.1295 380.734 52.9409C380.589 52.619 380.373 52.3638 380.085 52.1751C379.807 51.9754 379.469 51.8755 379.069 51.8755C378.659 51.8755 378.309 51.9754 378.02 52.1751C377.743 52.3638 377.532 52.619 377.388 52.9409C377.299 53.1295 377.244 53.3071 377.221 53.4735C377.199 53.6289 377.183 53.8342 377.171 54.0894H380.967Z"
    fill="black" />
  <path
    d="M52.584 82.4868L56.5884 75.551L48.5796 75.551L52.584 82.4868ZM51.8904 45.8408L51.8904 76.2446L53.2776 76.2446L53.2776 45.8408L51.8904 45.8408Z"
    fill="#43AF10" />
  <path
    d="M34.0787 26.5438C34.6983 26.5438 35.2301 26.6455 35.6739 26.849C36.1271 27.0432 36.5294 27.3576 36.8808 27.7922C37.0565 28.0142 37.1952 28.2592 37.2969 28.5274C37.3987 28.7864 37.4726 29.0684 37.5189 29.3736C37.5744 29.6788 37.6067 30.0071 37.616 30.3585C37.6252 30.7099 37.6299 31.0844 37.6299 31.4821C37.6299 31.8797 37.6252 32.2543 37.616 32.6057C37.6067 32.9571 37.5744 33.2854 37.5189 33.5906C37.4726 33.8958 37.3987 34.1824 37.2969 34.4506C37.1952 34.7096 37.0565 34.95 36.8808 35.172C36.5294 35.6066 36.1271 35.9257 35.6739 36.1291C35.2301 36.3233 34.6983 36.4204 34.0787 36.4204H30.6108V26.5438H34.0787ZM32.1089 27.8893V35.0749H33.9122C34.2637 35.0749 34.5781 35.024 34.8555 34.9223C35.1422 34.8205 35.3919 34.6495 35.6046 34.409C35.845 34.1408 35.993 33.7709 36.0485 33.2993C36.104 32.8276 36.1317 32.2219 36.1317 31.4821C36.1317 30.7423 36.104 30.1365 36.0485 29.6649C35.993 29.1933 35.845 28.8234 35.6046 28.5552C35.3919 28.3147 35.1422 28.1436 34.8555 28.0419C34.5781 27.9402 34.2637 27.8893 33.9122 27.8893H32.1089ZM40.7235 33.3132C40.7235 33.9235 40.876 34.4044 41.1812 34.7558C41.4864 35.1072 41.9303 35.2829 42.5129 35.2829C42.9106 35.2829 43.2296 35.2274 43.47 35.1165C43.7197 34.9963 43.9694 34.8113 44.2191 34.5616L45.1208 35.4078C44.9358 35.5927 44.7509 35.7546 44.5659 35.8933C44.3902 36.0228 44.196 36.1337 43.9833 36.2262C43.7798 36.3187 43.5533 36.388 43.3036 36.4343C43.0631 36.4805 42.7903 36.5036 42.4852 36.5036C42.0413 36.5036 41.6251 36.4435 41.2367 36.3233C40.8575 36.1938 40.5246 35.9904 40.2379 35.713C39.9605 35.4263 39.7386 35.0517 39.5721 34.5893C39.4056 34.127 39.3224 33.5628 39.3224 32.897C39.3224 31.741 39.5906 30.8532 40.127 30.2336C40.6726 29.614 41.3985 29.3042 42.3048 29.3042C42.7765 29.3042 43.1972 29.3875 43.5671 29.5539C43.9371 29.7111 44.2469 29.9423 44.4965 30.2475C44.7555 30.5434 44.9497 30.9041 45.0792 31.3295C45.2179 31.7457 45.2872 32.208 45.2872 32.7167V33.3132H40.7235ZM43.8862 32.3283C43.8677 32.1156 43.8492 31.9445 43.8307 31.815C43.8122 31.6763 43.766 31.5283 43.692 31.3711C43.5718 31.1029 43.3914 30.8902 43.151 30.733C42.9198 30.5666 42.6377 30.4833 42.3048 30.4833C41.9627 30.4833 41.6714 30.5666 41.4309 30.733C41.1997 30.8902 41.024 31.1029 40.9038 31.3711C40.8298 31.5283 40.7836 31.6763 40.7651 31.815C40.7466 31.9445 40.7327 32.1156 40.7235 32.3283H43.8862ZM50.4203 29.3042C50.781 29.3042 51.1093 29.3597 51.4052 29.4707C51.7011 29.5817 51.9462 29.7343 52.1404 29.9285C52.3068 30.1042 52.4409 30.303 52.5427 30.5249C52.6536 30.7469 52.7369 30.9873 52.7924 31.2463C52.8478 31.496 52.8848 31.7642 52.9033 32.0508C52.9218 32.3283 52.9311 32.6103 52.9311 32.897C52.9311 33.1837 52.9218 33.4704 52.9033 33.757C52.8848 34.0345 52.8478 34.3027 52.7924 34.5616C52.7369 34.8205 52.6536 35.061 52.5427 35.2829C52.4409 35.5049 52.3068 35.7037 52.1404 35.8794C51.9462 36.0736 51.7011 36.2262 51.4052 36.3372C51.1185 36.4482 50.7948 36.5036 50.4342 36.5036C50.055 36.5036 49.7175 36.4482 49.4215 36.3372C49.1256 36.2262 48.8482 36.0135 48.5892 35.6991V39.2641H47.1743V29.3875H48.5615V30.1365C48.8297 29.8129 49.1117 29.5955 49.4077 29.4846C49.7036 29.3644 50.0411 29.3042 50.4203 29.3042ZM50.0596 30.5666C49.736 30.5666 49.477 30.6313 49.2828 30.7608C49.0886 30.881 48.9407 31.0474 48.8389 31.2601C48.7372 31.4728 48.6678 31.7225 48.6308 32.0092C48.6031 32.2867 48.5892 32.5826 48.5892 32.897C48.5892 33.2114 48.6031 33.512 48.6308 33.7987C48.6678 34.0761 48.7372 34.3258 48.8389 34.5477C48.9407 34.7604 49.0886 34.9315 49.2828 35.061C49.477 35.1812 49.736 35.2413 50.0596 35.2413C50.3741 35.2413 50.6284 35.1812 50.8226 35.061C51.0168 34.9315 51.1647 34.7604 51.2665 34.5477C51.3682 34.3258 51.4329 34.0761 51.4607 33.7987C51.4977 33.512 51.5162 33.2114 51.5162 32.897C51.5162 32.5826 51.4977 32.2867 51.4607 32.0092C51.4329 31.7225 51.3682 31.4728 51.2665 31.2601C51.1647 31.0474 51.0168 30.881 50.8226 30.7608C50.6284 30.6313 50.3741 30.5666 50.0596 30.5666ZM57.4357 29.3042C57.9166 29.3042 58.3281 29.3828 58.6703 29.5401C59.0217 29.6973 59.313 29.8961 59.5442 30.1365C59.8771 30.488 60.099 30.8902 60.21 31.3434C60.321 31.7873 60.3765 32.3051 60.3765 32.897C60.3765 33.4981 60.321 34.0252 60.21 34.4784C60.099 34.9223 59.8771 35.3199 59.5442 35.6713C59.313 35.9118 59.0217 36.1106 58.6703 36.2678C58.3281 36.425 57.9166 36.5036 57.4357 36.5036C56.9548 36.5036 56.5433 36.425 56.2011 36.2678C55.8589 36.1106 55.5722 35.9118 55.3411 35.6713C55.0081 35.3199 54.7862 34.9223 54.6752 34.4784C54.5642 34.0252 54.5088 33.4981 54.5088 32.897C54.5088 32.3051 54.5642 31.7873 54.6752 31.3434C54.7862 30.8902 55.0081 30.488 55.3411 30.1365C55.5722 29.8961 55.8589 29.6973 56.2011 29.5401C56.5433 29.3828 56.9548 29.3042 57.4357 29.3042ZM57.4357 30.5666C57.0195 30.5666 56.6774 30.7007 56.4092 30.9688C56.1965 31.1815 56.0624 31.459 56.0069 31.8011C55.9514 32.1433 55.9237 32.5086 55.9237 32.897C55.9237 33.2854 55.9514 33.6507 56.0069 33.9929C56.0624 34.335 56.1965 34.6125 56.4092 34.8252C56.6866 35.1026 57.0288 35.2413 57.4357 35.2413C57.8518 35.2413 58.1986 35.1026 58.4761 34.8252C58.6887 34.6125 58.8228 34.335 58.8783 33.9929C58.9338 33.6507 58.9616 33.2854 58.9616 32.897C58.9616 32.5086 58.9338 32.1433 58.8783 31.8011C58.8228 31.459 58.6887 31.1815 58.4761 30.9688C58.2079 30.7007 57.8611 30.5666 57.4357 30.5666ZM64.6088 29.3042C65.1452 29.3042 65.6307 29.3644 66.0654 29.4846C66.5093 29.6048 66.893 29.8082 67.2167 30.0949L66.3289 30.9966C66.107 30.8116 65.8434 30.6822 65.5382 30.6082C65.2423 30.5249 64.9279 30.4833 64.595 30.4833C64.1603 30.4833 63.8367 30.5666 63.624 30.733C63.4205 30.8995 63.3188 31.1168 63.3188 31.385C63.3188 31.6254 63.3928 31.8104 63.5407 31.9399C63.6887 32.0693 63.9384 32.1526 64.2898 32.1896L65.2747 32.2728C66.0053 32.3375 66.5555 32.5317 66.9254 32.8554C67.3046 33.1791 67.4942 33.6507 67.4942 34.2703C67.4942 34.6402 67.4202 34.9639 67.2722 35.2413C67.1242 35.5188 66.9208 35.7546 66.6619 35.9488C66.4029 36.1337 66.0931 36.2724 65.7325 36.3649C65.3718 36.4574 64.9834 36.5036 64.5672 36.5036C63.9939 36.5036 63.4621 36.4389 62.972 36.3094C62.4819 36.1707 62.0287 35.8979 61.6126 35.491L62.542 34.5616C62.8286 34.8575 63.1477 35.0564 63.4991 35.1581C63.8598 35.2506 64.2158 35.2968 64.5672 35.2968C65.0111 35.2968 65.3764 35.2182 65.6631 35.061C65.959 34.9038 66.107 34.6587 66.107 34.3258C66.107 34.0853 66.033 33.8958 65.885 33.757C65.7463 33.6183 65.5059 33.5305 65.1637 33.4935L64.0401 33.3964C63.3743 33.3317 62.861 33.1467 62.5004 32.8415C62.1397 32.5363 61.9594 32.074 61.9594 31.4544C61.9594 31.1122 62.0287 30.807 62.1674 30.5388C62.3061 30.2706 62.4957 30.0441 62.7362 29.8591C62.9766 29.6742 63.254 29.5354 63.5685 29.443C63.8921 29.3505 64.2389 29.3042 64.6088 29.3042ZM70.6295 36.4204H69.2146V29.3875H70.6295V36.4204ZM70.6711 28.0003H69.173V26.5022H70.6711V28.0003ZM74.4535 29.3875H75.8129V30.4695H74.4535V34.3951C74.4535 34.9408 74.7124 35.2136 75.2303 35.2136H75.8129V36.4204H74.9668C74.6338 36.4204 74.3472 36.3695 74.1067 36.2678C73.8663 36.1568 73.6674 36.0135 73.5102 35.8378C73.353 35.6528 73.2328 35.4448 73.1496 35.2136C73.0756 34.9731 73.0386 34.7234 73.0386 34.4645V30.4695H72.234V29.3875H73.0386V27.3761H74.4535V29.3875Z"
    fill="black" />
  <ellipse cx="52.5838" cy="127.425" rx="38.8407" ry="38.8407" fill="url(#paint1_linear_8814_7088)"
    fill-opacity="0.45" />
  <path
    d="M37.3856 112.052C38.1846 112.052 38.8671 112.158 39.4331 112.369C40.0101 112.58 40.5539 112.924 41.0644 113.401L39.9325 114.533C39.5662 114.178 39.1667 113.939 38.7339 113.817C38.3011 113.684 37.8295 113.617 37.319 113.617C36.6199 113.617 36.0872 113.789 35.721 114.133C35.3548 114.477 35.1717 114.921 35.1717 115.465C35.1717 115.687 35.205 115.892 35.2716 116.081C35.3382 116.269 35.4491 116.43 35.6045 116.564C35.7599 116.697 35.9319 116.808 36.1205 116.896C36.3203 116.974 36.5811 117.041 36.9029 117.096L38.3178 117.313C38.8616 117.401 39.2999 117.512 39.6328 117.645C39.9657 117.779 40.2598 117.962 40.5151 118.195C41.1587 118.783 41.4805 119.593 41.4805 120.625C41.4805 121.169 41.3751 121.657 41.1643 122.09C40.9534 122.523 40.6593 122.889 40.282 123.189C39.9047 123.488 39.4553 123.716 38.9337 123.871C38.4121 124.026 37.8406 124.104 37.2192 124.104C36.3203 124.104 35.5379 123.988 34.8721 123.755C34.2173 123.522 33.6014 123.116 33.0244 122.539L34.2062 121.358C34.639 121.79 35.1051 122.09 35.6045 122.256C36.1039 122.423 36.6532 122.506 37.2524 122.506C38.0404 122.506 38.6452 122.351 39.0669 122.04C39.4886 121.718 39.6994 121.263 39.6994 120.675C39.6994 120.12 39.544 119.71 39.2333 119.443C38.9448 119.188 38.512 119.022 37.9349 118.944L36.5367 118.744C35.549 118.589 34.8055 118.272 34.3061 117.795C33.7179 117.263 33.4239 116.502 33.4239 115.515C33.4239 115.004 33.5126 114.538 33.6902 114.117C33.8789 113.684 34.1396 113.318 34.4726 113.018C34.8166 112.707 35.2327 112.469 35.721 112.302C36.2093 112.136 36.7642 112.052 37.3856 112.052ZM47.7202 112.052C48.3749 112.052 48.952 112.158 49.4514 112.369C49.9507 112.568 50.3946 112.863 50.7831 113.251C51.0716 113.539 51.2935 113.839 51.4489 114.15C51.6154 114.461 51.7374 114.805 51.8151 115.182C51.8928 115.548 51.9372 115.97 51.9483 116.447C51.9705 116.913 51.9816 117.457 51.9816 118.078C51.9816 118.7 51.9705 119.249 51.9483 119.726C51.9372 120.192 51.8928 120.614 51.8151 120.991C51.7374 121.358 51.6154 121.696 51.4489 122.007C51.2935 122.317 51.0716 122.617 50.7831 122.906C50.3946 123.294 49.9507 123.594 49.4514 123.805C48.952 124.004 48.3749 124.104 47.7202 124.104C47.0654 124.104 46.4884 124.004 45.989 123.805C45.4896 123.594 45.0457 123.294 44.6573 122.906C44.3688 122.617 44.1413 122.317 43.9748 122.007C43.8195 121.696 43.7029 121.358 43.6253 120.991C43.5476 120.614 43.4976 120.192 43.4755 119.726C43.4644 119.249 43.4588 118.7 43.4588 118.078C43.4588 117.457 43.4644 116.913 43.4755 116.447C43.4976 115.97 43.5476 115.548 43.6253 115.182C43.7029 114.805 43.8195 114.461 43.9748 114.15C44.1413 113.839 44.3688 113.539 44.6573 113.251C45.0457 112.863 45.4896 112.568 45.989 112.369C46.4884 112.158 47.0654 112.052 47.7202 112.052ZM47.7202 113.667C46.9989 113.667 46.4107 113.906 45.9557 114.383C45.8114 114.538 45.6894 114.71 45.5895 114.899C45.5007 115.088 45.4286 115.321 45.3731 115.598C45.3287 115.864 45.2954 116.197 45.2732 116.597C45.2621 116.996 45.2566 117.49 45.2566 118.078C45.2566 118.666 45.2621 119.16 45.2732 119.56C45.2954 119.948 45.3287 120.281 45.3731 120.559C45.4286 120.836 45.5007 121.069 45.5895 121.258C45.6894 121.435 45.8114 121.602 45.9557 121.757C46.4218 122.245 47.01 122.489 47.7202 122.489C48.4304 122.489 49.0186 122.245 49.4847 121.757C49.6289 121.602 49.7454 121.435 49.8342 121.258C49.9341 121.069 50.0062 120.842 50.0506 120.575C50.1061 120.298 50.1394 119.959 50.1505 119.56C50.1727 119.16 50.1838 118.666 50.1838 118.078C50.1838 117.49 50.1727 116.996 50.1505 116.597C50.1394 116.197 50.1061 115.859 50.0506 115.581C50.0062 115.304 49.9341 115.076 49.8342 114.899C49.7454 114.71 49.6289 114.538 49.4847 114.383C49.0297 113.906 48.4415 113.667 47.7202 113.667ZM62.2269 113.767H56.4508V117.379H61.378V118.994H56.4508V124.004H54.653V112.152H62.2269V113.767ZM72.1211 124.004H70.2069L69.3912 121.624H64.7137L63.898 124.004H61.9837L66.3283 112.152H67.7765L72.1211 124.004ZM65.2297 120.092H68.8752L67.0441 114.832L65.2297 120.092ZM33.6165 132.152H35.4808L38.2108 140.792L40.9407 132.152H42.8051L38.8932 144.004H37.5116L33.6165 132.152ZM46.3243 135.465C47.5006 135.465 48.3717 135.709 48.9377 136.197C49.5147 136.686 49.8033 137.407 49.8033 138.361V144.004H48.1387V143.239C47.8279 143.549 47.5061 143.771 47.1732 143.904C46.8403 144.038 46.413 144.104 45.8915 144.104C45.3588 144.104 44.9093 144.043 44.5431 143.921C44.188 143.788 43.8828 143.594 43.6276 143.338C43.1837 142.872 42.9618 142.268 42.9618 141.524C42.9618 140.814 43.2059 140.231 43.6942 139.776C44.1825 139.321 44.9149 139.094 45.8915 139.094H48.1054V138.494C48.1054 137.951 47.9611 137.551 47.6726 137.296C47.3952 137.041 46.9235 136.913 46.2577 136.913C45.8027 136.913 45.442 136.98 45.1757 137.113C44.9093 137.235 44.6541 137.446 44.41 137.745L43.3113 136.697C43.5111 136.464 43.7108 136.269 43.9106 136.114C44.1214 135.959 44.3434 135.831 44.5764 135.731C44.8206 135.631 45.0814 135.565 45.3588 135.531C45.6473 135.487 45.9691 135.465 46.3243 135.465ZM46.1578 140.276C45.1257 140.276 44.6097 140.681 44.6097 141.491C44.6097 141.879 44.7318 142.179 44.9759 142.39C45.2312 142.589 45.6418 142.689 46.2077 142.689C46.5074 142.689 46.7793 142.661 47.0234 142.606C47.2786 142.551 47.5172 142.417 47.7392 142.207C47.9833 141.973 48.1054 141.557 48.1054 140.958V140.276H46.1578ZM59.1795 144.004H57.5149V143.155C57.2264 143.477 56.8824 143.716 56.4829 143.871C56.0945 144.026 55.6894 144.104 55.2677 144.104C54.8349 144.104 54.441 144.038 54.0859 143.904C53.7418 143.771 53.4422 143.583 53.187 143.338C52.8651 143.017 52.6432 142.661 52.5211 142.273C52.3991 141.874 52.338 141.435 52.338 140.958V135.565H54.0359V140.708C54.0359 141.363 54.1968 141.84 54.5186 142.14C54.8516 142.44 55.2566 142.589 55.7338 142.589C55.9668 142.589 56.1888 142.556 56.3996 142.489C56.6216 142.412 56.8102 142.295 56.9656 142.14C57.121 141.985 57.243 141.79 57.3318 141.557C57.4317 141.313 57.4816 141.03 57.4816 140.708V135.565H59.1795V144.004ZM63.5301 141.291C63.5301 141.746 63.5967 142.062 63.7299 142.24C63.863 142.406 64.1016 142.489 64.4456 142.489H65.1947V144.004H64.2625C62.6423 144.004 61.8322 143.133 61.8322 141.391V132.152H63.5301V141.291ZM68.8191 135.565H70.4504V136.863H68.8191V141.574C68.8191 142.229 69.1298 142.556 69.7513 142.556H70.4504V144.004H69.435C69.0355 144.004 68.6915 143.943 68.403 143.821C68.1144 143.688 67.8758 143.516 67.6872 143.305C67.4985 143.083 67.3543 142.834 67.2544 142.556C67.1656 142.268 67.1212 141.968 67.1212 141.657V136.863H66.1558V135.565H67.1212V133.151H68.8191V135.565Z"
    fill="black" />
  <path
    d="M195 120.487L199.004 113.551L190.996 113.551L195 120.487ZM195.694 116.266L195.694 113.453L194.306 113.453L194.306 116.266L195.694 116.266ZM195.694 110.639L195.694 107.825L194.306 107.825L194.306 110.639L195.694 110.639ZM195.694 105.012L195.694 102.198L194.306 102.198L194.306 105.012L195.694 105.012ZM195.694 99.3843L195.694 96.5706L194.306 96.5706L194.306 99.3843L195.694 99.3843ZM195.694 93.757L195.694 90.9433L194.306 90.9433L194.306 93.757L195.694 93.757ZM195.694 88.1296L195.694 85.316L194.306 85.316L194.306 88.1296L195.694 88.1296ZM195.694 82.5023L195.694 79.6886L194.306 79.6886L194.306 82.5023L195.694 82.5023ZM195.694 76.875L195.694 74.0613L194.306 74.0613L194.306 76.875L195.694 76.875ZM195.694 71.2476L195.694 69.8408L194.306 69.8408L194.306 71.2476L195.694 71.2476Z"
    fill="#43AF10" />
  <g filter="url(#filter2_b_8814_7088)">
    <path
      d="M137 59C137 61.2091 138.791 63 141 63L249 63C251.209 63 253 61.2092 253 59L253 27C253 24.7909 251.209 23 249 23L141 23C138.791 23 137 24.7909 137 27L137 59Z"
      fill="#44C476" fill-opacity="0.12" />
  </g>
  <path
    d="M179.696 47.3853H185.406V49H177.898V37.148H179.696V47.3853ZM189.255 49H187.457V37.148H189.255V49ZM196.511 37.148C197.255 37.148 197.893 37.2701 198.426 37.5143C198.969 37.7473 199.452 38.1246 199.874 38.6462C200.085 38.9125 200.251 39.2066 200.373 39.5284C200.495 39.8391 200.584 40.1776 200.64 40.5438C200.706 40.91 200.745 41.304 200.756 41.7257C200.767 42.1474 200.773 42.5968 200.773 43.074C200.773 43.5512 200.767 44.0006 200.756 44.4223C200.745 44.844 200.706 45.238 200.64 45.6042C200.584 45.9704 200.495 46.3144 200.373 46.6363C200.251 46.947 200.085 47.2355 199.874 47.5019C199.452 48.0234 198.969 48.4063 198.426 48.6504C197.893 48.8835 197.255 49 196.511 49H192.35V37.148H196.511ZM194.148 38.7627V47.3853H196.312C196.733 47.3853 197.111 47.3243 197.444 47.2022C197.788 47.0802 198.087 46.8749 198.342 46.5863C198.631 46.2645 198.809 45.8206 198.875 45.2546C198.942 44.6887 198.975 43.9618 198.975 43.074C198.975 42.1862 198.942 41.4594 198.875 40.8934C198.809 40.3274 198.631 39.8835 198.342 39.5617C198.087 39.2732 197.788 39.0679 197.444 38.9458C197.111 38.8237 196.733 38.7627 196.312 38.7627H194.148ZM207.265 37.0482C207.92 37.0482 208.497 37.1536 208.996 37.3644C209.496 37.5642 209.939 37.8583 210.328 38.2467C210.616 38.5352 210.838 38.8348 210.994 39.1456C211.16 39.4563 211.282 39.8003 211.36 40.1776C211.438 40.5438 211.482 40.9655 211.493 41.4427C211.515 41.9088 211.526 42.4526 211.526 43.074C211.526 43.6955 211.515 44.2448 211.493 44.722C211.482 45.1881 211.438 45.6098 211.36 45.9871C211.282 46.3533 211.16 46.6918 210.994 47.0025C210.838 47.3132 210.616 47.6128 210.328 47.9014C209.939 48.2898 209.496 48.5894 208.996 48.8002C208.497 49 207.92 49.0999 207.265 49.0999C206.61 49.0999 206.033 49 205.534 48.8002C205.034 48.5894 204.59 48.2898 204.202 47.9014C203.914 47.6128 203.686 47.3132 203.52 47.0025C203.364 46.6918 203.248 46.3533 203.17 45.9871C203.092 45.6098 203.042 45.1881 203.02 44.722C203.009 44.2448 203.004 43.6955 203.004 43.074C203.004 42.4526 203.009 41.9088 203.02 41.4427C203.042 40.9655 203.092 40.5438 203.17 40.1776C203.248 39.8003 203.364 39.4563 203.52 39.1456C203.686 38.8348 203.914 38.5352 204.202 38.2467C204.59 37.8583 205.034 37.5642 205.534 37.3644C206.033 37.1536 206.61 37.0482 207.265 37.0482ZM207.265 38.6628C206.544 38.6628 205.955 38.9014 205.5 39.3786C205.356 39.534 205.234 39.706 205.134 39.8946C205.045 40.0833 204.973 40.3163 204.918 40.5938C204.873 40.8601 204.84 41.193 204.818 41.5925C204.807 41.992 204.801 42.4859 204.801 43.074C204.801 43.6622 204.807 44.156 204.818 44.5555C204.84 44.9439 204.873 45.2768 204.918 45.5543C204.973 45.8317 205.045 46.0648 205.134 46.2534C205.234 46.431 205.356 46.5974 205.5 46.7528C205.967 47.2411 206.555 47.4852 207.265 47.4852C207.975 47.4852 208.563 47.2411 209.029 46.7528C209.174 46.5974 209.29 46.431 209.379 46.2534C209.479 46.0648 209.551 45.8373 209.595 45.5709C209.651 45.2935 209.684 44.955 209.695 44.5555C209.717 44.156 209.729 43.6622 209.729 43.074C209.729 42.4859 209.717 41.992 209.695 41.5925C209.684 41.193 209.651 40.8546 209.595 40.5771C209.551 40.2997 209.479 40.0722 209.379 39.8946C209.29 39.706 209.174 39.534 209.029 39.3786C208.574 38.9014 207.986 38.6628 207.265 38.6628Z"
    fill="black" />
  <path
    d="M345.674 160.148C346.784 160.148 347.655 160.437 348.288 161.014C348.931 161.591 349.253 162.384 349.253 163.394C349.253 163.716 349.203 164.015 349.103 164.293C349.015 164.559 348.892 164.803 348.737 165.025C348.593 165.236 348.426 165.419 348.238 165.575C348.049 165.719 347.855 165.83 347.655 165.908C347.888 165.996 348.11 166.124 348.321 166.29C348.532 166.446 348.72 166.634 348.887 166.856C349.053 167.078 349.187 167.339 349.286 167.639C349.386 167.938 349.436 168.277 349.436 168.654C349.436 169.198 349.347 169.681 349.17 170.102C348.992 170.513 348.743 170.863 348.421 171.151C348.11 171.428 347.733 171.639 347.289 171.784C346.856 171.928 346.379 172 345.857 172H341.063V160.148H345.674ZM342.861 166.773V170.385H345.691C346.323 170.385 346.806 170.219 347.139 169.886C347.472 169.542 347.639 169.104 347.639 168.571C347.639 168.038 347.472 167.605 347.139 167.273C346.806 166.94 346.323 166.773 345.691 166.773H342.861ZM342.861 161.763V165.158H345.524C346.102 165.158 346.568 165.014 346.923 164.726C347.278 164.437 347.455 164.015 347.455 163.461C347.455 162.906 347.278 162.484 346.923 162.196C346.568 161.907 346.102 161.763 345.524 161.763H342.861ZM354.631 163.461C355.808 163.461 356.679 163.705 357.245 164.193C357.822 164.681 358.11 165.403 358.11 166.357V172H356.446V171.234C356.135 171.545 355.813 171.767 355.48 171.9C355.147 172.033 354.72 172.1 354.198 172.1C353.666 172.1 353.216 172.039 352.85 171.917C352.495 171.784 352.19 171.589 351.935 171.334C351.491 170.868 351.269 170.263 351.269 169.52C351.269 168.81 351.513 168.227 352.001 167.772C352.489 167.317 353.222 167.089 354.198 167.089H356.412V166.49C356.412 165.946 356.268 165.547 355.98 165.292C355.702 165.036 355.231 164.909 354.565 164.909C354.11 164.909 353.749 164.975 353.483 165.109C353.216 165.231 352.961 165.441 352.717 165.741L351.618 164.692C351.818 164.459 352.018 164.265 352.218 164.11C352.428 163.954 352.65 163.827 352.883 163.727C353.128 163.627 353.388 163.56 353.666 163.527C353.954 163.483 354.276 163.461 354.631 163.461ZM354.465 168.271C353.433 168.271 352.917 168.676 352.917 169.486C352.917 169.875 353.039 170.174 353.283 170.385C353.538 170.585 353.949 170.685 354.515 170.685C354.814 170.685 355.086 170.657 355.33 170.602C355.586 170.546 355.824 170.413 356.046 170.202C356.29 169.969 356.412 169.553 356.412 168.954V168.271H354.465ZM363.508 163.461C364.152 163.461 364.734 163.533 365.256 163.677C365.789 163.821 366.249 164.065 366.638 164.409L365.572 165.491C365.306 165.269 364.99 165.114 364.623 165.025C364.268 164.925 363.891 164.876 363.491 164.876C362.97 164.876 362.581 164.975 362.326 165.175C362.082 165.375 361.96 165.636 361.96 165.957C361.96 166.246 362.049 166.468 362.226 166.623C362.404 166.779 362.704 166.879 363.125 166.923L364.307 167.023C365.184 167.101 365.844 167.334 366.288 167.722C366.743 168.11 366.97 168.676 366.97 169.42C366.97 169.864 366.882 170.252 366.704 170.585C366.527 170.918 366.282 171.201 365.972 171.434C365.661 171.656 365.289 171.822 364.856 171.933C364.424 172.044 363.958 172.1 363.458 172.1C362.77 172.1 362.132 172.022 361.544 171.867C360.956 171.7 360.412 171.373 359.913 170.885L361.028 169.769C361.372 170.125 361.755 170.363 362.176 170.485C362.609 170.596 363.036 170.652 363.458 170.652C363.991 170.652 364.429 170.557 364.773 170.369C365.128 170.18 365.306 169.886 365.306 169.486C365.306 169.198 365.217 168.97 365.04 168.804C364.873 168.638 364.585 168.532 364.174 168.488L362.826 168.371C362.027 168.293 361.411 168.072 360.978 167.705C360.545 167.339 360.329 166.784 360.329 166.041C360.329 165.63 360.412 165.264 360.578 164.942C360.745 164.62 360.972 164.348 361.261 164.126C361.549 163.904 361.882 163.738 362.26 163.627C362.648 163.516 363.064 163.461 363.508 163.461ZM370.283 168.271C370.283 169.004 370.467 169.581 370.833 170.002C371.199 170.424 371.732 170.635 372.431 170.635C372.908 170.635 373.291 170.568 373.579 170.435C373.879 170.291 374.179 170.069 374.478 169.769L375.56 170.785C375.338 171.007 375.116 171.201 374.894 171.367C374.684 171.523 374.45 171.656 374.195 171.767C373.951 171.878 373.679 171.961 373.38 172.017C373.091 172.072 372.764 172.1 372.397 172.1C371.865 172.1 371.365 172.028 370.899 171.883C370.444 171.728 370.045 171.484 369.701 171.151C369.368 170.807 369.102 170.358 368.902 169.803C368.702 169.248 368.602 168.571 368.602 167.772C368.602 166.385 368.924 165.319 369.568 164.576C370.222 163.832 371.094 163.461 372.181 163.461C372.747 163.461 373.252 163.56 373.696 163.76C374.14 163.949 374.512 164.226 374.811 164.593C375.122 164.948 375.355 165.38 375.51 165.891C375.677 166.39 375.76 166.945 375.76 167.556V168.271H370.283ZM374.079 167.089C374.057 166.834 374.034 166.629 374.012 166.474C373.99 166.307 373.934 166.13 373.846 165.941C373.701 165.619 373.485 165.364 373.196 165.175C372.919 164.975 372.581 164.876 372.181 164.876C371.77 164.876 371.421 164.975 371.132 165.175C370.855 165.364 370.644 165.619 370.5 165.941C370.411 166.13 370.356 166.307 370.333 166.474C370.311 166.629 370.295 166.834 370.283 167.089H374.079Z"
    fill="#44C476" />
  <defs>
    <filter id="filter0_b_8814_7088" x="-55.4867" y="-55.4867" width="526.973" height="296.973"
      filterUnits="userSpaceOnUse" color-interpolation-filters="sRGB">
      <feFlood flood-opacity="0" result="BackgroundImageFix" />
      <feGaussianBlur in="BackgroundImageFix" stdDeviation="27.7433" />
      <feComposite in2="SourceAlpha" operator="in" result="effect1_backgroundBlur_8814_7088" />
      <feBlend mode="normal" in="SourceGraphic" in2="effect1_backgroundBlur_8814_7088"
        result="shape" />
    </filter>
    <filter id="filter1_b_8814_7088" x="244.418" y="-55.4867" width="226.973" height="216.973"
      filterUnits="userSpaceOnUse" color-interpolation-filters="sRGB">
      <feFlood flood-opacity="0" result="BackgroundImageFix" />
      <feGaussianBlur in="BackgroundImageFix" stdDeviation="27.7433" />
      <feComposite in2="SourceAlpha" operator="in" result="effect1_backgroundBlur_8814_7088" />
      <feBlend mode="normal" in="SourceGraphic" in2="effect1_backgroundBlur_8814_7088"
        result="shape" />
    </filter>
    <filter id="filter2_b_8814_7088" x="81.5133" y="-32.4867" width="226.973" height="150.973"
      filterUnits="userSpaceOnUse" color-interpolation-filters="sRGB">
      <feFlood flood-opacity="0" result="BackgroundImageFix" />
      <feGaussianBlur in="BackgroundImageFix" stdDeviation="27.7433" />
      <feComposite in2="SourceAlpha" operator="in" result="effect1_backgroundBlur_8814_7088" />
      <feBlend mode="normal" in="SourceGraphic" in2="effect1_backgroundBlur_8814_7088"
        result="shape" />
    </filter>
    <linearGradient id="paint0_linear_8814_7088" x1="366.009" y1="186" x2="366.009" y2="146"
      gradientUnits="userSpaceOnUse">
      <stop stop-color="#44C476" stop-opacity="0.08" />
      <stop offset="1" stop-color="#44C476" />
    </linearGradient>
    <linearGradient id="paint1_linear_8814_7088" x1="52.5838" y1="88.584" x2="52.5838" y2="166.265"
      gradientUnits="userSpaceOnUse">
      <stop stop-color="#44C476" stop-opacity="0.08" />
      <stop offset="1" stop-color="#44C476" />
    </linearGradient>
  </defs>
</svg>