<svg width="416" height="186" viewBox="0 0 416 186" fill="none" xmlns="http://www.w3.org/2000/svg">
  <g filter="url(#filter0_b_7303_27029)">
    <path d="M0 0H416V186H0V0Z" fill="#44C476" fill-opacity="0.12" />
  </g>
  <path
    d="M151.912 127.425L144.976 123.42L144.976 131.429L151.912 127.425ZM91.4249 128.118L145.669 128.118L145.669 126.731L91.4249 126.731L91.4249 128.118Z"
    fill="#43AF10" />
  <path
    d="M105.312 104.722C105.978 104.722 106.546 104.81 107.018 104.985C107.499 105.161 107.952 105.448 108.377 105.845L107.434 106.789C107.129 106.493 106.796 106.294 106.435 106.192C106.075 106.081 105.682 106.026 105.256 106.026C104.674 106.026 104.23 106.169 103.925 106.456C103.619 106.742 103.467 107.112 103.467 107.565C103.467 107.75 103.495 107.922 103.55 108.079C103.606 108.236 103.698 108.37 103.828 108.481C103.957 108.592 104.1 108.684 104.258 108.758C104.424 108.823 104.641 108.879 104.91 108.925L106.089 109.105C106.542 109.179 106.907 109.272 107.185 109.383C107.462 109.494 107.707 109.646 107.92 109.84C108.456 110.331 108.724 111.006 108.724 111.866C108.724 112.319 108.636 112.726 108.461 113.086C108.285 113.447 108.04 113.752 107.726 114.002C107.411 114.252 107.037 114.441 106.602 114.571C106.167 114.7 105.691 114.765 105.173 114.765C104.424 114.765 103.772 114.668 103.217 114.474C102.672 114.279 102.158 113.942 101.677 113.461L102.662 112.476C103.023 112.837 103.411 113.086 103.828 113.225C104.244 113.364 104.701 113.433 105.201 113.433C105.857 113.433 106.361 113.304 106.713 113.045C107.064 112.777 107.24 112.397 107.24 111.907C107.24 111.445 107.111 111.103 106.852 110.881C106.611 110.668 106.25 110.529 105.77 110.465L104.604 110.298C103.781 110.169 103.162 109.905 102.746 109.508C102.255 109.064 102.01 108.43 102.01 107.607C102.01 107.182 102.084 106.793 102.232 106.442C102.39 106.081 102.607 105.776 102.884 105.526C103.171 105.267 103.518 105.069 103.925 104.93C104.332 104.791 104.794 104.722 105.312 104.722ZM112.148 107.649H113.508V108.731H112.148V112.656C112.148 113.202 112.407 113.475 112.925 113.475H113.508V114.682H112.662C112.329 114.682 112.042 114.631 111.802 114.529C111.561 114.418 111.362 114.275 111.205 114.099C111.048 113.914 110.928 113.706 110.844 113.475C110.77 113.234 110.733 112.985 110.733 112.726V108.731H109.929V107.649H110.733V105.637H112.148V107.649ZM117.516 107.565C118.496 107.565 119.222 107.769 119.693 108.176C120.174 108.583 120.415 109.184 120.415 109.979V114.682H119.028V114.044C118.769 114.302 118.5 114.487 118.223 114.598C117.946 114.709 117.59 114.765 117.155 114.765C116.711 114.765 116.336 114.714 116.031 114.612C115.735 114.501 115.481 114.339 115.268 114.127C114.898 113.738 114.713 113.234 114.713 112.615C114.713 112.023 114.917 111.537 115.324 111.158C115.731 110.779 116.341 110.589 117.155 110.589H119V110.09C119 109.637 118.88 109.304 118.639 109.091C118.408 108.879 118.015 108.772 117.46 108.772C117.081 108.772 116.78 108.828 116.558 108.939C116.336 109.04 116.124 109.216 115.92 109.466L115.005 108.592C115.171 108.398 115.338 108.236 115.504 108.106C115.68 107.977 115.865 107.871 116.059 107.787C116.262 107.704 116.48 107.649 116.711 107.621C116.951 107.584 117.22 107.565 117.516 107.565ZM117.377 111.574C116.517 111.574 116.087 111.912 116.087 112.587C116.087 112.911 116.188 113.16 116.392 113.336C116.605 113.503 116.947 113.586 117.418 113.586C117.668 113.586 117.895 113.563 118.098 113.516C118.311 113.47 118.51 113.359 118.695 113.184C118.898 112.989 119 112.643 119 112.143V111.574H117.377ZM124.011 110.895L126.744 107.649H128.464L126.023 110.409L128.769 114.682H127.021L125.052 111.436L124.011 112.615V114.682H122.596V104.805H124.011V110.895ZM130.681 111.574C130.681 112.185 130.834 112.666 131.139 113.017C131.444 113.368 131.888 113.544 132.47 113.544C132.868 113.544 133.187 113.489 133.428 113.378C133.677 113.257 133.927 113.073 134.177 112.823L135.078 113.669C134.893 113.854 134.708 114.016 134.523 114.155C134.348 114.284 134.154 114.395 133.941 114.487C133.737 114.58 133.511 114.649 133.261 114.696C133.021 114.742 132.748 114.765 132.443 114.765C131.999 114.765 131.583 114.705 131.194 114.585C130.815 114.455 130.482 114.252 130.195 113.974C129.918 113.688 129.696 113.313 129.53 112.851C129.363 112.388 129.28 111.824 129.28 111.158C129.28 110.002 129.548 109.114 130.084 108.495C130.63 107.875 131.356 107.565 132.262 107.565C132.734 107.565 133.155 107.649 133.525 107.815C133.895 107.972 134.204 108.204 134.454 108.509C134.713 108.805 134.907 109.165 135.037 109.591C135.175 110.007 135.245 110.469 135.245 110.978V111.574H130.681ZM133.844 110.589C133.825 110.377 133.807 110.206 133.788 110.076C133.77 109.938 133.723 109.79 133.649 109.632C133.529 109.364 133.349 109.151 133.109 108.994C132.877 108.828 132.595 108.745 132.262 108.745C131.92 108.745 131.629 108.828 131.388 108.994C131.157 109.151 130.982 109.364 130.861 109.632C130.787 109.79 130.741 109.938 130.723 110.076C130.704 110.206 130.69 110.377 130.681 110.589H133.844Z"
    fill="black" />
  <path
    d="M235.231 114.682H233.733V104.805H235.231V114.682ZM240.904 107.565C241.264 107.565 241.588 107.621 241.875 107.732C242.171 107.843 242.425 108 242.638 108.204C242.906 108.472 243.091 108.772 243.193 109.105C243.294 109.429 243.345 109.79 243.345 110.187V114.682H241.93V110.395C241.93 109.85 241.791 109.452 241.514 109.202C241.246 108.953 240.913 108.828 240.515 108.828C240.118 108.828 239.775 108.957 239.489 109.216C239.202 109.466 239.059 109.859 239.059 110.395V114.682H237.644V107.649H239.031V108.356C239.271 108.088 239.554 107.889 239.877 107.76C240.21 107.63 240.552 107.565 240.904 107.565ZM247.109 107.649H248.469V108.731H247.109V112.656C247.109 113.202 247.368 113.475 247.886 113.475H248.469V114.682H247.623C247.29 114.682 247.003 114.631 246.763 114.529C246.522 114.418 246.323 114.275 246.166 114.099C246.009 113.914 245.889 113.706 245.805 113.475C245.731 113.234 245.694 112.985 245.694 112.726V108.731H244.89V107.649H245.694V105.637H247.109V107.649ZM251.242 111.574C251.242 112.185 251.394 112.666 251.7 113.017C252.005 113.368 252.449 113.544 253.031 113.544C253.429 113.544 253.748 113.489 253.988 113.378C254.238 113.257 254.488 113.073 254.738 112.823L255.639 113.669C255.454 113.854 255.269 114.016 255.084 114.155C254.909 114.284 254.714 114.395 254.502 114.487C254.298 114.58 254.072 114.649 253.822 114.696C253.582 114.742 253.309 114.765 253.004 114.765C252.56 114.765 252.144 114.705 251.755 114.585C251.376 114.455 251.043 114.252 250.756 113.974C250.479 113.688 250.257 113.313 250.091 112.851C249.924 112.388 249.841 111.824 249.841 111.158C249.841 110.002 250.109 109.114 250.645 108.495C251.191 107.875 251.917 107.565 252.823 107.565C253.295 107.565 253.716 107.649 254.086 107.815C254.456 107.972 254.765 108.204 255.015 108.509C255.274 108.805 255.468 109.165 255.598 109.591C255.736 110.007 255.806 110.469 255.806 110.978V111.574H251.242ZM254.405 110.589C254.386 110.377 254.368 110.206 254.349 110.076C254.331 109.938 254.284 109.79 254.21 109.632C254.09 109.364 253.91 109.151 253.669 108.994C253.438 108.828 253.156 108.745 252.823 108.745C252.481 108.745 252.19 108.828 251.949 108.994C251.718 109.151 251.542 109.364 251.422 109.632C251.348 109.79 251.302 109.938 251.284 110.076C251.265 110.206 251.251 110.377 251.242 110.589H254.405ZM260.953 107.565C261.295 107.565 261.6 107.616 261.868 107.718C262.136 107.82 262.391 107.991 262.631 108.231L261.563 109.299C261.406 109.142 261.249 109.027 261.091 108.953C260.943 108.869 260.749 108.828 260.509 108.828C260.12 108.828 259.787 108.971 259.51 109.258C259.242 109.535 259.108 109.919 259.108 110.409V114.682H257.693V107.649H259.08V108.412C259.265 108.162 259.524 107.959 259.857 107.801C260.19 107.644 260.555 107.565 260.953 107.565ZM264.409 111.574C264.409 112.185 264.562 112.666 264.867 113.017C265.172 113.368 265.616 113.544 266.199 113.544C266.596 113.544 266.915 113.489 267.156 113.378C267.405 113.257 267.655 113.073 267.905 112.823L268.806 113.669C268.622 113.854 268.437 114.016 268.252 114.155C268.076 114.284 267.882 114.395 267.669 114.487C267.466 114.58 267.239 114.649 266.989 114.696C266.749 114.742 266.476 114.765 266.171 114.765C265.727 114.765 265.311 114.705 264.922 114.585C264.543 114.455 264.21 114.252 263.924 113.974C263.646 113.688 263.424 113.313 263.258 112.851C263.091 112.388 263.008 111.824 263.008 111.158C263.008 110.002 263.276 109.114 263.813 108.495C264.358 107.875 265.084 107.565 265.991 107.565C266.462 107.565 266.883 107.649 267.253 107.815C267.623 107.972 267.933 108.204 268.182 108.509C268.441 108.805 268.635 109.165 268.765 109.591C268.904 110.007 268.973 110.469 268.973 110.978V111.574H264.409ZM267.572 110.589C267.553 110.377 267.535 110.206 267.516 110.076C267.498 109.938 267.452 109.79 267.378 109.632C267.257 109.364 267.077 109.151 266.837 108.994C266.605 108.828 266.323 108.745 265.991 108.745C265.648 108.745 265.357 108.828 265.117 108.994C264.885 109.151 264.71 109.364 264.589 109.632C264.515 109.79 264.469 109.938 264.451 110.076C264.432 110.206 264.418 110.377 264.409 110.589H267.572ZM273.177 107.565C273.713 107.565 274.198 107.626 274.633 107.746C275.077 107.866 275.461 108.069 275.784 108.356L274.897 109.258C274.675 109.073 274.411 108.943 274.106 108.869C273.81 108.786 273.496 108.745 273.163 108.745C272.728 108.745 272.404 108.828 272.192 108.994C271.988 109.161 271.887 109.378 271.887 109.646C271.887 109.887 271.961 110.072 272.108 110.201C272.256 110.331 272.506 110.414 272.858 110.451L273.842 110.534C274.573 110.599 275.123 110.793 275.493 111.117C275.872 111.44 276.062 111.912 276.062 112.532C276.062 112.901 275.988 113.225 275.84 113.503C275.692 113.78 275.489 114.016 275.23 114.21C274.971 114.395 274.661 114.534 274.3 114.626C273.94 114.719 273.551 114.765 273.135 114.765C272.562 114.765 272.03 114.7 271.54 114.571C271.05 114.432 270.596 114.159 270.18 113.752L271.11 112.823C271.396 113.119 271.715 113.318 272.067 113.419C272.428 113.512 272.784 113.558 273.135 113.558C273.579 113.558 273.944 113.479 274.231 113.322C274.527 113.165 274.675 112.92 274.675 112.587C274.675 112.347 274.601 112.157 274.453 112.018C274.314 111.88 274.074 111.792 273.731 111.755L272.608 111.658C271.942 111.593 271.429 111.408 271.068 111.103C270.707 110.798 270.527 110.335 270.527 109.716C270.527 109.373 270.596 109.068 270.735 108.8C270.874 108.532 271.063 108.305 271.304 108.12C271.544 107.935 271.822 107.797 272.136 107.704C272.46 107.612 272.807 107.565 273.177 107.565ZM279.255 107.649H280.615V108.731H279.255V112.656C279.255 113.202 279.514 113.475 280.032 113.475H280.615V114.682H279.769C279.436 114.682 279.149 114.631 278.909 114.529C278.668 114.418 278.469 114.275 278.312 114.099C278.155 113.914 278.035 113.706 277.951 113.475C277.877 113.234 277.84 112.985 277.84 112.726V108.731H277.036V107.649H277.84V105.637H279.255V107.649Z"
    fill="black" />
  <path
    d="M295.628 127.425L288.692 123.42L288.692 131.429L295.628 127.425ZM229.593 128.118L289.386 128.118L289.386 126.731L229.593 126.731L229.593 128.118Z"
    fill="#43AF10" />
  <path d="M300 186L416 186L416 120L300 120L300 186Z" fill="url(#paint0_linear_7303_27029)"
    fill-opacity="0.45" />
  <g filter="url(#filter1_b_7303_27029)">
    <path d="M300 120L416 120L416 1.92197e-05L300 -1.06233e-06L300 120Z" fill="#44C476"
      fill-opacity="0.12" />
  </g>
  <path
    d="M342.211 63.005C342.211 63.6153 342.1 64.1757 341.878 64.6862C341.667 65.1856 341.368 65.6128 340.979 65.9679C340.602 66.3231 340.153 66.6005 339.631 66.8002C339.109 67 338.549 67.0999 337.95 67.0999C337.351 67.0999 336.79 67 336.269 66.8002C335.747 66.6005 335.298 66.3231 334.92 65.9679C334.543 65.6128 334.243 65.1856 334.021 64.6862C333.811 64.1757 333.705 63.6153 333.705 63.005V55.148H335.503V62.9217C335.503 63.7207 335.725 64.3477 336.169 64.8027C336.613 65.2577 337.206 65.4852 337.95 65.4852C338.693 65.4852 339.287 65.2577 339.731 64.8027C340.186 64.3477 340.413 63.7207 340.413 62.9217V55.148H342.211V63.005ZM348.816 58.4606C349.249 58.4606 349.643 58.5272 349.998 58.6604C350.353 58.7935 350.647 58.9766 350.881 59.2097C351.08 59.4205 351.241 59.6591 351.363 59.9254C351.496 60.1918 351.596 60.4803 351.663 60.791C351.729 61.0907 351.774 61.4125 351.796 61.7565C351.818 62.0894 351.829 62.4279 351.829 62.7719C351.829 63.1159 351.818 63.4599 351.796 63.804C351.774 64.1369 351.729 64.4587 351.663 64.7694C351.596 65.0802 351.496 65.3687 351.363 65.635C351.241 65.9014 351.08 66.14 350.881 66.3508C350.647 66.5838 350.353 66.767 349.998 66.9001C349.654 67.0333 349.266 67.0999 348.833 67.0999C348.378 67.0999 347.973 67.0333 347.618 66.9001C347.263 66.767 346.93 66.5117 346.619 66.1344V70.4124H344.921V58.5605H346.586V59.4594C346.908 59.071 347.246 58.8102 347.601 58.677C347.956 58.5327 348.361 58.4606 348.816 58.4606ZM348.384 59.9754C347.995 59.9754 347.684 60.0531 347.451 60.2084C347.218 60.3527 347.041 60.5524 346.919 60.8077C346.797 61.0629 346.713 61.3626 346.669 61.7066C346.636 62.0395 346.619 62.3946 346.619 62.7719C346.619 63.1492 346.636 63.5099 346.669 63.8539C346.713 64.1868 346.797 64.4865 346.919 64.7528C347.041 65.008 347.218 65.2133 347.451 65.3687C347.684 65.513 347.995 65.5851 348.384 65.5851C348.761 65.5851 349.066 65.513 349.299 65.3687C349.532 65.2133 349.71 65.008 349.832 64.7528C349.954 64.4865 350.032 64.1868 350.065 63.8539C350.109 63.5099 350.131 63.1492 350.131 62.7719C350.131 62.3946 350.109 62.0395 350.065 61.7066C350.032 61.3626 349.954 61.0629 349.832 60.8077C349.71 60.5524 349.532 60.3527 349.299 60.2084C349.066 60.0531 348.761 59.9754 348.384 59.9754ZM356.902 58.4606C357.546 58.4606 358.128 58.5327 358.65 58.677C359.182 58.8213 359.643 59.0654 360.031 59.4094L358.966 60.4914C358.7 60.2695 358.383 60.1141 358.017 60.0253C357.662 59.9254 357.285 59.8755 356.885 59.8755C356.364 59.8755 355.975 59.9754 355.72 60.1751C355.476 60.3749 355.354 60.6357 355.354 60.9575C355.354 61.246 355.443 61.468 355.62 61.6233C355.798 61.7787 356.097 61.8786 356.519 61.923L357.701 62.0228C358.578 62.1005 359.238 62.3336 359.682 62.722C360.137 63.1104 360.364 63.6763 360.364 64.4199C360.364 64.8638 360.276 65.2522 360.098 65.5851C359.92 65.918 359.676 66.201 359.366 66.434C359.055 66.656 358.683 66.8224 358.25 66.9334C357.817 67.0444 357.351 67.0999 356.852 67.0999C356.164 67.0999 355.526 67.0222 354.938 66.8668C354.35 66.7004 353.806 66.373 353.306 65.8847L354.422 64.7694C354.766 65.1245 355.149 65.3631 355.57 65.4852C356.003 65.5962 356.43 65.6517 356.852 65.6517C357.385 65.6517 357.823 65.5573 358.167 65.3687C358.522 65.18 358.7 64.886 358.7 64.4865C358.7 64.1979 358.611 63.9704 358.433 63.804C358.267 63.6375 357.978 63.5321 357.568 63.4877L356.219 63.3712C355.42 63.2935 354.805 63.0715 354.372 62.7053C353.939 62.3391 353.723 61.7843 353.723 61.0407C353.723 60.6301 353.806 60.2639 353.972 59.9421C354.139 59.6203 354.366 59.3484 354.655 59.1264C354.943 58.9045 355.276 58.738 355.653 58.6271C356.042 58.5161 356.458 58.4606 356.902 58.4606ZM364.127 67H362.429V58.5605H364.127V67ZM364.177 56.8959H362.379V55.0981H364.177V56.8959ZM373.326 67H371.662V66.1011C371.34 66.4895 371.002 66.7559 370.646 66.9001C370.291 67.0333 369.886 67.0999 369.431 67.0999C368.999 67.0999 368.605 67.0333 368.249 66.9001C367.894 66.767 367.6 66.5838 367.367 66.3508C367.167 66.14 367.001 65.9014 366.868 65.635C366.746 65.3687 366.651 65.0857 366.585 64.7861C366.518 64.4754 366.474 64.1535 366.452 63.8206C366.429 63.4766 366.418 63.1326 366.418 62.7886C366.418 62.4445 366.429 62.1061 366.452 61.7732C366.474 61.4291 366.518 61.1018 366.585 60.791C366.651 60.4803 366.746 60.1918 366.868 59.9254C367.001 59.6591 367.167 59.4205 367.367 59.2097C367.6 58.9766 367.889 58.7935 368.233 58.6604C368.588 58.5272 368.982 58.4606 369.415 58.4606C369.87 58.4606 370.275 58.5272 370.63 58.6604C370.985 58.7935 371.318 59.0488 371.629 59.4261V55.148H373.326V67ZM369.864 59.9754C369.476 59.9754 369.165 60.0531 368.932 60.2084C368.71 60.3638 368.538 60.5691 368.416 60.8243C368.294 61.0796 368.211 61.3792 368.166 61.7232C368.133 62.0561 368.116 62.4113 368.116 62.7886C368.116 63.1659 368.133 63.5265 368.166 63.8706C368.211 64.2035 368.294 64.4976 368.416 64.7528C368.538 65.008 368.71 65.2133 368.932 65.3687C369.165 65.513 369.476 65.5851 369.864 65.5851C370.253 65.5851 370.563 65.513 370.796 65.3687C371.029 65.2133 371.207 65.008 371.329 64.7528C371.451 64.4976 371.529 64.2035 371.562 63.8706C371.606 63.5265 371.629 63.1659 371.629 62.7886C371.629 62.4113 371.606 62.0561 371.562 61.7232C371.529 61.3792 371.451 61.0796 371.329 60.8243C371.207 60.5691 371.029 60.3638 370.796 60.2084C370.563 60.0531 370.253 59.9754 369.864 59.9754ZM377.267 63.2713C377.267 64.0037 377.45 64.5808 377.816 65.0025C378.183 65.4242 378.715 65.635 379.414 65.635C379.892 65.635 380.275 65.5684 380.563 65.4353C380.863 65.291 381.162 65.0691 381.462 64.7694L382.544 65.7848C382.322 66.0068 382.1 66.201 381.878 66.3675C381.667 66.5228 381.434 66.656 381.179 66.767C380.935 66.8779 380.663 66.9612 380.363 67.0166C380.075 67.0721 379.747 67.0999 379.381 67.0999C378.849 67.0999 378.349 67.0277 377.883 66.8835C377.428 66.7281 377.029 66.484 376.685 66.1511C376.352 65.807 376.085 65.3576 375.886 64.8027C375.686 64.2479 375.586 63.5709 375.586 62.7719C375.586 61.3847 375.908 60.3194 376.551 59.5759C377.206 58.8324 378.077 58.4606 379.165 58.4606C379.731 58.4606 380.236 58.5605 380.68 58.7602C381.123 58.9489 381.495 59.2263 381.795 59.5925C382.106 59.9476 382.339 60.3804 382.494 60.8909C382.66 61.3903 382.744 61.9452 382.744 62.5555V63.2713H377.267ZM381.062 62.0894C381.04 61.8342 381.018 61.6289 380.996 61.4735C380.974 61.3071 380.918 61.1295 380.829 60.9409C380.685 60.619 380.469 60.3638 380.18 60.1751C379.903 59.9754 379.564 59.8755 379.165 59.8755C378.754 59.8755 378.405 59.9754 378.116 60.1751C377.839 60.3638 377.628 60.619 377.484 60.9409C377.395 61.1295 377.339 61.3071 377.317 61.4735C377.295 61.6289 377.278 61.8342 377.267 62.0894H381.062Z"
    fill="black" />
  <path
    d="M52.5845 77.4863L56.5889 70.5505L48.5801 70.5505L52.5845 77.4863ZM51.8909 40.8403L51.8909 71.2441L53.2781 71.2441L53.2781 40.8403L51.8909 40.8403Z"
    fill="#43AF10" />
  <path
    d="M20.8517 36.4199H19.3536V26.5433H20.8517V36.4199ZM26.5245 29.3038C26.8852 29.3038 27.2088 29.3592 27.4955 29.4702C27.7914 29.5812 28.0458 29.7384 28.2585 29.9419C28.5266 30.21 28.7116 30.5106 28.8133 30.8435C28.9151 31.1672 28.9659 31.5278 28.9659 31.9255V36.4199H27.551V32.1336C27.551 31.588 27.4123 31.1903 27.1349 30.9406C26.8667 30.6909 26.5337 30.5661 26.1361 30.5661C25.7384 30.5661 25.3963 30.6955 25.1096 30.9545C24.8229 31.2042 24.6796 31.5972 24.6796 32.1336V36.4199H23.2647V29.387H24.6518V30.0944C24.8923 29.8263 25.1743 29.6274 25.498 29.498C25.8309 29.3685 26.1731 29.3038 26.5245 29.3038ZM33.8676 36.4199H32.7162L30.1361 29.387H31.6343L33.2989 34.3392L34.9496 29.387H36.4477L33.8676 36.4199ZM38.5831 33.3127C38.5831 33.923 38.7357 34.4039 39.0409 34.7553C39.346 35.1067 39.7899 35.2824 40.3725 35.2824C40.7702 35.2824 41.0892 35.227 41.3297 35.116C41.5794 34.9958 41.8291 34.8108 42.0788 34.5611L42.9804 35.4073C42.7955 35.5922 42.6105 35.7541 42.4256 35.8928C42.2498 36.0223 42.0556 36.1332 41.8429 36.2257C41.6395 36.3182 41.4129 36.3876 41.1632 36.4338C40.9228 36.48 40.65 36.5032 40.3448 36.5032C39.9009 36.5032 39.4848 36.443 39.0964 36.3228C38.7172 36.1934 38.3843 35.9899 38.0976 35.7125C37.8202 35.4258 37.5982 35.0513 37.4318 34.5889C37.2653 34.1265 37.1821 33.5624 37.1821 32.8965C37.1821 31.7405 37.4502 30.8528 37.9866 30.2332C38.5322 29.6136 39.2582 29.3038 40.1645 29.3038C40.6361 29.3038 41.0569 29.387 41.4268 29.5534C41.7967 29.7107 42.1065 29.9419 42.3562 30.247C42.6151 30.543 42.8093 30.9036 42.9388 31.329C43.0775 31.7452 43.1469 32.2076 43.1469 32.7162V33.3127H38.5831ZM41.7458 32.3278C41.7273 32.1151 41.7089 31.944 41.6904 31.8145C41.6719 31.6758 41.6256 31.5278 41.5516 31.3706C41.4314 31.1024 41.2511 30.8897 41.0106 30.7325C40.7794 30.5661 40.4974 30.4828 40.1645 30.4828C39.8223 30.4828 39.531 30.5661 39.2906 30.7325C39.0594 30.8897 38.8837 31.1024 38.7634 31.3706C38.6894 31.5278 38.6432 31.6758 38.6247 31.8145C38.6062 31.944 38.5923 32.1151 38.5831 32.3278H41.7458ZM47.3505 29.3038C47.8869 29.3038 48.3724 29.3639 48.8071 29.4841C49.251 29.6043 49.6347 29.8078 49.9584 30.0944L49.0706 30.9961C48.8487 30.8111 48.5851 30.6817 48.2799 30.6077C47.984 30.5245 47.6696 30.4828 47.3367 30.4828C46.902 30.4828 46.5783 30.5661 46.3657 30.7325C46.1622 30.899 46.0605 31.1163 46.0605 31.3845C46.0605 31.6249 46.1345 31.8099 46.2824 31.9394C46.4304 32.0688 46.6801 32.1521 47.0315 32.1891L48.0164 32.2723C48.747 32.337 49.2972 32.5312 49.6671 32.8549C50.0463 33.1786 50.2358 33.6502 50.2358 34.2698C50.2358 34.6397 50.1619 34.9634 50.0139 35.2408C49.8659 35.5183 49.6625 35.7541 49.4035 35.9483C49.1446 36.1332 48.8348 36.272 48.4741 36.3644C48.1135 36.4569 47.7251 36.5032 47.3089 36.5032C46.7356 36.5032 46.2038 36.4384 45.7137 36.3089C45.2235 36.1702 44.7704 35.8974 44.3543 35.4905L45.2837 34.5611C45.5703 34.857 45.8894 35.0559 46.2408 35.1576C46.6015 35.2501 46.9575 35.2963 47.3089 35.2963C47.7528 35.2963 48.1181 35.2177 48.4048 35.0605C48.7007 34.9033 48.8487 34.6582 48.8487 34.3253C48.8487 34.0849 48.7747 33.8953 48.6267 33.7566C48.488 33.6178 48.2476 33.53 47.9054 33.493L46.7818 33.3959C46.116 33.3312 45.6027 33.1462 45.242 32.841C44.8814 32.5359 44.701 32.0735 44.701 31.4539C44.701 31.1117 44.7704 30.8065 44.9091 30.5383C45.0478 30.2701 45.2374 30.0436 45.4779 29.8586C45.7183 29.6737 45.9957 29.5349 46.3102 29.4425C46.6338 29.35 46.9806 29.3038 47.3505 29.3038ZM53.4293 29.387H54.7887V30.469H53.4293V34.3947C53.4293 34.9403 53.6882 35.2131 54.2061 35.2131H54.7887V36.4199H53.9425C53.6096 36.4199 53.3229 36.3691 53.0825 36.2673C52.842 36.1564 52.6432 36.013 52.486 35.8373C52.3288 35.6524 52.2086 35.4443 52.1253 35.2131C52.0513 34.9726 52.0143 34.723 52.0143 34.464V30.469H51.2098V29.387H52.0143V27.3756H53.4293V29.387ZM64.0521 29.3038C64.4128 29.3038 64.7457 29.3592 65.0509 29.4702C65.3561 29.5812 65.615 29.7384 65.8277 29.9419C66.0959 30.21 66.2855 30.5106 66.3965 30.8435C66.5167 31.1672 66.5768 31.5278 66.5768 31.9255V36.4199H65.1619V32.1336C65.1619 31.588 65.0232 31.1903 64.7457 30.9406C64.4775 30.6909 64.1446 30.5661 63.747 30.5661C63.5528 30.5661 63.3678 30.5984 63.1921 30.6632C63.0164 30.7187 62.8592 30.8111 62.7205 30.9406C62.591 31.0608 62.4846 31.218 62.4014 31.4122C62.3274 31.5972 62.2904 31.8145 62.2904 32.0642V36.4199H60.8755V32.1336C60.8755 31.588 60.7368 31.1903 60.4594 30.9406C60.1912 30.6909 59.8583 30.5661 59.4606 30.5661C59.063 30.5661 58.7208 30.6955 58.4341 30.9545C58.1474 31.2042 58.0041 31.5972 58.0041 32.1336V36.4199H56.5892V29.387H57.9763V30.0944C58.2168 29.8355 58.4988 29.6413 58.8225 29.5118C59.1554 29.3731 59.4976 29.3038 59.849 29.3038C60.7368 29.3038 61.4027 29.6459 61.8465 30.3303C62.4107 29.6459 63.1459 29.3038 64.0521 29.3038ZM69.7944 33.3127C69.7944 33.923 69.9469 34.4039 70.2521 34.7553C70.5573 35.1067 71.0012 35.2824 71.5838 35.2824C71.9815 35.2824 72.3005 35.227 72.541 35.116C72.7906 34.9958 73.0403 34.8108 73.29 34.5611L74.1917 35.4073C74.0067 35.5922 73.8218 35.7541 73.6368 35.8928C73.4611 36.0223 73.2669 36.1332 73.0542 36.2257C72.8508 36.3182 72.6242 36.3876 72.3745 36.4338C72.134 36.48 71.8612 36.5032 71.5561 36.5032C71.1122 36.5032 70.696 36.443 70.3076 36.3228C69.9285 36.1934 69.5955 35.9899 69.3089 35.7125C69.0314 35.4258 68.8095 35.0513 68.643 34.5889C68.4766 34.1265 68.3933 33.5624 68.3933 32.8965C68.3933 31.7405 68.6615 30.8528 69.1979 30.2332C69.7435 29.6136 70.4694 29.3038 71.3757 29.3038C71.8474 29.3038 72.2681 29.387 72.6381 29.5534C73.008 29.7107 73.3178 29.9419 73.5675 30.247C73.8264 30.543 74.0206 30.9036 74.1501 31.329C74.2888 31.7452 74.3581 32.2076 74.3581 32.7162V33.3127H69.7944ZM72.9571 32.3278C72.9386 32.1151 72.9201 31.944 72.9016 31.8145C72.8831 31.6758 72.8369 31.5278 72.7629 31.3706C72.6427 31.1024 72.4623 30.8897 72.2219 30.7325C71.9907 30.5661 71.7087 30.4828 71.3757 30.4828C71.0336 30.4828 70.7423 30.5661 70.5018 30.7325C70.2706 30.8897 70.0949 31.1024 69.9747 31.3706C69.9007 31.5278 69.8545 31.6758 69.836 31.8145C69.8175 31.944 69.8036 32.1151 69.7944 32.3278H72.9571ZM79.5051 29.3038C79.8657 29.3038 80.1894 29.3592 80.4761 29.4702C80.772 29.5812 81.0263 29.7384 81.239 29.9419C81.5072 30.21 81.6922 30.5106 81.7939 30.8435C81.8956 31.1672 81.9465 31.5278 81.9465 31.9255V36.4199H80.5316V32.1336C80.5316 31.588 80.3929 31.1903 80.1154 30.9406C79.8472 30.6909 79.5143 30.5661 79.1167 30.5661C78.719 30.5661 78.3768 30.6955 78.0902 30.9545C77.8035 31.2042 77.6601 31.5972 77.6601 32.1336V36.4199H76.2452V29.387H77.6324V30.0944C77.8728 29.8263 78.1549 29.6274 78.4786 29.498C78.8115 29.3685 79.1537 29.3038 79.5051 29.3038ZM85.7107 29.387H87.0701V30.469H85.7107V34.3947C85.7107 34.9403 85.9696 35.2131 86.4875 35.2131H87.0701V36.4199H86.2239C85.891 36.4199 85.6043 36.3691 85.3639 36.2673C85.1235 36.1564 84.9246 36.013 84.7674 35.8373C84.6102 35.6524 84.49 35.4443 84.4068 35.2131C84.3328 34.9726 84.2958 34.723 84.2958 34.464V30.469H83.4912V29.387H84.2958V27.3756H85.7107V29.387Z"
    fill="black" />
  <ellipse cx="52.5838" cy="127.425" rx="38.8407" ry="38.8407" fill="url(#paint1_linear_7303_27029)"
    fill-opacity="0.45" />
  <path
    d="M40.518 120.009C40.518 120.619 40.407 121.18 40.1851 121.69C39.9743 122.189 39.6746 122.617 39.2862 122.972C38.9089 123.327 38.4595 123.604 37.9379 123.804C37.4163 124.004 36.8559 124.104 36.2566 124.104C35.6574 124.104 35.097 124.004 34.5754 123.804C34.0538 123.604 33.6044 123.327 33.2271 122.972C32.8498 122.617 32.5501 122.189 32.3282 121.69C32.1173 121.18 32.0119 120.619 32.0119 120.009V112.152H33.8097V119.926C33.8097 120.725 34.0316 121.352 34.4755 121.807C34.9194 122.262 35.5131 122.489 36.2566 122.489C37.0002 122.489 37.5939 122.262 38.0378 121.807C38.4928 121.352 38.7203 120.725 38.7203 119.926V112.152H40.518V120.009ZM47.1399 115.465C47.5727 115.465 47.9611 115.531 48.3051 115.664C48.6602 115.797 48.9654 115.986 49.2206 116.23C49.5425 116.552 49.7644 116.913 49.8865 117.312C50.0085 117.701 50.0696 118.133 50.0696 118.611V124.004H48.3717V118.86C48.3717 118.206 48.2052 117.728 47.8723 117.429C47.5505 117.129 47.151 116.979 46.6738 116.979C46.1966 116.979 45.786 117.135 45.442 117.445C45.098 117.745 44.926 118.217 44.926 118.86V124.004H43.2281V115.564H44.8927V116.413C45.1812 116.092 45.5197 115.853 45.9081 115.698C46.3076 115.542 46.7182 115.465 47.1399 115.465ZM54.3869 124.004H52.689V115.564H54.3869V124.004ZM54.4368 113.9H52.639V112.102H54.4368V113.9ZM60.1909 115.465C60.7679 115.465 61.2618 115.559 61.6724 115.747C62.0941 115.936 62.4436 116.175 62.7211 116.463C63.1206 116.885 63.3869 117.368 63.5201 117.911C63.6532 118.444 63.7198 119.066 63.7198 119.776C63.7198 120.497 63.6532 121.13 63.5201 121.673C63.3869 122.206 63.1206 122.683 62.7211 123.105C62.4436 123.394 62.0941 123.632 61.6724 123.821C61.2618 124.009 60.7679 124.104 60.1909 124.104C59.6138 124.104 59.12 124.009 58.7094 123.821C58.2988 123.632 57.9548 123.394 57.6773 123.105C57.2778 122.683 57.0115 122.206 56.8783 121.673C56.7451 121.13 56.6786 120.497 56.6786 119.776C56.6786 119.066 56.7451 118.444 56.8783 117.911C57.0115 117.368 57.2778 116.885 57.6773 116.463C57.9548 116.175 58.2988 115.936 58.7094 115.747C59.12 115.559 59.6138 115.465 60.1909 115.465ZM60.1909 116.979C59.6915 116.979 59.2809 117.14 58.9591 117.462C58.7038 117.717 58.5429 118.05 58.4763 118.461C58.4097 118.871 58.3765 119.31 58.3765 119.776C58.3765 120.242 58.4097 120.68 58.4763 121.091C58.5429 121.501 58.7038 121.834 58.9591 122.09C59.292 122.423 59.7026 122.589 60.1909 122.589C60.6903 122.589 61.1064 122.423 61.4393 122.09C61.6946 121.834 61.8555 121.501 61.9221 121.091C61.9886 120.68 62.0219 120.242 62.0219 119.776C62.0219 119.31 61.9886 118.871 61.9221 118.461C61.8555 118.05 61.6946 117.717 61.4393 117.462C61.1175 117.14 60.7013 116.979 60.1909 116.979ZM69.9306 115.465C70.3634 115.465 70.7518 115.531 71.0958 115.664C71.4509 115.797 71.7561 115.986 72.0114 116.23C72.3332 116.552 72.5551 116.913 72.6772 117.312C72.7993 117.701 72.8603 118.133 72.8603 118.611V124.004H71.1624V118.86C71.1624 118.206 70.9959 117.728 70.663 117.429C70.3412 117.129 69.9417 116.979 69.4645 116.979C68.9873 116.979 68.5767 117.135 68.2327 117.445C67.8887 117.745 67.7167 118.217 67.7167 118.86V124.004H66.0188V115.564H67.6834V116.413C67.9719 116.092 68.3104 115.853 68.6988 115.698C69.0983 115.542 69.5089 115.465 69.9306 115.465ZM33.616 132.152H35.4803L38.2103 140.791L40.9402 132.152H42.8046L38.8928 144.004H37.5111L33.616 132.152ZM46.3238 135.465C47.5001 135.465 48.3712 135.709 48.9372 136.197C49.5143 136.685 49.8028 137.407 49.8028 138.361V144.004H48.1382V143.238C47.8275 143.549 47.5056 143.771 47.1727 143.904C46.8398 144.037 46.4125 144.104 45.891 144.104C45.3583 144.104 44.9089 144.043 44.5426 143.921C44.1875 143.788 43.8824 143.593 43.6271 143.338C43.1832 142.872 42.9613 142.267 42.9613 141.524C42.9613 140.813 43.2054 140.231 43.6937 139.776C44.182 139.321 44.9144 139.093 45.891 139.093H48.1049V138.494C48.1049 137.95 47.9606 137.551 47.6721 137.296C47.3947 137.04 46.923 136.913 46.2572 136.913C45.8022 136.913 45.4415 136.979 45.1752 137.112C44.9089 137.235 44.6536 137.445 44.4095 137.745L43.3108 136.696C43.5106 136.463 43.7103 136.269 43.9101 136.114C44.1209 135.958 44.3429 135.831 44.5759 135.731C44.8201 135.631 45.0809 135.564 45.3583 135.531C45.6468 135.487 45.9687 135.465 46.3238 135.465ZM46.1573 140.275C45.1253 140.275 44.6092 140.68 44.6092 141.49C44.6092 141.879 44.7313 142.178 44.9754 142.389C45.2307 142.589 45.6413 142.689 46.2072 142.689C46.5069 142.689 46.7788 142.661 47.0229 142.606C47.2781 142.55 47.5167 142.417 47.7387 142.206C47.9828 141.973 48.1049 141.557 48.1049 140.958V140.275H46.1573ZM59.179 144.004H57.5144V143.155C57.2259 143.477 56.8819 143.715 56.4824 143.871C56.094 144.026 55.6889 144.104 55.2672 144.104C54.8344 144.104 54.4405 144.037 54.0854 143.904C53.7413 143.771 53.4417 143.582 53.1865 143.338C52.8647 143.016 52.6427 142.661 52.5206 142.273C52.3986 141.873 52.3375 141.435 52.3375 140.958V135.564H54.0354V140.708C54.0354 141.363 54.1963 141.84 54.5182 142.14C54.8511 142.439 55.2561 142.589 55.7333 142.589C55.9664 142.589 56.1883 142.556 56.3992 142.489C56.6211 142.411 56.8098 142.295 56.9651 142.14C57.1205 141.984 57.2426 141.79 57.3313 141.557C57.4312 141.313 57.4811 141.03 57.4811 140.708V135.564H59.179V144.004ZM63.5296 141.291C63.5296 141.746 63.5962 142.062 63.7294 142.239C63.8625 142.406 64.1011 142.489 64.4452 142.489H65.1942V144.004H64.2621C62.6418 144.004 61.8317 143.133 61.8317 141.39V132.152H63.5296V141.291ZM68.8186 135.564H70.4499V136.863H68.8186V141.574C68.8186 142.228 69.1294 142.556 69.7508 142.556H70.4499V144.004H69.4345C69.035 144.004 68.691 143.943 68.4025 143.821C68.114 143.688 67.8754 143.516 67.6867 143.305C67.4981 143.083 67.3538 142.833 67.2539 142.556C67.1651 142.267 67.1207 141.968 67.1207 141.657V136.863H66.1553V135.564H67.1207V133.151H68.8186V135.564Z"
    fill="black" />
  <ellipse cx="190.752" cy="127.425" rx="38.8407" ry="38.8407" fill="url(#paint2_linear_7303_27029)"
    fill-opacity="0.45" />
  <path
    d="M182.656 124.004H180.741L179.926 121.624H175.248L174.433 124.004H172.518L176.863 112.152H178.311L182.656 124.004ZM175.764 120.092H179.41L177.579 114.832L175.764 120.092ZM186.867 115.465C188.043 115.465 188.915 115.709 189.481 116.197C190.058 116.685 190.346 117.407 190.346 118.361V124.004H188.682V123.238C188.371 123.549 188.049 123.771 187.716 123.904C187.383 124.037 186.956 124.104 186.434 124.104C185.902 124.104 185.452 124.043 185.086 123.921C184.731 123.788 184.426 123.593 184.17 123.338C183.727 122.872 183.505 122.267 183.505 121.524C183.505 120.813 183.749 120.231 184.237 119.776C184.725 119.321 185.458 119.093 186.434 119.093H188.648V118.494C188.648 117.95 188.504 117.551 188.215 117.296C187.938 117.04 187.466 116.913 186.801 116.913C186.346 116.913 185.985 116.979 185.719 117.112C185.452 117.235 185.197 117.445 184.953 117.745L183.854 116.696C184.054 116.463 184.254 116.269 184.453 116.114C184.664 115.958 184.886 115.831 185.119 115.731C185.363 115.631 185.624 115.564 185.902 115.531C186.19 115.487 186.512 115.465 186.867 115.465ZM186.701 120.275C185.669 120.275 185.153 120.68 185.153 121.49C185.153 121.879 185.275 122.178 185.519 122.389C185.774 122.589 186.185 122.689 186.751 122.689C187.05 122.689 187.322 122.661 187.566 122.606C187.821 122.55 188.06 122.417 188.282 122.206C188.526 121.973 188.648 121.557 188.648 120.958V120.275H186.701ZM196.227 124.004H194.845L191.749 115.564H193.547L195.544 121.507L197.525 115.564H199.323L196.227 124.004ZM201.885 120.275C201.885 121.008 202.068 121.585 202.435 122.006C202.801 122.428 203.334 122.639 204.033 122.639C204.51 122.639 204.893 122.572 205.181 122.439C205.481 122.295 205.78 122.073 206.08 121.773L207.162 122.789C206.94 123.011 206.718 123.205 206.496 123.371C206.285 123.527 206.052 123.66 205.797 123.771C205.553 123.882 205.281 123.965 204.981 124.021C204.693 124.076 204.366 124.104 203.999 124.104C203.467 124.104 202.967 124.032 202.501 123.887C202.046 123.732 201.647 123.488 201.303 123.155C200.97 122.811 200.703 122.362 200.504 121.807C200.304 121.252 200.204 120.575 200.204 119.776C200.204 118.389 200.526 117.323 201.17 116.58C201.824 115.836 202.695 115.465 203.783 115.465C204.349 115.465 204.854 115.564 205.298 115.764C205.742 115.953 206.113 116.23 206.413 116.596C206.724 116.952 206.957 117.384 207.112 117.895C207.279 118.394 207.362 118.949 207.362 119.559V120.275H201.885ZM205.681 119.093C205.658 118.838 205.636 118.633 205.614 118.477C205.592 118.311 205.536 118.133 205.448 117.945C205.303 117.623 205.087 117.368 204.798 117.179C204.521 116.979 204.182 116.879 203.783 116.879C203.372 116.879 203.023 116.979 202.734 117.179C202.457 117.368 202.246 117.623 202.102 117.945C202.013 118.133 201.957 118.311 201.935 118.477C201.913 118.633 201.896 118.838 201.885 119.093H205.681ZM171.558 132.152H173.423L176.153 140.791L178.883 132.152H180.747L176.835 144.004H175.454L171.558 132.152ZM184.266 135.465C185.442 135.465 186.314 135.709 186.88 136.197C187.457 136.685 187.745 137.407 187.745 138.361V144.004H186.081V143.238C185.77 143.549 185.448 143.771 185.115 143.904C184.782 144.037 184.355 144.104 183.833 144.104C183.301 144.104 182.851 144.043 182.485 143.921C182.13 143.788 181.825 143.593 181.57 143.338C181.126 142.872 180.904 142.267 180.904 141.524C180.904 140.813 181.148 140.231 181.636 139.776C182.124 139.321 182.857 139.093 183.833 139.093H186.047V138.494C186.047 137.95 185.903 137.551 185.614 137.296C185.337 137.04 184.865 136.913 184.2 136.913C183.745 136.913 183.384 136.979 183.118 137.112C182.851 137.235 182.596 137.445 182.352 137.745L181.253 136.696C181.453 136.463 181.653 136.269 181.852 136.114C182.063 135.958 182.285 135.831 182.518 135.731C182.762 135.631 183.023 135.564 183.301 135.531C183.589 135.487 183.911 135.465 184.266 135.465ZM184.1 140.275C183.068 140.275 182.552 140.68 182.552 141.49C182.552 141.879 182.674 142.178 182.918 142.389C183.173 142.589 183.584 142.689 184.15 142.689C184.449 142.689 184.721 142.661 184.965 142.606C185.221 142.55 185.459 142.417 185.681 142.206C185.925 141.973 186.047 141.557 186.047 140.958V140.275H184.1ZM197.121 144.004H195.457V143.155C195.168 143.477 194.824 143.715 194.425 143.871C194.036 144.026 193.631 144.104 193.21 144.104C192.777 144.104 192.383 144.037 192.028 143.904C191.684 143.771 191.384 143.582 191.129 143.338C190.807 143.016 190.585 142.661 190.463 142.273C190.341 141.873 190.28 141.435 190.28 140.958V135.564H191.978V140.708C191.978 141.363 192.139 141.84 192.461 142.14C192.793 142.439 193.199 142.589 193.676 142.589C193.909 142.589 194.131 142.556 194.342 142.489C194.563 142.411 194.752 142.295 194.908 142.14C195.063 141.984 195.185 141.79 195.274 141.557C195.374 141.313 195.424 141.03 195.424 140.708V135.564H197.121V144.004ZM201.472 141.291C201.472 141.746 201.539 142.062 201.672 142.239C201.805 142.406 202.044 142.489 202.388 142.489H203.137V144.004H202.204C200.584 144.004 199.774 143.133 199.774 141.39V132.152H201.472V141.291ZM206.761 135.564H208.392V136.863H206.761V141.574C206.761 142.228 207.072 142.556 207.693 142.556H208.392V144.004H207.377C206.977 144.004 206.633 143.943 206.345 143.821C206.056 143.688 205.818 143.516 205.629 143.305C205.44 143.083 205.296 142.833 205.196 142.556C205.108 142.267 205.063 141.968 205.063 141.657V136.863H204.098V135.564H205.063V133.151H206.761V135.564Z"
    fill="black" />
  <path
    d="M345.579 137.148C346.688 137.148 347.559 137.437 348.192 138.014C348.836 138.591 349.157 139.384 349.157 140.394C349.157 140.716 349.108 141.015 349.008 141.293C348.919 141.559 348.797 141.803 348.641 142.025C348.497 142.236 348.331 142.419 348.142 142.575C347.953 142.719 347.759 142.83 347.559 142.908C347.792 142.996 348.014 143.124 348.225 143.29C348.436 143.446 348.625 143.634 348.791 143.856C348.958 144.078 349.091 144.339 349.191 144.639C349.291 144.938 349.341 145.277 349.341 145.654C349.341 146.198 349.252 146.681 349.074 147.102C348.897 147.513 348.647 147.863 348.325 148.151C348.014 148.428 347.637 148.639 347.193 148.784C346.76 148.928 346.283 149 345.762 149H340.968V137.148H345.579ZM342.765 143.773V147.385H345.595C346.228 147.385 346.71 147.219 347.043 146.886C347.376 146.542 347.543 146.104 347.543 145.571C347.543 145.038 347.376 144.605 347.043 144.273C346.71 143.94 346.228 143.773 345.595 143.773H342.765ZM342.765 138.763V142.158H345.429C346.006 142.158 346.472 142.014 346.827 141.726C347.182 141.437 347.36 141.015 347.36 140.461C347.36 139.906 347.182 139.484 346.827 139.196C346.472 138.907 346.006 138.763 345.429 138.763H342.765ZM354.536 140.461C355.712 140.461 356.583 140.705 357.149 141.193C357.726 141.681 358.015 142.403 358.015 143.357V149H356.35V148.234C356.039 148.545 355.717 148.767 355.384 148.9C355.052 149.033 354.624 149.1 354.103 149.1C353.57 149.1 353.121 149.039 352.754 148.917C352.399 148.784 352.094 148.589 351.839 148.334C351.395 147.868 351.173 147.263 351.173 146.52C351.173 145.81 351.417 145.227 351.905 144.772C352.394 144.317 353.126 144.089 354.103 144.089H356.317V143.49C356.317 142.946 356.172 142.547 355.884 142.292C355.606 142.036 355.135 141.909 354.469 141.909C354.014 141.909 353.653 141.975 353.387 142.109C353.121 142.231 352.865 142.441 352.621 142.741L351.523 141.692C351.722 141.459 351.922 141.265 352.122 141.11C352.333 140.954 352.555 140.827 352.788 140.727C353.032 140.627 353.293 140.56 353.57 140.527C353.859 140.483 354.18 140.461 354.536 140.461ZM354.369 145.271C353.337 145.271 352.821 145.676 352.821 146.486C352.821 146.875 352.943 147.174 353.187 147.385C353.442 147.585 353.853 147.685 354.419 147.685C354.719 147.685 354.991 147.657 355.235 147.602C355.49 147.546 355.729 147.413 355.95 147.202C356.195 146.969 356.317 146.553 356.317 145.954V145.271H354.369ZM363.412 140.461C364.056 140.461 364.639 140.533 365.16 140.677C365.693 140.821 366.153 141.065 366.542 141.409L365.477 142.491C365.21 142.269 364.894 142.114 364.528 142.025C364.173 141.925 363.795 141.876 363.396 141.876C362.874 141.876 362.486 141.975 362.231 142.175C361.986 142.375 361.864 142.636 361.864 142.957C361.864 143.246 361.953 143.468 362.131 143.623C362.308 143.779 362.608 143.879 363.03 143.923L364.211 144.023C365.088 144.101 365.748 144.334 366.192 144.722C366.647 145.11 366.875 145.676 366.875 146.42C366.875 146.864 366.786 147.252 366.608 147.585C366.431 147.918 366.187 148.201 365.876 148.434C365.565 148.656 365.194 148.822 364.761 148.933C364.328 149.044 363.862 149.1 363.362 149.1C362.674 149.1 362.036 149.022 361.448 148.867C360.86 148.7 360.316 148.373 359.817 147.885L360.932 146.769C361.276 147.125 361.659 147.363 362.081 147.485C362.514 147.596 362.941 147.652 363.362 147.652C363.895 147.652 364.334 147.557 364.678 147.369C365.033 147.18 365.21 146.886 365.21 146.486C365.21 146.198 365.121 145.97 364.944 145.804C364.777 145.638 364.489 145.532 364.078 145.488L362.73 145.371C361.931 145.293 361.315 145.072 360.882 144.705C360.449 144.339 360.233 143.784 360.233 143.041C360.233 142.63 360.316 142.264 360.483 141.942C360.649 141.62 360.877 141.348 361.165 141.126C361.454 140.904 361.787 140.738 362.164 140.627C362.552 140.516 362.969 140.461 363.412 140.461ZM370.188 145.271C370.188 146.004 370.371 146.581 370.737 147.002C371.103 147.424 371.636 147.635 372.335 147.635C372.812 147.635 373.195 147.568 373.484 147.435C373.783 147.291 374.083 147.069 374.383 146.769L375.465 147.785C375.243 148.007 375.021 148.201 374.799 148.367C374.588 148.523 374.355 148.656 374.1 148.767C373.855 148.878 373.584 148.961 373.284 149.017C372.995 149.072 372.668 149.1 372.302 149.1C371.769 149.1 371.27 149.028 370.804 148.883C370.349 148.728 369.949 148.484 369.605 148.151C369.272 147.807 369.006 147.358 368.806 146.803C368.606 146.248 368.506 145.571 368.506 144.772C368.506 143.385 368.828 142.319 369.472 141.576C370.127 140.832 370.998 140.461 372.085 140.461C372.651 140.461 373.156 140.56 373.6 140.76C374.044 140.949 374.416 141.226 374.715 141.593C375.026 141.948 375.259 142.38 375.415 142.891C375.581 143.39 375.664 143.945 375.664 144.556V145.271H370.188ZM373.983 144.089C373.961 143.834 373.939 143.629 373.916 143.474C373.894 143.307 373.839 143.13 373.75 142.941C373.606 142.619 373.389 142.364 373.101 142.175C372.823 141.975 372.485 141.876 372.085 141.876C371.675 141.876 371.325 141.975 371.037 142.175C370.759 142.364 370.548 142.619 370.404 142.941C370.315 143.13 370.26 143.307 370.238 143.474C370.215 143.629 370.199 143.834 370.188 144.089H373.983ZM345.106 165.123V170H343.308V165.123L339.763 158.148H341.727L344.207 163.358L346.688 158.148H348.652L345.106 165.123ZM351.78 170H350.082V161.56H351.78V170ZM351.83 159.896H350.033V158.098H351.83V159.896ZM355.72 166.271C355.72 167.004 355.903 167.581 356.269 168.002C356.636 168.424 357.168 168.635 357.867 168.635C358.345 168.635 358.727 168.568 359.016 168.435C359.316 168.291 359.615 168.069 359.915 167.769L360.997 168.785C360.775 169.007 360.553 169.201 360.331 169.367C360.12 169.523 359.887 169.656 359.632 169.767C359.388 169.878 359.116 169.961 358.816 170.017C358.528 170.072 358.2 170.1 357.834 170.1C357.301 170.1 356.802 170.028 356.336 169.883C355.881 169.728 355.481 169.484 355.137 169.151C354.804 168.807 354.538 168.358 354.338 167.803C354.139 167.248 354.039 166.571 354.039 165.772C354.039 164.385 354.361 163.319 355.004 162.576C355.659 161.832 356.53 161.461 357.618 161.461C358.184 161.461 358.689 161.56 359.132 161.76C359.576 161.949 359.948 162.226 360.248 162.593C360.558 162.948 360.791 163.38 360.947 163.891C361.113 164.39 361.197 164.945 361.197 165.556V166.271H355.72ZM359.515 165.089C359.493 164.834 359.471 164.629 359.449 164.474C359.427 164.307 359.371 164.13 359.282 163.941C359.138 163.619 358.922 163.364 358.633 163.175C358.356 162.975 358.017 162.876 357.618 162.876C357.207 162.876 356.857 162.975 356.569 163.175C356.292 163.364 356.081 163.619 355.936 163.941C355.848 164.13 355.792 164.307 355.77 164.474C355.748 164.629 355.731 164.834 355.72 165.089H359.515ZM365.109 167.287C365.109 167.742 365.176 168.058 365.309 168.236C365.442 168.402 365.681 168.485 366.025 168.485H366.774V170H365.841C364.221 170 363.411 169.129 363.411 167.387V158.148H365.109V167.287ZM374.976 170H373.312V169.101C372.99 169.49 372.652 169.756 372.296 169.9C371.941 170.033 371.536 170.1 371.081 170.1C370.648 170.1 370.255 170.033 369.899 169.9C369.544 169.767 369.25 169.584 369.017 169.351C368.817 169.14 368.651 168.901 368.518 168.635C368.396 168.369 368.301 168.086 368.235 167.786C368.168 167.475 368.124 167.154 368.102 166.821C368.079 166.477 368.068 166.133 368.068 165.789C368.068 165.445 368.079 165.106 368.102 164.773C368.124 164.429 368.168 164.102 368.235 163.791C368.301 163.48 368.396 163.192 368.518 162.925C368.651 162.659 368.817 162.421 369.017 162.21C369.25 161.977 369.539 161.794 369.883 161.66C370.238 161.527 370.632 161.461 371.065 161.461C371.52 161.461 371.925 161.527 372.28 161.66C372.635 161.794 372.968 162.049 373.279 162.426V158.148H374.976V170ZM371.514 162.975C371.126 162.975 370.815 163.053 370.582 163.208C370.36 163.364 370.188 163.569 370.066 163.824C369.944 164.08 369.861 164.379 369.816 164.723C369.783 165.056 369.766 165.411 369.766 165.789C369.766 166.166 369.783 166.527 369.816 166.871C369.861 167.203 369.944 167.498 370.066 167.753C370.188 168.008 370.36 168.213 370.582 168.369C370.815 168.513 371.126 168.585 371.514 168.585C371.902 168.585 372.213 168.513 372.446 168.369C372.679 168.213 372.857 168.008 372.979 167.753C373.101 167.498 373.179 167.203 373.212 166.871C373.256 166.527 373.279 166.166 373.279 165.789C373.279 165.411 373.256 165.056 373.212 164.723C373.179 164.379 373.101 164.08 372.979 163.824C372.857 163.569 372.679 163.364 372.446 163.208C372.213 163.053 371.902 162.975 371.514 162.975Z"
    fill="#44C476" />
  <defs>
    <filter id="filter0_b_7303_27029" x="-55.4867" y="-55.4867" width="526.973" height="296.973"
      filterUnits="userSpaceOnUse" color-interpolation-filters="sRGB">
      <feFlood flood-opacity="0" result="BackgroundImageFix" />
      <feGaussianBlur in="BackgroundImageFix" stdDeviation="27.7433" />
      <feComposite in2="SourceAlpha" operator="in" result="effect1_backgroundBlur_7303_27029" />
      <feBlend mode="normal" in="SourceGraphic" in2="effect1_backgroundBlur_7303_27029"
        result="shape" />
    </filter>
    <filter id="filter1_b_7303_27029" x="244.513" y="-55.4867" width="226.973" height="230.973"
      filterUnits="userSpaceOnUse" color-interpolation-filters="sRGB">
      <feFlood flood-opacity="0" result="BackgroundImageFix" />
      <feGaussianBlur in="BackgroundImageFix" stdDeviation="27.7433" />
      <feComposite in2="SourceAlpha" operator="in" result="effect1_backgroundBlur_7303_27029" />
      <feBlend mode="normal" in="SourceGraphic" in2="effect1_backgroundBlur_7303_27029"
        result="shape" />
    </filter>
    <linearGradient id="paint0_linear_7303_27029" x1="366.009" y1="186" x2="366.009" y2="120"
      gradientUnits="userSpaceOnUse">
      <stop stop-color="#44C476" stop-opacity="0.08" />
      <stop offset="1" stop-color="#44C476" />
    </linearGradient>
    <linearGradient id="paint1_linear_7303_27029" x1="52.5838" y1="88.584" x2="52.5838" y2="166.265"
      gradientUnits="userSpaceOnUse">
      <stop stop-color="#44C476" stop-opacity="0.08" />
      <stop offset="1" stop-color="#44C476" />
    </linearGradient>
    <linearGradient id="paint2_linear_7303_27029" x1="190.752" y1="88.584" x2="190.752" y2="166.265"
      gradientUnits="userSpaceOnUse">
      <stop stop-color="#44C476" stop-opacity="0.08" />
      <stop offset="1" stop-color="#44C476" />
    </linearGradient>
  </defs>
</svg>