<svg width="64" height="64" viewBox="0 0 64 64" fill="none" xmlns="http://www.w3.org/2000/svg">
<circle cx="32" cy="32" r="31.5" stroke="black" stroke-opacity="0.12"/>
<path d="M32 46C30.1819 46 28.4097 45.6551 26.7322 44.9748C24.9949 44.2702 23.4368 43.2355 22.1004 41.8996C20.7644 40.5636 19.7298 39.0051 19.0252 37.2678C18.3449 35.5903 18 33.8181 18 32C18 30.1819 18.3449 28.4097 19.0252 26.7322C19.7298 24.9949 20.7644 23.4368 22.1004 22.1004C23.4364 20.7644 24.9949 19.7298 26.7322 19.0252C28.4097 18.3449 30.1819 18 32 18C33.8181 18 35.5903 18.3449 37.2678 19.0252C39.0051 19.7298 40.5632 20.7644 41.8996 22.1004C43.2355 23.4364 44.2702 24.9949 44.9748 26.7322C45.6551 28.4097 46 30.1819 46 32C46 33.8181 45.6551 35.5903 44.9748 37.2678C44.2702 39.0051 43.2355 40.5632 41.8996 41.8996C40.5636 43.2355 39.0051 44.2702 37.2678 44.9748C35.5903 45.6551 33.8181 46 32 46ZM32 19.7059C28.7159 19.7059 25.6286 20.9847 23.3064 23.3068C20.9843 25.629 19.7055 28.7163 19.7055 32.0004C19.7055 35.2844 20.9843 38.3718 23.3064 40.694C25.6286 43.0161 28.7159 44.2949 32 44.2949C35.2841 44.2949 38.3714 43.0161 40.6936 40.694C43.0157 38.3718 44.2945 35.2844 44.2945 32.0004C44.2945 28.7163 43.0157 25.629 40.6936 23.3068C38.3714 20.9847 35.2841 19.7059 32 19.7059Z" fill="#333333"/>
<path d="M35.8835 37.5632C35.7258 37.5632 35.567 37.5408 35.4112 37.4953C33.1796 36.8419 30.8207 36.8419 28.5892 37.4953C28.2999 37.5802 27.9932 37.5856 27.7012 37.511C27.4091 37.4363 27.1426 37.2844 26.9295 37.0712C26.7163 36.8581 26.5644 36.5915 26.4897 36.2994C26.4151 36.0073 26.4205 35.7005 26.5054 35.4112C27.1588 33.1796 27.1588 30.8207 26.5054 28.5891C26.4206 28.2999 26.4152 27.9932 26.4898 27.7011C26.5644 27.4091 26.7163 27.1425 26.9295 26.9295C27.1426 26.7163 27.4091 26.5644 27.7012 26.4898C27.9932 26.4151 28.2999 26.4205 28.5892 26.5054C30.8207 27.1588 33.1796 27.1588 35.4112 26.5054C36.0006 26.3329 36.6365 26.4951 37.0713 26.9295C37.506 27.3638 37.6682 27.9998 37.4954 28.5891C36.8416 30.8207 36.8416 33.1796 37.4954 35.4112C37.6682 36.0005 37.5056 36.6369 37.0713 37.0708C36.9153 37.2268 36.7302 37.3505 36.5265 37.4349C36.3227 37.5193 36.1044 37.5628 35.8838 37.5628L35.8835 37.5632ZM32.0006 35.2998C33.2941 35.2998 34.5873 35.4817 35.8456 35.8455C35.1179 33.3282 35.1179 30.6714 35.8456 28.1552C33.3282 28.8829 30.6714 28.8829 28.1552 28.1552C28.8829 30.6729 28.8829 33.3293 28.1552 35.8455C29.4139 35.4817 30.7074 35.2998 32.0006 35.2998Z" fill="#333333"/>
</svg>
