<svg width="64" height="64" viewBox="0 0 64 64" fill="none" xmlns="http://www.w3.org/2000/svg">
<g clip-path="url(#clip0_12250_32494)">
<path d="M28.8 12.8C27.1026 12.8 25.4748 12.1257 24.2745 10.9255C23.0743 9.72525 22.4 8.09739 22.4 6.4C22.4 4.70262 23.0743 3.07475 24.2745 1.87452C25.4748 0.674282 27.1026 0 28.8 0C30.4974 0 32.1252 0.674282 33.3255 1.87452C34.5257 3.07475 35.2 4.70262 35.2 6.4C35.2 8.09739 34.5257 9.72525 33.3255 10.9255C32.1252 12.1257 30.4974 12.8 28.8 12.8ZM48.8288 22.4C46.7071 22.4 44.6722 21.5571 43.1719 20.0569C41.6717 18.5566 40.8288 16.5217 40.8288 14.4C40.8288 12.2783 41.6717 10.2434 43.1719 8.74314C44.6722 7.24286 46.7071 6.4 48.8288 6.4C50.9505 6.4 52.9854 7.24286 54.4857 8.74314C55.9859 10.2434 56.8288 12.2783 56.8288 14.4C56.8288 16.5217 55.9859 18.5566 54.4857 20.0569C52.9854 21.5571 50.9505 22.4 48.8288 22.4ZM11.7792 20.8C10.0818 20.8 8.45395 20.1257 7.25372 18.9255C6.05348 17.7253 5.3792 16.0974 5.3792 14.4C5.3792 12.7026 6.05348 11.0747 7.25372 9.87452C8.45395 8.67428 10.0818 8 11.7792 8C13.4766 8 15.1045 8.67428 16.3047 9.87452C17.5049 11.0747 18.1792 12.7026 18.1792 14.4C18.1792 16.0974 17.5049 17.7253 16.3047 18.9255C15.1045 20.1257 13.4766 20.8 11.7792 20.8ZM4.8 34.1792C3.52696 34.1792 2.30606 33.6735 1.40589 32.7733C0.505714 31.8731 0 30.6522 0 29.3792C0 28.1062 0.505714 26.8853 1.40589 25.9851C2.30606 25.0849 3.52696 24.5792 4.8 24.5792C6.07304 24.5792 7.29394 25.0849 8.19411 25.9851C9.09428 26.8853 9.6 28.1062 9.6 29.3792C9.6 30.6522 9.09428 31.8731 8.19411 32.7733C7.29394 33.6735 6.07304 34.1792 4.8 34.1792ZM56 44.8C53.8783 44.8 51.8434 43.9571 50.3431 42.4569C48.8429 40.9566 48 38.9217 48 36.8C48 34.6783 48.8429 32.6434 50.3431 31.1431C51.8434 29.6429 53.8783 28.8 56 28.8C58.1217 28.8 60.1566 29.6429 61.6569 31.1431C63.1571 32.6434 64 34.6783 64 36.8C64 38.9217 63.1571 40.9566 61.6569 42.4569C60.1566 43.9571 58.1217 44.8 56 44.8ZM7.0848 47.3376C6.23611 47.3376 5.42218 47.0005 4.82206 46.4003C4.22194 45.8002 3.8848 44.9863 3.8848 44.1376C3.8848 43.2889 4.22194 42.475 4.82206 41.8749C5.42218 41.2747 6.23611 40.9376 7.0848 40.9376C7.93349 40.9376 8.74743 41.2747 9.34754 41.8749C9.94766 42.475 10.2848 43.2889 10.2848 44.1376C10.2848 44.9863 9.94766 45.8002 9.34754 46.4003C8.74743 47.0005 7.93349 47.3376 7.0848 47.3376ZM38.4 64C35.8539 64 33.4121 62.9886 31.6118 61.1882C29.8114 59.3879 28.8 56.9461 28.8 54.4C28.8 51.8539 29.8114 49.4121 31.6118 47.6118C33.4121 45.8114 35.8539 44.8 38.4 44.8C40.9461 44.8 43.3879 45.8114 45.1882 47.6118C46.9886 49.4121 48 51.8539 48 54.4C48 56.9461 46.9886 59.3879 45.1882 61.1882C43.3879 62.9886 40.9461 64 38.4 64ZM14.4 54.4C13.9757 54.4 13.5687 54.2314 13.2686 53.9314C12.9686 53.6313 12.8 53.2243 12.8 52.8C12.8 52.3757 12.9686 51.9687 13.2686 51.6686C13.5687 51.3686 13.9757 51.2 14.4 51.2C14.8243 51.2 15.2313 51.3686 15.5314 51.6686C15.8314 51.9687 16 52.3757 16 52.8C16 53.2243 15.8314 53.6313 15.5314 53.9314C15.2313 54.2314 14.8243 54.4 14.4 54.4Z" fill="url(#paint0_linear_12250_32494)"/>
</g>
<defs>
<linearGradient id="paint0_linear_12250_32494" x1="63.8909" y1="62.7187" x2="-6.15113" y2="54.8662" gradientUnits="userSpaceOnUse">
<stop stop-color="#50D113"/>
<stop offset="1" stop-color="#FFE600"/>
</linearGradient>
<clipPath id="clip0_12250_32494">
<rect width="64" height="64" fill="white" transform="matrix(-1 0 0 -1 64 64)"/>
</clipPath>
</defs>
</svg>
