<svg width="20" height="20" viewBox="0 0 20 20" fill="none" xmlns="http://www.w3.org/2000/svg">
  <path fill-rule="evenodd" clip-rule="evenodd"
    d="M10 1.17647C5.1269 1.17647 1.17647 5.1269 1.17647 10C1.17647 14.8731 5.1269 18.8235 10 18.8235C14.8731 18.8235 18.8235 14.8731 18.8235 10C18.8235 5.1269 14.8731 1.17647 10 1.17647ZM0 10C0 4.47715 4.47715 0 10 0C15.5228 0 20 4.47715 20 10C20 15.5228 15.5228 20 10 20C4.47715 20 0 15.5228 0 10ZM10 5.29412C10.3249 5.29412 10.5882 5.55748 10.5882 5.88235V9.41177H15.2941C15.619 9.41177 15.8824 9.67513 15.8824 10C15.8824 10.3249 15.619 10.5882 15.2941 10.5882H10.2941C9.80681 10.5882 9.41177 10.1932 9.41177 9.70588V5.88235C9.41177 5.55748 9.67513 5.29412 10 5.29412Z"
    fill="#D89614" />
</svg>