<svg width="64" height="65" viewBox="0 0 64 65" fill="none" xmlns="http://www.w3.org/2000/svg">
<circle cx="32" cy="32.5" r="31.5" stroke="black" stroke-opacity="0.12"/>
<path d="M31.6875 43.875C29.9583 43.875 28.474 43.401 27.2344 42.4531C26.0052 41.5052 25.0625 40.1615 24.4062 38.4219C23.75 36.6823 23.4219 34.6198 23.4219 32.2344V32.2031C23.4219 29.8177 23.75 27.7552 24.4062 26.0156C25.0625 24.276 26.0052 22.9375 27.2344 22C28.474 21.0521 29.9583 20.5781 31.6875 20.5781C33.4167 20.5781 34.901 21.0521 36.1406 22C37.3802 22.9375 38.3281 24.276 38.9844 26.0156C39.651 27.7552 39.9844 29.8177 39.9844 32.2031V32.2344C39.9844 34.6198 39.651 36.6823 38.9844 38.4219C38.3281 40.1615 37.3802 41.5052 36.1406 42.4531C34.901 43.401 33.4167 43.875 31.6875 43.875ZM31.6875 41.4219C32.8333 41.4219 33.8125 41.0521 34.625 40.3125C35.4479 39.5625 36.0729 38.5 36.5 37.125C36.9375 35.75 37.1562 34.1198 37.1562 32.2344V32.2031C37.1562 30.3177 36.9375 28.6927 36.5 27.3281C36.0729 25.9531 35.4479 24.8958 34.625 24.1562C33.8125 23.4167 32.8333 23.0469 31.6875 23.0469C30.5417 23.0469 29.5625 23.4167 28.75 24.1562C27.9375 24.8958 27.3177 25.9531 26.8906 27.3281C26.4635 28.6927 26.25 30.3177 26.25 32.2031V32.2344C26.25 34.1198 26.4635 35.75 26.8906 37.125C27.3177 38.5 27.9375 39.5625 28.75 40.3125C29.5625 41.0521 30.5417 41.4219 31.6875 41.4219Z" fill="black"/>
</svg>
