<svg width="17" height="17" viewBox="0 0 17 17" fill="none" xmlns="http://www.w3.org/2000/svg">
<path d="M13.5031 4.80819L6.88849 11.4228L4.02656 8.52578C3.87841 8.37762 3.66247 8.31976 3.46009 8.37399C3.25771 8.42822 3.09963 8.5863 3.0454 8.78868C2.99117 8.99106 3.04904 9.207 3.19719 9.35515L6.42124 12.5675C6.55275 12.6995 6.73139 12.7737 6.9177 12.7737C7.10401 12.7737 7.28265 12.6995 7.41416 12.5675L14.3558 5.62588C14.5848 5.39686 14.5848 5.02553 14.3558 4.79651C14.1268 4.56748 13.7554 4.56748 13.5264 4.79651L13.5031 4.80819Z" fill="black"/>
<path fill-rule="evenodd" clip-rule="evenodd" d="M13.2827 4.44262C13.6803 4.10129 14.2801 4.11896 14.6567 4.49562C15.0519 4.89083 15.0519 5.53159 14.6567 5.9268L7.71561 12.8679C7.50427 13.0799 7.21705 13.1992 6.91773 13.1992C6.61859 13.1992 6.33176 13.0802 6.12046 12.8685L2.89687 9.65661C2.64121 9.40096 2.54082 9.02779 2.6344 8.67856C2.72797 8.32933 3.00075 8.05655 3.34998 7.96297C3.69921 7.8694 4.07184 7.96924 4.32749 8.22489L4.32932 8.22673L6.89036 10.8191L13.251 4.45848L13.2827 4.44262ZM14.0549 5.09742C13.9921 5.03458 13.8902 5.03458 13.8273 5.09742L13.7785 5.14625L13.7552 5.15793L6.88669 12.0264L3.7257 8.82669C3.68506 8.78651 3.6255 8.77024 3.57026 8.78504C3.51472 8.79992 3.47135 8.8433 3.45647 8.89883C3.44161 8.95426 3.45741 9.0134 3.4979 9.05405L6.72269 12.2672C6.77436 12.319 6.84454 12.3481 6.91773 12.3481C6.99092 12.3481 7.0611 12.319 7.11276 12.2672L14.0549 5.325C14.1178 5.26216 14.1178 5.16027 14.0549 5.09742Z" fill="black"/>
<path d="M13.5031 4.80819L6.88849 11.4228L4.02656 8.52578C3.87841 8.37762 3.66247 8.31976 3.46009 8.37399C3.25771 8.42822 3.09963 8.5863 3.0454 8.78868C2.99117 8.99106 3.04904 9.207 3.19719 9.35515L6.42124 12.5675C6.55275 12.6995 6.73139 12.7737 6.9177 12.7737C7.10401 12.7737 7.28265 12.6995 7.41416 12.5675L14.3558 5.62588C14.5848 5.39686 14.5848 5.02553 14.3558 4.79651C14.1268 4.56748 13.7554 4.56748 13.5264 4.79651L13.5031 4.80819Z" stroke="black"/>
<path fill-rule="evenodd" clip-rule="evenodd" d="M13.2827 4.44262C13.6803 4.10129 14.2801 4.11896 14.6567 4.49562C15.0519 4.89083 15.0519 5.53159 14.6567 5.9268L7.71561 12.8679C7.50427 13.0799 7.21705 13.1992 6.91773 13.1992C6.61859 13.1992 6.33176 13.0802 6.12046 12.8685L2.89687 9.65661C2.64121 9.40096 2.54082 9.02779 2.6344 8.67856C2.72797 8.32933 3.00075 8.05655 3.34998 7.96297C3.69921 7.8694 4.07184 7.96924 4.32749 8.22489L4.32932 8.22673L6.89036 10.8191L13.251 4.45848L13.2827 4.44262ZM14.0549 5.09742C13.9921 5.03458 13.8902 5.03458 13.8273 5.09742L13.7785 5.14625L13.7552 5.15793L6.88669 12.0264L3.7257 8.82669C3.68506 8.78651 3.6255 8.77024 3.57026 8.78504C3.51472 8.79992 3.47135 8.8433 3.45647 8.89883C3.44161 8.95426 3.45741 9.0134 3.4979 9.05405L6.72269 12.2672C6.77436 12.319 6.84454 12.3481 6.91773 12.3481C6.99092 12.3481 7.0611 12.319 7.11276 12.2672L14.0549 5.325C14.1178 5.26216 14.1178 5.16027 14.0549 5.09742Z" stroke="black"/>
</svg>
