<svg width="17" height="17" viewBox="0 0 17 17" fill="none" xmlns="http://www.w3.org/2000/svg">
<path fill-rule="evenodd" clip-rule="evenodd" d="M5.0625 0.5H15.375C15.9969 0.5 16.5 1.00313 16.5 1.625V11.9375C16.5 12.2484 16.2484 12.5 15.9375 12.5C15.6266 12.5 15.375 12.2484 15.375 11.9375V1.625H5.0625C4.75156 1.625 4.5 1.37344 4.5 1.0625C4.5 0.751563 4.75156 0.5 5.0625 0.5ZM11.375 4.5H1.625C1.00313 4.5 0.5 5.00313 0.5 5.625V15.375C0.5 15.9969 1.00313 16.5 1.625 16.5H11.375C11.9969 16.5 12.5 15.9969 12.5 15.375V5.625C12.5 5.00313 11.9969 4.5 11.375 4.5ZM11.375 5.625V15.375H1.625V5.625H11.375Z" fill="black" fill-opacity="0.45"/>
</svg>
