<svg width="21" height="21" viewBox="0 0 21 21" fill="none" xmlns="http://www.w3.org/2000/svg">
<path d="M5.0321 12.7443C5.36445 13.9847 6.0968 15.0807 7.11556 15.8624C8.13432 16.6442 9.38255 17.0679 10.6667 17.0679C11.9508 17.0679 13.199 16.6442 14.2178 15.8624C15.2365 15.0807 15.9689 13.9847 16.3012 12.7443" stroke="white" stroke-width="0.833333"/>
<path d="M10.6667 3.73193L10.4064 3.40657L10.6667 3.19834L10.927 3.40657L10.6667 3.73193ZM11.0833 11.2319C11.0833 11.4621 10.8968 11.6486 10.6667 11.6486C10.4365 11.6486 10.25 11.4621 10.25 11.2319L11.0833 11.2319ZM6.23971 6.7399L10.4064 3.40657L10.927 4.0573L6.76029 7.39063L6.23971 6.7399ZM10.927 3.40657L15.0936 6.7399L14.573 7.39063L10.4064 4.0573L10.927 3.40657ZM11.0833 3.73193L11.0833 11.2319L10.25 11.2319L10.25 3.73193L11.0833 3.73193Z" fill="white"/>
</svg>
