<svg width="21" height="21" viewBox="0 0 21 21" fill="none" xmlns="http://www.w3.org/2000/svg">
  <path
    d="M5.33581 12.8434C5.66816 14.0838 6.40051 15.1798 7.41927 15.9616C8.43803 16.7433 9.68626 17.167 10.9704 17.167C12.2545 17.167 13.5027 16.7433 14.5215 15.9616C15.5402 15.1798 16.2726 14.0838 16.6049 12.8434"
    stroke="#222222" stroke-width="0.833333" />
  <path
    d="M10.9704 11.333L10.7101 11.6584L10.9704 11.8666L11.2307 11.6584L10.9704 11.333ZM11.387 3.83301C11.387 3.60289 11.2005 3.41634 10.9704 3.41634C10.7403 3.41634 10.5537 3.60289 10.5537 3.83301L11.387 3.83301ZM6.54342 8.32504L10.7101 11.6584L11.2307 11.0076L7.064 7.67431L6.54342 8.32504ZM11.2307 11.6584L15.3973 8.32504L14.8768 7.67431L10.7101 11.0076L11.2307 11.6584ZM11.387 11.333L11.387 3.83301L10.5537 3.83301L10.5537 11.333L11.387 11.333Z"
    fill="#222222" />
</svg>