<svg width="14" height="19" viewBox="0 0 14 19" fill="none" xmlns="http://www.w3.org/2000/svg">
<path d="M3.82422 9.97087L10.4125 9.97087" stroke="#006EA7" stroke-width="1.41176" stroke-linecap="round"/>
<path d="M3.82422 12.7941L7.58892 12.7941" stroke="#006EA7" stroke-width="1.41176" stroke-linecap="round"/>
<path d="M1 4.88824C1 3.70224 1 3.10925 1.23081 2.65626C1.43384 2.25779 1.75779 1.93384 2.15626 1.73081C2.60925 1.5 3.20224 1.5 4.38824 1.5H7.12596C7.64392 1.5 7.90289 1.5 8.14661 1.55851C8.36269 1.61039 8.56925 1.69595 8.75872 1.81206C8.97243 1.94302 9.15555 2.12614 9.5218 2.49239L12.2429 5.21349C12.6092 5.57974 12.7923 5.76287 12.9232 5.97657C13.0393 6.16604 13.1249 6.37261 13.1768 6.58869C13.2353 6.8324 13.2353 7.09138 13.2353 7.60934V14.1118C13.2353 15.2978 13.2353 15.8908 13.0045 16.3437C12.8015 16.7422 12.4775 17.0662 12.079 17.2692C11.626 17.5 11.0331 17.5 9.84706 17.5H4.38824C3.20224 17.5 2.60925 17.5 2.15626 17.2692C1.75779 17.0662 1.43384 16.7422 1.23081 16.3437C1 15.8908 1 15.2978 1 14.1118V4.88824Z" stroke="#006EA7" stroke-width="1.41176"/>
<path d="M7.58789 1.5V3.75882C7.58789 4.94482 7.58789 5.53781 7.8187 5.9908C8.02173 6.38926 8.34569 6.71322 8.74415 6.91625C9.19714 7.14706 9.79013 7.14706 10.9761 7.14706H13.2349" stroke="#006EA7" stroke-width="1.41176"/>
</svg>
