<svg width="21" height="21" viewBox="0 0 21 21" fill="none" xmlns="http://www.w3.org/2000/svg">
  <path
    d="M5.11511 12.8444C5.44746 14.0848 6.17981 15.1808 7.19857 15.9625C8.21732 16.7443 9.46556 17.168 10.7497 17.168C12.0338 17.168 13.282 16.7443 14.3008 15.9625C15.3195 15.1808 16.0519 14.0848 16.3842 12.8444"
    stroke="#222222" stroke-width="0.833333" />
  <path
    d="M10.7497 3.83203L10.4894 3.50667L10.7497 3.29844L11.01 3.50667L10.7497 3.83203ZM11.1663 11.332C11.1663 11.5621 10.9798 11.7487 10.7497 11.7487C10.5196 11.7487 10.333 11.5621 10.333 11.332L11.1663 11.332ZM6.32272 6.84L10.4894 3.50667L11.01 4.15739L6.8433 7.49073L6.32272 6.84ZM11.01 3.50667L15.1766 6.84L14.6561 7.49073L10.4894 4.15739L11.01 3.50667ZM11.1663 3.83203L11.1663 11.332L10.333 11.332L10.333 3.83203L11.1663 3.83203Z"
    fill="#222222" />
</svg>