<svg width="1441" height="573" viewBox="0 0 1441 573" fill="none" xmlns="http://www.w3.org/2000/svg">
  <path opacity="0.65" fill-rule="evenodd" clip-rule="evenodd"
    d="M0.107516 0C0.0494034 0 0.00229409 0.0471094 0.00229409 0.105222C0.00229409 0.163334 0.0494034 0.210443 0.107516 0.210443H53.4252L19.8412 7.68243H0.106703C0.048591 7.68243 0.00148167 7.72954 0.00148167 7.78765C0.00148167 7.84577 0.048591 7.89288 0.106703 7.89288H18.8954L0.0823948 12.0785C0.0256696 12.0911 -0.0100843 12.1474 0.0025363 12.2041C0.0151569 12.2608 0.0713729 12.2966 0.128098 12.2839L19.8644 7.89288H96.78L63.5781 16.2019H0.106703C0.048591 16.2019 0.00148167 16.249 0.00148167 16.3071C0.00148167 16.3652 0.048591 16.4123 0.106703 16.4123H62.7372L25.5984 25.7065H0.106703C0.048591 25.7065 0.00148167 25.7536 0.00148167 25.8117C0.00148167 25.8699 0.048591 25.917 0.106703 25.917H24.7575L0.0797019 32.0927C0.0233281 32.1069 -0.0109352 32.164 0.00317273 32.2204C0.0172806 32.2767 0.0744174 32.311 0.130791 32.2969L25.6243 25.917H111.652L75.0799 36.3769H0.106703C0.048591 36.3769 0.00148167 36.424 0.00148167 36.4821C0.00148167 36.5402 0.048591 36.5873 0.106703 36.5873H74.3441L32.8848 48.4451H0.106703C0.048591 48.4451 0.00148167 48.4922 0.00148167 48.5504C0.00148167 48.6085 0.048591 48.6556 0.106703 48.6556H32.149L0.0766391 57.8286C0.0207671 57.8446 -0.0115718 57.9028 0.00440818 57.9587C0.0203882 58.0146 0.0786357 58.0469 0.134508 58.0309L32.9143 48.6556H130.395L89.7721 62.2101H0.106703C0.048591 62.2101 0.00148167 62.2572 0.00148167 62.3153C0.00148167 62.3734 0.048591 62.4205 0.106703 62.4205H89.1414L42.3242 78.042H0.106703C0.048591 78.042 0.00148167 78.0891 0.00148167 78.1472C0.00148167 78.2054 0.048591 78.2525 0.106703 78.2525H41.6935L0.0722691 92.1402C0.0171446 92.1586 -0.012632 92.2182 0.00576145 92.2733C0.0241549 92.3285 0.083753 92.3582 0.138878 92.3398L42.3584 78.2525H154.712L109.261 96.4504H0.106703C0.048591 96.4504 0.00148167 96.4975 0.00148167 96.5556C0.00148167 96.6137 0.048591 96.6608 0.106703 96.6608H108.735L55.1374 118.121H0.106703C0.048591 118.121 0.00148167 118.168 0.00148167 118.226C0.00148167 118.284 0.048591 118.331 0.106703 118.331H54.6118L0.0684048 140.17C0.0144561 140.191 -0.0117674 140.252 0.00983294 140.306C0.0314333 140.36 0.0926779 140.387 0.146627 140.365L55.1779 118.331H187.641L136.331 144.008H0.106703C0.048591 144.008 0.00148167 144.055 0.00148167 144.114C0.00148167 144.172 0.048591 144.219 0.106703 144.219H135.911L73.4486 175.477H0.106703C0.048591 175.477 0.00148167 175.524 0.00148167 175.582C0.00148167 175.64 0.048591 175.687 0.106703 175.687H73.028L0.0604265 212.203C0.00845832 212.229 -0.0125877 212.292 0.013419 212.344C0.0394256 212.396 0.102637 212.417 0.154605 212.391L73.4983 175.687H234.7L176.457 214.544H0.106703C0.048591 214.544 0.00148167 214.591 0.00148167 214.649C0.00148167 214.707 0.048591 214.754 0.106703 214.754H176.142L101.822 264.337H0.106703C0.048591 264.337 0.00148167 264.384 0.00148167 264.442C0.00148167 264.5 0.048591 264.547 0.106703 264.547H101.507L3.4343 329.976H0.106703C0.048591 329.976 0.00148167 330.023 0.00148167 330.081C0.00148167 330.139 0.048591 330.186 0.106703 330.186H3.11885L0.0475046 332.235C-0.000836998 332.268 -0.013881 332.333 0.0183699 332.381C0.0506209 332.43 0.115954 332.443 0.164296 332.41L3.49803 330.186H241.93L151.686 420.469H0.106703C0.048591 420.469 0.00148167 420.516 0.00148167 420.574C0.00148167 420.633 0.048591 420.68 0.106703 420.68H151.476L0.338484 571.883C0.297401 571.924 0.297416 571.991 0.338516 572.032C0.379617 572.073 0.44624 572.073 0.487322 572.032L151.773 420.68H435.469L359.821 571.91C359.795 571.962 359.816 572.026 359.868 572.052C359.92 572.078 359.983 572.056 360.009 572.004L435.704 420.68H1003.4L1078.83 572.004C1078.86 572.056 1078.92 572.078 1078.97 572.052C1079.03 572.026 1079.05 571.962 1079.02 571.91L1003.63 420.68H1287.33L1438.36 572.032C1438.37 572.051 1438.4 572.061 1438.42 572.062C1438.45 572.064 1438.48 572.054 1438.5 572.032C1438.51 572.025 1438.52 572.018 1438.52 572.01C1438.52 572.006 1438.53 572.002 1438.53 571.997L1438.53 571.989C1438.54 571.953 1438.53 571.912 1438.5 571.883L1287.63 420.68H1439.97C1440.03 420.68 1440.08 420.633 1440.08 420.574C1440.08 420.516 1440.03 420.469 1439.97 420.469H1287.42L1197.33 330.186H1435.76L1439.92 332.963C1439.96 332.996 1440.03 332.983 1440.06 332.934L1440.07 332.925C1440.07 332.922 1440.07 332.918 1440.07 332.915C1440.08 332.908 1440.08 332.901 1440.08 332.895C1440.08 332.891 1440.08 332.887 1440.08 332.883L1440.08 332.877V332.872C1440.08 332.839 1440.06 332.808 1440.03 332.788L1436.14 330.186H1439.97C1440.03 330.186 1440.08 330.139 1440.08 330.081C1440.08 330.023 1440.03 329.976 1439.97 329.976H1435.82L1337.86 264.547H1439.97C1440.03 264.547 1440.08 264.5 1440.08 264.442C1440.08 264.384 1440.03 264.337 1439.97 264.337H1337.55L1263.31 214.754H1439.97C1440.03 214.754 1440.08 214.707 1440.08 214.649C1440.08 214.591 1440.03 214.544 1439.97 214.544H1263L1204.82 175.687H1366.03L1439.93 212.703C1439.98 212.729 1440.04 212.708 1440.07 212.656C1440.1 212.604 1440.07 212.541 1440.02 212.515L1366.5 175.687H1439.97C1439.99 175.687 1440.01 175.683 1440.02 175.676C1440.03 175.67 1440.04 175.662 1440.05 175.652C1440.07 175.634 1440.08 175.609 1440.08 175.582C1440.08 175.524 1440.03 175.477 1439.97 175.477H1366.08L1303.67 144.219H1439.97C1440.03 144.219 1440.08 144.172 1440.08 144.114C1440.08 144.055 1440.03 144.008 1439.97 144.008H1303.25L1251.98 118.331H1384.46L1439.94 140.559C1439.99 140.581 1440.05 140.554 1440.07 140.5C1440.1 140.446 1440.07 140.385 1440.02 140.364L1385.02 118.331H1439.97C1440.03 118.331 1440.08 118.284 1440.08 118.226C1440.08 118.168 1440.03 118.121 1439.97 118.121H1384.5L1330.93 96.6608H1439.97C1440.03 96.6608 1440.08 96.6137 1440.08 96.5556C1440.08 96.4975 1440.03 96.4504 1439.97 96.4504H1330.41L1284.99 78.2525H1397.33L1439.94 92.4803C1439.98 92.4934 1440.02 92.4821 1440.05 92.4545C1440.06 92.4434 1440.07 92.4297 1440.08 92.4138C1440.09 92.3587 1440.06 92.2991 1440.01 92.2807L1397.99 78.2525H1439.97C1440.03 78.2525 1440.08 78.2054 1440.08 78.1472C1440.08 78.0891 1440.03 78.042 1439.97 78.042H1397.36L1350.57 62.4205H1439.97C1440.03 62.4205 1440.08 62.3734 1440.08 62.3153C1440.08 62.2572 1440.03 62.2101 1439.97 62.2101H1349.94L1309.35 48.6556H1406.82L1439.95 58.1357C1440 58.1517 1440.06 58.1194 1440.08 58.0635C1440.09 58.0076 1440.06 57.9494 1440 57.9334L1407.58 48.6556H1439.97C1440.03 48.6556 1440.08 48.6085 1440.08 48.5504C1440.08 48.4922 1440.03 48.4451 1439.97 48.4451H1406.85L1365.41 36.5873H1439.97C1440.03 36.5873 1440.08 36.5402 1440.08 36.4821C1440.08 36.424 1440.03 36.3769 1439.97 36.3769H1364.68L1328.13 25.917H1414.16L1439.95 32.3727C1440.01 32.3868 1440.06 32.3526 1440.08 32.2962C1440.09 32.2398 1440.06 32.1827 1440 32.1686L1415.03 25.917H1439.97C1440.03 25.917 1440.08 25.8699 1440.08 25.8117C1440.08 25.7536 1440.03 25.7065 1439.97 25.7065H1414.19L1377.07 16.4123H1439.97C1440.03 16.4123 1440.08 16.3652 1440.08 16.3071C1440.08 16.249 1440.03 16.2019 1439.97 16.2019H1376.23L1343.04 7.89288H1419.95L1439.95 12.3441C1440.01 12.3568 1440.06 12.321 1440.08 12.2643C1440.09 12.2076 1440.05 12.1513 1440 12.1387L1420.92 7.89288H1439.97C1440.03 7.89288 1440.08 7.84577 1440.08 7.78765C1440.08 7.72954 1440.03 7.68243 1439.97 7.68243H1419.97L1386.4 0.210443H1439.98C1440.03 0.210443 1440.08 0.163334 1440.08 0.105222C1440.08 0.0471094 1440.03 0 1439.98 0H0.107516ZM1337.17 264.337L1262.94 214.754H1082.14L1131.62 264.337H1337.17ZM1131.32 264.337L1081.85 214.754H900.982L925.699 264.337H1131.32ZM925.803 264.547H1131.53L1196.82 329.976H958.419L925.803 264.547ZM925.463 264.337L900.747 214.754H538.711L513.909 264.337H925.463ZM513.804 264.547H925.568L958.184 329.976H481.076L513.804 264.547ZM513.674 264.337L538.476 214.754H357.609L308.048 264.337H513.674ZM307.838 264.547H513.569L480.84 329.976H242.438L307.838 264.547ZM307.75 264.337L357.311 214.754H176.521L102.201 264.337H307.75ZM101.886 264.547H307.54L242.14 329.976H3.81347L101.886 264.547ZM1131.83 264.547H1337.48L1435.44 329.976H1197.12L1131.83 264.547ZM176.837 214.544H357.522L396.361 175.687H235.079L176.837 214.544ZM357.819 214.544H538.581L558.018 175.687H396.659L357.819 214.544ZM538.817 214.544H900.642L881.272 175.687H558.253L538.817 214.544ZM900.877 214.544H1081.64L1042.86 175.687H881.508L900.877 214.544ZM1081.93 214.544H1262.62L1204.45 175.687H1043.16L1081.93 214.544ZM1365.61 175.477L1303.2 144.219H1157.71L1204.51 175.477H1365.61ZM1204.13 175.477L1157.33 144.219H1011.76L1042.95 175.477H1204.13ZM1042.65 175.477L1011.46 144.219H865.821L881.403 175.477H1042.65ZM881.167 175.477L865.585 144.219H573.994L558.359 175.477H881.167ZM558.123 175.477L573.759 144.219H428.114L396.869 175.477H558.123ZM396.571 175.477L427.816 144.219H282.248L235.395 175.477H396.571ZM235.016 175.477L281.869 144.219H136.381L73.9188 175.477H235.016ZM151.984 420.469L242.227 330.186H480.735L435.574 420.469H151.984ZM435.809 420.469L480.97 330.186H958.289L1003.29 420.469H435.809ZM1003.53 420.469L958.524 330.186H1197.03L1287.12 420.469H1003.53ZM1302.78 144.008L1251.51 118.331H1118.95L1157.39 144.008H1302.78ZM1157.02 144.008L1118.57 118.331H985.927L1011.55 144.008H1157.02ZM1011.25 144.008L985.63 118.331H852.916L865.716 144.008H1011.25ZM865.48 144.008L852.681 118.331H586.944L574.1 144.008H865.48ZM573.864 144.008L586.709 118.331H453.99L428.324 144.008H573.864ZM428.026 144.008L453.692 118.331H321.052L282.564 144.008H428.026ZM282.185 144.008L320.673 118.331H188.111L136.802 144.008H282.185ZM188.062 118.121H55.7035L109.301 96.6608H230.944L188.062 118.121ZM320.988 118.121H188.532L231.415 96.6608H353.155L320.988 118.121ZM453.903 118.121H321.367L353.534 96.6608H475.353L453.903 118.121ZM454.2 118.121H586.814L597.548 96.6608H475.651L454.2 118.121ZM587.049 118.121H852.576L841.878 96.6608H597.784L587.049 118.121ZM852.811 118.121H985.42L964.006 96.6608H842.113L852.811 118.121ZM1118.26 118.121H985.717L964.303 96.6608H1086.13L1118.26 118.121ZM1251.09 118.121H1118.64L1086.51 96.6608H1208.25L1251.09 118.121ZM1383.93 118.121H1251.56L1208.72 96.6608H1330.37L1383.93 118.121ZM1385.43 0.210443H1312.35L1342.2 7.68243H1419L1385.43 0.210443ZM1311.48 0.210443H1238.3L1264.41 7.68243H1341.33L1311.48 0.210443ZM1237.53 0.210443H1164.25L1186.63 7.68243H1263.64L1237.53 0.210443ZM1163.58 0.210443H1090.19L1108.84 7.68243H1185.96L1163.58 0.210443ZM1089.63 0.210443H1016.15L1031.07 7.68243H1108.28L1089.63 0.210443ZM1015.68 0.210443H942.103L953.29 7.68243H1030.6L1015.68 0.210443ZM941.724 0.210443H868.06L875.516 7.68243H952.911L941.724 0.210443ZM867.763 0.210443H794.033L797.758 7.68243H875.219L867.763 0.210443ZM793.798 0.210443H646.03L642.292 7.68243H797.523L793.798 0.210443ZM645.794 0.210443H572.059L564.59 7.68243H642.057L645.794 0.210443ZM571.762 0.210443H498.105L486.905 7.68243H564.293L571.762 0.210443ZM497.726 0.210443H424.148L409.217 7.68243H486.526L497.726 0.210443ZM423.678 0.210443H350.194L331.532 7.68243H408.747L423.678 0.210443ZM349.628 0.210443H276.248L253.855 7.68243H330.966L349.628 0.210443ZM275.584 0.210443H202.297L176.172 7.68243H253.19L275.584 0.210443ZM201.531 0.210443H128.345L98.4877 7.68243H175.406L201.531 0.210443ZM127.478 0.210443H54.3942L20.8102 7.68243H97.6209L127.478 0.210443ZM42.9891 78.042L89.8063 62.4205H194.253L155.237 78.042H42.9891ZM90.437 62.2101H194.779L228.632 48.6556H131.06L90.437 62.2101ZM155.803 78.042L194.819 62.4205H299.366L268.15 78.042H155.803ZM195.345 62.2101H299.786L326.872 48.6556H229.198L195.345 62.2101ZM268.62 78.042L299.836 62.4205H404.478L381.063 78.042H268.62ZM300.256 62.2101H404.794L425.111 48.6556H327.342L300.256 62.2101ZM381.442 78.042L404.857 62.4205H509.579L493.964 78.042H381.442ZM405.173 62.2101H509.789L523.338 48.6556H425.49L405.173 62.2101ZM494.261 78.042L509.876 62.4205H614.676L606.862 78.042H494.261ZM510.086 62.2101H614.781L621.561 48.6556H523.635L510.086 62.2101ZM607.097 78.042L614.911 62.4205H824.81L832.597 78.042H607.097ZM615.017 62.2101H824.705L817.948 48.6556H621.797L615.017 62.2101ZM832.832 78.042L825.045 62.4205H929.839L945.427 78.042H832.832ZM824.94 62.2101H929.629L916.104 48.6556H818.183L824.94 62.2101ZM945.725 78.042L930.137 62.4205H1034.86L1058.25 78.042H945.725ZM929.927 62.2101H1034.55L1014.26 48.6556H916.401L929.927 62.2101ZM1058.63 78.042L1035.24 62.4205H1139.89L1171.07 78.042H1058.63ZM1034.93 62.2101H1139.46L1112.4 48.6556H1014.63L1034.93 62.2101ZM1171.54 78.042L1140.35 62.4205H1244.9L1283.9 78.042H1171.54ZM1139.93 62.2101H1244.38L1210.55 48.6556H1112.87L1139.93 62.2101ZM1284.46 78.042L1245.47 62.4205H1349.91L1396.7 78.042H1284.46ZM1244.94 62.2101H1349.28L1308.68 48.6556H1211.11L1244.94 62.2101ZM1329.84 96.4504L1284.42 78.2525H1171.96L1208.3 96.4504H1329.84ZM1207.83 96.4504L1171.49 78.2525H1058.95L1086.19 96.4504H1207.83ZM1085.81 96.4504L1058.57 78.2525H945.935L964.093 96.4504H1085.81ZM963.796 96.4504L945.637 78.2525H832.937L842.008 96.4504H963.796ZM841.773 96.4504L832.702 78.2525H606.992L597.889 96.4504H841.773ZM597.654 96.4504L606.757 78.2525H494.051L475.861 96.4504H597.654ZM475.564 96.4504L493.754 78.2525H381.126L353.849 96.4504H475.564ZM353.47 96.4504L380.747 78.2525H268.199L231.835 96.4504H353.47ZM231.365 96.4504L267.729 78.2525H155.278L109.827 96.4504H231.365ZM1375.36 16.2019L1342.17 7.89288H1265.14L1294.18 16.2019H1375.36ZM1293.41 16.2019L1264.38 7.89288H1187.26L1212.14 16.2019H1293.41ZM1212.77 16.4123H1294.15L1326.63 25.7065H1240.61L1212.77 16.4123ZM1211.48 16.2019L1186.59 7.89288H1109.37L1130.11 16.2019H1211.48ZM1130.63 16.4123H1212.11L1239.95 25.7065H1153.83L1130.63 16.4123ZM1129.54 16.2019L1108.8 7.89288H1031.49L1048.08 16.2019H1129.54ZM1048.5 16.4123H1130.07L1153.27 25.7065H1067.05L1048.5 16.4123ZM1047.61 16.2019L1031.02 7.89288H953.605L966.045 16.2019H1047.61ZM966.36 16.4123H1048.03L1066.58 25.7065H980.275L966.36 16.4123ZM965.666 16.2019L953.226 7.89288H875.726L884.017 16.2019H965.666ZM884.227 16.4123H965.981L979.896 25.7065H893.501L884.227 16.4123ZM883.72 16.2019L875.429 7.89288H797.863L802.005 16.2019H883.72ZM802.11 16.4123H883.93L893.204 25.7065H806.743L802.11 16.4123ZM801.77 16.2019L797.628 7.89288H642.187L638.031 16.2019H801.77ZM637.925 16.4123H801.875L806.508 25.7065H633.276L637.925 16.4123ZM637.795 16.2019L641.952 7.89288H564.38L556.075 16.2019H637.795ZM555.864 16.4123H637.69L633.041 25.7065H546.574L555.864 16.4123ZM555.777 16.2019L564.082 7.89288H486.59L474.135 16.2019H555.777ZM473.82 16.4123H555.567L546.277 25.7065H459.889L473.82 16.4123ZM473.756 16.2019L486.211 7.89288H408.797L392.193 16.2019H473.756ZM391.772 16.4123H473.441L459.509 25.7065H373.2L391.772 16.4123ZM391.723 16.2019L408.326 7.89288H331.007L310.254 16.2019H391.723ZM309.729 16.4123H391.302L372.73 25.7065H286.516L309.729 16.4123ZM309.688 16.2019L330.44 7.89288H253.224L228.322 16.2019H309.688ZM227.692 16.4123H309.162L285.949 25.7065H199.837L227.692 16.4123ZM227.658 16.2019L252.559 7.89288H175.436L146.385 16.2019H227.658ZM145.649 16.4123H227.027L199.172 25.7065H113.153L145.649 16.4123ZM145.619 16.2019L174.671 7.89288H97.6468L64.4449 16.2019H145.619ZM63.604 16.4123H144.884L112.387 25.7065H26.4653L63.604 16.4123ZM1294.91 16.4123H1376.2L1413.32 25.7065H1327.39L1294.91 16.4123ZM1406.08 48.4451L1364.65 36.5873H1273.2L1308.72 48.4451H1406.08ZM1308.05 48.4451L1272.53 36.5873H1180.99L1210.59 48.4451H1308.05ZM1210.02 48.4451L1180.42 36.5873H1088.78L1112.45 48.4451H1210.02ZM1111.98 48.4451L1088.31 36.5873H996.566L1014.32 48.4451H1111.98ZM1013.94 48.4451L996.187 36.5873H904.359L916.191 48.4451H1013.94ZM915.894 48.4451L904.062 36.5873H812.167L818.078 48.4451H915.894ZM817.843 48.4451L811.932 36.5873H627.833L621.902 48.4451H817.843ZM621.667 48.4451L627.598 36.5873H535.698L523.845 48.4451H621.667ZM523.548 48.4451L535.401 36.5873H443.579L425.805 48.4451H523.548ZM425.426 48.4451L443.2 36.5873H351.457L327.762 48.4451H425.426ZM327.292 48.4451L350.987 36.5873H259.34L229.724 48.4451H327.292ZM229.158 48.4451L258.774 36.5873H167.228L131.69 48.4451H229.158ZM131.025 48.4451L166.563 36.5873H75.1094L33.6501 48.4451H131.025ZM167.194 36.3769H75.8452L112.417 25.917H198.542L167.194 36.3769ZM167.859 36.3769H259.299L285.424 25.917H199.207L167.859 36.3769ZM259.865 36.3769H351.408L372.309 25.917H285.99L259.865 36.3769ZM351.878 36.3769H443.515L459.194 25.917H372.78L351.878 36.3769ZM443.895 36.3769H535.611L546.066 25.917H459.573L443.895 36.3769ZM535.908 36.3769H627.703L632.936 25.917H546.364L535.908 36.3769ZM627.939 36.3769H811.827L806.613 25.917H633.171L627.939 36.3769ZM812.062 36.3769H903.852L893.414 25.917H806.848L812.062 36.3769ZM904.149 36.3769H995.872L980.211 25.917H893.711L904.149 36.3769ZM996.251 36.3769H1087.89L1067 25.917H980.59L996.251 36.3769ZM1088.36 36.3769H1179.9L1153.79 25.917H1067.47L1088.36 36.3769ZM1180.47 36.3769H1271.9L1240.58 25.917H1154.36L1180.47 36.3769ZM1363.91 36.3769H1272.57L1241.24 25.917H1327.36L1363.91 36.3769Z"
    fill="url(#paint0_linear_4250_11166)" />
  <defs>
    <linearGradient id="paint0_linear_4250_11166" x1="-5.36472e-06" y1="286.031" x2="1440.08"
      y2="286.031" gradientUnits="userSpaceOnUse">
      <stop stop-color="#D665A3" />
      <stop offset="0.213542" stop-color="#E05E2B" />
      <stop offset="0.453125" stop-color="#F8D748" />
      <stop offset="0.703125" stop-color="#36AF73" />
      <stop offset="1" stop-color="#2D6FB9" />
    </linearGradient>
  </defs>
</svg>