<svg width="90" height="40" viewBox="0 0 90 40" fill="none" xmlns="http://www.w3.org/2000/svg">
  <path fill-rule="evenodd" clip-rule="evenodd"
    d="M35.4463 9.5767C35.4463 12.1166 36.4553 14.5525 38.2512 16.3484C40.0472 18.1444 42.4831 19.1534 45.023 19.1534C47.5629 19.1534 49.9988 18.1444 51.7947 16.3484C53.5907 14.5525 54.5997 12.1166 54.5997 9.5767C54.5997 7.0368 53.5907 4.60093 51.7947 2.80495C49.9988 1.00897 47.5629 0 45.023 0C42.4831 0 40.0472 1.00897 38.2512 2.80495C36.4553 4.60093 35.4463 7.0368 35.4463 9.5767ZM60.3189 25.0141C60.3189 25.0141 59.4623 22.5268 56.6678 22.1133H51.1558L47.741 30.5025L46.4472 25.0141C46.4472 25.0141 46.8371 24.8841 46.8843 24.6241C46.9316 24.3642 46.8843 22.6332 46.8843 22.6332C46.8843 22.6332 46.6539 22.1133 46.3408 22.1133H43.7059C43.3928 22.1133 43.1624 22.6332 43.1624 22.6332C43.1624 22.6332 43.1092 24.3701 43.1624 24.6241C43.2155 24.8782 43.5996 25.0141 43.5996 25.0141L42.3057 30.5025L38.891 22.1133H33.3789C30.5845 22.5268 29.7278 25.0141 29.7278 25.0141L26.4409 36.6649L24.5983 29.8182C24.5983 29.8182 24.007 28.1016 22.0784 27.8161H18.274L15.9172 33.6062L15.0243 29.8182C15.0243 29.8182 15.2934 29.7285 15.326 29.5491C15.3586 29.3697 15.326 28.175 15.326 28.175C15.326 28.175 15.167 27.8161 14.9509 27.8161H13.1323C12.9162 27.8161 12.7572 28.175 12.7572 28.175C12.7572 28.175 12.7205 29.3738 12.7572 29.5491C12.7939 29.7244 13.0589 29.8182 13.0589 29.8182L12.1659 33.6062L9.80911 27.8161H6.00478C4.07611 28.1016 3.48487 29.8182 3.48487 29.8182L0.75293 39.9998H25.5001L25.5 40H62.6611L62.6611 40H89.2466L86.5065 29.8185C86.5065 29.8185 85.9152 28.1018 83.9866 27.8164H80.1822L77.8254 33.6065L76.9325 29.8185C76.9325 29.8185 77.2016 29.7288 77.2342 29.5494C77.2668 29.3699 77.2342 28.1752 77.2342 28.1752C77.2342 28.1752 77.0752 27.8164 76.8591 27.8164H75.0405C74.8244 27.8164 74.6654 28.1752 74.6654 28.1752C74.6654 28.1752 74.6287 29.374 74.6654 29.5494C74.7021 29.7247 74.9671 29.8185 74.9671 29.8185L74.0741 33.6065L71.7173 27.8164H67.913C65.9843 28.1018 65.3931 29.8185 65.3931 29.8185L63.4803 36.9473L60.3189 25.0141ZM9.36769 23.8376C8.12814 22.598 7.43176 20.9169 7.43176 19.1639C7.43176 17.4109 8.12814 15.7297 9.36769 14.4901C10.6072 13.2506 12.2884 12.5542 14.0414 12.5542C15.7944 12.5542 17.4756 13.2506 18.7152 14.4901C19.9547 15.7297 20.6511 17.4109 20.6511 19.1639C20.6511 20.9169 19.9547 22.598 18.7152 23.8376C17.4756 25.0772 15.7944 25.7735 14.0414 25.7735C12.2884 25.7735 10.6072 25.0772 9.36769 23.8376ZM71.2758 23.8376C70.0362 22.598 69.3398 20.9169 69.3398 19.1639C69.3398 17.4109 70.0362 15.7297 71.2758 14.4901C72.5153 13.2506 74.1965 12.5542 75.9495 12.5542C77.7025 12.5542 79.3837 13.2506 80.6232 14.4901C81.8628 15.7297 82.5592 17.4109 82.5592 19.1639C82.5592 20.9169 81.8628 22.598 80.6232 23.8376C79.3837 25.0772 77.7025 25.7735 75.9495 25.7735C74.1965 25.7735 72.5153 25.0772 71.2758 23.8376Z"
    fill="url(#paint0_linear_3828_20856)" />
  <defs>
    <linearGradient id="paint0_linear_3828_20856" x1="0.752929" y1="20" x2="89.2466" y2="20"
      gradientUnits="userSpaceOnUse">
      <stop stop-color="#D665A3" />
      <stop offset="0.213542" stop-color="#E05E2B" />
      <stop offset="0.453125" stop-color="#F8D748" />
      <stop offset="0.703125" stop-color="#36AF73" />
      <stop offset="1" stop-color="#2D6FB9" />
    </linearGradient>
  </defs>
</svg>