<svg
  width="194"
  height="45"
  viewBox="0 0 194 45"
  fill="none"
  xmlns="http://www.w3.org/2000/svg"
>
  <path
    d="M4.592 5.512C5.296 5.512 5.89333 5.61333 6.384 5.816C6.88533 6.008 7.38133 6.31733 7.872 6.744L7.312 7.304C7.14133 7.144 6.96533 7 6.784 6.872C6.60267 6.744 6.4 6.632 6.176 6.536C5.96267 6.44 5.71733 6.37067 5.44 6.328C5.17333 6.27467 4.87467 6.248 4.544 6.248C3.712 6.248 3.06133 6.456 2.592 6.872C2.13333 7.288 1.904 7.864 1.904 8.6C1.904 9.28267 2.096 9.784 2.48 10.104C2.68267 10.2747 2.92267 10.4133 3.2 10.52C3.488 10.6267 3.792 10.7067 4.112 10.76L5.44 10.968C5.70667 11.0107 5.936 11.0533 6.128 11.096C6.32 11.1387 6.49067 11.192 6.64 11.256C6.8 11.3093 6.944 11.3787 7.072 11.464C7.21067 11.5493 7.344 11.6453 7.472 11.752C7.78133 12.0187 8.02133 12.3333 8.192 12.696C8.36267 13.0587 8.448 13.4747 8.448 13.944C8.448 14.424 8.35733 14.8613 8.176 15.256C8.00533 15.64 7.75467 15.9707 7.424 16.248C7.09333 16.5147 6.688 16.7227 6.208 16.872C5.73867 17.0213 5.20533 17.096 4.608 17.096C3.76533 17.096 3.05067 16.9787 2.464 16.744C1.888 16.4987 1.33867 16.1147 0.816 15.592L1.424 14.984C1.68 15.24 1.92533 15.4533 2.16 15.624C2.40533 15.7947 2.656 15.9333 2.912 16.04C3.168 16.1467 3.43467 16.2213 3.712 16.264C4 16.3067 4.31467 16.328 4.656 16.328C5.56267 16.328 6.27733 16.1253 6.8 15.72C7.32267 15.304 7.584 14.7227 7.584 13.976C7.584 13.2613 7.376 12.728 6.96 12.376C6.864 12.2907 6.76267 12.216 6.656 12.152C6.56 12.088 6.448 12.0347 6.32 11.992C6.20267 11.9493 6.05867 11.912 5.888 11.88C5.728 11.8373 5.536 11.8 5.312 11.768L3.984 11.56C3.10933 11.432 2.432 11.16 1.952 10.744C1.35467 10.2427 1.056 9.53867 1.056 8.632C1.056 8.152 1.136 7.72 1.296 7.336C1.46667 6.952 1.70133 6.62667 2 6.36C2.30933 6.08267 2.68267 5.87467 3.12 5.736C3.55733 5.58667 4.048 5.512 4.592 5.512ZM14.6066 5.512C15.6413 5.512 16.4946 5.81067 17.1666 6.408C17.8493 6.99467 18.2866 7.80533 18.4786 8.84H17.5986C17.428 8.04 17.076 7.416 16.5426 6.968C16.02 6.50933 15.3746 6.28 14.6066 6.28C13.7533 6.28 13.0333 6.57333 12.4466 7.16C12.244 7.36267 12.084 7.58133 11.9666 7.816C11.8493 8.05067 11.7586 8.328 11.6946 8.648C11.6413 8.95733 11.604 9.33067 11.5826 9.768C11.572 10.1947 11.5666 10.7067 11.5666 11.304C11.5666 11.9013 11.572 12.4187 11.5826 12.856C11.604 13.2827 11.6413 13.656 11.6946 13.976C11.7586 14.2853 11.8493 14.5573 11.9666 14.792C12.084 15.0267 12.244 15.2453 12.4466 15.448C13.0333 16.0347 13.7533 16.328 14.6066 16.328C15.3746 16.328 16.02 16.104 16.5426 15.656C17.076 15.1973 17.428 14.568 17.5986 13.768H18.4786C18.2866 14.8027 17.8493 15.6187 17.1666 16.216C16.4946 16.8027 15.6413 17.096 14.6066 17.096C14.0306 17.096 13.508 17 13.0386 16.808C12.58 16.616 12.18 16.3493 11.8386 16.008C11.572 15.7413 11.364 15.48 11.2146 15.224C11.0653 14.9573 10.9533 14.648 10.8786 14.296C10.804 13.944 10.756 13.5333 10.7346 13.064C10.7133 12.584 10.7026 11.9973 10.7026 11.304C10.7026 10.6107 10.7133 10.0293 10.7346 9.56C10.756 9.08 10.804 8.664 10.8786 8.312C10.9533 7.96 11.0653 7.656 11.2146 7.4C11.364 7.13333 11.572 6.86667 11.8386 6.6C12.18 6.25867 12.58 5.992 13.0386 5.8C13.508 5.608 14.0306 5.512 14.6066 5.512ZM25.7835 5.608C26.2422 5.608 26.6688 5.67733 27.0635 5.816C27.4688 5.944 27.8155 6.136 28.1035 6.392C28.4022 6.648 28.6315 6.968 28.7915 7.352C28.9622 7.736 29.0475 8.17333 29.0475 8.664C29.0475 9.528 28.8075 10.2213 28.3275 10.744C27.8582 11.2667 27.2235 11.5973 26.4235 11.736L29.1755 17H28.1675L25.4475 11.752H22.3115V17H21.4475V5.608H25.7835ZM22.3115 6.376V10.984H25.6715C26.4075 10.984 27.0102 10.7973 27.4795 10.424C27.9488 10.0507 28.1835 9.46933 28.1835 8.68C28.1835 7.89067 27.9488 7.30933 27.4795 6.936C27.0102 6.56267 26.4075 6.376 25.6715 6.376H22.3115ZM35.2629 5.512C35.8389 5.512 36.3562 5.608 36.8149 5.8C37.2842 5.992 37.6895 6.25867 38.0309 6.6C38.2975 6.86667 38.5055 7.13333 38.6549 7.4C38.8042 7.656 38.9162 7.96 38.9909 8.312C39.0655 8.664 39.1135 9.08 39.1349 9.56C39.1562 10.0293 39.1669 10.6107 39.1669 11.304C39.1669 11.9973 39.1562 12.584 39.1349 13.064C39.1135 13.5333 39.0655 13.944 38.9909 14.296C38.9162 14.648 38.8042 14.9573 38.6549 15.224C38.5055 15.48 38.2975 15.7413 38.0309 16.008C37.6895 16.3493 37.2842 16.616 36.8149 16.808C36.3562 17 35.8389 17.096 35.2629 17.096C34.6869 17.096 34.1642 17 33.6949 16.808C33.2362 16.616 32.8362 16.3493 32.4949 16.008C32.2282 15.7413 32.0202 15.48 31.8709 15.224C31.7215 14.9573 31.6095 14.648 31.5349 14.296C31.4602 13.944 31.4122 13.5333 31.3909 13.064C31.3695 12.584 31.3589 11.9973 31.3589 11.304C31.3589 10.6107 31.3695 10.0293 31.3909 9.56C31.4122 9.08 31.4602 8.664 31.5349 8.312C31.6095 7.96 31.7215 7.656 31.8709 7.4C32.0202 7.13333 32.2282 6.86667 32.4949 6.6C32.8362 6.25867 33.2362 5.992 33.6949 5.8C34.1642 5.608 34.6869 5.512 35.2629 5.512ZM35.2629 6.28C34.4095 6.28 33.6895 6.57333 33.1029 7.16C32.9002 7.36267 32.7402 7.58133 32.6229 7.816C32.5055 8.05067 32.4149 8.328 32.3509 8.648C32.2975 8.95733 32.2602 9.33067 32.2389 9.768C32.2282 10.1947 32.2229 10.7067 32.2229 11.304C32.2229 11.9013 32.2282 12.4187 32.2389 12.856C32.2602 13.2827 32.2975 13.656 32.3509 13.976C32.4149 14.2853 32.5055 14.5573 32.6229 14.792C32.7402 15.0267 32.9002 15.2453 33.1029 15.448C33.6895 16.0347 34.4095 16.328 35.2629 16.328C36.1162 16.328 36.8362 16.0347 37.4229 15.448C37.6255 15.2453 37.7855 15.0267 37.9029 14.792C38.0202 14.5573 38.1055 14.2853 38.1589 13.976C38.2229 13.656 38.2602 13.2827 38.2709 12.856C38.2922 12.4187 38.3029 11.9013 38.3029 11.304C38.3029 10.7067 38.2922 10.1947 38.2709 9.768C38.2602 9.33067 38.2229 8.95733 38.1589 8.648C38.1055 8.328 38.0202 8.05067 37.9029 7.816C37.7855 7.58133 37.6255 7.36267 37.4229 7.16C36.8362 6.57333 36.1162 6.28 35.2629 6.28ZM43.1084 16.232H49.1564V17H42.2444V5.608H43.1084V16.232ZM52.2646 16.232H58.3126V17H51.4006V5.608H52.2646V16.232ZM79.1753 6.376H75.7673V17H74.9033V6.376H71.5113V5.608H79.1753V6.376ZM84.5598 5.512C85.1358 5.512 85.6531 5.608 86.1118 5.8C86.5811 5.992 86.9864 6.25867 87.3278 6.6C87.5944 6.86667 87.8024 7.13333 87.9518 7.4C88.1011 7.656 88.2131 7.96 88.2878 8.312C88.3624 8.664 88.4104 9.08 88.4318 9.56C88.4531 10.0293 88.4638 10.6107 88.4638 11.304C88.4638 11.9973 88.4531 12.584 88.4318 13.064C88.4104 13.5333 88.3624 13.944 88.2878 14.296C88.2131 14.648 88.1011 14.9573 87.9518 15.224C87.8024 15.48 87.5944 15.7413 87.3278 16.008C86.9864 16.3493 86.5811 16.616 86.1118 16.808C85.6531 17 85.1358 17.096 84.5598 17.096C83.9838 17.096 83.4611 17 82.9918 16.808C82.5331 16.616 82.1331 16.3493 81.7918 16.008C81.5251 15.7413 81.3171 15.48 81.1678 15.224C81.0184 14.9573 80.9064 14.648 80.8318 14.296C80.7571 13.944 80.7091 13.5333 80.6878 13.064C80.6664 12.584 80.6558 11.9973 80.6558 11.304C80.6558 10.6107 80.6664 10.0293 80.6878 9.56C80.7091 9.08 80.7571 8.664 80.8318 8.312C80.9064 7.96 81.0184 7.656 81.1678 7.4C81.3171 7.13333 81.5251 6.86667 81.7918 6.6C82.1331 6.25867 82.5331 5.992 82.9918 5.8C83.4611 5.608 83.9838 5.512 84.5598 5.512ZM84.5598 6.28C83.7064 6.28 82.9864 6.57333 82.3998 7.16C82.1971 7.36267 82.0371 7.58133 81.9198 7.816C81.8024 8.05067 81.7118 8.328 81.6478 8.648C81.5944 8.95733 81.5571 9.33067 81.5358 9.768C81.5251 10.1947 81.5198 10.7067 81.5198 11.304C81.5198 11.9013 81.5251 12.4187 81.5358 12.856C81.5571 13.2827 81.5944 13.656 81.6478 13.976C81.7118 14.2853 81.8024 14.5573 81.9198 14.792C82.0371 15.0267 82.1971 15.2453 82.3998 15.448C82.9864 16.0347 83.7064 16.328 84.5598 16.328C85.4131 16.328 86.1331 16.0347 86.7198 15.448C86.9224 15.2453 87.0824 15.0267 87.1998 14.792C87.3171 14.5573 87.4024 14.2853 87.4558 13.976C87.5198 13.656 87.5571 13.2827 87.5677 12.856C87.5891 12.4187 87.5998 11.9013 87.5998 11.304C87.5998 10.7067 87.5891 10.1947 87.5677 9.768C87.5571 9.33067 87.5198 8.95733 87.4558 8.648C87.4024 8.328 87.3171 8.05067 87.1998 7.816C87.0824 7.58133 86.9224 7.36267 86.7198 7.16C86.1331 6.57333 85.4131 6.28 84.5598 6.28ZM106.656 17H105.92L102.176 5.608H103.088L106.288 15.48L109.488 5.608H110.4L106.656 17ZM113.187 17H112.323V5.608H113.187V17ZM123.625 6.376H117.577V10.872H122.729V11.64H117.577V16.232H123.625V17H116.713V5.608H123.625V6.376ZM134.82 17H133.94L131.252 7.08L128.564 17H127.684L124.836 5.608H125.748L128.148 15.512L130.804 5.608H131.7L134.356 15.512L136.756 5.608H137.668L134.82 17ZM161.547 17H160.683V7.608L157.227 14.584H156.363L152.843 7.608V17H151.979V5.608H152.843L156.811 13.576L160.683 5.608H161.547V17ZM168.529 5.512C169.105 5.512 169.622 5.608 170.081 5.8C170.55 5.992 170.955 6.25867 171.297 6.6C171.563 6.86667 171.771 7.13333 171.921 7.4C172.07 7.656 172.182 7.96 172.257 8.312C172.331 8.664 172.379 9.08 172.401 9.56C172.422 10.0293 172.433 10.6107 172.433 11.304C172.433 11.9973 172.422 12.584 172.401 13.064C172.379 13.5333 172.331 13.944 172.257 14.296C172.182 14.648 172.07 14.9573 171.921 15.224C171.771 15.48 171.563 15.7413 171.297 16.008C170.955 16.3493 170.55 16.616 170.081 16.808C169.622 17 169.105 17.096 168.529 17.096C167.953 17.096 167.43 17 166.961 16.808C166.502 16.616 166.102 16.3493 165.761 16.008C165.494 15.7413 165.286 15.48 165.137 15.224C164.987 14.9573 164.875 14.648 164.801 14.296C164.726 13.944 164.678 13.5333 164.657 13.064C164.635 12.584 164.625 11.9973 164.625 11.304C164.625 10.6107 164.635 10.0293 164.657 9.56C164.678 9.08 164.726 8.664 164.801 8.312C164.875 7.96 164.987 7.656 165.137 7.4C165.286 7.13333 165.494 6.86667 165.761 6.6C166.102 6.25867 166.502 5.992 166.961 5.8C167.43 5.608 167.953 5.512 168.529 5.512ZM168.529 6.28C167.675 6.28 166.955 6.57333 166.369 7.16C166.166 7.36267 166.006 7.58133 165.889 7.816C165.771 8.05067 165.681 8.328 165.617 8.648C165.563 8.95733 165.526 9.33067 165.505 9.768C165.494 10.1947 165.489 10.7067 165.489 11.304C165.489 11.9013 165.494 12.4187 165.505 12.856C165.526 13.2827 165.563 13.656 165.617 13.976C165.681 14.2853 165.771 14.5573 165.889 14.792C166.006 15.0267 166.166 15.2453 166.369 15.448C166.955 16.0347 167.675 16.328 168.529 16.328C169.382 16.328 170.102 16.0347 170.689 15.448C170.891 15.2453 171.051 15.0267 171.169 14.792C171.286 14.5573 171.371 14.2853 171.425 13.976C171.489 13.656 171.526 13.2827 171.536 12.856C171.558 12.4187 171.569 11.9013 171.569 11.304C171.569 10.7067 171.558 10.1947 171.536 9.768C171.526 9.33067 171.489 8.95733 171.425 8.648C171.371 8.328 171.286 8.05067 171.169 7.816C171.051 7.58133 170.891 7.36267 170.689 7.16C170.102 6.57333 169.382 6.28 168.529 6.28ZM179.846 5.608C180.305 5.608 180.731 5.67733 181.126 5.816C181.531 5.944 181.878 6.136 182.166 6.392C182.465 6.648 182.694 6.968 182.854 7.352C183.025 7.736 183.11 8.17333 183.11 8.664C183.11 9.528 182.87 10.2213 182.39 10.744C181.921 11.2667 181.286 11.5973 180.486 11.736L183.238 17H182.23L179.51 11.752H176.374V17H175.51V5.608H179.846ZM176.374 6.376V10.984H179.734C180.47 10.984 181.073 10.7973 181.542 10.424C182.011 10.0507 182.246 9.46933 182.246 8.68C182.246 7.89067 182.011 7.30933 181.542 6.936C181.073 6.56267 180.47 6.376 179.734 6.376H176.374ZM192.938 6.376H186.89V10.872H192.042V11.64H186.89V16.232H192.938V17H186.026V5.608H192.938V6.376Z"
    fill="currentColor"
  />
  <path
    d="M97.0005 33L103.929 45H90.0723L97.0005 33Z"
    fill="currentColor"
    opacity="0.6"
  />
</svg>