<svg width="66" height="66" viewBox="0 0 66 66" fill="none" xmlns="http://www.w3.org/2000/svg">
  <g opacity="0.05">
    <path fill-rule="evenodd" clip-rule="evenodd"
      d="M8.20417 30.8887C10.7403 32.2962 13.5208 33 16.5458 33C19.5708 33 22.3361 32.2962 24.8417 30.8887C27.3472 29.4812 29.3333 27.523 30.8 25.0139C32.2667 22.4743 33 19.6287 33 16.4771C33 13.3255 32.2667 10.4951 30.8 7.98609C29.3639 5.47705 27.3778 3.51878 24.8417 2.11127C22.3361 0.703755 19.5708 0 16.5458 0C13.5208 0 10.7403 0.703755 8.20417 2.11127C5.69861 3.51878 3.69722 5.47705 2.2 7.98609C0.733333 10.4951 0 13.3255 0 16.4771C0 19.6287 0.733333 22.4743 2.2 25.0139C3.69722 27.523 5.69861 29.4812 8.20417 30.8887ZM18.4724 8.14526C17.8417 6.20158 15.0958 6.20158 14.4651 8.14525L13.6308 10.7166C13.3488 11.5859 12.5399 12.1744 11.6272 12.1744H8.9272C6.88634 12.1744 6.03779 14.7896 7.68888 15.9908L9.87319 17.58C10.6116 18.1173 10.9206 19.0695 10.6385 19.9387L9.80418 22.5101C9.17352 24.4538 11.395 26.0701 13.0461 24.8688L15.2304 23.2796C15.9688 22.7424 16.9687 22.7424 17.7071 23.2796L19.8914 24.8688C21.5425 26.0701 23.764 24.4538 23.1333 22.5101L22.299 19.9387C22.017 19.0695 22.3259 18.1173 23.0643 17.58L25.2486 15.9908C26.8997 14.7896 26.0512 12.1744 24.0103 12.1744H21.3104C20.3977 12.1744 19.5888 11.5859 19.3067 10.7166L18.4724 8.14526Z"
      fill="url(#paint0_linear_12469_33317)" />
  </g>
  <g opacity="0.05">
    <path fill-rule="evenodd" clip-rule="evenodd"
      d="M57.7958 63.8887C55.2597 65.2962 52.4792 66 49.4542 66C46.4292 66 43.6639 65.2962 41.1583 63.8887C38.6528 62.4812 36.6667 60.523 35.2 58.0139C33.7333 55.4743 33 52.6287 33 49.4771C33 46.3255 33.7333 43.4951 35.2 40.9861C36.6361 38.4771 38.6222 36.5188 41.1583 35.1113C43.6639 33.7038 46.4292 33 49.4542 33C52.4792 33 55.2597 33.7038 57.7958 35.1113C60.3014 36.5188 62.3028 38.4771 63.8 40.9861C65.2667 43.4951 66 46.3255 66 49.4771C66 52.6287 65.2667 55.4743 63.8 58.0139C62.3028 60.523 60.3014 62.4812 57.7958 63.8887ZM47.5276 41.1453C48.1583 39.2016 50.9042 39.2016 51.5349 41.1453L52.3692 43.7166C52.6512 44.5859 53.4601 45.1744 54.3728 45.1744H57.0728C59.1137 45.1744 59.9622 47.7896 58.3111 48.9908L56.1268 50.58C55.3884 51.1173 55.0794 52.0695 55.3615 52.9387L56.1958 55.5101C56.8265 57.4538 54.605 59.0701 52.9539 57.8688L50.7696 56.2796C50.0312 55.7424 49.0313 55.7424 48.2929 56.2796L46.1086 57.8688C44.4575 59.0701 42.236 57.4538 42.8667 55.5101L43.701 52.9387C43.983 52.0695 43.6741 51.1173 42.9357 50.58L40.7514 48.9908C39.1003 47.7896 39.9488 45.1744 41.9897 45.1744H44.6896C45.6023 45.1744 46.4112 44.5859 46.6933 43.7166L47.5276 41.1453Z"
      fill="url(#paint1_linear_12469_33317)" />
  </g>
  <defs>
    <linearGradient id="paint0_linear_12469_33317" x1="0.0562755" y1="0.660656" x2="36.1717"
      y2="4.70961" gradientUnits="userSpaceOnUse">
      <stop stop-color="#50D113" />
      <stop offset="1" stop-color="#FFE600" />
    </linearGradient>
    <linearGradient id="paint1_linear_12469_33317" x1="65.9437" y1="33.6607" x2="29.8283"
      y2="37.7096" gradientUnits="userSpaceOnUse">
      <stop stop-color="#50D113" />
      <stop offset="1" stop-color="#FFE600" />
    </linearGradient>
  </defs>
</svg>