<svg width="16" height="17" viewBox="0 0 16 17" fill="none" xmlns="http://www.w3.org/2000/svg">
  <g opacity="0.85">
    <path
      d="M8.86832 8.49781L14.2638 3.10547C14.5044 2.86484 14.5044 2.47578 14.2638 2.23672C14.0232 1.99609 13.6341 1.99609 13.395 2.23672L7.998 7.62749L2.60098 2.23516C2.36035 1.99453 1.97129 1.99453 1.73223 2.23516C1.4916 2.47578 1.4916 2.86484 1.73223 3.10391L7.12769 8.49624L1.73223 13.8901C1.4916 14.1308 1.4916 14.5198 1.73223 14.7589C1.85254 14.8792 2.01035 14.9386 2.1666 14.9386C2.32441 14.9386 2.48066 14.8792 2.60098 14.7589L7.998 9.36656L13.395 14.7605C13.5153 14.8808 13.6716 14.9401 13.8294 14.9401C13.9872 14.9401 14.1435 14.8808 14.2638 14.7605C14.5044 14.5198 14.5044 14.1308 14.2638 13.8917L8.86832 8.49781Z"
      fill="currentColor" />
  </g>
</svg>