<svg width="36" height="37" viewBox="0 0 36 37" fill="none" xmlns="http://www.w3.org/2000/svg">
  <g clip-path="url(#clip0_12415_28062)">
    <path
      d="M19.2211 11.496C19.0834 11.3588 18.916 11.255 18.7319 11.1926C18.5478 11.1301 18.3518 11.1108 18.1591 11.136C17.966 11.1104 17.7696 11.1296 17.585 11.192C17.4005 11.2544 17.2328 11.3584 17.0948 11.496L12.3383 16.2525C12.1146 16.4955 11.9934 16.8157 12.0003 17.146C12.0071 17.4763 12.1414 17.7912 12.375 18.0248C12.6086 18.2585 12.9235 18.3927 13.2538 18.3995C13.5841 18.4064 13.9043 18.2852 14.1473 18.0615L16.8811 15.3277V25.1985C16.8949 25.5284 17.0357 25.8403 17.2741 26.0689C17.5125 26.2974 17.83 26.4251 18.1602 26.4251C18.4905 26.4251 18.8079 26.2974 19.0463 26.0689C19.2847 25.8403 19.4255 25.5284 19.4393 25.1985V15.3345L22.3486 18.2437C22.467 18.3632 22.6079 18.458 22.7631 18.5227C22.9184 18.5874 23.0849 18.6207 23.2531 18.6207C23.4213 18.6207 23.5878 18.5874 23.7431 18.5227C23.8983 18.458 24.0392 18.3632 24.1576 18.2437C24.2766 18.1248 24.371 17.9837 24.4354 17.8283C24.4998 17.6729 24.5329 17.5063 24.5329 17.3381C24.5329 17.1699 24.4998 17.0033 24.4354 16.8479C24.371 16.6926 24.2766 16.5514 24.1576 16.4325L19.2211 11.496Z"
      fill="url(#paint0_linear_12415_28062)" />
    <path
      d="M35.4002 17.7682L27.3362 3.79795C27.207 3.57465 27.0213 3.3893 26.7978 3.26054C26.5742 3.13178 26.3207 3.06415 26.0627 3.06445H9.93473C9.67675 3.06415 9.42324 3.13178 9.19968 3.26054C8.97613 3.3893 8.79042 3.57465 8.66123 3.79795L0.597233 17.7682C0.468279 17.9916 0.400391 18.2449 0.400391 18.5028C0.400391 18.7607 0.468279 19.0141 0.597233 19.2375L8.66123 33.2055C8.79042 33.4288 8.97613 33.6141 9.19968 33.7429C9.42324 33.8716 9.67675 33.9393 9.93473 33.9389H26.0627C26.3207 33.9393 26.5742 33.8716 26.7978 33.7429C27.0213 33.6141 27.207 33.4288 27.3362 33.2055L35.4002 19.2375C35.5292 19.0141 35.5971 18.7607 35.5971 18.5028C35.5971 18.2449 35.5292 17.9916 35.4002 17.7682ZM25.336 31.212H10.6592L3.32423 18.5017L10.6592 5.79145H25.336L32.6755 18.5017L25.336 31.212Z"
      fill="url(#paint1_linear_12415_28062)" />
  </g>
  <defs>
    <linearGradient id="paint0_linear_12415_28062" x1="12.0214" y1="11.4313" x2="25.7937"
      y2="12.6961" gradientUnits="userSpaceOnUse">
      <stop stop-color="#44C476" />
      <stop offset="1" stop-color="#FFE600" />
    </linearGradient>
    <linearGradient id="paint1_linear_12415_28062" x1="0.460412" y1="3.68256" x2="38.8372"
      y2="8.58735" gradientUnits="userSpaceOnUse">
      <stop stop-color="#44C476" />
      <stop offset="1" stop-color="#FFE600" />
    </linearGradient>
    <clipPath id="clip0_12415_28062">
      <rect width="36" height="36" fill="white" transform="translate(-0.00195312 0.5)" />
    </clipPath>
  </defs>
</svg>