<svg xmlns="http://www.w3.org/2000/svg" width="21" height="20" viewBox="0 0 21 20" fill="none">
  <path d="M5.2655 12.3444C5.59785 13.5848 6.3302 14.6808 7.34896 15.4625C8.36771 16.2443 9.61595 16.668 10.9001 16.668C12.1842 16.668 13.4324 16.2443 14.4512 15.4625C15.4699 14.6808 16.2023 13.5848 16.5346 12.3444" stroke="black" stroke-width="0.833333"/>
  <path d="M10.9001 10.832L10.6398 11.1574L10.9001 11.3656L11.1604 11.1574L10.9001 10.832ZM11.3167 3.33203C11.3167 3.10191 11.1302 2.91536 10.9001 2.91536C10.6699 2.91536 10.4834 3.10191 10.4834 3.33203L11.3167 3.33203ZM6.47311 7.82406L10.6398 11.1574L11.1604 10.5067L6.99369 7.17334L6.47311 7.82406ZM11.1604 11.1574L15.327 7.82406L14.8064 7.17334L10.6398 10.5067L11.1604 11.1574ZM11.3167 10.832L11.3167 3.33203L10.4834 3.33203L10.4834 10.832L11.3167 10.832Z" fill="black"/>
</svg>