<svg xmlns="http://www.w3.org/2000/svg" width="16" height="16" viewBox="0 0 16 16" fill="none">
  <path d="M14.8919 8.60811C14.5676 8.60811 14.2838 8.89189 14.2838 9.21622V14.0811C14.2838 14.2027 14.2027 14.2838 14.0811 14.2838H1.91892C1.7973 14.2838 1.71622 14.2027 1.71622 14.0811V1.91892C1.71622 1.7973 1.7973 1.71622 1.91892 1.71622H6.78378C7.10811 1.71622 7.39189 1.43243 7.39189 1.10811C7.39189 0.783784 7.10811 0.5 6.78378 0.5H1.91892C1.14865 0.5 0.5 1.14865 0.5 1.91892V14.0811C0.5 14.8514 1.14865 15.5 1.91892 15.5H14.0811C14.8514 15.5 15.5 14.8514 15.5 14.0811V9.21622C15.5 8.89189 15.2162 8.60811 14.8919 8.60811Z" fill="white"/>
  <path d="M14.8922 0.5H10.4327C10.1084 0.5 9.82464 0.783784 9.82464 1.10811C9.82464 1.43243 10.1084 1.71622 10.4327 1.71622H13.4327L7.95978 7.14865C7.71653 7.39189 7.71653 7.75676 7.95978 8C8.0814 8.12162 8.24356 8.16216 8.40572 8.16216C8.56788 8.16216 8.73005 8.12162 8.85167 8L14.2841 2.56757V5.56757C14.2841 5.89189 14.5679 6.17568 14.8922 6.17568C15.2165 6.17568 15.5003 5.89189 15.5003 5.56757V1.10811C15.5003 0.783784 15.2165 0.5 14.8922 0.5V0.5Z" fill="white"/>
</svg>