<svg width="74" height="80" viewBox="0 0 74 80" fill="none" xmlns="http://www.w3.org/2000/svg">
  <path
    d="M36.5093 4.61898C36.5093 4.61898 49.4101 4.41478 51.8325 4.97288C54.255 5.53098 55.2862 6.07563 53.8756 9.6886L50.4661 18.4211H22.5526L19.1431 9.6886C17.7325 6.07563 18.7637 5.53098 21.1862 4.97288C23.6086 4.41478 36.5093 4.61898 36.5093 4.61898Z"
    fill="#80AB29" />
  <path
    d="M27.9166 18.4211H22.5526L19.1431 9.68859C17.7325 6.07562 18.7637 5.53097 21.1862 4.97287C21.5217 4.89572 22.0585 4.83308 22.7338 4.78247L27.9166 18.4211Z"
    fill="#FFE046" />
  <path
    d="M37.2164 0.0184856C37.2164 0.0184856 47.8235 -0.547401 46.4178 4.58274L42.8197 17.7135H31.6131L28.015 4.58274C26.6093 -0.547401 37.2164 0.0184856 37.2164 0.0184856Z"
    fill="#FFE046" />
  <path
    d="M36.5083 16.6519L53.2552 22.6682C53.2552 22.6682 73.0167 40.1604 73.0167 57.3504C73.0167 74.5404 60.261 80 36.5083 80C12.7556 80 0 74.5404 0 57.3504C0 40.1604 19.7614 22.6682 19.7614 22.6682L36.5083 16.6519Z"
    fill="#80AB29" />
  <path
    d="M8.39451 74.5457C2.86057 71.0003 0 65.4908 0 57.3504C0 40.1604 19.7614 22.6682 19.7614 22.6682L21.2298 22.1409C30.5754 22.8442 39.2877 27.1322 45.5459 34.1087C50.9545 40.1385 55.0113 46.5706 55.0113 52.3006C55.0113 69.4906 42.2557 74.9502 18.503 74.9502C14.8748 74.9502 11.5032 74.8228 8.39451 74.5457Z"
    fill="#FFE046" />
  <path
    d="M54.2025 19.66C54.2025 17.9999 52.8545 16.6519 51.1944 16.6519H21.8207C20.1605 16.6519 18.8125 17.9999 18.8125 19.66C18.8125 21.3202 20.1605 22.6682 21.8207 22.6682H51.1944C52.8545 22.6682 54.2025 21.3202 54.2025 19.66Z"
    fill="#6C9618" />
  <path
    d="M25.386 36.7388C24.4316 38.3016 22.3881 38.796 20.8253 37.8419C19.2625 36.8874 18.7681 34.844 19.7222 33.2811L26.4463 20.0099C27.4008 18.4471 29.4442 17.9527 31.007 18.9068C32.5699 19.8613 33.0642 21.9047 32.1101 23.4675L25.386 36.7388Z"
    fill="#6C9618" />
  <path
    d="M38.2312 35.8834C38.1863 37.7138 36.6638 39.1637 34.8331 39.1187C33.0023 39.0738 31.5528 37.5513 31.5977 35.7206L30.7852 20.8653C30.8301 19.0346 32.3526 17.585 34.1833 17.6299C36.014 17.6749 37.4636 19.1973 37.4187 21.0281L38.2312 35.8834Z"
    fill="#6C9618" />
  <path
    d="M43.9394 19.66C43.9394 17.9999 42.5914 16.6519 40.9313 16.6519H21.8207C20.1605 16.6519 18.8125 17.9999 18.8125 19.66C18.8125 21.3202 20.1605 22.6682 21.8207 22.6682H40.9313C42.5914 22.6682 43.9394 21.3202 43.9394 19.66Z"
    fill="#ADE835" />
</svg>