<svg width="80" height="80" viewBox="0 0 80 80" fill="none" xmlns="http://www.w3.org/2000/svg">
  <path
    d="M19.8931 29.6247L27.5741 27.5753L29.621 19.8968L14.4989 11.142C14.0298 10.8713 13.4846 10.7629 12.9477 10.8336C12.4107 10.9043 11.9121 11.1502 11.5292 11.5331C11.1462 11.916 10.9004 12.4146 10.8296 12.9515C10.7589 13.4885 10.8674 14.0337 11.1381 14.5027L19.8931 29.6247ZM51.1535 27.5753L58.8321 29.6222L67.5845 14.5027C67.8564 14.0342 67.9657 13.4889 67.8953 12.9518C67.825 12.4148 67.5791 11.916 67.1958 11.5332C66.8137 11.149 66.315 10.9022 65.7777 10.8314C65.2404 10.7607 64.6949 10.8699 64.2262 11.142L49.1041 19.8968L51.1535 27.5753ZM27.5741 51.1543L19.8931 49.1074L11.1381 64.2293C10.8133 64.4186 10.5362 64.6798 10.3282 64.993C10.1202 65.3061 9.98686 65.6628 9.93843 66.0356C9.89001 66.4085 9.9278 66.7874 10.0489 67.1433C10.17 67.4992 10.3711 67.8226 10.6369 68.0885C10.9026 68.3544 11.2258 68.5558 11.5816 68.6771C11.9374 68.7985 12.3164 68.8365 12.6892 68.7884C13.0621 68.7402 13.4189 68.6072 13.7322 68.3994C14.0455 68.1917 14.307 67.9148 14.4964 67.5901L29.6235 58.8328L27.5741 51.1543ZM58.8296 49.1074L51.1535 51.1543L49.1041 58.8352L64.2262 67.5901C64.6955 67.8605 65.2408 67.9685 65.7777 67.8974C66.3146 67.8263 66.813 67.58 67.1956 67.1968C67.5783 66.8136 67.8238 66.3148 67.8941 65.7779C67.9645 65.2409 67.8556 64.6957 67.5845 64.2269L58.8296 49.1074Z"
    fill="#EED453" />
  <path
    d="M76.9044 36.9881L49.1449 29.5852L41.7419 1.82613C41.6018 1.30284 41.293 0.840402 40.8633 0.510571C40.4335 0.180739 39.907 0.00195312 39.3653 0.00195312C38.8235 0.00195313 38.297 0.180739 37.8672 0.510571C37.4375 0.840402 37.1287 1.30284 36.9886 1.82613L29.5856 29.5852L1.82615 36.9881C1.30286 37.1281 0.840415 37.437 0.510579 37.8667C0.180742 38.2964 0.00195313 38.8229 0.00195312 39.3647C0.00195312 39.9064 0.180742 40.4329 0.510579 40.8626C0.840415 41.2924 1.30286 41.6012 1.82615 41.7413L29.5856 49.1442L36.9886 76.9032C36.8911 77.2677 36.8787 77.6497 36.9523 78.0197C37.026 78.3898 37.1838 78.7379 37.4136 79.0372C37.6433 79.3365 37.9388 79.579 38.2773 79.7459C38.6157 79.9127 38.9879 79.9995 39.3653 79.9995C39.7426 79.9995 40.1148 79.9127 40.4533 79.7459C40.7917 79.579 41.0872 79.3365 41.3169 79.0372C41.5467 78.7379 41.7045 78.3898 41.7782 78.0197C41.8519 77.6497 41.8394 77.2677 41.7419 76.9032L49.1449 49.1442L76.9044 41.7413C77.2688 41.8388 77.6509 41.8512 78.0209 41.7775C78.391 41.7038 78.7391 41.546 79.0384 41.3163C79.3378 41.0865 79.5802 40.791 79.7471 40.4526C79.9139 40.1142 80.0007 39.742 80.0007 39.3647C80.0007 38.9873 79.9139 38.6151 79.7471 38.2767C79.5802 37.9383 79.3378 37.6428 79.0384 37.413C78.7391 37.1833 78.391 37.0255 78.0209 36.9518C77.6509 36.8781 77.2688 36.8905 76.9044 36.9881Z"
    fill="#FFE046" />
  <path
    d="M19.895 29.6246L27.576 27.5752L29.623 19.8967L14.5008 11.1419C14.0318 10.8712 13.4865 10.7627 12.9496 10.8334C12.4127 10.9041 11.9141 11.15 11.5311 11.533C11.1482 11.9159 10.9023 12.4145 10.8316 12.9514C10.7609 13.4883 10.8693 14.0336 11.1401 14.5026L19.895 29.6246ZM58.834 29.6221L67.5865 14.5026C67.8583 14.0341 67.9676 13.4888 67.8973 12.9517C67.827 12.4146 67.581 11.9159 67.1978 11.5331C66.8156 11.1489 66.3169 10.9021 65.7797 10.8313C65.2424 10.7605 64.6968 10.8698 64.2282 11.1419L49.106 19.8967L51.1554 27.5752L58.834 29.6221ZM19.895 49.1073L11.1401 64.2292C10.8152 64.4184 10.5381 64.6797 10.3301 64.9928C10.1222 65.306 9.98881 65.6627 9.94039 66.0355C9.89196 66.4083 9.92975 66.7873 10.0508 67.1432C10.1719 67.4991 10.3731 67.8224 10.6388 68.0884C10.9045 68.3543 11.2278 68.5557 11.5836 68.677C11.9394 68.7984 12.3183 68.8364 12.6912 68.7883C13.064 68.7401 13.4208 68.607 13.7341 68.3993C14.0475 68.1915 14.3089 67.9146 14.4984 67.5899L29.6255 58.8327L27.576 51.1542L19.895 49.1073ZM58.8316 49.1073L51.1554 51.1542L49.106 58.8351L64.2282 67.5899C64.6974 67.8603 65.2428 67.9684 65.7796 67.8973C66.3165 67.8262 66.8149 67.5799 67.1976 67.1967C67.5803 66.8135 67.8258 66.3147 67.8961 65.7777C67.9664 65.2408 67.8576 64.6956 67.5865 64.2268L58.8316 49.1073Z"
    fill="#FFE046" />
  <path
    d="M39.3646 78.7281C39.9065 78.728 40.4332 78.549 40.863 78.2189C41.2927 77.8888 41.6015 77.4261 41.7413 76.9025L49.1443 49.1435L39.3646 39.364V78.7281ZM1.82553 41.7406L29.585 49.1435L39.3646 39.364H0C7.85397e-05 39.9059 0.179059 40.4326 0.509154 40.8624C0.839249 41.2921 1.30199 41.6008 1.82553 41.7406ZM36.988 1.82551L29.585 29.5845L39.3646 39.364V0C38.8227 7.85213e-05 38.296 0.179056 37.8663 0.509146C37.4365 0.839236 37.1278 1.30197 36.988 1.82551ZM76.9037 36.9874L49.1443 29.5845L39.3646 39.364H78.7293C78.7292 38.8221 78.5502 38.2955 78.2201 37.8657C77.89 37.436 77.4273 37.1272 76.9037 36.9874ZM58.8304 49.1066L51.1543 51.1536L67.1991 67.1981C67.5818 66.8144 67.8272 66.3151 67.897 65.7777C67.9669 65.2403 67.8573 64.6949 67.5854 64.2261L58.8304 49.1066ZM67.1942 11.53C66.812 11.1465 66.3137 10.9004 65.7769 10.8301C65.2401 10.7598 64.6951 10.8692 64.2271 11.1412L49.1049 19.8961L51.1543 27.572L67.1942 11.53ZM19.8939 29.6239L27.5725 27.5745L11.5252 11.5349C11.1429 11.9178 10.8978 12.4162 10.8279 12.9528C10.7581 13.4893 10.8674 14.0339 11.139 14.502L19.8939 29.6239ZM11.5301 67.203C11.913 67.5853 12.4115 67.8305 12.9481 67.9003C13.4846 67.9701 14.0292 67.8608 14.4973 67.5893L29.6243 58.832L27.5749 51.156L11.5301 67.203Z"
    fill="#80AB29" />
</svg>