<svg width="84" height="72" viewBox="0 0 84 72" fill="none" xmlns="http://www.w3.org/2000/svg">
  <path d="M74.3446 55.2876L66.9697 62.7017L73.836 69.6046L81.2108 62.1905L74.3446 55.2876Z"
    fill="#828ECC" />
  <path
    d="M70.9502 65.6725C70.9502 67.3506 71.6133 68.96 72.7936 70.1466C73.9739 71.3332 75.5747 71.9998 77.2439 71.9998C78.9131 71.9998 80.514 71.3332 81.6943 70.1466C82.8746 68.96 83.5377 67.3506 83.5377 65.6725C83.5377 63.9944 82.8746 62.385 81.6943 61.1984C80.514 60.0118 78.9131 59.3452 77.2439 59.3452C75.5747 59.3452 73.9739 60.0118 72.7936 61.1984C71.6133 62.385 70.9502 63.9944 70.9502 65.6725Z"
    fill="#FFE892" />
  <path
    d="M77.2439 59.3452C80.7177 59.3452 83.5377 62.1802 83.5377 65.6725C83.5377 69.1645 80.7177 71.9998 77.2439 71.9998C73.7705 71.9998 70.9502 69.1645 70.9502 65.6725C70.9502 62.1802 73.7705 59.3452 77.2439 59.3452Z"
    fill="#35A77E" />
  <path
    d="M71.1642 49.7888L61.5006 59.5039L56.1603 54.1351L51.3285 60.5267L12.4199 11.1839L13.1827 1.21316L23.1006 0.446289L72.1817 39.5624L65.8239 44.4199L71.1642 49.7888Z"
    fill="url(#paint0_linear_3739_18900)" />
  <path
    d="M13.1826 1.21316L23.1005 0.446289L72.1815 39.5624L65.8238 44.4199L71.1641 49.7888L66.3323 54.6463L13.1826 1.21316Z"
    fill="#C1DDFF" />
  <path
    d="M79.9392 44.5504C78.3953 42.9982 75.8882 42.9982 74.3443 44.5504L56.2888 62.7021C54.7449 64.2543 54.7449 66.7747 56.2888 68.3269C57.8328 69.8791 60.3395 69.8791 61.8834 68.3269L79.9392 50.1748C81.4832 48.6226 81.4832 46.1025 79.9392 44.5504Z"
    fill="#35A77E" />
  <path
    d="M79.9398 44.5494C78.3958 42.9972 75.8888 42.9972 74.3448 44.5494L67.7332 51.1967C66.1892 52.7485 66.1892 55.2689 67.7332 56.8211C69.2767 58.3733 71.7838 58.3733 73.3277 56.8211L79.9398 50.1738C81.4837 48.6216 81.4837 46.1016 79.9398 44.5494Z"
    fill="#35A77E" />
  <path d="M18.0185 62.2525L10.6436 54.8384L3.77734 61.7413L11.1522 69.1554L18.0185 62.2525Z"
    fill="#828ECC" />
  <path
    d="M0.461914 65.673C0.461914 66.5039 0.624706 67.3267 0.940996 68.0944C1.25729 68.862 1.72088 69.5595 2.30531 70.1471C2.88973 70.7346 3.58355 71.2007 4.34714 71.5187C5.11073 71.8366 5.92915 72.0003 6.75565 72.0003C7.58216 72.0003 8.40057 71.8366 9.16416 71.5187C9.92775 71.2007 10.6216 70.7346 11.206 70.1471C11.7904 69.5595 12.254 68.862 12.5703 68.0944C12.8866 67.3267 13.0494 66.5039 13.0494 65.673C13.0494 63.9949 12.3863 62.3855 11.206 61.1989C10.0257 60.0123 8.42485 59.3457 6.75565 59.3457C5.08645 59.3457 3.48561 60.0123 2.30531 61.1989C1.125 62.3855 0.461914 63.9949 0.461914 65.673Z"
    fill="#FFE892" />
  <path
    d="M6.75565 59.3457C10.2294 59.3457 13.0494 62.1807 13.0494 65.673C13.0494 69.165 10.2294 72.0003 6.75565 72.0003C3.28223 72.0003 0.461914 69.165 0.461914 65.673C0.461914 62.1807 3.28223 59.3457 6.75565 59.3457Z"
    fill="#35A77E" />
  <path
    d="M23.4886 59.0576L13.825 49.3425L19.1654 43.9737L12.8076 39.1161L61.8887 0L71.8065 0.766869L72.5694 10.7376L33.6607 60.0804L28.829 53.6888L23.4886 59.0576Z"
    fill="#C1DDFF" />
  <path
    d="M71.8069 0.765137L72.5697 10.7359L33.6611 60.0787L28.8293 53.687L23.489 59.0558L18.6572 54.1983L71.8069 0.765137Z"
    fill="url(#paint1_linear_3739_18900)" />
  <path
    d="M28.7019 67.8772C30.2455 66.325 30.2455 63.8046 28.7019 62.2524L10.6461 44.1007C9.10216 42.5485 6.5951 42.5485 5.05151 44.1007C3.50757 45.6528 3.50757 48.1729 5.05151 49.7251L23.107 67.8772C24.6509 69.4294 27.158 69.4294 28.7019 67.8772Z"
    fill="#35A77E" />
  <path
    d="M28.6996 67.8769C30.2432 66.3247 30.2432 63.8042 28.6996 62.2521L22.0876 55.6048C20.5437 54.053 18.0366 54.053 16.4926 55.6048C14.9491 57.157 14.9491 59.6774 16.4926 61.2296L23.1047 67.8769C24.6486 69.429 27.1557 69.429 28.6996 67.8769Z"
    fill="#35A77E" />
  <defs>
    <linearGradient id="paint0_linear_3739_18900" x1="12.4199" y1="30.4865" x2="72.1817"
      y2="30.4865" gradientUnits="userSpaceOnUse">
      <stop stop-color="#D665A3" />
      <stop offset="0.213542" stop-color="#E05E2B" />
      <stop offset="0.453125" stop-color="#F8D748" />
      <stop offset="0.703125" stop-color="#36AF73" />
      <stop offset="1" stop-color="#2D6FB9" />
    </linearGradient>
    <linearGradient id="paint1_linear_3739_18900" x1="11.5394" y1="60.9232" x2="72.4629"
      y2="-9.25137e-05" gradientUnits="userSpaceOnUse">
      <stop stop-color="#D665A3" />
      <stop offset="0.213542" stop-color="#E05E2B" />
      <stop offset="0.453125" stop-color="#F8D748" />
      <stop offset="0.703125" stop-color="#36AF73" />
      <stop offset="1" stop-color="#2D6FB9" />
    </linearGradient>
  </defs>
</svg>