<svg width="14" height="16" viewBox="0 0 14 16" fill="none" xmlns="http://www.w3.org/2000/svg">
  <path
    d="M7.07736 0C6.91473 0 6.71994 0 6.50548 0.214597C4.79164 1.85626 1.36218 2.28546 1.36218 2.28546C0.733115 2.28546 0.220215 2.80049 0.220215 3.42819V9.71409C0.220215 11.4291 3.64968 16 7.07736 16C10.5068 16 13.9345 11.4291 13.9345 9.71409V3.42819C13.9345 2.80049 13.4198 2.28546 12.7925 2.28546C12.7925 2.28546 9.36486 1.89203 7.64923 0.250363C7.43478 0 7.24177 0 7.07736 0Z"
    fill="#C1DDFF" />
  <path
    d="M12.7922 2.30304C12.7922 2.30304 9.36454 1.90961 7.64891 0.267941C7.43803 0.0211547 7.24681 0.0175781 7.08597 0.0175781V8.00953H13.9342V3.44577C13.9342 2.81807 13.4213 2.30304 12.7922 2.30304ZM7.08597 8.00953H0.22168V9.71379C0.22168 11.4288 3.65115 15.9997 7.07882 15.9997H7.08776V8.00953H7.08597Z"
    fill="#50D113" />
</svg>