<svg width="20" height="10" viewBox="0 0 20 10" fill="none" xmlns="http://www.w3.org/2000/svg">
  <path
    d="M19.2385 9.72461H14.9499C14.5291 9.72461 14.1884 9.38393 14.1884 8.96309C14.1884 8.54224 14.5291 8.20156 14.9499 8.20156H17.3447L13.0561 3.91299L8.39679 8.60236C8.22645 8.77271 7.99599 8.85287 7.76553 8.84285C7.54509 8.85287 7.32465 8.77271 7.15431 8.60236L0.240481 1.68854C-0.0801603 1.3679 -0.0801603 0.836834 0.240481 0.516192C0.561122 0.195551 1.09218 0.195551 1.41283 0.516192L7.77555 6.8689L12.485 2.15948C12.8056 1.83884 13.3367 1.83884 13.6573 2.15948C13.6874 2.18954 13.7174 2.2196 13.7375 2.25968L18.477 6.99916V4.68453C18.477 4.26369 18.8176 3.92301 19.2385 3.92301C19.6593 3.92301 20 4.26369 20 4.68453V8.96309C20 9.38393 19.6593 9.72461 19.2385 9.72461Z"
    fill="currentColor" />
</svg>