<svg width="20" height="10" viewBox="0 0 20 10" fill="none" xmlns="http://www.w3.org/2000/svg">
  <path
    d="M19.2385 0.275391H14.9499C14.5291 0.275391 14.1884 0.616072 14.1884 1.03691C14.1884 1.45776 14.5291 1.79844 14.9499 1.79844H17.3447L13.0561 6.08701L8.39679 1.39764C8.22645 1.22729 7.99599 1.14713 7.76553 1.15715C7.54509 1.14713 7.32465 1.22729 7.15431 1.39764L0.240481 8.31146C-0.0801603 8.6321 -0.0801603 9.16317 0.240481 9.48381C0.561122 9.80445 1.09218 9.80445 1.41283 9.48381L7.77555 3.1311L12.485 7.84052C12.8056 8.16116 13.3367 8.16116 13.6573 7.84052C13.6874 7.81046 13.7174 7.7804 13.7375 7.74032L18.477 3.00084V5.31547C18.477 5.73631 18.8176 6.07699 19.2385 6.07699C19.6593 6.07699 20 5.73631 20 5.31547V1.03691C20 0.616072 19.6593 0.275391 19.2385 0.275391Z"
    fill="currentColor" />
</svg>