<svg width="16" height="16" viewBox="0 0 16 16" fill="none" xmlns="http://www.w3.org/2000/svg">
  <g opacity="0.25" clip-path="url(#clip0_30742_1336)">
    <path
      d="M8.00655 16C6.42404 16.0013 4.87669 15.5333 3.56024 14.655C2.24379 13.7768 1.21739 12.5278 0.610874 11.0662C0.00435901 9.6045 -0.155017 7.99578 0.152907 6.44352C0.460831 4.89125 1.22222 3.46519 2.34076 2.34572C3.4593 1.22625 4.88473 0.46367 6.43673 0.154452C7.98874 -0.154766 9.59759 0.00326836 11.0598 0.608564C12.5219 1.21386 13.7717 2.23922 14.6511 3.55494C15.5304 4.87066 15.9998 6.41762 15.9998 8.00013C15.9975 10.12 15.1548 12.1524 13.6565 13.652C12.1582 15.1516 10.1264 15.996 8.00655 16ZM8.00655 1.33356C6.68803 1.33356 5.39912 1.72455 4.30281 2.45708C3.20649 3.18961 2.35202 4.23079 1.84745 5.44894C1.34287 6.6671 1.21085 8.00752 1.46808 9.30071C1.72531 10.5939 2.36024 11.7818 3.29258 12.7141C4.22491 13.6464 5.41278 14.2814 6.70597 14.5386C7.99916 14.7958 9.33958 14.6638 10.5577 14.1592C11.7759 13.6547 12.8171 12.8002 13.5496 11.7039C14.2821 10.6076 14.6731 9.31865 14.6731 8.00013C14.6715 6.23253 13.9687 4.53779 12.7188 3.28791C11.4689 2.03803 9.77415 1.33515 8.00655 1.33356ZM8.00655 1.33356L7.3399 11.0001C7.20789 11.0005 7.07875 10.9616 6.96884 10.8885C6.85893 10.8154 6.77319 10.7113 6.7225 10.5895C6.67181 10.4676 6.65844 10.3334 6.68408 10.2039C6.70973 10.0744 6.77324 9.95545 6.86657 9.8621L8.72654 7.99946L6.86657 6.13682C6.79828 6.07664 6.74304 6.00311 6.70425 5.92077C6.66546 5.83842 6.64395 5.74901 6.64103 5.65803C6.63812 5.56705 6.65386 5.47644 6.6873 5.39179C6.72074 5.30713 6.77116 5.23021 6.83545 5.16578C6.89974 5.10135 6.97655 5.05077 7.06114 5.01715C7.14573 4.98353 7.2363 4.9676 7.32729 4.97032C7.41827 4.97304 7.50773 4.99436 7.59016 5.03298C7.67258 5.07159 7.74623 5.12668 7.80656 5.19484L10.1399 7.52813C10.2648 7.65315 10.335 7.82269 10.335 7.99946C10.335 8.17624 10.2648 8.34577 10.1399 8.47079L7.80656 10.8041C7.7456 10.8659 7.67295 10.9151 7.59283 10.9486C7.51272 10.9821 7.42674 10.9994 7.3399 10.9994L8.00655 1.33356Z"
      fill="white" />
  </g>
</svg>