<svg width="16" height="16" viewBox="0 0 16 16" fill="none" xmlns="http://www.w3.org/2000/svg">
  <g opacity="0.65">
    <path fill-rule="evenodd" clip-rule="evenodd"
      d="M15.3452 2.2814C15.5161 2.2814 15.6923 2.34901 15.8134 2.4703C15.9346 2.59158 16.0003 2.75016 16 2.91954C16 3.27259 15.6954 3.55767 15.3449 3.55767H14.9783V14.6632C14.9783 15.3564 14.4158 15.9196 13.7234 15.9196H2.45479C1.76242 15.9196 1.1999 15.3564 1.1999 14.6632V3.55767H0.637368C0.284745 3.55767 0 3.27259 0 2.91954C0 2.56649 0.286833 2.2814 0.637368 2.2814H3.94013V1.25641C3.94013 0.563205 4.50265 0 5.19502 0H10.8043C11.4966 0 12.0592 0.563205 12.0592 1.25641V2.2814H15.3452ZM1.91456 15.6954C1.88135 15.6641 1.84857 15.6329 1.81752 15.5982C1.84814 15.6329 1.88135 15.6641 1.91456 15.6954ZM2.08699 15.7914C2.05484 15.7644 2.02211 15.7293 1.98996 15.6942C2.00329 15.7073 2.01575 15.7205 2.0278 15.7332C2.0479 15.7544 2.06688 15.7745 2.08699 15.7914ZM5.19308 1.26116H10.7989V2.29312H5.19308V1.26116ZM2.4548 14.6618H13.7214V3.55804H4.07833H2.4548V14.6618ZM9.81607 5.69643C9.46171 5.69643 9.17522 5.98326 9.17522 6.33805V12.2911C9.17522 12.6459 9.46171 12.9327 9.81607 12.9327C10.1704 12.9327 10.4569 12.6459 10.4569 12.2911V6.33805C10.4569 5.98361 10.1704 5.69643 9.81607 5.69643ZM5.70424 6.33805C5.70424 5.98326 5.99073 5.69643 6.34509 5.69643C6.69911 5.69643 6.98594 5.98361 6.98594 6.33805V12.2911C6.98594 12.6459 6.69945 12.9327 6.34509 12.9327C5.99073 12.9327 5.70424 12.6459 5.70424 12.2911V6.33805Z"
      fill="currentColor" />
  </g>
</svg>