<svg width="20" height="20" viewBox="0 0 20 20" fill="none" xmlns="http://www.w3.org/2000/svg">
  <path fill-rule="evenodd" clip-rule="evenodd"
    d="M17.8627 4.04922C17.5669 3.71435 17.1596 3.53019 16.7165 3.53019H4.84349L4.79795 3.26729C4.69454 2.4202 3.95028 1.75781 3.10291 1.75781H2.35016C2.04022 1.75781 1.78809 2.00996 1.78809 2.31989C1.78809 2.62982 2.04024 2.88197 2.35016 2.88197H3.10291C3.38227 2.88197 3.64912 3.13298 3.68596 3.4299L4.25597 6.72534L5.25803 13.7814C5.36058 14.6274 6.09634 15.2898 6.93352 15.2898H16.5306C16.8406 15.2898 17.0927 15.0376 17.0927 14.7277C17.0927 14.4183 16.8405 14.1662 16.5306 14.1662H6.93352C6.6641 14.1662 6.40741 13.9231 6.37286 13.6353L6.28977 13.0501L15.6852 12.3354C16.5238 12.3354 17.2582 11.6867 17.359 10.8588L18.2905 5.53207C18.358 4.97337 18.2021 4.43226 17.8627 4.04922ZM7.08649 15.9395C6.45103 15.9395 5.93372 16.4568 5.93372 17.0925C5.93372 17.7277 6.45105 18.245 7.08649 18.245C7.72196 18.245 8.23927 17.7277 8.23927 17.0925C8.23927 16.4568 7.72194 15.9395 7.08649 15.9395ZM14.2061 17.0925C14.2061 16.4568 14.7234 15.9395 15.3591 15.9395C15.9943 15.9395 16.5116 16.4568 16.5116 17.0925C16.5116 17.7277 15.9943 18.245 15.3591 18.245C14.7234 18.245 14.2061 17.7277 14.2061 17.0925Z"
    fill="currentColor" />
</svg>