<svg width="32" height="32" viewBox="0 0 32 32" xmlns="http://www.w3.org/2000/svg">
  <path fill-rule="evenodd" clip-rule="evenodd"
    d="M24.7056 9.83496C22.773 7.11077 19.594 5.33301 15.9997 5.33301C12.4054 5.33301 9.22634 7.11077 7.29379 9.83496C6.05891 11.5757 5.33301 13.7029 5.33301 15.9997C5.33301 18.2964 6.05891 20.4237 7.29379 22.1644C9.22634 24.8886 12.4054 26.6663 15.9997 26.6663C19.594 26.6663 22.773 24.8886 24.7056 22.1644C25.9404 20.4237 26.6663 18.2964 26.6663 15.9997C26.6663 13.7029 25.9404 11.5757 24.7056 9.83496ZM15.2377 7.14681V11.4048C14.3101 11.3476 13.4029 11.1863 12.5296 10.9277C13.1769 9.51324 14.0937 8.22936 15.2377 7.14681ZM19.4698 10.9277C18.8225 9.51324 17.9057 8.22933 16.7617 7.14681V11.4048C17.6893 11.3476 18.5966 11.1863 19.4698 10.9277V10.9277ZM16.7617 15.2379H20.5477C20.4864 14.2467 20.3061 13.2799 20.0167 12.3545C18.9787 12.672 17.8883 12.8697 16.7617 12.9313V15.2379ZM16.7617 19.0682V16.7617H20.5477C20.4864 17.7529 20.3061 18.7197 20.0167 19.6451C18.9787 19.3276 17.8883 19.1299 16.7617 19.0682ZM16.7617 24.8524C17.9057 23.7699 18.8225 22.486 19.4698 21.0715C18.5966 20.813 17.6893 20.6516 16.7617 20.5944V24.8524ZM11.4518 15.2379H15.2378V12.9313C14.1113 12.8697 13.0209 12.672 11.9828 12.3545C11.6935 13.2799 11.5131 14.2467 11.4518 15.2379ZM15.2378 19.0682C14.1113 19.1299 13.0209 19.3276 11.9828 19.6451C11.6935 18.7197 11.5131 17.7529 11.4518 16.7617H15.2378V19.0682ZM15.2377 24.8524V20.5944C14.3101 20.6516 13.4029 20.813 12.5296 21.0715C13.1769 22.486 14.0937 23.7699 15.2377 24.8524ZM12.9542 7.37663C11.6576 7.83403 10.4806 8.57977 9.50944 9.55934C10.0165 9.87912 10.5465 10.1609 11.0952 10.4022C11.5838 9.31072 12.2109 8.29472 12.9542 7.37663ZM22.49 9.55934C21.983 9.87912 21.4529 10.1609 20.9042 10.4022C20.4156 9.31072 19.7885 8.29472 19.0452 7.37663C20.3418 7.83403 21.5188 8.57977 22.49 9.55934ZM22.0741 15.2379H25.1113C24.9737 13.5705 24.3887 12.03 23.4766 10.7367C22.8325 11.1565 22.154 11.5212 21.4486 11.8271C21.7946 12.9116 22.0093 14.0548 22.0741 15.2379ZM23.4766 21.263C22.8325 20.8432 22.154 20.4784 21.4486 20.1726C21.7946 19.088 22.0094 17.9448 22.0741 16.7617H25.1113C24.9737 18.4291 24.3887 19.9696 23.4766 21.263ZM19.0452 24.623C20.3418 24.1655 21.5188 23.4198 22.49 22.4402C21.983 22.1205 21.4529 21.8387 20.9042 21.5973C20.4156 22.6889 19.7885 23.7049 19.0452 24.623ZM9.50944 22.4402C10.0165 22.1205 10.5465 21.8387 11.0952 21.5973C11.5838 22.6889 12.2109 23.7049 12.9542 24.623C11.6576 24.1655 10.4806 23.4198 9.50944 22.4402ZM9.92516 16.7617H6.88802C7.02559 18.4291 7.61057 19.9696 8.52264 21.263C9.16682 20.8432 9.84525 20.4784 10.5507 20.1726C10.2047 19.088 9.98995 17.9448 9.92516 16.7617ZM6.88802 15.2379C7.02559 13.5705 7.61057 12.03 8.52264 10.7367L10.5472 11.8332L9.92816 15.2379H6.88802Z"
    fill="currentColor" />
</svg>