<svg width="14" height="14" viewBox="0 -0.5 14 14" fill="none" xmlns="http://www.w3.org/2000/svg">
<path fill-rule="evenodd" clip-rule="evenodd" d="M4.45078 0.100098H12.7008C13.1983 0.100098 13.6008 0.502598 13.6008 1.0001V9.2501C13.6008 9.49885 13.3995 9.7001 13.1508 9.7001C12.902 9.7001 12.7008 9.49885 12.7008 9.2501V1.0001H4.45078C4.20203 1.0001 4.00078 0.798848 4.00078 0.550098C4.00078 0.301348 4.20203 0.100098 4.45078 0.100098ZM9.50078 3.3001H1.70078C1.20328 3.3001 0.800781 3.7026 0.800781 4.2001V12.0001C0.800781 12.4976 1.20328 12.9001 1.70078 12.9001H9.50078C9.99828 12.9001 10.4008 12.4976 10.4008 12.0001V4.2001C10.4008 3.7026 9.99828 3.3001 9.50078 3.3001ZM9.50078 4.2001V12.0001H1.70078V4.2001H9.50078Z" fill="currentColor"/>
</svg>
