<svg width="18" height="19" viewBox="-0.5 -0.5 20 20" xmlns="http://www.w3.org/2000/svg">
  <path
    d="M6.36787 7.82648V15.8157C6.36787 17.5743 4.94238 19 3.18394 19C1.42549 19 0 17.5743 0 15.8157C0 14.057 1.42549 12.6314 3.18394 12.6314C3.72058 12.6314 4.22621 12.7641 4.66977 12.9986V7.12624C4.66959 7.11601 4.66959 7.10578 4.66977 7.09555V2.86611C4.66977 2.4531 4.9669 2.09998 5.37381 2.02944L17.0058 0.0127044C17.5249 -0.0773057 17.9999 0.322411 17.9999 0.849374V5.08078C18 5.09106 18 5.10127 17.9999 5.11148V13.7777C17.9999 15.5364 16.5744 16.962 14.8159 16.962C13.0575 16.962 11.632 15.5364 11.632 13.7777C11.632 12.0191 13.0575 10.5934 14.8159 10.5934C15.3526 10.5934 15.8582 10.7262 16.3018 10.9607V6.10414L6.36787 7.82648ZM6.36787 6.10284L16.3018 4.38053V1.85838L6.36787 3.58069V6.10287V6.10284ZM3.18394 17.3017C4.00454 17.3017 4.66977 16.6364 4.66977 15.8157C4.66977 14.995 4.00454 14.3297 3.18394 14.3297C2.36333 14.3297 1.6981 14.995 1.6981 15.8157C1.6981 16.6364 2.36333 17.3017 3.18394 17.3017ZM14.8159 15.2637C15.6365 15.2637 16.3018 14.5984 16.3018 13.7777C16.3018 12.957 15.6365 12.2917 14.8159 12.2917C13.9953 12.2917 13.3301 12.957 13.3301 13.7777C13.3301 14.5984 13.9953 15.2637 14.8159 15.2637Z"
    fill="currentColor" />
</svg>