<svg width="10" height="10" viewBox="0 0 10 10" xmlns="http://www.w3.org/2000/svg">
  <mask id="path-1-inside-1_1309_8627" fill="white">
    <path fill-rule="evenodd" clip-rule="evenodd"
      d="M10 5C10 7.76142 7.76142 10 5 10C2.23858 10 0 7.76142 0 5C0 2.23858 2.23858 0 5 0C7.76142 0 10 2.23858 10 5ZM5.45455 4.6753C5.45455 4.42426 5.25104 4.22076 5 4.22076C4.74896 4.22076 4.54545 4.42426 4.54545 4.6753V7.40258C4.54545 7.65361 4.74896 7.85712 5 7.85712C5.25104 7.85712 5.45455 7.65361 5.45455 7.40258V4.6753ZM5 2.40252C5.25104 2.40252 5.45455 2.60603 5.45455 2.85707C5.45455 3.1081 5.25104 3.31161 5 3.31161C4.74896 3.31161 4.54545 3.1081 4.54545 2.85707C4.54545 2.60603 4.74896 2.40252 5 2.40252Z" />
  </mask>
  <path fill-rule="evenodd" clip-rule="evenodd"
    d="M10 5C10 7.76142 7.76142 10 5 10C2.23858 10 0 7.76142 0 5C0 2.23858 2.23858 0 5 0C7.76142 0 10 2.23858 10 5ZM5.45455 4.6753C5.45455 4.42426 5.25104 4.22076 5 4.22076C4.74896 4.22076 4.54545 4.42426 4.54545 4.6753V7.40258C4.54545 7.65361 4.74896 7.85712 5 7.85712C5.25104 7.85712 5.45455 7.65361 5.45455 7.40258V4.6753ZM5 2.40252C5.25104 2.40252 5.45455 2.60603 5.45455 2.85707C5.45455 3.1081 5.25104 3.31161 5 3.31161C4.74896 3.31161 4.54545 3.1081 4.54545 2.85707C4.54545 2.60603 4.74896 2.40252 5 2.40252Z"
    fill="currentColor" />
  <path
    d="M5 11.5C8.58985 11.5 11.5 8.58985 11.5 5H8.5C8.5 6.933 6.933 8.5 5 8.5V11.5ZM-1.5 5C-1.5 8.58985 1.41015 11.5 5 11.5V8.5C3.067 8.5 1.5 6.933 1.5 5H-1.5ZM5 -1.5C1.41015 -1.5 -1.5 1.41015 -1.5 5H1.5C1.5 3.067 3.067 1.5 5 1.5V-1.5ZM11.5 5C11.5 1.41015 8.58985 -1.5 5 -1.5V1.5C6.933 1.5 8.5 3.067 8.5 5H11.5ZM5 5.72076C4.42261 5.72076 3.95455 5.25269 3.95455 4.6753H6.95455C6.95455 3.59584 6.07947 2.72076 5 2.72076V5.72076ZM6.04545 4.6753C6.04545 5.25269 5.57739 5.72076 5 5.72076V2.72076C3.92053 2.72076 3.04545 3.59584 3.04545 4.6753H6.04545ZM6.04545 7.40258V4.6753H3.04545V7.40258H6.04545ZM5 6.35712C5.57739 6.35712 6.04545 6.82519 6.04545 7.40258H3.04545C3.04545 8.48204 3.92053 9.35712 5 9.35712V6.35712ZM3.95455 7.40258C3.95455 6.82519 4.42261 6.35712 5 6.35712V9.35712C6.07946 9.35712 6.95455 8.48204 6.95455 7.40258H3.95455ZM3.95455 4.6753V7.40258H6.95455V4.6753H3.95455ZM6.95455 2.85707C6.95455 1.7776 6.07947 0.90252 5 0.90252V3.90252C4.42261 3.90252 3.95455 3.43445 3.95455 2.85707H6.95455ZM5 4.81161C6.07947 4.81161 6.95455 3.93653 6.95455 2.85707H3.95455C3.95455 2.27968 4.42261 1.81161 5 1.81161V4.81161ZM3.04545 2.85707C3.04545 3.93653 3.92053 4.81161 5 4.81161V1.81161C5.57739 1.81161 6.04545 2.27968 6.04545 2.85707H3.04545ZM5 0.90252C3.92053 0.90252 3.04545 1.7776 3.04545 2.85707H6.04545C6.04545 3.43445 5.57739 3.90252 5 3.90252V0.90252Z"
    fill="currentColor" mask="url(#path-1-inside-1_1309_8627)" />
</svg>