<svg viewBox="0 0 1024 1024" version="1.1" xmlns="http://www.w3.org/2000/svg" >
  <path d="M443.2 673.1c-19.2 0-37.3-7.5-50.8-21L262.8 522.6c-7.8-7.8-7.8-20.5 0-28.3 7.8-7.8 20.5-7.8 28.3 0l129.6 129.6c6 6 14 9.3 22.5 9.3s16.5-3.3 22.5-9.3l267.1-267.1c7.8-7.8 20.5-7.8 28.3 0s7.8 20.5 0 28.3L494 652.1c-13.5 13.6-31.5 21-50.8 21z" fill="currentColor"></path>
<path d="M512 57c59.1 0 116.7 11.2 171.2 33.3 56.4 22.9 107.1 56.5 150.5 100 43.4 43.4 77.1 94.1 100 150.5C955.8 395.3 967 452.9 967 512c0 59.1-11.2 116.7-33.3 171.2-22.9 56.4-56.5 107.1-100 150.5-43.4 43.4-94.1 77.1-150.5 100C628.7 955.8 571.1 967 512 967s-116.7-11.2-171.2-33.3c-56.4-22.9-107.1-56.5-150.5-100-43.4-43.4-77.1-94.1-100-150.5C68.2 628.7 57 571.1 57 512c0-59.1 11.2-116.7 33.3-171.2 22.9-56.4 56.5-107.1 100-150.5 43.4-43.4 94.1-77.1 150.5-100C395.3 68.2 452.9 57 512 57m0-40c-126.7 0-253.4 48.3-350 145-193.3 193.3-193.3 506.7 0 700 96.7 96.7 223.3 145 350 145s253.4-48.3 350-145c193.3-193.3 193.3-506.7 0-700C765.4 65.3 638.7 17 512 17z" fill="currentColor"></path>
</svg>