<svg width="13" height="13" viewBox="0 0 13 13" fill="none" xmlns="http://www.w3.org/2000/svg">
  <g opacity="0.45">
    <path
      d="M11.7635 6.68668C11.5041 6.68668 11.277 6.91371 11.277 7.17317V11.0651C11.277 11.1624 11.2122 11.2272 11.1149 11.2272H1.38514C1.28784 11.2272 1.22297 11.1624 1.22297 11.0651V1.33533C1.22297 1.23803 1.28784 1.17317 1.38514 1.17317H5.27703C5.53649 1.17317 5.76351 0.946141 5.76351 0.686682C5.76351 0.427222 5.53649 0.200195 5.27703 0.200195H1.38514C0.768919 0.200195 0.25 0.719114 0.25 1.33533V11.0651C0.25 11.6813 0.768919 12.2002 1.38514 12.2002H11.1149C11.7311 12.2002 12.25 11.6813 12.25 11.0651V7.17317C12.25 6.91371 12.023 6.68668 11.7635 6.68668Z"
      fill="currentColor" />
    <path
      d="M11.7632 0.200195H8.19561C7.93615 0.200195 7.70913 0.427222 7.70913 0.686682C7.70913 0.946141 7.93615 1.17317 8.19561 1.17317H10.5956L6.21723 5.51911C6.02264 5.71371 6.02264 6.0056 6.21723 6.2002C6.31453 6.29749 6.44426 6.32992 6.57399 6.32992C6.70372 6.32992 6.83345 6.29749 6.93075 6.2002L11.2767 1.85425V4.25425C11.2767 4.51371 11.5037 4.74074 11.7632 4.74074C12.0226 4.74074 12.2497 4.51371 12.2497 4.25425V0.686682C12.2497 0.427222 12.0226 0.200195 11.7632 0.200195V0.200195Z"
      fill="currentColor" />
  </g>
</svg>