<svg width="30" height="30" viewBox="0 0 30 30" fill="none" xmlns="http://www.w3.org/2000/svg">
  <path
    d="M10.2587 3.83942C9.92991 3.78869 9.91605 3.78274 10.0708 3.7591C10.3672 3.71375 11.0673 3.77555 11.5497 3.88965C12.6759 4.15591 13.7007 4.83799 14.7946 6.04936L15.0852 6.37119L15.501 6.30471C17.2524 6.02477 19.0342 6.24725 20.5244 6.93199C20.9344 7.12036 21.5808 7.49534 21.6616 7.5917C21.6872 7.62242 21.7345 7.82009 21.7666 8.03104C21.8772 8.76083 21.8218 9.32023 21.5974 9.73803C21.4753 9.96539 21.4685 10.0374 21.5506 10.232C21.6161 10.3873 21.7988 10.5022 21.9798 10.502C22.3501 10.5015 22.7488 9.90603 22.9334 9.07753L23.0068 8.74843L23.1521 8.91217C23.9494 9.8105 24.5754 11.0356 24.683 11.9076L24.711 12.135L24.5771 11.9283C24.3464 11.5726 24.1147 11.3305 23.818 11.1352C23.2831 10.7832 22.7176 10.6634 21.2198 10.5849C19.8671 10.514 19.1015 10.3991 18.3424 10.1529C17.0507 9.73406 16.3996 9.17624 14.8654 7.17415C14.1839 6.28487 13.7627 5.79286 13.3437 5.39663C12.3916 4.49632 11.4562 4.02416 10.2587 3.83942Z"
    fill="currentColor" />
  <path
    d="M21.9666 5.82499C22.0007 5.22909 22.082 4.83605 22.2454 4.47711C22.31 4.33503 22.3706 4.21875 22.3799 4.21875C22.3893 4.21875 22.3612 4.32362 22.3174 4.45177C22.1987 4.80013 22.1792 5.2766 22.261 5.83094C22.3648 6.53432 22.4238 6.6358 23.1713 7.39559C23.522 7.75197 23.9297 8.20144 24.0776 8.39441L24.3464 8.74529L24.0776 8.49453C23.7489 8.18788 22.9929 7.58985 22.8258 7.50436C22.7139 7.44703 22.6973 7.44801 22.6282 7.51639C22.5646 7.57939 22.5512 7.67405 22.5423 8.12158C22.5286 8.81908 22.433 9.26678 22.2023 9.71443C22.0775 9.95655 22.0578 9.90488 22.1708 9.63159C22.2551 9.42754 22.2636 9.33784 22.263 8.66261C22.2617 7.30593 22.0997 6.97977 21.15 6.42105C20.9096 6.2795 20.5131 6.07538 20.2692 5.9674C20.0253 5.85943 19.8316 5.76538 19.8386 5.75835C19.8656 5.73173 20.7917 6.00059 21.1644 6.14321C21.719 6.35536 21.8104 6.38285 21.8778 6.35726C21.923 6.34011 21.9448 6.20935 21.9666 5.82499Z"
    fill="currentColor" />
  <path
    d="M10.8973 8.14583C10.2299 7.23196 9.817 5.83079 9.9064 4.78336L9.93404 4.45923L10.086 4.4868C10.3712 4.53856 10.8631 4.72066 11.0935 4.8598C11.7255 5.2416 11.9992 5.74427 12.2776 7.03506C12.3591 7.41315 12.4661 7.841 12.5153 7.98585C12.5946 8.219 12.8941 8.76359 13.1375 9.11728C13.3129 9.372 13.1964 9.49271 12.8087 9.4579C12.2167 9.40474 11.4147 8.85424 10.8973 8.14583Z"
    fill="currentColor" />
  <path
    d="M21.1572 14.9473C18.0383 13.6983 16.9397 12.6141 16.9397 10.7849C16.9397 10.5157 16.9491 10.2954 16.9605 10.2954C16.9717 10.2954 17.0925 10.3842 17.2285 10.4928C17.8611 10.9974 18.5693 11.2129 20.5299 11.4974C21.6837 11.6648 22.333 11.8 22.9319 11.9976C24.8355 12.6255 26.0133 13.8998 26.2942 15.6355C26.3758 16.1398 26.3279 17.0856 26.1955 17.5841C26.0911 17.9777 25.7723 18.6874 25.6878 18.7146C25.6644 18.7222 25.6414 18.6328 25.6354 18.5112C25.6032 17.8595 25.2721 17.2249 24.7161 16.7496C24.0838 16.2092 23.2343 15.779 21.1572 14.9473Z"
    fill="currentColor" />
  <path
    d="M18.9676 15.4661C18.9285 15.2347 18.8608 14.9394 18.817 14.8097L18.7375 14.5737L18.8852 14.7389C19.0898 14.9672 19.2514 15.2594 19.3885 15.6486C19.493 15.9457 19.5048 16.034 19.504 16.5167C19.5032 16.9905 19.4901 17.0899 19.3936 17.3573C19.2414 17.7789 19.0524 18.0779 18.7353 18.3987C18.1656 18.9755 17.4331 19.2948 16.3761 19.4273C16.1924 19.4502 15.6568 19.4891 15.1861 19.5133C13.9996 19.5747 13.2187 19.7016 12.517 19.9466C12.4161 19.9819 12.326 20.0033 12.3169 19.9941C12.2885 19.9661 12.7662 19.6829 13.1608 19.4937C13.7172 19.2272 14.2711 19.0817 15.5121 18.8762C16.1251 18.7746 16.7582 18.6515 16.9189 18.6024C18.437 18.1394 19.2174 16.9447 18.9676 15.4661Z"
    fill="currentColor" />
  <path
    d="M20.3976 17.9916C19.9831 17.1056 19.8879 16.2502 20.115 15.4524C20.1393 15.3671 20.1783 15.2974 20.2019 15.2974C20.2254 15.2974 20.3232 15.3499 20.4192 15.4141C20.6101 15.542 20.993 15.7573 22.0134 16.3106C23.2866 17.0011 24.0126 17.5357 24.5063 18.1465C24.9386 18.6815 25.2061 19.2907 25.3349 20.0336C25.4078 20.4545 25.3651 21.467 25.2565 21.8909C24.9141 23.227 24.1185 24.2765 22.9838 24.889C22.8175 24.9786 22.6682 25.0523 22.6521 25.0526C22.6359 25.053 22.6965 24.8998 22.7868 24.7122C23.1685 23.9185 23.2119 23.1464 22.9233 22.2871C22.7466 21.7609 22.3863 21.1189 21.6588 20.0339C20.813 18.7722 20.6057 18.4366 20.3976 17.9916Z"
    fill="currentColor" />
  <path
    d="M8.68248 22.7722C9.83989 21.8002 11.28 21.1096 12.5918 20.8977C13.1571 20.8064 14.0989 20.8426 14.6224 20.9759C15.4616 21.1895 16.2122 21.6679 16.6027 22.2379C16.9841 22.7949 17.1478 23.2804 17.3182 24.3604C17.3854 24.7865 17.4586 25.2145 17.4807 25.3113C17.6087 25.871 17.8577 26.3185 18.1664 26.5432C18.6566 26.9 19.5007 26.9222 20.3309 26.6001C20.4718 26.5454 20.5942 26.5076 20.6029 26.5161C20.6329 26.5459 20.2148 26.8243 19.9198 26.9708C19.523 27.1679 19.2074 27.2441 18.788 27.2441C18.0275 27.2441 17.3961 26.8594 16.8693 26.0749C16.7656 25.9204 16.5326 25.4579 16.3515 25.0472C15.7952 23.7853 15.5205 23.4009 14.8747 22.9802C14.3127 22.6142 13.5878 22.5485 13.0425 22.8145C12.3262 23.1638 12.1264 24.0742 12.6394 24.6512C12.8433 24.8805 13.2235 25.0783 13.5344 25.1168C14.1161 25.1888 14.616 24.7486 14.616 24.1645C14.616 23.7853 14.4694 23.5688 14.1005 23.4032C13.5965 23.1771 13.0549 23.4415 13.0575 23.9122C13.0586 24.113 13.1465 24.2391 13.3488 24.3302C13.4787 24.3886 13.4817 24.3932 13.3758 24.3713C12.9134 24.2759 12.8051 23.7215 13.1769 23.3535C13.6232 22.9117 14.5462 23.1067 14.8631 23.7098C14.9963 23.9631 15.0117 24.4676 14.8956 24.7723C14.6358 25.4541 13.8783 25.8127 13.1098 25.6175C12.5866 25.4847 12.3735 25.3408 11.7427 24.6946C10.6465 23.5715 10.221 23.354 8.64072 23.1086L8.33789 23.0615L8.68248 22.7722Z"
    fill="currentColor" />
  <path fill-rule="evenodd" clip-rule="evenodd"
    d="M3.53911 2.67175C7.19976 7.09074 9.72103 8.91393 10.0012 9.29912C10.2326 9.61718 10.1455 9.90312 9.74917 10.1272C9.52878 10.2518 9.07568 10.3781 8.84881 10.3781C8.59222 10.3781 8.50412 10.2796 8.50412 10.2796C8.35535 10.1393 8.27155 10.1638 7.50754 8.81494C6.44683 7.17794 5.55916 5.81997 5.53494 5.79724C5.47895 5.74466 5.47991 5.74644 7.39938 9.16234C7.70951 9.8743 7.46107 10.1356 7.46107 10.2371C7.46107 10.4433 7.40449 10.5518 7.14864 10.8356C6.72214 11.3088 6.53148 11.8406 6.39385 12.941C6.23956 14.1746 5.80571 15.046 4.60336 16.5375C3.89955 17.4105 3.78439 17.5705 3.6068 17.9224C3.3831 18.3655 3.3216 18.6136 3.29667 19.1732C3.27032 19.7648 3.32164 20.147 3.50336 20.7127C3.66246 21.2078 3.82852 21.5348 4.25306 22.1888C4.61944 22.7533 4.8304 23.1727 4.8304 23.3367C4.8304 23.4673 4.85545 23.4674 5.42317 23.34C6.78181 23.0348 7.88502 22.498 8.50549 21.8404C8.88948 21.4333 8.97964 21.2085 8.98256 20.6506C8.98448 20.2857 8.97157 20.2094 8.8724 19.9994C8.71097 19.6578 8.41709 19.3737 7.76936 18.9333C6.92065 18.3562 6.55817 17.8917 6.45803 17.2528C6.3759 16.7286 6.47118 16.3587 6.94069 15.38C7.42666 14.367 7.54709 13.9352 7.62856 12.9141C7.68116 12.2544 7.75403 11.9942 7.94461 11.7853C8.14337 11.5676 8.3223 11.4938 8.8142 11.427C9.61614 11.318 10.1268 11.1116 10.5465 10.727C10.9106 10.3932 11.063 10.0717 11.0864 9.58758L11.1041 9.22066L10.9007 8.98471C10.1638 8.13015 3.04563 2 3.00028 2C2.99059 2 3.23308 2.30231 3.53911 2.67175ZM5.24404 19.8427C5.41064 19.5492 5.32212 19.1719 5.04344 18.9876C4.78012 18.8134 4.37107 18.8954 4.37107 19.1224C4.37107 19.1917 4.40957 19.2421 4.49634 19.2865C4.64245 19.3612 4.65305 19.4454 4.5381 19.6172C4.42168 19.7912 4.43107 19.9442 4.56461 20.0482C4.77983 20.2159 5.08448 20.1236 5.24404 19.8427Z"
    fill="currentColor" />
  <path fill-rule="evenodd" clip-rule="evenodd"
    d="M11.6103 11.6195C11.2339 11.7345 10.8679 12.1313 10.7546 12.5474C10.6855 12.8013 10.7247 13.2466 10.8282 13.3841C10.9955 13.6062 11.1572 13.6647 11.5951 13.6617C12.4525 13.6557 13.1978 13.29 13.2844 12.8328C13.3554 12.4581 13.0281 11.9387 12.5772 11.7107C12.3446 11.593 11.8497 11.5464 11.6103 11.6195ZM12.6126 12.3989C12.7448 12.2121 12.687 12.0102 12.4621 11.8736C12.0339 11.6135 11.3863 11.8287 11.3863 12.2311C11.3863 12.4313 11.724 12.6499 12.0336 12.6499C12.2396 12.6499 12.5215 12.5277 12.6126 12.3989Z"
    fill="currentColor" />
</svg>