<svg width="64" height="64" viewBox="0 0 64 64" fill="none" xmlns="http://www.w3.org/2000/svg">
  <path fill-rule="evenodd" clip-rule="evenodd"
    d="M15.9111 59.9054C20.8296 62.6351 26.2222 64 32.0889 64C37.9556 64 43.3185 62.6351 48.1778 59.9054C53.037 57.1757 56.8889 53.3778 59.7333 48.5118C62.5778 43.5865 64 38.0677 64 31.9555C64 25.8433 62.5778 20.3542 59.7333 15.4882C56.9482 10.6222 53.0963 6.82429 48.1778 4.09458C43.3185 1.36486 37.9556 0 32.0889 0C26.2222 0 20.8296 1.36486 15.9111 4.09458C11.0519 6.82429 7.17037 10.6222 4.26666 15.4882C1.42222 20.3542 0 25.8433 0 31.9555C0 38.0677 1.42222 43.5865 4.26666 48.5118C7.17037 53.3778 11.0519 57.1757 15.9111 59.9054ZM35.8243 15.7969C34.6012 12.0274 29.2757 12.0274 28.0526 15.7969L26.4345 20.7838C25.8875 22.4696 24.3188 23.611 22.5487 23.611H17.3124C13.3544 23.611 11.7087 28.6829 14.9108 31.0126L19.1471 34.0947C20.5791 35.1365 21.1783 36.9833 20.6313 38.6691L19.0132 43.656C17.7901 47.4256 22.0985 50.5602 25.3006 48.2305L29.5369 45.1484C30.9689 44.1065 32.908 44.1065 34.3401 45.1484L38.5763 48.2305C41.7784 50.5602 46.0868 47.4256 44.8637 43.656L43.2456 38.6691C42.6986 36.9833 43.2979 35.1365 44.7299 34.0947L48.9661 31.0126C52.1682 28.6829 50.5226 23.611 46.5645 23.611H41.3283C39.5582 23.611 37.9894 22.4696 37.4424 20.7838L35.8243 15.7969Z"
    fill="black" />
</svg>