<svg width="24" height="24" viewBox="0 0 24 24" fill="none" xmlns="http://www.w3.org/2000/svg">
  <mask id="mask0_5615_15319" style="mask-type:luminance" maskUnits="userSpaceOnUse" x="0" y="0"
    width="24" height="24">
    <path d="M24 0H0V24H24V0Z" fill="white" />
  </mask>
  <g mask="url(#mask0_5615_15319)">
    <path
      d="M21.1875 0H2.8125C1.2592 0 0 1.2592 0 2.8125V21.1875C0 22.7408 1.2592 24 2.8125 24H21.1875C22.7408 24 24 22.7408 24 21.1875V2.8125C24 1.2592 22.7408 0 21.1875 0Z"
      fill="black" />
    <path
      d="M16.6839 4.6875H19.1649L13.7446 10.8825L20.1211 19.3125H15.1284L11.2179 14.1998L6.74338 19.3125H4.26091L10.0584 12.6863L3.94141 4.6875H9.06088L12.5956 9.36075L16.6839 4.6875ZM15.8131 17.8275H17.1879L8.31388 6.0945H6.83863L15.8131 17.8275Z"
      fill="white" />
  </g>
</svg>