<svg width="38" height="39" viewBox="0 0 38 39" fill="none" xmlns="http://www.w3.org/2000/svg">
<rect x="0.469601" y="0.232727" width="37.0608" height="38.2327" rx="18.5304" fill="black"/>
<path d="M20.6054 19.349C20.6054 23.2792 17.441 26.4654 13.5374 26.4654C9.63376 26.4654 6.4696 23.2802 6.4696 19.349C6.4696 15.4178 9.634 12.2327 13.5374 12.2327C17.4407 12.2327 20.6054 15.4187 20.6054 19.349ZM28.359 19.349C28.359 23.0488 26.7767 26.0478 24.825 26.0478C22.8734 26.0478 21.291 23.0478 21.291 19.349C21.291 15.6501 22.8734 12.6501 24.825 12.6501C26.7767 12.6501 28.359 15.6501 28.359 19.349ZM31.5304 19.349C31.5304 22.6638 30.9738 25.3509 30.2874 25.3509C29.601 25.3509 29.0445 22.6629 29.0445 19.349C29.0445 16.035 29.601 13.347 30.2877 13.347C30.9743 13.347 31.5304 16.0343 31.5304 19.349Z" fill="white"/>
</svg>
