<svg width="38" height="38" viewBox="0 0 38 38" fill="none" xmlns="http://www.w3.org/2000/svg">
<circle cx="19" cy="19" r="19" fill="#007EBB"/>
<path fill-rule="evenodd" clip-rule="evenodd" d="M27 26.5345H23.7125V20.9352C23.7125 19.4 23.1292 18.5421 21.9141 18.5421C20.5922 18.5421 19.9016 19.4349 19.9016 20.9352V26.5345H16.7333V15.8679H19.9016V17.3047C19.9016 17.3047 20.8542 15.542 23.1177 15.542C25.3802 15.542 27 16.9236 27 19.7811V26.5345ZM12.9536 14.4712C11.8745 14.4712 11 13.5898 11 12.5029C11 11.4159 11.8745 10.5345 12.9536 10.5345C14.0328 10.5345 14.9068 11.4159 14.9068 12.5029C14.9068 13.5898 14.0328 14.4712 12.9536 14.4712ZM11.3177 26.5345H14.6214V15.8679H11.3177V26.5345Z" fill="white"/>
</svg>
