<svg width="24" height="19" viewBox="0 0 24 19" fill="none" xmlns="http://www.w3.org/2000/svg">
  <path fill-rule="evenodd" clip-rule="evenodd"
    d="M12 1.70881C7.22239 1.70881 3.87096 3.78487 3.87096 3.78487C5.70714 2.12404 8.91597 1.16723 8.91597 1.16723L8.61289 0.860352C5.60018 0.914509 2.87267 3.02666 2.87267 3.02666C-0.19356 9.50751 0.00252127 15.1038 0.00252127 15.1038C2.49831 18.3713 6.20626 18.1367 6.20626 18.1367L7.472 16.5119C5.24361 16.0245 3.83532 14.0207 3.83532 14.0207C3.83532 14.0207 7.18675 16.3314 12 16.3314C16.8132 16.3314 20.1647 14.0207 20.1647 14.0207C20.1647 14.0207 18.7564 16.0245 16.528 16.5119L17.7937 18.1367C17.7937 18.1367 21.5017 18.3713 23.9975 15.1038C23.9975 15.1038 24.1936 9.50751 21.1273 3.02666C21.1273 3.02666 18.3998 0.914509 15.3871 0.860352L15.084 1.16723C15.084 1.16723 18.2929 2.12404 20.129 3.78487C20.129 3.78487 16.7776 1.70881 12 1.70881ZM8.31009 8.55176C9.46882 8.55176 10.4137 9.58075 10.3958 10.8444C10.3958 12.0901 9.46882 13.1371 8.31009 13.1371C7.16916 13.1371 6.24219 12.0901 6.24219 10.8444C6.24219 9.58075 7.15136 8.55176 8.31009 8.55176ZM17.8292 10.8444C17.8292 9.58075 16.9022 8.55176 15.7434 8.55176C14.5847 8.55176 13.6755 9.58075 13.6755 10.8444C13.6755 12.0901 14.6025 13.1371 15.7434 13.1371C16.9022 13.1371 17.8292 12.0901 17.8292 10.8444Z"
    fill="#5865F2" />
</svg>