<svg viewBox="0 0 1026 1024" version="1.1" xmlns="http://www.w3.org/2000/svg" p-id="3946">
  <path
    d="M1024 153.6c7.314286-29.257143 0-51.2-14.628571-65.828571-14.628571-14.628571-29.257143-14.628571-51.2-7.314286L51.2 431.542857c-21.942857 7.314286-36.571429 14.628571-43.885714 21.942857s-7.314286 21.942857-7.314286 29.257143 14.628571 14.628571 36.571429 21.942857l234.057142 73.142857 541.257143-336.457142c14.628571-7.314286 29.257143-14.628571 36.571429-7.314286 7.314286 0 0 7.314286-7.314286 14.628571l-438.857143 394.971429-14.628571 234.057143c14.628571 0 29.257143-7.314286 43.885714-21.942857l117.028572-109.714286 234.057142 175.542857c43.885714 21.942857 73.142857 14.628571 87.771429-36.571429l153.6-731.428571z"
    fill="#2f9ad7" p-id="3947"></path>
</svg>