<svg width="38" height="39" viewBox="0 0 38 39" fill="none" xmlns="http://www.w3.org/2000/svg">
<rect x="0.469601" width="37.0608" height="38.2327" rx="18.5304" fill="url(#paint0_linear_3984_1956)"/>
<g clip-path="url(#clip0_3984_1956)">
<path fill-rule="evenodd" clip-rule="evenodd" d="M4.88517 20.5001C5.14985 20.6082 5.44924 20.6622 5.78335 20.6622C6.12614 20.6622 6.42336 20.5995 6.67503 20.4742C6.9267 20.3488 7.11761 20.1802 7.24779 19.9684C7.3823 19.7566 7.44955 19.521 7.44955 19.2616C7.44955 18.9893 7.3823 18.7666 7.24779 18.5937C7.11328 18.4208 6.95273 18.289 6.76615 18.1982C6.58391 18.1074 6.34526 18.0123 6.0502 17.9129C5.75515 17.8178 5.5382 17.7291 5.39935 17.647C5.2605 17.5649 5.19107 17.4503 5.19107 17.3033C5.19107 17.1693 5.23229 17.0677 5.31473 16.9986C5.39718 16.9251 5.50565 16.8884 5.64016 16.8884C5.79637 16.8884 5.92437 16.9316 6.02417 17.018C6.12397 17.1002 6.17821 17.2147 6.18689 17.3617H7.39098C7.36928 16.9337 7.2044 16.6009 6.89632 16.3631C6.58825 16.121 6.18255 16 5.67921 16C5.18456 16 4.7832 16.121 4.47512 16.3631C4.16705 16.6009 4.01301 16.9316 4.01301 17.3552C4.01301 17.6405 4.08027 17.8718 4.21478 18.049C4.34929 18.2263 4.50984 18.3603 4.69642 18.4511C4.883 18.5418 5.12381 18.6326 5.41887 18.7234C5.62281 18.7839 5.77901 18.838 5.88749 18.8855C6.00031 18.9331 6.0936 18.9936 6.16736 19.0671C6.24546 19.1406 6.28451 19.2335 6.28451 19.3459C6.28451 19.4799 6.23678 19.5858 6.14133 19.6636C6.04587 19.7371 5.91569 19.7739 5.75081 19.7739C5.59026 19.7739 5.46009 19.7306 5.36029 19.6442C5.2605 19.5534 5.20192 19.4237 5.18456 19.2551H4C4.00867 19.5534 4.09112 19.8084 4.24732 20.0203C4.40787 20.2321 4.62048 20.392 4.88517 20.5001ZM9.11075 20.3639C9.4709 20.5628 9.86575 20.6622 10.2953 20.6622C10.7249 20.6622 11.1176 20.5628 11.4734 20.3639C11.8292 20.1651 12.1112 19.8884 12.3195 19.5339C12.5278 19.1751 12.6319 18.7731 12.6319 18.3279C12.6319 17.8826 12.5278 17.4827 12.3195 17.1283C12.1155 16.7738 11.8335 16.4971 11.4734 16.2983C11.1176 16.0994 10.7249 16 10.2953 16C9.86575 16 9.4709 16.0994 9.11075 16.2983C8.75497 16.4971 8.47076 16.7738 8.25814 17.1283C8.04987 17.4827 7.94573 17.8826 7.94573 18.3279C7.94573 18.7731 8.04987 19.1751 8.25814 19.5339C8.47076 19.8884 8.75497 20.1651 9.11075 20.3639ZM16.2255 16.0648V16.9532H14.364V17.9129H15.7569V18.7753H14.364V20.6168H13.2511V16.0648H16.2255ZM17.6761 20.6168L17.9495 19.8128H19.6547L19.9281 20.6168H21.1061L19.453 16.0648H18.1643L16.5111 20.6168H17.6761ZM18.8021 17.2904L19.3683 18.9568H18.2424L18.8021 17.2904ZM22.13 20.6687C21.9347 20.6687 21.7742 20.6125 21.6483 20.5001C21.5268 20.3834 21.4661 20.2407 21.4661 20.0721C21.4661 19.8992 21.5268 19.7544 21.6483 19.6377C21.7742 19.521 21.9347 19.4626 22.13 19.4626C22.3209 19.4626 22.4771 19.521 22.5986 19.6377C22.7244 19.7544 22.7873 19.8992 22.7873 20.0721C22.7873 20.2407 22.7244 20.3834 22.5986 20.5001C22.4771 20.6125 22.3209 20.6687 22.13 20.6687ZM24.1361 20.4417C24.4225 20.593 24.7436 20.6687 25.0994 20.6687C25.4552 20.6687 25.7763 20.593 26.0626 20.4417C26.3534 20.2904 26.5812 20.0743 26.746 19.7933C26.9153 19.508 26.9999 19.1795 26.9999 18.8077C26.9999 18.4359 26.9174 18.1096 26.7525 17.8286C26.5877 17.5433 26.362 17.325 26.0757 17.1737C25.7893 17.0224 25.4682 16.9467 25.1124 16.9467C24.7566 16.9467 24.4355 17.0224 24.1491 17.1737C23.8627 17.325 23.6371 17.5433 23.4722 17.8286C23.3073 18.1096 23.2249 18.4359 23.2249 18.8077C23.2249 19.1838 23.3052 19.5123 23.4657 19.7933C23.6306 20.0743 23.8541 20.2904 24.1361 20.4417ZM25.6396 19.4756C25.492 19.6312 25.312 19.709 25.0994 19.709C24.8867 19.709 24.7088 19.6312 24.5657 19.4756C24.4268 19.32 24.3574 19.0973 24.3574 18.8077C24.3574 18.5137 24.429 18.2911 24.5722 18.1398C24.7154 17.9842 24.8954 17.9064 25.1124 17.9064C25.325 17.9064 25.5029 17.9842 25.6461 18.1398C25.7936 18.2954 25.8674 18.5181 25.8674 18.8077C25.8674 19.0973 25.7914 19.32 25.6396 19.4756ZM28.7033 17.6016C28.8335 17.4028 28.9962 17.2471 29.1914 17.1348C29.3867 17.018 29.6036 16.9597 29.8423 16.9597V18.1333H29.5364C29.2587 18.1333 29.0504 18.1939 28.9116 18.3149C28.7727 18.4316 28.7033 18.6391 28.7033 18.9374V20.6168H27.5903V16.9986H28.7033V17.6016ZM32.4245 17.1023C32.2336 16.9986 32.0101 16.9467 31.7541 16.9467C31.4547 16.9467 31.1835 17.0224 30.9405 17.1737C30.6975 17.325 30.5044 17.5411 30.3613 17.8221C30.2224 18.1031 30.153 18.4295 30.153 18.8012C30.153 19.173 30.2224 19.5015 30.3613 19.7868C30.5044 20.0678 30.6975 20.2861 30.9405 20.4417C31.1835 20.593 31.4547 20.6687 31.7541 20.6687C32.0101 20.6687 32.2336 20.6168 32.4245 20.5131C32.6154 20.405 32.7651 20.2667 32.8736 20.0981V20.6103C32.8736 20.9 32.8041 21.1097 32.6653 21.2393C32.5308 21.3733 32.3485 21.4403 32.1186 21.4403C31.9277 21.4403 31.7671 21.3993 31.6369 21.3171C31.5068 21.2393 31.4243 21.1312 31.3896 20.9929H30.2897C30.3374 21.4252 30.5283 21.7667 30.8624 22.0174C31.1965 22.2725 31.6326 22.4 32.1706 22.4C32.5742 22.4 32.9105 22.3201 33.1795 22.1601C33.4528 22.0002 33.6546 21.784 33.7848 21.5117C33.9193 21.2436 33.9865 20.9432 33.9865 20.6103V16.9986H32.8736V17.5108C32.7694 17.3423 32.6197 17.2061 32.4245 17.1023ZM32.6393 18.1528C32.7955 18.3127 32.8736 18.531 32.8736 18.8077C32.8736 19.0844 32.7955 19.3027 32.6393 19.4626C32.4874 19.6226 32.3008 19.7025 32.0795 19.7025C31.8582 19.7025 31.6695 19.6226 31.5133 19.4626C31.3614 19.2983 31.2855 19.0779 31.2855 18.8012C31.2855 18.5246 31.3614 18.3084 31.5133 18.1528C31.6695 17.9928 31.8582 17.9129 32.0795 17.9129C32.3008 17.9129 32.4874 17.9928 32.6393 18.1528ZM10.569 17.1551C10.4794 16.8794 10.0895 16.8794 9.99995 17.1551L9.88145 17.5197C9.8414 17.643 9.72655 17.7264 9.59695 17.7264H9.21355C8.92371 17.7264 8.80321 18.0973 9.0377 18.2676L9.34785 18.493C9.4527 18.5692 9.4966 18.7042 9.45655 18.8275L9.33805 19.1921C9.2485 19.4678 9.564 19.697 9.79845 19.5266L10.1086 19.3013C10.2135 19.2251 10.3554 19.2251 10.4603 19.3013L10.7705 19.5266C11.0049 19.697 11.3204 19.4678 11.2309 19.1921L11.1124 18.8275C11.0723 18.7042 11.1162 18.5692 11.2211 18.493L11.5312 18.2676C11.7657 18.0973 11.6452 17.7264 11.3554 17.7264H10.972C10.8424 17.7264 10.7275 17.643 10.6875 17.5197L10.569 17.1551Z" fill="black"/>
</g>
<defs>
<linearGradient id="paint0_linear_3984_1956" x1="0.469601" y1="19.1164" x2="37" y2="31" gradientUnits="userSpaceOnUse">
<stop stop-color="#71D727"/>
<stop offset="1" stop-color="#FDE501"/>
</linearGradient>
<clipPath id="clip0_3984_1956">
<rect width="30" height="6.4" fill="white" transform="translate(4 16)"/>
</clipPath>
</defs>
</svg>
