<svg width="20" height="20" viewBox="0 0 20 20" fill="none" xmlns="http://www.w3.org/2000/svg">
<path d="M20 8.55788C19.6365 3.75731 15.2462 0 10.0056 0C4.71392 0.00160501 0.323678 3.79583 0.00127718 8.63653C-0.00623219 8.74977 0.0194867 8.86275 0.0754209 8.96224C0.131355 9.06173 0.215188 9.14361 0.317098 9.19828C0.368889 9.22685 0.424152 9.24895 0.481589 9.26408L6.10386 14.7388C5.94221 14.907 5.85274 15.1293 5.85384 15.3599V19.2199C5.85252 19.3226 5.87224 19.4245 5.91184 19.5196C5.95145 19.6147 6.01013 19.7011 6.08446 19.7738C6.15878 19.8465 6.24724 19.9039 6.34464 19.9427C6.44204 19.9816 6.54641 20.001 6.65162 20H13.2855C13.3903 20.0004 13.4941 19.9805 13.591 19.9413C13.6878 19.9022 13.7757 19.8447 13.8495 19.7721C13.9233 19.6995 13.9815 19.6132 14.0208 19.5184C14.0601 19.4237 14.0797 19.3222 14.0784 19.2199V15.3583C14.078 15.1269 13.9874 14.9042 13.825 14.7355L19.4457 9.19988C19.6038 9.18134 19.7488 9.10457 19.8509 8.98524C19.953 8.86592 20.0046 8.71306 19.9951 8.55788H20ZM13.1243 14.4563H11.912L13.5569 9.46952C14.3715 8.76146 15.4268 8.37417 16.5177 8.38294C17.2893 8.37915 18.0487 8.57048 18.7219 8.93827L13.1243 14.4563ZM6.80953 14.4563L1.23331 9.02173C1.95019 8.6043 2.77044 8.38617 3.60526 8.39096C4.67256 8.38169 5.70872 8.74163 6.52989 9.40693L8.21756 14.4563H6.80953ZM8.96599 14.4563L7.26188 9.34915C8.05541 8.71966 9.0487 8.37919 10.0714 8.38615C10.4032 8.38613 10.7341 8.4211 11.0583 8.49047C11.1554 8.51134 11.2508 8.53381 11.3445 8.56109C11.5824 8.62748 11.814 8.71339 12.037 8.81789C12.1341 8.86283 12.2278 8.91259 12.3183 8.96395L12.4219 9.02333C12.5724 9.11339 12.7168 9.21256 12.8545 9.32026L11.1619 14.4563H8.96599Z" fill="#51ACF1"/>
</svg>
