<svg width="20" height="20" viewBox="0 0 20 20" fill="none" xmlns="http://www.w3.org/2000/svg">
  <path
    d="M9.27082 5.6251C9.27082 5.2224 9.59728 4.89594 9.99999 4.89594C10.4027 4.89594 10.7292 5.22239 10.7292 5.6251V11.4584C10.7292 11.8611 10.4027 12.1876 9.99999 12.1876C9.59728 12.1876 9.27082 11.8611 9.27082 11.4584V5.6251Z"
    fill="#D89614" />
  <path
    d="M10.7292 14.375C10.7292 14.7778 10.4027 15.1042 9.99999 15.1042C9.59729 15.1042 9.27083 14.7778 9.27083 14.375C9.27083 13.9723 9.59729 13.6459 9.99999 13.6459C10.4027 13.6459 10.7292 13.9723 10.7292 14.375Z"
    fill="#D89614" />
  <path fill-rule="evenodd" clip-rule="evenodd"
    d="M10 17.25C14.0041 17.25 17.25 14.0041 17.25 10C17.25 5.99594 14.0041 2.75 10 2.75C5.99594 2.75 2.75 5.99594 2.75 10C2.75 14.0041 5.99594 17.25 10 17.25ZM10 18.75C14.8325 18.75 18.75 14.8325 18.75 10C18.75 5.16751 14.8325 1.25 10 1.25C5.16751 1.25 1.25 5.16751 1.25 10C1.25 14.8325 5.16751 18.75 10 18.75Z"
    fill="#D89614" />
</svg>