<svg width="16" height="15" viewBox="0 0 16 15" fill="none" xmlns="http://www.w3.org/2000/svg">
  <path
    d="M2.98278 12.5707H1.06446C0.475976 12.5707 0 12.0947 0 11.5062C0 10.9178 0.475976 10.4418 1.06446 10.4418H2.98278C3.57992 10.4418 4.12224 10.1129 4.39917 9.58215L5.03381 8.36481L6.23384 10.6668C5.57613 11.8438 4.34148 12.5707 2.98278 12.5707ZM15.8745 11.8553L12.9119 14.6419C12.8312 14.7169 12.736 14.7515 12.6408 14.7515C12.436 14.7515 12.2398 14.59 12.2398 14.3506V12.6601H10.4369C9.04354 12.6601 7.77427 11.8928 7.13098 10.6553L4.39917 5.41953C4.12224 4.88874 3.57992 4.55989 2.98278 4.55989H1.06446C0.475976 4.55989 0 4.08391 0 3.49543C0 2.90695 0.475976 2.43098 1.06446 2.43098H2.98278C4.37609 2.43098 5.64536 3.19831 6.28865 4.43584L6.68674 5.1974L7.1281 6.04262L9.02046 9.67158C9.2974 10.2024 9.83972 10.5312 10.4369 10.5312H12.2369V8.7802C12.2369 8.54077 12.4331 8.37923 12.6379 8.37923C12.7331 8.37923 12.8283 8.41385 12.909 8.48885L15.8716 11.2755C16.0418 11.4312 16.0418 11.6966 15.8745 11.8553ZM15.8745 3.72621L12.9119 6.51283C12.6581 6.75226 12.2398 6.57052 12.2398 6.22147V4.47046H10.4369C9.83972 4.47046 9.2974 4.79932 9.02046 5.3301L8.33967 6.63687L7.13964 4.33199C7.78581 3.10311 9.04931 2.33866 10.4397 2.33866H12.2398V0.648228C12.2398 0.299179 12.6581 0.117443 12.9119 0.356873L15.8745 3.14638C16.0418 3.30216 16.0418 3.57043 15.8745 3.72621Z"
    fill="currentColor" />
</svg>