<svg width="177" height="84" viewBox="0 0 177 84" fill="none" xmlns="http://www.w3.org/2000/svg">
  <path fill-rule="evenodd" clip-rule="evenodd"
    d="M0.182617 10.5151C0.182617 5.21312 4.48068 0.915039 9.78262 0.915039H166.583C171.885 0.915039 176.183 5.21311 176.183 10.515V73.715C176.183 79.017 171.885 83.3151 166.583 83.3151H9.78262C4.48068 83.3151 0.182617 79.017 0.182617 73.7151V10.5151Z"
    fill="white" fill-opacity="0.88" />
  <path
    d="M18.8466 26.3037H17.1786V17.7597H18.8466V26.3037ZM23.8106 19.9797C24.4426 19.9797 24.9346 20.1637 25.2866 20.5317C25.5426 20.7877 25.7106 21.0637 25.7906 21.3597C25.8786 21.6477 25.9226 21.9637 25.9226 22.3077V26.3037H24.3626V22.5237C24.3626 22.3077 24.3306 22.1277 24.2666 21.9837C24.2106 21.8397 24.1346 21.7237 24.0386 21.6357C23.9426 21.5477 23.8306 21.4837 23.7026 21.4437C23.5826 21.4037 23.4586 21.3837 23.3306 21.3837C23.2026 21.3837 23.0746 21.4037 22.9466 21.4437C22.8266 21.4837 22.7146 21.5477 22.6106 21.6357C22.5146 21.7237 22.4346 21.8397 22.3706 21.9837C22.3146 22.1277 22.2866 22.3077 22.2866 22.5237V26.3037H20.7266V20.0517H22.2506V20.6277C22.4586 20.4117 22.6986 20.2517 22.9706 20.1477C23.2426 20.0357 23.5226 19.9797 23.8106 19.9797ZM30.3055 26.3037H29.0815L26.7775 20.0517H28.4215L29.6935 23.9157L30.9535 20.0517H32.5975L30.3055 26.3037ZM35.8183 19.9797C36.2503 19.9797 36.6343 20.0557 36.9703 20.2077C37.3143 20.3517 37.6023 20.5597 37.8343 20.8317C38.0663 21.0957 38.2423 21.4157 38.3623 21.7917C38.4823 22.1597 38.5423 22.5637 38.5423 23.0037V23.6637H34.6303C34.6303 24.0717 34.7463 24.4077 34.9783 24.6717C35.2103 24.9277 35.5503 25.0557 35.9983 25.0557C36.3423 25.0557 36.6143 25.0077 36.8143 24.9117C37.0143 24.8077 37.2103 24.6597 37.4023 24.4677L38.3623 25.3917C38.2023 25.5517 38.0423 25.6957 37.8823 25.8237C37.7223 25.9437 37.5463 26.0477 37.3543 26.1357C37.1703 26.2157 36.9663 26.2757 36.7423 26.3157C36.5183 26.3557 36.2663 26.3757 35.9863 26.3757C35.6103 26.3757 35.2503 26.3277 34.9063 26.2317C34.5623 26.1357 34.2543 25.9677 33.9823 25.7277C33.7103 25.4797 33.4943 25.1517 33.3343 24.7437C33.1743 24.3277 33.0943 23.8037 33.0943 23.1717C33.0943 22.6597 33.1583 22.2077 33.2863 21.8157C33.4223 21.4157 33.6103 21.0797 33.8503 20.8077C34.0903 20.5357 34.3743 20.3317 34.7023 20.1957C35.0383 20.0517 35.4103 19.9797 35.8183 19.9797ZM35.8183 21.2757C35.5463 21.2757 35.3223 21.3397 35.1463 21.4677C34.9783 21.5877 34.8503 21.7397 34.7623 21.9237C34.7063 22.0357 34.6703 22.1437 34.6543 22.2477C34.6463 22.3437 34.6383 22.4597 34.6303 22.5957H36.9943C36.9863 22.4597 36.9743 22.3437 36.9583 22.2477C36.9503 22.1437 36.9183 22.0357 36.8623 21.9237C36.7743 21.7397 36.6423 21.5877 36.4663 21.4677C36.2983 21.3397 36.0823 21.2757 35.8183 21.2757ZM42.1045 19.9797C42.6005 19.9797 43.0445 20.0317 43.4365 20.1357C43.8365 20.2397 44.1885 20.4317 44.4925 20.7117L43.5325 21.6837C43.3485 21.5237 43.1285 21.4157 42.8725 21.3597C42.6245 21.2957 42.3605 21.2637 42.0805 21.2637C41.7685 21.2637 41.5405 21.3237 41.3965 21.4437C41.2605 21.5637 41.1925 21.7037 41.1925 21.8637C41.1925 22.0237 41.2405 22.1477 41.3365 22.2357C41.4405 22.3237 41.6085 22.3797 41.8405 22.4037L42.8245 22.4997C43.4485 22.5637 43.9125 22.7517 44.2165 23.0637C44.5285 23.3757 44.6845 23.7997 44.6845 24.3357C44.6845 24.6797 44.6165 24.9797 44.4805 25.2357C44.3445 25.4917 44.1565 25.7037 43.9165 25.8717C43.6765 26.0397 43.3925 26.1677 43.0645 26.2557C42.7445 26.3357 42.4005 26.3757 42.0325 26.3757C41.7845 26.3757 41.5445 26.3637 41.3125 26.3397C41.0805 26.3237 40.8525 26.2837 40.6285 26.2197C40.4125 26.1557 40.1965 26.0677 39.9805 25.9557C39.7725 25.8357 39.5685 25.6757 39.3685 25.4757L40.3885 24.4557C40.5165 24.5837 40.6525 24.6877 40.7965 24.7677C40.9405 24.8397 41.0845 24.8997 41.2285 24.9477C41.3805 24.9877 41.5245 25.0157 41.6605 25.0317C41.8045 25.0397 41.9365 25.0437 42.0565 25.0437C42.1925 25.0437 42.3245 25.0317 42.4525 25.0077C42.5885 24.9837 42.7085 24.9477 42.8125 24.8997C42.9165 24.8437 43.0005 24.7757 43.0645 24.6957C43.1285 24.6157 43.1605 24.5157 43.1605 24.3957C43.1605 24.2357 43.1125 24.1077 43.0165 24.0117C42.9285 23.9077 42.7565 23.8437 42.5005 23.8197L41.5165 23.7237C40.9485 23.6677 40.5005 23.5077 40.1725 23.2437C39.8525 22.9717 39.6925 22.5477 39.6925 21.9717C39.6925 21.6437 39.7565 21.3557 39.8845 21.1077C40.0205 20.8597 40.1965 20.6517 40.4125 20.4837C40.6365 20.3157 40.8925 20.1917 41.1805 20.1117C41.4765 20.0237 41.7845 19.9797 42.1045 19.9797ZM47.6142 20.2317H48.7182V21.4197H47.6142V24.4197C47.6142 24.7957 47.7942 24.9837 48.1542 24.9837H48.7182V26.3037H47.8662C47.5462 26.3037 47.2702 26.2517 47.0382 26.1477C46.8142 26.0437 46.6262 25.9077 46.4742 25.7397C46.3302 25.5717 46.2222 25.3837 46.1502 25.1757C46.0862 24.9597 46.0542 24.7397 46.0542 24.5157V21.4197H45.3942V20.2317H46.0542V18.3837H47.6142V20.2317ZM59.638 26.3037H57.886L57.382 24.7917H54.358L53.842 26.3037H52.09L55.21 17.7597H56.518L59.638 26.3037ZM54.814 23.3877H56.914L55.87 20.2917L54.814 23.3877ZM67.1706 19.9797C67.4826 19.9797 67.7706 20.0277 68.0346 20.1237C68.3066 20.2197 68.5346 20.3557 68.7186 20.5317C68.9746 20.7877 69.1506 21.0637 69.2466 21.3597C69.3426 21.6477 69.3906 21.9637 69.3906 22.3077V26.3037H67.8306V22.5237C67.8306 22.3077 67.7986 22.1277 67.7346 21.9837C67.6786 21.8397 67.6026 21.7237 67.5066 21.6357C67.4106 21.5477 67.2986 21.4837 67.1706 21.4437C67.0506 21.4037 66.9266 21.3837 66.7986 21.3837C66.6786 21.3837 66.5546 21.4037 66.4266 21.4437C66.3066 21.4837 66.1946 21.5477 66.0906 21.6357C65.9946 21.7157 65.9146 21.8277 65.8506 21.9717C65.7866 22.1157 65.7546 22.2877 65.7546 22.4877V26.3037H64.1946V22.5237C64.1946 22.3077 64.1626 22.1277 64.0986 21.9837C64.0426 21.8397 63.9666 21.7237 63.8706 21.6357C63.7746 21.5477 63.6626 21.4837 63.5346 21.4437C63.4146 21.4037 63.2906 21.3837 63.1626 21.3837C63.0346 21.3837 62.9066 21.4037 62.7786 21.4437C62.6586 21.4837 62.5466 21.5477 62.4426 21.6357C62.3466 21.7237 62.2666 21.8397 62.2026 21.9837C62.1466 22.1277 62.1186 22.3077 62.1186 22.5237V26.3037H60.5586V20.0517H62.0826V20.6277C62.2906 20.4117 62.5306 20.2517 62.8026 20.1477C63.0826 20.0357 63.3666 19.9797 63.6546 19.9797C64.0066 19.9797 64.3186 20.0437 64.5906 20.1717C64.8706 20.2997 65.1106 20.4997 65.3106 20.7717C65.5746 20.4917 65.8506 20.2917 66.1386 20.1717C66.4346 20.0437 66.7786 19.9797 67.1706 19.9797ZM76.0983 23.1717C76.0983 23.7397 76.0503 24.2157 75.9543 24.5997C75.8663 24.9757 75.6783 25.3117 75.3903 25.6077C75.1903 25.8157 74.9303 25.9957 74.6103 26.1477C74.2983 26.2997 73.9103 26.3757 73.4463 26.3757C72.9823 26.3757 72.5943 26.2997 72.2823 26.1477C71.9703 25.9957 71.7143 25.8157 71.5143 25.6077C71.2343 25.3037 71.0463 24.9637 70.9503 24.5877C70.8543 24.2117 70.8063 23.7397 70.8063 23.1717C70.8063 22.6037 70.8543 22.1357 70.9503 21.7677C71.0463 21.3917 71.2343 21.0517 71.5143 20.7477C71.7143 20.5397 71.9703 20.3597 72.2823 20.2077C72.5943 20.0557 72.9823 19.9797 73.4463 19.9797C73.9103 19.9797 74.2983 20.0557 74.6103 20.2077C74.9303 20.3597 75.1903 20.5397 75.3903 20.7477C75.6703 21.0517 75.8583 21.3917 75.9543 21.7677C76.0503 22.1357 76.0983 22.6037 76.0983 23.1717ZM74.5383 23.1717C74.5383 22.8517 74.5183 22.5597 74.4783 22.2957C74.4383 22.0317 74.3383 21.8197 74.1783 21.6597C73.9943 21.4757 73.7503 21.3837 73.4463 21.3837C73.1503 21.3837 72.9103 21.4757 72.7263 21.6597C72.5663 21.8197 72.4663 22.0317 72.4263 22.2957C72.3863 22.5597 72.3663 22.8517 72.3663 23.1717C72.3663 23.4997 72.3863 23.7957 72.4263 24.0597C72.4663 24.3237 72.5663 24.5357 72.7263 24.6957C72.9103 24.8797 73.1503 24.9717 73.4463 24.9717C73.7503 24.9717 73.9943 24.8797 74.1783 24.6957C74.3383 24.5357 74.4383 24.3237 74.4783 24.0597C74.5183 23.7957 74.5383 23.4997 74.5383 23.1717ZM82.71 26.3037H81.186V25.7277C80.978 25.9437 80.738 26.1077 80.466 26.2197C80.194 26.3237 79.914 26.3757 79.626 26.3757C79.01 26.3757 78.518 26.1917 78.15 25.8237C77.894 25.5677 77.722 25.2957 77.634 25.0077C77.554 24.7117 77.514 24.3917 77.514 24.0477V20.0517H79.074V23.8317C79.074 24.0477 79.102 24.2277 79.158 24.3717C79.222 24.5157 79.302 24.6317 79.398 24.7197C79.502 24.8077 79.614 24.8717 79.734 24.9117C79.862 24.9517 79.986 24.9717 80.106 24.9717C80.234 24.9717 80.358 24.9517 80.478 24.9117C80.606 24.8717 80.718 24.8077 80.814 24.7197C80.918 24.6317 80.998 24.5157 81.054 24.3717C81.118 24.2277 81.15 24.0477 81.15 23.8317V20.0517H82.71V26.3037ZM87.5489 19.9797C88.1809 19.9797 88.6729 20.1637 89.0249 20.5317C89.2809 20.7877 89.4489 21.0637 89.5289 21.3597C89.6169 21.6477 89.6609 21.9637 89.6609 22.3077V26.3037H88.1009V22.5237C88.1009 22.3077 88.0689 22.1277 88.0049 21.9837C87.9489 21.8397 87.8729 21.7237 87.7769 21.6357C87.6809 21.5477 87.5689 21.4837 87.4409 21.4437C87.3209 21.4037 87.1969 21.3837 87.0689 21.3837C86.9409 21.3837 86.8129 21.4037 86.6849 21.4437C86.5649 21.4837 86.4529 21.5477 86.3489 21.6357C86.2529 21.7237 86.1729 21.8397 86.1089 21.9837C86.0529 22.1277 86.0249 22.3077 86.0249 22.5237V26.3037H84.4649V20.0517H85.9889V20.6277C86.1969 20.4117 86.4369 20.2517 86.7089 20.1477C86.9809 20.0357 87.2609 19.9797 87.5489 19.9797ZM93.0478 20.2317H94.1518V21.4197H93.0478V24.4197C93.0478 24.7957 93.2278 24.9837 93.5878 24.9837H94.1518V26.3037H93.2998C92.9798 26.3037 92.7038 26.2517 92.4718 26.1477C92.2478 26.0437 92.0598 25.9077 91.9078 25.7397C91.7638 25.5717 91.6558 25.3837 91.5838 25.1757C91.5198 24.9597 91.4878 24.7397 91.4878 24.5157V21.4197H90.8278V20.2317H91.4878V18.3837H93.0478V20.2317Z"
    fill="black" />
  <path
    d="M15.7827 53.9037C15.7827 48.6018 20.0808 44.3037 25.3827 44.3037H126.183V63.5037H25.3827C20.0808 63.5037 15.7827 59.2056 15.7827 53.9037Z"
    fill="white" />
  <path opacity="0.85"
    d="M27.7636 52.4126L26.3716 53.6222V52.2782L27.7636 51.0686H29.0116V57.9038H27.7636V52.4126Z"
    fill="black" />
  <path
    d="M126.183 44.3037H150.183C155.485 44.3037 159.783 48.6018 159.783 53.9037C159.783 59.2056 155.485 63.5037 150.183 63.5037H126.183V44.3037Z"
    fill="#D7D7D7" />
  <path
    d="M134.776 56.9036H134.175L133.247 53.71L132.325 56.9036H131.723L130.533 52.3468H131.263L132.056 55.6044L132.971 52.3468H133.528L134.443 55.6044L135.237 52.3468H135.967L134.776 56.9036ZM138.406 52.3468C138.832 52.3468 139.167 52.4577 139.41 52.6796C139.658 52.9014 139.782 53.2065 139.782 53.5948C139.782 53.7185 139.762 53.8337 139.724 53.9404C139.69 54.0428 139.643 54.1366 139.583 54.222C139.528 54.303 139.464 54.3734 139.391 54.4332C139.319 54.4886 139.244 54.5313 139.167 54.5612C139.257 54.5953 139.342 54.6444 139.423 54.7084C139.504 54.7681 139.577 54.8406 139.641 54.926C139.705 55.0113 139.756 55.1116 139.794 55.2268C139.833 55.342 139.852 55.4721 139.852 55.6172C139.852 55.8262 139.818 56.0118 139.75 56.174C139.681 56.3318 139.585 56.4662 139.462 56.5772C139.342 56.6838 139.197 56.7649 139.026 56.8204C138.86 56.8758 138.677 56.9036 138.476 56.9036H136.633V52.3468H138.406ZM137.324 54.894V56.2828H138.412C138.655 56.2828 138.841 56.2188 138.969 56.0908C139.097 55.9585 139.161 55.79 139.161 55.5852C139.161 55.3804 139.097 55.214 138.969 55.086C138.841 54.958 138.655 54.894 138.412 54.894H137.324ZM137.324 52.9676V54.2732H138.348C138.57 54.2732 138.749 54.2177 138.886 54.1068C139.022 53.9958 139.09 53.8337 139.09 53.6204C139.09 53.407 139.022 53.2449 138.886 53.134C138.749 53.023 138.57 52.9676 138.348 52.9676H137.324ZM143.548 52.9676H142.294V56.9036H141.603V52.9676H140.348V52.3468H143.548V52.9676ZM145.711 52.3084C146.133 52.3084 146.49 52.43 146.78 52.6732C147.07 52.9121 147.256 53.2577 147.337 53.71H146.633C146.581 53.4753 146.479 53.2876 146.325 53.1468C146.172 53.0017 145.967 52.9292 145.711 52.9292C145.434 52.9292 145.21 53.0209 145.039 53.2044C144.979 53.2641 144.932 53.3302 144.898 53.4028C144.864 53.4753 144.836 53.5649 144.815 53.6716C144.794 53.774 144.779 53.902 144.77 54.0556C144.766 54.2092 144.764 54.399 144.764 54.6252C144.764 54.8513 144.766 55.0412 144.77 55.1948C144.779 55.3484 144.794 55.4785 144.815 55.5852C144.836 55.6876 144.864 55.775 144.898 55.8476C144.932 55.9201 144.979 55.9862 145.039 56.046C145.21 56.2294 145.434 56.3212 145.711 56.3212C145.967 56.3212 146.172 56.2508 146.325 56.11C146.479 55.9649 146.581 55.775 146.633 55.5404H147.337C147.256 55.9926 147.068 56.3404 146.773 56.5836C146.483 56.8225 146.129 56.942 145.711 56.942C145.459 56.942 145.237 56.9036 145.045 56.8268C144.853 56.7457 144.683 56.6305 144.533 56.4812C144.423 56.3702 144.335 56.255 144.271 56.1356C144.211 56.0161 144.167 55.886 144.137 55.7452C144.107 55.6001 144.088 55.438 144.079 55.2588C144.075 55.0753 144.073 54.8641 144.073 54.6252C144.073 54.3862 144.075 54.1772 144.079 53.998C144.088 53.8145 144.107 53.6524 144.137 53.5116C144.167 53.3665 144.211 53.2342 144.271 53.1148C144.335 52.9953 144.423 52.8801 144.533 52.7692C144.683 52.6198 144.853 52.5068 145.045 52.43C145.237 52.3489 145.459 52.3084 145.711 52.3084Z"
    fill="black" />
  <path
    d="M153.44 55.0323L151.726 53.1076C151.641 53.0125 151.641 52.8699 151.726 52.7749C151.768 52.7274 151.821 52.7036 151.874 52.7036H155.291C155.407 52.7036 155.503 52.8105 155.503 52.9412C155.503 53.0006 155.481 53.06 155.439 53.1076L153.736 55.0323C153.651 55.1274 153.524 55.1274 153.44 55.0323Z"
    fill="black" />
  <path
    d="M113.997 56.9033H113.306V53.8569L112.256 56.0777H111.744L110.669 53.8569V56.9033H109.978V52.3465H110.669L112 55.1817L113.306 52.3465H113.997V56.9033ZM116.163 53.6201C116.616 53.6201 116.951 53.714 117.168 53.9017C117.39 54.0895 117.501 54.3668 117.501 54.7337V56.9033H116.861V56.6089C116.741 56.7284 116.618 56.8137 116.49 56.8649C116.362 56.9161 116.197 56.9417 115.997 56.9417C115.792 56.9417 115.619 56.9183 115.479 56.8713C115.342 56.8201 115.225 56.7455 115.127 56.6473C114.956 56.4681 114.871 56.2356 114.871 55.9497C114.871 55.6767 114.964 55.4527 115.152 55.2777C115.34 55.1028 115.621 55.0153 115.997 55.0153H116.848V54.7849C116.848 54.5759 116.793 54.4223 116.682 54.3241C116.575 54.226 116.394 54.1769 116.138 54.1769C115.963 54.1769 115.824 54.2025 115.722 54.2537C115.619 54.3007 115.521 54.3817 115.427 54.4969L115.005 54.0937C115.082 54.0041 115.159 53.9295 115.235 53.8697C115.316 53.81 115.402 53.7609 115.491 53.7225C115.585 53.6841 115.685 53.6585 115.792 53.6457C115.903 53.6287 116.027 53.6201 116.163 53.6201ZM116.099 55.4697C115.703 55.4697 115.504 55.6255 115.504 55.9369C115.504 56.0863 115.551 56.2015 115.645 56.2825C115.743 56.3593 115.901 56.3977 116.119 56.3977C116.234 56.3977 116.338 56.3871 116.432 56.3657C116.53 56.3444 116.622 56.2932 116.707 56.2121C116.801 56.1225 116.848 55.9625 116.848 55.7321V55.4697H116.099ZM119.91 55.2457L121.017 56.9033H120.23L119.552 55.7961L118.867 56.9033H118.08L119.193 55.2457L118.125 53.6585H118.912L119.552 54.7145L120.185 53.6585H120.973L119.91 55.2457Z"
    fill="#007EC9" />
</svg>