<svg width="290" height="85" viewBox="0 0 290 85" fill="none" xmlns="http://www.w3.org/2000/svg">
  <path fill-rule="evenodd" clip-rule="evenodd"
    d="M0 10.4135C0 5.11155 4.29807 0.813477 9.6 0.813477H280C285.302 0.813477 289.6 5.11154 289.6 10.4135V74.8156C289.6 80.1175 285.302 84.4156 280 84.4156H9.60002C4.29809 84.4156 0 80.1176 0 74.8156V10.4135Z"
    fill="white" fill-opacity="0.88" />
  <rect x="136.8" y="41.4141" width="96" height="26.8209" rx="13.4105" fill="white" />
  <path opacity="0.85"
    d="M151.496 54.4641L154.929 60.3245H153.722L150.812 55.2419L148.8 57.6692V60.3245H147.781V50.7762H148.8V56.2745L153.266 50.7762H154.5L151.496 54.4641ZM156.047 59.4662L159.815 54.6787C159.994 54.4462 160.128 54.2182 160.218 53.9947C160.307 53.7712 160.352 53.5298 160.352 53.2706C160.352 52.752 160.204 52.3363 159.909 52.0234C159.623 51.7105 159.216 51.554 158.689 51.554C158.465 51.554 158.251 51.5853 158.045 51.6479C157.848 51.7105 157.674 51.8133 157.522 51.9563C157.37 52.0994 157.249 52.2827 157.16 52.5062C157.071 52.7207 157.026 52.98 157.026 53.284H156.06C156.06 52.9085 156.123 52.5643 156.248 52.2514C156.373 51.9295 156.548 51.6568 156.771 51.4333C157.004 51.2009 157.281 51.0221 157.603 50.8969C157.924 50.7628 158.286 50.6958 158.689 50.6958C159.082 50.6958 159.44 50.7583 159.762 50.8835C160.083 50.9997 160.361 51.1696 160.593 51.3931C160.826 51.6166 161.004 51.8893 161.13 52.2111C161.255 52.524 161.317 52.8772 161.317 53.2706C161.317 53.655 161.255 53.9903 161.13 54.2763C161.004 54.5535 160.812 54.8619 160.553 55.2017L157.214 59.4662H161.317V60.3245H156.047V59.4662ZM172.087 60.4049C171.694 60.4049 171.314 60.3513 170.948 60.244C170.59 60.1367 170.268 59.9713 169.982 59.7478C169.705 59.5154 169.481 59.2248 169.311 58.8761C169.142 58.5185 169.052 58.0894 169.043 57.5887H170.787C170.796 57.8033 170.836 57.991 170.907 58.152C170.979 58.304 171.073 58.4336 171.189 58.5409C171.305 58.6392 171.439 58.7152 171.591 58.7688C171.752 58.8136 171.918 58.8359 172.087 58.8359C172.463 58.8359 172.771 58.7241 173.013 58.5006C173.254 58.2771 173.375 57.9463 173.375 57.5083C173.375 57.106 173.259 56.7886 173.026 56.5561C172.794 56.3147 172.463 56.194 172.034 56.194H171.779V54.6787H172.034C172.463 54.6787 172.771 54.5669 172.959 54.3434C173.147 54.111 173.241 53.8249 173.241 53.4851C173.241 53.0828 173.125 52.7788 172.892 52.5732C172.66 52.3676 172.387 52.2648 172.074 52.2648C171.743 52.2648 171.466 52.3676 171.243 52.5732C171.028 52.7699 170.912 53.0515 170.894 53.4181H169.151C169.159 52.9889 169.24 52.609 169.392 52.2782C169.553 51.9385 169.763 51.6524 170.022 51.4199C170.29 51.1785 170.599 50.9997 170.948 50.8835C171.296 50.7583 171.672 50.6958 172.074 50.6958C172.494 50.6958 172.883 50.7628 173.241 50.8969C173.598 51.031 173.907 51.2188 174.166 51.4601C174.425 51.7015 174.626 51.9921 174.77 52.3318C174.913 52.6626 174.984 53.0292 174.984 53.4315C174.984 53.95 174.877 54.3657 174.662 54.6787C174.457 54.9826 174.197 55.2195 173.884 55.3894C174.233 55.5682 174.524 55.832 174.756 56.1806C174.997 56.5204 175.118 56.9808 175.118 57.5619C175.118 58.0357 175.038 58.4515 174.877 58.8091C174.716 59.1667 174.497 59.4662 174.22 59.7076C173.943 59.94 173.621 60.1144 173.254 60.2306C172.888 60.3468 172.499 60.4049 172.087 60.4049ZM179.409 60.4049C178.98 60.4049 178.578 60.3423 178.202 60.2172C177.836 60.092 177.514 59.9087 177.237 59.6674C176.968 59.426 176.754 59.1309 176.593 58.7823C176.432 58.4246 176.352 58.0134 176.352 57.5485C176.352 57.2535 176.387 56.9942 176.459 56.7707C176.539 56.5472 176.638 56.3505 176.754 56.1806C176.87 56.0018 176.995 55.8498 177.129 55.7247C177.272 55.5995 177.411 55.4922 177.545 55.4028C177.42 55.3224 177.295 55.2195 177.17 55.0944C177.044 54.9692 176.928 54.8262 176.821 54.6652C176.723 54.5043 176.638 54.321 176.566 54.1154C176.504 53.9098 176.472 53.6773 176.472 53.4181C176.472 52.9979 176.548 52.6224 176.7 52.2916C176.861 51.9519 177.076 51.6658 177.344 51.4333C177.612 51.1919 177.921 51.0087 178.269 50.8835C178.627 50.7583 179.007 50.6958 179.409 50.6958C179.802 50.6958 180.174 50.7583 180.522 50.8835C180.88 51.0087 181.193 51.1919 181.461 51.4333C181.729 51.6658 181.939 51.9519 182.091 52.2916C182.252 52.6224 182.333 52.9979 182.333 53.4181C182.333 53.6773 182.297 53.9098 182.225 54.1154C182.163 54.321 182.078 54.5043 181.971 54.6652C181.872 54.8262 181.76 54.9692 181.635 55.0944C181.51 55.2195 181.385 55.3224 181.26 55.4028C181.394 55.4922 181.532 55.5995 181.675 55.7247C181.819 55.8498 181.948 56.0018 182.064 56.1806C182.181 56.3505 182.274 56.5472 182.346 56.7707C182.426 56.9942 182.467 57.2535 182.467 57.5485C182.467 58.0134 182.386 58.4246 182.225 58.7823C182.064 59.1309 181.845 59.426 181.568 59.6674C181.291 59.9087 180.965 60.092 180.589 60.2172C180.223 60.3423 179.829 60.4049 179.409 60.4049ZM179.409 58.8359C179.776 58.8359 180.084 58.7107 180.334 58.4604C180.594 58.2101 180.723 57.8972 180.723 57.5217C180.723 57.1462 180.594 56.8333 180.334 56.5829C180.084 56.3237 179.776 56.194 179.409 56.194C179.034 56.194 178.721 56.3237 178.47 56.5829C178.22 56.8333 178.095 57.1462 178.095 57.5217C178.095 57.8972 178.22 58.2101 178.47 58.4604C178.721 58.7107 179.034 58.8359 179.409 58.8359ZM179.409 54.6787C179.749 54.6787 180.03 54.5669 180.254 54.3434C180.477 54.111 180.589 53.8204 180.589 53.4717C180.589 53.123 180.477 52.837 180.254 52.6134C180.03 52.381 179.749 52.2648 179.409 52.2648C179.069 52.2648 178.783 52.381 178.551 52.6134C178.327 52.837 178.216 53.123 178.216 53.4717C178.216 53.8204 178.327 54.111 178.551 54.3434C178.783 54.5669 179.069 54.6787 179.409 54.6787ZM186.677 60.4049C186.293 60.4049 185.926 60.3423 185.578 60.2172C185.229 60.092 184.92 59.9087 184.652 59.6674C184.384 59.426 184.169 59.1309 184.008 58.7823C183.856 58.4246 183.781 58.0179 183.781 57.5619V53.5388C183.781 53.0828 183.856 52.6805 184.008 52.3318C184.169 51.9742 184.384 51.6747 184.652 51.4333C184.92 51.1919 185.229 51.0087 185.578 50.8835C185.926 50.7583 186.293 50.6958 186.677 50.6958C187.062 50.6958 187.428 50.7583 187.777 50.8835C188.134 51.0087 188.447 51.1919 188.716 51.4333C188.984 51.6747 189.194 51.9742 189.346 52.3318C189.507 52.6805 189.587 53.0828 189.587 53.5388V57.5619C189.587 58.0179 189.507 58.4246 189.346 58.7823C189.194 59.1309 188.984 59.426 188.716 59.6674C188.447 59.9087 188.134 60.092 187.777 60.2172C187.428 60.3423 187.062 60.4049 186.677 60.4049ZM186.677 58.8359C187.026 58.8359 187.307 58.7241 187.522 58.5006C187.737 58.2682 187.844 57.9508 187.844 57.5485V53.5656C187.844 53.1633 187.737 52.8459 187.522 52.6134C187.307 52.381 187.026 52.2648 186.677 52.2648C186.337 52.2648 186.06 52.381 185.846 52.6134C185.631 52.8459 185.524 53.1633 185.524 53.5656V57.5485C185.524 57.9508 185.631 58.2682 185.846 58.5006C186.06 58.7241 186.337 58.8359 186.677 58.8359ZM193.959 60.4049C193.574 60.4049 193.208 60.3423 192.859 60.2172C192.51 60.092 192.202 59.9087 191.934 59.6674C191.665 59.426 191.451 59.1309 191.29 58.7823C191.138 58.4246 191.062 58.0179 191.062 57.5619V53.5388C191.062 53.0828 191.138 52.6805 191.29 52.3318C191.451 51.9742 191.665 51.6747 191.934 51.4333C192.202 51.1919 192.51 51.0087 192.859 50.8835C193.208 50.7583 193.574 50.6958 193.959 50.6958C194.343 50.6958 194.71 50.7583 195.058 50.8835C195.416 51.0087 195.729 51.1919 195.997 51.4333C196.265 51.6747 196.475 51.9742 196.627 52.3318C196.788 52.6805 196.869 53.0828 196.869 53.5388V57.5619C196.869 58.0179 196.788 58.4246 196.627 58.7823C196.475 59.1309 196.265 59.426 195.997 59.6674C195.729 59.9087 195.416 60.092 195.058 60.2172C194.71 60.3423 194.343 60.4049 193.959 60.4049ZM193.959 58.8359C194.307 58.8359 194.589 58.7241 194.803 58.5006C195.018 58.2682 195.125 57.9508 195.125 57.5485V53.5656C195.125 53.1633 195.018 52.8459 194.803 52.6134C194.589 52.381 194.307 52.2648 193.959 52.2648C193.619 52.2648 193.342 52.381 193.127 52.6134C192.913 52.8459 192.805 53.1633 192.805 53.5656V57.5485C192.805 57.9508 192.913 58.2682 193.127 58.5006C193.342 58.7241 193.619 58.8359 193.959 58.8359ZM201.24 60.4049C200.856 60.4049 200.489 60.3423 200.14 60.2172C199.792 60.092 199.483 59.9087 199.215 59.6674C198.947 59.426 198.732 59.1309 198.571 58.7823C198.419 58.4246 198.343 58.0179 198.343 57.5619V53.5388C198.343 53.0828 198.419 52.6805 198.571 52.3318C198.732 51.9742 198.947 51.6747 199.215 51.4333C199.483 51.1919 199.792 51.0087 200.14 50.8835C200.489 50.7583 200.856 50.6958 201.24 50.6958C201.625 50.6958 201.991 50.7583 202.34 50.8835C202.697 51.0087 203.01 51.1919 203.278 51.4333C203.547 51.6747 203.757 51.9742 203.909 52.3318C204.07 52.6805 204.15 53.0828 204.15 53.5388V57.5619C204.15 58.0179 204.07 58.4246 203.909 58.7823C203.757 59.1309 203.547 59.426 203.278 59.6674C203.01 59.9087 202.697 60.092 202.34 60.2172C201.991 60.3423 201.625 60.4049 201.24 60.4049ZM201.24 58.8359C201.589 58.8359 201.87 58.7241 202.085 58.5006C202.3 58.2682 202.407 57.9508 202.407 57.5485V53.5656C202.407 53.1633 202.3 52.8459 202.085 52.6134C201.87 52.381 201.589 52.2648 201.24 52.2648C200.9 52.2648 200.623 52.381 200.409 52.6134C200.194 52.8459 200.087 53.1633 200.087 53.5656V57.5485C200.087 57.9508 200.194 58.2682 200.409 58.5006C200.623 58.7241 200.9 58.8359 201.24 58.8359Z"
    fill="black" />
  <path d="M126.298 56.3348H122.355V54.7732H126.298V56.3348Z" fill="black" />
  <rect x="16" y="41.4141" width="96" height="26.8209" rx="13.4105" fill="white" />
  <path opacity="0.85"
    d="M30.6961 54.4641L34.1291 60.3245H32.9222L30.0121 55.2419L28.0006 57.6692V60.3245H26.9814V50.7762H28.0006V56.2745L32.4663 50.7762H33.7L30.6961 54.4641ZM37.7951 51.8491L36.0115 53.4181V52.3184L37.7951 50.7762H38.7607V60.3245H37.7951V51.8491ZM51.2876 60.4049C50.8942 60.4049 50.5143 60.3513 50.1477 60.244C49.7901 60.1367 49.4683 59.9713 49.1822 59.7478C48.905 59.5154 48.6815 59.2248 48.5117 58.8761C48.3418 58.5185 48.2524 58.0894 48.2434 57.5887H49.9868C49.9957 57.8033 50.036 57.991 50.1075 58.152C50.179 58.304 50.2729 58.4336 50.3891 58.5409C50.5053 58.6392 50.6394 58.7152 50.7914 58.7688C50.9524 58.8136 51.1178 58.8359 51.2876 58.8359C51.6631 58.8359 51.9716 58.7241 52.2129 58.5006C52.4543 58.2771 52.575 57.9463 52.575 57.5083C52.575 57.106 52.4588 56.7886 52.2264 56.5561C51.9939 56.3147 51.6631 56.194 51.234 56.194H50.9792V54.6787H51.234C51.6631 54.6787 51.9716 54.5669 52.1593 54.3434C52.347 54.111 52.4409 53.8249 52.4409 53.4851C52.4409 53.0828 52.3247 52.7788 52.0922 52.5732C51.8598 52.3676 51.5871 52.2648 51.2742 52.2648C50.9434 52.2648 50.6663 52.3676 50.4428 52.5732C50.2282 52.7699 50.112 53.0515 50.0941 53.4181H48.3507C48.3597 52.9889 48.4401 52.609 48.5921 52.2782C48.753 51.9385 48.9631 51.6524 49.2224 51.4199C49.4906 51.1785 49.7991 50.9997 50.1477 50.8835C50.4964 50.7583 50.8719 50.6958 51.2742 50.6958C51.6944 50.6958 52.0833 50.7628 52.4409 50.8969C52.7985 51.031 53.107 51.2188 53.3662 51.4601C53.6255 51.7015 53.8267 51.9921 53.9697 52.3318C54.1128 52.6626 54.1843 53.0292 54.1843 53.4315C54.1843 53.95 54.077 54.3657 53.8624 54.6787C53.6568 54.9826 53.3975 55.2195 53.0846 55.3894C53.4333 55.5682 53.7239 55.832 53.9563 56.1806C54.1977 56.5204 54.3184 56.9808 54.3184 57.5619C54.3184 58.0357 54.2379 58.4515 54.077 58.8091C53.9161 59.1667 53.697 59.4662 53.4199 59.7076C53.1427 59.94 52.8209 60.1144 52.4543 60.2306C52.0878 60.3468 51.6989 60.4049 51.2876 60.4049ZM59.2798 58.97H55.3774V57.3205L58.6495 50.7762H60.5538L57.2817 57.3205H59.2798V55.5369H60.9427V57.3205H61.8278V58.97H60.9427V60.3245H59.2798V58.97ZM65.8774 60.4049C65.4929 60.4049 65.1264 60.3423 64.7777 60.2172C64.429 60.092 64.1206 59.9087 63.8524 59.6674C63.5842 59.426 63.3696 59.1309 63.2087 58.7823C63.0567 58.4246 62.9807 58.0179 62.9807 57.5619V53.5388C62.9807 53.0828 63.0567 52.6805 63.2087 52.3318C63.3696 51.9742 63.5842 51.6747 63.8524 51.4333C64.1206 51.1919 64.429 51.0087 64.7777 50.8835C65.1264 50.7583 65.4929 50.6958 65.8774 50.6958C66.2618 50.6958 66.6283 50.7583 66.977 50.8835C67.3346 51.0087 67.6475 51.1919 67.9157 51.4333C68.184 51.6747 68.3941 51.9742 68.546 52.3318C68.707 52.6805 68.7874 53.0828 68.7874 53.5388V57.5619C68.7874 58.0179 68.707 58.4246 68.546 58.7823C68.3941 59.1309 68.184 59.426 67.9157 59.6674C67.6475 59.9087 67.3346 60.092 66.977 60.2172C66.6283 60.3423 66.2618 60.4049 65.8774 60.4049ZM65.8774 58.8359C66.226 58.8359 66.5077 58.7241 66.7222 58.5006C66.9368 58.2682 67.0441 57.9508 67.0441 57.5485V53.5656C67.0441 53.1633 66.9368 52.8459 66.7222 52.6134C66.5077 52.381 66.226 52.2648 65.8774 52.2648C65.5376 52.2648 65.2605 52.381 65.0459 52.6134C64.8313 52.8459 64.7241 53.1633 64.7241 53.5656V57.5485C64.7241 57.9508 64.8313 58.2682 65.0459 58.5006C65.2605 58.7241 65.5376 58.8359 65.8774 58.8359ZM73.1588 60.4049C72.7744 60.4049 72.4078 60.3423 72.0592 60.2172C71.7105 60.092 71.402 59.9087 71.1338 59.6674C70.8656 59.426 70.6511 59.1309 70.4901 58.7823C70.3382 58.4246 70.2622 58.0179 70.2622 57.5619V53.5388C70.2622 53.0828 70.3382 52.6805 70.4901 52.3318C70.6511 51.9742 70.8656 51.6747 71.1338 51.4333C71.402 51.1919 71.7105 51.0087 72.0592 50.8835C72.4078 50.7583 72.7744 50.6958 73.1588 50.6958C73.5433 50.6958 73.9098 50.7583 74.2585 50.8835C74.6161 51.0087 74.929 51.1919 75.1972 51.4333C75.4654 51.6747 75.6755 51.9742 75.8275 52.3318C75.9884 52.6805 76.0689 53.0828 76.0689 53.5388V57.5619C76.0689 58.0179 75.9884 58.4246 75.8275 58.7823C75.6755 59.1309 75.4654 59.426 75.1972 59.6674C74.929 59.9087 74.6161 60.092 74.2585 60.2172C73.9098 60.3423 73.5433 60.4049 73.1588 60.4049ZM73.1588 58.8359C73.5075 58.8359 73.7891 58.7241 74.0037 58.5006C74.2182 58.2682 74.3255 57.9508 74.3255 57.5485V53.5656C74.3255 53.1633 74.2182 52.8459 74.0037 52.6134C73.7891 52.381 73.5075 52.2648 73.1588 52.2648C72.8191 52.2648 72.5419 52.381 72.3274 52.6134C72.1128 52.8459 72.0055 53.1633 72.0055 53.5656V57.5485C72.0055 57.9508 72.1128 58.2682 72.3274 58.5006C72.5419 58.7241 72.8191 58.8359 73.1588 58.8359ZM80.4403 60.4049C80.0558 60.4049 79.6893 60.3423 79.3406 60.2172C78.992 60.092 78.6835 59.9087 78.4153 59.6674C78.1471 59.426 77.9325 59.1309 77.7716 58.7823C77.6196 58.4246 77.5436 58.0179 77.5436 57.5619V53.5388C77.5436 53.0828 77.6196 52.6805 77.7716 52.3318C77.9325 51.9742 78.1471 51.6747 78.4153 51.4333C78.6835 51.1919 78.992 51.0087 79.3406 50.8835C79.6893 50.7583 80.0558 50.6958 80.4403 50.6958C80.8247 50.6958 81.1913 50.7583 81.5399 50.8835C81.8975 51.0087 82.2105 51.1919 82.4787 51.4333C82.7469 51.6747 82.957 51.9742 83.109 52.3318C83.2699 52.6805 83.3503 53.0828 83.3503 53.5388V57.5619C83.3503 58.0179 83.2699 58.4246 83.109 58.7823C82.957 59.1309 82.7469 59.426 82.4787 59.6674C82.2105 59.9087 81.8975 60.092 81.5399 60.2172C81.1913 60.3423 80.8247 60.4049 80.4403 60.4049ZM80.4403 58.8359C80.789 58.8359 81.0706 58.7241 81.2851 58.5006C81.4997 58.2682 81.607 57.9508 81.607 57.5485V53.5656C81.607 53.1633 81.4997 52.8459 81.2851 52.6134C81.0706 52.381 80.789 52.2648 80.4403 52.2648C80.1005 52.2648 79.8234 52.381 79.6088 52.6134C79.3943 52.8459 79.287 53.1633 79.287 53.5656V57.5485C79.287 57.9508 79.3943 58.2682 79.6088 58.5006C79.8234 58.7241 80.1005 58.8359 80.4403 58.8359Z"
    fill="black" />
  <path
    d="M19.8523 17.0317C20.4443 17.0317 20.9603 17.1077 21.4003 17.2597C21.8403 17.4117 22.2443 17.6677 22.6123 18.0277L21.5563 19.0717C21.3243 18.8397 21.0723 18.6837 20.8003 18.6037C20.5283 18.5237 20.1963 18.4837 19.8043 18.4837C19.3563 18.4837 19.0243 18.5917 18.8083 18.8077C18.5923 19.0157 18.4843 19.2677 18.4843 19.5637C18.4843 19.8117 18.5683 20.0157 18.7363 20.1757C18.8243 20.2557 18.9283 20.3237 19.0483 20.3797C19.1763 20.4357 19.3323 20.4757 19.5163 20.4997L20.5363 20.6557C20.9283 20.7117 21.2523 20.7917 21.5083 20.8957C21.7643 20.9997 21.9843 21.1437 22.1683 21.3277C22.4003 21.5437 22.5683 21.8037 22.6723 22.1077C22.7763 22.4037 22.8283 22.7437 22.8283 23.1277C22.8283 23.5437 22.7483 23.9117 22.5883 24.2317C22.4283 24.5517 22.2043 24.8237 21.9163 25.0477C21.6363 25.2637 21.3003 25.4317 20.9083 25.5517C20.5243 25.6637 20.1083 25.7197 19.6603 25.7197C19.0123 25.7197 18.4323 25.6397 17.9203 25.4797C17.4163 25.3117 16.9563 25.0157 16.5403 24.5917L17.6203 23.5117C17.8923 23.7837 18.2043 23.9717 18.5563 24.0757C18.9083 24.1797 19.2803 24.2317 19.6723 24.2317C20.1763 24.2317 20.5563 24.1397 20.8123 23.9557C21.0683 23.7717 21.1963 23.5077 21.1963 23.1637C21.1963 22.8677 21.1083 22.6317 20.9323 22.4557C20.8443 22.3757 20.7443 22.3157 20.6323 22.2757C20.5283 22.2357 20.3723 22.1997 20.1643 22.1677L19.1443 22.0117C18.4163 21.8997 17.8643 21.6637 17.4883 21.3037C17.0803 20.9117 16.8763 20.3517 16.8763 19.6237C16.8763 19.2397 16.9443 18.8917 17.0803 18.5797C17.2163 18.2597 17.4123 17.9877 17.6683 17.7637C17.9243 17.5317 18.2363 17.3517 18.6043 17.2237C18.9723 17.0957 19.3883 17.0317 19.8523 17.0317ZM25.9821 19.5757H27.0861V20.7637H25.9821V23.7637C25.9821 24.1397 26.1621 24.3277 26.5221 24.3277H27.0861V25.6477H26.2341C25.9141 25.6477 25.6381 25.5957 25.4061 25.4917C25.1821 25.3877 24.9941 25.2517 24.8421 25.0837C24.6981 24.9157 24.5901 24.7277 24.5181 24.5197C24.4541 24.3037 24.4221 24.0837 24.4221 23.8597V20.7637H23.7621V19.5757H24.4221V17.7277H25.9821V19.5757ZM31.5928 19.3237C31.9048 19.3237 32.1728 19.3677 32.3968 19.4557C32.6288 19.5357 32.8528 19.6877 33.0688 19.9117L31.9048 21.0997C31.7848 20.9797 31.6648 20.8877 31.5448 20.8237C31.4248 20.7597 31.2688 20.7277 31.0768 20.7277C30.9568 20.7277 30.8368 20.7517 30.7168 20.7997C30.5968 20.8397 30.4848 20.9077 30.3808 21.0037C30.2848 21.0997 30.2048 21.2197 30.1408 21.3637C30.0848 21.5077 30.0568 21.6797 30.0568 21.8797V25.6477H28.4968V19.3957H30.0208V19.9957C30.1728 19.8117 30.3888 19.6557 30.6688 19.5277C30.9488 19.3917 31.2568 19.3237 31.5928 19.3237ZM35.5178 25.6477H33.9578V19.5757H35.5178V25.6477ZM35.5298 18.3277H33.9338V17.0557H35.5298V18.3277ZM38.8225 21.9517L40.8985 19.3957H42.7945L40.5505 21.9157L42.9625 25.6477H41.0305L39.4825 23.0437L38.8225 23.7877V25.6477H37.2625V17.1037H38.8225V21.9517ZM45.9088 19.3237C46.3408 19.3237 46.7248 19.3997 47.0608 19.5517C47.4048 19.6957 47.6928 19.9037 47.9248 20.1757C48.1568 20.4397 48.3328 20.7597 48.4528 21.1357C48.5729 21.5037 48.6329 21.9077 48.6329 22.3477V23.0077H44.7208C44.7208 23.4157 44.8368 23.7517 45.0688 24.0157C45.3008 24.2717 45.6408 24.3997 46.0888 24.3997C46.4328 24.3997 46.7048 24.3517 46.9048 24.2557C47.1048 24.1517 47.3008 24.0037 47.4928 23.8117L48.4528 24.7357C48.2928 24.8957 48.1328 25.0397 47.9728 25.1677C47.8128 25.2877 47.6368 25.3917 47.4448 25.4797C47.2608 25.5597 47.0568 25.6197 46.8328 25.6597C46.6088 25.6997 46.3568 25.7197 46.0768 25.7197C45.7008 25.7197 45.3408 25.6717 44.9968 25.5757C44.6528 25.4797 44.3448 25.3117 44.0728 25.0717C43.8008 24.8237 43.5848 24.4957 43.4248 24.0877C43.2648 23.6717 43.1848 23.1477 43.1848 22.5157C43.1848 22.0037 43.2488 21.5517 43.3768 21.1597C43.5128 20.7597 43.7008 20.4237 43.9408 20.1517C44.1808 19.8797 44.4648 19.6757 44.7928 19.5397C45.1288 19.3957 45.5008 19.3237 45.9088 19.3237ZM45.9088 20.6197C45.6368 20.6197 45.4128 20.6837 45.2368 20.8117C45.0688 20.9317 44.9408 21.0837 44.8528 21.2677C44.7968 21.3797 44.7608 21.4877 44.7448 21.5917C44.7368 21.6877 44.7288 21.8037 44.7208 21.9397H47.0848C47.0768 21.8037 47.0648 21.6877 47.0488 21.5917C47.0408 21.4877 47.0088 21.3797 46.9528 21.2677C46.8648 21.0837 46.7328 20.9317 46.5568 20.8117C46.3888 20.6837 46.1728 20.6197 45.9088 20.6197Z"
    fill="black" />
</svg>