<svg width="256" height="127" viewBox="0 0 256 127" fill="none" xmlns="http://www.w3.org/2000/svg">
  <path fill-rule="evenodd" clip-rule="evenodd"
    d="M0 10.4142C0 5.11227 4.29807 0.814209 9.6 0.814209H246.4C251.702 0.814209 256 5.11228 256 10.4142V116.814C256 122.116 251.702 126.414 246.4 126.414H9.60001C4.29807 126.414 0 122.116 0 116.814V10.4142Z"
    fill="white" fill-opacity="0.88" />
  <path
    d="M20.6203 17.0703C21.0603 17.0703 21.4563 17.1423 21.8083 17.2863C22.1603 17.4223 22.4563 17.6143 22.6963 17.8623C22.9363 18.1023 23.1203 18.3863 23.2483 18.7143C23.3763 19.0343 23.4403 19.3743 23.4403 19.7343C23.4403 20.0943 23.3763 20.4383 23.2483 20.7663C23.1203 21.0863 22.9363 21.3703 22.6963 21.6183C22.4563 21.8583 22.1603 22.0503 21.8083 22.1943C21.4563 22.3303 21.0603 22.3983 20.6203 22.3983H18.9763V25.6143H17.3083V17.0703H20.6203ZM18.9763 18.5583V20.9103H20.5363C20.9203 20.9103 21.2203 20.8023 21.4363 20.5863C21.6603 20.3703 21.7723 20.0863 21.7723 19.7343C21.7723 19.3743 21.6603 19.0903 21.4363 18.8823C21.2203 18.6663 20.9203 18.5583 20.5363 18.5583H18.9763ZM27.8074 19.2903C28.4394 19.2903 28.9314 19.4743 29.2834 19.8423C29.5394 20.0983 29.7074 20.3743 29.7874 20.6703C29.8754 20.9583 29.9194 21.2743 29.9194 21.6183V25.6143H28.3594V21.8343C28.3594 21.6183 28.3274 21.4383 28.2634 21.2943C28.2074 21.1503 28.1314 21.0343 28.0354 20.9463C27.9394 20.8583 27.8274 20.7943 27.6994 20.7543C27.5794 20.7143 27.4554 20.6943 27.3274 20.6943C27.1994 20.6943 27.0714 20.7143 26.9434 20.7543C26.8234 20.7943 26.7114 20.8583 26.6074 20.9463C26.5114 21.0343 26.4314 21.1503 26.3674 21.2943C26.3114 21.4383 26.2834 21.6183 26.2834 21.8343V25.6143H24.7234V19.3623H26.2474V19.9383C26.4554 19.7223 26.6954 19.5623 26.9674 19.4583C27.2394 19.3463 27.5194 19.2903 27.8074 19.2903ZM33.3903 24.1263H37.2663V25.6143H31.7223V17.0703H33.3903V24.1263ZM47.0417 18.5583H43.0817V20.6583H46.4657V22.1463H43.0817V25.6143H41.4137V17.0703H47.0417V18.5583ZM53.0366 22.4823C53.0366 23.0503 52.9886 23.5263 52.8926 23.9103C52.8046 24.2863 52.6166 24.6223 52.3286 24.9183C52.1286 25.1263 51.8686 25.3063 51.5486 25.4583C51.2366 25.6103 50.8486 25.6863 50.3846 25.6863C49.9206 25.6863 49.5326 25.6103 49.2206 25.4583C48.9086 25.3063 48.6526 25.1263 48.4526 24.9183C48.1726 24.6143 47.9846 24.2743 47.8886 23.8983C47.7926 23.5223 47.7446 23.0503 47.7446 22.4823C47.7446 21.9143 47.7926 21.4463 47.8886 21.0783C47.9846 20.7023 48.1726 20.3623 48.4526 20.0583C48.6526 19.8503 48.9086 19.6703 49.2206 19.5183C49.5326 19.3663 49.9206 19.2903 50.3846 19.2903C50.8486 19.2903 51.2366 19.3663 51.5486 19.5183C51.8686 19.6703 52.1286 19.8503 52.3286 20.0583C52.6086 20.3623 52.7966 20.7023 52.8926 21.0783C52.9886 21.4463 53.0366 21.9143 53.0366 22.4823ZM51.4766 22.4823C51.4766 22.1623 51.4566 21.8703 51.4166 21.6063C51.3766 21.3423 51.2766 21.1303 51.1166 20.9703C50.9326 20.7863 50.6886 20.6943 50.3846 20.6943C50.0886 20.6943 49.8486 20.7863 49.6646 20.9703C49.5046 21.1303 49.4046 21.3423 49.3646 21.6063C49.3246 21.8703 49.3046 22.1623 49.3046 22.4823C49.3046 22.8103 49.3246 23.1063 49.3646 23.3703C49.4046 23.6343 49.5046 23.8463 49.6646 24.0063C49.8486 24.1903 50.0886 24.2823 50.3846 24.2823C50.6886 24.2823 50.9326 24.1903 51.1166 24.0063C51.2766 23.8463 51.3766 23.6343 51.4166 23.3703C51.4566 23.1063 51.4766 22.8103 51.4766 22.4823ZM57.6202 19.2903C57.9322 19.2903 58.2002 19.3343 58.4242 19.4223C58.6562 19.5023 58.8802 19.6543 59.0962 19.8783L57.9322 21.0663C57.8122 20.9463 57.6922 20.8543 57.5722 20.7903C57.4522 20.7263 57.2962 20.6943 57.1042 20.6943C56.9842 20.6943 56.8642 20.7183 56.7442 20.7663C56.6242 20.8063 56.5122 20.8743 56.4082 20.9703C56.3122 21.0663 56.2322 21.1863 56.1682 21.3303C56.1122 21.4743 56.0842 21.6463 56.0842 21.8463V25.6143H54.5242V19.3623H56.0482V19.9623C56.2002 19.7783 56.4162 19.6223 56.6962 19.4943C56.9762 19.3583 57.2842 19.2903 57.6202 19.2903ZM62.0338 19.2903C62.4658 19.2903 62.8498 19.3663 63.1858 19.5183C63.5298 19.6623 63.8178 19.8703 64.0498 20.1423C64.2818 20.4063 64.4578 20.7263 64.5778 21.1023C64.6979 21.4703 64.7579 21.8743 64.7579 22.3143V22.9743H60.8458C60.8458 23.3823 60.9618 23.7183 61.1938 23.9823C61.4258 24.2383 61.7658 24.3663 62.2138 24.3663C62.5578 24.3663 62.8298 24.3183 63.0298 24.2223C63.2298 24.1183 63.4258 23.9703 63.6178 23.7783L64.5778 24.7023C64.4178 24.8623 64.2578 25.0063 64.0978 25.1343C63.9378 25.2543 63.7618 25.3583 63.5698 25.4463C63.3858 25.5263 63.1818 25.5863 62.9578 25.6263C62.7338 25.6663 62.4818 25.6863 62.2018 25.6863C61.8258 25.6863 61.4658 25.6383 61.1218 25.5423C60.7778 25.4463 60.4698 25.2783 60.1978 25.0383C59.9258 24.7903 59.7098 24.4623 59.5498 24.0543C59.3898 23.6383 59.3098 23.1143 59.3098 22.4823C59.3098 21.9703 59.3738 21.5183 59.5018 21.1263C59.6378 20.7263 59.8258 20.3903 60.0658 20.1183C60.3058 19.8463 60.5898 19.6423 60.9178 19.5063C61.2538 19.3623 61.6258 19.2903 62.0338 19.2903ZM62.0338 20.5863C61.7618 20.5863 61.5378 20.6503 61.3618 20.7783C61.1938 20.8983 61.0658 21.0503 60.9778 21.2343C60.9218 21.3463 60.8858 21.4543 60.8698 21.5583C60.8618 21.6543 60.8538 21.7703 60.8458 21.9063H63.2098C63.2018 21.7703 63.1898 21.6543 63.1738 21.5583C63.1658 21.4543 63.1338 21.3463 63.0778 21.2343C62.9898 21.0503 62.8578 20.8983 62.6818 20.7783C62.5138 20.6503 62.2978 20.5863 62.0338 20.5863ZM68.7281 19.2903C69.1601 19.2903 69.5401 19.3583 69.8681 19.4943C70.2041 19.6303 70.5121 19.8423 70.7921 20.1303L69.7241 21.1863C69.5641 21.0103 69.4081 20.8863 69.2561 20.8143C69.1121 20.7343 68.9361 20.6943 68.7281 20.6943C68.5361 20.6943 68.3681 20.7303 68.2241 20.8023C68.0801 20.8663 67.9521 20.9663 67.8401 21.1023C67.7201 21.2543 67.6321 21.4383 67.5761 21.6543C67.5201 21.8703 67.4921 22.1463 67.4921 22.4823C67.4921 22.8183 67.5201 23.0983 67.5761 23.3223C67.6321 23.5383 67.7201 23.7223 67.8401 23.8743C67.9521 24.0103 68.0801 24.1143 68.2241 24.1863C68.3681 24.2503 68.5361 24.2823 68.7281 24.2823C68.9361 24.2823 69.1121 24.2423 69.2561 24.1623C69.4081 24.0823 69.5641 23.9583 69.7241 23.7903L70.7921 24.8343C70.5121 25.1223 70.2041 25.3383 69.8681 25.4823C69.5401 25.6183 69.1601 25.6863 68.7281 25.6863C68.4161 25.6863 68.0921 25.6383 67.7561 25.5423C67.4281 25.4463 67.1281 25.2783 66.8561 25.0383C66.5841 24.7903 66.3601 24.4623 66.1841 24.0543C66.0161 23.6383 65.9321 23.1143 65.9321 22.4823C65.9321 21.8503 66.0161 21.3303 66.1841 20.9223C66.3601 20.5063 66.5841 20.1783 66.8561 19.9383C67.1281 19.6983 67.4281 19.5303 67.7561 19.4343C68.0921 19.3383 68.4161 19.2903 68.7281 19.2903ZM74.014 19.2903C75.79 19.2903 76.678 20.0263 76.678 21.4983V25.6143H75.154V25.0743C74.946 25.2823 74.726 25.4343 74.494 25.5303C74.27 25.6263 73.978 25.6743 73.618 25.6743C72.922 25.6743 72.39 25.4903 72.022 25.1223C71.854 24.9463 71.726 24.7383 71.638 24.4983C71.55 24.2583 71.506 23.9983 71.506 23.7183C71.506 23.4703 71.55 23.2383 71.638 23.0223C71.726 22.7983 71.858 22.6063 72.034 22.4463C72.21 22.2783 72.434 22.1463 72.706 22.0503C72.978 21.9543 73.298 21.9063 73.666 21.9063H75.118V21.5943C75.118 21.2503 75.026 21.0023 74.842 20.8503C74.666 20.6903 74.37 20.6103 73.954 20.6103C73.674 20.6103 73.446 20.6543 73.27 20.7423C73.094 20.8223 72.922 20.9583 72.754 21.1503L71.77 20.1783C72.074 19.8423 72.394 19.6103 72.73 19.4823C73.066 19.3543 73.494 19.2903 74.014 19.2903ZM73.93 22.9743C73.314 22.9743 73.006 23.2143 73.006 23.6943C73.006 23.9103 73.082 24.0823 73.234 24.2103C73.386 24.3383 73.626 24.4023 73.954 24.4023C74.146 24.4023 74.314 24.3863 74.458 24.3543C74.602 24.3143 74.742 24.2303 74.878 24.1023C74.966 24.0223 75.026 23.9223 75.058 23.8023C75.098 23.6743 75.118 23.5103 75.118 23.3103V22.9743H73.93ZM80.4841 19.2903C80.9801 19.2903 81.4241 19.3423 81.8161 19.4463C82.2161 19.5503 82.5681 19.7423 82.8721 20.0223L81.9121 20.9943C81.7281 20.8343 81.5081 20.7263 81.2521 20.6703C81.0041 20.6063 80.7401 20.5743 80.4601 20.5743C80.1481 20.5743 79.9201 20.6343 79.7761 20.7543C79.6401 20.8743 79.5721 21.0143 79.5721 21.1743C79.5721 21.3343 79.6201 21.4583 79.7161 21.5463C79.8201 21.6343 79.9881 21.6903 80.2201 21.7143L81.2041 21.8103C81.8281 21.8743 82.2921 22.0623 82.5961 22.3743C82.9081 22.6863 83.0641 23.1103 83.0641 23.6463C83.0641 23.9903 82.9961 24.2903 82.8601 24.5463C82.7241 24.8023 82.5361 25.0143 82.2961 25.1823C82.0561 25.3503 81.7721 25.4783 81.4441 25.5663C81.1241 25.6463 80.7801 25.6863 80.4121 25.6863C80.1641 25.6863 79.9241 25.6743 79.6921 25.6503C79.4601 25.6343 79.2321 25.5943 79.0081 25.5303C78.7921 25.4663 78.5761 25.3783 78.3601 25.2663C78.1521 25.1463 77.9481 24.9863 77.7481 24.7863L78.7681 23.7663C78.8961 23.8943 79.0321 23.9983 79.1761 24.0783C79.3201 24.1503 79.4641 24.2103 79.6081 24.2583C79.7601 24.2983 79.9041 24.3263 80.0401 24.3423C80.1841 24.3503 80.3161 24.3543 80.4361 24.3543C80.5721 24.3543 80.7041 24.3423 80.8321 24.3183C80.9681 24.2943 81.0881 24.2583 81.1921 24.2103C81.2961 24.1543 81.3801 24.0863 81.4441 24.0063C81.5081 23.9263 81.5401 23.8263 81.5401 23.7063C81.5401 23.5463 81.4921 23.4183 81.3961 23.3223C81.3081 23.2183 81.1361 23.1543 80.8801 23.1303L79.8961 23.0343C79.3281 22.9783 78.8801 22.8183 78.5521 22.5543C78.2321 22.2823 78.0721 21.8583 78.0721 21.2823C78.0721 20.9543 78.1361 20.6663 78.2641 20.4183C78.4001 20.1703 78.5761 19.9623 78.7921 19.7943C79.0161 19.6263 79.2721 19.5023 79.5601 19.4223C79.8561 19.3343 80.1641 19.2903 80.4841 19.2903ZM85.9938 19.5423H87.0978V20.7303H85.9938V23.7303C85.9938 24.1063 86.1738 24.2943 86.5338 24.2943H87.0978V25.6143H86.2458C85.9258 25.6143 85.6498 25.5623 85.4178 25.4583C85.1938 25.3543 85.0058 25.2183 84.8538 25.0503C84.7098 24.8823 84.6018 24.6943 84.5298 24.4863C84.4658 24.2703 84.4338 24.0503 84.4338 23.8263V20.7303H83.7738V19.5423H84.4338V17.6943H85.9938V19.5423Z"
    fill="black" />
  <path d="M68.0361 43.0066H186.819" stroke="#C5C5C5" stroke-width="1.28" stroke-linecap="round" />
  <path d="M109.153 89.4919H145.702" stroke="#C5C5C5" stroke-width="1.28" stroke-linecap="round" />
  <path d="M127.656 43.4634L127.656 89.149" stroke="#C5C5C5" stroke-width="1.28"
    stroke-linecap="round" />
  <path d="M68.036 43.4634L85.4446 78.1845H50.6274L68.036 43.4634Z" fill="#50D113"
    fill-opacity="0.4" />
  <path d="M186.819 43.4634L204.227 78.1845H169.41L186.819 43.4634Z" fill="#50D113"
    fill-opacity="0.4" />
  <path opacity="0.85"
    d="M56.8601 109.215H55.8924V104.95L54.4229 108.059H53.7061L52.2009 104.95V109.215H51.2332V102.835H52.2009L54.0645 106.804L55.8924 102.835H56.8601V109.215ZM59.8926 104.618C60.5258 104.618 60.9947 104.75 61.2993 105.012C61.6099 105.275 61.7652 105.663 61.7652 106.177V109.215H60.8692V108.802C60.702 108.97 60.5288 109.089 60.3496 109.161C60.1704 109.233 59.9404 109.268 59.6596 109.268C59.3729 109.268 59.131 109.236 58.9339 109.17C58.7427 109.098 58.5785 108.994 58.4411 108.856C58.2021 108.605 58.0827 108.28 58.0827 107.88C58.0827 107.497 58.2141 107.184 58.4769 106.939C58.7397 106.694 59.134 106.571 59.6596 106.571H60.8513V106.249C60.8513 105.956 60.7737 105.741 60.6184 105.604C60.469 105.466 60.2152 105.398 59.8568 105.398C59.6119 105.398 59.4177 105.433 59.2744 105.505C59.131 105.571 58.9936 105.684 58.8622 105.846L58.2708 105.281C58.3784 105.156 58.4859 105.051 58.5934 104.968C58.7069 104.884 58.8264 104.815 58.9518 104.761C59.0832 104.708 59.2236 104.672 59.3729 104.654C59.5282 104.63 59.7015 104.618 59.8926 104.618ZM59.803 107.208C59.2475 107.208 58.9697 107.426 58.9697 107.862C58.9697 108.071 59.0354 108.232 59.1668 108.345C59.3042 108.453 59.5252 108.507 59.8299 108.507C59.9912 108.507 60.1375 108.492 60.2689 108.462C60.4063 108.432 60.5347 108.36 60.6542 108.247C60.7856 108.121 60.8513 107.897 60.8513 107.575V107.208H59.803ZM65.1383 106.894L66.6884 109.215H65.5863L64.6366 107.665L63.6778 109.215H62.5758L64.1348 106.894L62.6385 104.672H63.7406L64.6366 106.15L65.5236 104.672H66.6257L65.1383 106.894ZM75.0764 109.215H74.2342L72.935 104.744L71.6448 109.215H70.8025L69.136 102.835H70.1574L71.2684 107.396L72.5497 102.835H73.3292L74.6105 107.396L75.7216 102.835H76.743L75.0764 109.215ZM78.4821 109.215H77.5682V104.672H78.4821V109.215ZM78.509 103.776H77.5413V102.808H78.509V103.776ZM82.0363 104.618C82.2692 104.618 82.4783 104.654 82.6635 104.726C82.8546 104.797 83.0189 104.899 83.1563 105.03C83.3295 105.204 83.4489 105.398 83.5147 105.613C83.5804 105.822 83.6132 106.055 83.6132 106.312V109.215H82.6993V106.446C82.6993 106.094 82.6097 105.837 82.4305 105.675C82.2573 105.514 82.0422 105.433 81.7854 105.433C81.5285 105.433 81.3075 105.517 81.1223 105.684C80.9372 105.846 80.8446 106.1 80.8446 106.446V109.215H79.9307V104.672H80.8267V105.129C80.982 104.956 81.1641 104.827 81.3732 104.744C81.5883 104.66 81.8093 104.618 82.0363 104.618Z"
    fill="black" />
  <path opacity="0.85"
    d="M176.86 109.215H175.892V104.95L174.423 108.059H173.706L172.201 104.95V109.215H171.233V102.835H172.201L174.065 106.804L175.892 102.835H176.86V109.215ZM179.337 109.215H178.423V104.672H179.337V109.215ZM179.364 103.776H178.396V102.808H179.364V103.776ZM182.891 104.618C183.124 104.618 183.333 104.654 183.518 104.726C183.71 104.797 183.874 104.899 184.011 105.03C184.184 105.204 184.304 105.398 184.37 105.613C184.435 105.822 184.468 106.055 184.468 106.312V109.215H183.554V106.446C183.554 106.094 183.465 105.837 183.285 105.675C183.112 105.514 182.897 105.433 182.64 105.433C182.384 105.433 182.163 105.517 181.977 105.684C181.792 105.846 181.7 106.1 181.7 106.446V109.215H180.786V104.672H181.682V105.129C181.837 104.956 182.019 104.827 182.228 104.744C182.443 104.66 182.664 104.618 182.891 104.618ZM193.344 109.215H192.502L191.202 104.744L189.912 109.215H189.07L187.403 102.835H188.425L189.536 107.396L190.817 102.835H191.597L192.878 107.396L193.989 102.835H195.01L193.344 109.215ZM196.75 109.215H195.836V104.672H196.75V109.215ZM196.776 103.776H195.809V102.808H196.776V103.776ZM200.304 104.618C200.537 104.618 200.746 104.654 200.931 104.726C201.122 104.797 201.286 104.899 201.424 105.03C201.597 105.204 201.716 105.398 201.782 105.613C201.848 105.822 201.881 106.055 201.881 106.312V109.215H200.967V106.446C200.967 106.094 200.877 105.837 200.698 105.675C200.525 105.514 200.31 105.433 200.053 105.433C199.796 105.433 199.575 105.517 199.39 105.684C199.205 105.846 199.112 106.1 199.112 106.446V109.215H198.198V104.672H199.094V105.129C199.249 104.956 199.432 104.827 199.641 104.744C199.856 104.66 200.077 104.618 200.304 104.618Z"
    fill="black" />
</svg>