<svg width="152" height="43" viewBox="0 0 152 43" fill="none" xmlns="http://www.w3.org/2000/svg">
  <path fill-rule="evenodd" clip-rule="evenodd"
    d="M0 9.71426C0 4.41232 4.29807 0.114258 9.6 0.114258H142.4C147.702 0.114258 152 4.41232 152 9.71426V32.9143C152 38.2162 147.702 42.5143 142.4 42.5143H9.6C4.29807 42.5143 0 38.2162 0 32.9143V9.71426Z"
    fill="white" fill-opacity="0.88" />
  <path
    d="M22.624 17.8583H18.664V19.8623H22.048V21.3503H18.664V23.4263H22.624V24.9143H16.996V16.3703H22.624V17.8583ZM27.2856 21.7223L29.4456 24.9143H27.5736L26.4216 23.0423L25.2816 24.9143H23.4096L25.5696 21.7223L23.4936 18.6623H25.3656L26.4216 20.4503L27.4896 18.6623H29.3616L27.2856 21.7223ZM33.5418 18.5903C33.8538 18.5903 34.1378 18.6383 34.3938 18.7343C34.6578 18.8303 34.8818 18.9703 35.0658 19.1543C35.2098 19.3063 35.3258 19.4823 35.4138 19.6823C35.5018 19.8743 35.5658 20.0823 35.6058 20.3063C35.6538 20.5303 35.6818 20.7663 35.6898 21.0143C35.7058 21.2623 35.7138 21.5183 35.7138 21.7823C35.7138 22.0463 35.7058 22.3063 35.6898 22.5623C35.6818 22.8103 35.6538 23.0463 35.6058 23.2703C35.5658 23.4943 35.5018 23.7063 35.4138 23.9063C35.3258 24.0983 35.2098 24.2703 35.0658 24.4223C34.8818 24.6063 34.6618 24.7463 34.4058 24.8423C34.1498 24.9383 33.8658 24.9863 33.5538 24.9863C33.2258 24.9863 32.9418 24.9423 32.7018 24.8543C32.4618 24.7583 32.2378 24.5943 32.0298 24.3623V27.2063H30.4698V18.6623H31.9818V19.2503C32.2058 19.0103 32.4378 18.8423 32.6777 18.7463C32.9178 18.6423 33.2058 18.5903 33.5418 18.5903ZM33.0858 19.9943C32.8538 19.9943 32.6658 20.0423 32.5218 20.1383C32.3858 20.2263 32.2818 20.3503 32.2098 20.5103C32.1378 20.6703 32.0898 20.8623 32.0658 21.0863C32.0418 21.3023 32.0298 21.5343 32.0298 21.7823C32.0298 22.0383 32.0418 22.2783 32.0658 22.5023C32.0898 22.7183 32.1378 22.9063 32.2098 23.0663C32.2818 23.2263 32.3858 23.3543 32.5218 23.4503C32.6658 23.5383 32.8538 23.5823 33.0858 23.5823C33.3258 23.5823 33.5138 23.5383 33.6498 23.4503C33.7938 23.3543 33.9018 23.2263 33.9738 23.0663C34.0458 22.9063 34.0938 22.7183 34.1178 22.5023C34.1418 22.2783 34.1538 22.0383 34.1538 21.7823C34.1538 21.5343 34.1418 21.3023 34.1178 21.0863C34.0938 20.8623 34.0458 20.6703 33.9738 20.5103C33.9018 20.3503 33.7938 20.2263 33.6498 20.1383C33.5138 20.0423 33.3258 19.9943 33.0858 19.9943ZM40.2923 18.5903C40.6043 18.5903 40.8723 18.6343 41.0963 18.7223C41.3283 18.8023 41.5523 18.9543 41.7683 19.1783L40.6043 20.3663C40.4843 20.2463 40.3643 20.1543 40.2443 20.0903C40.1243 20.0263 39.9683 19.9943 39.7763 19.9943C39.6563 19.9943 39.5363 20.0183 39.4163 20.0663C39.2963 20.1063 39.1843 20.1743 39.0803 20.2703C38.9843 20.3663 38.9043 20.4863 38.8403 20.6303C38.7843 20.7743 38.7563 20.9463 38.7563 21.1463V24.9143H37.1963V18.6623H38.7203V19.2623C38.8723 19.0783 39.0883 18.9223 39.3683 18.7943C39.6483 18.6583 39.9563 18.5903 40.2923 18.5903ZM44.2173 24.9143H42.6573V18.8423H44.2173V24.9143ZM44.2293 17.5943H42.6333V16.3223H44.2293V17.5943ZM48.2899 25.9223C48.2259 26.1063 48.1539 26.2623 48.0739 26.3903C47.9939 26.5183 47.9099 26.6303 47.8219 26.7263C47.6379 26.9103 47.4299 27.0343 47.1979 27.0983C46.9739 27.1703 46.7339 27.2063 46.4779 27.2063H45.8659V25.8023H46.2259C46.4499 25.8023 46.6139 25.7623 46.7179 25.6823C46.8299 25.6103 46.9259 25.4623 47.0059 25.2383L47.2699 24.4703L45.1339 18.6623H46.7779L48.0739 22.5263L49.3219 18.6623H50.9659L48.2899 25.9223Z"
    fill="black" />
</svg>