<svg width="16" height="16" viewBox="0 0 16 16" fill="none" xmlns="http://www.w3.org/2000/svg">
<rect width="16" height="16" rx="4" fill="black"/>
<mask id="path-2-inside-1_13914_38580" fill="white">
<path fill-rule="evenodd" clip-rule="evenodd" d="M0.941177 0C0.421379 0 0 0.421379 0 0.941177V15.0588C0 15.5786 0.421379 16 0.941177 16H15.0588C15.5786 16 16 15.5786 16 15.0588V0.941177C16 0.421379 15.5786 0 15.0588 0H0.941177ZM12.7377 4.61312C12.4372 4.31261 11.9605 4.2957 11.6402 4.56241C11.6339 4.56766 11.627 4.57226 11.6197 4.57593C11.61 4.58074 11.6013 4.58706 11.5937 4.59466L7.19173 8.9966C6.79953 9.38881 6.16304 9.38687 5.77323 8.99228L4.41686 7.6193L4.41538 7.61783C4.2094 7.41184 3.90917 7.3314 3.6278 7.40679C3.34642 7.48219 3.12664 7.70197 3.05124 7.98335C2.97585 8.26472 3.05673 8.56539 3.26272 8.77137L5.85999 11.3592C6.03024 11.5298 6.26134 11.6257 6.50236 11.6257C6.74353 11.6257 6.97494 11.5295 7.14522 11.3587L12.7377 5.76623C13.0562 5.44781 13.0562 4.93154 12.7377 4.61312Z"/>
</mask>
<path fill-rule="evenodd" clip-rule="evenodd" d="M0.941177 0C0.421379 0 0 0.421379 0 0.941177V15.0588C0 15.5786 0.421379 16 0.941177 16H15.0588C15.5786 16 16 15.5786 16 15.0588V0.941177C16 0.421379 15.5786 0 15.0588 0H0.941177ZM12.7377 4.61312C12.4372 4.31261 11.9605 4.2957 11.6402 4.56241C11.6339 4.56766 11.627 4.57226 11.6197 4.57593C11.61 4.58074 11.6013 4.58706 11.5937 4.59466L7.19173 8.9966C6.79953 9.38881 6.16304 9.38687 5.77323 8.99228L4.41686 7.6193L4.41538 7.61783C4.2094 7.41184 3.90917 7.3314 3.6278 7.40679C3.34642 7.48219 3.12664 7.70197 3.05124 7.98335C2.97585 8.26472 3.05673 8.56539 3.26272 8.77137L5.85999 11.3592C6.03024 11.5298 6.26134 11.6257 6.50236 11.6257C6.74353 11.6257 6.97494 11.5295 7.14522 11.3587L12.7377 5.76623C13.0562 5.44781 13.0562 4.93154 12.7377 4.61312Z" fill="white"/>
<path d="M12.7377 4.61312L12.0306 5.32023L12.0306 5.32023L12.7377 4.61312ZM4.41686 7.6193L5.12827 6.9165L5.12385 6.91208L4.41686 7.6193ZM4.41538 7.61783L3.70828 8.32493L3.70839 8.32505L4.41538 7.61783ZM3.6278 7.40679L3.88661 8.37272L3.88662 8.37272L3.6278 7.40679ZM3.05124 7.98335L2.08532 7.72453V7.72453L3.05124 7.98335ZM3.26272 8.77137L2.55561 9.47848L2.55689 9.47976L3.26272 8.77137ZM5.85999 11.3592L6.56779 10.6528L6.56582 10.6509L5.85999 11.3592ZM7.14522 11.3587L6.43811 10.6516L6.43707 10.6527L7.14522 11.3587ZM7.19173 8.9966L6.48463 8.2895L7.19173 8.9966ZM5.77323 8.99228L5.06183 9.69507L5.77323 8.99228ZM11.5937 4.59466L12.3008 5.30177L11.5937 4.59466ZM11.6402 4.56241L12.28 5.33091L11.6402 4.56241ZM1 0.941177C1 0.973664 0.973664 1 0.941177 1V-1C-0.130906 -1 -1 -0.130906 -1 0.941177H1ZM1 15.0588V0.941177H-1V15.0588H1ZM0.941177 15C0.973662 15 1 15.0263 1 15.0588H-1C-1 16.1309 -0.130904 17 0.941177 17V15ZM15.0588 15H0.941177V17H15.0588V15ZM15 15.0588C15 15.0263 15.0263 15 15.0588 15V17C16.1309 17 17 16.1309 17 15.0588H15ZM15 0.941177V15.0588H17V0.941177H15ZM15.0588 1C15.0263 1 15 0.973662 15 0.941177H17C17 -0.130904 16.1309 -1 15.0588 -1V1ZM0.941177 1H15.0588V-1H0.941177V1ZM12.28 5.33091C12.2067 5.39199 12.0991 5.38866 12.0306 5.32023L13.4448 3.90601C12.7754 3.23655 11.7143 3.19942 11.0003 3.79391L12.28 5.33091ZM7.89884 9.70371L12.3008 5.30177L10.8866 3.88756L6.48463 8.2895L7.89884 9.70371ZM3.70546 8.32209L5.06183 9.69507L6.48463 8.2895L5.12826 6.91651L3.70546 8.32209ZM3.70839 8.32505L3.70987 8.32652L5.12385 6.91208L5.12238 6.9106L3.70839 8.32505ZM3.88662 8.37272C3.8229 8.38979 3.75492 8.37157 3.70828 8.32493L5.12249 6.91072C4.66388 6.45211 3.99545 6.273 3.36898 6.44087L3.88662 8.37272ZM4.01717 8.24216C4.00009 8.30588 3.95033 8.35565 3.88661 8.37272L3.36898 6.44087C2.74251 6.60873 2.25318 7.09806 2.08532 7.72453L4.01717 8.24216ZM3.96982 8.06427C4.01586 8.11031 4.03446 8.17763 4.01717 8.24216L2.08532 7.72453C1.91723 8.35182 2.0976 9.02047 2.55561 9.47848L3.96982 8.06427ZM6.56582 10.6509L3.96854 8.06298L2.55689 9.47976L5.15417 12.0676L6.56582 10.6509ZM6.50236 10.6257C6.52691 10.6257 6.55045 10.6354 6.56779 10.6528L5.1522 12.0657C5.51003 12.4242 5.99578 12.6257 6.50236 12.6257V10.6257ZM6.43707 10.6527C6.45421 10.6355 6.47751 10.6257 6.50236 10.6257V12.6257C7.00954 12.6257 7.49567 12.4236 7.85336 12.0648L6.43707 10.6527ZM12.0306 5.05912L6.43811 10.6516L7.85232 12.0659L13.4448 6.47333L12.0306 5.05912ZM12.0306 5.32023C11.9585 5.24812 11.9585 5.13122 12.0306 5.05912L13.4448 6.47333C14.1538 5.76439 14.1538 4.61496 13.4448 3.90601L12.0306 5.32023ZM6.48463 8.2895L6.48463 8.2895L5.06183 9.69507C5.84145 10.4842 7.11443 10.4881 7.89884 9.70371L6.48463 8.2895ZM11.1724 3.68151C11.0667 3.73438 10.9702 3.80396 10.8866 3.88756L12.3008 5.30177C12.2324 5.37017 12.1534 5.4271 12.0669 5.47036L11.1724 3.68151ZM11.0003 3.79391C11.0469 3.75514 11.104 3.71573 11.1724 3.68151L12.0669 5.47036C12.15 5.4288 12.2208 5.38018 12.28 5.33091L11.0003 3.79391Z" fill="white" mask="url(#path-2-inside-1_13914_38580)"/>
</svg>