<svg width="16" height="16" viewBox="0 0 16 16" fill="none" xmlns="http://www.w3.org/2000/svg">
<mask id="path-1-inside-1_13914_38613" fill="white">
<path fill-rule="evenodd" clip-rule="evenodd" d="M1 1V15H15V1H1ZM0.941177 0C0.421379 0 0 0.421379 0 0.941177V15.0588C0 15.5786 0.421379 16 0.941177 16H15.0588C15.5786 16 16 15.5786 16 15.0588V0.941177C16 0.421379 15.5786 0 15.0588 0H0.941177Z"/>
</mask>
<path fill-rule="evenodd" clip-rule="evenodd" d="M1 1V15H15V1H1ZM0.941177 0C0.421379 0 0 0.421379 0 0.941177V15.0588C0 15.5786 0.421379 16 0.941177 16H15.0588C15.5786 16 16 15.5786 16 15.0588V0.941177C16 0.421379 15.5786 0 15.0588 0H0.941177Z" fill="white"/>
<path d="M1 15H0V16H1V15ZM1 1V0H0V1H1ZM15 15V16H16V15H15ZM15 1H16V0H15V1ZM2 15V1H0V15H2ZM15 14H1V16H15V14ZM14 1V15H16V1H14ZM1 2H15V0H1V2ZM1 0.941177C1 0.973664 0.973664 1 0.941177 1V-1C-0.130906 -1 -1 -0.130906 -1 0.941177H1ZM1 15.0588V0.941177H-1V15.0588H1ZM0.941177 15C0.973662 15 1 15.0263 1 15.0588H-1C-1 16.1309 -0.130904 17 0.941177 17V15ZM15.0588 15H0.941177V17H15.0588V15ZM15 15.0588C15 15.0263 15.0263 15 15.0588 15V17C16.1309 17 17 16.1309 17 15.0588H15ZM15 0.941177V15.0588H17V0.941177H15ZM15.0588 1C15.0263 1 15 0.973662 15 0.941177H17C17 -0.130904 16.1309 -1 15.0588 -1V1ZM0.941177 1H15.0588V-1H0.941177V1Z" fill="white" mask="url(#path-1-inside-1_13914_38613)"/>
</svg>