<svg xmlns="http://www.w3.org/2000/svg" width="16" height="16" viewBox="0 0 16 16" fill="none">
  <path d="M14.5601 8.02395C14.5601 11.5999 11.6561 14.5039 8.0801 14.5039C4.5041 14.5039 1.6001 11.5999 1.6001 8.02395C1.6001 4.44795 4.5041 1.54395 8.0801 1.54395C11.6561 1.54395 14.5601 4.43995 14.5601 8.02395ZM8.0961 2.51995C5.1521 2.51995 2.5681 5.10395 2.5681 8.03995C2.5681 11.0959 5.0401 13.5679 8.0961 13.5679C11.1521 13.5679 13.6241 11.0959 13.6241 8.03995C13.6241 5.11995 11.0721 2.51995 8.0961 2.51995Z" fill="black"/>
  <path d="M9.68019 5.16806C9.31219 4.79206 8.76819 4.56006 8.16819 4.56006C7.49619 4.56006 6.93619 4.84006 6.53619 5.31206C6.17619 5.72006 5.99219 6.28806 5.99219 6.94406L6.82419 6.95206C6.82419 6.49606 6.95219 6.12806 7.16019 5.86406C7.38419 5.55206 7.69619 5.39206 8.16819 5.39206C8.56019 5.39206 8.87219 5.49606 9.08819 5.72006C9.29619 5.92806 9.40819 6.21606 9.40819 6.59206C9.40819 6.85606 9.31219 7.09606 9.12819 7.33606C9.07219 7.40806 8.97619 7.48806 8.80819 7.67206C8.30419 8.13606 7.99219 8.48006 7.86419 8.76006C7.75219 8.99206 7.68819 9.23206 7.68819 9.58406V9.80006H8.49619V9.58406C8.51219 9.32006 8.54419 9.11206 8.66419 8.90406C8.77619 8.74406 8.91219 8.59206 9.12019 8.41606C9.53619 8.04806 9.77619 7.82406 9.87219 7.71206C10.1442 7.36006 10.2322 7.00006 10.2322 6.57606C10.2322 6.00006 10.0322 5.48806 9.68019 5.16806ZM8.12019 10.4481C7.94419 10.4481 7.80019 10.4961 7.68019 10.6241C7.56019 10.7361 7.50419 10.8801 7.50419 11.0561C7.50419 11.2321 7.55219 11.3761 7.68019 11.4961C7.80019 11.6081 7.94419 11.6721 8.12019 11.6721C8.29619 11.6721 8.44019 11.6081 8.56019 11.4961C8.68019 11.3841 8.74419 11.2401 8.74419 11.0561C8.74419 10.8801 8.68019 10.7361 8.56819 10.6241C8.44019 10.4961 8.28819 10.4481 8.12019 10.4481Z" fill="black"/>
</svg>