<svg width="30" height="30" viewBox="0 0 30 30" fill="none" xmlns="http://www.w3.org/2000/svg">
<path d="M14.9713 0.126953C6.75034 0.126953 0.0859375 6.78017 0.0859375 14.9874C0.0859375 23.1946 6.75034 29.8478 14.9713 29.8478C23.1923 29.8478 29.8566 23.1946 29.8566 14.9874C29.8566 6.7802 23.1923 0.126953 14.9713 0.126953ZM23.1558 11.4254L13.5736 21.2153C13.1328 21.6657 12.4177 21.6657 11.9769 21.2153L6.78672 15.9123C6.34562 15.4619 6.34562 14.7314 6.78672 14.2809C7.2275 13.8303 7.94266 13.8303 8.38341 14.2809L12.7753 18.7679L21.5588 9.79386C21.9999 9.3433 22.7151 9.3433 23.1558 9.79386C23.5969 10.2444 23.5969 10.9749 23.1558 11.4254H23.1558Z" fill="#50D113"/>
</svg>
