<svg xmlns="http://www.w3.org/2000/svg" width="6" height="5" viewBox="0 0 6 5" fill="none">
  <path d="M1.764 0.358154C1.996 0.358154 2.212 0.394154 2.412 0.466154C2.62 0.538154 2.848 0.634154 3.096 0.754154C3.264 0.842154 3.424 0.914154 3.576 0.970154C3.728 1.01815 3.888 1.04215 4.056 1.04215C4.136 1.04215 4.212 1.03815 4.284 1.03015C4.364 1.01415 4.44 0.990154 4.512 0.958154C4.592 0.918154 4.676 0.862154 4.764 0.790154C4.86 0.718154 4.964 0.626154 5.076 0.514154L5.856 1.28215C5.68 1.45815 5.516 1.60615 5.364 1.72615C5.22 1.84615 5.076 1.94215 4.932 2.01415C4.796 2.08615 4.66 2.13815 4.524 2.17015C4.388 2.20215 4.24 2.21815 4.08 2.21815C3.848 2.21815 3.628 2.18215 3.42 2.11015C3.212 2.03815 2.984 1.94215 2.736 1.82215C2.568 1.73415 2.408 1.66615 2.256 1.61815C2.112 1.56215 1.956 1.53415 1.788 1.53415C1.62 1.53415 1.464 1.56615 1.32 1.63015C1.176 1.69415 0.992 1.83815 0.768 2.06215L0 1.29415C0.176 1.11815 0.336 0.970154 0.48 0.850154C0.632 0.730154 0.776 0.634154 0.912 0.562154C1.048 0.490154 1.184 0.438154 1.32 0.406154C1.456 0.374154 1.604 0.358154 1.764 0.358154ZM1.764 2.78215C1.996 2.78215 2.212 2.81815 2.412 2.89015C2.62 2.96215 2.848 3.05815 3.096 3.17815C3.264 3.26615 3.424 3.33815 3.576 3.39415C3.728 3.44215 3.888 3.46615 4.056 3.46615C4.136 3.46615 4.212 3.46215 4.284 3.45415C4.364 3.43815 4.44 3.41415 4.512 3.38215C4.592 3.34215 4.676 3.28615 4.764 3.21415C4.86 3.14215 4.964 3.05015 5.076 2.93815L5.856 3.70615C5.68 3.88215 5.516 4.03015 5.364 4.15015C5.22 4.27015 5.076 4.36615 4.932 4.43815C4.796 4.51015 4.66 4.56215 4.524 4.59415C4.388 4.62615 4.24 4.64215 4.08 4.64215C3.848 4.64215 3.628 4.60615 3.42 4.53415C3.212 4.46215 2.984 4.36615 2.736 4.24615C2.568 4.15815 2.408 4.09015 2.256 4.04215C2.112 3.98615 1.956 3.95815 1.788 3.95815C1.62 3.95815 1.464 3.99015 1.32 4.05415C1.176 4.11815 0.992 4.26215 0.768 4.48615L0 3.71815C0.176 3.54215 0.336 3.39415 0.48 3.27415C0.632 3.15415 0.776 3.05815 0.912 2.98615C1.048 2.91415 1.184 2.86215 1.32 2.83015C1.456 2.79815 1.604 2.78215 1.764 2.78215Z" fill="black" fill-opacity="0.38"/>
</svg>