<svg xmlns="http://www.w3.org/2000/svg" width="12" height="13" viewBox="0 0 12 13" fill="none">
  <g clip-path="url(#clip0_12893_29148)">
    <path d="M6 0.500244C9.31418 0.500244 12 3.18606 12 6.50024C12 9.81442 9.31418 12.5002 6 12.5002C2.68582 12.5002 0 9.81442 0 6.50024C0 3.18606 2.68582 0.500244 6 0.500244ZM2.72727 6.85042V6.8537H9.27273V5.94714H2.72727V6.85042ZM5.95091 5.0406C6.07023 5.04103 6.18847 5.0179 6.29883 4.97253C6.4092 4.92717 6.50952 4.86046 6.59404 4.77624C6.67857 4.69202 6.74564 4.59193 6.7914 4.48173C6.83716 4.37153 6.86072 4.25338 6.86072 4.13406C6.86072 4.01473 6.83716 3.89658 6.7914 3.78638C6.74564 3.67618 6.67857 3.5761 6.59404 3.49188C6.50952 3.40766 6.4092 3.34095 6.29883 3.29558C6.18847 3.25022 6.07023 3.22708 5.95091 3.22751C5.71104 3.22838 5.4813 3.32427 5.31199 3.49418C5.14268 3.6641 5.04762 3.89419 5.04762 4.13406C5.04762 4.37393 5.14268 4.60402 5.31199 4.77393C5.4813 4.94385 5.71104 5.03974 5.95091 5.0406ZM5.95091 7.75698C5.83159 7.75655 5.71335 7.77968 5.60299 7.82504C5.49262 7.87041 5.3923 7.93712 5.30778 8.02134C5.22325 8.10556 5.15618 8.20565 5.11042 8.31585C5.06466 8.42604 5.0411 8.5442 5.0411 8.66352C5.0411 8.78284 5.06466 8.90099 5.11042 9.01119C5.15618 9.12139 5.22325 9.22148 5.30778 9.3057C5.3923 9.38992 5.49262 9.45663 5.60299 9.502C5.71335 9.54736 5.83159 9.57049 5.95091 9.57006C6.19078 9.5692 6.42052 9.47331 6.58983 9.30339C6.75914 9.13348 6.8542 8.90339 6.8542 8.66352C6.8542 8.42365 6.75914 8.19356 6.58983 8.02364C6.42052 7.85373 6.19078 7.75784 5.95091 7.75698Z" fill="#6D6D6D"/>
  </g>
  <defs>
    <clipPath id="clip0_12893_29148">
      <rect width="12" height="12" fill="white" transform="translate(0 0.500244)"/>
    </clipPath>
  </defs>
</svg>