<svg width="33" height="32" viewBox="0 0 33 32" fill="none" xmlns="http://www.w3.org/2000/svg">
<path d="M4.98002 5.43994C5.2284 5.43993 5.46712 5.53619 5.64602 5.7085C5.82491 5.8808 5.93007 6.11574 5.93938 6.36394L5.94002 6.39994V24.6399H28.02C28.2684 24.6399 28.5071 24.7362 28.686 24.9085C28.8649 25.0808 28.9701 25.3157 28.9794 25.5639L28.98 25.5999C28.98 25.8483 28.8838 26.087 28.7115 26.2659C28.5392 26.4448 28.3042 26.55 28.056 26.5593L28.02 26.5599H4.98002C4.73164 26.5599 4.49292 26.4637 4.31402 26.2914C4.13513 26.1191 4.02997 25.8841 4.02066 25.6359L4.02002 25.5999V6.39994C4.02002 6.14533 4.12116 5.90115 4.3012 5.72112C4.48123 5.54108 4.72541 5.43994 4.98002 5.43994Z" fill="#666666"/>
<path d="M10.85 21H17.65C18.075 21 18.415 20.749 18.5 20.3306L21.305 9.20115L23.685 13.8872C23.855 14.1383 24.11 14.3056 24.45 14.3056H26.15C26.66 14.3056 27 13.9709 27 13.4688C27 12.9667 26.66 12.632 26.15 12.632H24.96L21.815 6.43972C21.645 6.105 21.305 5.93764 20.965 6.02132C20.625 6.02132 20.285 6.27236 20.2 6.69076L16.97 19.3264H10.85C10.34 19.3264 10 19.6611 10 20.1632C10 20.6653 10.34 21 10.85 21Z" fill="#666666" stroke="#666666" stroke-width="0.3"/>
<circle cx="21.3329" cy="7.83171" r="1.83162" transform="rotate(180 21.3329 7.83171)" fill="#141414" stroke="#666666" stroke-width="1.5"/>
</svg>
