<svg width="32" height="32" viewBox="0 0 32 32" fill="none" xmlns="http://www.w3.org/2000/svg">
<path d="M4.48002 5.43994C4.7284 5.43993 4.96712 5.53619 5.14602 5.7085C5.32491 5.8808 5.43007 6.11574 5.43938 6.36394L5.44002 6.39994V24.6399H27.52C27.7684 24.6399 28.0071 24.7362 28.186 24.9085C28.3649 25.0808 28.4701 25.3157 28.4794 25.5639L28.48 25.5999C28.48 25.8483 28.3838 26.087 28.2115 26.2659C28.0392 26.4448 27.8042 26.55 27.556 26.5593L27.52 26.5599H4.48002C4.23164 26.5599 3.99292 26.4637 3.81402 26.2914C3.63513 26.1191 3.52997 25.8841 3.52066 25.6359L3.52002 25.5999V6.39994C3.52002 6.14533 3.62116 5.90115 3.8012 5.72112C3.98123 5.54108 4.22541 5.43994 4.48002 5.43994Z" fill="#666666"/>
<path d="M25.65 6H18.85C18.425 6 18.085 6.25104 18 6.66944L15.195 17.7988L12.815 13.1128C12.645 12.8617 12.39 12.6944 12.05 12.6944H10.35C9.84 12.6944 9.5 13.0291 9.5 13.5312C9.5 14.0333 9.84 14.368 10.35 14.368H11.54L14.685 20.5603C14.855 20.895 15.195 21.0624 15.535 20.9787C15.875 20.9787 16.215 20.7276 16.3 20.3092L19.53 7.67359H25.65C26.16 7.67359 26.5 7.33888 26.5 6.8368C26.5 6.33472 26.16 6 25.65 6Z" fill="#666666" stroke="#666666" stroke-width="0.3"/>
<circle cx="15.1671" cy="19.1683" r="1.83162" fill="#3D3D3D" stroke="#666666" stroke-width="1.5"/>
</svg>
