<svg width="33" height="32" viewBox="0 0 33 32" fill="none" xmlns="http://www.w3.org/2000/svg">
<path d="M4.98002 5.43994C5.2284 5.43993 5.46712 5.53619 5.64602 5.7085C5.82491 5.8808 5.93007 6.11574 5.93938 6.36394L5.94002 6.39994V24.6399H28.02C28.2684 24.6399 28.5071 24.7362 28.686 24.9085C28.8649 25.0808 28.9701 25.3157 28.9794 25.5639L28.98 25.5999C28.98 25.8483 28.8838 26.087 28.7115 26.2659C28.5392 26.4448 28.3042 26.55 28.056 26.5593L28.02 26.5599H4.98002C4.73164 26.5599 4.49292 26.4637 4.31402 26.2914C4.13513 26.1191 4.02997 25.8841 4.02066 25.6359L4.02002 25.5999V6.39994C4.02002 6.14533 4.12116 5.90115 4.3012 5.72112C4.48123 5.54108 4.72541 5.43994 4.98002 5.43994Z" fill="#666666"/>
<path d="M25.4215 7.64119C25.599 7.46367 25.8391 7.36278 26.0902 7.36016C26.3412 7.35754 26.5833 7.45338 26.7646 7.62715C26.9458 7.80092 27.0518 8.03878 27.0597 8.28975C27.0677 8.54071 26.977 8.78479 26.8071 8.96967L26.7791 8.99895L17.1791 18.599C17.004 18.774 16.768 18.8746 16.5205 18.8799C16.273 18.8851 16.033 18.7945 15.8507 18.627L15.8215 18.599L12.66 15.4377L5.6589 22.439C5.48382 22.614 5.24789 22.7146 5.00037 22.7199C4.75285 22.7251 4.51288 22.6345 4.33058 22.467L4.3013 22.439C4.12618 22.2639 4.02548 22.0279 4.02024 21.7804C4.01499 21.5328 4.1056 21.2928 4.27314 21.1105L4.3013 21.0812L11.9813 13.4012C12.1564 13.2261 12.3923 13.1255 12.6398 13.1203C12.8874 13.1151 13.1273 13.2057 13.3096 13.3732L13.3389 13.4012L16.5 16.5623L25.4213 7.64119H25.4215Z" fill="#666666"/>
<path d="M26.1 7.36011C26.3484 7.3601 26.5871 7.45636 26.766 7.62866C26.9449 7.80097 27.0501 8.0359 27.0594 8.28411L27.06 8.32011V13.1201C27.0592 13.3711 26.9602 13.6117 26.7841 13.7906C26.608 13.9694 26.3689 14.0722 26.118 14.0769C25.8671 14.0816 25.6243 13.9878 25.4417 13.8157C25.259 13.6436 25.151 13.4069 25.1408 13.1561L25.1398 13.1201V9.28011H21.2998C21.0515 9.28007 20.8128 9.1838 20.634 9.0115C20.4551 8.8392 20.35 8.60429 20.3406 8.35611L20.3398 8.32011C20.3398 8.0717 20.4361 7.83296 20.6085 7.65406C20.7808 7.47516 21.0158 7.37002 21.264 7.36075L21.3 7.36011H26.1Z" fill="#666666"/>
</svg>
