<svg width="32" height="32" viewBox="0 0 32 32" fill="none" xmlns="http://www.w3.org/2000/svg">
<path d="M4.48002 5.43994C4.7284 5.43993 4.96712 5.53619 5.14602 5.7085C5.32491 5.8808 5.43007 6.11574 5.43938 6.36394L5.44002 6.39994V24.6399H27.52C27.7684 24.6399 28.0071 24.7362 28.186 24.9085C28.3649 25.0808 28.4701 25.3157 28.4794 25.5639L28.48 25.5999C28.48 25.8483 28.3838 26.087 28.2115 26.2659C28.0392 26.4448 27.8042 26.55 27.556 26.5593L27.52 26.5599H4.48002C4.23164 26.5599 3.99292 26.4637 3.81402 26.2914C3.63513 26.1191 3.52997 25.8841 3.52066 25.6359L3.52002 25.5999V6.39994C3.52002 6.14533 3.62116 5.90115 3.8012 5.72112C3.98123 5.54108 4.22541 5.43994 4.48002 5.43994Z" fill="#666666"/>
<path d="M24.9215 22.4389C25.099 22.6164 25.3391 22.7173 25.5902 22.7199C25.8412 22.7225 26.0833 22.6267 26.2646 22.4529C26.4458 22.2792 26.5518 22.0413 26.5597 21.7903C26.5677 21.5394 26.477 21.2953 26.3071 21.1104L26.2791 21.0811L16.6791 11.4811C16.504 11.3061 16.268 11.2054 16.0205 11.2002C15.773 11.195 15.533 11.2856 15.3507 11.4531L15.3215 11.4811L12.16 14.6424L5.1589 7.64113C4.98382 7.46608 4.74789 7.36544 4.50037 7.36022C4.25285 7.355 4.01288 7.44561 3.83058 7.61313L3.8013 7.64113C3.62618 7.81619 3.52548 8.05215 3.52024 8.29971C3.51499 8.54727 3.6056 8.78728 3.77314 8.96961L3.8013 8.99889L11.4813 16.6789C11.6564 16.8539 11.8923 16.9546 12.1398 16.9598C12.3874 16.965 12.6273 16.8744 12.8096 16.7069L12.8389 16.6789L16 13.5178L24.9213 22.4389H24.9215Z" fill="#666666"/>
<path d="M25.6 22.72C25.8484 22.72 26.0871 22.6237 26.266 22.4514C26.4449 22.2791 26.5501 22.0442 26.5594 21.796L26.56 21.76V16.96C26.5592 16.709 26.4602 16.4683 26.2841 16.2895C26.108 16.1107 25.8689 16.0079 25.618 16.0032C25.3671 15.9985 25.1243 16.0922 24.9417 16.2643C24.759 16.4364 24.651 16.6732 24.6408 16.924L24.6398 16.96V20.8H20.7998C20.5515 20.8 20.3128 20.8963 20.134 21.0686C19.9551 21.2409 19.85 21.4758 19.8406 21.724L19.8398 21.76C19.8398 22.0084 19.9361 22.2471 20.1085 22.426C20.2808 22.6049 20.5158 22.7101 20.764 22.7193L20.8 22.72H25.6Z" fill="#666666"/>
</svg>
