<svg width="32" height="32" viewBox="0 0 32 32" fill="none" xmlns="http://www.w3.org/2000/svg">
<path d="M4.48002 5.43994C4.7284 5.43993 4.96712 5.53619 5.14602 5.7085C5.32491 5.8808 5.43007 6.11574 5.43938 6.36394L5.44002 6.39994V24.6399H27.52C27.7684 24.6399 28.0071 24.7362 28.186 24.9085C28.3649 25.0808 28.4701 25.3157 28.4794 25.5639L28.48 25.5999C28.48 25.8483 28.3838 26.087 28.2115 26.2659C28.0392 26.4448 27.8042 26.55 27.556 26.5593L27.52 26.5599H4.48002C4.23164 26.5599 3.99292 26.4637 3.81402 26.2914C3.63513 26.1191 3.52997 25.8841 3.52066 25.6359L3.52002 25.5999V6.39994C3.52002 6.14533 3.62116 5.90115 3.8012 5.72112C3.98123 5.54108 4.22541 5.43994 4.48002 5.43994Z" fill="#50D113"/>
<path d="M9.83317 21.5H16.4998C16.9165 21.5 17.2498 21.25 17.3332 20.8333L20.0832 9.75L22.4165 14.4167C22.5832 14.6667 22.8332 14.8333 23.1665 14.8333H24.8332C25.3332 14.8333 25.6665 14.5 25.6665 14C25.6665 13.5 25.3332 13.1667 24.8332 13.1667H23.6665L20.5832 7C20.4165 6.66667 20.0832 6.5 19.7498 6.58333C19.4165 6.58333 19.0832 6.83333 18.9998 7.25L15.8332 19.8333H9.83317C9.33317 19.8333 8.99984 20.1667 8.99984 20.6667C8.99984 21.1667 9.33317 21.5 9.83317 21.5Z" fill="#50D113" stroke="#50D113" stroke-width="0.2"/>
<circle cx="20.333" cy="8" r="2" transform="rotate(180 20.333 8)" fill="#141414" stroke="#50D113" stroke-width="1.5"/>
</svg>
