<svg width="32" height="32" viewBox="0 0 32 32" fill="none" xmlns="http://www.w3.org/2000/svg">
<path d="M4.48002 5.43994C4.7284 5.43993 4.96712 5.53619 5.14602 5.7085C5.32491 5.8808 5.43007 6.11574 5.43938 6.36394L5.44002 6.39994V24.6399H27.52C27.7684 24.6399 28.0071 24.7362 28.186 24.9085C28.3649 25.0808 28.4701 25.3157 28.4794 25.5639L28.48 25.5999C28.48 25.8483 28.3838 26.087 28.2115 26.2659C28.0392 26.4448 27.8042 26.55 27.556 26.5593L27.52 26.5599H4.48002C4.23164 26.5599 3.99292 26.4637 3.81402 26.2914C3.63513 26.1191 3.52997 25.8841 3.52066 25.6359L3.52002 25.5999V6.39994C3.52002 6.14533 3.62116 5.90115 3.8012 5.72112C3.98123 5.54108 4.22541 5.43994 4.48002 5.43994Z" fill="#50D113"/>
<path d="M24.9215 7.64119C25.099 7.46367 25.3391 7.36278 25.5902 7.36016C25.8412 7.35754 26.0833 7.45338 26.2646 7.62715C26.4458 7.80092 26.5518 8.03878 26.5597 8.28975C26.5677 8.54071 26.477 8.78479 26.3071 8.96967L26.2791 8.99895L16.6791 18.599C16.504 18.774 16.268 18.8746 16.0205 18.8799C15.773 18.8851 15.533 18.7945 15.3507 18.627L15.3215 18.599L12.16 15.4377L5.1589 22.439C4.98382 22.614 4.74789 22.7146 4.50037 22.7199C4.25285 22.7251 4.01288 22.6345 3.83058 22.467L3.8013 22.439C3.62618 22.2639 3.52548 22.0279 3.52024 21.7804C3.51499 21.5328 3.6056 21.2928 3.77314 21.1105L3.8013 21.0812L11.4813 13.4012C11.6564 13.2261 11.8923 13.1255 12.1398 13.1203C12.3874 13.1151 12.6273 13.2057 12.8096 13.3732L12.8389 13.4012L16 16.5623L24.9213 7.64119H24.9215Z" fill="#50D113"/>
<path d="M25.6 7.36108C25.8484 7.36107 26.0871 7.45733 26.266 7.62964C26.4449 7.80194 26.5501 8.03688 26.5594 8.28508L26.56 8.32108V13.1211C26.5592 13.372 26.4602 13.6127 26.2841 13.7915C26.108 13.9704 25.8689 14.0731 25.618 14.0779C25.3671 14.0826 25.1243 13.9888 24.9417 13.8167C24.759 13.6446 24.651 13.4078 24.6408 13.1571L24.6398 13.1211V9.28108H20.7998C20.5515 9.28105 20.3128 9.18477 20.134 9.01247C19.9551 8.84017 19.85 8.60526 19.8406 8.35708L19.8398 8.32108C19.8398 8.07268 19.9361 7.83394 20.1085 7.65503C20.2808 7.47613 20.5158 7.371 20.764 7.36172L20.8 7.36108H25.6Z" fill="#50D113"/>
</svg>
