<svg width="32" height="32" viewBox="0 0 32 32" fill="none" xmlns="http://www.w3.org/2000/svg">
<path d="M4.48002 5.43994C4.7284 5.43993 4.96712 5.53619 5.14602 5.7085C5.32491 5.8808 5.43007 6.11574 5.43938 6.36394L5.44002 6.39994V24.6399H27.52C27.7684 24.6399 28.0071 24.7362 28.186 24.9085C28.3649 25.0808 28.4701 25.3157 28.4794 25.5639L28.48 25.5999C28.48 25.8483 28.3838 26.087 28.2115 26.2659C28.0392 26.4448 27.8042 26.55 27.556 26.5593L27.52 26.5599H4.48002C4.23164 26.5599 3.99292 26.4637 3.81402 26.2914C3.63513 26.1191 3.52997 25.8841 3.52066 25.6359L3.52002 25.5999V6.39994C3.52002 6.14533 3.62116 5.90115 3.8012 5.72112C3.98123 5.54108 4.22541 5.43994 4.48002 5.43994Z" fill="#50D113"/>
<path d="M24.8333 6H18.1667C17.75 6 17.4167 6.25 17.3333 6.66667L14.5833 17.75L12.25 13.0833C12.0833 12.8333 11.8333 12.6667 11.5 12.6667H9.83333C9.33333 12.6667 9 13 9 13.5C9 14 9.33333 14.3333 9.83333 14.3333H11L14.0833 20.5C14.25 20.8333 14.5833 21 14.9167 20.9167C15.25 20.9167 15.5833 20.6667 15.6667 20.25L18.8333 7.66667H24.8333C25.3333 7.66667 25.6667 7.33333 25.6667 6.83333C25.6667 6.33333 25.3333 6 24.8333 6Z" fill="#50D113" stroke="#50D113" stroke-width="0.2"/>
<circle cx="14.3335" cy="19.5" r="2" fill="#3D3D3D" stroke="#50D113" stroke-width="1.5"/>
</svg>
