<svg width="16" height="16" viewBox="0 0 16 16" fill="none" xmlns="http://www.w3.org/2000/svg">
<path fill-rule="evenodd" clip-rule="evenodd" d="M14.1109 1.2H1.88873C1.82122 1.2 1.7665 1.2597 1.7665 1.33333V14.6667C1.7665 14.7403 1.82122 14.8 1.88873 14.8H14.1109C14.1785 14.8 14.2332 14.7403 14.2332 14.6667V1.33333C14.2332 1.2597 14.1784 1.2 14.1109 1.2ZM1.88873 0C1.21371 0 0.666504 0.596953 0.666504 1.33333V14.6667C0.666504 15.403 1.21371 16 1.88873 16H14.1109C14.786 16 15.3332 15.403 15.3332 14.6667V1.33333C15.3332 0.596954 14.786 0 14.1109 0H1.88873Z" fill="black" fill-opacity="0.45"/>
<path d="M3.3335 4.6C3.3335 4.26863 3.60213 4 3.9335 4H12.0668C12.3982 4 12.6668 4.26863 12.6668 4.6V4.6C12.6668 4.93137 12.3982 5.2 12.0668 5.2H3.9335C3.60213 5.2 3.3335 4.93137 3.3335 4.6V4.6Z" fill="black" fill-opacity="0.45"/>
<path d="M3.3335 7.93398C3.3335 7.60261 3.60213 7.33398 3.9335 7.33398H8.06683C8.3982 7.33398 8.66683 7.60261 8.66683 7.93398V7.93398C8.66683 8.26536 8.3982 8.53398 8.06683 8.53398H3.9335C3.60213 8.53398 3.3335 8.26536 3.3335 7.93398V7.93398Z" fill="black" fill-opacity="0.45"/>
<path fill-rule="evenodd" clip-rule="evenodd" d="M3.3335 11.266C3.3335 10.9346 3.60213 10.666 3.9335 10.666L10.0668 10.666C10.3982 10.666 10.6668 10.9346 10.6668 11.266V11.266C10.6668 11.5974 10.3982 11.866 10.0668 11.866H3.9335C3.60213 11.866 3.3335 11.5974 3.3335 11.266V11.266Z" fill="black" fill-opacity="0.45"/>
</svg>
