<svg width="163" height="42" viewBox="0 0 163 42" fill="none" xmlns="http://www.w3.org/2000/svg">
<path d="M67.4335 4.21378C67.4846 3.38281 67.2588 2.71591 66.7559 2.21307C66.2574 1.70597 65.5372 1.45241 64.5954 1.45241C63.9562 1.45241 63.3703 1.5696 62.8376 1.80398C62.305 2.03835 61.8618 2.36009 61.5081 2.76918C61.1586 3.17401 60.9392 3.63636 60.8497 4.15625C60.7943 4.4929 60.8092 4.79758 60.8944 5.07031C60.9839 5.33878 61.1309 5.57741 61.3355 5.78622C61.54 5.99503 61.7936 6.1804 62.0961 6.34233C62.3987 6.5 62.7375 6.63849 63.1125 6.75781L64.474 7.17969C64.9385 7.32884 65.3625 7.50142 65.746 7.69744C66.1338 7.89347 66.4598 8.12784 66.724 8.40057C66.9882 8.66903 67.1757 8.98437 67.2865 9.34659C67.4015 9.70881 67.4186 10.1264 67.3376 10.5994C67.2226 11.3026 66.9456 11.9268 66.5067 12.4723C66.0677 13.0178 65.4988 13.4439 64.8 13.7507C64.1011 14.0575 63.2957 14.2109 62.3838 14.2109C61.5443 14.2109 60.8327 14.0682 60.2488 13.7827C59.6693 13.4972 59.241 13.1009 58.964 12.5938C58.6871 12.0824 58.5805 11.4943 58.6444 10.8295H59.4626C59.4157 11.3707 59.5116 11.8395 59.7503 12.2358C59.9889 12.6278 60.3447 12.9304 60.8177 13.1435C61.295 13.3565 61.8596 13.4631 62.5116 13.4631C63.219 13.4631 63.8582 13.3416 64.4292 13.0987C65.0045 12.8558 65.4775 12.5192 65.8483 12.0888C66.2233 11.6584 66.4577 11.1598 66.5514 10.593C66.6281 10.1328 66.5855 9.73651 66.4236 9.40412C66.2616 9.07173 65.9868 8.78622 65.599 8.54759C65.2155 8.30469 64.7275 8.09162 64.1352 7.90838L62.665 7.44815C61.6934 7.13707 60.9839 6.7152 60.5365 6.18253C60.089 5.6456 59.9292 4.97869 60.0571 4.18182C60.1764 3.49574 60.4555 2.89276 60.8944 2.37287C61.3334 1.85298 61.8852 1.44602 62.55 1.15199C63.2148 0.857954 63.9392 0.710938 64.7233 0.710938C65.5031 0.710938 66.1657 0.862216 66.7112 1.16477C67.2609 1.46307 67.6657 1.87642 67.9257 2.40483C68.1899 2.93324 68.2858 3.53622 68.2133 4.21378H67.4335ZM74.7588 4.18182L74.6373 4.87855H70.3547L70.4697 4.18182H74.7588ZM72.3042 1.82955H73.0777L71.4541 11.6797C71.3859 12.0803 71.4072 12.4084 71.518 12.6641C71.6331 12.9155 71.8057 13.103 72.0358 13.2266C72.2702 13.3459 72.5365 13.4055 72.8348 13.4055C72.9669 13.4055 73.0862 13.3949 73.1927 13.3736C73.2993 13.348 73.4058 13.3203 73.5123 13.2905L73.5827 14C73.4506 14.0469 73.3099 14.0852 73.1608 14.1151C73.0116 14.1449 72.839 14.1598 72.643 14.1598C72.2339 14.1598 71.8632 14.0682 71.5308 13.8849C71.2027 13.7017 70.9534 13.4354 70.7829 13.0859C70.6167 12.7365 70.5763 12.3146 70.6615 11.8203L72.3042 1.82955ZM79.7126 14.2045C78.8263 14.2045 78.0912 13.9851 77.5074 13.5462C76.9236 13.1072 76.5166 12.5064 76.2865 11.7436C76.0564 10.9808 76.0223 10.1115 76.1842 9.13565C76.3461 8.15554 76.67 7.28196 77.1558 6.51491C77.6416 5.74787 78.2361 5.14276 78.9392 4.69957C79.6423 4.25639 80.4008 4.0348 81.2148 4.0348C81.7645 4.0348 82.2652 4.1456 82.7169 4.36719C83.1729 4.58878 83.5564 4.90625 83.8675 5.3196C84.1785 5.72869 84.3937 6.22514 84.5131 6.80895C84.6324 7.39276 84.6324 8.04901 84.5131 8.7777L84.4236 9.26349H76.6508L76.7723 8.55398H83.7588C83.8781 7.84659 83.844 7.20739 83.6565 6.63636C83.469 6.06108 83.1579 5.60511 82.7233 5.26847C82.2929 4.93182 81.7645 4.76349 81.1381 4.76349C80.4988 4.76349 79.8895 4.94886 79.3099 5.3196C78.7346 5.68608 78.2403 6.17614 77.827 6.78977C77.4179 7.40341 77.1452 8.07883 77.0088 8.81605L76.9321 9.21236C76.7957 10.0561 76.8128 10.7997 76.9832 11.4432C77.1579 12.0824 77.4818 12.5831 77.9548 12.9453C78.4278 13.3033 79.0457 13.4822 79.8085 13.4822C80.3412 13.4822 80.8142 13.3928 81.2275 13.2138C81.6452 13.0305 81.9988 12.8089 82.2886 12.549C82.5827 12.2891 82.8128 12.0376 82.979 11.7947L83.6246 12.0824C83.4285 12.4105 83.1473 12.7386 82.7808 13.0668C82.4143 13.3906 81.9733 13.6612 81.4577 13.8786C80.942 14.0959 80.3604 14.2045 79.7126 14.2045ZM85.7323 17.6818L87.9823 4.18182H88.743L88.385 6.37429H88.4809C88.7025 5.95241 88.9795 5.56463 89.3119 5.21094C89.6485 4.85724 90.0427 4.57386 90.4944 4.3608C90.9504 4.14347 91.4596 4.0348 92.0221 4.0348C92.8147 4.0348 93.4688 4.25213 93.9845 4.68679C94.5001 5.12145 94.8559 5.72017 95.0519 6.48295C95.248 7.24574 95.265 8.12358 95.1031 9.11648C94.9369 10.1051 94.6258 10.983 94.1698 11.75C93.7181 12.5128 93.1642 13.1136 92.5079 13.5526C91.8517 13.9872 91.1315 14.2045 90.3474 14.2045C89.7892 14.2045 89.3161 14.098 88.9284 13.8849C88.5448 13.6719 88.2423 13.3885 88.0207 13.0348C87.7991 12.6768 87.6457 12.2848 87.5605 11.8587H87.4838L86.5122 17.6818H85.7323ZM87.9312 9.11009C87.7948 9.94531 87.7948 10.6932 87.9312 11.3537C88.0718 12.0099 88.3445 12.5298 88.7494 12.9134C89.1585 13.2926 89.6933 13.4822 90.3538 13.4822C91.0228 13.4822 91.6301 13.2905 92.1755 12.907C92.7252 12.5192 93.1855 11.995 93.5562 11.3345C93.9312 10.674 94.1869 9.93253 94.3232 9.11009C94.4596 8.28764 94.4596 7.5483 94.3232 6.89205C94.1869 6.2358 93.9163 5.71804 93.5115 5.33878C93.1066 4.95526 92.5654 4.76349 91.8879 4.76349C91.2231 4.76349 90.6159 4.95312 90.0661 5.33239C89.5164 5.70739 89.0562 6.22301 88.6855 6.87926C88.319 7.53125 88.0676 8.27486 87.9312 9.11009ZM107.623 0.909091L105.45 14H104.651L106.677 1.75284H106.601L103.334 3.70241L103.481 2.84588L106.722 0.909091H107.623ZM0.835938 38V27.8182H5.25071C6.02628 27.8182 6.67756 27.9226 7.20455 28.1314C7.73485 28.3402 8.13423 28.6352 8.4027 29.0163C8.67448 29.3975 8.81037 29.8466 8.81037 30.3636C8.81037 30.7382 8.72751 31.0795 8.56179 31.3878C8.39938 31.696 8.17069 31.9545 7.87571 32.1634C7.58073 32.3688 7.23603 32.5114 6.84162 32.5909V32.6903C7.27912 32.7069 7.67685 32.8179 8.0348 33.0234C8.39276 33.2256 8.67779 33.5057 8.88992 33.8636C9.10204 34.2183 9.2081 34.6359 9.2081 35.1165C9.2081 35.6733 9.06226 36.1688 8.7706 36.603C8.48224 37.0372 8.07126 37.3786 7.53764 37.6271C7.00402 37.8757 6.36766 38 5.62855 38H0.835938ZM3.60014 35.7926H4.89276C5.35677 35.7926 5.70478 35.7064 5.93679 35.5341C6.1688 35.3584 6.2848 35.0999 6.2848 34.7585C6.2848 34.5199 6.23011 34.3177 6.12074 34.152C6.01136 33.9863 5.85559 33.8603 5.65341 33.7741C5.45455 33.688 5.21425 33.6449 4.93253 33.6449H3.60014V35.7926ZM3.60014 31.9347H4.73366C4.97562 31.9347 5.18939 31.8965 5.375 31.8203C5.56061 31.7441 5.70478 31.6347 5.80753 31.4922C5.91359 31.3464 5.96662 31.169 5.96662 30.9602C5.96662 30.6454 5.85393 30.4051 5.62855 30.2393C5.40317 30.0703 5.11813 29.9858 4.77344 29.9858H3.60014V31.9347ZM15.179 34.6591V30.3636H17.9233V38H15.3182V36.5483H15.2386C15.0729 37.0355 14.7829 37.4167 14.3686 37.6918C13.9543 37.9635 13.4621 38.0994 12.892 38.0994C12.3584 38.0994 11.8911 37.9768 11.4901 37.7315C11.0923 37.4863 10.7824 37.1482 10.5604 36.7173C10.3416 36.2865 10.2306 35.7926 10.2273 35.2358V30.3636H12.9716V34.6591C12.9749 35.0369 13.071 35.3336 13.2599 35.549C13.4522 35.7644 13.7206 35.8722 14.0653 35.8722C14.294 35.8722 14.4912 35.8241 14.657 35.728C14.826 35.6286 14.9553 35.4893 15.0447 35.3104C15.1375 35.1281 15.1823 34.911 15.179 34.6591ZM20.9895 40.8636C20.6747 40.8636 20.3747 40.8388 20.0897 40.7891C19.8046 40.7427 19.5544 40.678 19.339 40.5952L19.9355 38.6463C20.1609 38.7259 20.3664 38.7772 20.552 38.8004C20.7409 38.8236 20.9017 38.8104 21.0343 38.7607C21.1702 38.7109 21.2679 38.6165 21.3276 38.4773L21.3873 38.3381L18.7026 30.3636H21.5662L22.7992 35.6534H22.8787L24.1316 30.3636H27.0151L24.231 38.6364C24.0918 39.0573 23.8896 39.4351 23.6245 39.7699C23.3626 40.108 23.0179 40.3748 22.5904 40.5703C22.1628 40.7659 21.6292 40.8636 20.9895 40.8636ZM30.5449 38V27.8182H33.3091V35.7727H37.4256V38H30.5449ZM42.2617 38.1392C41.4331 38.1392 40.7238 37.9751 40.1339 37.647C39.5439 37.3156 39.0915 36.8549 38.7766 36.2649C38.4618 35.6716 38.3043 34.9839 38.3043 34.2017C38.3043 33.4195 38.4618 32.7334 38.7766 32.1435C39.0915 31.5502 39.5439 31.0895 40.1339 30.7614C40.7238 30.4299 41.4331 30.2642 42.2617 30.2642C43.0903 30.2642 43.7996 30.4299 44.3896 30.7614C44.9795 31.0895 45.4319 31.5502 45.7468 32.1435C46.0617 32.7334 46.2191 33.4195 46.2191 34.2017C46.2191 34.9839 46.0617 35.6716 45.7468 36.2649C45.4319 36.8549 44.9795 37.3156 44.3896 37.647C43.7996 37.9751 43.0903 38.1392 42.2617 38.1392ZM42.2816 36.1108C42.5136 36.1108 42.7141 36.0329 42.8832 35.8771C43.0522 35.7214 43.1831 35.4993 43.2759 35.2109C43.3687 34.9226 43.4151 34.5795 43.4151 34.1818C43.4151 33.7808 43.3687 33.4377 43.2759 33.1527C43.1831 32.8643 43.0522 32.6423 42.8832 32.4865C42.7141 32.3307 42.5136 32.2528 42.2816 32.2528C42.0363 32.2528 41.8259 32.3307 41.6502 32.4865C41.4746 32.6423 41.3403 32.8643 41.2475 33.1527C41.1547 33.4377 41.1083 33.7808 41.1083 34.1818C41.1083 34.5795 41.1547 34.9226 41.2475 35.2109C41.3403 35.4993 41.4746 35.7214 41.6502 35.8771C41.8259 36.0329 42.0363 36.1108 42.2816 36.1108ZM48.5483 38L46.6392 30.3636H49.3835L50.2585 35.017H50.3182L51.2926 30.3636H53.9574L54.9716 34.9773H55.0312L55.8665 30.3636H58.6108L56.7017 38H53.7386L52.6648 33.9034H52.5852L51.5114 38H48.5483ZM61.4545 34.8182V34.5795C61.4545 34.0327 61.4976 33.5968 61.5838 33.272C61.67 32.9472 61.7976 32.687 61.9666 32.4915C62.1357 32.2926 62.3428 32.1136 62.5881 31.9545C62.8002 31.8153 62.9891 31.6811 63.1548 31.5518C63.3239 31.4226 63.4564 31.285 63.5526 31.1392C63.652 30.9934 63.7017 30.8277 63.7017 30.642C63.7017 30.4763 63.6619 30.3305 63.5824 30.2045C63.5028 30.0786 63.3951 29.9808 63.2592 29.9112C63.1233 29.8416 62.9725 29.8068 62.8068 29.8068C62.6278 29.8068 62.4621 29.8482 62.3097 29.9311C62.1605 30.014 62.0395 30.1283 61.9467 30.2741C61.8572 30.42 61.8125 30.589 61.8125 30.7812H59.267C59.2737 30.0521 59.4394 29.4605 59.7642 29.0064C60.089 28.549 60.5199 28.2143 61.0568 28.0021C61.5938 27.7867 62.1837 27.679 62.8267 27.679C63.536 27.679 64.169 27.7834 64.7259 27.9922C65.2827 28.1977 65.7218 28.5092 66.0433 28.9268C66.3648 29.3411 66.5256 29.8598 66.5256 30.483C66.5256 30.884 66.456 31.237 66.3168 31.5419C66.1809 31.8435 65.9903 32.1103 65.745 32.3423C65.5031 32.571 65.2197 32.7798 64.8949 32.9688C64.6563 33.108 64.4557 33.2521 64.2933 33.4013C64.1309 33.5471 64.0083 33.7145 63.9254 33.9034C63.8426 34.089 63.8011 34.3144 63.8011 34.5795V34.8182H61.4545ZM62.6676 38.1591C62.2831 38.1591 61.9534 38.0249 61.6783 37.7564C61.4065 37.4846 61.2723 37.1548 61.2756 36.767C61.2723 36.3892 61.4065 36.0661 61.6783 35.7976C61.9534 35.5291 62.2831 35.3949 62.6676 35.3949C63.0322 35.3949 63.3537 35.5291 63.6321 35.7976C63.9138 36.0661 64.0563 36.3892 64.0597 36.767C64.0563 37.0256 63.9884 37.2609 63.8558 37.473C63.7266 37.6818 63.5575 37.8492 63.3487 37.9751C63.1399 38.0978 62.9129 38.1591 62.6676 38.1591ZM83.2425 32.9091C83.2425 34.0426 83.0221 34.9988 82.5813 35.7777C82.1405 36.5533 81.5456 37.1416 80.7965 37.5426C80.0475 37.9403 79.2122 38.1392 78.2908 38.1392C77.3628 38.1392 76.5243 37.9387 75.7752 37.5376C75.0295 37.1333 74.4362 36.5433 73.9954 35.7678C73.5579 34.9889 73.3391 34.036 73.3391 32.9091C73.3391 31.7756 73.5579 30.821 73.9954 30.0455C74.4362 29.2666 75.0295 28.6783 75.7752 28.2805C76.5243 27.8795 77.3628 27.679 78.2908 27.679C79.2122 27.679 80.0475 27.8795 80.7965 28.2805C81.5456 28.6783 82.1405 29.2666 82.5813 30.0455C83.0221 30.821 83.2425 31.7756 83.2425 32.9091ZM80.3988 32.9091C80.3988 32.2992 80.3176 31.7855 80.1552 31.3679C79.9961 30.947 79.7591 30.6288 79.4442 30.4134C79.1327 30.1946 78.7482 30.0852 78.2908 30.0852C77.8335 30.0852 77.4473 30.1946 77.1325 30.4134C76.8209 30.6288 76.5839 30.947 76.4215 31.3679C76.2624 31.7855 76.1829 32.2992 76.1829 32.9091C76.1829 33.5189 76.2624 34.0343 76.4215 34.4553C76.5839 34.8729 76.8209 35.1911 77.1325 35.4098C77.4473 35.6252 77.8335 35.733 78.2908 35.733C78.7482 35.733 79.1327 35.6252 79.4442 35.4098C79.7591 35.1911 79.9961 34.8729 80.1552 34.4553C80.3176 34.0343 80.3988 33.5189 80.3988 32.9091ZM84.5613 38V30.3636H87.226V31.8153H87.3056C87.4448 31.2784 87.6652 30.8857 87.9668 30.6371C88.2717 30.3885 88.628 30.2642 89.0357 30.2642C89.155 30.2642 89.2727 30.2741 89.3887 30.294C89.508 30.3106 89.6223 30.3355 89.7317 30.3686V32.7102C89.5958 32.6638 89.4284 32.629 89.2296 32.6058C89.0307 32.5826 88.86 32.571 88.7175 32.571C88.449 32.571 88.2071 32.6323 87.9917 32.755C87.7795 32.8743 87.6122 33.0433 87.4895 33.2621C87.3669 33.4775 87.3056 33.7311 87.3056 34.0227V38H84.5613ZM98.8695 31C98.843 30.6686 98.7187 30.41 98.4966 30.2244C98.2779 30.0388 97.9448 29.946 97.4973 29.946C97.2123 29.946 96.9786 29.9808 96.7963 30.0504C96.6174 30.1167 96.4848 30.2079 96.3986 30.3239C96.3124 30.4399 96.2677 30.5724 96.2644 30.7216C96.2578 30.8442 96.2793 30.9553 96.329 31.0547C96.382 31.1508 96.4649 31.2386 96.5776 31.3182C96.6903 31.3944 96.8345 31.464 97.0101 31.527C97.1858 31.59 97.3946 31.6463 97.6365 31.696L98.4718 31.875C99.0352 31.9943 99.5175 32.1518 99.9185 32.3473C100.32 32.5429 100.648 32.7732 100.903 33.0384C101.158 33.3002 101.345 33.5952 101.465 33.9233C101.587 34.2514 101.65 34.6094 101.654 34.9972C101.65 35.6667 101.483 36.2334 101.151 36.6974C100.82 37.1615 100.346 37.5144 99.7296 37.7564C99.1164 37.9983 98.379 38.1193 97.5172 38.1193C96.6323 38.1193 95.86 37.9884 95.2005 37.7266C94.5442 37.4647 94.0338 37.062 93.6692 36.5185C93.3079 35.9716 93.1257 35.2723 93.1223 34.4205H95.7473C95.7639 34.732 95.8418 34.9938 95.981 35.206C96.1202 35.4181 96.3158 35.5788 96.5676 35.6882C96.8229 35.7976 97.1261 35.8523 97.4775 35.8523C97.7724 35.8523 98.0194 35.8158 98.2182 35.7429C98.4171 35.67 98.5679 35.5689 98.6706 35.4396C98.7734 35.3104 98.8264 35.1629 98.8297 34.9972C98.8264 34.8414 98.775 34.7055 98.6756 34.5895C98.5795 34.4702 98.4204 34.3641 98.1983 34.2713C97.9763 34.1752 97.6763 34.0857 97.2985 34.0028L96.2843 33.7841C95.3828 33.5885 94.6718 33.2621 94.1515 32.8047C93.6344 32.344 93.3775 31.7159 93.3809 30.9205C93.3775 30.2741 93.5499 29.709 93.8979 29.2251C94.2492 28.7379 94.7348 28.3584 95.3546 28.0866C95.9777 27.8149 96.6919 27.679 97.4973 27.679C98.3193 27.679 99.0302 27.8165 99.6301 28.0916C100.23 28.3667 100.692 28.7545 101.017 29.255C101.345 29.7521 101.511 30.3338 101.514 31H98.8695ZM106.404 38.1392C105.589 38.1392 104.886 37.9834 104.296 37.6719C103.709 37.357 103.257 36.9062 102.939 36.3196C102.624 35.7296 102.466 35.0237 102.466 34.2017C102.466 33.4129 102.626 32.7235 102.944 32.1335C103.262 31.5436 103.711 31.0845 104.291 30.7564C104.871 30.4283 105.555 30.2642 106.344 30.2642C106.921 30.2642 107.443 30.3537 107.91 30.5327C108.378 30.7116 108.777 30.9718 109.108 31.3132C109.44 31.6513 109.695 32.0623 109.874 32.5462C110.053 33.0301 110.143 33.5753 110.143 34.1818V34.8182H103.322V33.3068H107.617C107.614 33.0881 107.557 32.8958 107.448 32.7301C107.342 32.5611 107.198 32.4302 107.015 32.3374C106.836 32.2412 106.633 32.1932 106.404 32.1932C106.182 32.1932 105.978 32.2412 105.792 32.3374C105.607 32.4302 105.458 32.5594 105.345 32.7251C105.236 32.8909 105.178 33.0848 105.171 33.3068V34.9375C105.171 35.1828 105.222 35.4015 105.325 35.5938C105.428 35.786 105.575 35.9368 105.768 36.0462C105.96 36.1555 106.192 36.2102 106.464 36.2102C106.653 36.2102 106.825 36.1837 106.981 36.1307C107.14 36.0777 107.276 36.0014 107.388 35.902C107.501 35.7992 107.584 35.6766 107.637 35.5341H110.143C110.056 36.0644 109.853 36.5251 109.531 36.9162C109.21 37.304 108.784 37.6056 108.253 37.821C107.726 38.0331 107.11 38.1392 106.404 38.1392ZM114.007 27.8182V38H111.262V27.8182H114.007ZM118.149 27.8182V38H115.405V27.8182H118.149ZM122.297 38V27.8182H125.061V31.7955H128.72V27.8182H131.484V38H128.72V34.0227H125.061V38H122.297ZM132.837 38V30.3636H135.581V38H132.837ZM134.209 29.5682C133.838 29.5682 133.519 29.4455 133.254 29.2003C132.989 28.955 132.857 28.66 132.857 28.3153C132.857 27.9706 132.989 27.6757 133.254 27.4304C133.519 27.1851 133.838 27.0625 134.209 27.0625C134.583 27.0625 134.902 27.1851 135.163 27.4304C135.429 27.6757 135.561 27.9706 135.561 28.3153C135.561 28.66 135.429 28.955 135.163 29.2003C134.902 29.4455 134.583 29.5682 134.209 29.5682ZM140.658 41.0227C139.893 41.0227 139.236 40.9134 138.689 40.6946C138.146 40.4792 137.723 40.1809 137.422 39.7997C137.123 39.4219 136.956 38.9877 136.92 38.4972H139.564C139.591 38.6596 139.657 38.7905 139.763 38.8899C139.869 38.9893 140.005 39.0606 140.171 39.1037C140.34 39.1501 140.529 39.1733 140.738 39.1733C141.092 39.1733 141.386 39.0871 141.618 38.9148C141.853 38.7424 141.971 38.4309 141.971 37.9801V36.6875H141.891C141.792 36.946 141.639 37.1664 141.434 37.3487C141.228 37.5277 140.981 37.6652 140.693 37.7614C140.405 37.8542 140.088 37.9006 139.743 37.9006C139.2 37.9006 138.699 37.7746 138.242 37.5227C137.788 37.2708 137.423 36.8714 137.148 36.3246C136.876 35.7777 136.741 35.0634 136.741 34.1818C136.741 33.2604 136.883 32.5114 137.168 31.9347C137.456 31.358 137.828 30.9354 138.282 30.6669C138.739 30.3984 139.22 30.2642 139.724 30.2642C140.101 30.2642 140.433 30.3305 140.718 30.4631C141.003 30.5923 141.242 30.7663 141.434 30.9851C141.626 31.2005 141.772 31.4375 141.871 31.696H141.931V30.3636H144.675V37.9801C144.675 38.6264 144.508 39.175 144.173 39.6257C143.842 40.0798 143.374 40.4261 142.771 40.6648C142.168 40.9034 141.464 41.0227 140.658 41.0227ZM140.758 35.9517C141.01 35.9517 141.225 35.8821 141.404 35.7429C141.586 35.6004 141.725 35.3982 141.822 35.1364C141.921 34.8712 141.971 34.553 141.971 34.1818C141.971 33.804 141.921 33.4808 141.822 33.2124C141.725 32.9406 141.586 32.7334 141.404 32.5909C141.225 32.4451 141.01 32.3722 140.758 32.3722C140.506 32.3722 140.29 32.4451 140.111 32.5909C139.936 32.7334 139.8 32.9406 139.704 33.2124C139.611 33.4808 139.564 33.804 139.564 34.1818C139.564 34.5597 139.611 34.8812 139.704 35.1463C139.8 35.4081 139.936 35.6087 140.111 35.7479C140.29 35.8838 140.506 35.9517 140.758 35.9517ZM148.815 33.7045V38H146.071V27.8182H148.716V31.8153H148.795C148.968 31.3281 149.254 30.9486 149.656 30.6768C150.057 30.4018 150.539 30.2642 151.102 30.2642C151.643 30.2642 152.112 30.3868 152.509 30.6321C152.91 30.8774 153.22 31.2154 153.439 31.6463C153.661 32.0772 153.77 32.571 153.767 33.1278V38H151.023V33.7045C151.026 33.3267 150.932 33.0301 150.739 32.8146C150.55 32.5992 150.28 32.4915 149.929 32.4915C149.707 32.4915 149.511 32.5412 149.342 32.6406C149.177 32.7367 149.047 32.8759 148.955 33.0582C148.865 33.2372 148.819 33.4527 148.815 33.7045ZM157.13 34.8182V34.5795C157.13 34.0327 157.173 33.5968 157.26 33.272C157.346 32.9472 157.473 32.687 157.642 32.4915C157.811 32.2926 158.019 32.1136 158.264 31.9545C158.476 31.8153 158.665 31.6811 158.831 31.5518C159 31.4226 159.132 31.285 159.228 31.1392C159.328 30.9934 159.377 30.8277 159.377 30.642C159.377 30.4763 159.338 30.3305 159.258 30.2045C159.179 30.0786 159.071 29.9808 158.935 29.9112C158.799 29.8416 158.648 29.8068 158.483 29.8068C158.304 29.8068 158.138 29.8482 157.985 29.9311C157.836 30.014 157.715 30.1283 157.623 30.2741C157.533 30.42 157.488 30.589 157.488 30.7812H154.943C154.949 30.0521 155.115 29.4605 155.44 29.0064C155.765 28.549 156.196 28.2143 156.733 28.0021C157.27 27.7867 157.859 27.679 158.502 27.679C159.212 27.679 159.845 27.7834 160.402 27.9922C160.958 28.1977 161.398 28.5092 161.719 28.9268C162.041 29.3411 162.201 29.8598 162.201 30.483C162.201 30.884 162.132 31.237 161.993 31.5419C161.857 31.8435 161.666 32.1103 161.421 32.3423C161.179 32.571 160.895 32.7798 160.571 32.9688C160.332 33.108 160.132 33.2521 159.969 33.4013C159.807 33.5471 159.684 33.7145 159.601 33.9034C159.518 34.089 159.477 34.3144 159.477 34.5795V34.8182H157.13ZM158.343 38.1591C157.959 38.1591 157.629 38.0249 157.354 37.7564C157.082 37.4846 156.948 37.1548 156.951 36.767C156.948 36.3892 157.082 36.0661 157.354 35.7976C157.629 35.5291 157.959 35.3949 158.343 35.3949C158.708 35.3949 159.029 35.5291 159.308 35.7976C159.59 36.0661 159.732 36.3892 159.735 36.767C159.732 37.0256 159.664 37.2609 159.532 37.473C159.402 37.6818 159.233 37.8492 159.025 37.9751C158.816 38.0978 158.589 38.1591 158.343 38.1591Z" fill="white"/>
</svg>
