<svg width="127" height="39" viewBox="0 0 127 39" fill="none" xmlns="http://www.w3.org/2000/svg">
  <path
    d="M49.4335 4.21378C49.4846 3.38281 49.2588 2.71591 48.7559 2.21307C48.2574 1.70597 47.5372 1.45241 46.5954 1.45241C45.9562 1.45241 45.3703 1.5696 44.8376 1.80398C44.305 2.03835 43.8618 2.36009 43.5081 2.76918C43.1586 3.17401 42.9392 3.63636 42.8497 4.15625C42.7943 4.4929 42.8092 4.79758 42.8944 5.07031C42.9839 5.33878 43.1309 5.57741 43.3355 5.78622C43.54 5.99503 43.7936 6.1804 44.0961 6.34233C44.3987 6.5 44.7375 6.63849 45.1125 6.75781L46.474 7.17969C46.9385 7.32884 47.3625 7.50142 47.746 7.69744C48.1338 7.89347 48.4598 8.12784 48.724 8.40057C48.9882 8.66903 49.1757 8.98437 49.2865 9.34659C49.4015 9.70881 49.4186 10.1264 49.3376 10.5994C49.2226 11.3026 48.9456 11.9268 48.5067 12.4723C48.0677 13.0178 47.4988 13.4439 46.8 13.7507C46.1011 14.0575 45.2957 14.2109 44.3838 14.2109C43.5443 14.2109 42.8327 14.0682 42.2488 13.7827C41.6693 13.4972 41.241 13.1009 40.964 12.5938C40.6871 12.0824 40.5805 11.4943 40.6444 10.8295H41.4626C41.4157 11.3707 41.5116 11.8395 41.7503 12.2358C41.9889 12.6278 42.3447 12.9304 42.8177 13.1435C43.295 13.3565 43.8596 13.4631 44.5116 13.4631C45.219 13.4631 45.8582 13.3416 46.4292 13.0987C47.0045 12.8558 47.4775 12.5192 47.8483 12.0888C48.2233 11.6584 48.4577 11.1598 48.5514 10.593C48.6281 10.1328 48.5855 9.73651 48.4236 9.40412C48.2616 9.07173 47.9868 8.78622 47.599 8.54759C47.2155 8.30469 46.7275 8.09162 46.1352 7.90838L44.665 7.44815C43.6934 7.13707 42.9839 6.7152 42.5365 6.18253C42.089 5.6456 41.9292 4.97869 42.0571 4.18182C42.1764 3.49574 42.4555 2.89276 42.8944 2.37287C43.3334 1.85298 43.8852 1.44602 44.55 1.15199C45.2148 0.857954 45.9392 0.710938 46.7233 0.710938C47.5031 0.710938 48.1657 0.862216 48.7112 1.16477C49.2609 1.46307 49.6657 1.87642 49.9257 2.40483C50.1899 2.93324 50.2858 3.53622 50.2133 4.21378H49.4335ZM56.7588 4.18182L56.6373 4.87855H52.3547L52.4697 4.18182H56.7588ZM54.3042 1.82955H55.0777L53.4541 11.6797C53.3859 12.0803 53.4072 12.4084 53.518 12.6641C53.6331 12.9155 53.8057 13.103 54.0358 13.2266C54.2702 13.3459 54.5365 13.4055 54.8348 13.4055C54.9669 13.4055 55.0862 13.3949 55.1927 13.3736C55.2993 13.348 55.4058 13.3203 55.5123 13.2905L55.5827 14C55.4506 14.0469 55.3099 14.0852 55.1608 14.1151C55.0116 14.1449 54.839 14.1598 54.643 14.1598C54.2339 14.1598 53.8632 14.0682 53.5308 13.8849C53.2027 13.7017 52.9534 13.4354 52.7829 13.0859C52.6167 12.7365 52.5763 12.3146 52.6615 11.8203L54.3042 1.82955ZM61.7126 14.2045C60.8263 14.2045 60.0912 13.9851 59.5074 13.5462C58.9236 13.1072 58.5166 12.5064 58.2865 11.7436C58.0564 10.9808 58.0223 10.1115 58.1842 9.13565C58.3461 8.15554 58.67 7.28196 59.1558 6.51491C59.6416 5.74787 60.2361 5.14276 60.9392 4.69957C61.6423 4.25639 62.4008 4.0348 63.2148 4.0348C63.7645 4.0348 64.2652 4.1456 64.7169 4.36719C65.1729 4.58878 65.5564 4.90625 65.8675 5.3196C66.1785 5.72869 66.3937 6.22514 66.5131 6.80895C66.6324 7.39276 66.6324 8.04901 66.5131 8.7777L66.4236 9.26349H58.6508L58.7723 8.55398H65.7588C65.8781 7.84659 65.844 7.20739 65.6565 6.63636C65.469 6.06108 65.1579 5.60511 64.7233 5.26847C64.2929 4.93182 63.7645 4.76349 63.1381 4.76349C62.4988 4.76349 61.8895 4.94886 61.3099 5.3196C60.7346 5.68608 60.2403 6.17614 59.827 6.78977C59.4179 7.40341 59.1452 8.07883 59.0088 8.81605L58.9321 9.21236C58.7957 10.0561 58.8128 10.7997 58.9832 11.4432C59.1579 12.0824 59.4818 12.5831 59.9548 12.9453C60.4278 13.3033 61.0457 13.4822 61.8085 13.4822C62.3412 13.4822 62.8142 13.3928 63.2275 13.2138C63.6452 13.0305 63.9988 12.8089 64.2886 12.549C64.5827 12.2891 64.8128 12.0376 64.979 11.7947L65.6246 12.0824C65.4285 12.4105 65.1473 12.7386 64.7808 13.0668C64.4143 13.3906 63.9733 13.6612 63.4577 13.8786C62.942 14.0959 62.3604 14.2045 61.7126 14.2045ZM67.7323 17.6818L69.9823 4.18182H70.743L70.385 6.37429H70.4809C70.7025 5.95241 70.9795 5.56463 71.3119 5.21094C71.6485 4.85724 72.0427 4.57386 72.4944 4.3608C72.9504 4.14347 73.4596 4.0348 74.0221 4.0348C74.8147 4.0348 75.4688 4.25213 75.9845 4.68679C76.5001 5.12145 76.8559 5.72017 77.0519 6.48295C77.248 7.24574 77.265 8.12358 77.1031 9.11648C76.9369 10.1051 76.6258 10.983 76.1698 11.75C75.7181 12.5128 75.1642 13.1136 74.5079 13.5526C73.8517 13.9872 73.1315 14.2045 72.3474 14.2045C71.7892 14.2045 71.3161 14.098 70.9284 13.8849C70.5448 13.6719 70.2423 13.3885 70.0207 13.0348C69.7991 12.6768 69.6457 12.2848 69.5605 11.8587H69.4838L68.5122 17.6818H67.7323ZM69.9312 9.11009C69.7948 9.94531 69.7948 10.6932 69.9312 11.3537C70.0718 12.0099 70.3445 12.5298 70.7494 12.9134C71.1585 13.2926 71.6933 13.4822 72.3538 13.4822C73.0228 13.4822 73.6301 13.2905 74.1755 12.907C74.7252 12.5192 75.1855 11.995 75.5562 11.3345C75.9312 10.674 76.1869 9.93253 76.3232 9.11009C76.4596 8.28764 76.4596 7.5483 76.3232 6.89205C76.1869 6.2358 75.9163 5.71804 75.5115 5.33878C75.1066 4.95526 74.5654 4.76349 73.8879 4.76349C73.2231 4.76349 72.6159 4.95312 72.0661 5.33239C71.5164 5.70739 71.0562 6.22301 70.6855 6.87926C70.319 7.53125 70.0676 8.27486 69.9312 9.11009ZM89.6235 0.909091L87.4502 14H86.6512L88.6775 1.75284H88.6008L85.3344 3.70241L85.4814 2.84588L88.7222 0.909091H89.6235ZM0.882812 38V27.8182H3.64702V31.7955H7.30611V27.8182H10.0703V38H7.30611V34.0227H3.64702V38H0.882812ZM13.5504 38.1193C13.0632 38.1193 12.6323 38.0398 12.2578 37.8807C11.8866 37.7183 11.5949 37.473 11.3828 37.1449C11.1707 36.8168 11.0646 36.3991 11.0646 35.892C11.0646 35.4744 11.1359 35.1181 11.2784 34.8232C11.4209 34.5249 11.6198 34.2812 11.875 34.0923C12.1302 33.9034 12.4268 33.7592 12.7649 33.6598C13.1063 33.5604 13.4742 33.4957 13.8686 33.4659C14.2962 33.4328 14.6392 33.393 14.8977 33.3466C15.1596 33.2969 15.3485 33.2289 15.4645 33.1428C15.5805 33.0533 15.6385 32.9356 15.6385 32.7898V32.7699C15.6385 32.571 15.5623 32.4186 15.4098 32.3125C15.2573 32.2064 15.0618 32.1534 14.8232 32.1534C14.5613 32.1534 14.3475 32.2114 14.1818 32.3274C14.0194 32.4401 13.9216 32.6141 13.8885 32.8494H11.3629C11.3961 32.3854 11.5436 31.9579 11.8054 31.5668C12.0705 31.1723 12.4567 30.8575 12.9638 30.6222C13.4709 30.3835 14.1039 30.2642 14.8629 30.2642C15.4098 30.2642 15.9003 30.3288 16.3345 30.4581C16.7687 30.584 17.1383 30.7614 17.4432 30.9901C17.7481 31.2154 17.9801 31.4806 18.1392 31.7855C18.3016 32.0871 18.3828 32.4152 18.3828 32.7699V38H15.8175V36.9261H15.7578C15.6054 37.2112 15.4197 37.4415 15.201 37.6172C14.9856 37.7929 14.7386 37.9205 14.4602 38C14.1851 38.0795 13.8819 38.1193 13.5504 38.1193ZM14.4453 36.3892C14.6541 36.3892 14.8497 36.3461 15.032 36.2599C15.2176 36.1738 15.3684 36.0495 15.4844 35.8871C15.6004 35.7247 15.6584 35.5275 15.6584 35.2955V34.6591C15.5855 34.6889 15.5076 34.7171 15.4247 34.7436C15.3452 34.7701 15.259 34.795 15.1662 34.8182C15.0767 34.8414 14.9806 34.8629 14.8778 34.8828C14.7784 34.9027 14.674 34.9209 14.5646 34.9375C14.3525 34.9706 14.1785 35.0253 14.0426 35.1016C13.91 35.1745 13.8106 35.2656 13.7443 35.375C13.6813 35.4811 13.6499 35.6004 13.6499 35.733C13.6499 35.9451 13.7244 36.1075 13.8736 36.2202C14.0227 36.3329 14.2133 36.3892 14.4453 36.3892ZM27.1167 30.3636L24.5513 38H21.3695L18.8042 30.3636H21.6877L22.9206 35.4148H23.0002L24.2331 30.3636H27.1167ZM31.3239 38.1392C30.5085 38.1392 29.8059 37.9834 29.2159 37.6719C28.6293 37.357 28.1768 36.9062 27.8587 36.3196C27.5438 35.7296 27.3864 35.0237 27.3864 34.2017C27.3864 33.4129 27.5455 32.7235 27.8636 32.1335C28.1818 31.5436 28.6309 31.0845 29.2109 30.7564C29.791 30.4283 30.4754 30.2642 31.2642 30.2642C31.8409 30.2642 32.3629 30.3537 32.8303 30.5327C33.2976 30.7116 33.697 30.9718 34.0284 31.3132C34.3598 31.6513 34.6151 32.0623 34.794 32.5462C34.973 33.0301 35.0625 33.5753 35.0625 34.1818V34.8182H28.2415V33.3068H32.5369C32.5336 33.0881 32.4773 32.8958 32.3679 32.7301C32.2618 32.5611 32.1177 32.4302 31.9354 32.3374C31.7564 32.2412 31.5526 32.1932 31.3239 32.1932C31.1018 32.1932 30.898 32.2412 30.7124 32.3374C30.5268 32.4302 30.3776 32.5594 30.2649 32.7251C30.1555 32.8909 30.0975 33.0848 30.0909 33.3068V34.9375C30.0909 35.1828 30.1423 35.4015 30.245 35.5938C30.3478 35.786 30.4953 35.9368 30.6875 36.0462C30.8797 36.1555 31.1117 36.2102 31.3835 36.2102C31.5724 36.2102 31.7448 36.1837 31.9006 36.1307C32.0597 36.0777 32.1955 36.0014 32.3082 35.902C32.4209 35.7992 32.5038 35.6766 32.5568 35.5341H35.0625C34.9763 36.0644 34.7725 36.5251 34.451 36.9162C34.1295 37.304 33.7036 37.6056 33.1733 37.821C32.6463 38.0331 32.0298 38.1392 31.3239 38.1392ZM38.9316 27.8182H42.372L44.7385 33.5852H44.8578L47.2243 27.8182H50.6646V38H47.96V32.1136H47.8805L45.6135 37.9205H43.9828L41.7157 32.0739H41.6362V38H38.9316V27.8182ZM54.1422 38.1193C53.655 38.1193 53.2241 38.0398 52.8496 37.8807C52.4784 37.7183 52.1867 37.473 51.9746 37.1449C51.7625 36.8168 51.6564 36.3991 51.6564 35.892C51.6564 35.4744 51.7277 35.1181 51.8702 34.8232C52.0127 34.5249 52.2116 34.2812 52.4668 34.0923C52.722 33.9034 53.0186 33.7592 53.3567 33.6598C53.6981 33.5604 54.066 33.4957 54.4604 33.4659C54.888 33.4328 55.231 33.393 55.4895 33.3466C55.7514 33.2969 55.9403 33.2289 56.0563 33.1428C56.1723 33.0533 56.2303 32.9356 56.2303 32.7898V32.7699C56.2303 32.571 56.1541 32.4186 56.0016 32.3125C55.8491 32.2064 55.6536 32.1534 55.415 32.1534C55.1531 32.1534 54.9393 32.2114 54.7736 32.3274C54.6112 32.4401 54.5134 32.6141 54.4803 32.8494H51.9547C51.9879 32.3854 52.1354 31.9579 52.3972 31.5668C52.6623 31.1723 53.0485 30.8575 53.5556 30.6222C54.0627 30.3835 54.6957 30.2642 55.4547 30.2642C56.0016 30.2642 56.4921 30.3288 56.9263 30.4581C57.3605 30.584 57.7301 30.7614 58.035 30.9901C58.3399 31.2154 58.5719 31.4806 58.731 31.7855C58.8934 32.0871 58.9746 32.4152 58.9746 32.7699V38H56.4093V36.9261H56.3496C56.1971 37.2112 56.0115 37.4415 55.7928 37.6172C55.5774 37.7929 55.3304 37.9205 55.052 38C54.7769 38.0795 54.4737 38.1193 54.1422 38.1193ZM55.0371 36.3892C55.2459 36.3892 55.4415 36.3461 55.6238 36.2599C55.8094 36.1738 55.9602 36.0495 56.0762 35.8871C56.1922 35.7247 56.2502 35.5275 56.2502 35.2955V34.6591C56.1773 34.6889 56.0994 34.7171 56.0165 34.7436C55.937 34.7701 55.8508 34.795 55.758 34.8182C55.6685 34.8414 55.5724 34.8629 55.4696 34.8828C55.3702 34.9027 55.2658 34.9209 55.1564 34.9375C54.9443 34.9706 54.7703 35.0253 54.6344 35.1016C54.5018 35.1745 54.4024 35.2656 54.3361 35.375C54.2731 35.4811 54.2417 35.6004 54.2417 35.733C54.2417 35.9451 54.3162 36.1075 54.4654 36.2202C54.6145 36.3329 54.8051 36.3892 55.0371 36.3892ZM60.2859 38V30.3636H62.9506V31.8153H63.0302C63.1694 31.2784 63.3898 30.8857 63.6914 30.6371C63.9963 30.3885 64.3526 30.2642 64.7603 30.2642C64.8796 30.2642 64.9973 30.2741 65.1133 30.294C65.2326 30.3106 65.3469 30.3355 65.4563 30.3686V32.7102C65.3204 32.6638 65.1531 32.629 64.9542 32.6058C64.7553 32.5826 64.5846 32.571 64.4421 32.571C64.1737 32.571 63.9317 32.6323 63.7163 32.755C63.5041 32.8743 63.3368 33.0433 63.2141 33.2621C63.0915 33.4775 63.0302 33.7311 63.0302 34.0227V38H60.2859ZM68.8221 36.1903L68.842 32.929H69.1999L71.0494 30.3636H74.1317L71.0295 34.3608H70.2539L68.8221 36.1903ZM66.3562 38V27.8182H69.1005V38H66.3562ZM71.0692 38L69.3192 34.9773L71.109 33.0284L74.2113 38H71.0692ZM78.1911 38.1392C77.3757 38.1392 76.6731 37.9834 76.0831 37.6719C75.4964 37.357 75.044 36.9062 74.7259 36.3196C74.411 35.7296 74.2536 35.0237 74.2536 34.2017C74.2536 33.4129 74.4126 32.7235 74.7308 32.1335C75.049 31.5436 75.4981 31.0845 76.0781 30.7564C76.6581 30.4283 77.3426 30.2642 78.1314 30.2642C78.7081 30.2642 79.2301 30.3537 79.6974 30.5327C80.1648 30.7116 80.5642 30.9718 80.8956 31.3132C81.227 31.6513 81.4822 32.0623 81.6612 32.5462C81.8402 33.0301 81.9297 33.5753 81.9297 34.1818V34.8182H75.1087V33.3068H79.4041C79.4008 33.0881 79.3445 32.8958 79.2351 32.7301C79.129 32.5611 78.9848 32.4302 78.8026 32.3374C78.6236 32.2412 78.4197 32.1932 78.1911 32.1932C77.969 32.1932 77.7652 32.2412 77.5795 32.3374C77.3939 32.4302 77.2448 32.5594 77.1321 32.7251C77.0227 32.8909 76.9647 33.0848 76.9581 33.3068V34.9375C76.9581 35.1828 77.0095 35.4015 77.1122 35.5938C77.215 35.786 77.3625 35.9368 77.5547 36.0462C77.7469 36.1555 77.9789 36.2102 78.2507 36.2102C78.4396 36.2102 78.612 36.1837 78.7678 36.1307C78.9268 36.0777 79.0627 36.0014 79.1754 35.902C79.2881 35.7992 79.371 35.6766 79.424 35.5341H81.9297C81.8435 36.0644 81.6397 36.5251 81.3182 36.9162C80.9967 37.304 80.5708 37.6056 80.0405 37.821C79.5135 38.0331 78.897 38.1392 78.1911 38.1392ZM87.6035 30.3636V32.3523H82.5723V30.3636H87.6035ZM83.5467 28.5341H86.291V35.544C86.291 35.6501 86.3092 35.7396 86.3457 35.8125C86.3822 35.8821 86.4385 35.9351 86.5147 35.9716C86.591 36.0047 86.6887 36.0213 86.8081 36.0213C86.8909 36.0213 86.987 36.0114 87.0964 35.9915C87.2091 35.9716 87.292 35.955 87.345 35.9418L87.7427 37.8707C87.6201 37.9072 87.4444 37.9519 87.2157 38.005C86.9904 38.058 86.7219 38.0928 86.4103 38.1094C85.7806 38.1425 85.252 38.0779 84.8244 37.9155C84.3968 37.7498 84.0753 37.4896 83.8599 37.1349C83.6445 36.7803 83.5401 36.3362 83.5467 35.8026V28.5341ZM94.2567 27.8182L96.3448 34.9972H96.4244L98.5124 27.8182H101.635L98.2738 38H94.4954L91.1346 27.8182H94.2567ZM102.655 38V30.3636H105.399V38H102.655ZM104.027 29.5682C103.656 29.5682 103.338 29.4455 103.073 29.2003C102.807 28.955 102.675 28.66 102.675 28.3153C102.675 27.9706 102.807 27.6757 103.073 27.4304C103.338 27.1851 103.656 27.0625 104.027 27.0625C104.402 27.0625 104.72 27.1851 104.982 27.4304C105.247 27.6757 105.379 27.9706 105.379 28.3153C105.379 28.66 105.247 28.955 104.982 29.2003C104.72 29.4455 104.402 29.5682 104.027 29.5682ZM110.457 38.1392C109.641 38.1392 108.939 37.9834 108.349 37.6719C107.762 37.357 107.31 36.9062 106.991 36.3196C106.677 35.7296 106.519 35.0237 106.519 34.2017C106.519 33.4129 106.678 32.7235 106.996 32.1335C107.315 31.5436 107.764 31.0845 108.344 30.7564C108.924 30.4283 109.608 30.2642 110.397 30.2642C110.974 30.2642 111.496 30.3537 111.963 30.5327C112.43 30.7116 112.83 30.9718 113.161 31.3132C113.493 31.6513 113.748 32.0623 113.927 32.5462C114.106 33.0301 114.195 33.5753 114.195 34.1818V34.8182H107.374V33.3068H111.67C111.666 33.0881 111.61 32.8958 111.501 32.7301C111.395 32.5611 111.25 32.4302 111.068 32.3374C110.889 32.2412 110.685 32.1932 110.457 32.1932C110.235 32.1932 110.031 32.2412 109.845 32.3374C109.66 32.4302 109.51 32.5594 109.398 32.7251C109.288 32.8909 109.23 33.0848 109.224 33.3068V34.9375C109.224 35.1828 109.275 35.4015 109.378 35.5938C109.481 35.786 109.628 35.9368 109.82 36.0462C110.013 36.1555 110.245 36.2102 110.516 36.2102C110.705 36.2102 110.878 36.1837 111.033 36.1307C111.192 36.0777 111.328 36.0014 111.441 35.902C111.554 35.7992 111.637 35.6766 111.69 35.5341H114.195C114.109 36.0644 113.905 36.5251 113.584 36.9162C113.262 37.304 112.836 37.6056 112.306 37.821C111.779 38.0331 111.163 38.1392 110.457 38.1392ZM116.572 38L114.663 30.3636H117.407L118.282 35.017H118.342L119.316 30.3636H121.981L122.995 34.9773H123.055L123.89 30.3636H126.634L124.725 38H121.762L120.688 33.9034H120.609L119.535 38H116.572Z"
    fill="white" />
</svg>