<svg width="77" height="40" viewBox="0 0 77 40" fill="none" xmlns="http://www.w3.org/2000/svg">
<path d="M27.9335 4.21378C27.9846 3.38281 27.7588 2.71591 27.2559 2.21307C26.7574 1.70597 26.0372 1.45241 25.0954 1.45241C24.4562 1.45241 23.8703 1.5696 23.3376 1.80398C22.805 2.03835 22.3618 2.36009 22.0081 2.76918C21.6586 3.17401 21.4392 3.63636 21.3497 4.15625C21.2943 4.4929 21.3092 4.79758 21.3944 5.07031C21.4839 5.33878 21.6309 5.57741 21.8355 5.78622C22.04 5.99503 22.2936 6.1804 22.5961 6.34233C22.8987 6.5 23.2375 6.63849 23.6125 6.75781L24.974 7.17969C25.4385 7.32884 25.8625 7.50142 26.246 7.69744C26.6338 7.89347 26.9598 8.12784 27.224 8.40057C27.4882 8.66903 27.6757 8.98437 27.7865 9.34659C27.9015 9.70881 27.9186 10.1264 27.8376 10.5994C27.7226 11.3026 27.4456 11.9268 27.0067 12.4723C26.5677 13.0178 25.9988 13.4439 25.3 13.7507C24.6011 14.0575 23.7957 14.2109 22.8838 14.2109C22.0443 14.2109 21.3327 14.0682 20.7488 13.7827C20.1693 13.4972 19.741 13.1009 19.464 12.5938C19.1871 12.0824 19.0805 11.4943 19.1444 10.8295H19.9626C19.9157 11.3707 20.0116 11.8395 20.2503 12.2358C20.4889 12.6278 20.8447 12.9304 21.3177 13.1435C21.795 13.3565 22.3596 13.4631 23.0116 13.4631C23.719 13.4631 24.3582 13.3416 24.9292 13.0987C25.5045 12.8558 25.9775 12.5192 26.3483 12.0888C26.7233 11.6584 26.9577 11.1598 27.0514 10.593C27.1281 10.1328 27.0855 9.73651 26.9236 9.40412C26.7616 9.07173 26.4868 8.78622 26.099 8.54759C25.7155 8.30469 25.2275 8.09162 24.6352 7.90838L23.165 7.44815C22.1934 7.13707 21.4839 6.7152 21.0365 6.18253C20.589 5.6456 20.4292 4.97869 20.5571 4.18182C20.6764 3.49574 20.9555 2.89276 21.3944 2.37287C21.8334 1.85298 22.3852 1.44602 23.05 1.15199C23.7148 0.857954 24.4392 0.710938 25.2233 0.710938C26.0031 0.710938 26.6657 0.862216 27.2112 1.16477C27.7609 1.46307 28.1657 1.87642 28.4257 2.40483C28.6899 2.93324 28.7858 3.53622 28.7133 4.21378H27.9335ZM35.2588 4.18182L35.1373 4.87855H30.8547L30.9697 4.18182H35.2588ZM32.8042 1.82955H33.5777L31.9541 11.6797C31.8859 12.0803 31.9072 12.4084 32.018 12.6641C32.1331 12.9155 32.3057 13.103 32.5358 13.2266C32.7702 13.3459 33.0365 13.4055 33.3348 13.4055C33.4669 13.4055 33.5862 13.3949 33.6927 13.3736C33.7993 13.348 33.9058 13.3203 34.0123 13.2905L34.0827 14C33.9506 14.0469 33.8099 14.0852 33.6608 14.1151C33.5116 14.1449 33.339 14.1598 33.143 14.1598C32.7339 14.1598 32.3632 14.0682 32.0308 13.8849C31.7027 13.7017 31.4534 13.4354 31.2829 13.0859C31.1167 12.7365 31.0763 12.3146 31.1615 11.8203L32.8042 1.82955ZM40.2126 14.2045C39.3263 14.2045 38.5912 13.9851 38.0074 13.5462C37.4236 13.1072 37.0166 12.5064 36.7865 11.7436C36.5564 10.9808 36.5223 10.1115 36.6842 9.13565C36.8461 8.15554 37.17 7.28196 37.6558 6.51491C38.1416 5.74787 38.7361 5.14276 39.4392 4.69957C40.1423 4.25639 40.9008 4.0348 41.7148 4.0348C42.2645 4.0348 42.7652 4.1456 43.2169 4.36719C43.6729 4.58878 44.0564 4.90625 44.3675 5.3196C44.6785 5.72869 44.8937 6.22514 45.0131 6.80895C45.1324 7.39276 45.1324 8.04901 45.0131 8.7777L44.9236 9.26349H37.1508L37.2723 8.55398H44.2588C44.3781 7.84659 44.344 7.20739 44.1565 6.63636C43.969 6.06108 43.6579 5.60511 43.2233 5.26847C42.7929 4.93182 42.2645 4.76349 41.6381 4.76349C40.9988 4.76349 40.3895 4.94886 39.8099 5.3196C39.2346 5.68608 38.7403 6.17614 38.327 6.78977C37.9179 7.40341 37.6452 8.07883 37.5088 8.81605L37.4321 9.21236C37.2957 10.0561 37.3128 10.7997 37.4832 11.4432C37.6579 12.0824 37.9818 12.5831 38.4548 12.9453C38.9278 13.3033 39.5457 13.4822 40.3085 13.4822C40.8412 13.4822 41.3142 13.3928 41.7275 13.2138C42.1452 13.0305 42.4988 12.8089 42.7886 12.549C43.0827 12.2891 43.3128 12.0376 43.479 11.7947L44.1246 12.0824C43.9285 12.4105 43.6473 12.7386 43.2808 13.0668C42.9143 13.3906 42.4733 13.6612 41.9577 13.8786C41.442 14.0959 40.8604 14.2045 40.2126 14.2045ZM46.2323 17.6818L48.4823 4.18182H49.243L48.885 6.37429H48.9809C49.2025 5.95241 49.4795 5.56463 49.8119 5.21094C50.1485 4.85724 50.5427 4.57386 50.9944 4.3608C51.4504 4.14347 51.9596 4.0348 52.5221 4.0348C53.3147 4.0348 53.9688 4.25213 54.4845 4.68679C55.0001 5.12145 55.3559 5.72017 55.5519 6.48295C55.748 7.24574 55.765 8.12358 55.6031 9.11648C55.4369 10.1051 55.1258 10.983 54.6698 11.75C54.2181 12.5128 53.6642 13.1136 53.0079 13.5526C52.3517 13.9872 51.6315 14.2045 50.8474 14.2045C50.2892 14.2045 49.8161 14.098 49.4284 13.8849C49.0448 13.6719 48.7423 13.3885 48.5207 13.0348C48.2991 12.6768 48.1457 12.2848 48.0605 11.8587H47.9838L47.0122 17.6818H46.2323ZM48.4312 9.11009C48.2948 9.94531 48.2948 10.6932 48.4312 11.3537C48.5718 12.0099 48.8445 12.5298 49.2494 12.9134C49.6585 13.2926 50.1933 13.4822 50.8538 13.4822C51.5228 13.4822 52.1301 13.2905 52.6755 12.907C53.2252 12.5192 53.6855 11.995 54.0562 11.3345C54.4312 10.674 54.6869 9.93253 54.8232 9.11009C54.9596 8.28764 54.9596 7.5483 54.8232 6.89205C54.6869 6.2358 54.4163 5.71804 54.0115 5.33878C53.6066 4.95526 53.0654 4.76349 52.3879 4.76349C51.7231 4.76349 51.1159 4.95312 50.5661 5.33239C50.0164 5.70739 49.5562 6.22301 49.1855 6.87926C48.819 7.53125 48.5676 8.27486 48.4312 9.11009ZM68.1235 0.909091L65.9502 14H65.1512L67.1775 1.75284H67.1008L63.8344 3.70241L63.9814 2.84588L67.2222 0.909091H68.1235ZM3.136 26.086L5.054 26.66C4.76 27.528 4.41 28.424 4.018 29.292V39.316H2.072V32.792C1.834 33.142 1.596 33.45 1.344 33.744C1.162 33.24 0.63 32.092 0.294 31.574C1.442 30.244 2.52 28.158 3.136 26.086ZM6.986 31.126H9.226C9.17 30.37 9.142 29.558 9.114 28.718C8.4 28.844 7.686 28.956 6.986 29.054V31.126ZM13.426 33.016H11.312C11.55 35.242 11.872 36.768 12.124 36.768C12.278 36.768 12.376 36.236 12.432 35.228C12.74 35.634 13.524 36.18 13.832 36.348C13.468 38.714 12.684 39.218 12.11 39.218C10.598 39.218 9.786 36.852 9.38 33.016H6.986V36.922L8.12 36.698L7.84 35.998L9.254 35.55C9.674 36.53 10.234 37.846 10.486 38.63L8.974 39.176C8.82 38.56 8.484 37.65 8.148 36.796C8.12 37.328 8.134 38.028 8.19 38.42C5.978 38.994 5.474 39.204 5.166 39.414C5.082 38.952 4.788 38.154 4.536 37.804C4.816 37.664 5.096 37.412 5.096 36.852V27.528H5.11L5.096 27.5C7.532 27.178 10.136 26.618 11.83 25.974L13.44 27.64C12.698 27.892 11.886 28.116 11.032 28.312C11.06 29.292 11.102 30.23 11.158 31.126H13.426V33.016ZM25.452 30.846L23.786 30.034C24.052 29.642 24.36 29.124 24.64 28.592H15.33V26.688H25.69L26.012 26.576L27.552 27.178C26.978 28.48 26.166 29.894 25.452 30.846ZM20.622 30.216L19.446 31.742C18.844 31.28 17.556 30.58 16.632 30.132L17.738 28.774C18.634 29.138 19.95 29.768 20.622 30.216ZM27.3 35.088H21.938C21.056 37.104 19.25 38.504 15.414 39.316C15.246 38.812 14.77 38.056 14.392 37.636C17.234 37.09 18.788 36.278 19.642 35.088H14.812V33.226H17.136C16.534 32.834 15.666 32.358 14.994 32.05L16.114 30.706C16.926 31.042 18.116 31.602 18.718 32.008L17.766 33.226H20.44C20.72 32.036 20.734 30.622 20.776 28.914H22.82C22.764 30.524 22.708 31.966 22.484 33.226H27.3V35.088ZM21.196 36.992L22.218 35.522C24.094 36.152 26.18 37.076 27.356 37.748L26.068 39.344C24.962 38.63 23.016 37.65 21.196 36.992ZM30.268 34.276C30.03 32.078 32.284 31.63 32.284 30.356C32.284 29.698 31.864 29.376 31.262 29.376C30.688 29.376 30.24 29.614 29.82 30.104L28.448 28.844C29.19 27.934 30.296 27.36 31.556 27.36C33.306 27.36 34.664 28.228 34.664 30.132C34.664 32.218 32.326 32.372 32.452 34.276H30.268ZM29.708 36.614C29.708 35.718 30.394 35.088 31.36 35.088C32.326 35.088 33.012 35.718 33.012 36.614C33.012 37.51 32.326 38.168 31.36 38.168C30.394 38.168 29.708 37.51 29.708 36.614ZM50.246 36.782V36.25H47.67V36.782H50.246ZM54.978 32.904V37.552C54.978 38.406 54.768 38.77 54.152 39.008C53.55 39.218 52.724 39.232 51.688 39.218C51.618 38.896 51.464 38.504 51.296 38.154H47.67V38.658H45.794V34.878H52.024V37.804C52.304 37.804 52.542 37.79 52.626 37.79C52.836 37.79 52.92 37.734 52.92 37.538V34.542H45.024V39.33H43.05V32.904H54.978ZM51.576 31.14V30.664H46.48V31.14H51.576ZM53.732 29.334V32.47H44.45V29.334H53.732ZM50.344 27.248H55.216V28.942H42.728V27.248H47.936C47.852 26.968 47.74 26.674 47.656 26.422L49.784 25.904C49.952 26.31 50.176 26.814 50.344 27.248ZM59.136 32.302L59.948 31.35H56.966V29.642H62.006V28.942H57.918V27.22H62.006V26.114H64.092V27.22H68.32V28.942H64.092V29.642H67.732L68.054 29.53L69.51 30.132C69.006 31.196 68.278 32.344 67.606 33.114L66.094 32.232C66.29 31.98 66.5 31.672 66.696 31.35H60.648C61.348 31.602 62.104 31.966 62.538 32.274L61.516 33.52C61.012 33.114 59.962 32.596 59.136 32.302ZM69.16 36.096H63.812C62.93 37.664 61.194 38.77 57.638 39.414C57.484 38.896 57.022 38.126 56.644 37.692C58.954 37.342 60.34 36.81 61.194 36.096H56.798V34.346H59.206C58.688 34.066 58.03 33.786 57.47 33.604L58.366 32.428C59.178 32.638 60.242 33.072 60.802 33.464L60.13 34.346H62.314C62.538 33.59 62.594 32.708 62.664 31.7H64.792C64.722 32.666 64.638 33.548 64.456 34.346H69.16V36.096ZM63.448 37.706L64.316 36.166C66.206 36.516 68.348 37.118 69.594 37.608L68.488 39.302C67.312 38.756 65.338 38.098 63.448 37.706ZM72.268 34.276C72.03 32.078 74.284 31.63 74.284 30.356C74.284 29.698 73.864 29.376 73.262 29.376C72.688 29.376 72.24 29.614 71.82 30.104L70.448 28.844C71.19 27.934 72.296 27.36 73.556 27.36C75.306 27.36 76.664 28.228 76.664 30.132C76.664 32.218 74.326 32.372 74.452 34.276H72.268ZM71.708 36.614C71.708 35.718 72.394 35.088 73.36 35.088C74.326 35.088 75.012 35.718 75.012 36.614C75.012 37.51 74.326 38.168 73.36 38.168C72.394 38.168 71.708 37.51 71.708 36.614Z" fill="white"/>
</svg>
