<svg width="128" height="74" viewBox="0 0 128 74" fill="none" xmlns="http://www.w3.org/2000/svg">
<path d="M46.4442 9.21378C46.4954 8.38281 46.2695 7.71591 45.7667 7.21307C45.2681 6.70597 44.5479 6.45241 43.6062 6.45241C42.967 6.45241 42.381 6.5696 41.8484 6.80398C41.3157 7.03835 40.8725 7.36009 40.5188 7.76918C40.1694 8.17401 39.9499 8.63636 39.8604 9.15625C39.805 9.4929 39.82 9.79758 39.9052 10.0703C39.9947 10.3388 40.1417 10.5774 40.3462 10.7862C40.5508 10.995 40.8043 11.1804 41.1069 11.3423C41.4094 11.5 41.7482 11.6385 42.1232 11.7578L43.4847 12.1797C43.9492 12.3288 44.3732 12.5014 44.7567 12.6974C45.1445 12.8935 45.4705 13.1278 45.7347 13.4006C45.9989 13.669 46.1864 13.9844 46.2972 14.3466C46.4123 14.7088 46.4293 15.1264 46.3484 15.5994C46.2333 16.3026 45.9563 16.9268 45.5174 17.4723C45.0785 18.0178 44.5096 18.4439 43.8107 18.7507C43.1119 19.0575 42.3065 19.2109 41.3945 19.2109C40.555 19.2109 39.8434 19.0682 39.2596 18.7827C38.68 18.4972 38.2518 18.1009 37.9748 17.5938C37.6978 17.0824 37.5913 16.4943 37.6552 15.8295H38.4734C38.4265 16.3707 38.5224 16.8395 38.761 17.2358C38.9996 17.6278 39.3555 17.9304 39.8285 18.1435C40.3058 18.3565 40.8704 18.4631 41.5224 18.4631C42.2298 18.4631 42.869 18.3416 43.44 18.0987C44.0153 17.8558 44.4883 17.5192 44.859 17.0888C45.234 16.6584 45.4684 16.1598 45.5621 15.593C45.6388 15.1328 45.5962 14.7365 45.4343 14.4041C45.2724 14.0717 44.9975 13.7862 44.6097 13.5476C44.2262 13.3047 43.7383 13.0916 43.146 12.9084L41.6758 12.4482C40.7042 12.1371 39.9947 11.7152 39.5472 11.1825C39.0998 10.6456 38.94 9.97869 39.0678 9.18182C39.1871 8.49574 39.4663 7.89276 39.9052 7.37287C40.3441 6.85298 40.896 6.44602 41.5607 6.15199C42.2255 5.85795 42.9499 5.71094 43.734 5.71094C44.5138 5.71094 45.1765 5.86222 45.7219 6.16477C46.2717 6.46307 46.6765 6.87642 46.9364 7.40483C47.2006 7.93324 47.2965 8.53622 47.2241 9.21378H46.4442ZM53.7695 9.18182L53.6481 9.87855H49.3654L49.4805 9.18182H53.7695ZM51.315 6.82955H52.0884L50.4648 16.6797C50.3967 17.0803 50.418 17.4084 50.5288 17.6641C50.6438 17.9155 50.8164 18.103 51.0465 18.2266C51.2809 18.3459 51.5472 18.4055 51.8455 18.4055C51.9776 18.4055 52.0969 18.3949 52.2035 18.3736C52.31 18.348 52.4165 18.3203 52.5231 18.2905L52.5934 19C52.4613 19.0469 52.3207 19.0852 52.1715 19.1151C52.0224 19.1449 51.8498 19.1598 51.6538 19.1598C51.2447 19.1598 50.8739 19.0682 50.5415 18.8849C50.2134 18.7017 49.9641 18.4354 49.7937 18.0859C49.6275 17.7365 49.587 17.3146 49.6722 16.8203L51.315 6.82955ZM58.7234 19.2045C57.837 19.2045 57.1019 18.9851 56.5181 18.5462C55.9343 18.1072 55.5273 17.5064 55.2972 16.7436C55.0671 15.9808 55.033 15.1115 55.195 14.1357C55.3569 13.1555 55.6808 12.282 56.1665 11.5149C56.6523 10.7479 57.2468 10.1428 57.9499 9.69957C58.6531 9.25639 59.4116 9.0348 60.2255 9.0348C60.7752 9.0348 61.2759 9.1456 61.7276 9.36719C62.1836 9.58878 62.5671 9.90625 62.8782 10.3196C63.1893 10.7287 63.4045 11.2251 63.5238 11.8089C63.6431 12.3928 63.6431 13.049 63.5238 13.7777L63.4343 14.2635H55.6616L55.783 13.554H62.7695C62.8888 12.8466 62.8548 12.2074 62.6673 11.6364C62.4798 11.0611 62.1687 10.6051 61.734 10.2685C61.3036 9.93182 60.7752 9.76349 60.1488 9.76349C59.5096 9.76349 58.9002 9.94886 58.3207 10.3196C57.7454 10.6861 57.2511 11.1761 56.8377 11.7898C56.4286 12.4034 56.1559 13.0788 56.0195 13.8161L55.9428 14.2124C55.8065 15.0561 55.8235 15.7997 55.994 16.4432C56.1687 17.0824 56.4925 17.5831 56.9656 17.9453C57.4386 18.3033 58.0565 18.4822 58.8192 18.4822C59.3519 18.4822 59.8249 18.3928 60.2383 18.2138C60.6559 18.0305 61.0096 17.8089 61.2994 17.549C61.5934 17.2891 61.8235 17.0376 61.9897 16.7947L62.6353 17.0824C62.4393 17.4105 62.158 17.7386 61.7915 18.0668C61.4251 18.3906 60.984 18.6612 60.4684 18.8786C59.9528 19.0959 59.3711 19.2045 58.7234 19.2045ZM64.7431 22.6818L66.9931 9.18182H67.7537L67.3958 11.3743H67.4917C67.7132 10.9524 67.9902 10.5646 68.3226 10.2109C68.6593 9.85724 69.0534 9.57386 69.5051 9.3608C69.9611 9.14347 70.4703 9.0348 71.0328 9.0348C71.8255 9.0348 72.4796 9.25213 72.9952 9.68679C73.5108 10.1214 73.8667 10.7202 74.0627 11.483C74.2587 12.2457 74.2757 13.1236 74.1138 14.1165C73.9476 15.1051 73.6365 15.983 73.1806 16.75C72.7289 17.5128 72.1749 18.1136 71.5186 18.5526C70.8624 18.9872 70.1422 19.2045 69.3581 19.2045C68.7999 19.2045 68.3269 19.098 67.9391 18.8849C67.5556 18.6719 67.253 18.3885 67.0314 18.0348C66.8098 17.6768 66.6564 17.2848 66.5712 16.8587H66.4945L65.5229 22.6818H64.7431ZM66.9419 14.1101C66.8056 14.9453 66.8056 15.6932 66.9419 16.3537C67.0826 17.0099 67.3553 17.5298 67.7601 17.9134C68.1692 18.2926 68.704 18.4822 69.3645 18.4822C70.0336 18.4822 70.6408 18.2905 71.1863 17.907C71.736 17.5192 72.1962 16.995 72.5669 16.3345C72.9419 15.674 73.1976 14.9325 73.334 14.1101C73.4703 13.2876 73.4703 12.5483 73.334 11.892C73.1976 11.2358 72.927 10.718 72.5222 10.3388C72.1174 9.95526 71.5762 9.76349 70.8986 9.76349C70.2338 9.76349 69.6266 9.95312 69.0769 10.3324C68.5272 10.7074 68.0669 11.223 67.6962 11.8793C67.3297 12.5312 67.0783 13.2749 66.9419 14.1101ZM80.9837 19L81.0859 18.3928L86.1229 13.5092C86.8516 12.8104 87.4332 12.218 87.8679 11.7322C88.3068 11.2464 88.6328 10.8075 88.8459 10.4155C89.0632 10.0234 89.206 9.61435 89.2741 9.18821C89.3636 8.65554 89.3232 8.18466 89.1527 7.77557C88.9865 7.36222 88.7116 7.04048 88.3281 6.81037C87.9489 6.58026 87.4865 6.4652 86.9411 6.4652C86.37 6.4652 85.8438 6.59304 85.3622 6.84872C84.8807 7.10014 84.478 7.44105 84.1541 7.87145C83.8345 8.30185 83.63 8.78338 83.5405 9.31605H82.767C82.8778 8.64276 83.1357 8.03551 83.5405 7.49432C83.9496 6.95312 84.4567 6.52486 85.0618 6.20952C85.6669 5.88991 86.3253 5.73011 87.0369 5.73011C87.7273 5.73011 88.3175 5.88139 88.8075 6.18395C89.2976 6.48651 89.6534 6.89986 89.875 7.42401C90.0966 7.94389 90.152 8.53196 90.0412 9.18821C89.9645 9.67401 89.8068 10.1406 89.5682 10.5881C89.3295 11.0312 88.9652 11.5277 88.4751 12.0774C87.9893 12.6229 87.3331 13.294 86.5064 14.0909L82.2685 18.1882L82.2621 18.2585H89.1335L89.0057 19H80.9837ZM37.8588 36C37.8322 35.6686 37.7079 35.41 37.4859 35.2244C37.2671 35.0388 36.934 34.946 36.4866 34.946C36.2016 34.946 35.9679 34.9808 35.7856 35.0504C35.6066 35.1167 35.474 35.2079 35.3879 35.3239C35.3017 35.4399 35.257 35.5724 35.2536 35.7216C35.247 35.8442 35.2686 35.9553 35.3183 36.0547C35.3713 36.1508 35.4542 36.2386 35.5669 36.3182C35.6795 36.3944 35.8237 36.464 35.9994 36.527C36.175 36.59 36.3838 36.6463 36.6258 36.696L37.461 36.875C38.0245 36.9943 38.5067 37.1518 38.9078 37.3473C39.3088 37.5429 39.6369 37.7732 39.8921 38.0384C40.1473 38.3002 40.3346 38.5952 40.4539 38.9233C40.5766 39.2514 40.6395 39.6094 40.6428 39.9972C40.6395 40.6667 40.4722 41.2334 40.1407 41.6974C39.8093 42.1615 39.3353 42.5144 38.7188 42.7564C38.1057 42.9983 37.3682 43.1193 36.5065 43.1193C35.6215 43.1193 34.8493 42.9884 34.1897 42.7266C33.5335 42.4647 33.0231 42.062 32.6585 41.5185C32.2972 40.9716 32.1149 40.2723 32.1116 39.4205H34.7366C34.7532 39.732 34.8311 39.9938 34.9703 40.206C35.1095 40.4181 35.305 40.5788 35.5569 40.6882C35.8121 40.7976 36.1154 40.8523 36.4667 40.8523C36.7617 40.8523 37.0086 40.8158 37.2075 40.7429C37.4063 40.67 37.5571 40.5689 37.6599 40.4396C37.7626 40.3104 37.8157 40.1629 37.819 39.9972C37.8157 39.8414 37.7643 39.7055 37.6649 39.5895C37.5687 39.4702 37.4097 39.3641 37.1876 39.2713C36.9655 39.1752 36.6656 39.0857 36.2877 39.0028L35.2735 38.7841C34.372 38.5885 33.6611 38.2621 33.1407 37.8047C32.6237 37.344 32.3668 36.7159 32.3701 35.9205C32.3668 35.2741 32.5392 34.709 32.8872 34.2251C33.2385 33.7379 33.724 33.3584 34.3438 33.0866C34.9669 32.8149 35.6812 32.679 36.4866 32.679C37.3086 32.679 38.0195 32.8165 38.6194 33.0916C39.2193 33.3667 39.6817 33.7545 40.0065 34.255C40.3346 34.7521 40.5003 35.3338 40.5036 36H37.8588ZM45.3932 43.1392C44.5779 43.1392 43.8752 42.9834 43.2852 42.6719C42.6986 42.357 42.2462 41.9062 41.928 41.3196C41.6131 40.7296 41.4557 40.0237 41.4557 39.2017C41.4557 38.4129 41.6148 37.7235 41.933 37.1335C42.2512 36.5436 42.7003 36.0845 43.2803 35.7564C43.8603 35.4283 44.5447 35.2642 45.3335 35.2642C45.9102 35.2642 46.4323 35.3537 46.8996 35.5327C47.3669 35.7116 47.7663 35.9718 48.0977 36.3132C48.4292 36.6513 48.6844 37.0623 48.8634 37.5462C49.0423 38.0301 49.1318 38.5753 49.1318 39.1818V39.8182H42.3108V38.3068H46.6063C46.603 38.0881 46.5466 37.8958 46.4372 37.7301C46.3312 37.5611 46.187 37.4302 46.0047 37.3374C45.8257 37.2412 45.6219 37.1932 45.3932 37.1932C45.1711 37.1932 44.9673 37.2412 44.7817 37.3374C44.5961 37.4302 44.4469 37.5594 44.3343 37.7251C44.2249 37.8909 44.1669 38.0848 44.1602 38.3068V39.9375C44.1602 40.1828 44.2116 40.4015 44.3144 40.5938C44.4171 40.786 44.5646 40.9368 44.7568 41.0462C44.9491 41.1555 45.1811 41.2102 45.4529 41.2102C45.6418 41.2102 45.8141 41.1837 45.9699 41.1307C46.129 41.0777 46.2649 41.0014 46.3776 40.902C46.4903 40.7992 46.5731 40.6766 46.6262 40.5341H49.1318C49.0457 41.0644 48.8418 41.5251 48.5203 41.9162C48.1988 42.304 47.7729 42.6056 47.2426 42.821C46.7156 43.0331 46.0992 43.1392 45.3932 43.1392ZM54.8057 35.3636V37.3523H49.7744V35.3636H54.8057ZM50.7488 33.5341H53.4932V40.544C53.4932 40.6501 53.5114 40.7396 53.5479 40.8125C53.5843 40.8821 53.6407 40.9351 53.7169 40.9716C53.7931 41.0047 53.8909 41.0213 54.0102 41.0213C54.0931 41.0213 54.1892 41.0114 54.2986 40.9915C54.4113 40.9716 54.4941 40.955 54.5471 40.9418L54.9449 42.8707C54.8222 42.9072 54.6466 42.9519 54.4179 43.005C54.1925 43.058 53.924 43.0928 53.6125 43.1094C52.9827 43.1425 52.4541 43.0779 52.0265 42.9155C51.599 42.7498 51.2775 42.4896 51.0621 42.1349C50.8466 41.7803 50.7422 41.3362 50.7488 40.8026V33.5341ZM58.6748 43V32.8182H63.0896C63.8651 32.8182 64.5164 32.9226 65.0434 33.1314C65.5737 33.3402 65.9731 33.6352 66.2416 34.0163C66.5133 34.3975 66.6492 34.8466 66.6492 35.3636C66.6492 35.7382 66.5664 36.0795 66.4007 36.3878C66.2383 36.696 66.0096 36.9545 65.7146 37.1634C65.4196 37.3688 65.0749 37.5114 64.6805 37.5909V37.6903C65.118 37.7069 65.5157 37.8179 65.8737 38.0234C66.2316 38.2256 66.5167 38.5057 66.7288 38.8636C66.9409 39.2183 67.047 39.6359 67.047 40.1165C67.047 40.6733 66.9011 41.1688 66.6095 41.603C66.3211 42.0372 65.9101 42.3786 65.3765 42.6271C64.8429 42.8757 64.2065 43 63.4674 43H58.6748ZM61.439 40.7926H62.7316C63.1956 40.7926 63.5436 40.7064 63.7757 40.5341C64.0077 40.3584 64.1237 40.0999 64.1237 39.7585C64.1237 39.5199 64.069 39.3177 63.9596 39.152C63.8502 38.9863 63.6945 38.8603 63.4923 38.7741C63.2934 38.688 63.0531 38.6449 62.7714 38.6449H61.439V40.7926ZM61.439 36.9347H62.5725C62.8145 36.9347 63.0283 36.8965 63.2139 36.8203C63.3995 36.7441 63.5436 36.6347 63.6464 36.4922C63.7525 36.3464 63.8055 36.169 63.8055 35.9602C63.8055 35.6454 63.6928 35.4051 63.4674 35.2393C63.242 35.0703 62.957 34.9858 62.6123 34.9858H61.439V36.9347ZM73.0178 39.6591V35.3636H75.7622V43H73.157V41.5483H73.0775C72.9118 42.0355 72.6218 42.4167 72.2075 42.6918C71.7932 42.9635 71.301 43.0994 70.7309 43.0994C70.1973 43.0994 69.73 42.9768 69.3289 42.7315C68.9312 42.4863 68.6213 42.1482 68.3992 41.7173C68.1805 41.2865 68.0695 40.7926 68.0661 40.2358V35.3636H70.8105V39.6591C70.8138 40.0369 70.9099 40.3336 71.0988 40.549C71.291 40.7644 71.5595 40.8722 71.9042 40.8722C72.1329 40.8722 72.3301 40.8241 72.4958 40.728C72.6649 40.6286 72.7941 40.4893 72.8836 40.3104C72.9764 40.1281 73.0212 39.911 73.0178 39.6591ZM78.8284 45.8636C78.5135 45.8636 78.2136 45.8388 77.9285 45.7891C77.6435 45.7427 77.3933 45.678 77.1778 45.5952L77.7744 43.6463C77.9998 43.7259 78.2053 43.7772 78.3909 43.8004C78.5798 43.8236 78.7406 43.8104 78.8731 43.7607C79.009 43.7109 79.1068 43.6165 79.1665 43.4773L79.2261 43.3381L76.5415 35.3636H79.4051L80.6381 40.6534H80.7176L81.9704 35.3636H84.854L82.0699 43.6364C81.9307 44.0573 81.7285 44.4351 81.4633 44.7699C81.2015 45.108 80.8568 45.3748 80.4292 45.5703C80.0017 45.7659 79.4681 45.8636 78.8284 45.8636ZM93.415 32.3409L90.1338 44.5312H87.8071L91.0883 32.3409H93.415ZM6.35192 60C6.3254 59.6686 6.20111 59.41 5.97905 59.2244C5.7603 59.0388 5.4272 58.946 4.97976 58.946C4.69472 58.946 4.46106 58.9808 4.27876 59.0504C4.09979 59.1167 3.96721 59.2079 3.88104 59.3239C3.79486 59.4399 3.75012 59.5724 3.7468 59.7216C3.74018 59.8442 3.76172 59.9553 3.81143 60.0547C3.86447 60.1508 3.94732 60.2386 4.06001 60.3182C4.1727 60.3944 4.31688 60.464 4.49254 60.527C4.66821 60.59 4.87701 60.6463 5.11896 60.696L5.95419 60.875C6.51764 60.9943 6.99988 61.1518 7.40092 61.3473C7.80197 61.5429 8.13009 61.7732 8.3853 62.0384C8.64051 62.3002 8.82777 62.5952 8.94709 62.9233C9.06972 63.2514 9.13269 63.6094 9.13601 63.9972C9.13269 64.6667 8.96532 65.2334 8.63388 65.6974C8.30244 66.1615 7.82848 66.5144 7.212 66.7564C6.59884 66.9983 5.86139 67.1193 4.99965 67.1193C4.1147 67.1193 3.34245 66.9884 2.68288 66.7266C2.02663 66.4647 1.51622 66.062 1.15163 65.5185C0.790365 64.9716 0.608073 64.2723 0.604759 63.4205H3.22976C3.24633 63.732 3.32422 63.9938 3.46342 64.206C3.60263 64.4181 3.79818 64.5788 4.05007 64.6882C4.30528 64.7976 4.60855 64.8523 4.95987 64.8523C5.25485 64.8523 5.50178 64.8158 5.70064 64.7429C5.8995 64.67 6.05031 64.5689 6.15305 64.4396C6.2558 64.3104 6.30883 64.1629 6.31215 63.9972C6.30883 63.8414 6.25746 63.7055 6.15803 63.5895C6.06191 63.4702 5.90282 63.3641 5.68075 63.2713C5.45869 63.1752 5.15874 63.0857 4.7809 63.0028L3.76669 62.7841C2.86518 62.5885 2.15424 62.2621 1.63388 61.8047C1.11683 61.344 0.859967 60.7159 0.863281 59.9205C0.859967 59.2741 1.03232 58.709 1.38033 58.2251C1.73165 57.7379 2.21721 57.3584 2.837 57.0866C3.46011 56.8149 4.17436 56.679 4.97976 56.679C5.80173 56.679 6.51267 56.8165 7.11257 57.0916C7.71248 57.3667 8.17483 57.7545 8.49965 58.255C8.82777 58.7521 8.99349 59.3338 8.9968 60H6.35192ZM13.8864 67.1392C13.071 67.1392 12.3684 66.9834 11.7784 66.6719C11.1918 66.357 10.7393 65.9062 10.4212 65.3196C10.1063 64.7296 9.94886 64.0237 9.94886 63.2017C9.94886 62.4129 10.108 61.7235 10.4261 61.1335C10.7443 60.5436 11.1934 60.0845 11.7734 59.7564C12.3535 59.4283 13.0379 59.2642 13.8267 59.2642C14.4034 59.2642 14.9254 59.3537 15.3928 59.5327C15.8601 59.7116 16.2595 59.9718 16.5909 60.3132C16.9223 60.6513 17.1776 61.0623 17.3565 61.5462C17.5355 62.0301 17.625 62.5753 17.625 63.1818V63.8182H10.804V62.3068H15.0994C15.0961 62.0881 15.0398 61.8958 14.9304 61.7301C14.8243 61.5611 14.6802 61.4302 14.4979 61.3374C14.3189 61.2412 14.1151 61.1932 13.8864 61.1932C13.6643 61.1932 13.4605 61.2412 13.2749 61.3374C13.0893 61.4302 12.9401 61.5594 12.8274 61.7251C12.718 61.8909 12.66 62.0848 12.6534 62.3068V63.9375C12.6534 64.1828 12.7048 64.4015 12.8075 64.5938C12.9103 64.786 13.0578 64.9368 13.25 65.0462C13.4422 65.1555 13.6742 65.2102 13.946 65.2102C14.1349 65.2102 14.3073 65.1837 14.4631 65.1307C14.6222 65.0777 14.758 65.0014 14.8707 64.902C14.9834 64.7992 15.0663 64.6766 15.1193 64.5341H17.625C17.5388 65.0644 17.335 65.5251 17.0135 65.9162C16.692 66.304 16.2661 66.6056 15.7358 66.821C15.2088 67.0331 14.5923 67.1392 13.8864 67.1392ZM21.4892 56.8182V67H18.7449V56.8182H21.4892ZM25.6317 56.8182V67H22.8874V56.8182H25.6317ZM31.9469 67.1193C31.4597 67.1193 31.0288 67.0398 30.6543 66.8807C30.2831 66.7183 29.9914 66.473 29.7793 66.1449C29.5672 65.8168 29.4611 65.3991 29.4611 64.892C29.4611 64.4744 29.5324 64.1181 29.6749 63.8232C29.8174 63.5249 30.0163 63.2812 30.2715 63.0923C30.5267 62.9034 30.8233 62.7592 31.1614 62.6598C31.5028 62.5604 31.8707 62.4957 32.2651 62.4659C32.6926 62.4328 33.0357 62.393 33.2942 62.3466C33.556 62.2969 33.745 62.2289 33.861 62.1428C33.977 62.0533 34.035 61.9356 34.035 61.7898V61.7699C34.035 61.571 33.9587 61.4186 33.8063 61.3125C33.6538 61.2064 33.4583 61.1534 33.2196 61.1534C32.9578 61.1534 32.744 61.2114 32.5783 61.3274C32.4159 61.4401 32.3181 61.6141 32.285 61.8494H29.7594C29.7926 61.3854 29.94 60.9579 30.2019 60.5668C30.467 60.1723 30.8532 59.8575 31.3603 59.6222C31.8674 59.3835 32.5004 59.2642 33.2594 59.2642C33.8063 59.2642 34.2968 59.3288 34.731 59.4581C35.1652 59.584 35.5347 59.7614 35.8397 59.9901C36.1446 60.2154 36.3766 60.4806 36.5357 60.7855C36.6981 61.0871 36.7793 61.4152 36.7793 61.7699V67H34.214V65.9261H34.1543C34.0018 66.2112 33.8162 66.4415 33.5975 66.6172C33.382 66.7929 33.1351 66.9205 32.8567 67C32.5816 67.0795 32.2784 67.1193 31.9469 67.1193ZM32.8418 65.3892C33.0506 65.3892 33.2462 65.3461 33.4284 65.2599C33.6141 65.1738 33.7649 65.0495 33.8809 64.8871C33.9969 64.7247 34.0549 64.5275 34.0549 64.2955V63.6591C33.9819 63.6889 33.9041 63.7171 33.8212 63.7436C33.7417 63.7701 33.6555 63.795 33.5627 63.8182C33.4732 63.8414 33.3771 63.8629 33.2743 63.8828C33.1749 63.9027 33.0705 63.9209 32.9611 63.9375C32.749 63.9706 32.575 64.0253 32.4391 64.1016C32.3065 64.1745 32.2071 64.2656 32.1408 64.375C32.0778 64.4811 32.0463 64.6004 32.0463 64.733C32.0463 64.9451 32.1209 65.1075 32.2701 65.2202C32.4192 65.3329 32.6098 65.3892 32.8418 65.3892ZM42.6445 59.3636V61.3523H37.6133V59.3636H42.6445ZM38.5877 57.5341H41.332V64.544C41.332 64.6501 41.3503 64.7396 41.3867 64.8125C41.4232 64.8821 41.4795 64.9351 41.5558 64.9716C41.632 65.0047 41.7298 65.0213 41.8491 65.0213C41.9319 65.0213 42.0281 65.0114 42.1374 64.9915C42.2501 64.9716 42.333 64.955 42.386 64.9418L42.7837 66.8707C42.6611 66.9072 42.4854 66.9519 42.2567 67.005C42.0314 67.058 41.7629 67.0928 41.4513 67.1094C40.8216 67.1425 40.293 67.0779 39.8654 66.9155C39.4379 66.7498 39.1164 66.4896 38.9009 66.1349C38.6855 65.7803 38.5811 65.3362 38.5877 64.8026V57.5341ZM51.1074 59.3636V61.3523H46.0762V59.3636H51.1074ZM47.0506 57.5341H49.7949V64.544C49.7949 64.6501 49.8132 64.7396 49.8496 64.8125C49.8861 64.8821 49.9424 64.9351 50.0186 64.9716C50.0949 65.0047 50.1926 65.0213 50.312 65.0213C50.3948 65.0213 50.4909 65.0114 50.6003 64.9915C50.713 64.9716 50.7959 64.955 50.8489 64.9418L51.2466 66.8707C51.124 66.9072 50.9483 66.9519 50.7196 67.005C50.4943 67.058 50.2258 67.0928 49.9142 67.1094C49.2845 67.1425 48.7559 67.0779 48.3283 66.9155C47.9007 66.7498 47.5792 66.4896 47.3638 66.1349C47.1484 65.7803 47.044 65.3362 47.0506 64.8026V57.5341ZM54.3551 67.1193C53.8679 67.1193 53.437 67.0398 53.0625 66.8807C52.6913 66.7183 52.3996 66.473 52.1875 66.1449C51.9754 65.8168 51.8693 65.3991 51.8693 64.892C51.8693 64.4744 51.9406 64.1181 52.0831 63.8232C52.2256 63.5249 52.4245 63.2812 52.6797 63.0923C52.9349 62.9034 53.2315 62.7592 53.5696 62.6598C53.911 62.5604 54.2789 62.4957 54.6733 62.4659C55.1009 62.4328 55.4439 62.393 55.7024 62.3466C55.9643 62.2969 56.1532 62.2289 56.2692 62.1428C56.3852 62.0533 56.4432 61.9356 56.4432 61.7898V61.7699C56.4432 61.571 56.367 61.4186 56.2145 61.3125C56.062 61.2064 55.8665 61.1534 55.6278 61.1534C55.366 61.1534 55.1522 61.2114 54.9865 61.3274C54.8241 61.4401 54.7263 61.6141 54.6932 61.8494H52.1676C52.2008 61.3854 52.3482 60.9579 52.6101 60.5668C52.8752 60.1723 53.2614 59.8575 53.7685 59.6222C54.2756 59.3835 54.9086 59.2642 55.6676 59.2642C56.2145 59.2642 56.705 59.3288 57.1392 59.4581C57.5734 59.584 57.9429 59.7614 58.2479 59.9901C58.5528 60.2154 58.7848 60.4806 58.9439 60.7855C59.1063 61.0871 59.1875 61.4152 59.1875 61.7699V67H56.6222V65.9261H56.5625C56.41 66.2112 56.2244 66.4415 56.0057 66.6172C55.7902 66.7929 55.5433 66.9205 55.2649 67C54.9898 67.0795 54.6866 67.1193 54.3551 67.1193ZM55.25 65.3892C55.4588 65.3892 55.6544 65.3461 55.8366 65.2599C56.0223 65.1738 56.1731 65.0495 56.2891 64.8871C56.4051 64.7247 56.4631 64.5275 56.4631 64.2955V63.6591C56.3902 63.6889 56.3123 63.7171 56.2294 63.7436C56.1499 63.7701 56.0637 63.795 55.9709 63.8182C55.8814 63.8414 55.7853 63.8629 55.6825 63.8828C55.5831 63.9027 55.4787 63.9209 55.3693 63.9375C55.1572 63.9706 54.9832 64.0253 54.8473 64.1016C54.7147 64.1745 54.6153 64.2656 54.549 64.375C54.486 64.4811 54.4545 64.6004 54.4545 64.733C54.4545 64.9451 54.5291 65.1075 54.6783 65.2202C54.8274 65.3329 55.018 65.3892 55.25 65.3892ZM60.4988 67V59.3636H63.1635V60.8153H63.2431C63.3823 60.2784 63.6027 59.8857 63.9043 59.6371C64.2092 59.3885 64.5655 59.2642 64.9732 59.2642C65.0925 59.2642 65.2102 59.2741 65.3262 59.294C65.4455 59.3106 65.5598 59.3355 65.6692 59.3686V61.7102C65.5333 61.6638 65.3659 61.629 65.1671 61.6058C64.9682 61.5826 64.7975 61.571 64.655 61.571C64.3865 61.571 64.1446 61.6323 63.9292 61.755C63.717 61.8743 63.5497 62.0433 63.427 62.2621C63.3044 62.4775 63.2431 62.7311 63.2431 63.0227V67H60.4988ZM69.8105 70.0227C69.0449 70.0227 68.3887 69.9134 67.8418 69.6946C67.2982 69.4792 66.8757 69.1809 66.574 68.7997C66.2757 68.4219 66.1084 67.9877 66.0719 67.4972H68.7168C68.7433 67.6596 68.8096 67.7905 68.9157 67.8899C69.0217 67.9893 69.1576 68.0606 69.3233 68.1037C69.4924 68.1501 69.6813 68.1733 69.8901 68.1733C70.2447 68.1733 70.5381 68.0871 70.7701 67.9148C71.0054 67.7424 71.123 67.4309 71.123 66.9801V65.6875H71.0435C70.9441 65.946 70.7916 66.1664 70.5861 66.3487C70.3806 66.5277 70.1337 66.6652 69.8453 66.7614C69.557 66.8542 69.2405 66.9006 68.8958 66.9006C68.3522 66.9006 67.8517 66.7746 67.3944 66.5227C66.9403 66.2708 66.5757 65.8714 66.3006 65.3246C66.0288 64.7777 65.8929 64.0634 65.8929 63.1818C65.8929 62.2604 66.0355 61.5114 66.3205 60.9347C66.6088 60.358 66.9801 59.9354 67.4341 59.6669C67.8915 59.3984 68.3721 59.2642 68.8759 59.2642C69.2537 59.2642 69.5852 59.3305 69.8702 59.4631C70.1552 59.5923 70.3939 59.7663 70.5861 59.9851C70.7784 60.2005 70.9242 60.4375 71.0236 60.696H71.0833V59.3636H73.8276V66.9801C73.8276 67.6264 73.6602 68.175 73.3255 68.6257C72.994 69.0798 72.5267 69.4261 71.9235 69.6648C71.3203 69.9034 70.6159 70.0227 69.8105 70.0227ZM69.91 64.9517C70.1619 64.9517 70.3773 64.8821 70.5563 64.7429C70.7386 64.6004 70.8778 64.3982 70.9739 64.1364C71.0733 63.8712 71.123 63.553 71.123 63.1818C71.123 62.804 71.0733 62.4808 70.9739 62.2124C70.8778 61.9406 70.7386 61.7334 70.5563 61.5909C70.3773 61.4451 70.1619 61.3722 69.91 61.3722C69.6581 61.3722 69.4426 61.4451 69.2637 61.5909C69.088 61.7334 68.9521 61.9406 68.856 62.2124C68.7632 62.4808 68.7168 62.804 68.7168 63.1818C68.7168 63.5597 68.7632 63.8812 68.856 64.1463C68.9521 64.4081 69.088 64.6087 69.2637 64.7479C69.4426 64.8838 69.6581 64.9517 69.91 64.9517ZM78.8825 67.1392C78.0671 67.1392 77.3645 66.9834 76.7745 66.6719C76.1879 66.357 75.7354 65.9062 75.4173 65.3196C75.1024 64.7296 74.945 64.0237 74.945 63.2017C74.945 62.4129 75.104 61.7235 75.4222 61.1335C75.7404 60.5436 76.1895 60.0845 76.7695 59.7564C77.3496 59.4283 78.034 59.2642 78.8228 59.2642C79.3995 59.2642 79.9215 59.3537 80.3888 59.5327C80.8562 59.7116 81.2556 59.9718 81.587 60.3132C81.9184 60.6513 82.1737 61.0623 82.3526 61.5462C82.5316 62.0301 82.6211 62.5753 82.6211 63.1818V63.8182H75.8001V62.3068H80.0955C80.0922 62.0881 80.0359 61.8958 79.9265 61.7301C79.8204 61.5611 79.6763 61.4302 79.494 61.3374C79.315 61.2412 79.1112 61.1932 78.8825 61.1932C78.6604 61.1932 78.4566 61.2412 78.271 61.3374C78.0853 61.4302 77.9362 61.5594 77.8235 61.7251C77.7141 61.8909 77.6561 62.0848 77.6495 62.3068V63.9375C77.6495 64.1828 77.7009 64.4015 77.8036 64.5938C77.9064 64.786 78.0539 64.9368 78.2461 65.0462C78.4383 65.1555 78.6703 65.2102 78.9421 65.2102C79.131 65.2102 79.3034 65.1837 79.4592 65.1307C79.6183 65.0777 79.7541 65.0014 79.8668 64.902C79.9795 64.7992 80.0624 64.6766 80.1154 64.5341H82.6211C82.5349 65.0644 82.3311 65.5251 82.0096 65.9162C81.6881 66.304 81.2622 66.6056 80.7319 66.821C80.2049 67.0331 79.5884 67.1392 78.8825 67.1392ZM88.2949 59.3636V61.3523H83.2637V59.3636H88.2949ZM84.2381 57.5341H86.9824V64.544C86.9824 64.6501 87.0007 64.7396 87.0371 64.8125C87.0736 64.8821 87.1299 64.9351 87.2061 64.9716C87.2824 65.0047 87.3801 65.0213 87.4995 65.0213C87.5823 65.0213 87.6784 65.0114 87.7878 64.9915C87.9005 64.9716 87.9834 64.955 88.0364 64.9418L88.4341 66.8707C88.3115 66.9072 88.1358 66.9519 87.9071 67.005C87.6818 67.058 87.4133 67.0928 87.1017 67.1094C86.472 67.1425 85.9434 67.0779 85.5158 66.9155C85.0882 66.7498 84.7667 66.4896 84.5513 66.1349C84.3359 65.7803 84.2315 65.3362 84.2381 64.8026V57.5341ZM92.2038 69.8636V59.3636H94.9283V60.696H94.9879C95.0874 60.4375 95.2332 60.2005 95.4254 59.9851C95.6177 59.7663 95.8563 59.5923 96.1413 59.4631C96.4264 59.3305 96.7578 59.2642 97.1357 59.2642C97.6394 59.2642 98.1184 59.3984 98.5724 59.6669C99.0298 59.9354 99.401 60.358 99.6861 60.9347C99.9744 61.5114 100.119 62.2604 100.119 63.1818C100.119 64.0634 99.9811 64.7943 99.706 65.3743C99.4342 65.9543 99.0696 66.3868 98.6122 66.6719C98.1581 66.9569 97.6593 67.0994 97.1158 67.0994C96.7578 67.0994 96.438 67.0414 96.1562 66.9254C95.8778 66.8061 95.6392 66.6454 95.4403 66.4432C95.2448 66.2377 95.094 66.0057 94.9879 65.7472H94.9482V69.8636H92.2038ZM94.8885 63.1818C94.8885 63.553 94.9366 63.8745 95.0327 64.1463C95.1321 64.4148 95.2713 64.6236 95.4503 64.7727C95.6326 64.9186 95.8497 64.9915 96.1016 64.9915C96.3535 64.9915 96.5672 64.9202 96.7429 64.7777C96.9219 64.6319 97.0578 64.4247 97.1506 64.1562C97.2467 63.8845 97.2947 63.5597 97.2947 63.1818C97.2947 62.804 97.2467 62.4808 97.1506 62.2124C97.0578 61.9406 96.9219 61.7334 96.7429 61.5909C96.5672 61.4451 96.3535 61.3722 96.1016 61.3722C95.8497 61.3722 95.6326 61.4451 95.4503 61.5909C95.2713 61.7334 95.1321 61.9406 95.0327 62.2124C94.9366 62.4808 94.8885 62.804 94.8885 63.1818ZM101.268 67V59.3636H103.933V60.8153H104.013C104.152 60.2784 104.372 59.8857 104.674 59.6371C104.979 59.3885 105.335 59.2642 105.743 59.2642C105.862 59.2642 105.98 59.2741 106.096 59.294C106.215 59.3106 106.329 59.3355 106.439 59.3686V61.7102C106.303 61.6638 106.135 61.629 105.937 61.6058C105.738 61.5826 105.567 61.571 105.425 61.571C105.156 61.571 104.914 61.6323 104.699 61.755C104.487 61.8743 104.319 62.0433 104.197 62.2621C104.074 62.4775 104.013 62.7311 104.013 63.0227V67H101.268ZM107.339 67V59.3636H110.083V67H107.339ZM108.711 58.5682C108.34 58.5682 108.021 58.4455 107.756 58.2003C107.491 57.955 107.358 57.66 107.358 57.3153C107.358 56.9706 107.491 56.6757 107.756 56.4304C108.021 56.1851 108.34 56.0625 108.711 56.0625C109.085 56.0625 109.403 56.1851 109.665 56.4304C109.93 56.6757 110.063 56.9706 110.063 57.3153C110.063 57.66 109.93 57.955 109.665 58.2003C109.403 58.4455 109.085 58.5682 108.711 58.5682ZM115.16 67.1392C114.332 67.1392 113.622 66.9751 113.032 66.647C112.442 66.3156 111.99 65.8549 111.675 65.2649C111.36 64.6716 111.203 63.9839 111.203 63.2017C111.203 62.4195 111.36 61.7334 111.675 61.1435C111.99 60.5502 112.442 60.0895 113.032 59.7614C113.622 59.4299 114.332 59.2642 115.16 59.2642C115.909 59.2642 116.557 59.4001 117.104 59.6719C117.654 59.9403 118.08 60.3215 118.382 60.8153C118.683 61.3059 118.836 61.8826 118.839 62.5455H116.294C116.257 62.1444 116.141 61.8395 115.946 61.6307C115.753 61.4186 115.505 61.3125 115.2 61.3125C114.961 61.3125 114.752 61.3821 114.574 61.5213C114.395 61.6572 114.255 61.8643 114.156 62.1428C114.056 62.4179 114.007 62.7642 114.007 63.1818C114.007 63.5994 114.056 63.9474 114.156 64.2259C114.255 64.5009 114.395 64.7081 114.574 64.8473C114.752 64.9832 114.961 65.0511 115.2 65.0511C115.402 65.0511 115.581 65.0047 115.737 64.9119C115.893 64.8158 116.019 64.6766 116.115 64.4943C116.214 64.3087 116.274 64.0833 116.294 63.8182H118.839C118.829 64.491 118.675 65.0777 118.377 65.5781C118.078 66.0753 117.656 66.4598 117.109 66.7315C116.565 67.0033 115.916 67.1392 115.16 67.1392ZM123.631 67.1392C122.815 67.1392 122.113 66.9834 121.523 66.6719C120.936 66.357 120.483 65.9062 120.165 65.3196C119.85 64.7296 119.693 64.0237 119.693 63.2017C119.693 62.4129 119.852 61.7235 120.17 61.1335C120.488 60.5436 120.938 60.0845 121.518 59.7564C122.098 59.4283 122.782 59.2642 123.571 59.2642C124.148 59.2642 124.67 59.3537 125.137 59.5327C125.604 59.7116 126.004 59.9718 126.335 60.3132C126.666 60.6513 126.922 61.0623 127.101 61.5462C127.28 62.0301 127.369 62.5753 127.369 63.1818V63.8182H120.548V62.3068H124.844C124.84 62.0881 124.784 61.8958 124.675 61.7301C124.568 61.5611 124.424 61.4302 124.242 61.3374C124.063 61.2412 123.859 61.1932 123.631 61.1932C123.408 61.1932 123.205 61.2412 123.019 61.3374C122.833 61.4302 122.684 61.5594 122.572 61.7251C122.462 61.8909 122.404 62.0848 122.398 62.3068V63.9375C122.398 64.1828 122.449 64.4015 122.552 64.5938C122.654 64.786 122.802 64.9368 122.994 65.0462C123.186 65.1555 123.418 65.2102 123.69 65.2102C123.879 65.2102 124.051 65.1837 124.207 65.1307C124.366 65.0777 124.502 65.0014 124.615 64.902C124.728 64.7992 124.81 64.6766 124.863 64.5341H127.369C127.283 65.0644 127.079 65.5251 126.758 65.9162C126.436 66.304 126.01 66.6056 125.48 66.821C124.953 67.0331 124.336 67.1392 123.631 67.1392Z" fill="white"/>
</svg>
