<svg width="108" height="42" viewBox="0 0 108 42" fill="none" xmlns="http://www.w3.org/2000/svg">
<path d="M36.4442 4.21378C36.4954 3.38281 36.2695 2.71591 35.7667 2.21307C35.2681 1.70597 34.5479 1.45241 33.6062 1.45241C32.967 1.45241 32.381 1.5696 31.8484 1.80398C31.3157 2.03835 30.8725 2.36009 30.5188 2.76918C30.1694 3.17401 29.9499 3.63636 29.8604 4.15625C29.805 4.4929 29.82 4.79758 29.9052 5.07031C29.9947 5.33878 30.1417 5.57741 30.3462 5.78622C30.5508 5.99503 30.8043 6.1804 31.1069 6.34233C31.4094 6.5 31.7482 6.63849 32.1232 6.75781L33.4847 7.17969C33.9492 7.32884 34.3732 7.50142 34.7567 7.69744C35.1445 7.89347 35.4705 8.12784 35.7347 8.40057C35.9989 8.66903 36.1864 8.98437 36.2972 9.34659C36.4123 9.70881 36.4293 10.1264 36.3484 10.5994C36.2333 11.3026 35.9563 11.9268 35.5174 12.4723C35.0785 13.0178 34.5096 13.4439 33.8107 13.7507C33.1119 14.0575 32.3065 14.2109 31.3945 14.2109C30.555 14.2109 29.8434 14.0682 29.2596 13.7827C28.68 13.4972 28.2518 13.1009 27.9748 12.5938C27.6978 12.0824 27.5913 11.4943 27.6552 10.8295H28.4734C28.4265 11.3707 28.5224 11.8395 28.761 12.2358C28.9996 12.6278 29.3555 12.9304 29.8285 13.1435C30.3058 13.3565 30.8704 13.4631 31.5224 13.4631C32.2298 13.4631 32.869 13.3416 33.44 13.0987C34.0153 12.8558 34.4883 12.5192 34.859 12.0888C35.234 11.6584 35.4684 11.1598 35.5621 10.593C35.6388 10.1328 35.5962 9.73651 35.4343 9.40412C35.2724 9.07173 34.9975 8.78622 34.6097 8.54759C34.2262 8.30469 33.7383 8.09162 33.146 7.90838L31.6758 7.44815C30.7042 7.13707 29.9947 6.7152 29.5472 6.18253C29.0998 5.6456 28.94 4.97869 29.0678 4.18182C29.1871 3.49574 29.4663 2.89276 29.9052 2.37287C30.3441 1.85298 30.896 1.44602 31.5607 1.15199C32.2255 0.857954 32.9499 0.710938 33.734 0.710938C34.5138 0.710938 35.1765 0.862216 35.7219 1.16477C36.2717 1.46307 36.6765 1.87642 36.9364 2.40483C37.2006 2.93324 37.2965 3.53622 37.2241 4.21378H36.4442ZM43.7695 4.18182L43.6481 4.87855H39.3654L39.4805 4.18182H43.7695ZM41.315 1.82955H42.0884L40.4648 11.6797C40.3967 12.0803 40.418 12.4084 40.5288 12.6641C40.6438 12.9155 40.8164 13.103 41.0465 13.2266C41.2809 13.3459 41.5472 13.4055 41.8455 13.4055C41.9776 13.4055 42.0969 13.3949 42.2035 13.3736C42.31 13.348 42.4165 13.3203 42.5231 13.2905L42.5934 14C42.4613 14.0469 42.3207 14.0852 42.1715 14.1151C42.0224 14.1449 41.8498 14.1598 41.6538 14.1598C41.2447 14.1598 40.8739 14.0682 40.5415 13.8849C40.2134 13.7017 39.9641 13.4354 39.7937 13.0859C39.6275 12.7365 39.587 12.3146 39.6722 11.8203L41.315 1.82955ZM48.7234 14.2045C47.837 14.2045 47.1019 13.9851 46.5181 13.5462C45.9343 13.1072 45.5273 12.5064 45.2972 11.7436C45.0671 10.9808 45.033 10.1115 45.195 9.13565C45.3569 8.15554 45.6808 7.28196 46.1665 6.51491C46.6523 5.74787 47.2468 5.14276 47.9499 4.69957C48.6531 4.25639 49.4116 4.0348 50.2255 4.0348C50.7752 4.0348 51.2759 4.1456 51.7276 4.36719C52.1836 4.58878 52.5671 4.90625 52.8782 5.3196C53.1893 5.72869 53.4045 6.22514 53.5238 6.80895C53.6431 7.39276 53.6431 8.04901 53.5238 8.7777L53.4343 9.26349H45.6616L45.783 8.55398H52.7695C52.8888 7.84659 52.8548 7.20739 52.6673 6.63636C52.4798 6.06108 52.1687 5.60511 51.734 5.26847C51.3036 4.93182 50.7752 4.76349 50.1488 4.76349C49.5096 4.76349 48.9002 4.94886 48.3207 5.3196C47.7454 5.68608 47.2511 6.17614 46.8377 6.78977C46.4286 7.40341 46.1559 8.07883 46.0195 8.81605L45.9428 9.21236C45.8065 10.0561 45.8235 10.7997 45.994 11.4432C46.1687 12.0824 46.4925 12.5831 46.9656 12.9453C47.4386 13.3033 48.0565 13.4822 48.8192 13.4822C49.3519 13.4822 49.8249 13.3928 50.2383 13.2138C50.6559 13.0305 51.0096 12.8089 51.2994 12.549C51.5934 12.2891 51.8235 12.0376 51.9897 11.7947L52.6353 12.0824C52.4393 12.4105 52.158 12.7386 51.7915 13.0668C51.4251 13.3906 50.984 13.6612 50.4684 13.8786C49.9528 14.0959 49.3711 14.2045 48.7234 14.2045ZM54.7431 17.6818L56.9931 4.18182H57.7537L57.3958 6.37429H57.4917C57.7132 5.95241 57.9902 5.56463 58.3226 5.21094C58.6593 4.85724 59.0534 4.57386 59.5051 4.3608C59.9611 4.14347 60.4703 4.0348 61.0328 4.0348C61.8255 4.0348 62.4796 4.25213 62.9952 4.68679C63.5108 5.12145 63.8667 5.72017 64.0627 6.48295C64.2587 7.24574 64.2757 8.12358 64.1138 9.11648C63.9476 10.1051 63.6365 10.983 63.1806 11.75C62.7289 12.5128 62.1749 13.1136 61.5186 13.5526C60.8624 13.9872 60.1422 14.2045 59.3581 14.2045C58.7999 14.2045 58.3269 14.098 57.9391 13.8849C57.5556 13.6719 57.253 13.3885 57.0314 13.0348C56.8098 12.6768 56.6564 12.2848 56.5712 11.8587H56.4945L55.5229 17.6818H54.7431ZM56.9419 9.11009C56.8056 9.94531 56.8056 10.6932 56.9419 11.3537C57.0826 12.0099 57.3553 12.5298 57.7601 12.9134C58.1692 13.2926 58.704 13.4822 59.3645 13.4822C60.0336 13.4822 60.6408 13.2905 61.1863 12.907C61.736 12.5192 62.1962 11.995 62.5669 11.3345C62.9419 10.674 63.1976 9.93253 63.334 9.11009C63.4703 8.28764 63.4703 7.5483 63.334 6.89205C63.1976 6.2358 62.927 5.71804 62.5222 5.33878C62.1174 4.95526 61.5762 4.76349 60.8986 4.76349C60.2338 4.76349 59.6266 4.95312 59.0769 5.33239C58.5272 5.70739 58.0669 6.22301 57.6962 6.87926C57.3297 7.53125 57.0783 8.27486 56.9419 9.11009ZM70.9837 14L71.0859 13.3928L76.1229 8.50923C76.8516 7.81037 77.4332 7.21804 77.8679 6.73224C78.3068 6.24645 78.6328 5.80753 78.8459 5.41548C79.0632 5.02344 79.206 4.61435 79.2741 4.18821C79.3636 3.65554 79.3232 3.18466 79.1527 2.77557C78.9865 2.36222 78.7116 2.04048 78.3281 1.81037C77.9489 1.58026 77.4865 1.4652 76.9411 1.4652C76.37 1.4652 75.8438 1.59304 75.3622 1.84872C74.8807 2.10014 74.478 2.44105 74.1541 2.87145C73.8345 3.30185 73.63 3.78338 73.5405 4.31605H72.767C72.8778 3.64276 73.1357 3.03551 73.5405 2.49432C73.9496 1.95312 74.4567 1.52486 75.0618 1.20952C75.6669 0.889914 76.3253 0.730113 77.0369 0.730113C77.7273 0.730113 78.3175 0.881392 78.8075 1.18395C79.2976 1.48651 79.6534 1.89986 79.875 2.42401C80.0966 2.94389 80.152 3.53196 80.0412 4.18821C79.9645 4.67401 79.8068 5.14062 79.5682 5.58807C79.3295 6.03125 78.9652 6.5277 78.4751 7.07741C77.9893 7.62287 77.3331 8.29403 76.5064 9.09091L72.2685 13.1882L72.2621 13.2585H79.1335L79.0057 14H70.9837ZM6.38024 31C6.35372 30.6686 6.22943 30.41 6.00737 30.2244C5.78862 30.0388 5.45552 29.946 5.00808 29.946C4.72304 29.946 4.48938 29.9808 4.30708 30.0504C4.12811 30.1167 3.99553 30.2079 3.90936 30.3239C3.82318 30.4399 3.77844 30.5724 3.77512 30.7216C3.7685 30.8442 3.79004 30.9553 3.83976 31.0547C3.89279 31.1508 3.97565 31.2386 4.08833 31.3182C4.20102 31.3944 4.3452 31.464 4.52086 31.527C4.69653 31.59 4.90533 31.6463 5.14728 31.696L5.98251 31.875C6.54596 31.9943 7.0282 32.1518 7.42924 32.3473C7.83029 32.5429 8.15841 32.7732 8.41362 33.0384C8.66883 33.3002 8.85609 33.5952 8.97541 33.9233C9.09804 34.2514 9.16101 34.6094 9.16433 34.9972C9.16101 35.6667 8.99364 36.2334 8.6622 36.6974C8.33076 37.1615 7.8568 37.5144 7.24032 37.7564C6.62716 37.9983 5.88971 38.1193 5.02797 38.1193C4.14302 38.1193 3.37077 37.9884 2.7112 37.7266C2.05495 37.4647 1.54454 37.062 1.17995 36.5185C0.818685 35.9716 0.636393 35.2723 0.633079 34.4205H3.25808C3.27465 34.732 3.35254 34.9938 3.49174 35.206C3.63095 35.4181 3.8265 35.5788 4.07839 35.6882C4.3336 35.7976 4.63687 35.8523 4.98819 35.8523C5.28317 35.8523 5.5301 35.8158 5.72896 35.7429C5.92782 35.67 6.07863 35.5689 6.18137 35.4396C6.28412 35.3104 6.33715 35.1629 6.34047 34.9972C6.33715 34.8414 6.28578 34.7055 6.18635 34.5895C6.09023 34.4702 5.93114 34.3641 5.70907 34.2713C5.48701 34.1752 5.18706 34.0857 4.80922 34.0028L3.79501 33.7841C2.8935 33.5885 2.18256 33.2621 1.6622 32.8047C1.14515 32.344 0.888287 31.7159 0.891602 30.9205C0.888287 30.2741 1.06064 29.709 1.40865 29.2251C1.75997 28.7379 2.24553 28.3584 2.86532 28.0866C3.48843 27.8149 4.20268 27.679 5.00808 27.679C5.83005 27.679 6.54099 27.8165 7.14089 28.0916C7.7408 28.3667 8.20315 28.7545 8.52797 29.255C8.85609 29.7521 9.02181 30.3338 9.02512 31H6.38024ZM13.9147 38.1392C13.0993 38.1392 12.3967 37.9834 11.8067 37.6719C11.2201 37.357 10.7677 36.9062 10.4495 36.3196C10.1346 35.7296 9.97718 35.0237 9.97718 34.2017C9.97718 33.4129 10.1363 32.7235 10.4545 32.1335C10.7726 31.5436 11.2217 31.0845 11.8018 30.7564C12.3818 30.4283 13.0662 30.2642 13.855 30.2642C14.4317 30.2642 14.9537 30.3537 15.4211 30.5327C15.8884 30.7116 16.2878 30.9718 16.6192 31.3132C16.9507 31.6513 17.2059 32.0623 17.3849 32.5462C17.5638 33.0301 17.6533 33.5753 17.6533 34.1818V34.8182H10.8323V33.3068H15.1278C15.1244 33.0881 15.0681 32.8958 14.9587 32.7301C14.8527 32.5611 14.7085 32.4302 14.5262 32.3374C14.3472 32.2412 14.1434 32.1932 13.9147 32.1932C13.6926 32.1932 13.4888 32.2412 13.3032 32.3374C13.1176 32.4302 12.9684 32.5594 12.8557 32.7251C12.7464 32.8909 12.6884 33.0848 12.6817 33.3068V34.9375C12.6817 35.1828 12.7331 35.4015 12.8358 35.5938C12.9386 35.786 13.0861 35.9368 13.2783 36.0462C13.4706 36.1555 13.7026 36.2102 13.9743 36.2102C14.1633 36.2102 14.3356 36.1837 14.4914 36.1307C14.6505 36.0777 14.7864 36.0014 14.8991 35.902C15.0117 35.7992 15.0946 35.6766 15.1476 35.5341H17.6533C17.5671 36.0644 17.3633 36.5251 17.0418 36.9162C16.7203 37.304 16.2944 37.6056 15.7641 37.821C15.2371 38.0331 14.6206 38.1392 13.9147 38.1392ZM23.3271 30.3636V32.3523H18.2959V30.3636H23.3271ZM19.2703 28.5341H22.0146V35.544C22.0146 35.6501 22.0329 35.7396 22.0693 35.8125C22.1058 35.8821 22.1621 35.9351 22.2384 35.9716C22.3146 36.0047 22.4124 36.0213 22.5317 36.0213C22.6146 36.0213 22.7107 36.0114 22.82 35.9915C22.9327 35.9716 23.0156 35.955 23.0686 35.9418L23.4664 37.8707C23.3437 37.9072 23.1681 37.9519 22.9394 38.005C22.714 38.058 22.4455 38.0928 22.134 38.1094C21.5042 38.1425 20.9756 38.0779 20.548 37.9155C20.1205 37.7498 19.799 37.4896 19.5835 37.1349C19.3681 36.7803 19.2637 36.3362 19.2703 35.8026V28.5341ZM26.7787 27.8182H29.8611L31.8497 31.9545H31.9292L33.9179 27.8182H37.0003L33.2616 34.7983V38H30.5173V34.7983L26.7787 27.8182ZM39.6787 38.1392C38.8501 38.1392 38.1408 37.9751 37.5509 37.647C36.9609 37.3156 36.5085 36.8549 36.1936 36.2649C35.8788 35.6716 35.7213 34.9839 35.7213 34.2017C35.7213 33.4195 35.8788 32.7334 36.1936 32.1435C36.5085 31.5502 36.9609 31.0895 37.5509 30.7614C38.1408 30.4299 38.8501 30.2642 39.6787 30.2642C40.5073 30.2642 41.2166 30.4299 41.8066 30.7614C42.3965 31.0895 42.8489 31.5502 43.1638 32.1435C43.4787 32.7334 43.6361 33.4195 43.6361 34.2017C43.6361 34.9839 43.4787 35.6716 43.1638 36.2649C42.8489 36.8549 42.3965 37.3156 41.8066 37.647C41.2166 37.9751 40.5073 38.1392 39.6787 38.1392ZM39.6986 36.1108C39.9306 36.1108 40.1311 36.0329 40.3002 35.8771C40.4692 35.7214 40.6001 35.4993 40.6929 35.2109C40.7857 34.9226 40.8321 34.5795 40.8321 34.1818C40.8321 33.7808 40.7857 33.4377 40.6929 33.1527C40.6001 32.8643 40.4692 32.6423 40.3002 32.4865C40.1311 32.3307 39.9306 32.2528 39.6986 32.2528C39.4533 32.2528 39.2429 32.3307 39.0672 32.4865C38.8915 32.6423 38.7573 32.8643 38.6645 33.1527C38.5717 33.4377 38.5253 33.7808 38.5253 34.1818C38.5253 34.5795 38.5717 34.9226 38.6645 35.2109C38.7573 35.4993 38.8915 35.7214 39.0672 35.8771C39.2429 36.0329 39.4533 36.1108 39.6986 36.1108ZM49.7014 34.6591V30.3636H52.4458V38H49.8406V36.5483H49.7611C49.5954 37.0355 49.3054 37.4167 48.8911 37.6918C48.4768 37.9635 47.9846 38.0994 47.4145 38.0994C46.8809 38.0994 46.4136 37.9768 46.0125 37.7315C45.6148 37.4863 45.3049 37.1482 45.0828 36.7173C44.8641 36.2865 44.753 35.7926 44.7497 35.2358V30.3636H47.4941V34.6591C47.4974 35.0369 47.5935 35.3336 47.7824 35.549C47.9746 35.7644 48.2431 35.8722 48.5878 35.8722C48.8165 35.8722 49.0137 35.8241 49.1794 35.728C49.3485 35.6286 49.4777 35.4893 49.5672 35.3104C49.66 35.1281 49.7048 34.911 49.7014 34.6591ZM53.8415 38V30.3636H56.5063V31.8153H56.5858C56.7251 31.2784 56.9455 30.8857 57.2471 30.6371C57.552 30.3885 57.9083 30.2642 58.316 30.2642C58.4353 30.2642 58.5529 30.2741 58.6689 30.294C58.7883 30.3106 58.9026 30.3355 59.012 30.3686V32.7102C58.8761 32.6638 58.7087 32.629 58.5099 32.6058C58.311 32.5826 58.1403 32.571 57.9978 32.571C57.7293 32.571 57.4874 32.6323 57.2719 32.755C57.0598 32.8743 56.8924 33.0433 56.7698 33.2621C56.6472 33.4775 56.5858 33.7311 56.5858 34.0227V38H53.8415ZM62.3827 30.0455V27.8182H71.2322V30.0455H68.1697V38H65.4452V30.0455H62.3827ZM73.401 38.1193C72.9138 38.1193 72.4829 38.0398 72.1084 37.8807C71.7372 37.7183 71.4455 37.473 71.2334 37.1449C71.0213 36.8168 70.9152 36.3991 70.9152 35.892C70.9152 35.4744 70.9865 35.1181 71.129 34.8232C71.2715 34.5249 71.4704 34.2812 71.7256 34.0923C71.9808 33.9034 72.2774 33.7592 72.6155 33.6598C72.9569 33.5604 73.3248 33.4957 73.7192 33.4659C74.1468 33.4328 74.4898 33.393 74.7483 33.3466C75.0102 33.2969 75.1991 33.2289 75.3151 33.1428C75.4311 33.0533 75.4891 32.9356 75.4891 32.7898V32.7699C75.4891 32.571 75.4128 32.4186 75.2604 32.3125C75.1079 32.2064 74.9124 32.1534 74.6737 32.1534C74.4119 32.1534 74.1981 32.2114 74.0324 32.3274C73.87 32.4401 73.7722 32.6141 73.7391 32.8494H71.2135C71.2467 32.3854 71.3941 31.9579 71.656 31.5668C71.9211 31.1723 72.3073 30.8575 72.8144 30.6222C73.3215 30.3835 73.9545 30.2642 74.7135 30.2642C75.2604 30.2642 75.7509 30.3288 76.1851 30.4581C76.6193 30.584 76.9888 30.7614 77.2938 30.9901C77.5987 31.2154 77.8307 31.4806 77.9898 31.7855C78.1522 32.0871 78.2334 32.4152 78.2334 32.7699V38H75.6681V36.9261H75.6084C75.4559 37.2112 75.2703 37.4415 75.0516 37.6172C74.8361 37.7929 74.5892 37.9205 74.3108 38C74.0357 38.0795 73.7325 38.1193 73.401 38.1193ZM74.2959 36.3892C74.5047 36.3892 74.7003 36.3461 74.8825 36.2599C75.0682 36.1738 75.219 36.0495 75.335 35.8871C75.451 35.7247 75.509 35.5275 75.509 35.2955V34.6591C75.4361 34.6889 75.3582 34.7171 75.2753 34.7436C75.1958 34.7701 75.1096 34.795 75.0168 34.8182C74.9273 34.8414 74.8312 34.8629 74.7284 34.8828C74.629 34.9027 74.5246 34.9209 74.4152 34.9375C74.2031 34.9706 74.0291 35.0253 73.8932 35.1016C73.7606 35.1745 73.6612 35.2656 73.5949 35.375C73.5319 35.4811 73.5004 35.6004 73.5004 35.733C73.5004 35.9451 73.575 36.1075 73.7242 36.2202C73.8733 36.3329 74.0639 36.3892 74.2959 36.3892ZM79.5447 38V30.3636H82.2094V31.8153H82.289C82.4282 31.2784 82.6486 30.8857 82.9502 30.6371C83.2551 30.3885 83.6114 30.2642 84.0191 30.2642C84.1384 30.2642 84.2561 30.2741 84.3721 30.294C84.4914 30.3106 84.6057 30.3355 84.7151 30.3686V32.7102C84.5792 32.6638 84.4118 32.629 84.213 32.6058C84.0141 32.5826 83.8434 32.571 83.7009 32.571C83.4324 32.571 83.1905 32.6323 82.9751 32.755C82.7629 32.8743 82.5956 33.0433 82.4729 33.2621C82.3503 33.4775 82.289 33.7311 82.289 34.0227V38H79.5447ZM88.8564 41.0227C88.0908 41.0227 87.4346 40.9134 86.8877 40.6946C86.3441 40.4792 85.9215 40.1809 85.6199 39.7997C85.3216 39.4219 85.1543 38.9877 85.1178 38.4972H87.7627C87.7892 38.6596 87.8555 38.7905 87.9616 38.8899C88.0676 38.9893 88.2035 39.0606 88.3692 39.1037C88.5383 39.1501 88.7272 39.1733 88.936 39.1733C89.2906 39.1733 89.584 39.0871 89.816 38.9148C90.0513 38.7424 90.1689 38.4309 90.1689 37.9801V36.6875H90.0894C89.99 36.946 89.8375 37.1664 89.632 37.3487C89.4265 37.5277 89.1796 37.6652 88.8912 37.7614C88.6029 37.8542 88.2864 37.9006 87.9417 37.9006C87.3981 37.9006 86.8976 37.7746 86.4403 37.5227C85.9862 37.2708 85.6216 36.8714 85.3465 36.3246C85.0747 35.7777 84.9388 35.0634 84.9388 34.1818C84.9388 33.2604 85.0814 32.5114 85.3664 31.9347C85.6547 31.358 86.026 30.9354 86.48 30.6669C86.9374 30.3984 87.418 30.2642 87.9218 30.2642C88.2996 30.2642 88.6311 30.3305 88.9161 30.4631C89.2011 30.5923 89.4398 30.7663 89.632 30.9851C89.8242 31.2005 89.9701 31.4375 90.0695 31.696H90.1292V30.3636H92.8735V37.9801C92.8735 38.6264 92.7061 39.175 92.3714 39.6257C92.0399 40.0798 91.5726 40.4261 90.9694 40.6648C90.3662 40.9034 89.6618 41.0227 88.8564 41.0227ZM88.9559 35.9517C89.2078 35.9517 89.4232 35.8821 89.6022 35.7429C89.7845 35.6004 89.9237 35.3982 90.0198 35.1364C90.1192 34.8712 90.1689 34.553 90.1689 34.1818C90.1689 33.804 90.1192 33.4808 90.0198 33.2124C89.9237 32.9406 89.7845 32.7334 89.6022 32.5909C89.4232 32.4451 89.2078 32.3722 88.9559 32.3722C88.704 32.3722 88.4885 32.4451 88.3096 32.5909C88.1339 32.7334 87.998 32.9406 87.9019 33.2124C87.8091 33.4808 87.7627 33.804 87.7627 34.1818C87.7627 34.5597 87.8091 34.8812 87.9019 35.1463C87.998 35.4081 88.1339 35.6087 88.3096 35.7479C88.4885 35.8838 88.704 35.9517 88.9559 35.9517ZM97.9284 38.1392C97.113 38.1392 96.4104 37.9834 95.8204 37.6719C95.2338 37.357 94.7813 36.9062 94.4632 36.3196C94.1483 35.7296 93.9909 35.0237 93.9909 34.2017C93.9909 33.4129 94.1499 32.7235 94.4681 32.1335C94.7863 31.5436 95.2354 31.0845 95.8154 30.7564C96.3954 30.4283 97.0799 30.2642 97.8687 30.2642C98.4454 30.2642 98.9674 30.3537 99.4347 30.5327C99.9021 30.7116 100.301 30.9718 100.633 31.3132C100.964 31.6513 101.22 32.0623 101.399 32.5462C101.578 33.0301 101.667 33.5753 101.667 34.1818V34.8182H94.846V33.3068H99.1414C99.1381 33.0881 99.0818 32.8958 98.9724 32.7301C98.8663 32.5611 98.7222 32.4302 98.5399 32.3374C98.3609 32.2412 98.157 32.1932 97.9284 32.1932C97.7063 32.1932 97.5025 32.2412 97.3169 32.3374C97.1312 32.4302 96.9821 32.5594 96.8694 32.7251C96.76 32.8909 96.702 33.0848 96.6954 33.3068V34.9375C96.6954 35.1828 96.7468 35.4015 96.8495 35.5938C96.9523 35.786 97.0998 35.9368 97.292 36.0462C97.4842 36.1555 97.7162 36.2102 97.988 36.2102C98.1769 36.2102 98.3493 36.1837 98.5051 36.1307C98.6642 36.0777 98.8 36.0014 98.9127 35.902C99.0254 35.7992 99.1083 35.6766 99.1613 35.5341H101.667C101.581 36.0644 101.377 36.5251 101.055 36.9162C100.734 37.304 100.308 37.6056 99.7778 37.821C99.2508 38.0331 98.6343 38.1392 97.9284 38.1392ZM107.341 30.3636V32.3523H102.31V30.3636H107.341ZM103.284 28.5341H106.028V35.544C106.028 35.6501 106.047 35.7396 106.083 35.8125C106.119 35.8821 106.176 35.9351 106.252 35.9716C106.328 36.0047 106.426 36.0213 106.545 36.0213C106.628 36.0213 106.724 36.0114 106.834 35.9915C106.946 35.9716 107.029 35.955 107.082 35.9418L107.48 37.8707C107.357 37.9072 107.182 37.9519 106.953 38.005C106.728 38.058 106.459 38.0928 106.148 38.1094C105.518 38.1425 104.989 38.0779 104.562 37.9155C104.134 37.7498 103.813 37.4896 103.597 37.1349C103.382 36.7803 103.277 36.3362 103.284 35.8026V28.5341Z" fill="white"/>
</svg>
