<svg width="84" height="50" viewBox="0 0 84 50" fill="none" xmlns="http://www.w3.org/2000/svg">
<path d="M24.4442 9.21378C24.4954 8.38281 24.2695 7.71591 23.7667 7.21307C23.2681 6.70597 22.5479 6.45241 21.6062 6.45241C20.967 6.45241 20.381 6.5696 19.8484 6.80398C19.3157 7.03835 18.8725 7.36009 18.5188 7.76918C18.1694 8.17401 17.9499 8.63636 17.8604 9.15625C17.805 9.4929 17.82 9.79758 17.9052 10.0703C17.9947 10.3388 18.1417 10.5774 18.3462 10.7862C18.5508 10.995 18.8043 11.1804 19.1069 11.3423C19.4094 11.5 19.7482 11.6385 20.1232 11.7578L21.4847 12.1797C21.9492 12.3288 22.3732 12.5014 22.7567 12.6974C23.1445 12.8935 23.4705 13.1278 23.7347 13.4006C23.9989 13.669 24.1864 13.9844 24.2972 14.3466C24.4123 14.7088 24.4293 15.1264 24.3484 15.5994C24.2333 16.3026 23.9563 16.9268 23.5174 17.4723C23.0785 18.0178 22.5096 18.4439 21.8107 18.7507C21.1119 19.0575 20.3065 19.2109 19.3945 19.2109C18.555 19.2109 17.8434 19.0682 17.2596 18.7827C16.68 18.4972 16.2518 18.1009 15.9748 17.5938C15.6978 17.0824 15.5913 16.4943 15.6552 15.8295H16.4734C16.4265 16.3707 16.5224 16.8395 16.761 17.2358C16.9996 17.6278 17.3555 17.9304 17.8285 18.1435C18.3058 18.3565 18.8704 18.4631 19.5224 18.4631C20.2298 18.4631 20.869 18.3416 21.44 18.0987C22.0153 17.8558 22.4883 17.5192 22.859 17.0888C23.234 16.6584 23.4684 16.1598 23.5621 15.593C23.6388 15.1328 23.5962 14.7365 23.4343 14.4041C23.2724 14.0717 22.9975 13.7862 22.6097 13.5476C22.2262 13.3047 21.7383 13.0916 21.146 12.9084L19.6758 12.4482C18.7042 12.1371 17.9947 11.7152 17.5472 11.1825C17.0998 10.6456 16.94 9.97869 17.0678 9.18182C17.1871 8.49574 17.4663 7.89276 17.9052 7.37287C18.3441 6.85298 18.896 6.44602 19.5607 6.15199C20.2255 5.85795 20.9499 5.71094 21.734 5.71094C22.5138 5.71094 23.1765 5.86222 23.7219 6.16477C24.2717 6.46307 24.6765 6.87642 24.9364 7.40483C25.2006 7.93324 25.2965 8.53622 25.2241 9.21378H24.4442ZM31.7695 9.18182L31.6481 9.87855H27.3654L27.4805 9.18182H31.7695ZM29.315 6.82955H30.0884L28.4648 16.6797C28.3967 17.0803 28.418 17.4084 28.5288 17.6641C28.6438 17.9155 28.8164 18.103 29.0465 18.2266C29.2809 18.3459 29.5472 18.4055 29.8455 18.4055C29.9776 18.4055 30.0969 18.3949 30.2035 18.3736C30.31 18.348 30.4165 18.3203 30.5231 18.2905L30.5934 19C30.4613 19.0469 30.3207 19.0852 30.1715 19.1151C30.0224 19.1449 29.8498 19.1598 29.6538 19.1598C29.2447 19.1598 28.8739 19.0682 28.5415 18.8849C28.2134 18.7017 27.9641 18.4354 27.7937 18.0859C27.6275 17.7365 27.587 17.3146 27.6722 16.8203L29.315 6.82955ZM36.7234 19.2045C35.837 19.2045 35.1019 18.9851 34.5181 18.5462C33.9343 18.1072 33.5273 17.5064 33.2972 16.7436C33.0671 15.9808 33.033 15.1115 33.195 14.1357C33.3569 13.1555 33.6808 12.282 34.1665 11.5149C34.6523 10.7479 35.2468 10.1428 35.9499 9.69957C36.6531 9.25639 37.4116 9.0348 38.2255 9.0348C38.7752 9.0348 39.2759 9.1456 39.7276 9.36719C40.1836 9.58878 40.5671 9.90625 40.8782 10.3196C41.1893 10.7287 41.4045 11.2251 41.5238 11.8089C41.6431 12.3928 41.6431 13.049 41.5238 13.7777L41.4343 14.2635H33.6616L33.783 13.554H40.7695C40.8888 12.8466 40.8548 12.2074 40.6673 11.6364C40.4798 11.0611 40.1687 10.6051 39.734 10.2685C39.3036 9.93182 38.7752 9.76349 38.1488 9.76349C37.5096 9.76349 36.9002 9.94886 36.3207 10.3196C35.7454 10.6861 35.2511 11.1761 34.8377 11.7898C34.4286 12.4034 34.1559 13.0788 34.0195 13.8161L33.9428 14.2124C33.8065 15.0561 33.8235 15.7997 33.994 16.4432C34.1687 17.0824 34.4925 17.5831 34.9656 17.9453C35.4386 18.3033 36.0565 18.4822 36.8192 18.4822C37.3519 18.4822 37.8249 18.3928 38.2383 18.2138C38.6559 18.0305 39.0096 17.8089 39.2994 17.549C39.5934 17.2891 39.8235 17.0376 39.9897 16.7947L40.6353 17.0824C40.4393 17.4105 40.158 17.7386 39.7915 18.0668C39.4251 18.3906 38.984 18.6612 38.4684 18.8786C37.9528 19.0959 37.3711 19.2045 36.7234 19.2045ZM42.7431 22.6818L44.9931 9.18182H45.7537L45.3958 11.3743H45.4917C45.7132 10.9524 45.9902 10.5646 46.3226 10.2109C46.6593 9.85724 47.0534 9.57386 47.5051 9.3608C47.9611 9.14347 48.4703 9.0348 49.0328 9.0348C49.8255 9.0348 50.4796 9.25213 50.9952 9.68679C51.5108 10.1214 51.8667 10.7202 52.0627 11.483C52.2587 12.2457 52.2757 13.1236 52.1138 14.1165C51.9476 15.1051 51.6365 15.983 51.1806 16.75C50.7289 17.5128 50.1749 18.1136 49.5186 18.5526C48.8624 18.9872 48.1422 19.2045 47.3581 19.2045C46.7999 19.2045 46.3269 19.098 45.9391 18.8849C45.5556 18.6719 45.253 18.3885 45.0314 18.0348C44.8098 17.6768 44.6564 17.2848 44.5712 16.8587H44.4945L43.5229 22.6818H42.7431ZM44.9419 14.1101C44.8056 14.9453 44.8056 15.6932 44.9419 16.3537C45.0826 17.0099 45.3553 17.5298 45.7601 17.9134C46.1692 18.2926 46.704 18.4822 47.3645 18.4822C48.0336 18.4822 48.6408 18.2905 49.1863 17.907C49.736 17.5192 50.1962 16.995 50.5669 16.3345C50.9419 15.674 51.1976 14.9325 51.334 14.1101C51.4703 13.2876 51.4703 12.5483 51.334 11.892C51.1976 11.2358 50.927 10.718 50.5222 10.3388C50.1174 9.95526 49.5762 9.76349 48.8986 9.76349C48.2338 9.76349 47.6266 9.95312 47.0769 10.3324C46.5272 10.7074 46.0669 11.223 45.6962 11.8793C45.3297 12.5312 45.0783 13.2749 44.9419 14.1101ZM58.9837 19L59.0859 18.3928L64.1229 13.5092C64.8516 12.8104 65.4332 12.218 65.8679 11.7322C66.3068 11.2464 66.6328 10.8075 66.8459 10.4155C67.0632 10.0234 67.206 9.61435 67.2741 9.18821C67.3636 8.65554 67.3232 8.18466 67.1527 7.77557C66.9865 7.36222 66.7116 7.04048 66.3281 6.81037C65.9489 6.58026 65.4865 6.4652 64.9411 6.4652C64.37 6.4652 63.8438 6.59304 63.3622 6.84872C62.8807 7.10014 62.478 7.44105 62.1541 7.87145C61.8345 8.30185 61.63 8.78338 61.5405 9.31605H60.767C60.8778 8.64276 61.1357 8.03551 61.5405 7.49432C61.9496 6.95312 62.4567 6.52486 63.0618 6.20952C63.6669 5.88991 64.3253 5.73011 65.0369 5.73011C65.7273 5.73011 66.3175 5.88139 66.8075 6.18395C67.2976 6.48651 67.6534 6.89986 67.875 7.42401C68.0966 7.94389 68.152 8.53196 68.0412 9.18821C67.9645 9.67401 67.8068 10.1406 67.5682 10.5881C67.3295 11.0312 66.9652 11.5277 66.4751 12.0774C65.9893 12.6229 65.3331 13.294 64.5064 14.0909L60.2685 18.1882L60.2621 18.2585H67.1335L67.0057 19H58.9837ZM9.828 33.326H8.288C8.218 34.698 7.714 36.14 5.852 36.98C5.614 36.588 4.886 35.79 4.522 35.496C6.23 34.81 6.398 33.872 6.398 32.948V31.45H11.746V34.418C11.746 34.824 11.774 35.006 11.97 35.006H12.558C12.796 35.006 13.174 34.964 13.384 34.894C13.412 35.398 13.454 36.098 13.524 36.56C13.286 36.672 12.908 36.686 12.586 36.686H11.774C10.15 36.686 9.828 35.986 9.828 34.39V33.326ZM4.858 33.312L3.472 34.712C3.024 34.068 2.002 33.074 1.232 32.388L2.534 31.156C3.29 31.772 4.368 32.696 4.858 33.312ZM3.892 40.172L4.9 39.262C5.068 39.808 5.418 40.578 5.67 40.956C3.01 43.35 2.492 43.812 2.226 44.19C2.072 43.7 1.568 42.846 1.232 42.468C1.568 42.216 1.932 41.698 1.932 41.026V37.246H0.42V35.3H3.892V40.172ZM10.346 38.94H7.546C7.924 39.542 8.414 40.074 9.002 40.55C9.534 40.088 9.982 39.556 10.346 38.94ZM11.69 36.98L12.936 37.498C12.46 39.234 11.69 40.564 10.654 41.572C11.55 42.006 12.586 42.328 13.734 42.524C13.314 42.958 12.768 43.784 12.516 44.33C11.144 44.008 9.968 43.518 8.946 42.874C7.826 43.518 6.524 43.966 5.068 44.288C4.886 43.77 4.48 42.958 4.144 42.524C5.348 42.342 6.44 42.034 7.378 41.572C6.72 40.9 6.16 40.116 5.684 39.22L6.51 38.94H5.306V37.05H11.368L11.69 36.98ZM18.088 42.23V42.58H23.786V42.23H18.088ZM23.786 38.198H18.088V38.548H23.786V38.198ZM18.088 40.844V41.25H23.786V40.844H18.088ZM23.786 39.892V39.514H18.088V39.892H23.786ZM18.508 33.396V32.836H17.318V33.396H18.508ZM20.356 32.836V33.396H21.546V32.836H20.356ZM23.394 32.836V33.396H24.612V32.836H23.394ZM25.802 42.58H27.398V43.98H14.658V42.58H16.17V37.008H19.726L19.768 36.616H14.882V35.16H19.88L19.894 34.726H15.386V31.52H26.656V34.726H21.966L21.91 35.16H26.922V36.616H21.714L21.644 37.008H25.802V42.58ZM31.108 31.086L33.026 31.688C32.676 32.612 32.242 33.578 31.752 34.502V44.316H29.82V37.512C29.596 37.792 29.358 38.058 29.134 38.31C28.952 37.806 28.406 36.672 28.07 36.168C29.274 34.95 30.436 33.018 31.108 31.086ZM33.726 37.456L35.7 37.862C35.322 39.612 34.622 41.404 33.866 42.524C33.488 42.202 32.62 41.67 32.144 41.432C32.886 40.494 33.446 38.94 33.726 37.456ZM39.522 35.314H38.066V42.118C38.066 43.042 37.926 43.602 37.352 43.938C36.792 44.26 36.078 44.344 35.154 44.344C35.07 43.756 34.762 42.846 34.468 42.3C35.014 42.314 35.602 42.314 35.798 42.314C35.98 42.314 36.05 42.272 36.05 42.09V35.314H34.706C34.3 36.084 33.852 36.77 33.404 37.316C33.04 36.952 32.228 36.28 31.766 35.972C32.844 34.838 33.726 32.948 34.202 31.072L36.204 31.534C36.022 32.178 35.812 32.822 35.56 33.438H39.928L40.236 33.382L41.678 33.634C41.524 34.838 41.272 36.196 41.076 37.078L39.34 36.77C39.396 36.378 39.466 35.86 39.522 35.314ZM38.276 37.904L40.096 37.288C40.782 38.716 41.328 40.55 41.51 41.796L39.55 42.482C39.438 41.25 38.906 39.332 38.276 37.904ZM44.758 41.124H46.592V38.716H44.758V41.124ZM46.592 36.966V35.076H44.758V36.966H46.592ZM51.52 33.172H55.342C55.342 33.172 55.342 33.816 55.328 34.054C55.16 40.284 55.02 42.552 54.432 43.322C53.998 43.938 53.564 44.106 52.948 44.218C52.388 44.316 51.52 44.302 50.68 44.274C50.652 43.728 50.372 42.86 50.008 42.3C50.904 42.384 51.744 42.384 52.122 42.384C52.402 42.384 52.556 42.328 52.738 42.132C53.144 41.698 53.312 39.64 53.424 35.02H50.764C50.386 35.818 49.98 36.532 49.574 37.106C49.322 36.882 48.846 36.518 48.426 36.238V42.902H44.758V43.896H42.924V33.312H44.52C44.66 32.598 44.786 31.716 44.828 31.03L47.054 31.338C46.816 32.024 46.578 32.724 46.354 33.312H48.426V35.174C49.126 34.04 49.728 32.528 50.092 31.072L52.052 31.534C51.898 32.08 51.716 32.626 51.52 33.172ZM52.934 39.654L51.212 40.704C50.848 39.85 50.008 38.478 49.378 37.442L50.974 36.546C51.604 37.498 52.514 38.828 52.934 39.654ZM59.892 41.32H65.912V40.06H59.892V41.32ZM65.912 36.854H59.892V38.142H65.912V36.854ZM65.912 33.718H59.892V34.936H65.912V33.718ZM57.834 31.73H68.082V44.134H65.912V43.308H59.892V44.134H57.834V31.73ZM82.768 31.786V33.676H76.552V31.786H82.768ZM76.034 37.946L74.984 39.542C74.802 39.15 74.522 38.632 74.214 38.114V44.33H72.198V39.472C71.904 40.354 71.554 41.166 71.176 41.754C70.98 41.194 70.504 40.284 70.182 39.738C70.896 38.758 71.512 37.022 71.834 35.552H70.35V33.676H72.198V31.03H74.214V33.676H75.74V35.552H74.214V35.804C74.634 36.238 75.796 37.624 76.034 37.946ZM76.3 38.156L78.12 38.576C77.728 40.228 77.028 42.006 76.328 43.112C75.964 42.818 75.18 42.3 74.746 42.076C75.432 41.124 75.992 39.584 76.3 38.156ZM83.538 37.022H80.57V42.006C80.57 42.958 80.444 43.532 79.856 43.868C79.282 44.204 78.568 44.246 77.63 44.246C77.574 43.644 77.336 42.748 77.07 42.146C77.532 42.174 78.092 42.174 78.274 42.174C78.442 42.174 78.498 42.132 78.498 41.964V37.022H75.894V35.132H83.538V37.022ZM80.766 38.66L82.432 38.086C83.048 39.528 83.622 41.348 83.776 42.552L81.956 43.224C81.844 42.034 81.34 40.144 80.766 38.66Z" fill="white"/>
</svg>
