<svg width="394" height="106" viewBox="0 0 394 106" fill="none" xmlns="http://www.w3.org/2000/svg">
<path d="M182.392 47.2138C182.443 46.3828 182.217 45.7159 181.714 45.2131C181.215 44.706 180.495 44.4524 179.553 44.4524C178.914 44.4524 178.328 44.5696 177.796 44.804C177.263 45.0384 176.82 45.3601 176.466 45.7692C176.117 46.174 175.897 46.6364 175.808 47.1562C175.752 47.4929 175.767 47.7976 175.852 48.0703C175.942 48.3388 176.089 48.5774 176.294 48.7862C176.498 48.995 176.752 49.1804 177.054 49.3423C177.357 49.5 177.695 49.6385 178.07 49.7578L179.432 50.1797C179.896 50.3288 180.32 50.5014 180.704 50.6974C181.092 50.8935 181.418 51.1278 181.682 51.4006C181.946 51.669 182.134 51.9844 182.244 52.3466C182.36 52.7088 182.377 53.1264 182.296 53.5994C182.181 54.3026 181.904 54.9268 181.465 55.4723C181.026 56.0178 180.457 56.4439 179.758 56.7507C179.059 57.0575 178.254 57.2109 177.342 57.2109C176.502 57.2109 175.791 57.0682 175.207 56.7827C174.627 56.4972 174.199 56.1009 173.922 55.5938C173.645 55.0824 173.539 54.4943 173.602 53.8295H174.421C174.374 54.3707 174.47 54.8395 174.708 55.2358C174.947 55.6278 175.303 55.9304 175.776 56.1435C176.253 56.3565 176.818 56.4631 177.47 56.4631C178.177 56.4631 178.816 56.3416 179.387 56.0987C179.963 55.8558 180.436 55.5192 180.806 55.0888C181.181 54.6584 181.416 54.1598 181.509 53.593C181.586 53.1328 181.544 52.7365 181.382 52.4041C181.22 52.0717 180.945 51.7862 180.557 51.5476C180.173 51.3047 179.686 51.0916 179.093 50.9084L177.623 50.4482C176.651 50.1371 175.942 49.7152 175.494 49.1825C175.047 48.6456 174.887 47.9787 175.015 47.1818C175.134 46.4957 175.414 45.8928 175.852 45.3729C176.291 44.853 176.843 44.446 177.508 44.152C178.173 43.858 178.897 43.7109 179.681 43.7109C180.461 43.7109 181.124 43.8622 181.669 44.1648C182.219 44.4631 182.624 44.8764 182.884 45.4048C183.148 45.9332 183.244 46.5362 183.171 47.2138H182.392ZM189.717 47.1818L189.595 47.8786H185.313L185.428 47.1818H189.717ZM187.262 44.8295H188.036L186.412 54.6797C186.344 55.0803 186.365 55.4084 186.476 55.6641C186.591 55.9155 186.764 56.103 186.994 56.2266C187.228 56.3459 187.494 56.4055 187.793 56.4055C187.925 56.4055 188.044 56.3949 188.151 56.3736C188.257 56.348 188.364 56.3203 188.47 56.2905L188.541 57C188.409 57.0469 188.268 57.0852 188.119 57.1151C187.97 57.1449 187.797 57.1598 187.601 57.1598C187.192 57.1598 186.821 57.0682 186.489 56.8849C186.161 56.7017 185.911 56.4354 185.741 56.0859C185.575 55.7365 185.534 55.3146 185.619 54.8203L187.262 44.8295ZM194.671 57.2045C193.784 57.2045 193.049 56.9851 192.465 56.5462C191.882 56.1072 191.475 55.5064 191.244 54.7436C191.014 53.9808 190.98 53.1115 191.142 52.1357C191.304 51.1555 191.628 50.282 192.114 49.5149C192.6 48.7479 193.194 48.1428 193.897 47.6996C194.6 47.2564 195.359 47.0348 196.173 47.0348C196.722 47.0348 197.223 47.1456 197.675 47.3672C198.131 47.5888 198.514 47.9062 198.825 48.3196C199.137 48.7287 199.352 49.2251 199.471 49.8089C199.59 50.3928 199.59 51.049 199.471 51.7777L199.382 52.2635H191.609L191.73 51.554H198.717C198.836 50.8466 198.802 50.2074 198.615 49.6364C198.427 49.0611 198.116 48.6051 197.681 48.2685C197.251 47.9318 196.722 47.7635 196.096 47.7635C195.457 47.7635 194.847 47.9489 194.268 48.3196C193.693 48.6861 193.198 49.1761 192.785 49.7898C192.376 50.4034 192.103 51.0788 191.967 51.8161L191.89 52.2124C191.754 53.0561 191.771 53.7997 191.941 54.4432C192.116 55.0824 192.44 55.5831 192.913 55.9453C193.386 56.3033 194.004 56.4822 194.767 56.4822C195.299 56.4822 195.772 56.3928 196.186 56.2138C196.603 56.0305 196.957 55.8089 197.247 55.549C197.541 55.2891 197.771 55.0376 197.937 54.7947L198.583 55.0824C198.387 55.4105 198.105 55.7386 197.739 56.0668C197.372 56.3906 196.931 56.6612 196.416 56.8786C195.9 57.0959 195.318 57.2045 194.671 57.2045ZM200.69 60.6818L202.94 47.1818H203.701L203.343 49.3743H203.439C203.661 48.9524 203.938 48.5646 204.27 48.2109C204.607 47.8572 205.001 47.5739 205.452 47.3608C205.908 47.1435 206.418 47.0348 206.98 47.0348C207.773 47.0348 208.427 47.2521 208.942 47.6868C209.458 48.1214 209.814 48.7202 210.01 49.483C210.206 50.2457 210.223 51.1236 210.061 52.1165C209.895 53.1051 209.584 53.983 209.128 54.75C208.676 55.5128 208.122 56.1136 207.466 56.5526C206.81 56.9872 206.089 57.2045 205.305 57.2045C204.747 57.2045 204.274 57.098 203.886 56.8849C203.503 56.6719 203.2 56.3885 202.979 56.0348C202.757 55.6768 202.604 55.2848 202.518 54.8587H202.442L201.47 60.6818H200.69ZM202.889 52.1101C202.753 52.9453 202.753 53.6932 202.889 54.3537C203.03 55.0099 203.303 55.5298 203.707 55.9134C204.116 56.2926 204.651 56.4822 205.312 56.4822C205.981 56.4822 206.588 56.2905 207.134 55.907C207.683 55.5192 208.143 54.995 208.514 54.3345C208.889 53.674 209.145 52.9325 209.281 52.1101C209.418 51.2876 209.418 50.5483 209.281 49.892C209.145 49.2358 208.874 48.718 208.469 48.3388C208.065 47.9553 207.523 47.7635 206.846 47.7635C206.181 47.7635 205.574 47.9531 205.024 48.3324C204.474 48.7074 204.014 49.223 203.643 49.8793C203.277 50.5312 203.026 51.2749 202.889 52.1101ZM221.015 57.179C220.24 57.179 219.569 57.032 219.002 56.7379C218.435 56.4439 218.013 56.0369 217.736 55.517C217.464 54.9972 217.381 54.4006 217.487 53.7273H218.286C218.209 54.2599 218.275 54.7308 218.484 55.1399C218.693 55.5447 219.015 55.8622 219.449 56.0923C219.888 56.3224 220.412 56.4375 221.022 56.4375C221.665 56.4375 222.262 56.3097 222.812 56.054C223.361 55.7983 223.817 55.451 224.18 55.0121C224.542 54.5689 224.768 54.0703 224.857 53.5163C224.947 52.9411 224.878 52.4382 224.653 52.0078C224.427 51.5774 224.067 51.2408 223.572 50.9979C223.078 50.755 222.473 50.6335 221.757 50.6335H221.258L221.373 49.892H221.84C222.449 49.892 223.016 49.7791 223.54 49.5533C224.064 49.3232 224.501 49.0014 224.851 48.5881C225.2 48.1747 225.417 47.6868 225.503 47.1243C225.592 46.6087 225.558 46.1506 225.4 45.75C225.243 45.3494 224.974 45.0362 224.595 44.8104C224.22 44.5803 223.745 44.4652 223.17 44.4652C222.611 44.4652 222.081 44.5781 221.578 44.804C221.079 45.0298 220.657 45.3473 220.312 45.7564C219.967 46.1655 219.75 46.6406 219.66 47.1818H218.874C218.993 46.5043 219.26 45.9077 219.673 45.392C220.086 44.8722 220.598 44.4652 221.207 44.1712C221.821 43.8771 222.477 43.7301 223.176 43.7301C223.913 43.7301 224.531 43.8835 225.03 44.1903C225.532 44.4972 225.893 44.9105 226.11 45.4304C226.331 45.9503 226.389 46.5277 226.282 47.1626C226.167 47.9169 225.852 48.5604 225.336 49.093C224.821 49.6214 224.19 49.9922 223.444 50.2053V50.2692C224.258 50.4609 224.861 50.8551 225.253 51.4517C225.65 52.044 225.78 52.7536 225.643 53.5803C225.528 54.2791 225.256 54.8991 224.825 55.4403C224.395 55.9815 223.851 56.4077 223.195 56.7188C222.539 57.0256 221.812 57.179 221.015 57.179Z" fill="white"/>
<path d="M0.5 42V12H143" stroke="white" stroke-opacity="0.45" stroke-dasharray="2 2"/>
<path d="M1.5 64V94H143" stroke="white" stroke-opacity="0.45" stroke-dasharray="2 2"/>
<path d="M392.5 42V12H272.5" stroke="white" stroke-opacity="0.45" stroke-dasharray="2 2"/>
<path d="M393.5 64.5V94.5H254.5" stroke="white" stroke-opacity="0.45" stroke-dasharray="2 2"/>
<circle cx="154" cy="12" r="5" fill="white"/>
<path d="M154.001 5.33301C157.683 5.33301 160.667 8.31767 160.667 11.9997C160.667 15.6817 157.683 18.6663 154.001 18.6663C150.319 18.6663 147.334 15.6817 147.334 11.9997C147.334 8.31767 150.319 5.33301 154.001 5.33301ZM156.329 9.39501L152.922 12.807L151.605 11.491L150.663 12.4337L152.923 14.6937L157.273 10.3377L156.329 9.39501Z" fill="#62D62B"/>
<path d="M167.486 9.18182V7.27273H175.071V9.18182H172.446V16H170.111V9.18182H167.486ZM176.93 16.1023C176.513 16.1023 176.143 16.0341 175.822 15.8977C175.504 15.7585 175.254 15.5483 175.072 15.267C174.89 14.9858 174.8 14.6278 174.8 14.1932C174.8 13.8352 174.861 13.5298 174.983 13.277C175.105 13.0213 175.275 12.8125 175.494 12.6506C175.713 12.4886 175.967 12.3651 176.257 12.2798C176.55 12.1946 176.865 12.1392 177.203 12.1136C177.569 12.0852 177.863 12.0511 178.085 12.0114C178.309 11.9687 178.471 11.9105 178.571 11.8366C178.67 11.7599 178.72 11.6591 178.72 11.5341V11.517C178.72 11.3466 178.655 11.2159 178.524 11.125C178.393 11.0341 178.226 10.9886 178.021 10.9886C177.797 10.9886 177.613 11.0384 177.471 11.1378C177.332 11.2344 177.248 11.3835 177.22 11.5852H175.055C175.084 11.1875 175.21 10.821 175.434 10.4858C175.662 10.1477 175.993 9.87784 176.427 9.67614C176.862 9.47159 177.405 9.36932 178.055 9.36932C178.524 9.36932 178.944 9.42472 179.317 9.53551C179.689 9.64347 180.006 9.79545 180.267 9.99148C180.528 10.1847 180.727 10.4119 180.863 10.6733C181.003 10.9318 181.072 11.2131 181.072 11.517V16H178.873V15.0795H178.822C178.692 15.3239 178.532 15.5213 178.345 15.6719C178.16 15.8224 177.949 15.9318 177.71 16C177.474 16.0682 177.214 16.1023 176.93 16.1023ZM177.697 14.6193C177.876 14.6193 178.044 14.5824 178.2 14.5085C178.359 14.4347 178.488 14.3281 178.588 14.1889C178.687 14.0497 178.737 13.8807 178.737 13.6818V13.1364C178.675 13.1619 178.608 13.1861 178.537 13.2088C178.469 13.2315 178.395 13.2528 178.315 13.2727C178.238 13.2926 178.156 13.3111 178.068 13.3281C177.983 13.3452 177.893 13.3608 177.8 13.375C177.618 13.4034 177.469 13.4503 177.352 13.5156C177.238 13.5781 177.153 13.6562 177.096 13.75C177.042 13.8409 177.015 13.9432 177.015 14.0568C177.015 14.2386 177.079 14.3778 177.207 14.4744C177.335 14.571 177.498 14.6193 177.697 14.6193ZM182.196 16V9.45455H184.48V10.6989H184.548C184.668 10.2386 184.857 9.90199 185.115 9.68892C185.377 9.47585 185.682 9.36932 186.031 9.36932C186.134 9.36932 186.235 9.37784 186.334 9.39489C186.436 9.40909 186.534 9.4304 186.628 9.45881V11.4659C186.512 11.4261 186.368 11.3963 186.198 11.3764C186.027 11.3565 185.881 11.3466 185.759 11.3466C185.529 11.3466 185.321 11.3991 185.137 11.5043C184.955 11.6065 184.811 11.7514 184.706 11.9389C184.601 12.1236 184.548 12.3409 184.548 12.5909V16H182.196ZM190.178 18.5909C189.521 18.5909 188.959 18.4972 188.49 18.3097C188.024 18.125 187.662 17.8693 187.404 17.5426C187.148 17.2188 187.004 16.8466 186.973 16.4261H189.24C189.263 16.5653 189.32 16.6776 189.411 16.7628C189.502 16.848 189.618 16.9091 189.76 16.946C189.905 16.9858 190.067 17.0057 190.246 17.0057C190.55 17.0057 190.801 16.9318 191 16.7841C191.202 16.6364 191.303 16.3693 191.303 15.983V14.875H191.235C191.149 15.0966 191.019 15.2855 190.843 15.4418C190.666 15.5952 190.455 15.7131 190.208 15.7955C189.96 15.875 189.689 15.9148 189.394 15.9148C188.928 15.9148 188.499 15.8068 188.107 15.5909C187.718 15.375 187.405 15.0327 187.169 14.5639C186.936 14.0952 186.82 13.483 186.82 12.7273C186.82 11.9375 186.942 11.2955 187.186 10.8011C187.433 10.3068 187.752 9.9446 188.141 9.71449C188.533 9.48438 188.945 9.36932 189.377 9.36932C189.7 9.36932 189.985 9.42614 190.229 9.53977C190.473 9.65057 190.678 9.79972 190.843 9.98722C191.007 10.1719 191.132 10.375 191.218 10.5966H191.269V9.45455H193.621V15.983C193.621 16.5369 193.477 17.0071 193.191 17.3935C192.906 17.7827 192.506 18.0795 191.989 18.2841C191.472 18.4886 190.868 18.5909 190.178 18.5909ZM190.263 14.2443C190.479 14.2443 190.664 14.1847 190.817 14.0653C190.973 13.9432 191.093 13.7699 191.175 13.5455C191.26 13.3182 191.303 13.0455 191.303 12.7273C191.303 12.4034 191.26 12.1264 191.175 11.8963C191.093 11.6634 190.973 11.4858 190.817 11.3636C190.664 11.2386 190.479 11.1761 190.263 11.1761C190.047 11.1761 189.862 11.2386 189.709 11.3636C189.558 11.4858 189.442 11.6634 189.36 11.8963C189.28 12.1264 189.24 12.4034 189.24 12.7273C189.24 13.0511 189.28 13.3267 189.36 13.554C189.442 13.7784 189.558 13.9503 189.709 14.0696C189.862 14.1861 190.047 14.2443 190.263 14.2443ZM197.954 16.1193C197.255 16.1193 196.653 15.9858 196.147 15.7188C195.644 15.4489 195.256 15.0625 194.983 14.5597C194.714 14.054 194.579 13.4489 194.579 12.7443C194.579 12.0682 194.715 11.4773 194.988 10.9716C195.26 10.4659 195.645 10.0724 196.143 9.79119C196.64 9.50994 197.226 9.36932 197.903 9.36932C198.397 9.36932 198.844 9.44602 199.245 9.59943C199.645 9.75284 199.988 9.97585 200.272 10.2685C200.556 10.5582 200.775 10.9105 200.928 11.3253C201.081 11.7401 201.158 12.2074 201.158 12.7273V13.2727H195.312V11.9773H198.993C198.991 11.7898 198.942 11.625 198.849 11.483C198.758 11.3381 198.634 11.2259 198.478 11.1463C198.324 11.0639 198.15 11.0227 197.954 11.0227C197.763 11.0227 197.589 11.0639 197.43 11.1463C197.27 11.2259 197.143 11.3366 197.046 11.4787C196.952 11.6207 196.903 11.7869 196.897 11.9773V13.375C196.897 13.5852 196.941 13.7727 197.029 13.9375C197.117 14.1023 197.243 14.2315 197.408 14.3253C197.573 14.419 197.772 14.4659 198.005 14.4659C198.167 14.4659 198.314 14.4432 198.448 14.3977C198.584 14.3523 198.701 14.2869 198.797 14.2017C198.894 14.1136 198.965 14.0085 199.01 13.8864H201.158C201.084 14.3409 200.91 14.7358 200.634 15.071C200.358 15.4034 199.993 15.6619 199.539 15.8466C199.087 16.0284 198.559 16.1193 197.954 16.1193ZM206.021 9.45455V11.1591H201.709V9.45455H206.021ZM202.544 7.88636H204.896V13.8949C204.896 13.9858 204.912 14.0625 204.943 14.125C204.975 14.1847 205.023 14.2301 205.088 14.2614C205.154 14.2898 205.237 14.304 205.34 14.304C205.411 14.304 205.493 14.2955 205.587 14.2784C205.683 14.2614 205.754 14.2472 205.8 14.2358L206.141 15.8892C206.036 15.9205 205.885 15.9588 205.689 16.0043C205.496 16.0497 205.266 16.0795 204.999 16.0938C204.459 16.1222 204.006 16.0668 203.639 15.9276C203.273 15.7855 202.997 15.5625 202.813 15.2585C202.628 14.9545 202.539 14.5739 202.544 14.1165V7.88636ZM209.099 9.18182V7.27273H216.684V9.18182H214.059V16H211.724V9.18182H209.099ZM216.931 16V9.45455H219.215V10.6989H219.283C219.402 10.2386 219.591 9.90199 219.85 9.68892C220.111 9.47585 220.416 9.36932 220.766 9.36932C220.868 9.36932 220.969 9.37784 221.068 9.39489C221.171 9.40909 221.269 9.4304 221.362 9.45881V11.4659C221.246 11.4261 221.102 11.3963 220.932 11.3764C220.762 11.3565 220.615 11.3466 220.493 11.3466C220.263 11.3466 220.056 11.3991 219.871 11.5043C219.689 11.6065 219.546 11.7514 219.441 11.9389C219.335 12.1236 219.283 12.3409 219.283 12.5909V16H216.931ZM222.134 16V9.45455H224.486V16H222.134ZM223.31 8.77273C222.992 8.77273 222.719 8.66761 222.492 8.45739C222.264 8.24716 222.151 7.99432 222.151 7.69886C222.151 7.40341 222.264 7.15057 222.492 6.94034C222.719 6.73011 222.992 6.625 223.31 6.625C223.631 6.625 223.904 6.73011 224.128 6.94034C224.355 7.15057 224.469 7.40341 224.469 7.69886C224.469 7.99432 224.355 8.24716 224.128 8.45739C223.904 8.66761 223.631 8.77273 223.31 8.77273ZM228.838 18.5909C228.182 18.5909 227.619 18.4972 227.15 18.3097C226.684 18.125 226.322 17.8693 226.064 17.5426C225.808 17.2188 225.665 16.8466 225.633 16.4261H227.9C227.923 16.5653 227.98 16.6776 228.071 16.7628C228.162 16.848 228.278 16.9091 228.42 16.946C228.565 16.9858 228.727 17.0057 228.906 17.0057C229.21 17.0057 229.461 16.9318 229.66 16.7841C229.862 16.6364 229.963 16.3693 229.963 15.983V14.875H229.895C229.809 15.0966 229.679 15.2855 229.503 15.4418C229.327 15.5952 229.115 15.7131 228.868 15.7955C228.621 15.875 228.349 15.9148 228.054 15.9148C227.588 15.9148 227.159 15.8068 226.767 15.5909C226.378 15.375 226.065 15.0327 225.829 14.5639C225.596 14.0952 225.48 13.483 225.48 12.7273C225.48 11.9375 225.602 11.2955 225.846 10.8011C226.094 10.3068 226.412 9.9446 226.801 9.71449C227.193 9.48438 227.605 9.36932 228.037 9.36932C228.361 9.36932 228.645 9.42614 228.889 9.53977C229.133 9.65057 229.338 9.79972 229.503 9.98722C229.667 10.1719 229.792 10.375 229.878 10.5966H229.929V9.45455H232.281V15.983C232.281 16.5369 232.138 17.0071 231.851 17.3935C231.567 17.7827 231.166 18.0795 230.649 18.2841C230.132 18.4886 229.528 18.5909 228.838 18.5909ZM228.923 14.2443C229.139 14.2443 229.324 14.1847 229.477 14.0653C229.633 13.9432 229.753 13.7699 229.835 13.5455C229.92 13.3182 229.963 13.0455 229.963 12.7273C229.963 12.4034 229.92 12.1264 229.835 11.8963C229.753 11.6634 229.633 11.4858 229.477 11.3636C229.324 11.2386 229.139 11.1761 228.923 11.1761C228.707 11.1761 228.523 11.2386 228.369 11.3636C228.219 11.4858 228.102 11.6634 228.02 11.8963C227.94 12.1264 227.9 12.4034 227.9 12.7273C227.9 13.0511 227.94 13.3267 228.02 13.554C228.102 13.7784 228.219 13.9503 228.369 14.0696C228.523 14.1861 228.707 14.2443 228.923 14.2443ZM236.631 18.5909C235.975 18.5909 235.412 18.4972 234.943 18.3097C234.477 18.125 234.115 17.8693 233.857 17.5426C233.601 17.2188 233.458 16.8466 233.426 16.4261H235.693C235.716 16.5653 235.773 16.6776 235.864 16.7628C235.955 16.848 236.071 16.9091 236.213 16.946C236.358 16.9858 236.52 17.0057 236.699 17.0057C237.003 17.0057 237.254 16.9318 237.453 16.7841C237.655 16.6364 237.756 16.3693 237.756 15.983V14.875H237.688C237.602 15.0966 237.472 15.2855 237.296 15.4418C237.119 15.5952 236.908 15.7131 236.661 15.7955C236.414 15.875 236.142 15.9148 235.847 15.9148C235.381 15.9148 234.952 15.8068 234.56 15.5909C234.171 15.375 233.858 15.0327 233.622 14.5639C233.389 14.0952 233.273 13.483 233.273 12.7273C233.273 11.9375 233.395 11.2955 233.639 10.8011C233.887 10.3068 234.205 9.9446 234.594 9.71449C234.986 9.48438 235.398 9.36932 235.83 9.36932C236.154 9.36932 236.438 9.42614 236.682 9.53977C236.926 9.65057 237.131 9.79972 237.296 9.98722C237.46 10.1719 237.585 10.375 237.671 10.5966H237.722V9.45455H240.074V15.983C240.074 16.5369 239.931 17.0071 239.644 17.3935C239.36 17.7827 238.959 18.0795 238.442 18.2841C237.925 18.4886 237.321 18.5909 236.631 18.5909ZM236.716 14.2443C236.932 14.2443 237.117 14.1847 237.27 14.0653C237.426 13.9432 237.546 13.7699 237.628 13.5455C237.713 13.3182 237.756 13.0455 237.756 12.7273C237.756 12.4034 237.713 12.1264 237.628 11.8963C237.546 11.6634 237.426 11.4858 237.27 11.3636C237.117 11.2386 236.932 11.1761 236.716 11.1761C236.5 11.1761 236.316 11.2386 236.162 11.3636C236.012 11.4858 235.895 11.6634 235.813 11.8963C235.733 12.1264 235.693 12.4034 235.693 12.7273C235.693 13.0511 235.733 13.3267 235.813 13.554C235.895 13.7784 236.012 13.9503 236.162 14.0696C236.316 14.1861 236.5 14.2443 236.716 14.2443ZM244.407 16.1193C243.708 16.1193 243.106 15.9858 242.6 15.7188C242.097 15.4489 241.709 15.0625 241.437 14.5597C241.167 14.054 241.032 13.4489 241.032 12.7443C241.032 12.0682 241.168 11.4773 241.441 10.9716C241.714 10.4659 242.099 10.0724 242.596 9.79119C243.093 9.50994 243.68 9.36932 244.356 9.36932C244.85 9.36932 245.297 9.44602 245.698 9.59943C246.099 9.75284 246.441 9.97585 246.725 10.2685C247.009 10.5582 247.228 10.9105 247.381 11.3253C247.535 11.7401 247.611 12.2074 247.611 12.7273V13.2727H241.765V11.9773H245.447C245.444 11.7898 245.395 11.625 245.302 11.483C245.211 11.3381 245.087 11.2259 244.931 11.1463C244.778 11.0639 244.603 11.0227 244.407 11.0227C244.216 11.0227 244.042 11.0639 243.883 11.1463C243.724 11.2259 243.596 11.3366 243.499 11.4787C243.405 11.6207 243.356 11.7869 243.35 11.9773V13.375C243.35 13.5852 243.394 13.7727 243.482 13.9375C243.57 14.1023 243.697 14.2315 243.861 14.3253C244.026 14.419 244.225 14.4659 244.458 14.4659C244.62 14.4659 244.768 14.4432 244.901 14.3977C245.037 14.3523 245.154 14.2869 245.251 14.2017C245.347 14.1136 245.418 14.0085 245.464 13.8864H247.611C247.537 14.3409 247.363 14.7358 247.087 15.071C246.812 15.4034 246.447 15.6619 245.992 15.8466C245.54 16.0284 245.012 16.1193 244.407 16.1193ZM248.571 16V9.45455H250.855V10.6989H250.923C251.043 10.2386 251.232 9.90199 251.49 9.68892C251.752 9.47585 252.057 9.36932 252.406 9.36932C252.509 9.36932 252.61 9.37784 252.709 9.39489C252.811 9.40909 252.909 9.4304 253.003 9.45881V11.4659C252.887 11.4261 252.743 11.3963 252.573 11.3764C252.402 11.3565 252.256 11.3466 252.134 11.3466C251.904 11.3466 251.696 11.3991 251.512 11.5043C251.33 11.6065 251.186 11.7514 251.081 11.9389C250.976 12.1236 250.923 12.3409 250.923 12.5909V16H248.571ZM256.536 16.1193C255.837 16.1193 255.235 15.9858 254.729 15.7188C254.226 15.4489 253.838 15.0625 253.566 14.5597C253.296 14.054 253.161 13.4489 253.161 12.7443C253.161 12.0682 253.297 11.4773 253.57 10.9716C253.843 10.4659 254.227 10.0724 254.725 9.79119C255.222 9.50994 255.808 9.36932 256.485 9.36932C256.979 9.36932 257.426 9.44602 257.827 9.59943C258.227 9.75284 258.57 9.97585 258.854 10.2685C259.138 10.5582 259.357 10.9105 259.51 11.3253C259.664 11.7401 259.74 12.2074 259.74 12.7273V13.2727H253.894V11.9773H257.575C257.573 11.7898 257.524 11.625 257.431 11.483C257.34 11.3381 257.216 11.2259 257.06 11.1463C256.906 11.0639 256.732 11.0227 256.536 11.0227C256.345 11.0227 256.171 11.0639 256.012 11.1463C255.852 11.2259 255.725 11.3366 255.628 11.4787C255.534 11.6207 255.485 11.7869 255.479 11.9773V13.375C255.479 13.5852 255.523 13.7727 255.611 13.9375C255.699 14.1023 255.825 14.2315 255.99 14.3253C256.155 14.419 256.354 14.4659 256.587 14.4659C256.749 14.4659 256.896 14.4432 257.03 14.3977C257.166 14.3523 257.283 14.2869 257.379 14.2017C257.476 14.1136 257.547 14.0085 257.593 13.8864H259.74C259.666 14.3409 259.492 14.7358 259.216 15.071C258.941 15.4034 258.575 15.6619 258.121 15.8466C257.669 16.0284 257.141 16.1193 256.536 16.1193ZM263.069 16.0852C262.604 16.0852 262.175 15.9631 261.782 15.7188C261.393 15.4744 261.081 15.1037 260.845 14.6065C260.612 14.1094 260.496 13.483 260.496 12.7273C260.496 11.9375 260.618 11.2955 260.862 10.8011C261.109 10.3068 261.427 9.9446 261.817 9.71449C262.209 9.48438 262.621 9.36932 263.052 9.36932C263.376 9.36932 263.66 9.42614 263.905 9.53977C264.149 9.65057 264.354 9.79972 264.518 9.98722C264.683 10.1719 264.808 10.375 264.893 10.5966H264.927V7.27273H267.28V16H264.944V14.9261H264.893C264.802 15.1477 264.672 15.3466 264.501 15.5227C264.334 15.696 264.129 15.8338 263.888 15.9361C263.649 16.0355 263.376 16.0852 263.069 16.0852ZM263.939 14.2784C264.155 14.2784 264.339 14.2159 264.493 14.0909C264.649 13.9631 264.768 13.7841 264.851 13.554C264.936 13.321 264.979 13.0455 264.979 12.7273C264.979 12.4034 264.936 12.1264 264.851 11.8963C264.768 11.6634 264.649 11.4858 264.493 11.3636C264.339 11.2386 264.155 11.1761 263.939 11.1761C263.723 11.1761 263.538 11.2386 263.385 11.3636C263.234 11.4858 263.118 11.6634 263.035 11.8963C262.956 12.1264 262.916 12.4034 262.916 12.7273C262.916 13.0511 262.956 13.3295 263.035 13.5625C263.118 13.7926 263.234 13.9702 263.385 14.0952C263.538 14.2173 263.723 14.2784 263.939 14.2784Z" fill="white" fill-opacity="0.65"/>
<circle cx="156.5" cy="93.5" r="5.5" fill="white"/>
<path d="M156.34 87.0391C152.659 87.0391 149.674 90.024 149.674 93.7057C149.674 97.3875 152.659 100.372 156.34 100.372C160.022 100.372 163.007 97.3875 163.007 93.7057C163.007 90.024 160.022 87.0391 156.34 87.0391ZM159.769 96.1237C160.047 96.4018 160.047 96.856 159.769 97.1341C159.491 97.4122 159.037 97.4122 158.758 97.1341L156.34 94.7162L153.923 97.1341C153.644 97.4122 153.19 97.4122 152.912 97.1341C152.634 96.856 152.634 96.4018 152.912 96.1237L155.33 93.7057L152.912 91.2878C152.634 91.0097 152.634 90.5555 152.912 90.2774C153.19 89.9993 153.644 89.9993 153.923 90.2774L156.34 92.6953L158.758 90.2774C159.037 89.9993 159.491 89.9993 159.769 90.2774C160.047 90.5555 160.047 91.0097 159.769 91.2878L157.351 93.7057L159.769 96.1237Z" fill="#FF2828"/>
<path d="M175.721 89.2727V98H173.744L170.59 93.4148H170.539V98H168.17V89.2727H170.181L173.284 93.8409H173.352V89.2727H175.721ZM180.029 98.1193C179.319 98.1193 178.711 97.9787 178.205 97.6974C177.7 97.4134 177.312 97.0185 177.042 96.5128C176.772 96.0043 176.637 95.4148 176.637 94.7443C176.637 94.0739 176.772 93.4858 177.042 92.9801C177.312 92.4716 177.7 92.0767 178.205 91.7955C178.711 91.5114 179.319 91.3693 180.029 91.3693C180.74 91.3693 181.347 91.5114 181.853 91.7955C182.359 92.0767 182.747 92.4716 183.017 92.9801C183.286 93.4858 183.421 94.0739 183.421 94.7443C183.421 95.4148 183.286 96.0043 183.017 96.5128C182.747 97.0185 182.359 97.4134 181.853 97.6974C181.347 97.9787 180.74 98.1193 180.029 98.1193ZM180.046 96.3807C180.245 96.3807 180.417 96.3139 180.562 96.1804C180.707 96.0469 180.819 95.8565 180.899 95.6094C180.978 95.3622 181.018 95.0682 181.018 94.7273C181.018 94.3835 180.978 94.0895 180.899 93.8452C180.819 93.598 180.707 93.4077 180.562 93.2741C180.417 93.1406 180.245 93.0739 180.046 93.0739C179.836 93.0739 179.656 93.1406 179.505 93.2741C179.355 93.4077 179.24 93.598 179.16 93.8452C179.08 94.0895 179.041 94.3835 179.041 94.7273C179.041 95.0682 179.08 95.3622 179.16 95.6094C179.24 95.8565 179.355 96.0469 179.505 96.1804C179.656 96.3139 179.836 96.3807 180.046 96.3807ZM188.279 91.4545V93.1591H183.967V91.4545H188.279ZM184.802 89.8864H187.154V95.8949C187.154 95.9858 187.17 96.0625 187.201 96.125C187.232 96.1847 187.281 96.2301 187.346 96.2614C187.411 96.2898 187.495 96.304 187.597 96.304C187.669 96.304 187.751 96.2955 187.845 96.2784C187.941 96.2614 188.012 96.2472 188.058 96.2358L188.399 97.8892C188.294 97.9205 188.143 97.9588 187.947 98.0043C187.754 98.0497 187.524 98.0795 187.257 98.0938C186.717 98.1222 186.264 98.0668 185.897 97.9276C185.531 97.7855 185.255 97.5625 185.07 97.2585C184.886 96.9545 184.796 96.5739 184.802 96.1165V89.8864ZM191.732 94.3182V98H189.38V89.2727H191.647V92.6989H191.715C191.863 92.2812 192.108 91.956 192.452 91.723C192.796 91.4872 193.209 91.3693 193.692 91.3693C194.155 91.3693 194.557 91.4744 194.898 91.6847C195.242 91.8949 195.508 92.1847 195.695 92.554C195.885 92.9233 195.979 93.3466 195.976 93.8239V98H193.624V94.3182C193.627 93.9943 193.546 93.7401 193.381 93.5554C193.219 93.3707 192.988 93.2784 192.687 93.2784C192.496 93.2784 192.329 93.321 192.184 93.4062C192.042 93.4886 191.931 93.608 191.851 93.7642C191.775 93.9176 191.735 94.1023 191.732 94.3182ZM197.138 98V91.4545H199.49V98H197.138ZM198.314 90.7727C197.996 90.7727 197.723 90.6676 197.496 90.4574C197.268 90.2472 197.155 89.9943 197.155 89.6989C197.155 89.4034 197.268 89.1506 197.496 88.9403C197.723 88.7301 197.996 88.625 198.314 88.625C198.635 88.625 198.907 88.7301 199.132 88.9403C199.359 89.1506 199.473 89.4034 199.473 89.6989C199.473 89.9943 199.359 90.2472 199.132 90.4574C198.907 90.6676 198.635 90.7727 198.314 90.7727ZM203.041 94.3182V98H200.688V91.4545H202.921V92.6989H202.99C203.132 92.2841 203.382 91.9588 203.74 91.723C204.1 91.4872 204.521 91.3693 205.001 91.3693C205.464 91.3693 205.866 91.4759 206.207 91.6889C206.551 91.8991 206.816 92.1889 207.004 92.5582C207.194 92.9276 207.288 93.3494 207.285 93.8239V98H204.933V94.3182C204.936 93.9943 204.853 93.7401 204.686 93.5554C204.521 93.3707 204.291 93.2784 203.995 93.2784C203.802 93.2784 203.633 93.321 203.488 93.4062C203.346 93.4886 203.237 93.608 203.16 93.7642C203.083 93.9176 203.044 94.1023 203.041 94.3182ZM211.6 100.591C210.943 100.591 210.381 100.497 209.912 100.31C209.446 100.125 209.084 99.8693 208.825 99.5426C208.57 99.2188 208.426 98.8466 208.395 98.4261H210.662C210.685 98.5653 210.742 98.6776 210.833 98.7628C210.923 98.848 211.04 98.9091 211.182 98.946C211.327 98.9858 211.489 99.0057 211.668 99.0057C211.972 99.0057 212.223 98.9318 212.422 98.7841C212.624 98.6364 212.725 98.3693 212.725 97.983V96.875H212.656C212.571 97.0966 212.441 97.2855 212.264 97.4418C212.088 97.5952 211.877 97.7131 211.629 97.7955C211.382 97.875 211.111 97.9148 210.816 97.9148C210.35 97.9148 209.921 97.8068 209.529 97.5909C209.139 97.375 208.827 97.0327 208.591 96.5639C208.358 96.0952 208.242 95.483 208.242 94.7273C208.242 93.9375 208.364 93.2955 208.608 92.8011C208.855 92.3068 209.173 91.9446 209.563 91.7145C209.955 91.4844 210.367 91.3693 210.798 91.3693C211.122 91.3693 211.406 91.4261 211.651 91.5398C211.895 91.6506 212.1 91.7997 212.264 91.9872C212.429 92.1719 212.554 92.375 212.639 92.5966H212.691V91.4545H215.043V97.983C215.043 98.5369 214.899 99.0071 214.612 99.3935C214.328 99.7827 213.928 100.08 213.411 100.284C212.894 100.489 212.29 100.591 211.6 100.591ZM211.685 96.2443C211.901 96.2443 212.085 96.1847 212.239 96.0653C212.395 95.9432 212.514 95.7699 212.597 95.5455C212.682 95.3182 212.725 95.0455 212.725 94.7273C212.725 94.4034 212.682 94.1264 212.597 93.8963C212.514 93.6634 212.395 93.4858 212.239 93.3636C212.085 93.2386 211.901 93.1761 211.685 93.1761C211.469 93.1761 211.284 93.2386 211.131 93.3636C210.98 93.4858 210.864 93.6634 210.781 93.8963C210.702 94.1264 210.662 94.4034 210.662 94.7273C210.662 95.0511 210.702 95.3267 210.781 95.554C210.864 95.7784 210.98 95.9503 211.131 96.0696C211.284 96.1861 211.469 96.2443 211.685 96.2443ZM221.954 98H218.596V89.2727H221.92C222.817 89.2727 223.593 89.4474 224.246 89.7969C224.903 90.1435 225.408 90.6435 225.763 91.2969C226.121 91.9474 226.3 92.7273 226.3 93.6364C226.3 94.5455 226.123 95.3267 225.768 95.9801C225.412 96.6307 224.91 97.1307 224.259 97.4801C223.608 97.8267 222.84 98 221.954 98ZM220.965 95.9886H221.868C222.3 95.9886 222.668 95.919 222.972 95.7798C223.279 95.6406 223.512 95.4006 223.671 95.0597C223.833 94.7187 223.914 94.2443 223.914 93.6364C223.914 93.0284 223.831 92.554 223.667 92.2131C223.505 91.8722 223.266 91.6321 222.951 91.4929C222.638 91.3537 222.255 91.2841 221.8 91.2841H220.965V95.9886ZM230.584 98.1193C229.874 98.1193 229.266 97.9787 228.76 97.6974C228.254 97.4134 227.867 97.0185 227.597 96.5128C227.327 96.0043 227.192 95.4148 227.192 94.7443C227.192 94.0739 227.327 93.4858 227.597 92.9801C227.867 92.4716 228.254 92.0767 228.76 91.7955C229.266 91.5114 229.874 91.3693 230.584 91.3693C231.294 91.3693 231.902 91.5114 232.408 91.7955C232.914 92.0767 233.301 92.4716 233.571 92.9801C233.841 93.4858 233.976 94.0739 233.976 94.7443C233.976 95.4148 233.841 96.0043 233.571 96.5128C233.301 97.0185 232.914 97.4134 232.408 97.6974C231.902 97.9787 231.294 98.1193 230.584 98.1193ZM230.601 96.3807C230.8 96.3807 230.972 96.3139 231.117 96.1804C231.262 96.0469 231.374 95.8565 231.453 95.6094C231.533 95.3622 231.573 95.0682 231.573 94.7273C231.573 94.3835 231.533 94.0895 231.453 93.8452C231.374 93.598 231.262 93.4077 231.117 93.2741C230.972 93.1406 230.8 93.0739 230.601 93.0739C230.391 93.0739 230.21 93.1406 230.06 93.2741C229.909 93.4077 229.794 93.598 229.715 93.8452C229.635 94.0895 229.595 94.3835 229.595 94.7273C229.595 95.0682 229.635 95.3622 229.715 95.6094C229.794 95.8565 229.909 96.0469 230.06 96.1804C230.21 96.3139 230.391 96.3807 230.601 96.3807ZM237.283 94.3182V98H234.931V91.4545H237.164V92.6989H237.232C237.374 92.2841 237.624 91.9588 237.982 91.723C238.343 91.4872 238.763 91.3693 239.243 91.3693C239.706 91.3693 240.108 91.4759 240.449 91.6889C240.793 91.8991 241.058 92.1889 241.246 92.5582C241.436 92.9276 241.53 93.3494 241.527 93.8239V98H239.175V94.3182C239.178 93.9943 239.095 93.7401 238.928 93.5554C238.763 93.3707 238.533 93.2784 238.237 93.2784C238.044 93.2784 237.875 93.321 237.73 93.4062C237.588 93.4886 237.479 93.608 237.402 93.7642C237.325 93.9176 237.286 94.1023 237.283 94.3182ZM245.825 98.1193C245.126 98.1193 244.524 97.9858 244.018 97.7188C243.515 97.4489 243.127 97.0625 242.855 96.5597C242.585 96.054 242.45 95.4489 242.45 94.7443C242.45 94.0682 242.586 93.4773 242.859 92.9716C243.132 92.4659 243.517 92.0724 244.014 91.7912C244.511 91.5099 245.097 91.3693 245.774 91.3693C246.268 91.3693 246.715 91.446 247.116 91.5994C247.517 91.7528 247.859 91.9759 248.143 92.2685C248.427 92.5582 248.646 92.9105 248.799 93.3253C248.953 93.7401 249.029 94.2074 249.029 94.7273V95.2727H243.183V93.9773H246.865C246.862 93.7898 246.813 93.625 246.72 93.483C246.629 93.3381 246.505 93.2259 246.349 93.1463C246.195 93.0639 246.021 93.0227 245.825 93.0227C245.634 93.0227 245.46 93.0639 245.301 93.1463C245.142 93.2259 245.014 93.3366 244.917 93.4787C244.823 93.6207 244.774 93.7869 244.768 93.9773V95.375C244.768 95.5852 244.812 95.7727 244.9 95.9375C244.988 96.1023 245.115 96.2315 245.279 96.3253C245.444 96.419 245.643 96.4659 245.876 96.4659C246.038 96.4659 246.186 96.4432 246.319 96.3977C246.455 96.3523 246.572 96.2869 246.669 96.2017C246.765 96.1136 246.836 96.0085 246.882 95.8864H249.029C248.955 96.3409 248.781 96.7358 248.505 97.071C248.23 97.4034 247.865 97.6619 247.41 97.8466C246.958 98.0284 246.43 98.1193 245.825 98.1193Z" fill="white" fill-opacity="0.65"/>
</svg>
