<svg width="525" height="106" viewBox="0 0 525 106" fill="none" xmlns="http://www.w3.org/2000/svg">
<path d="M524.5 54L519.5 51.1132V56.8868L524.5 54ZM460.5 53.5C460.224 53.5 460 53.7239 460 54C460 54.2761 460.224 54.5 460.5 54.5V53.5ZM520 53.5L460.5 53.5V54.5L520 54.5V53.5Z" fill="white" fill-opacity="0.45"/>
<path d="M65 54L60 51.1132V56.8868L65 54ZM1 53.5C0.723857 53.5 0.5 53.7239 0.5 54C0.5 54.2761 0.723857 54.5 1 54.5V53.5ZM60.5 53.5L1 53.5V54.5L60.5 54.5V53.5Z" fill="white" fill-opacity="0.45"/>
<path d="M248.392 34.2138C248.443 33.3828 248.217 32.7159 247.714 32.2131C247.215 31.706 246.495 31.4524 245.553 31.4524C244.914 31.4524 244.328 31.5696 243.796 31.804C243.263 32.0384 242.82 32.3601 242.466 32.7692C242.117 33.174 241.897 33.6364 241.808 34.1562C241.752 34.4929 241.767 34.7976 241.852 35.0703C241.942 35.3388 242.089 35.5774 242.294 35.7862C242.498 35.995 242.752 36.1804 243.054 36.3423C243.357 36.5 243.695 36.6385 244.07 36.7578L245.432 37.1797C245.896 37.3288 246.32 37.5014 246.704 37.6974C247.092 37.8935 247.418 38.1278 247.682 38.4006C247.946 38.669 248.134 38.9844 248.244 39.3466C248.36 39.7088 248.377 40.1264 248.296 40.5994C248.181 41.3026 247.904 41.9268 247.465 42.4723C247.026 43.0178 246.457 43.4439 245.758 43.7507C245.059 44.0575 244.254 44.2109 243.342 44.2109C242.502 44.2109 241.791 44.0682 241.207 43.7827C240.627 43.4972 240.199 43.1009 239.922 42.5938C239.645 42.0824 239.539 41.4943 239.602 40.8295H240.421C240.374 41.3707 240.47 41.8395 240.708 42.2358C240.947 42.6278 241.303 42.9304 241.776 43.1435C242.253 43.3565 242.818 43.4631 243.47 43.4631C244.177 43.4631 244.816 43.3416 245.387 43.0987C245.963 42.8558 246.436 42.5192 246.806 42.0888C247.181 41.6584 247.416 41.1598 247.509 40.593C247.586 40.1328 247.544 39.7365 247.382 39.4041C247.22 39.0717 246.945 38.7862 246.557 38.5476C246.173 38.3047 245.686 38.0916 245.093 37.9084L243.623 37.4482C242.651 37.1371 241.942 36.7152 241.494 36.1825C241.047 35.6456 240.887 34.9787 241.015 34.1818C241.134 33.4957 241.414 32.8928 241.852 32.3729C242.291 31.853 242.843 31.446 243.508 31.152C244.173 30.858 244.897 30.7109 245.681 30.7109C246.461 30.7109 247.124 30.8622 247.669 31.1648C248.219 31.4631 248.624 31.8764 248.884 32.4048C249.148 32.9332 249.244 33.5362 249.171 34.2138H248.392ZM255.717 34.1818L255.595 34.8786H251.313L251.428 34.1818H255.717ZM253.262 31.8295H254.036L252.412 41.6797C252.344 42.0803 252.365 42.4084 252.476 42.6641C252.591 42.9155 252.764 43.103 252.994 43.2266C253.228 43.3459 253.494 43.4055 253.793 43.4055C253.925 43.4055 254.044 43.3949 254.151 43.3736C254.257 43.348 254.364 43.3203 254.47 43.2905L254.541 44C254.409 44.0469 254.268 44.0852 254.119 44.1151C253.97 44.1449 253.797 44.1598 253.601 44.1598C253.192 44.1598 252.821 44.0682 252.489 43.8849C252.161 43.7017 251.911 43.4354 251.741 43.0859C251.575 42.7365 251.534 42.3146 251.619 41.8203L253.262 31.8295ZM260.671 44.2045C259.784 44.2045 259.049 43.9851 258.465 43.5462C257.882 43.1072 257.475 42.5064 257.244 41.7436C257.014 40.9808 256.98 40.1115 257.142 39.1357C257.304 38.1555 257.628 37.282 258.114 36.5149C258.6 35.7479 259.194 35.1428 259.897 34.6996C260.6 34.2564 261.359 34.0348 262.173 34.0348C262.722 34.0348 263.223 34.1456 263.675 34.3672C264.131 34.5888 264.514 34.9062 264.825 35.3196C265.137 35.7287 265.352 36.2251 265.471 36.8089C265.59 37.3928 265.59 38.049 265.471 38.7777L265.382 39.2635H257.609L257.73 38.554H264.717C264.836 37.8466 264.802 37.2074 264.615 36.6364C264.427 36.0611 264.116 35.6051 263.681 35.2685C263.251 34.9318 262.722 34.7635 262.096 34.7635C261.457 34.7635 260.847 34.9489 260.268 35.3196C259.693 35.6861 259.198 36.1761 258.785 36.7898C258.376 37.4034 258.103 38.0788 257.967 38.8161L257.89 39.2124C257.754 40.0561 257.771 40.7997 257.941 41.4432C258.116 42.0824 258.44 42.5831 258.913 42.9453C259.386 43.3033 260.004 43.4822 260.767 43.4822C261.299 43.4822 261.772 43.3928 262.186 43.2138C262.603 43.0305 262.957 42.8089 263.247 42.549C263.541 42.2891 263.771 42.0376 263.937 41.7947L264.583 42.0824C264.387 42.4105 264.105 42.7386 263.739 43.0668C263.372 43.3906 262.931 43.6612 262.416 43.8786C261.9 44.0959 261.318 44.2045 260.671 44.2045ZM266.69 47.6818L268.94 34.1818H269.701L269.343 36.3743H269.439C269.661 35.9524 269.938 35.5646 270.27 35.2109C270.607 34.8572 271.001 34.5739 271.452 34.3608C271.908 34.1435 272.418 34.0348 272.98 34.0348C273.773 34.0348 274.427 34.2521 274.942 34.6868C275.458 35.1214 275.814 35.7202 276.01 36.483C276.206 37.2457 276.223 38.1236 276.061 39.1165C275.895 40.1051 275.584 40.983 275.128 41.75C274.676 42.5128 274.122 43.1136 273.466 43.5526C272.81 43.9872 272.089 44.2045 271.305 44.2045C270.747 44.2045 270.274 44.098 269.886 43.8849C269.503 43.6719 269.2 43.3885 268.979 43.0348C268.757 42.6768 268.604 42.2848 268.518 41.8587H268.442L267.47 47.6818H266.69ZM268.889 39.1101C268.753 39.9453 268.753 40.6932 268.889 41.3537C269.03 42.0099 269.303 42.5298 269.707 42.9134C270.116 43.2926 270.651 43.4822 271.312 43.4822C271.981 43.4822 272.588 43.2905 273.134 42.907C273.683 42.5192 274.143 41.995 274.514 41.3345C274.889 40.674 275.145 39.9325 275.281 39.1101C275.418 38.2876 275.418 37.5483 275.281 36.892C275.145 36.2358 274.874 35.718 274.469 35.3388C274.065 34.9553 273.523 34.7635 272.846 34.7635C272.181 34.7635 271.574 34.9531 271.024 35.3324C270.474 35.7074 270.014 36.223 269.643 36.8793C269.277 37.5312 269.026 38.2749 268.889 39.1101ZM287.015 44.179C286.24 44.179 285.569 44.032 285.002 43.7379C284.435 43.4439 284.013 43.0369 283.736 42.517C283.464 41.9972 283.381 41.4006 283.487 40.7273H284.286C284.209 41.2599 284.275 41.7308 284.484 42.1399C284.693 42.5447 285.015 42.8622 285.449 43.0923C285.888 43.3224 286.412 43.4375 287.022 43.4375C287.665 43.4375 288.262 43.3097 288.812 43.054C289.361 42.7983 289.817 42.451 290.18 42.0121C290.542 41.5689 290.768 41.0703 290.857 40.5163C290.947 39.9411 290.878 39.4382 290.653 39.0078C290.427 38.5774 290.067 38.2408 289.572 37.9979C289.078 37.755 288.473 37.6335 287.757 37.6335H287.258L287.373 36.892H287.84C288.449 36.892 289.016 36.7791 289.54 36.5533C290.064 36.3232 290.501 36.0014 290.851 35.5881C291.2 35.1747 291.417 34.6868 291.503 34.1243C291.592 33.6087 291.558 33.1506 291.4 32.75C291.243 32.3494 290.974 32.0362 290.595 31.8104C290.22 31.5803 289.745 31.4652 289.17 31.4652C288.611 31.4652 288.081 31.5781 287.578 31.804C287.079 32.0298 286.657 32.3473 286.312 32.7564C285.967 33.1655 285.75 33.6406 285.66 34.1818H284.874C284.993 33.5043 285.26 32.9077 285.673 32.392C286.086 31.8722 286.598 31.4652 287.207 31.1712C287.821 30.8771 288.477 30.7301 289.176 30.7301C289.913 30.7301 290.531 30.8835 291.03 31.1903C291.532 31.4972 291.893 31.9105 292.11 32.4304C292.331 32.9503 292.389 33.5277 292.282 34.1626C292.167 34.9169 291.852 35.5604 291.336 36.093C290.821 36.6214 290.19 36.9922 289.444 37.2053V37.2692C290.258 37.4609 290.861 37.8551 291.253 38.4517C291.65 39.044 291.78 39.7536 291.643 40.5803C291.528 41.2791 291.256 41.8991 290.825 42.4403C290.395 42.9815 289.851 43.4077 289.195 43.7188C288.539 44.0256 287.812 44.179 287.015 44.179ZM252.69 61C252.663 60.6686 252.539 60.41 252.317 60.2244C252.098 60.0388 251.765 59.946 251.318 59.946C251.033 59.946 250.799 59.9808 250.617 60.0504C250.438 60.1167 250.305 60.2079 250.219 60.3239C250.133 60.4399 250.088 60.5724 250.085 60.7216C250.078 60.8442 250.1 60.9553 250.149 61.0547C250.202 61.1508 250.285 61.2386 250.398 61.3182C250.511 61.3944 250.655 61.464 250.83 61.527C251.006 61.59 251.215 61.6463 251.457 61.696L252.292 61.875C252.856 61.9943 253.338 62.1518 253.739 62.3473C254.14 62.5429 254.468 62.7732 254.723 63.0384C254.978 63.3002 255.166 63.5952 255.285 63.9233C255.408 64.2514 255.471 64.6094 255.474 64.9972C255.471 65.6667 255.303 66.2334 254.972 66.6974C254.64 67.1615 254.166 67.5144 253.55 67.7564C252.937 67.9983 252.199 68.1193 251.338 68.1193C250.453 68.1193 249.68 67.9884 249.021 67.7266C248.365 67.4647 247.854 67.062 247.49 66.5185C247.128 65.9716 246.946 65.2723 246.943 64.4205H249.568C249.584 64.732 249.662 64.9938 249.801 65.206C249.941 65.4181 250.136 65.5788 250.388 65.6882C250.643 65.7976 250.946 65.8523 251.298 65.8523C251.593 65.8523 251.84 65.8158 252.039 65.7429C252.237 65.67 252.388 65.5689 252.491 65.4396C252.594 65.3104 252.647 65.1629 252.65 64.9972C252.647 64.8414 252.595 64.7055 252.496 64.5895C252.4 64.4702 252.241 64.3641 252.019 64.2713C251.797 64.1752 251.497 64.0857 251.119 64.0028L250.105 63.7841C249.203 63.5885 248.492 63.2621 247.972 62.8047C247.455 62.344 247.198 61.7159 247.201 60.9205C247.198 60.2741 247.37 59.709 247.718 59.2251C248.07 58.7379 248.555 58.3584 249.175 58.0866C249.798 57.8149 250.512 57.679 251.318 57.679C252.14 57.679 252.851 57.8165 253.45 58.0916C254.05 58.3667 254.513 58.7545 254.838 59.255C255.166 59.7521 255.331 60.3338 255.335 61H252.69ZM257.917 68L256.008 60.3636H258.753L259.628 65.017H259.687L260.662 60.3636H263.327L264.341 64.9773H264.4L265.236 60.3636H267.98L266.071 68H263.108L262.034 63.9034H261.954L260.881 68H257.917ZM270.943 68.1193C270.456 68.1193 270.025 68.0398 269.65 67.8807C269.279 67.7183 268.988 67.473 268.775 67.1449C268.563 66.8168 268.457 66.3991 268.457 65.892C268.457 65.4744 268.528 65.1181 268.671 64.8232C268.814 64.5249 269.012 64.2812 269.268 64.0923C269.523 63.9034 269.819 63.7592 270.157 63.6598C270.499 63.5604 270.867 63.4957 271.261 63.4659C271.689 63.4328 272.032 63.393 272.29 63.3466C272.552 63.2969 272.741 63.2289 272.857 63.1428C272.973 63.0533 273.031 62.9356 273.031 62.7898V62.7699C273.031 62.571 272.955 62.4186 272.802 62.3125C272.65 62.2064 272.454 62.1534 272.216 62.1534C271.954 62.1534 271.74 62.2114 271.574 62.3274C271.412 62.4401 271.314 62.6141 271.281 62.8494H268.756C268.789 62.3854 268.936 61.9579 269.198 61.5668C269.463 61.1723 269.849 60.8575 270.356 60.6222C270.863 60.3835 271.497 60.2642 272.256 60.2642C272.802 60.2642 273.293 60.3288 273.727 60.4581C274.161 60.584 274.531 60.7614 274.836 60.9901C275.141 61.2154 275.373 61.4806 275.532 61.7855C275.694 62.0871 275.775 62.4152 275.775 62.7699V68H273.21V66.9261H273.15C272.998 67.2112 272.812 67.4415 272.594 67.6172C272.378 67.7929 272.131 67.9205 271.853 68C271.578 68.0795 271.274 68.1193 270.943 68.1193ZM271.838 66.3892C272.047 66.3892 272.242 66.3461 272.425 66.2599C272.61 66.1738 272.761 66.0495 272.877 65.8871C272.993 65.7247 273.051 65.5275 273.051 65.2955V64.6591C272.978 64.6889 272.9 64.7171 272.817 64.7436C272.738 64.7701 272.652 64.795 272.559 64.8182C272.469 64.8414 272.373 64.8629 272.27 64.8828C272.171 64.9027 272.067 64.9209 271.957 64.9375C271.745 64.9706 271.571 65.0253 271.435 65.1016C271.303 65.1745 271.203 65.2656 271.137 65.375C271.074 65.4811 271.042 65.6004 271.042 65.733C271.042 65.9451 271.117 66.1075 271.266 66.2202C271.415 66.3329 271.606 66.3892 271.838 66.3892ZM277.087 70.8636V60.3636H279.811V61.696H279.871C279.97 61.4375 280.116 61.2005 280.308 60.9851C280.5 60.7663 280.739 60.5923 281.024 60.4631C281.309 60.3305 281.641 60.2642 282.018 60.2642C282.522 60.2642 283.001 60.3984 283.455 60.6669C283.913 60.9354 284.284 61.358 284.569 61.9347C284.857 62.5114 285.001 63.2604 285.001 64.1818C285.001 65.0634 284.864 65.7943 284.589 66.3743C284.317 66.9543 283.952 67.3868 283.495 67.6719C283.041 67.9569 282.542 68.0994 281.999 68.0994C281.641 68.0994 281.321 68.0414 281.039 67.9254C280.761 67.8061 280.522 67.6454 280.323 67.4432C280.128 67.2377 279.977 67.0057 279.871 66.7472H279.831V70.8636H277.087ZM279.771 64.1818C279.771 64.553 279.819 64.8745 279.915 65.1463C280.015 65.4148 280.154 65.6236 280.333 65.7727C280.515 65.9186 280.732 65.9915 280.984 65.9915C281.236 65.9915 281.45 65.9202 281.626 65.7777C281.805 65.6319 281.941 65.4247 282.033 65.1562C282.129 64.8845 282.178 64.5597 282.178 64.1818C282.178 63.804 282.129 63.4808 282.033 63.2124C281.941 62.9406 281.805 62.7334 281.626 62.5909C281.45 62.4451 281.236 62.3722 280.984 62.3722C280.732 62.3722 280.515 62.4451 280.333 62.5909C280.154 62.7334 280.015 62.9406 279.915 63.2124C279.819 63.4808 279.771 63.804 279.771 64.1818Z" fill="white"/>
<path d="M66.5 42V12H209" stroke="white" stroke-opacity="0.45" stroke-dasharray="2 2"/>
<path d="M67.5 64V94H105" stroke="white" stroke-opacity="0.45" stroke-dasharray="2 2"/>
<path d="M458.5 42V12H322.5" stroke="white" stroke-opacity="0.45" stroke-dasharray="2 2"/>
<path d="M459.5 64.5V94.5H418.5" stroke="white" stroke-opacity="0.45" stroke-dasharray="2 2"/>
<circle cx="220" cy="12" r="5" fill="white"/>
<path d="M220 5.33325C223.682 5.33325 226.666 8.31792 226.666 11.9999C226.666 15.6819 223.682 18.6666 220 18.6666C216.318 18.6666 213.333 15.6819 213.333 11.9999C213.333 8.31792 216.318 5.33325 220 5.33325ZM222.328 9.39525L218.921 12.8073L217.604 11.4913L216.662 12.4339L218.922 14.6939L223.272 10.3379L222.328 9.39525Z" fill="#62D62B"/>
<path d="M233.562 16V7.27273H237.33C237.977 7.27273 238.544 7.40057 239.03 7.65625C239.516 7.91193 239.893 8.27131 240.163 8.73438C240.433 9.19744 240.568 9.73864 240.568 10.358C240.568 10.983 240.429 11.5241 240.151 11.9815C239.875 12.4389 239.487 12.7912 238.987 13.0384C238.49 13.2855 237.909 13.4091 237.244 13.4091H234.994V11.5682H236.767C237.045 11.5682 237.283 11.5199 237.479 11.4233C237.678 11.3239 237.83 11.1832 237.935 11.0014C238.043 10.8196 238.097 10.6051 238.097 10.358C238.097 10.108 238.043 9.89489 237.935 9.71875C237.83 9.53977 237.678 9.40341 237.479 9.30966C237.283 9.21307 237.045 9.16477 236.767 9.16477H235.932V16H233.562ZM241.472 16V9.45455H243.756V10.6989H243.824C243.943 10.2386 244.132 9.90199 244.391 9.68892C244.652 9.47585 244.957 9.36932 245.307 9.36932C245.409 9.36932 245.51 9.37784 245.609 9.39489C245.712 9.40909 245.81 9.4304 245.903 9.45881V11.4659C245.787 11.4261 245.643 11.3963 245.473 11.3764C245.303 11.3565 245.156 11.3466 245.034 11.3466C244.804 11.3466 244.597 11.3991 244.412 11.5043C244.23 11.6065 244.087 11.7514 243.982 11.9389C243.876 12.1236 243.824 12.3409 243.824 12.5909V16H241.472ZM246.675 16V9.45455H249.027V16H246.675ZM247.851 8.77273C247.533 8.77273 247.26 8.66761 247.033 8.45739C246.805 8.24716 246.692 7.99432 246.692 7.69886C246.692 7.40341 246.805 7.15057 247.033 6.94034C247.26 6.73011 247.533 6.625 247.851 6.625C248.172 6.625 248.445 6.73011 248.669 6.94034C248.896 7.15057 249.01 7.40341 249.01 7.69886C249.01 7.99432 248.896 8.24716 248.669 8.45739C248.445 8.66761 248.172 8.77273 247.851 8.77273ZM253.379 16.1193C252.669 16.1193 252.061 15.9787 251.555 15.6974C251.049 15.4134 250.662 15.0185 250.392 14.5128C250.122 14.0043 249.987 13.4148 249.987 12.7443C249.987 12.0739 250.122 11.4858 250.392 10.9801C250.662 10.4716 251.049 10.0767 251.555 9.79545C252.061 9.51136 252.669 9.36932 253.379 9.36932C254.021 9.36932 254.576 9.4858 255.045 9.71875C255.517 9.94886 255.882 10.2756 256.14 10.6989C256.399 11.1193 256.529 11.6136 256.532 12.1818H254.35C254.319 11.8381 254.22 11.5767 254.052 11.3977C253.887 11.2159 253.674 11.125 253.413 11.125C253.208 11.125 253.029 11.1847 252.876 11.304C252.723 11.4205 252.603 11.598 252.518 11.8366C252.433 12.0724 252.39 12.3693 252.39 12.7273C252.39 13.0852 252.433 13.3835 252.518 13.6222C252.603 13.858 252.723 14.0355 252.876 14.1548C253.029 14.2713 253.208 14.3295 253.413 14.3295C253.586 14.3295 253.74 14.2898 253.873 14.2102C254.007 14.1278 254.115 14.0085 254.197 13.8523C254.282 13.6932 254.333 13.5 254.35 13.2727H256.532C256.524 13.8494 256.392 14.3523 256.136 14.7812C255.88 15.2074 255.518 15.5369 255.049 15.7699C254.583 16.0028 254.027 16.1193 253.379 16.1193ZM260.639 16.1193C259.94 16.1193 259.338 15.9858 258.832 15.7188C258.33 15.4489 257.942 15.0625 257.669 14.5597C257.399 14.054 257.264 13.4489 257.264 12.7443C257.264 12.0682 257.401 11.4773 257.673 10.9716C257.946 10.4659 258.331 10.0724 258.828 9.79119C259.325 9.50994 259.912 9.36932 260.588 9.36932C261.082 9.36932 261.53 9.44602 261.93 9.59943C262.331 9.75284 262.673 9.97585 262.957 10.2685C263.241 10.5582 263.46 10.9105 263.614 11.3253C263.767 11.7401 263.844 12.2074 263.844 12.7273V13.2727H257.997V11.9773H261.679C261.676 11.7898 261.628 11.625 261.534 11.483C261.443 11.3381 261.32 11.2259 261.163 11.1463C261.01 11.0639 260.835 11.0227 260.639 11.0227C260.449 11.0227 260.274 11.0639 260.115 11.1463C259.956 11.2259 259.828 11.3366 259.732 11.4787C259.638 11.6207 259.588 11.7869 259.582 11.9773V13.375C259.582 13.5852 259.626 13.7727 259.714 13.9375C259.803 14.1023 259.929 14.2315 260.094 14.3253C260.259 14.419 260.457 14.4659 260.69 14.4659C260.852 14.4659 261 14.4432 261.134 14.3977C261.27 14.3523 261.386 14.2869 261.483 14.2017C261.58 14.1136 261.651 14.0085 261.696 13.8864H263.844C263.77 14.3409 263.595 14.7358 263.32 15.071C263.044 15.4034 262.679 15.6619 262.224 15.8466C261.773 16.0284 261.244 16.1193 260.639 16.1193ZM266.922 9.18182V7.27273H274.507V9.18182H271.882V16H269.547V9.18182H266.922ZM274.753 16V9.45455H277.037V10.6989H277.105C277.224 10.2386 277.413 9.90199 277.672 9.68892C277.933 9.47585 278.239 9.36932 278.588 9.36932C278.69 9.36932 278.791 9.37784 278.891 9.39489C278.993 9.40909 279.091 9.4304 279.185 9.45881V11.4659C279.068 11.4261 278.925 11.3963 278.754 11.3764C278.584 11.3565 278.438 11.3466 278.315 11.3466C278.085 11.3466 277.878 11.3991 277.693 11.5043C277.511 11.6065 277.368 11.7514 277.263 11.9389C277.158 12.1236 277.105 12.3409 277.105 12.5909V16H274.753ZM279.956 16V9.45455H282.308V16H279.956ZM281.132 8.77273C280.814 8.77273 280.541 8.66761 280.314 8.45739C280.087 8.24716 279.973 7.99432 279.973 7.69886C279.973 7.40341 280.087 7.15057 280.314 6.94034C280.541 6.73011 280.814 6.625 281.132 6.625C281.453 6.625 281.726 6.73011 281.95 6.94034C282.178 7.15057 282.291 7.40341 282.291 7.69886C282.291 7.99432 282.178 8.24716 281.95 8.45739C281.726 8.66761 281.453 8.77273 281.132 8.77273ZM286.66 18.5909C286.004 18.5909 285.441 18.4972 284.973 18.3097C284.507 18.125 284.145 17.8693 283.886 17.5426C283.63 17.2188 283.487 16.8466 283.456 16.4261H285.723C285.745 16.5653 285.802 16.6776 285.893 16.7628C285.984 16.848 286.1 16.9091 286.243 16.946C286.387 16.9858 286.549 17.0057 286.728 17.0057C287.032 17.0057 287.284 16.9318 287.483 16.7841C287.684 16.6364 287.785 16.3693 287.785 15.983V14.875H287.717C287.632 15.0966 287.501 15.2855 287.325 15.4418C287.149 15.5952 286.937 15.7131 286.69 15.7955C286.443 15.875 286.172 15.9148 285.876 15.9148C285.41 15.9148 284.981 15.8068 284.589 15.5909C284.2 15.375 283.887 15.0327 283.652 14.5639C283.419 14.0952 283.302 13.483 283.302 12.7273C283.302 11.9375 283.424 11.2955 283.669 10.8011C283.916 10.3068 284.234 9.9446 284.623 9.71449C285.015 9.48438 285.427 9.36932 285.859 9.36932C286.183 9.36932 286.467 9.42614 286.711 9.53977C286.956 9.65057 287.16 9.79972 287.325 9.98722C287.49 10.1719 287.615 10.375 287.7 10.5966H287.751V9.45455H290.103V15.983C290.103 16.5369 289.96 17.0071 289.673 17.3935C289.389 17.7827 288.988 18.0795 288.471 18.2841C287.954 18.4886 287.35 18.5909 286.66 18.5909ZM286.745 14.2443C286.961 14.2443 287.146 14.1847 287.299 14.0653C287.456 13.9432 287.575 13.7699 287.657 13.5455C287.743 13.3182 287.785 13.0455 287.785 12.7273C287.785 12.4034 287.743 12.1264 287.657 11.8963C287.575 11.6634 287.456 11.4858 287.299 11.3636C287.146 11.2386 286.961 11.1761 286.745 11.1761C286.529 11.1761 286.345 11.2386 286.191 11.3636C286.041 11.4858 285.924 11.6634 285.842 11.8963C285.762 12.1264 285.723 12.4034 285.723 12.7273C285.723 13.0511 285.762 13.3267 285.842 13.554C285.924 13.7784 286.041 13.9503 286.191 14.0696C286.345 14.1861 286.529 14.2443 286.745 14.2443ZM294.453 18.5909C293.797 18.5909 293.234 18.4972 292.766 18.3097C292.3 18.125 291.938 17.8693 291.679 17.5426C291.423 17.2188 291.28 16.8466 291.249 16.4261H293.516C293.538 16.5653 293.595 16.6776 293.686 16.7628C293.777 16.848 293.893 16.9091 294.036 16.946C294.18 16.9858 294.342 17.0057 294.521 17.0057C294.825 17.0057 295.077 16.9318 295.276 16.7841C295.477 16.6364 295.578 16.3693 295.578 15.983V14.875H295.51C295.425 15.0966 295.294 15.2855 295.118 15.4418C294.942 15.5952 294.73 15.7131 294.483 15.7955C294.236 15.875 293.964 15.9148 293.669 15.9148C293.203 15.9148 292.774 15.8068 292.382 15.5909C291.993 15.375 291.68 15.0327 291.445 14.5639C291.212 14.0952 291.095 13.483 291.095 12.7273C291.095 11.9375 291.217 11.2955 291.462 10.8011C291.709 10.3068 292.027 9.9446 292.416 9.71449C292.808 9.48438 293.22 9.36932 293.652 9.36932C293.976 9.36932 294.26 9.42614 294.504 9.53977C294.749 9.65057 294.953 9.79972 295.118 9.98722C295.283 10.1719 295.408 10.375 295.493 10.5966H295.544V9.45455H297.896V15.983C297.896 16.5369 297.753 17.0071 297.466 17.3935C297.182 17.7827 296.781 18.0795 296.264 18.2841C295.747 18.4886 295.143 18.5909 294.453 18.5909ZM294.538 14.2443C294.754 14.2443 294.939 14.1847 295.092 14.0653C295.249 13.9432 295.368 13.7699 295.45 13.5455C295.536 13.3182 295.578 13.0455 295.578 12.7273C295.578 12.4034 295.536 12.1264 295.45 11.8963C295.368 11.6634 295.249 11.4858 295.092 11.3636C294.939 11.2386 294.754 11.1761 294.538 11.1761C294.322 11.1761 294.138 11.2386 293.984 11.3636C293.834 11.4858 293.717 11.6634 293.635 11.8963C293.555 12.1264 293.516 12.4034 293.516 12.7273C293.516 13.0511 293.555 13.3267 293.635 13.554C293.717 13.7784 293.834 13.9503 293.984 14.0696C294.138 14.1861 294.322 14.2443 294.538 14.2443ZM302.229 16.1193C301.53 16.1193 300.928 15.9858 300.422 15.7188C299.919 15.4489 299.532 15.0625 299.259 14.5597C298.989 14.054 298.854 13.4489 298.854 12.7443C298.854 12.0682 298.99 11.4773 299.263 10.9716C299.536 10.4659 299.921 10.0724 300.418 9.79119C300.915 9.50994 301.502 9.36932 302.178 9.36932C302.672 9.36932 303.12 9.44602 303.52 9.59943C303.921 9.75284 304.263 9.97585 304.547 10.2685C304.831 10.5582 305.05 10.9105 305.203 11.3253C305.357 11.7401 305.434 12.2074 305.434 12.7273V13.2727H299.587V11.9773H303.269C303.266 11.7898 303.218 11.625 303.124 11.483C303.033 11.3381 302.909 11.2259 302.753 11.1463C302.6 11.0639 302.425 11.0227 302.229 11.0227C302.039 11.0227 301.864 11.0639 301.705 11.1463C301.546 11.2259 301.418 11.3366 301.321 11.4787C301.228 11.6207 301.178 11.7869 301.172 11.9773V13.375C301.172 13.5852 301.216 13.7727 301.304 13.9375C301.392 14.1023 301.519 14.2315 301.684 14.3253C301.848 14.419 302.047 14.4659 302.28 14.4659C302.442 14.4659 302.59 14.4432 302.723 14.3977C302.86 14.3523 302.976 14.2869 303.073 14.2017C303.169 14.1136 303.24 14.0085 303.286 13.8864H305.434C305.36 14.3409 305.185 14.7358 304.909 15.071C304.634 15.4034 304.269 15.6619 303.814 15.8466C303.363 16.0284 302.834 16.1193 302.229 16.1193ZM306.393 16V9.45455H308.678V10.6989H308.746C308.865 10.2386 309.054 9.90199 309.312 9.68892C309.574 9.47585 309.879 9.36932 310.229 9.36932C310.331 9.36932 310.432 9.37784 310.531 9.39489C310.634 9.40909 310.732 9.4304 310.825 9.45881V11.4659C310.709 11.4261 310.565 11.3963 310.395 11.3764C310.224 11.3565 310.078 11.3466 309.956 11.3466C309.726 11.3466 309.518 11.3991 309.334 11.5043C309.152 11.6065 309.009 11.7514 308.903 11.9389C308.798 12.1236 308.746 12.3409 308.746 12.5909V16H306.393Z" fill="white" fill-opacity="0.65"/>
<circle cx="117.5" cy="93.5" r="5.5" fill="white"/>
<path d="M117.341 87.0393C113.66 87.0393 110.675 90.0242 110.675 93.706C110.675 97.3877 113.66 100.373 117.341 100.373C121.023 100.373 124.008 97.3877 124.008 93.706C124.008 90.0242 121.023 87.0393 117.341 87.0393ZM120.77 96.1239C121.048 96.402 121.048 96.8562 120.77 97.1343C120.492 97.4124 120.037 97.4124 119.759 97.1343L117.341 94.7164L114.924 97.1343C114.645 97.4124 114.191 97.4124 113.913 97.1343C113.635 96.8562 113.635 96.402 113.913 96.1239L116.331 93.706L113.913 91.2881C113.635 91.01 113.635 90.5557 113.913 90.2776C114.191 89.9995 114.645 89.9995 114.924 90.2776L117.341 92.6955L119.759 90.2776C120.037 89.9995 120.492 89.9995 120.77 90.2776C121.048 90.5557 121.048 91.01 120.77 91.2881L118.352 93.706L120.77 96.1239Z" fill="#FF2828"/>
<path d="M129.279 98V89.2727H135.569V91.1818H131.649V92.6818H135.245V94.5909H131.649V96.0909H135.552V98H129.279ZM143.375 91.4545L141.176 98H138.449L136.25 91.4545H138.721L139.778 95.7841H139.846L140.903 91.4545H143.375ZM146.981 98.1193C146.282 98.1193 145.68 97.9858 145.174 97.7188C144.671 97.4489 144.284 97.0625 144.011 96.5597C143.741 96.054 143.606 95.4489 143.606 94.7443C143.606 94.0682 143.742 93.4773 144.015 92.9716C144.288 92.4659 144.673 92.0724 145.17 91.7912C145.667 91.5099 146.254 91.3693 146.93 91.3693C147.424 91.3693 147.872 91.446 148.272 91.5994C148.673 91.7528 149.015 91.9759 149.299 92.2685C149.583 92.5582 149.802 92.9105 149.955 93.3253C150.109 93.7401 150.186 94.2074 150.186 94.7273V95.2727H144.339V93.9773H148.021C148.018 93.7898 147.97 93.625 147.876 93.483C147.785 93.3381 147.661 93.2259 147.505 93.1463C147.352 93.0639 147.177 93.0227 146.981 93.0227C146.791 93.0227 146.616 93.0639 146.457 93.1463C146.298 93.2259 146.17 93.3366 146.073 93.4787C145.98 93.6207 145.93 93.7869 145.924 93.9773V95.375C145.924 95.5852 145.968 95.7727 146.056 95.9375C146.144 96.1023 146.271 96.2315 146.436 96.3253C146.6 96.419 146.799 96.4659 147.032 96.4659C147.194 96.4659 147.342 96.4432 147.475 96.3977C147.612 96.3523 147.728 96.2869 147.825 96.2017C147.921 96.1136 147.992 96.0085 148.038 95.8864H150.186C150.112 96.3409 149.937 96.7358 149.661 97.071C149.386 97.4034 149.021 97.6619 148.566 97.8466C148.115 98.0284 147.586 98.1193 146.981 98.1193ZM153.498 94.3182V98H151.145V91.4545H153.378V92.6989H153.447C153.589 92.2841 153.839 91.9588 154.197 91.723C154.557 91.4872 154.978 91.3693 155.458 91.3693C155.921 91.3693 156.323 91.4759 156.664 91.6889C157.008 91.8991 157.273 92.1889 157.461 92.5582C157.651 92.9276 157.745 93.3494 157.742 93.8239V98H155.39V94.3182C155.393 93.9943 155.31 93.7401 155.143 93.5554C154.978 93.3707 154.748 93.2784 154.452 93.2784C154.259 93.2784 154.09 93.321 153.945 93.4062C153.803 93.4886 153.694 93.608 153.617 93.7642C153.54 93.9176 153.501 94.1023 153.498 94.3182ZM163.629 89.2727V98H161.26V89.2727H163.629ZM168.706 91.4545V93.1591H164.326V91.4545H168.706ZM165.161 98V91.267C165.161 90.7273 165.258 90.2798 165.451 89.9247C165.644 89.5696 165.917 89.304 166.269 89.1278C166.621 88.9517 167.036 88.8636 167.513 88.8636C167.812 88.8636 168.101 88.8864 168.383 88.9318C168.667 88.9773 168.877 89.017 169.013 89.0511L168.672 90.7386C168.587 90.7131 168.488 90.6932 168.374 90.679C168.26 90.6619 168.161 90.6534 168.076 90.6534C167.854 90.6534 167.705 90.7003 167.628 90.794C167.552 90.8878 167.513 91.0114 167.513 91.1648V98H165.161ZM171.732 91.1818V89.2727H179.317V91.1818H176.692V98H174.357V91.1818H171.732ZM182.595 94.3182V98H180.243V89.2727H182.51V92.6989H182.578C182.726 92.2812 182.972 91.956 183.316 91.723C183.659 91.4872 184.073 91.3693 184.556 91.3693C185.019 91.3693 185.421 91.4744 185.762 91.6847C186.105 91.8949 186.371 92.1847 186.558 92.554C186.749 92.9233 186.843 93.3466 186.84 93.8239V98H184.487V94.3182C184.49 93.9943 184.409 93.7401 184.244 93.5554C184.083 93.3707 183.851 93.2784 183.55 93.2784C183.36 93.2784 183.192 93.321 183.047 93.4062C182.905 93.4886 182.794 93.608 182.715 93.7642C182.638 93.9176 182.598 94.1023 182.595 94.3182ZM191.137 98.1193C190.438 98.1193 189.836 97.9858 189.33 97.7188C188.828 97.4489 188.44 97.0625 188.167 96.5597C187.897 96.054 187.762 95.4489 187.762 94.7443C187.762 94.0682 187.899 93.4773 188.171 92.9716C188.444 92.4659 188.829 92.0724 189.326 91.7912C189.823 91.5099 190.41 91.3693 191.086 91.3693C191.58 91.3693 192.028 91.446 192.428 91.5994C192.829 91.7528 193.171 91.9759 193.455 92.2685C193.74 92.5582 193.958 92.9105 194.112 93.3253C194.265 93.7401 194.342 94.2074 194.342 94.7273V95.2727H188.495V93.9773H192.177C192.174 93.7898 192.126 93.625 192.032 93.483C191.941 93.3381 191.818 93.2259 191.661 93.1463C191.508 93.0639 191.333 93.0227 191.137 93.0227C190.947 93.0227 190.772 93.0639 190.613 93.1463C190.454 93.2259 190.326 93.3366 190.23 93.4787C190.136 93.6207 190.086 93.7869 190.08 93.9773V95.375C190.08 95.5852 190.124 95.7727 190.213 95.9375C190.301 96.1023 190.427 96.2315 190.592 96.3253C190.757 96.419 190.955 96.4659 191.188 96.4659C191.35 96.4659 191.498 96.4432 191.632 96.3977C191.768 96.3523 191.884 96.2869 191.981 96.2017C192.078 96.1136 192.149 96.0085 192.194 95.8864H194.342C194.268 96.3409 194.093 96.7358 193.818 97.071C193.542 97.4034 193.177 97.6619 192.722 97.8466C192.271 98.0284 191.742 98.1193 191.137 98.1193ZM197.658 98V89.2727H201.425C202.073 89.2727 202.64 89.4006 203.126 89.6562C203.611 89.9119 203.989 90.2713 204.259 90.7344C204.529 91.1974 204.664 91.7386 204.664 92.358C204.664 92.983 204.525 93.5241 204.246 93.9815C203.971 94.4389 203.583 94.7912 203.083 95.0384C202.586 95.2855 202.005 95.4091 201.34 95.4091H199.09V93.5682H200.863C201.141 93.5682 201.378 93.5199 201.574 93.4233C201.773 93.3239 201.925 93.1832 202.03 93.0014C202.138 92.8196 202.192 92.6051 202.192 92.358C202.192 92.108 202.138 91.8949 202.03 91.7188C201.925 91.5398 201.773 91.4034 201.574 91.3097C201.378 91.2131 201.141 91.1648 200.863 91.1648H200.028V98H197.658ZM205.567 98V91.4545H207.851V92.6989H207.92C208.039 92.2386 208.228 91.902 208.486 91.6889C208.748 91.4759 209.053 91.3693 209.403 91.3693C209.505 91.3693 209.606 91.3778 209.705 91.3949C209.807 91.4091 209.905 91.4304 209.999 91.4588V93.4659C209.883 93.4261 209.739 93.3963 209.569 93.3764C209.398 93.3565 209.252 93.3466 209.13 93.3466C208.9 93.3466 208.692 93.3991 208.508 93.5043C208.326 93.6065 208.182 93.7514 208.077 93.9389C207.972 94.1236 207.92 94.3409 207.92 94.5909V98H205.567ZM210.77 98V91.4545H213.123V98H210.77ZM211.947 90.7727C211.628 90.7727 211.356 90.6676 211.128 90.4574C210.901 90.2472 210.787 89.9943 210.787 89.6989C210.787 89.4034 210.901 89.1506 211.128 88.9403C211.356 88.7301 211.628 88.625 211.947 88.625C212.268 88.625 212.54 88.7301 212.765 88.9403C212.992 89.1506 213.106 89.4034 213.106 89.6989C213.106 89.9943 212.992 90.2472 212.765 90.4574C212.54 90.6676 212.268 90.7727 211.947 90.7727ZM217.475 98.1193C216.764 98.1193 216.156 97.9787 215.651 97.6974C215.145 97.4134 214.757 97.0185 214.487 96.5128C214.218 96.0043 214.083 95.4148 214.083 94.7443C214.083 94.0739 214.218 93.4858 214.487 92.9801C214.757 92.4716 215.145 92.0767 215.651 91.7955C216.156 91.5114 216.764 91.3693 217.475 91.3693C218.117 91.3693 218.672 91.4858 219.141 91.7188C219.612 91.9489 219.977 92.2756 220.236 92.6989C220.494 93.1193 220.625 93.6136 220.628 94.1818H218.446C218.415 93.8381 218.316 93.5767 218.148 93.3977C217.983 93.2159 217.77 93.125 217.509 93.125C217.304 93.125 217.125 93.1847 216.972 93.304C216.818 93.4205 216.699 93.598 216.614 93.8366C216.529 94.0724 216.486 94.3693 216.486 94.7273C216.486 95.0852 216.529 95.3835 216.614 95.6222C216.699 95.858 216.818 96.0355 216.972 96.1548C217.125 96.2713 217.304 96.3295 217.509 96.3295C217.682 96.3295 217.835 96.2898 217.969 96.2102C218.102 96.1278 218.21 96.0085 218.293 95.8523C218.378 95.6932 218.429 95.5 218.446 95.2727H220.628C220.619 95.8494 220.487 96.3523 220.232 96.7812C219.976 97.2074 219.614 97.5369 219.145 97.7699C218.679 98.0028 218.122 98.1193 217.475 98.1193ZM224.735 98.1193C224.036 98.1193 223.434 97.9858 222.928 97.7188C222.425 97.4489 222.037 97.0625 221.765 96.5597C221.495 96.054 221.36 95.4489 221.36 94.7443C221.36 94.0682 221.496 93.4773 221.769 92.9716C222.042 92.4659 222.427 92.0724 222.924 91.7912C223.421 91.5099 224.008 91.3693 224.684 91.3693C225.178 91.3693 225.626 91.446 226.026 91.5994C226.427 91.7528 226.769 91.9759 227.053 92.2685C227.337 92.5582 227.556 92.9105 227.709 93.3253C227.863 93.7401 227.939 94.2074 227.939 94.7273V95.2727H222.093V93.9773H225.775C225.772 93.7898 225.724 93.625 225.63 93.483C225.539 93.3381 225.415 93.2259 225.259 93.1463C225.106 93.0639 224.931 93.0227 224.735 93.0227C224.545 93.0227 224.37 93.0639 224.211 93.1463C224.052 93.2259 223.924 93.3366 223.827 93.4787C223.733 93.6207 223.684 93.7869 223.678 93.9773V95.375C223.678 95.5852 223.722 95.7727 223.81 95.9375C223.898 96.1023 224.025 96.2315 224.189 96.3253C224.354 96.419 224.553 96.4659 224.786 96.4659C224.948 96.4659 225.096 96.4432 225.229 96.3977C225.366 96.3523 225.482 96.2869 225.579 96.2017C225.675 96.1136 225.746 96.0085 225.792 95.8864H227.939C227.866 96.3409 227.691 96.7358 227.415 97.071C227.14 97.4034 226.775 97.6619 226.32 97.8466C225.868 98.0284 225.34 98.1193 224.735 98.1193ZM233.625 89.2727V98H231.256V89.2727H233.625ZM240.765 93.5852H238.6C238.589 93.4517 238.542 93.3366 238.46 93.2401C238.377 93.1435 238.271 93.0696 238.14 93.0185C238.012 92.9645 237.87 92.9375 237.714 92.9375C237.512 92.9375 237.339 92.9744 237.194 93.0483C237.049 93.1222 236.978 93.2273 236.981 93.3636C236.978 93.4602 237.019 93.5497 237.105 93.6321C237.193 93.7145 237.362 93.7784 237.612 93.8239L238.941 94.0625C239.612 94.1847 240.11 94.3906 240.437 94.6804C240.767 94.9673 240.933 95.3523 240.936 95.8352C240.933 96.3011 240.794 96.706 240.518 97.0497C240.245 97.3906 239.872 97.6548 239.397 97.8423C238.926 98.027 238.387 98.1193 237.782 98.1193C236.782 98.1193 235.999 97.9148 235.434 97.5057C234.872 97.0966 234.558 96.5568 234.492 95.8864H236.828C236.859 96.0937 236.961 96.2543 237.134 96.3679C237.311 96.4787 237.532 96.5341 237.799 96.5341C238.015 96.5341 238.193 96.4972 238.332 96.4233C238.474 96.3494 238.546 96.2443 238.549 96.108C238.546 95.983 238.484 95.8835 238.362 95.8097C238.242 95.7358 238.055 95.6761 237.799 95.6307L236.64 95.4261C235.972 95.3097 235.472 95.0881 235.14 94.7614C234.808 94.4347 234.643 94.0142 234.646 93.5C234.643 93.0455 234.762 92.6605 235.004 92.3452C235.248 92.027 235.596 91.7855 236.048 91.6207C236.502 91.4531 237.041 91.3693 237.663 91.3693C238.609 91.3693 239.355 91.5653 239.9 91.9574C240.448 92.3494 240.737 92.892 240.765 93.5852ZM251.744 89.2727V98H249.767L246.614 93.4148H246.563V98H244.193V89.2727H246.205L249.307 93.8409H249.375V89.2727H251.744ZM256.053 98.1193C255.343 98.1193 254.735 97.9787 254.229 97.6974C253.723 97.4134 253.335 97.0185 253.066 96.5128C252.796 96.0043 252.661 95.4148 252.661 94.7443C252.661 94.0739 252.796 93.4858 253.066 92.9801C253.335 92.4716 253.723 92.0767 254.229 91.7955C254.735 91.5114 255.343 91.3693 256.053 91.3693C256.763 91.3693 257.371 91.5114 257.877 91.7955C258.382 92.0767 258.77 92.4716 259.04 92.9801C259.31 93.4858 259.445 94.0739 259.445 94.7443C259.445 95.4148 259.31 96.0043 259.04 96.5128C258.77 97.0185 258.382 97.4134 257.877 97.6974C257.371 97.9787 256.763 98.1193 256.053 98.1193ZM256.07 96.3807C256.269 96.3807 256.441 96.3139 256.585 96.1804C256.73 96.0469 256.843 95.8565 256.922 95.6094C257.002 95.3622 257.041 95.0682 257.041 94.7273C257.041 94.3835 257.002 94.0895 256.922 93.8452C256.843 93.598 256.73 93.4077 256.585 93.2741C256.441 93.1406 256.269 93.0739 256.07 93.0739C255.86 93.0739 255.679 93.1406 255.529 93.2741C255.378 93.4077 255.263 93.598 255.183 93.8452C255.104 94.0895 255.064 94.3835 255.064 94.7273C255.064 95.0682 255.104 95.3622 255.183 95.6094C255.263 95.8565 255.378 96.0469 255.529 96.1804C255.679 96.3139 255.86 96.3807 256.07 96.3807ZM264.303 91.4545V93.1591H259.99V91.4545H264.303ZM260.825 89.8864H263.178V95.8949C263.178 95.9858 263.193 96.0625 263.225 96.125C263.256 96.1847 263.304 96.2301 263.369 96.2614C263.435 96.2898 263.519 96.304 263.621 96.304C263.692 96.304 263.774 96.2955 263.868 96.2784C263.965 96.2614 264.036 96.2472 264.081 96.2358L264.422 97.8892C264.317 97.9205 264.166 97.9588 263.97 98.0043C263.777 98.0497 263.547 98.0795 263.28 98.0938C262.74 98.1222 262.287 98.0668 261.921 97.9276C261.554 97.7855 261.279 97.5625 261.094 97.2585C260.909 96.9545 260.82 96.5739 260.825 96.1165V89.8864ZM267.381 91.1818V89.2727H274.966V91.1818H272.341V98H270.006V91.1818H267.381ZM275.212 98V91.4545H277.496V92.6989H277.564C277.683 92.2386 277.872 91.902 278.131 91.6889C278.392 91.4759 278.698 91.3693 279.047 91.3693C279.149 91.3693 279.25 91.3778 279.35 91.3949C279.452 91.4091 279.55 91.4304 279.644 91.4588V93.4659C279.527 93.4261 279.384 93.3963 279.213 93.3764C279.043 93.3565 278.896 93.3466 278.774 93.3466C278.544 93.3466 278.337 93.3991 278.152 93.5043C277.97 93.6065 277.827 93.7514 277.722 93.9389C277.617 94.1236 277.564 94.3409 277.564 94.5909V98H275.212ZM280.415 98V91.4545H282.767V98H280.415ZM281.591 90.7727C281.273 90.7727 281 90.6676 280.773 90.4574C280.546 90.2472 280.432 89.9943 280.432 89.6989C280.432 89.4034 280.546 89.1506 280.773 88.9403C281 88.7301 281.273 88.625 281.591 88.625C281.912 88.625 282.185 88.7301 282.409 88.9403C282.637 89.1506 282.75 89.4034 282.75 89.6989C282.75 89.9943 282.637 90.2472 282.409 90.4574C282.185 90.6676 281.912 90.7727 281.591 90.7727ZM287.119 100.591C286.463 100.591 285.9 100.497 285.432 100.31C284.966 100.125 284.604 99.8693 284.345 99.5426C284.089 99.2188 283.946 98.8466 283.915 98.4261H286.182C286.204 98.5653 286.261 98.6776 286.352 98.7628C286.443 98.848 286.559 98.9091 286.702 98.946C286.846 98.9858 287.008 99.0057 287.187 99.0057C287.491 99.0057 287.743 98.9318 287.942 98.7841C288.143 98.6364 288.244 98.3693 288.244 97.983V96.875H288.176C288.091 97.0966 287.96 97.2855 287.784 97.4418C287.608 97.5952 287.396 97.7131 287.149 97.7955C286.902 97.875 286.631 97.9148 286.335 97.9148C285.869 97.9148 285.44 97.8068 285.048 97.5909C284.659 97.375 284.346 97.0327 284.111 96.5639C283.878 96.0952 283.761 95.483 283.761 94.7273C283.761 93.9375 283.883 93.2955 284.128 92.8011C284.375 92.3068 284.693 91.9446 285.082 91.7145C285.474 91.4844 285.886 91.3693 286.318 91.3693C286.642 91.3693 286.926 91.4261 287.17 91.5398C287.415 91.6506 287.619 91.7997 287.784 91.9872C287.949 92.1719 288.074 92.375 288.159 92.5966H288.21V91.4545H290.562V97.983C290.562 98.5369 290.419 99.0071 290.132 99.3935C289.848 99.7827 289.447 100.08 288.93 100.284C288.413 100.489 287.809 100.591 287.119 100.591ZM287.204 96.2443C287.42 96.2443 287.605 96.1847 287.758 96.0653C287.915 95.9432 288.034 95.7699 288.116 95.5455C288.202 95.3182 288.244 95.0455 288.244 94.7273C288.244 94.4034 288.202 94.1264 288.116 93.8963C288.034 93.6634 287.915 93.4858 287.758 93.3636C287.605 93.2386 287.42 93.1761 287.204 93.1761C286.988 93.1761 286.804 93.2386 286.65 93.3636C286.5 93.4858 286.383 93.6634 286.301 93.8963C286.221 94.1264 286.182 94.4034 286.182 94.7273C286.182 95.0511 286.221 95.3267 286.301 95.554C286.383 95.7784 286.5 95.9503 286.65 96.0696C286.804 96.1861 286.988 96.2443 287.204 96.2443ZM294.912 100.591C294.256 100.591 293.693 100.497 293.225 100.31C292.759 100.125 292.396 99.8693 292.138 99.5426C291.882 99.2188 291.739 98.8466 291.708 98.4261H293.975C293.997 98.5653 294.054 98.6776 294.145 98.7628C294.236 98.848 294.352 98.9091 294.494 98.946C294.639 98.9858 294.801 99.0057 294.98 99.0057C295.284 99.0057 295.536 98.9318 295.735 98.7841C295.936 98.6364 296.037 98.3693 296.037 97.983V96.875H295.969C295.884 97.0966 295.753 97.2855 295.577 97.4418C295.401 97.5952 295.189 97.7131 294.942 97.7955C294.695 97.875 294.423 97.9148 294.128 97.9148C293.662 97.9148 293.233 97.8068 292.841 97.5909C292.452 97.375 292.139 97.0327 291.904 96.5639C291.671 96.0952 291.554 95.483 291.554 94.7273C291.554 93.9375 291.676 93.2955 291.921 92.8011C292.168 92.3068 292.486 91.9446 292.875 91.7145C293.267 91.4844 293.679 91.3693 294.111 91.3693C294.435 91.3693 294.719 91.4261 294.963 91.5398C295.208 91.6506 295.412 91.7997 295.577 91.9872C295.742 92.1719 295.867 92.375 295.952 92.5966H296.003V91.4545H298.355V97.983C298.355 98.5369 298.212 99.0071 297.925 99.3935C297.641 99.7827 297.24 100.08 296.723 100.284C296.206 100.489 295.602 100.591 294.912 100.591ZM294.997 96.2443C295.213 96.2443 295.398 96.1847 295.551 96.0653C295.708 95.9432 295.827 95.7699 295.909 95.5455C295.994 95.3182 296.037 95.0455 296.037 94.7273C296.037 94.4034 295.994 94.1264 295.909 93.8963C295.827 93.6634 295.708 93.4858 295.551 93.3636C295.398 93.2386 295.213 93.1761 294.997 93.1761C294.781 93.1761 294.597 93.2386 294.443 93.3636C294.293 93.4858 294.176 93.6634 294.094 93.8963C294.014 94.1264 293.975 94.4034 293.975 94.7273C293.975 95.0511 294.014 95.3267 294.094 95.554C294.176 95.7784 294.293 95.9503 294.443 96.0696C294.597 96.1861 294.781 96.2443 294.997 96.2443ZM302.688 98.1193C301.989 98.1193 301.387 97.9858 300.881 97.7188C300.378 97.4489 299.991 97.0625 299.718 96.5597C299.448 96.054 299.313 95.4489 299.313 94.7443C299.313 94.0682 299.449 93.4773 299.722 92.9716C299.995 92.4659 300.38 92.0724 300.877 91.7912C301.374 91.5099 301.961 91.3693 302.637 91.3693C303.131 91.3693 303.579 91.446 303.979 91.5994C304.38 91.7528 304.722 91.9759 305.006 92.2685C305.29 92.5582 305.509 92.9105 305.662 93.3253C305.816 93.7401 305.893 94.2074 305.893 94.7273V95.2727H300.046V93.9773H303.728C303.725 93.7898 303.677 93.625 303.583 93.483C303.492 93.3381 303.368 93.2259 303.212 93.1463C303.059 93.0639 302.884 93.0227 302.688 93.0227C302.498 93.0227 302.323 93.0639 302.164 93.1463C302.005 93.2259 301.877 93.3366 301.78 93.4787C301.687 93.6207 301.637 93.7869 301.631 93.9773V95.375C301.631 95.5852 301.675 95.7727 301.763 95.9375C301.851 96.1023 301.978 96.2315 302.143 96.3253C302.307 96.419 302.506 96.4659 302.739 96.4659C302.901 96.4659 303.049 96.4432 303.182 96.3977C303.319 96.3523 303.435 96.2869 303.532 96.2017C303.628 96.1136 303.699 96.0085 303.745 95.8864H305.893C305.819 96.3409 305.644 96.7358 305.368 97.071C305.093 97.4034 304.728 97.6619 304.273 97.8466C303.822 98.0284 303.293 98.1193 302.688 98.1193ZM306.852 98V91.4545H309.137V92.6989H309.205C309.324 92.2386 309.513 91.902 309.771 91.6889C310.033 91.4759 310.338 91.3693 310.688 91.3693C310.79 91.3693 310.891 91.3778 310.99 91.3949C311.093 91.4091 311.191 91.4304 311.284 91.4588V93.4659C311.168 93.4261 311.024 93.3963 310.854 93.3764C310.683 93.3565 310.537 93.3466 310.415 93.3466C310.185 93.3466 309.977 93.3991 309.793 93.5043C309.611 93.6065 309.468 93.7514 309.362 93.9389C309.257 94.1236 309.205 94.3409 309.205 94.5909V98H306.852ZM314.817 98.1193C314.118 98.1193 313.516 97.9858 313.01 97.7188C312.507 97.4489 312.119 97.0625 311.847 96.5597C311.577 96.054 311.442 95.4489 311.442 94.7443C311.442 94.0682 311.578 93.4773 311.851 92.9716C312.124 92.4659 312.509 92.0724 313.006 91.7912C313.503 91.5099 314.09 91.3693 314.766 91.3693C315.26 91.3693 315.708 91.446 316.108 91.5994C316.509 91.7528 316.851 91.9759 317.135 92.2685C317.419 92.5582 317.638 92.9105 317.791 93.3253C317.945 93.7401 318.021 94.2074 318.021 94.7273V95.2727H312.175V93.9773H315.857C315.854 93.7898 315.806 93.625 315.712 93.483C315.621 93.3381 315.497 93.2259 315.341 93.1463C315.188 93.0639 315.013 93.0227 314.817 93.0227C314.627 93.0227 314.452 93.0639 314.293 93.1463C314.134 93.2259 314.006 93.3366 313.909 93.4787C313.816 93.6207 313.766 93.7869 313.76 93.9773V95.375C313.76 95.5852 313.804 95.7727 313.892 95.9375C313.98 96.1023 314.107 96.2315 314.271 96.3253C314.436 96.419 314.635 96.4659 314.868 96.4659C315.03 96.4659 315.178 96.4432 315.311 96.3977C315.448 96.3523 315.564 96.2869 315.661 96.2017C315.757 96.1136 315.828 96.0085 315.874 95.8864H318.021C317.948 96.3409 317.773 96.7358 317.497 97.071C317.222 97.4034 316.857 97.6619 316.402 97.8466C315.95 98.0284 315.422 98.1193 314.817 98.1193ZM321.351 98.0852C320.885 98.0852 320.456 97.9631 320.064 97.7188C319.675 97.4744 319.362 97.1037 319.126 96.6065C318.893 96.1094 318.777 95.483 318.777 94.7273C318.777 93.9375 318.899 93.2955 319.143 92.8011C319.39 92.3068 319.709 91.9446 320.098 91.7145C320.49 91.4844 320.902 91.3693 321.334 91.3693C321.657 91.3693 321.942 91.4261 322.186 91.5398C322.43 91.6506 322.635 91.7997 322.8 91.9872C322.964 92.1719 323.089 92.375 323.175 92.5966H323.209V89.2727H325.561V98H323.226V96.9261H323.175C323.084 97.1477 322.953 97.3466 322.782 97.5227C322.615 97.696 322.41 97.8338 322.169 97.9361C321.93 98.0355 321.657 98.0852 321.351 98.0852ZM322.22 96.2784C322.436 96.2784 322.621 96.2159 322.774 96.0909C322.93 95.9631 323.05 95.7841 323.132 95.554C323.217 95.321 323.26 95.0455 323.26 94.7273C323.26 94.4034 323.217 94.1264 323.132 93.8963C323.05 93.6634 322.93 93.4858 322.774 93.3636C322.621 93.2386 322.436 93.1761 322.22 93.1761C322.004 93.1761 321.819 93.2386 321.666 93.3636C321.515 93.4858 321.399 93.6634 321.317 93.8963C321.237 94.1264 321.197 94.4034 321.197 94.7273C321.197 95.0511 321.237 95.3295 321.317 95.5625C321.399 95.7926 321.515 95.9702 321.666 96.0952C321.819 96.2173 322.004 96.2784 322.22 96.2784ZM328.435 99.656L328.051 98.696C329.059 98.372 329.611 97.784 329.611 97.1L329.527 95.912L330.187 96.992C329.995 97.172 329.743 97.256 329.479 97.256C328.879 97.256 328.327 96.872 328.327 96.176C328.327 95.504 328.867 95.096 329.515 95.096C330.355 95.096 330.811 95.744 330.811 96.752C330.811 98.108 329.923 99.212 328.435 99.656ZM338.324 89.2727H340.966L342.67 92.8182H342.738L344.443 89.2727H347.085L343.881 95.2557V98H341.528V95.2557L338.324 89.2727ZM349.381 98.1193C348.671 98.1193 348.063 97.9787 347.557 97.6974C347.051 97.4134 346.664 97.0185 346.394 96.5128C346.124 96.0043 345.989 95.4148 345.989 94.7443C345.989 94.0739 346.124 93.4858 346.394 92.9801C346.664 92.4716 347.051 92.0767 347.557 91.7955C348.063 91.5114 348.671 91.3693 349.381 91.3693C350.091 91.3693 350.699 91.5114 351.205 91.7955C351.71 92.0767 352.098 92.4716 352.368 92.9801C352.638 93.4858 352.773 94.0739 352.773 94.7443C352.773 95.4148 352.638 96.0043 352.368 96.5128C352.098 97.0185 351.71 97.4134 351.205 97.6974C350.699 97.9787 350.091 98.1193 349.381 98.1193ZM349.398 96.3807C349.597 96.3807 349.769 96.3139 349.914 96.1804C350.058 96.0469 350.171 95.8565 350.25 95.6094C350.33 95.3622 350.369 95.0682 350.369 94.7273C350.369 94.3835 350.33 94.0895 350.25 93.8452C350.171 93.598 350.058 93.4077 349.914 93.2741C349.769 93.1406 349.597 93.0739 349.398 93.0739C349.188 93.0739 349.007 93.1406 348.857 93.2741C348.706 93.4077 348.591 93.598 348.512 93.8452C348.432 94.0895 348.392 94.3835 348.392 94.7273C348.392 95.0682 348.432 95.3622 348.512 95.6094C348.591 95.8565 348.706 96.0469 348.857 96.1804C349.007 96.3139 349.188 96.3807 349.398 96.3807ZM357.972 95.1364V91.4545H360.324V98H358.091V96.7557H358.023C357.881 97.1733 357.632 97.5 357.277 97.7358C356.922 97.9687 356.5 98.0852 356.012 98.0852C355.554 98.0852 355.154 97.9801 354.81 97.7699C354.469 97.5597 354.203 97.2699 354.013 96.9006C353.825 96.5312 353.73 96.108 353.727 95.6307V91.4545H356.08V95.1364C356.083 95.4602 356.165 95.7145 356.327 95.8991C356.492 96.0838 356.722 96.1761 357.017 96.1761C357.213 96.1761 357.382 96.1349 357.524 96.0526C357.669 95.9673 357.78 95.848 357.857 95.6946C357.936 95.5384 357.975 95.3523 357.972 95.1364ZM372.025 92.5455H369.621C369.604 92.3466 369.559 92.1662 369.485 92.0043C369.414 91.8423 369.314 91.7031 369.187 91.5866C369.062 91.4673 368.91 91.3764 368.731 91.3139C368.552 91.2486 368.349 91.2159 368.121 91.2159C367.724 91.2159 367.387 91.3125 367.111 91.5057C366.839 91.6989 366.631 91.9759 366.489 92.3366C366.35 92.6974 366.28 93.1307 366.28 93.6364C366.28 94.1705 366.351 94.6179 366.493 94.9787C366.638 95.3366 366.847 95.6065 367.12 95.7884C367.393 95.9673 367.721 96.0568 368.104 96.0568C368.323 96.0568 368.519 96.0298 368.692 95.9759C368.866 95.919 369.016 95.8381 369.144 95.733C369.272 95.6278 369.376 95.5014 369.455 95.3537C369.537 95.2031 369.593 95.0341 369.621 94.8466L372.025 94.8636C371.996 95.233 371.893 95.6094 371.714 95.9929C371.535 96.3736 371.28 96.7259 370.951 97.0497C370.624 97.3707 370.219 97.6293 369.736 97.8253C369.253 98.0213 368.692 98.1193 368.053 98.1193C367.252 98.1193 366.533 97.9474 365.897 97.6037C365.263 97.2599 364.762 96.7543 364.393 96.0866C364.026 95.419 363.843 94.6023 363.843 93.6364C363.843 92.6648 364.03 91.8466 364.405 91.1818C364.78 90.5142 365.286 90.0099 365.922 89.669C366.559 89.3253 367.269 89.1534 368.053 89.1534C368.604 89.1534 369.111 89.2287 369.574 89.3793C370.037 89.5298 370.444 89.75 370.793 90.0398C371.143 90.3267 371.424 90.6804 371.637 91.1009C371.85 91.5213 371.979 92.0028 372.025 92.5455ZM374.958 98.1023C374.54 98.1023 374.171 98.0341 373.85 97.8977C373.531 97.7585 373.281 97.5483 373.1 97.267C372.918 96.9858 372.827 96.6278 372.827 96.1932C372.827 95.8352 372.888 95.5298 373.01 95.277C373.132 95.0213 373.303 94.8125 373.521 94.6506C373.74 94.4886 373.994 94.3651 374.284 94.2798C374.577 94.1946 374.892 94.1392 375.23 94.1136C375.597 94.0852 375.891 94.0511 376.112 94.0114C376.337 93.9687 376.499 93.9105 376.598 93.8366C376.698 93.7599 376.747 93.6591 376.747 93.5341V93.517C376.747 93.3466 376.682 93.2159 376.551 93.125C376.421 93.0341 376.253 92.9886 376.048 92.9886C375.824 92.9886 375.641 93.0384 375.499 93.1378C375.36 93.2344 375.276 93.3835 375.247 93.5852H373.083C373.111 93.1875 373.237 92.821 373.462 92.4858C373.689 92.1477 374.02 91.8778 374.455 91.6761C374.889 91.4716 375.432 91.3693 376.083 91.3693C376.551 91.3693 376.972 91.4247 377.344 91.5355C377.716 91.6435 378.033 91.7955 378.294 91.9915C378.556 92.1847 378.754 92.4119 378.891 92.6733C379.03 92.9318 379.1 93.2131 379.1 93.517V98H376.901V97.0795H376.85C376.719 97.3239 376.56 97.5213 376.372 97.6719C376.188 97.8224 375.976 97.9318 375.737 98C375.502 98.0682 375.242 98.1023 374.958 98.1023ZM375.725 96.6193C375.904 96.6193 376.071 96.5824 376.227 96.5085C376.387 96.4347 376.516 96.3281 376.615 96.1889C376.715 96.0497 376.764 95.8807 376.764 95.6818V95.1364C376.702 95.1619 376.635 95.1861 376.564 95.2088C376.496 95.2315 376.422 95.2528 376.343 95.2727C376.266 95.2926 376.183 95.3111 376.095 95.3281C376.01 95.3452 375.921 95.3608 375.827 95.375C375.645 95.4034 375.496 95.4503 375.379 95.5156C375.266 95.5781 375.181 95.6562 375.124 95.75C375.07 95.8409 375.043 95.9432 375.043 96.0568C375.043 96.2386 375.107 96.3778 375.235 96.4744C375.362 96.571 375.526 96.6193 375.725 96.6193ZM382.576 94.3182V98H380.224V91.4545H382.456V92.6989H382.525C382.667 92.2841 382.917 91.9588 383.275 91.723C383.635 91.4872 384.056 91.3693 384.536 91.3693C384.999 91.3693 385.401 91.4759 385.742 91.6889C386.086 91.8991 386.351 92.1889 386.539 92.5582C386.729 92.9276 386.823 93.3494 386.82 93.8239V98H384.468V94.3182C384.471 93.9943 384.388 93.7401 384.221 93.5554C384.056 93.3707 383.826 93.2784 383.53 93.2784C383.337 93.2784 383.168 93.321 383.023 93.4062C382.881 93.4886 382.772 93.608 382.695 93.7642C382.618 93.9176 382.579 94.1023 382.576 94.3182ZM395.042 92C395.02 91.7159 394.913 91.4943 394.723 91.3352C394.535 91.1761 394.25 91.0966 393.866 91.0966C393.622 91.0966 393.422 91.1264 393.265 91.1861C393.112 91.2429 392.998 91.321 392.925 91.4205C392.851 91.5199 392.812 91.6335 392.809 91.7614C392.804 91.8665 392.822 91.9616 392.865 92.0469C392.91 92.1293 392.981 92.2045 393.078 92.2727C393.175 92.3381 393.298 92.3977 393.449 92.4517C393.599 92.5057 393.778 92.554 393.986 92.5966L394.702 92.75C395.184 92.8523 395.598 92.9872 395.942 93.1548C396.285 93.3224 396.567 93.5199 396.785 93.7472C397.004 93.9716 397.165 94.2244 397.267 94.5057C397.372 94.7869 397.426 95.0937 397.429 95.4261C397.426 96 397.282 96.4858 396.998 96.8835C396.714 97.2812 396.308 97.5838 395.78 97.7912C395.254 97.9986 394.622 98.1023 393.883 98.1023C393.125 98.1023 392.463 97.9901 391.898 97.7656C391.335 97.5412 390.898 97.196 390.585 96.7301C390.275 96.2614 390.119 95.6619 390.116 94.9318H392.366C392.381 95.1989 392.447 95.4233 392.567 95.6051C392.686 95.7869 392.854 95.9247 393.069 96.0185C393.288 96.1122 393.548 96.1591 393.849 96.1591C394.102 96.1591 394.314 96.1278 394.484 96.0653C394.655 96.0028 394.784 95.9162 394.872 95.8054C394.96 95.6946 395.006 95.5682 395.008 95.4261C395.006 95.2926 394.961 95.1761 394.876 95.0767C394.794 94.9744 394.657 94.8835 394.467 94.804C394.277 94.7216 394.02 94.6449 393.696 94.5739L392.827 94.3864C392.054 94.2187 391.444 93.9389 390.998 93.5469C390.555 93.152 390.335 92.6136 390.338 91.9318C390.335 91.3778 390.483 90.8935 390.781 90.4787C391.082 90.0611 391.498 89.7358 392.03 89.5028C392.564 89.2699 393.176 89.1534 393.866 89.1534C394.571 89.1534 395.18 89.2713 395.694 89.5071C396.209 89.7429 396.605 90.0753 396.883 90.5043C397.165 90.9304 397.307 91.429 397.309 92H395.042ZM402.268 91.4545V93.1591H397.955V91.4545H402.268ZM398.79 89.8864H401.143V95.8949C401.143 95.9858 401.158 96.0625 401.189 96.125C401.221 96.1847 401.269 96.2301 401.334 96.2614C401.4 96.2898 401.483 96.304 401.586 96.304C401.657 96.304 401.739 96.2955 401.833 96.2784C401.93 96.2614 402.001 96.2472 402.046 96.2358L402.387 97.8892C402.282 97.9205 402.131 97.9588 401.935 98.0043C401.742 98.0497 401.512 98.0795 401.245 98.0938C400.705 98.1222 400.252 98.0668 399.885 97.9276C399.519 97.7855 399.243 97.5625 399.059 97.2585C398.874 96.9545 398.785 96.5739 398.79 96.1165V89.8864ZM403.227 98V91.4545H405.58V98H403.227ZM404.404 90.7727C404.085 90.7727 403.813 90.6676 403.585 90.4574C403.358 90.2472 403.244 89.9943 403.244 89.6989C403.244 89.4034 403.358 89.1506 403.585 88.9403C403.813 88.7301 404.085 88.625 404.404 88.625C404.725 88.625 404.997 88.7301 405.222 88.9403C405.449 89.1506 405.563 89.4034 405.563 89.6989C405.563 89.9943 405.449 90.2472 405.222 90.4574C404.997 90.6676 404.725 90.7727 404.404 90.7727ZM409.131 89.2727V98H406.778V89.2727H409.131ZM412.681 89.2727V98H410.329V89.2727H412.681Z" fill="white" fill-opacity="0.65"/>
</svg>
