<svg width="394" height="106" viewBox="0 0 394 106" fill="none" xmlns="http://www.w3.org/2000/svg">
<path d="M182.392 47.2138C182.443 46.3828 182.217 45.7159 181.714 45.2131C181.215 44.706 180.495 44.4524 179.553 44.4524C178.914 44.4524 178.328 44.5696 177.796 44.804C177.263 45.0384 176.82 45.3601 176.466 45.7692C176.117 46.174 175.897 46.6364 175.808 47.1562C175.752 47.4929 175.767 47.7976 175.852 48.0703C175.942 48.3388 176.089 48.5774 176.294 48.7862C176.498 48.995 176.752 49.1804 177.054 49.3423C177.357 49.5 177.695 49.6385 178.07 49.7578L179.432 50.1797C179.896 50.3288 180.32 50.5014 180.704 50.6974C181.092 50.8935 181.418 51.1278 181.682 51.4006C181.946 51.669 182.134 51.9844 182.244 52.3466C182.36 52.7088 182.377 53.1264 182.296 53.5994C182.181 54.3026 181.904 54.9268 181.465 55.4723C181.026 56.0178 180.457 56.4439 179.758 56.7507C179.059 57.0575 178.254 57.2109 177.342 57.2109C176.502 57.2109 175.791 57.0682 175.207 56.7827C174.627 56.4972 174.199 56.1009 173.922 55.5938C173.645 55.0824 173.539 54.4943 173.602 53.8295H174.421C174.374 54.3707 174.47 54.8395 174.708 55.2358C174.947 55.6278 175.303 55.9304 175.776 56.1435C176.253 56.3565 176.818 56.4631 177.47 56.4631C178.177 56.4631 178.816 56.3416 179.387 56.0987C179.963 55.8558 180.436 55.5192 180.806 55.0888C181.181 54.6584 181.416 54.1598 181.509 53.593C181.586 53.1328 181.544 52.7365 181.382 52.4041C181.22 52.0717 180.945 51.7862 180.557 51.5476C180.173 51.3047 179.686 51.0916 179.093 50.9084L177.623 50.4482C176.651 50.1371 175.942 49.7152 175.494 49.1825C175.047 48.6456 174.887 47.9787 175.015 47.1818C175.134 46.4957 175.414 45.8928 175.852 45.3729C176.291 44.853 176.843 44.446 177.508 44.152C178.173 43.858 178.897 43.7109 179.681 43.7109C180.461 43.7109 181.124 43.8622 181.669 44.1648C182.219 44.4631 182.624 44.8764 182.884 45.4048C183.148 45.9332 183.244 46.5362 183.171 47.2138H182.392ZM189.717 47.1818L189.595 47.8786H185.313L185.428 47.1818H189.717ZM187.262 44.8295H188.036L186.412 54.6797C186.344 55.0803 186.365 55.4084 186.476 55.6641C186.591 55.9155 186.764 56.103 186.994 56.2266C187.228 56.3459 187.494 56.4055 187.793 56.4055C187.925 56.4055 188.044 56.3949 188.151 56.3736C188.257 56.348 188.364 56.3203 188.47 56.2905L188.541 57C188.409 57.0469 188.268 57.0852 188.119 57.1151C187.97 57.1449 187.797 57.1598 187.601 57.1598C187.192 57.1598 186.821 57.0682 186.489 56.8849C186.161 56.7017 185.911 56.4354 185.741 56.0859C185.575 55.7365 185.534 55.3146 185.619 54.8203L187.262 44.8295ZM194.671 57.2045C193.784 57.2045 193.049 56.9851 192.465 56.5462C191.882 56.1072 191.475 55.5064 191.244 54.7436C191.014 53.9808 190.98 53.1115 191.142 52.1357C191.304 51.1555 191.628 50.282 192.114 49.5149C192.6 48.7479 193.194 48.1428 193.897 47.6996C194.6 47.2564 195.359 47.0348 196.173 47.0348C196.722 47.0348 197.223 47.1456 197.675 47.3672C198.131 47.5888 198.514 47.9062 198.825 48.3196C199.137 48.7287 199.352 49.2251 199.471 49.8089C199.59 50.3928 199.59 51.049 199.471 51.7777L199.382 52.2635H191.609L191.73 51.554H198.717C198.836 50.8466 198.802 50.2074 198.615 49.6364C198.427 49.0611 198.116 48.6051 197.681 48.2685C197.251 47.9318 196.722 47.7635 196.096 47.7635C195.457 47.7635 194.847 47.9489 194.268 48.3196C193.693 48.6861 193.198 49.1761 192.785 49.7898C192.376 50.4034 192.103 51.0788 191.967 51.8161L191.89 52.2124C191.754 53.0561 191.771 53.7997 191.941 54.4432C192.116 55.0824 192.44 55.5831 192.913 55.9453C193.386 56.3033 194.004 56.4822 194.767 56.4822C195.299 56.4822 195.772 56.3928 196.186 56.2138C196.603 56.0305 196.957 55.8089 197.247 55.549C197.541 55.2891 197.771 55.0376 197.937 54.7947L198.583 55.0824C198.387 55.4105 198.105 55.7386 197.739 56.0668C197.372 56.3906 196.931 56.6612 196.416 56.8786C195.9 57.0959 195.318 57.2045 194.671 57.2045ZM200.69 60.6818L202.94 47.1818H203.701L203.343 49.3743H203.439C203.661 48.9524 203.938 48.5646 204.27 48.2109C204.607 47.8572 205.001 47.5739 205.452 47.3608C205.908 47.1435 206.418 47.0348 206.98 47.0348C207.773 47.0348 208.427 47.2521 208.942 47.6868C209.458 48.1214 209.814 48.7202 210.01 49.483C210.206 50.2457 210.223 51.1236 210.061 52.1165C209.895 53.1051 209.584 53.983 209.128 54.75C208.676 55.5128 208.122 56.1136 207.466 56.5526C206.81 56.9872 206.089 57.2045 205.305 57.2045C204.747 57.2045 204.274 57.098 203.886 56.8849C203.503 56.6719 203.2 56.3885 202.979 56.0348C202.757 55.6768 202.604 55.2848 202.518 54.8587H202.442L201.47 60.6818H200.69ZM202.889 52.1101C202.753 52.9453 202.753 53.6932 202.889 54.3537C203.03 55.0099 203.303 55.5298 203.707 55.9134C204.116 56.2926 204.651 56.4822 205.312 56.4822C205.981 56.4822 206.588 56.2905 207.134 55.907C207.683 55.5192 208.143 54.995 208.514 54.3345C208.889 53.674 209.145 52.9325 209.281 52.1101C209.418 51.2876 209.418 50.5483 209.281 49.892C209.145 49.2358 208.874 48.718 208.469 48.3388C208.065 47.9553 207.523 47.7635 206.846 47.7635C206.181 47.7635 205.574 47.9531 205.024 48.3324C204.474 48.7074 204.014 49.223 203.643 49.8793C203.277 50.5312 203.026 51.2749 202.889 52.1101ZM221.015 57.179C220.24 57.179 219.569 57.032 219.002 56.7379C218.435 56.4439 218.013 56.0369 217.736 55.517C217.464 54.9972 217.381 54.4006 217.487 53.7273H218.286C218.209 54.2599 218.275 54.7308 218.484 55.1399C218.693 55.5447 219.015 55.8622 219.449 56.0923C219.888 56.3224 220.412 56.4375 221.022 56.4375C221.665 56.4375 222.262 56.3097 222.812 56.054C223.361 55.7983 223.817 55.451 224.18 55.0121C224.542 54.5689 224.768 54.0703 224.857 53.5163C224.947 52.9411 224.878 52.4382 224.653 52.0078C224.427 51.5774 224.067 51.2408 223.572 50.9979C223.078 50.755 222.473 50.6335 221.757 50.6335H221.258L221.373 49.892H221.84C222.449 49.892 223.016 49.7791 223.54 49.5533C224.064 49.3232 224.501 49.0014 224.851 48.5881C225.2 48.1747 225.417 47.6868 225.503 47.1243C225.592 46.6087 225.558 46.1506 225.4 45.75C225.243 45.3494 224.974 45.0362 224.595 44.8104C224.22 44.5803 223.745 44.4652 223.17 44.4652C222.611 44.4652 222.081 44.5781 221.578 44.804C221.079 45.0298 220.657 45.3473 220.312 45.7564C219.967 46.1655 219.75 46.6406 219.66 47.1818H218.874C218.993 46.5043 219.26 45.9077 219.673 45.392C220.086 44.8722 220.598 44.4652 221.207 44.1712C221.821 43.8771 222.477 43.7301 223.176 43.7301C223.913 43.7301 224.531 43.8835 225.03 44.1903C225.532 44.4972 225.893 44.9105 226.11 45.4304C226.331 45.9503 226.389 46.5277 226.282 47.1626C226.167 47.9169 225.852 48.5604 225.336 49.093C224.821 49.6214 224.19 49.9922 223.444 50.2053V50.2692C224.258 50.4609 224.861 50.8551 225.253 51.4517C225.65 52.044 225.78 52.7536 225.643 53.5803C225.528 54.2791 225.256 54.8991 224.825 55.4403C224.395 55.9815 223.851 56.4077 223.195 56.7188C222.539 57.0256 221.812 57.179 221.015 57.179Z" fill="white"/>
<path d="M0.5 42V12H143" stroke="white" stroke-opacity="0.45" stroke-dasharray="2 2"/>
<path d="M1.5 64V94H143" stroke="white" stroke-opacity="0.45" stroke-dasharray="2 2"/>
<path d="M392.5 42V12H257.5" stroke="white" stroke-opacity="0.45" stroke-dasharray="2 2"/>
<path d="M393.5 64.5V94.5H254.5" stroke="white" stroke-opacity="0.45" stroke-dasharray="2 2"/>
<circle cx="154" cy="12" r="5" fill="white"/>
<path d="M154 5.33333C157.682 5.33333 160.667 8.318 160.667 12C160.667 15.682 157.682 18.6667 154 18.6667C150.318 18.6667 147.333 15.682 147.333 12C147.333 8.318 150.318 5.33333 154 5.33333ZM156.328 9.39533L152.921 12.8073L151.605 11.4913L150.662 12.434L152.922 14.694L157.272 10.338L156.328 9.39533Z" fill="#62D62B"/>
<path d="M175.388 10.58H174.476C174.428 11.312 174.368 11.996 174.272 12.644C174.656 12.884 175.016 13.112 175.34 13.316C175.34 12.488 175.364 11.576 175.388 10.58ZM174.536 9.008H177.176C176.924 13.46 176.852 16.532 177.2 16.532C177.332 16.532 177.416 16.052 177.452 15.044C177.788 15.356 178.436 15.704 178.844 15.836C178.676 17.672 178.196 18.164 177.116 18.164C175.784 18.164 175.412 16.712 175.352 14.288L174.764 15.056C174.536 14.864 174.248 14.636 173.9 14.408C173.456 15.968 172.736 17.252 171.56 18.248C171.368 17.912 170.708 17.144 170.324 16.82C171.428 16.016 172.064 14.864 172.436 13.436C172.076 13.208 171.728 12.992 171.404 12.8L171.464 13.148C171.08 13.28 170.672 13.424 170.276 13.556V16.232C170.276 17.012 170.156 17.468 169.736 17.756C169.316 18.032 168.752 18.104 167.96 18.104C167.912 17.636 167.708 16.904 167.504 16.412C167.876 16.436 168.284 16.436 168.428 16.436C168.572 16.436 168.62 16.388 168.62 16.232V14.096L167.66 14.408L167.276 12.74C167.66 12.644 168.116 12.524 168.62 12.38V10.532H167.468V8.936H168.62V6.74H170.276V8.936H171.26V10.532H170.276V11.888L171.188 11.6L171.32 12.32L172.052 11.396L172.736 11.768C172.772 11.384 172.808 10.988 172.832 10.58H171.452V9.008H172.88C172.88 8.288 172.88 7.532 172.856 6.74L174.548 6.728C174.56 7.52 174.548 8.288 174.536 9.008ZM190.28 7.4V9.056H184.436V7.4H190.28ZM181.964 6.74L183.644 7.436C182.732 8.624 181.4 9.908 180.212 10.724C179.996 10.328 179.552 9.632 179.252 9.284C180.248 8.66 181.4 7.568 181.964 6.74ZM182.408 9.38L184.064 10.016C183.716 10.616 183.284 11.24 182.816 11.84V18.14H181.064V13.808C180.8 14.048 180.548 14.288 180.296 14.492C180.056 14.12 179.468 13.328 179.12 12.968C180.332 12.128 181.64 10.736 182.408 9.38ZM190.58 10.736V12.392H189.008V16.184C189.008 17.072 188.852 17.552 188.252 17.816C187.676 18.08 186.872 18.104 185.852 18.104C185.792 17.588 185.564 16.82 185.336 16.316C185.924 16.352 186.716 16.352 186.932 16.352C187.148 16.352 187.22 16.304 187.22 16.136V12.392H183.932V10.736H190.58ZM194.336 15.56H199.496V14.48H194.336V15.56ZM199.496 11.732H194.336V12.836H199.496V11.732ZM199.496 9.044H194.336V10.088H199.496V9.044ZM192.572 7.34H201.356V17.972H199.496V17.264H194.336V17.972H192.572V7.34ZM213.944 7.388V9.008H208.616V7.388H213.944ZM208.172 12.668L207.272 14.036C207.116 13.7 206.876 13.256 206.612 12.812V18.14H204.884V13.976C204.632 14.732 204.332 15.428 204.008 15.932C203.84 15.452 203.432 14.672 203.156 14.204C203.768 13.364 204.296 11.876 204.572 10.616H203.3V9.008H204.884V6.74H206.612V9.008H207.92V10.616H206.612V10.832C206.972 11.204 207.968 12.392 208.172 12.668ZM208.4 12.848L209.96 13.208C209.624 14.624 209.024 16.148 208.424 17.096C208.112 16.844 207.44 16.4 207.068 16.208C207.656 15.392 208.136 14.072 208.4 12.848ZM214.604 11.876H212.06V16.148C212.06 16.964 211.952 17.456 211.448 17.744C210.956 18.032 210.344 18.068 209.54 18.068C209.492 17.552 209.288 16.784 209.06 16.268C209.456 16.292 209.936 16.292 210.092 16.292C210.236 16.292 210.284 16.256 210.284 16.112V11.876H208.052V10.256H214.604V11.876ZM212.228 13.28L213.656 12.788C214.184 14.024 214.676 15.584 214.808 16.616L213.248 17.192C213.152 16.172 212.72 14.552 212.228 13.28ZM221.816 6.704L223.652 7.004C223.58 7.196 223.508 7.388 223.424 7.568C224.168 8.888 225.452 10.136 226.832 10.844C226.448 11.168 225.896 11.816 225.632 12.248C225.44 12.128 225.248 11.996 225.056 11.864V18.116H223.244V11.684H224.816C223.964 11.012 223.208 10.148 222.572 9.188C221.96 10.136 221.168 10.988 220.136 11.72H221.804V13.376C221.804 14.828 221.48 16.856 219.776 18.248C219.5 17.864 218.924 17.312 218.48 17.024C219.896 15.98 220.028 14.324 220.028 13.352V11.792C219.716 12.008 219.392 12.212 219.032 12.404C218.888 12.092 218.588 11.624 218.3 11.276V18.128H216.548V12.44C216.404 12.62 216.248 12.788 216.104 12.944C215.948 12.512 215.48 11.54 215.192 11.108C216.224 10.064 217.22 8.408 217.796 6.752L219.44 7.268C219.128 8.096 218.744 8.948 218.3 9.776V10.796C220.28 9.728 221.312 8.228 221.816 6.704ZM236.816 10.868L235.388 10.172C235.616 9.836 235.88 9.392 236.12 8.936H228.14V7.304H237.02L237.296 7.208L238.616 7.724C238.124 8.84 237.428 10.052 236.816 10.868ZM232.676 10.328L231.668 11.636C231.152 11.24 230.048 10.64 229.256 10.256L230.204 9.092C230.972 9.404 232.1 9.944 232.676 10.328ZM238.4 14.504H233.804C233.048 16.232 231.5 17.432 228.212 18.128C228.068 17.696 227.66 17.048 227.336 16.688C229.772 16.22 231.104 15.524 231.836 14.504H227.696V12.908H229.688C229.172 12.572 228.428 12.164 227.852 11.9L228.812 10.748C229.508 11.036 230.528 11.516 231.044 11.864L230.228 12.908H232.52C232.76 11.888 232.772 10.676 232.808 9.212H234.56C234.512 10.592 234.464 11.828 234.272 12.908H238.4V14.504ZM233.168 16.136L234.044 14.876C235.652 15.416 237.44 16.208 238.448 16.784L237.344 18.152C236.396 17.54 234.728 16.7 233.168 16.136ZM242.096 8.216L243.176 6.704C247.016 9.536 247.028 13.544 250.832 16.028C250.556 16.508 250.088 17.504 249.992 18.044C247.664 16.736 246.56 14.432 245.36 12.272C244.412 14.84 242.96 16.76 240.92 17.972C240.608 17.6 239.78 16.868 239.324 16.544C241.808 15.344 243.272 13.088 243.956 10.016C243.428 9.32 242.828 8.696 242.096 8.216Z" fill="white" fill-opacity="0.65"/>
<circle cx="157" cy="93.5" r="5.5" fill="white"/>
<path d="M156.841 87.0393C153.159 87.0393 150.174 90.0242 150.174 93.7059C150.174 97.3877 153.159 100.373 156.841 100.373C160.523 100.373 163.508 97.3877 163.508 93.7059C163.508 90.0242 160.523 87.0393 156.841 87.0393ZM160.269 96.1239C160.547 96.402 160.547 96.8562 160.269 97.1343C159.991 97.4124 159.537 97.4124 159.259 97.1343L156.841 94.7164L154.423 97.1343C154.145 97.4124 153.691 97.4124 153.413 97.1343C153.135 96.8562 153.135 96.402 153.413 96.1239L155.831 93.7059L153.413 91.288C153.135 91.0099 153.135 90.5557 153.413 90.2776C153.691 89.9995 154.145 89.9995 154.423 90.2776L156.841 92.6955L159.259 90.2776C159.537 89.9995 159.991 89.9995 160.269 90.2776C160.547 90.5557 160.547 91.0099 160.269 91.288L157.851 93.7059L160.269 96.1239Z" fill="#FF2828"/>
<path d="M170.946 94.116L171.642 93.3H169.086V91.836H173.406V91.236H169.902V89.76H173.406V88.812H175.194V89.76H178.818V91.236H175.194V91.836H178.314L178.59 91.74L179.838 92.256C179.406 93.168 178.782 94.152 178.206 94.812L176.91 94.056C177.078 93.84 177.258 93.576 177.426 93.3H172.242C172.842 93.516 173.49 93.828 173.862 94.092L172.986 95.16C172.554 94.812 171.654 94.368 170.946 94.116ZM179.538 97.368H174.954C174.198 98.712 172.71 99.66 169.662 100.212C169.53 99.768 169.134 99.108 168.81 98.736C170.79 98.436 171.978 97.98 172.71 97.368H168.942V95.868H171.006C170.562 95.628 169.998 95.388 169.518 95.232L170.286 94.224C170.982 94.404 171.894 94.776 172.374 95.112L171.798 95.868H173.67C173.862 95.22 173.91 94.464 173.97 93.6H175.794C175.734 94.428 175.662 95.184 175.506 95.868H179.538V97.368ZM174.642 98.748L175.386 97.428C177.006 97.728 178.842 98.244 179.91 98.664L178.962 100.116C177.954 99.648 176.262 99.084 174.642 98.748ZM189.306 94.788H191.274V100.14H189.306V99.504H181.146V94.8H183.114V97.764H185.226V94.236H181.818V89.724H183.678V92.544H185.226V88.752H187.182V92.544H188.838V89.712H190.794V94.236H187.182V97.764H189.306V94.788ZM204.42 92.568L206.184 92.976C205.692 94.596 205.008 96.072 204.168 97.332C204.384 97.956 204.624 98.328 204.828 98.328C205.032 98.328 205.164 97.704 205.224 96.24C205.608 96.66 206.232 97.092 206.724 97.284C206.46 99.66 205.884 100.164 204.648 100.164C203.964 100.164 203.4 99.696 202.932 98.904C202.452 99.432 201.936 99.888 201.396 100.284C201.12 99.936 200.412 99.252 200.016 98.952C200.22 98.832 200.412 98.7 200.604 98.556C198.948 98.928 197.184 99.288 195.828 99.588L195.504 97.788C196.896 97.572 199.008 97.176 200.916 96.78L201.048 98.196C201.456 97.848 201.828 97.464 202.176 97.044C201.756 95.652 201.48 93.912 201.336 92.136H195.552V90.42H201.228C201.192 89.868 201.18 89.316 201.18 88.776H203.052C203.04 89.316 203.04 89.868 203.064 90.42H204.54C204.204 90.18 203.808 89.928 203.46 89.748L204.504 88.68C205.08 88.944 205.848 89.388 206.22 89.748L205.584 90.42H206.472V92.136H203.172C203.268 93.108 203.4 94.032 203.544 94.872C203.904 94.152 204.192 93.384 204.42 92.568ZM199.056 95.16V94.176H197.64V95.16H199.056ZM196.056 92.724H200.748V96.612H196.056V92.724ZM221.202 95.148H217.434C218.442 96.372 219.978 97.524 221.526 98.196C221.118 98.544 220.542 99.252 220.254 99.72C218.946 99.012 217.698 97.956 216.666 96.732V100.14H214.806V96.78C213.762 97.968 212.502 99 211.182 99.696C210.894 99.252 210.306 98.544 209.898 98.184C211.458 97.512 213.006 96.372 214.026 95.148H210.342V93.42H214.806V92.184H211.266V90.456H214.806V88.74H216.666V90.456H220.29V92.184H216.666V93.42H221.202V95.148ZM230.13 92.58H229.218C229.17 93.312 229.11 93.996 229.014 94.644C229.398 94.884 229.758 95.112 230.082 95.316C230.082 94.488 230.106 93.576 230.13 92.58ZM229.278 91.008H231.918C231.666 95.46 231.594 98.532 231.942 98.532C232.074 98.532 232.158 98.052 232.194 97.044C232.53 97.356 233.178 97.704 233.586 97.836C233.418 99.672 232.938 100.164 231.858 100.164C230.526 100.164 230.154 98.712 230.094 96.288L229.506 97.056C229.278 96.864 228.99 96.636 228.642 96.408C228.198 97.968 227.478 99.252 226.302 100.248C226.11 99.912 225.45 99.144 225.066 98.82C226.17 98.016 226.806 96.864 227.178 95.436C226.818 95.208 226.47 94.992 226.146 94.8L226.206 95.148C225.822 95.28 225.414 95.424 225.018 95.556V98.232C225.018 99.012 224.898 99.468 224.478 99.756C224.058 100.032 223.494 100.104 222.702 100.104C222.654 99.636 222.45 98.904 222.246 98.412C222.618 98.436 223.026 98.436 223.17 98.436C223.314 98.436 223.362 98.388 223.362 98.232V96.096L222.402 96.408L222.018 94.74C222.402 94.644 222.858 94.524 223.362 94.38V92.532H222.21V90.936H223.362V88.74H225.018V90.936H226.002V92.532H225.018V93.888L225.93 93.6L226.062 94.32L226.794 93.396L227.478 93.768C227.514 93.384 227.55 92.988 227.574 92.58H226.194V91.008H227.622C227.622 90.288 227.622 89.532 227.598 88.74L229.29 88.728C229.302 89.52 229.29 90.288 229.278 91.008ZM245.022 89.4V91.056H239.178V89.4H245.022ZM236.706 88.74L238.386 89.436C237.474 90.624 236.142 91.908 234.954 92.724C234.738 92.328 234.294 91.632 233.994 91.284C234.99 90.66 236.142 89.568 236.706 88.74ZM237.15 91.38L238.806 92.016C238.458 92.616 238.026 93.24 237.558 93.84V100.14H235.806V95.808C235.542 96.048 235.29 96.288 235.038 96.492C234.798 96.12 234.21 95.328 233.862 94.968C235.074 94.128 236.382 92.736 237.15 91.38ZM245.322 92.736V94.392H243.75V98.184C243.75 99.072 243.594 99.552 242.994 99.816C242.418 100.08 241.614 100.104 240.594 100.104C240.534 99.588 240.306 98.82 240.078 98.316C240.666 98.352 241.458 98.352 241.674 98.352C241.89 98.352 241.962 98.304 241.962 98.136V94.392H238.674V92.736H245.322Z" fill="white" fill-opacity="0.65"/>
</svg>
