<svg width="394" height="106" viewBox="0 0 394 106" fill="none" xmlns="http://www.w3.org/2000/svg">
<path d="M182.392 47.2138C182.443 46.3828 182.217 45.7159 181.714 45.2131C181.215 44.706 180.495 44.4524 179.553 44.4524C178.914 44.4524 178.328 44.5696 177.796 44.804C177.263 45.0384 176.82 45.3601 176.466 45.7692C176.117 46.174 175.897 46.6364 175.808 47.1562C175.752 47.4929 175.767 47.7976 175.852 48.0703C175.942 48.3388 176.089 48.5774 176.294 48.7862C176.498 48.995 176.752 49.1804 177.054 49.3423C177.357 49.5 177.695 49.6385 178.07 49.7578L179.432 50.1797C179.896 50.3288 180.32 50.5014 180.704 50.6974C181.092 50.8935 181.418 51.1278 181.682 51.4006C181.946 51.669 182.134 51.9844 182.244 52.3466C182.36 52.7088 182.377 53.1264 182.296 53.5994C182.181 54.3026 181.904 54.9268 181.465 55.4723C181.026 56.0178 180.457 56.4439 179.758 56.7507C179.059 57.0575 178.254 57.2109 177.342 57.2109C176.502 57.2109 175.791 57.0682 175.207 56.7827C174.627 56.4972 174.199 56.1009 173.922 55.5938C173.645 55.0824 173.539 54.4943 173.602 53.8295H174.421C174.374 54.3707 174.47 54.8395 174.708 55.2358C174.947 55.6278 175.303 55.9304 175.776 56.1435C176.253 56.3565 176.818 56.4631 177.47 56.4631C178.177 56.4631 178.816 56.3416 179.387 56.0987C179.963 55.8558 180.436 55.5192 180.806 55.0888C181.181 54.6584 181.416 54.1598 181.509 53.593C181.586 53.1328 181.544 52.7365 181.382 52.4041C181.22 52.0717 180.945 51.7862 180.557 51.5476C180.173 51.3047 179.686 51.0916 179.093 50.9084L177.623 50.4482C176.651 50.1371 175.942 49.7152 175.494 49.1825C175.047 48.6456 174.887 47.9787 175.015 47.1818C175.134 46.4957 175.414 45.8928 175.852 45.3729C176.291 44.853 176.843 44.446 177.508 44.152C178.173 43.858 178.897 43.7109 179.681 43.7109C180.461 43.7109 181.124 43.8622 181.669 44.1648C182.219 44.4631 182.624 44.8764 182.884 45.4048C183.148 45.9332 183.244 46.5362 183.171 47.2138H182.392ZM189.717 47.1818L189.595 47.8786H185.313L185.428 47.1818H189.717ZM187.262 44.8295H188.036L186.412 54.6797C186.344 55.0803 186.365 55.4084 186.476 55.6641C186.591 55.9155 186.764 56.103 186.994 56.2266C187.228 56.3459 187.494 56.4055 187.793 56.4055C187.925 56.4055 188.044 56.3949 188.151 56.3736C188.257 56.348 188.364 56.3203 188.47 56.2905L188.541 57C188.409 57.0469 188.268 57.0852 188.119 57.1151C187.97 57.1449 187.797 57.1598 187.601 57.1598C187.192 57.1598 186.821 57.0682 186.489 56.8849C186.161 56.7017 185.911 56.4354 185.741 56.0859C185.575 55.7365 185.534 55.3146 185.619 54.8203L187.262 44.8295ZM194.671 57.2045C193.784 57.2045 193.049 56.9851 192.465 56.5462C191.882 56.1072 191.475 55.5064 191.244 54.7436C191.014 53.9808 190.98 53.1115 191.142 52.1357C191.304 51.1555 191.628 50.282 192.114 49.5149C192.6 48.7479 193.194 48.1428 193.897 47.6996C194.6 47.2564 195.359 47.0348 196.173 47.0348C196.722 47.0348 197.223 47.1456 197.675 47.3672C198.131 47.5888 198.514 47.9062 198.825 48.3196C199.137 48.7287 199.352 49.2251 199.471 49.8089C199.59 50.3928 199.59 51.049 199.471 51.7777L199.382 52.2635H191.609L191.73 51.554H198.717C198.836 50.8466 198.802 50.2074 198.615 49.6364C198.427 49.0611 198.116 48.6051 197.681 48.2685C197.251 47.9318 196.722 47.7635 196.096 47.7635C195.457 47.7635 194.847 47.9489 194.268 48.3196C193.693 48.6861 193.198 49.1761 192.785 49.7898C192.376 50.4034 192.103 51.0788 191.967 51.8161L191.89 52.2124C191.754 53.0561 191.771 53.7997 191.941 54.4432C192.116 55.0824 192.44 55.5831 192.913 55.9453C193.386 56.3033 194.004 56.4822 194.767 56.4822C195.299 56.4822 195.772 56.3928 196.186 56.2138C196.603 56.0305 196.957 55.8089 197.247 55.549C197.541 55.2891 197.771 55.0376 197.937 54.7947L198.583 55.0824C198.387 55.4105 198.105 55.7386 197.739 56.0668C197.372 56.3906 196.931 56.6612 196.416 56.8786C195.9 57.0959 195.318 57.2045 194.671 57.2045ZM200.69 60.6818L202.94 47.1818H203.701L203.343 49.3743H203.439C203.661 48.9524 203.938 48.5646 204.27 48.2109C204.607 47.8572 205.001 47.5739 205.452 47.3608C205.908 47.1435 206.418 47.0348 206.98 47.0348C207.773 47.0348 208.427 47.2521 208.942 47.6868C209.458 48.1214 209.814 48.7202 210.01 49.483C210.206 50.2457 210.223 51.1236 210.061 52.1165C209.895 53.1051 209.584 53.983 209.128 54.75C208.676 55.5128 208.122 56.1136 207.466 56.5526C206.81 56.9872 206.089 57.2045 205.305 57.2045C204.747 57.2045 204.274 57.098 203.886 56.8849C203.503 56.6719 203.2 56.3885 202.979 56.0348C202.757 55.6768 202.604 55.2848 202.518 54.8587H202.442L201.47 60.6818H200.69ZM202.889 52.1101C202.753 52.9453 202.753 53.6932 202.889 54.3537C203.03 55.0099 203.303 55.5298 203.707 55.9134C204.116 56.2926 204.651 56.4822 205.312 56.4822C205.981 56.4822 206.588 56.2905 207.134 55.907C207.683 55.5192 208.143 54.995 208.514 54.3345C208.889 53.674 209.145 52.9325 209.281 52.1101C209.418 51.2876 209.418 50.5483 209.281 49.892C209.145 49.2358 208.874 48.718 208.469 48.3388C208.065 47.9553 207.523 47.7635 206.846 47.7635C206.181 47.7635 205.574 47.9531 205.024 48.3324C204.474 48.7074 204.014 49.223 203.643 49.8793C203.277 50.5312 203.026 51.2749 202.889 52.1101ZM221.015 57.179C220.24 57.179 219.569 57.032 219.002 56.7379C218.435 56.4439 218.013 56.0369 217.736 55.517C217.464 54.9972 217.381 54.4006 217.487 53.7273H218.286C218.209 54.2599 218.275 54.7308 218.484 55.1399C218.693 55.5447 219.015 55.8622 219.449 56.0923C219.888 56.3224 220.412 56.4375 221.022 56.4375C221.665 56.4375 222.262 56.3097 222.812 56.054C223.361 55.7983 223.817 55.451 224.18 55.0121C224.542 54.5689 224.768 54.0703 224.857 53.5163C224.947 52.9411 224.878 52.4382 224.653 52.0078C224.427 51.5774 224.067 51.2408 223.572 50.9979C223.078 50.755 222.473 50.6335 221.757 50.6335H221.258L221.373 49.892H221.84C222.449 49.892 223.016 49.7791 223.54 49.5533C224.064 49.3232 224.501 49.0014 224.851 48.5881C225.2 48.1747 225.417 47.6868 225.503 47.1243C225.592 46.6087 225.558 46.1506 225.4 45.75C225.243 45.3494 224.974 45.0362 224.595 44.8104C224.22 44.5803 223.745 44.4652 223.17 44.4652C222.611 44.4652 222.081 44.5781 221.578 44.804C221.079 45.0298 220.657 45.3473 220.312 45.7564C219.967 46.1655 219.75 46.6406 219.66 47.1818H218.874C218.993 46.5043 219.26 45.9077 219.673 45.392C220.086 44.8722 220.598 44.4652 221.207 44.1712C221.821 43.8771 222.477 43.7301 223.176 43.7301C223.913 43.7301 224.531 43.8835 225.03 44.1903C225.532 44.4972 225.893 44.9105 226.11 45.4304C226.331 45.9503 226.389 46.5277 226.282 47.1626C226.167 47.9169 225.852 48.5604 225.336 49.093C224.821 49.6214 224.19 49.9922 223.444 50.2053V50.2692C224.258 50.4609 224.861 50.8551 225.253 51.4517C225.65 52.044 225.78 52.7536 225.643 53.5803C225.528 54.2791 225.256 54.8991 224.825 55.4403C224.395 55.9815 223.851 56.4077 223.195 56.7188C222.539 57.0256 221.812 57.179 221.015 57.179Z" fill="white"/>
<path d="M0.5 42V12H125" stroke="white" stroke-opacity="0.45" stroke-dasharray="2 2"/>
<path d="M1.5 64V94H163" stroke="white" stroke-opacity="0.45" stroke-dasharray="2 2"/>
<path d="M392.5 42V12H277.5" stroke="white" stroke-opacity="0.45" stroke-dasharray="2 2"/>
<path d="M393.5 64.5V94.5H234.5" stroke="white" stroke-opacity="0.45" stroke-dasharray="2 2"/>
<circle cx="144" cy="12" r="5" fill="white"/>
<path d="M144 5.33333C147.682 5.33333 150.667 8.31799 150.667 12C150.667 15.682 147.682 18.6667 144 18.6667C140.318 18.6667 137.333 15.682 137.333 12C137.333 8.31799 140.318 5.33333 144 5.33333ZM146.328 9.39533L142.921 12.8073L141.605 11.4913L140.662 12.434L142.922 14.694L147.272 10.338L146.328 9.39533Z" fill="#62D62B"/>
<path d="M165.579 10.58H164.667C164.619 11.312 164.559 11.996 164.463 12.644C164.847 12.884 165.207 13.112 165.531 13.316C165.531 12.488 165.555 11.576 165.579 10.58ZM164.727 9.008H167.367C167.115 13.46 167.043 16.532 167.391 16.532C167.523 16.532 167.607 16.052 167.643 15.044C167.979 15.356 168.627 15.704 169.035 15.836C168.867 17.672 168.387 18.164 167.307 18.164C165.975 18.164 165.603 16.712 165.543 14.288L164.955 15.056C164.727 14.864 164.439 14.636 164.091 14.408C163.647 15.968 162.927 17.252 161.751 18.248C161.559 17.912 160.899 17.144 160.515 16.82C161.619 16.016 162.255 14.864 162.627 13.436C162.267 13.208 161.919 12.992 161.595 12.8L161.655 13.148C161.271 13.28 160.863 13.424 160.467 13.556V16.232C160.467 17.012 160.347 17.468 159.927 17.756C159.507 18.032 158.943 18.104 158.151 18.104C158.103 17.636 157.899 16.904 157.695 16.412C158.067 16.436 158.475 16.436 158.619 16.436C158.763 16.436 158.811 16.388 158.811 16.232V14.096L157.851 14.408L157.467 12.74C157.851 12.644 158.307 12.524 158.811 12.38V10.532H157.659V8.936H158.811V6.74H160.467V8.936H161.451V10.532H160.467V11.888L161.379 11.6L161.511 12.32L162.243 11.396L162.927 11.768C162.963 11.384 162.999 10.988 163.023 10.58H161.643V9.008H163.071C163.071 8.288 163.071 7.532 163.047 6.74L164.739 6.728C164.751 7.52 164.739 8.288 164.727 9.008ZM180.471 7.4V9.056H174.627V7.4H180.471ZM172.155 6.74L173.835 7.436C172.923 8.624 171.591 9.908 170.403 10.724C170.187 10.328 169.743 9.632 169.443 9.284C170.439 8.66 171.591 7.568 172.155 6.74ZM172.599 9.38L174.255 10.016C173.907 10.616 173.475 11.24 173.007 11.84V18.14H171.255V13.808C170.991 14.048 170.739 14.288 170.487 14.492C170.247 14.12 169.659 13.328 169.311 12.968C170.523 12.128 171.831 10.736 172.599 9.38ZM180.771 10.736V12.392H179.199V16.184C179.199 17.072 179.043 17.552 178.443 17.816C177.867 18.08 177.063 18.104 176.043 18.104C175.983 17.588 175.755 16.82 175.527 16.316C176.115 16.352 176.907 16.352 177.123 16.352C177.339 16.352 177.411 16.304 177.411 16.136V12.392H174.123V10.736H180.771ZM184.527 15.56H189.687V14.48H184.527V15.56ZM189.687 11.732H184.527V12.836H189.687V11.732ZM189.687 9.044H184.527V10.088H189.687V9.044ZM182.763 7.34H191.547V17.972H189.687V17.264H184.527V17.972H182.763V7.34ZM204.135 7.388V9.008H198.807V7.388H204.135ZM198.363 12.668L197.463 14.036C197.307 13.7 197.067 13.256 196.803 12.812V18.14H195.075V13.976C194.823 14.732 194.523 15.428 194.199 15.932C194.031 15.452 193.623 14.672 193.347 14.204C193.959 13.364 194.487 11.876 194.763 10.616H193.491V9.008H195.075V6.74H196.803V9.008H198.111V10.616H196.803V10.832C197.163 11.204 198.159 12.392 198.363 12.668ZM198.591 12.848L200.151 13.208C199.815 14.624 199.215 16.148 198.615 17.096C198.303 16.844 197.631 16.4 197.259 16.208C197.847 15.392 198.327 14.072 198.591 12.848ZM204.795 11.876H202.251V16.148C202.251 16.964 202.143 17.456 201.639 17.744C201.147 18.032 200.535 18.068 199.731 18.068C199.683 17.552 199.479 16.784 199.251 16.268C199.647 16.292 200.127 16.292 200.283 16.292C200.427 16.292 200.475 16.256 200.475 16.112V11.876H198.243V10.256H204.795V11.876ZM202.419 13.28L203.847 12.788C204.375 14.024 204.867 15.584 204.999 16.616L203.439 17.192C203.343 16.172 202.911 14.552 202.419 13.28ZM212.007 6.704L213.843 7.004C213.771 7.196 213.699 7.388 213.615 7.568C214.359 8.888 215.643 10.136 217.023 10.844C216.639 11.168 216.087 11.816 215.823 12.248C215.631 12.128 215.439 11.996 215.247 11.864V18.116H213.435V11.684H215.007C214.155 11.012 213.399 10.148 212.763 9.188C212.151 10.136 211.359 10.988 210.327 11.72H211.995V13.376C211.995 14.828 211.671 16.856 209.967 18.248C209.691 17.864 209.115 17.312 208.671 17.024C210.087 15.98 210.219 14.324 210.219 13.352V11.792C209.907 12.008 209.583 12.212 209.223 12.404C209.079 12.092 208.779 11.624 208.491 11.276V18.128H206.739V12.44C206.595 12.62 206.439 12.788 206.295 12.944C206.139 12.512 205.671 11.54 205.383 11.108C206.415 10.064 207.411 8.408 207.987 6.752L209.631 7.268C209.319 8.096 208.935 8.948 208.491 9.776V10.796C210.471 9.728 211.503 8.228 212.007 6.704ZM227.007 10.868L225.579 10.172C225.807 9.836 226.071 9.392 226.311 8.936H218.331V7.304H227.211L227.487 7.208L228.807 7.724C228.315 8.84 227.619 10.052 227.007 10.868ZM222.867 10.328L221.859 11.636C221.343 11.24 220.239 10.64 219.447 10.256L220.395 9.092C221.163 9.404 222.291 9.944 222.867 10.328ZM228.591 14.504H223.995C223.239 16.232 221.691 17.432 218.403 18.128C218.259 17.696 217.851 17.048 217.527 16.688C219.963 16.22 221.295 15.524 222.027 14.504H217.887V12.908H219.879C219.363 12.572 218.619 12.164 218.043 11.9L219.003 10.748C219.699 11.036 220.719 11.516 221.235 11.864L220.419 12.908H222.711C222.951 11.888 222.963 10.676 222.999 9.212H224.751C224.703 10.592 224.655 11.828 224.463 12.908H228.591V14.504ZM223.359 16.136L224.235 14.876C225.843 15.416 227.631 16.208 228.639 16.784L227.535 18.152C226.587 17.54 224.919 16.7 223.359 16.136ZM232.287 8.216L233.367 6.704C237.207 9.536 237.219 13.544 241.023 16.028C240.747 16.508 240.279 17.504 240.183 18.044C237.855 16.736 236.751 14.432 235.551 12.272C234.603 14.84 233.151 16.76 231.111 17.972C230.799 17.6 229.971 16.868 229.515 16.544C231.999 15.344 233.463 13.088 234.147 10.016C233.619 9.32 233.019 8.696 232.287 8.216ZM241.371 19.196L244.011 7.256H245.403L242.763 19.196H241.371ZM248.497 12.116L249.193 11.3H246.637V9.836H250.957V9.236H247.453V7.76H250.957V6.812H252.745V7.76H256.369V9.236H252.745V9.836H255.865L256.141 9.74L257.389 10.256C256.957 11.168 256.333 12.152 255.757 12.812L254.461 12.056C254.629 11.84 254.809 11.576 254.977 11.3H249.793C250.393 11.516 251.041 11.828 251.413 12.092L250.537 13.16C250.105 12.812 249.205 12.368 248.497 12.116ZM257.089 15.368H252.505C251.749 16.712 250.261 17.66 247.213 18.212C247.081 17.768 246.685 17.108 246.361 16.736C248.341 16.436 249.529 15.98 250.261 15.368H246.493V13.868H248.557C248.113 13.628 247.549 13.388 247.069 13.232L247.837 12.224C248.533 12.404 249.445 12.776 249.925 13.112L249.349 13.868H251.221C251.413 13.22 251.461 12.464 251.521 11.6H253.345C253.285 12.428 253.213 13.184 253.057 13.868H257.089V15.368ZM252.193 16.748L252.937 15.428C254.557 15.728 256.393 16.244 257.461 16.664L256.513 18.116C255.505 17.648 253.813 17.084 252.193 16.748ZM266.857 12.788H268.825V18.14H266.857V17.504H258.697V12.8H260.665V15.764H262.777V12.236H259.369V7.724H261.229V10.544H262.777V6.752H264.733V10.544H266.389V7.712H268.345V12.236H264.733V15.764H266.857V12.788Z" fill="white" fill-opacity="0.65"/>
<circle cx="177" cy="93.5" r="5.5" fill="white"/>
<path d="M176.841 87.0393C173.159 87.0393 170.174 90.0242 170.174 93.7059C170.174 97.3877 173.159 100.373 176.841 100.373C180.523 100.373 183.508 97.3877 183.508 93.7059C183.508 90.0242 180.523 87.0393 176.841 87.0393ZM180.269 96.1239C180.547 96.402 180.547 96.8562 180.269 97.1343C179.991 97.4124 179.537 97.4124 179.259 97.1343L176.841 94.7164L174.423 97.1343C174.145 97.4124 173.691 97.4124 173.413 97.1343C173.135 96.8562 173.135 96.402 173.413 96.1239L175.831 93.7059L173.413 91.288C173.135 91.0099 173.135 90.5557 173.413 90.2776C173.691 89.9995 174.145 89.9995 174.423 90.2776L176.841 92.6955L179.259 90.2776C179.537 89.9995 179.991 89.9995 180.269 90.2776C180.547 90.5557 180.547 91.0099 180.269 91.288L177.851 93.7059L180.269 96.1239Z" fill="#FF2828"/>
<path d="M202.331 95.148H198.563C199.571 96.372 201.107 97.524 202.655 98.196C202.247 98.544 201.671 99.252 201.383 99.72C200.075 99.012 198.827 97.956 197.795 96.732V100.14H195.935V96.78C194.891 97.968 193.631 99 192.311 99.696C192.023 99.252 191.435 98.544 191.027 98.184C192.587 97.512 194.135 96.372 195.155 95.148H191.471V93.42H195.935V92.184H192.395V90.456H195.935V88.74H197.795V90.456H201.419V92.184H197.795V93.42H202.331V95.148ZM211.259 92.58H210.347C210.299 93.312 210.239 93.996 210.143 94.644C210.527 94.884 210.887 95.112 211.211 95.316C211.211 94.488 211.235 93.576 211.259 92.58ZM210.407 91.008H213.047C212.795 95.46 212.723 98.532 213.071 98.532C213.203 98.532 213.287 98.052 213.323 97.044C213.659 97.356 214.307 97.704 214.715 97.836C214.547 99.672 214.067 100.164 212.987 100.164C211.655 100.164 211.283 98.712 211.223 96.288L210.635 97.056C210.407 96.864 210.119 96.636 209.771 96.408C209.327 97.968 208.607 99.252 207.431 100.248C207.239 99.912 206.579 99.144 206.195 98.82C207.299 98.016 207.935 96.864 208.307 95.436C207.947 95.208 207.599 94.992 207.275 94.8L207.335 95.148C206.951 95.28 206.543 95.424 206.147 95.556V98.232C206.147 99.012 206.027 99.468 205.607 99.756C205.187 100.032 204.623 100.104 203.831 100.104C203.783 99.636 203.579 98.904 203.375 98.412C203.747 98.436 204.155 98.436 204.299 98.436C204.443 98.436 204.491 98.388 204.491 98.232V96.096L203.531 96.408L203.147 94.74C203.531 94.644 203.987 94.524 204.491 94.38V92.532H203.339V90.936H204.491V88.74H206.147V90.936H207.131V92.532H206.147V93.888L207.059 93.6L207.191 94.32L207.923 93.396L208.607 93.768C208.643 93.384 208.679 92.988 208.703 92.58H207.323V91.008H208.751C208.751 90.288 208.751 89.532 208.727 88.74L210.419 88.728C210.431 89.52 210.419 90.288 210.407 91.008ZM226.151 89.4V91.056H220.307V89.4H226.151ZM217.835 88.74L219.515 89.436C218.603 90.624 217.271 91.908 216.083 92.724C215.867 92.328 215.423 91.632 215.123 91.284C216.119 90.66 217.271 89.568 217.835 88.74ZM218.279 91.38L219.935 92.016C219.587 92.616 219.155 93.24 218.687 93.84V100.14H216.935V95.808C216.671 96.048 216.419 96.288 216.167 96.492C215.927 96.12 215.339 95.328 214.991 94.968C216.203 94.128 217.511 92.736 218.279 91.38ZM226.451 92.736V94.392H224.879V98.184C224.879 99.072 224.723 99.552 224.123 99.816C223.547 100.08 222.743 100.104 221.723 100.104C221.663 99.588 221.435 98.82 221.207 98.316C221.795 98.352 222.587 98.352 222.803 98.352C223.019 98.352 223.091 98.304 223.091 98.136V94.392H219.803V92.736H226.451Z" fill="white" fill-opacity="0.65"/>
</svg>
