<svg width="138" height="50" viewBox="0 0 138 50" fill="none" xmlns="http://www.w3.org/2000/svg">
<path d="M51.4882 9.21378C51.5393 8.38281 51.3135 7.71591 50.8106 7.21307C50.3121 6.70597 49.5919 6.45241 48.6501 6.45241C48.0109 6.45241 47.425 6.5696 46.8923 6.80398C46.3596 7.03835 45.9165 7.36009 45.5628 7.76918C45.2133 8.17401 44.9939 8.63636 44.9044 9.15625C44.849 9.4929 44.8639 9.79758 44.9491 10.0703C45.0386 10.3388 45.1856 10.5774 45.3902 10.7862C45.5947 10.995 45.8483 11.1804 46.1508 11.3423C46.4534 11.5 46.7922 11.6385 47.1672 11.7578L48.5287 12.1797C48.9932 12.3288 49.4172 12.5014 49.8007 12.6974C50.1885 12.8935 50.5145 13.1278 50.7787 13.4006C51.0429 13.669 51.2304 13.9844 51.3412 14.3466C51.4562 14.7088 51.4733 15.1264 51.3923 15.5994C51.2773 16.3026 51.0003 16.9268 50.5613 17.4723C50.1224 18.0178 49.5535 18.4439 48.8547 18.7507C48.1558 19.0575 47.3504 19.2109 46.4385 19.2109C45.599 19.2109 44.8873 19.0682 44.3035 18.7827C43.724 18.4972 43.2957 18.1009 43.0187 17.5938C42.7417 17.0824 42.6352 16.4943 42.6991 15.8295H43.5173C43.4704 16.3707 43.5663 16.8395 43.805 17.2358C44.0436 17.6278 44.3994 17.9304 44.8724 18.1435C45.3497 18.3565 45.9143 18.4631 46.5663 18.4631C47.2737 18.4631 47.9129 18.3416 48.4839 18.0987C49.0592 17.8558 49.5322 17.5192 49.903 17.0888C50.278 16.6584 50.5123 16.1598 50.6061 15.593C50.6828 15.1328 50.6402 14.7365 50.4782 14.4041C50.3163 14.0717 50.0415 13.7862 49.6537 13.5476C49.2702 13.3047 48.7822 13.0916 48.1899 12.9084L46.7197 12.4482C45.7481 12.1371 45.0386 11.7152 44.5912 11.1825C44.1437 10.6456 43.9839 9.97869 44.1118 9.18182C44.2311 8.49574 44.5102 7.89276 44.9491 7.37287C45.3881 6.85298 45.9399 6.44602 46.6047 6.15199C47.2694 5.85795 47.9939 5.71094 48.778 5.71094C49.5578 5.71094 50.2204 5.86222 50.7659 6.16477C51.3156 6.46307 51.7204 6.87642 51.9804 7.40483C52.2446 7.93324 52.3405 8.53622 52.268 9.21378H51.4882ZM58.8135 9.18182L58.692 9.87855H54.4094L54.5244 9.18182H58.8135ZM56.3589 6.82955H57.1324L55.5088 16.6797C55.4406 17.0803 55.4619 17.4084 55.5727 17.6641C55.6878 17.9155 55.8604 18.103 56.0905 18.2266C56.3248 18.3459 56.5912 18.4055 56.8895 18.4055C57.0216 18.4055 57.1409 18.3949 57.2474 18.3736C57.354 18.348 57.4605 18.3203 57.567 18.2905L57.6373 19C57.5052 19.0469 57.3646 19.0852 57.2155 19.1151C57.0663 19.1449 56.8937 19.1598 56.6977 19.1598C56.2886 19.1598 55.9179 19.0682 55.5855 18.8849C55.2574 18.7017 55.0081 18.4354 54.8376 18.0859C54.6714 17.7365 54.6309 17.3146 54.7162 16.8203L56.3589 6.82955ZM63.7673 19.2045C62.8809 19.2045 62.1459 18.9851 61.5621 18.5462C60.9782 18.1072 60.5713 17.5064 60.3412 16.7436C60.1111 15.9808 60.077 15.1115 60.2389 14.1357C60.4008 13.1555 60.7247 12.282 61.2105 11.5149C61.6963 10.7479 62.2907 10.1428 62.9939 9.69957C63.697 9.25639 64.4555 9.0348 65.2694 9.0348C65.8192 9.0348 66.3199 9.1456 66.7716 9.36719C67.2275 9.58878 67.6111 9.90625 67.9221 10.3196C68.2332 10.7287 68.4484 11.2251 68.5677 11.8089C68.6871 12.3928 68.6871 13.049 68.5677 13.7777L68.4782 14.2635H60.7055L60.827 13.554H67.8135C67.9328 12.8466 67.8987 12.2074 67.7112 11.6364C67.5237 11.0611 67.2126 10.6051 66.778 10.2685C66.3476 9.93182 65.8192 9.76349 65.1927 9.76349C64.5535 9.76349 63.9442 9.94886 63.3646 10.3196C62.7893 10.6861 62.295 11.1761 61.8817 11.7898C61.4726 12.4034 61.1998 13.0788 61.0635 13.8161L60.9868 14.2124C60.8504 15.0561 60.8675 15.7997 61.0379 16.4432C61.2126 17.0824 61.5365 17.5831 62.0095 17.9453C62.4825 18.3033 63.1004 18.4822 63.8632 18.4822C64.3959 18.4822 64.8689 18.3928 65.2822 18.2138C65.6998 18.0305 66.0535 17.8089 66.3433 17.549C66.6373 17.2891 66.8675 17.0376 67.0336 16.7947L67.6792 17.0824C67.4832 17.4105 67.202 17.7386 66.8355 18.0668C66.469 18.3906 66.028 18.6612 65.5123 18.8786C64.9967 19.0959 64.415 19.2045 63.7673 19.2045ZM69.787 22.6818L72.037 9.18182H72.7977L72.4397 11.3743H72.5356C72.7572 10.9524 73.0342 10.5646 73.3666 10.2109C73.7032 9.85724 74.0974 9.57386 74.5491 9.3608C75.0051 9.14347 75.5143 9.0348 76.0768 9.0348C76.8694 9.0348 77.5235 9.25213 78.0392 9.68679C78.5548 10.1214 78.9106 10.7202 79.1066 11.483C79.3026 12.2457 79.3197 13.1236 79.1578 14.1165C78.9916 15.1051 78.6805 15.983 78.2245 16.75C77.7728 17.5128 77.2188 18.1136 76.5626 18.5526C75.9063 18.9872 75.1862 19.2045 74.4021 19.2045C73.8438 19.2045 73.3708 19.098 72.983 18.8849C72.5995 18.6719 72.297 18.3885 72.0754 18.0348C71.8538 17.6768 71.7004 17.2848 71.6151 16.8587H71.5384L70.5669 22.6818H69.787ZM71.9859 14.1101C71.8495 14.9453 71.8495 15.6932 71.9859 16.3537C72.1265 17.0099 72.3992 17.5298 72.8041 17.9134C73.2132 18.2926 73.748 18.4822 74.4085 18.4822C75.0775 18.4822 75.6847 18.2905 76.2302 17.907C76.7799 17.5192 77.2401 16.995 77.6109 16.3345C77.9859 15.674 78.2416 14.9325 78.3779 14.1101C78.5143 13.2876 78.5143 12.5483 78.3779 11.892C78.2416 11.2358 77.971 10.718 77.5661 10.3388C77.1613 9.95526 76.6201 9.76349 75.9426 9.76349C75.2778 9.76349 74.6705 9.95312 74.1208 10.3324C73.5711 10.7074 73.1109 11.223 72.7401 11.8793C72.3737 12.5312 72.1222 13.2749 71.9859 14.1101ZM86.2002 16.0597L86.3025 15.4205L93.8003 5.90909H94.2861L94.088 7.14276H93.6725L87.2868 15.2479V15.3182H94.8486L94.7208 16.0597H86.2002ZM91.7613 19L92.2918 15.8359L92.343 15.5547L93.9346 5.90909H94.7144L92.5411 19H91.7613ZM3.58008 43V32.8182H10.9181V35.0455H6.34428V36.7955H10.5403V39.0227H6.34428V40.7727H10.8983V43H3.58008ZM14.4567 43.1193C13.9695 43.1193 13.5386 43.0398 13.1641 42.8807C12.7929 42.7183 12.5012 42.473 12.2891 42.1449C12.0769 41.8168 11.9709 41.3991 11.9709 40.892C11.9709 40.4744 12.0421 40.1181 12.1847 39.8232C12.3272 39.5249 12.526 39.2812 12.7812 39.0923C13.0365 38.9034 13.3331 38.7592 13.6712 38.6598C14.0125 38.5604 14.3804 38.4957 14.7749 38.4659C15.2024 38.4328 15.5455 38.393 15.804 38.3466C16.0658 38.2969 16.2547 38.2289 16.3707 38.1428C16.4867 38.0533 16.5447 37.9356 16.5447 37.7898V37.7699C16.5447 37.571 16.4685 37.4186 16.3161 37.3125C16.1636 37.2064 15.968 37.1534 15.7294 37.1534C15.4676 37.1534 15.2538 37.2114 15.0881 37.3274C14.9257 37.4401 14.8279 37.6141 14.7947 37.8494H12.2692C12.3023 37.3854 12.4498 36.9579 12.7116 36.5668C12.9768 36.1723 13.3629 35.8575 13.87 35.6222C14.3771 35.3835 15.0102 35.2642 15.7692 35.2642C16.3161 35.2642 16.8066 35.3288 17.2408 35.4581C17.675 35.584 18.0445 35.7614 18.3494 35.9901C18.6544 36.2154 18.8864 36.4806 19.0455 36.7855C19.2079 37.0871 19.2891 37.4152 19.2891 37.7699V43H16.7237V41.9261H16.6641C16.5116 42.2112 16.326 42.4415 16.1072 42.6172C15.8918 42.7929 15.6449 42.9205 15.3665 43C15.0914 43.0795 14.7881 43.1193 14.4567 43.1193ZM15.3516 41.3892C15.5604 41.3892 15.7559 41.3461 15.9382 41.2599C16.1238 41.1738 16.2746 41.0495 16.3906 40.8871C16.5066 40.7247 16.5646 40.5275 16.5646 40.2955V39.6591C16.4917 39.6889 16.4138 39.7171 16.331 39.7436C16.2514 39.7701 16.1652 39.795 16.0724 39.8182C15.983 39.8414 15.8868 39.8629 15.7841 39.8828C15.6847 39.9027 15.5803 39.9209 15.4709 39.9375C15.2588 39.9706 15.0848 40.0253 14.9489 40.1016C14.8163 40.1745 14.7169 40.2656 14.6506 40.375C14.5876 40.4811 14.5561 40.6004 14.5561 40.733C14.5561 40.9451 14.6307 41.1075 14.7798 41.2202C14.929 41.3329 15.1196 41.3892 15.3516 41.3892ZM20.6003 43V35.3636H23.2651V36.8153H23.3446C23.4838 36.2784 23.7042 35.8857 24.0059 35.6371C24.3108 35.3885 24.6671 35.2642 25.0748 35.2642C25.1941 35.2642 25.3117 35.2741 25.4277 35.294C25.5471 35.3106 25.6614 35.3355 25.7708 35.3686V37.7102C25.6349 37.6638 25.4675 37.629 25.2686 37.6058C25.0698 37.5826 24.8991 37.571 24.7566 37.571C24.4881 37.571 24.2462 37.6323 24.0307 37.755C23.8186 37.8743 23.6512 38.0433 23.5286 38.2621C23.406 38.4775 23.3446 38.7311 23.3446 39.0227V43H20.6003ZM29.415 38.7045V43H26.6706V35.3636H29.2757V36.8153H29.3553C29.521 36.3314 29.8127 35.9519 30.2303 35.6768C30.6512 35.4018 31.1417 35.2642 31.7019 35.2642C32.2421 35.2642 32.7111 35.3885 33.1088 35.6371C33.5099 35.8823 33.8198 36.2204 34.0385 36.6513C34.2606 37.0821 34.37 37.5743 34.3667 38.1278V43H31.6223V38.7045C31.6257 38.3267 31.5295 38.0301 31.334 37.8146C31.1417 37.5992 30.8733 37.4915 30.5286 37.4915C30.3032 37.4915 30.106 37.5412 29.937 37.6406C29.7712 37.7367 29.6436 37.8759 29.5542 38.0582C29.4647 38.2372 29.4183 38.4527 29.415 38.7045ZM38.4707 43V32.8182H42.8855C43.661 32.8182 44.3123 32.9226 44.8393 33.1314C45.3696 33.3402 45.769 33.6352 46.0375 34.0163C46.3092 34.3975 46.4451 34.8466 46.4451 35.3636C46.4451 35.7382 46.3623 36.0795 46.1966 36.3878C46.0342 36.696 45.8055 36.9545 45.5105 37.1634C45.2155 37.3688 44.8708 37.5114 44.4764 37.5909V37.6903C44.9139 37.7069 45.3116 37.8179 45.6696 38.0234C46.0275 38.2256 46.3126 38.5057 46.5247 38.8636C46.7368 39.2183 46.8429 39.6359 46.8429 40.1165C46.8429 40.6733 46.697 41.1688 46.4054 41.603C46.117 42.0372 45.706 42.3786 45.1724 42.6271C44.6388 42.8757 44.0024 43 43.2633 43H38.4707ZM41.2349 40.7926H42.5275C42.9915 40.7926 43.3395 40.7064 43.5716 40.5341C43.8036 40.3584 43.9196 40.0999 43.9196 39.7585C43.9196 39.5199 43.8649 39.3177 43.7555 39.152C43.6461 38.9863 43.4904 38.8603 43.2882 38.7741C43.0893 38.688 42.849 38.6449 42.5673 38.6449H41.2349V40.7926ZM41.2349 36.9347H42.3684C42.6104 36.9347 42.8242 36.8965 43.0098 36.8203C43.1954 36.7441 43.3395 36.6347 43.4423 36.4922C43.5484 36.3464 43.6014 36.169 43.6014 35.9602C43.6014 35.6454 43.4887 35.4051 43.2633 35.2393C43.0379 35.0703 42.7529 34.9858 42.4082 34.9858H41.2349V36.9347ZM51.541 43.1392C50.7124 43.1392 50.0031 42.9751 49.4132 42.647C48.8232 42.3156 48.3708 41.8549 48.0559 41.2649C47.7411 40.6716 47.5836 39.9839 47.5836 39.2017C47.5836 38.4195 47.7411 37.7334 48.0559 37.1435C48.3708 36.5502 48.8232 36.0895 49.4132 35.7614C50.0031 35.4299 50.7124 35.2642 51.541 35.2642C52.3696 35.2642 53.0789 35.4299 53.6689 35.7614C54.2588 36.0895 54.7112 36.5502 55.0261 37.1435C55.341 37.7334 55.4984 38.4195 55.4984 39.2017C55.4984 39.9839 55.341 40.6716 55.0261 41.2649C54.7112 41.8549 54.2588 42.3156 53.6689 42.647C53.0789 42.9751 52.3696 43.1392 51.541 43.1392ZM51.5609 41.1108C51.7929 41.1108 51.9934 41.0329 52.1625 40.8771C52.3315 40.7214 52.4624 40.4993 52.5552 40.2109C52.648 39.9226 52.6944 39.5795 52.6944 39.1818C52.6944 38.7808 52.648 38.4377 52.5552 38.1527C52.4624 37.8643 52.3315 37.6423 52.1625 37.4865C51.9934 37.3307 51.7929 37.2528 51.5609 37.2528C51.3156 37.2528 51.1052 37.3307 50.9295 37.4865C50.7538 37.6423 50.6196 37.8643 50.5268 38.1527C50.434 38.4377 50.3876 38.7808 50.3876 39.1818C50.3876 39.5795 50.434 39.9226 50.5268 40.2109C50.6196 40.4993 50.7538 40.7214 50.9295 40.8771C51.1052 41.0329 51.3156 41.1108 51.5609 41.1108ZM59.3564 38.7045V43H56.612V35.3636H59.2172V36.8153H59.2967C59.4624 36.3314 59.7541 35.9519 60.1717 35.6768C60.5926 35.4018 61.0832 35.2642 61.6433 35.2642C62.1835 35.2642 62.6525 35.3885 63.0502 35.6371C63.4513 35.8823 63.7612 36.2204 63.9799 36.6513C64.202 37.0821 64.3114 37.5743 64.3081 38.1278V43H61.5637V38.7045C61.5671 38.3267 61.4709 38.0301 61.2754 37.8146C61.0832 37.5992 60.8147 37.4915 60.47 37.4915C60.2446 37.4915 60.0474 37.5412 59.8784 37.6406C59.7127 37.7367 59.585 37.8759 59.4956 38.0582C59.4061 38.2372 59.3597 38.4527 59.3564 38.7045ZM70.6145 39.6591V35.3636H73.3588V43H70.7537V41.5483H70.6742C70.5085 42.0355 70.2185 42.4167 69.8042 42.6918C69.3899 42.9635 68.8977 43.0994 68.3276 43.0994C67.794 43.0994 67.3266 42.9768 66.9256 42.7315C66.5279 42.4863 66.218 42.1482 65.9959 41.7173C65.7772 41.2865 65.6661 40.7926 65.6628 40.2358V35.3636H68.4071V39.6591C68.4105 40.0369 68.5066 40.3336 68.6955 40.549C68.8877 40.7644 69.1562 40.8722 69.5009 40.8722C69.7296 40.8722 69.9268 40.8241 70.0925 40.728C70.2615 40.6286 70.3908 40.4893 70.4803 40.3104C70.5731 40.1281 70.6178 39.911 70.6145 39.6591ZM81.7347 37.8494H79.2092C79.1959 37.6937 79.1412 37.5594 79.0451 37.4467C78.949 37.334 78.8247 37.2479 78.6722 37.1882C78.5231 37.1252 78.3574 37.0938 78.1751 37.0938C77.9397 37.0938 77.7376 37.1368 77.5685 37.223C77.3995 37.3092 77.3166 37.4318 77.32 37.5909C77.3166 37.7036 77.3647 37.808 77.4641 37.9041C77.5669 38.0002 77.7641 38.0748 78.0558 38.1278L79.6069 38.4062C80.3891 38.5488 80.9708 38.7891 81.3519 39.1271C81.7364 39.4619 81.9303 39.911 81.9336 40.4744C81.9303 41.018 81.7679 41.4903 81.4464 41.8913C81.1282 42.2891 80.6924 42.5973 80.1388 42.8161C79.5887 43.0315 78.9606 43.1392 78.2546 43.1392C77.0879 43.1392 76.1748 42.9006 75.5153 42.4233C74.859 41.946 74.4928 41.3163 74.4165 40.5341H77.141C77.1774 40.776 77.2968 40.9633 77.4989 41.0959C77.7044 41.2251 77.9629 41.2898 78.2745 41.2898C78.5264 41.2898 78.7335 41.2467 78.896 41.1605C79.0617 41.0743 79.1462 40.9517 79.1495 40.7926C79.1462 40.6468 79.0733 40.5308 78.9308 40.4446C78.7915 40.3584 78.5728 40.2888 78.2745 40.2358L76.9222 39.9972C76.1433 39.8613 75.56 39.6027 75.1722 39.2216C74.7844 38.8404 74.5922 38.3499 74.5955 37.75C74.5922 37.2197 74.7314 36.7706 75.0131 36.4027C75.2982 36.0315 75.7042 35.7498 76.2312 35.5575C76.7615 35.362 77.3896 35.2642 78.1154 35.2642C79.2191 35.2642 80.0891 35.4929 80.7255 35.9503C81.3652 36.4077 81.7016 37.0407 81.7347 37.8494ZM85.7344 43V32.8182H90.1293C90.8849 32.8182 91.5462 32.9557 92.1129 33.2308C92.6797 33.5059 93.1205 33.902 93.4354 34.419C93.7502 34.9361 93.9077 35.5559 93.9077 36.2784C93.9077 37.0076 93.7453 37.6224 93.4205 38.1229C93.099 38.6233 92.6465 39.0012 92.0632 39.2564C91.4832 39.5116 90.8054 39.6392 90.0298 39.6392H87.4048V37.4915H89.473C89.7978 37.4915 90.0746 37.4517 90.3033 37.3722C90.5353 37.2893 90.7126 37.1584 90.8352 36.9794C90.9612 36.8004 91.0241 36.5668 91.0241 36.2784C91.0241 35.9867 90.9612 35.7498 90.8352 35.5675C90.7126 35.3819 90.5353 35.246 90.3033 35.1598C90.0746 35.0703 89.7978 35.0256 89.473 35.0256H88.4986V43H85.7344ZM91.7003 38.3267L94.2457 43H91.2429L88.7571 38.3267H91.7003ZM98.6207 43.1392C97.8054 43.1392 97.1027 42.9834 96.5128 42.6719C95.9261 42.357 95.4737 41.9062 95.1555 41.3196C94.8407 40.7296 94.6832 40.0237 94.6832 39.2017C94.6832 38.4129 94.8423 37.7235 95.1605 37.1335C95.4787 36.5436 95.9278 36.0845 96.5078 35.7564C97.0878 35.4283 97.7723 35.2642 98.5611 35.2642C99.1378 35.2642 99.6598 35.3537 100.127 35.5327C100.594 35.7116 100.994 35.9718 101.325 36.3132C101.657 36.6513 101.912 37.0623 102.091 37.5462C102.27 38.0301 102.359 38.5753 102.359 39.1818V39.8182H95.5384V38.3068H99.8338C99.8305 38.0881 99.7741 37.8958 99.6648 37.7301C99.5587 37.5611 99.4145 37.4302 99.2322 37.3374C99.0533 37.2412 98.8494 37.1932 98.6207 37.1932C98.3987 37.1932 98.1948 37.2412 98.0092 37.3374C97.8236 37.4302 97.6745 37.5594 97.5618 37.7251C97.4524 37.8909 97.3944 38.0848 97.3878 38.3068V39.9375C97.3878 40.1828 97.4392 40.4015 97.5419 40.5938C97.6446 40.786 97.7921 40.9368 97.9844 41.0462C98.1766 41.1555 98.4086 41.2102 98.6804 41.2102C98.8693 41.2102 99.0417 41.1837 99.1974 41.1307C99.3565 41.0777 99.4924 41.0014 99.6051 40.902C99.7178 40.7992 99.8007 40.6766 99.8537 40.5341H102.359C102.273 41.0644 102.069 41.5251 101.748 41.9162C101.426 42.304 101 42.6056 100.47 42.821C99.9432 43.0331 99.3267 43.1392 98.6207 43.1392ZM104.736 43L102.827 35.3636H105.571L106.446 40.017H106.506L107.48 35.3636H110.145L111.159 39.9773H111.219L112.054 35.3636H114.798L112.889 43H109.926L108.852 38.9034H108.773L107.699 43H104.736ZM117.761 43.1193C117.274 43.1193 116.843 43.0398 116.469 42.8807C116.098 42.7183 115.806 42.473 115.594 42.1449C115.382 41.8168 115.276 41.3991 115.276 40.892C115.276 40.4744 115.347 40.1181 115.489 39.8232C115.632 39.5249 115.831 39.2812 116.086 39.0923C116.341 38.9034 116.638 38.7592 116.976 38.6598C117.317 38.5604 117.685 38.4957 118.08 38.4659C118.507 38.4328 118.85 38.393 119.109 38.3466C119.371 38.2969 119.559 38.2289 119.675 38.1428C119.791 38.0533 119.849 37.9356 119.849 37.7898V37.7699C119.849 37.571 119.773 37.4186 119.621 37.3125C119.468 37.2064 119.273 37.1534 119.034 37.1534C118.772 37.1534 118.558 37.2114 118.393 37.3274C118.23 37.4401 118.133 37.6141 118.099 37.8494H115.574C115.607 37.3854 115.754 36.9579 116.016 36.5668C116.281 36.1723 116.668 35.8575 117.175 35.6222C117.682 35.3835 118.315 35.2642 119.074 35.2642C119.621 35.2642 120.111 35.3288 120.545 35.4581C120.98 35.584 121.349 35.7614 121.654 35.9901C121.959 36.2154 122.191 36.4806 122.35 36.7855C122.513 37.0871 122.594 37.4152 122.594 37.7699V43H120.028V41.9261H119.969C119.816 42.2112 119.631 42.4415 119.412 42.6172C119.196 42.7929 118.95 42.9205 118.671 43C118.396 43.0795 118.093 43.1193 117.761 43.1193ZM118.656 41.3892C118.865 41.3892 119.061 41.3461 119.243 41.2599C119.429 41.1738 119.579 41.0495 119.695 40.8871C119.811 40.7247 119.869 40.5275 119.869 40.2955V39.6591C119.796 39.6889 119.719 39.7171 119.636 39.7436C119.556 39.7701 119.47 39.795 119.377 39.8182C119.288 39.8414 119.192 39.8629 119.089 39.8828C118.989 39.9027 118.885 39.9209 118.776 39.9375C118.563 39.9706 118.389 40.0253 118.254 40.1016C118.121 40.1745 118.022 40.2656 117.955 40.375C117.892 40.4811 117.861 40.6004 117.861 40.733C117.861 40.9451 117.935 41.1075 118.085 41.2202C118.234 41.3329 118.424 41.3892 118.656 41.3892ZM123.905 43V35.3636H126.57V36.8153H126.649C126.789 36.2784 127.009 35.8857 127.311 35.6371C127.615 35.3885 127.972 35.2642 128.379 35.2642C128.499 35.2642 128.616 35.2741 128.732 35.294C128.852 35.3106 128.966 35.3355 129.075 35.3686V37.7102C128.94 37.6638 128.772 37.629 128.573 37.6058C128.374 37.5826 128.204 37.571 128.061 37.571C127.793 37.571 127.551 37.6323 127.335 37.755C127.123 37.8743 126.956 38.0433 126.833 38.2621C126.711 38.4775 126.649 38.7311 126.649 39.0227V43H123.905ZM132.302 43.0994C131.758 43.0994 131.258 42.9569 130.801 42.6719C130.347 42.3868 129.982 41.9543 129.707 41.3743C129.435 40.7943 129.299 40.0634 129.299 39.1818C129.299 38.2604 129.442 37.5114 129.727 36.9347C130.015 36.358 130.386 35.9354 130.84 35.6669C131.298 35.3984 131.778 35.2642 132.282 35.2642C132.66 35.2642 132.991 35.3305 133.276 35.4631C133.561 35.5923 133.8 35.7663 133.992 35.9851C134.185 36.2005 134.33 36.4375 134.43 36.696H134.47V32.8182H137.214V43H134.49V41.7472H134.43C134.324 42.0057 134.171 42.2377 133.972 42.4432C133.777 42.6454 133.538 42.8061 133.257 42.9254C132.978 43.0414 132.66 43.0994 132.302 43.0994ZM133.316 40.9915C133.568 40.9915 133.784 40.9186 133.963 40.7727C134.145 40.6236 134.284 40.4148 134.38 40.1463C134.48 39.8745 134.529 39.553 134.529 39.1818C134.529 38.804 134.48 38.4808 134.38 38.2124C134.284 37.9406 134.145 37.7334 133.963 37.5909C133.784 37.4451 133.568 37.3722 133.316 37.3722C133.064 37.3722 132.849 37.4451 132.67 37.5909C132.494 37.7334 132.358 37.9406 132.262 38.2124C132.169 38.4808 132.123 38.804 132.123 39.1818C132.123 39.5597 132.169 39.8845 132.262 40.1562C132.358 40.4247 132.494 40.6319 132.67 40.7777C132.849 40.9202 133.064 40.9915 133.316 40.9915Z" fill="white"/>
</svg>
