<svg width="128" height="50" viewBox="0 0 128 50" fill="none" xmlns="http://www.w3.org/2000/svg">
<path d="M46.4882 9.21378C46.5393 8.38281 46.3135 7.71591 45.8106 7.21307C45.3121 6.70597 44.5919 6.45241 43.6501 6.45241C43.0109 6.45241 42.425 6.5696 41.8923 6.80398C41.3596 7.03835 40.9165 7.36009 40.5628 7.76918C40.2133 8.17401 39.9939 8.63636 39.9044 9.15625C39.849 9.4929 39.8639 9.79758 39.9491 10.0703C40.0386 10.3388 40.1856 10.5774 40.3902 10.7862C40.5947 10.995 40.8483 11.1804 41.1508 11.3423C41.4534 11.5 41.7922 11.6385 42.1672 11.7578L43.5287 12.1797C43.9932 12.3288 44.4172 12.5014 44.8007 12.6974C45.1885 12.8935 45.5145 13.1278 45.7787 13.4006C46.0429 13.669 46.2304 13.9844 46.3412 14.3466C46.4562 14.7088 46.4733 15.1264 46.3923 15.5994C46.2773 16.3026 46.0003 16.9268 45.5613 17.4723C45.1224 18.0178 44.5535 18.4439 43.8547 18.7507C43.1558 19.0575 42.3504 19.2109 41.4385 19.2109C40.599 19.2109 39.8873 19.0682 39.3035 18.7827C38.724 18.4972 38.2957 18.1009 38.0187 17.5938C37.7417 17.0824 37.6352 16.4943 37.6991 15.8295H38.5173C38.4704 16.3707 38.5663 16.8395 38.805 17.2358C39.0436 17.6278 39.3994 17.9304 39.8724 18.1435C40.3497 18.3565 40.9143 18.4631 41.5663 18.4631C42.2737 18.4631 42.9129 18.3416 43.4839 18.0987C44.0592 17.8558 44.5322 17.5192 44.903 17.0888C45.278 16.6584 45.5123 16.1598 45.6061 15.593C45.6828 15.1328 45.6402 14.7365 45.4782 14.4041C45.3163 14.0717 45.0415 13.7862 44.6537 13.5476C44.2702 13.3047 43.7822 13.0916 43.1899 12.9084L41.7197 12.4482C40.7481 12.1371 40.0386 11.7152 39.5912 11.1825C39.1437 10.6456 38.9839 9.97869 39.1118 9.18182C39.2311 8.49574 39.5102 7.89276 39.9491 7.37287C40.3881 6.85298 40.9399 6.44602 41.6047 6.15199C42.2694 5.85795 42.9939 5.71094 43.778 5.71094C44.5578 5.71094 45.2204 5.86222 45.7659 6.16477C46.3156 6.46307 46.7204 6.87642 46.9804 7.40483C47.2446 7.93324 47.3405 8.53622 47.268 9.21378H46.4882ZM53.8135 9.18182L53.692 9.87855H49.4094L49.5244 9.18182H53.8135ZM51.3589 6.82955H52.1324L50.5088 16.6797C50.4406 17.0803 50.4619 17.4084 50.5727 17.6641C50.6878 17.9155 50.8604 18.103 51.0905 18.2266C51.3248 18.3459 51.5912 18.4055 51.8895 18.4055C52.0216 18.4055 52.1409 18.3949 52.2474 18.3736C52.354 18.348 52.4605 18.3203 52.567 18.2905L52.6373 19C52.5052 19.0469 52.3646 19.0852 52.2155 19.1151C52.0663 19.1449 51.8937 19.1598 51.6977 19.1598C51.2886 19.1598 50.9179 19.0682 50.5855 18.8849C50.2574 18.7017 50.0081 18.4354 49.8376 18.0859C49.6714 17.7365 49.6309 17.3146 49.7162 16.8203L51.3589 6.82955ZM58.7673 19.2045C57.8809 19.2045 57.1459 18.9851 56.5621 18.5462C55.9782 18.1072 55.5713 17.5064 55.3412 16.7436C55.1111 15.9808 55.077 15.1115 55.2389 14.1357C55.4008 13.1555 55.7247 12.282 56.2105 11.5149C56.6963 10.7479 57.2907 10.1428 57.9939 9.69957C58.697 9.25639 59.4555 9.0348 60.2694 9.0348C60.8192 9.0348 61.3199 9.1456 61.7716 9.36719C62.2275 9.58878 62.6111 9.90625 62.9221 10.3196C63.2332 10.7287 63.4484 11.2251 63.5677 11.8089C63.6871 12.3928 63.6871 13.049 63.5677 13.7777L63.4782 14.2635H55.7055L55.827 13.554H62.8135C62.9328 12.8466 62.8987 12.2074 62.7112 11.6364C62.5237 11.0611 62.2126 10.6051 61.778 10.2685C61.3476 9.93182 60.8192 9.76349 60.1927 9.76349C59.5535 9.76349 58.9442 9.94886 58.3646 10.3196C57.7893 10.6861 57.295 11.1761 56.8817 11.7898C56.4726 12.4034 56.1998 13.0788 56.0635 13.8161L55.9868 14.2124C55.8504 15.0561 55.8675 15.7997 56.0379 16.4432C56.2126 17.0824 56.5365 17.5831 57.0095 17.9453C57.4825 18.3033 58.1004 18.4822 58.8632 18.4822C59.3959 18.4822 59.8689 18.3928 60.2822 18.2138C60.6998 18.0305 61.0535 17.8089 61.3433 17.549C61.6373 17.2891 61.8675 17.0376 62.0336 16.7947L62.6792 17.0824C62.4832 17.4105 62.202 17.7386 61.8355 18.0668C61.469 18.3906 61.028 18.6612 60.5123 18.8786C59.9967 19.0959 59.415 19.2045 58.7673 19.2045ZM64.787 22.6818L67.037 9.18182H67.7977L67.4397 11.3743H67.5356C67.7572 10.9524 68.0342 10.5646 68.3666 10.2109C68.7032 9.85724 69.0974 9.57386 69.5491 9.3608C70.0051 9.14347 70.5143 9.0348 71.0768 9.0348C71.8694 9.0348 72.5235 9.25213 73.0392 9.68679C73.5548 10.1214 73.9106 10.7202 74.1066 11.483C74.3026 12.2457 74.3197 13.1236 74.1578 14.1165C73.9916 15.1051 73.6805 15.983 73.2245 16.75C72.7728 17.5128 72.2188 18.1136 71.5626 18.5526C70.9063 18.9872 70.1862 19.2045 69.4021 19.2045C68.8438 19.2045 68.3708 19.098 67.983 18.8849C67.5995 18.6719 67.297 18.3885 67.0754 18.0348C66.8538 17.6768 66.7004 17.2848 66.6151 16.8587H66.5384L65.5669 22.6818H64.787ZM66.9859 14.1101C66.8495 14.9453 66.8495 15.6932 66.9859 16.3537C67.1265 17.0099 67.3992 17.5298 67.8041 17.9134C68.2132 18.2926 68.748 18.4822 69.4085 18.4822C70.0775 18.4822 70.6847 18.2905 71.2302 17.907C71.7799 17.5192 72.2401 16.995 72.6109 16.3345C72.9859 15.674 73.2416 14.9325 73.3779 14.1101C73.5143 13.2876 73.5143 12.5483 73.3779 11.892C73.2416 11.2358 72.971 10.718 72.5661 10.3388C72.1613 9.95526 71.6201 9.76349 70.9426 9.76349C70.2778 9.76349 69.6705 9.95312 69.1208 10.3324C68.5711 10.7074 68.1109 11.223 67.7401 11.8793C67.3737 12.5312 67.1222 13.2749 66.9859 14.1101ZM81.2002 16.0597L81.3025 15.4205L88.8003 5.90909H89.2861L89.088 7.14276H88.6725L82.2868 15.2479V15.3182H89.8486L89.7208 16.0597H81.2002ZM86.7613 19L87.2918 15.8359L87.343 15.5547L88.9346 5.90909H89.7144L87.5411 19H86.7613ZM7.34561 36.179C7.30253 36.0033 7.23458 35.8492 7.14178 35.7166C7.04898 35.5807 6.93297 35.4664 6.79377 35.3736C6.65788 35.2775 6.49879 35.2062 6.3165 35.1598C6.13752 35.1101 5.94031 35.0852 5.72488 35.0852C5.26086 35.0852 4.86479 35.1963 4.53667 35.4183C4.21186 35.6404 3.96328 35.9602 3.79093 36.3778C3.62189 36.7955 3.53738 37.2992 3.53738 37.8892C3.53738 38.4858 3.61858 38.9962 3.78098 39.4205C3.94339 39.8447 4.18534 40.1695 4.50684 40.3949C4.82833 40.6203 5.22772 40.733 5.70499 40.733C6.12592 40.733 6.47559 40.6716 6.754 40.549C7.03572 40.4264 7.24618 40.2524 7.38539 40.027C7.52459 39.8016 7.59419 39.5365 7.59419 39.2315L8.07147 39.2812H5.74476V37.3125H10.259V38.7244C10.259 39.6525 10.0618 40.4463 9.66735 41.1058C9.27625 41.7621 8.736 42.2659 8.04661 42.6172C7.36053 42.9652 6.57336 43.1392 5.6851 43.1392C4.6941 43.1392 3.82407 42.9287 3.07502 42.5078C2.32596 42.0869 1.74097 41.487 1.32005 40.7081C0.902433 39.9292 0.693626 39.0028 0.693626 37.929C0.693626 37.0871 0.82123 36.3414 1.07644 35.6918C1.33496 35.0421 1.69292 34.4936 2.1503 34.0462C2.60769 33.5954 3.13633 33.2557 3.73624 33.027C4.33614 32.795 4.97914 32.679 5.66522 32.679C6.26844 32.679 6.82857 32.7652 7.34561 32.9375C7.86597 33.1065 8.32502 33.3485 8.72275 33.6634C9.12379 33.9749 9.44694 34.3445 9.69221 34.772C9.93747 35.1996 10.0866 35.6686 10.1396 36.179H7.34561ZM15.2467 43.1392C14.4314 43.1392 13.7287 42.9834 13.1388 42.6719C12.5521 42.357 12.0997 41.9062 11.7815 41.3196C11.4666 40.7296 11.3092 40.0237 11.3092 39.2017C11.3092 38.4129 11.4683 37.7235 11.7865 37.1335C12.1047 36.5436 12.5538 36.0845 13.1338 35.7564C13.7138 35.4283 14.3982 35.2642 15.1871 35.2642C15.7638 35.2642 16.2858 35.3537 16.7531 35.5327C17.2204 35.7116 17.6198 35.9718 17.9513 36.3132C18.2827 36.6513 18.5379 37.0623 18.7169 37.5462C18.8959 38.0301 18.9854 38.5753 18.9854 39.1818V39.8182H12.1643V38.3068H16.4598C16.4565 38.0881 16.4001 37.8958 16.2907 37.7301C16.1847 37.5611 16.0405 37.4302 15.8582 37.3374C15.6792 37.2412 15.4754 37.1932 15.2467 37.1932C15.0247 37.1932 14.8208 37.2412 14.6352 37.3374C14.4496 37.4302 14.3005 37.5594 14.1878 37.7251C14.0784 37.8909 14.0204 38.0848 14.0138 38.3068V39.9375C14.0138 40.1828 14.0651 40.4015 14.1679 40.5938C14.2706 40.786 14.4181 40.9368 14.6104 41.0462C14.8026 41.1555 15.0346 41.2102 15.3064 41.2102C15.4953 41.2102 15.6676 41.1837 15.8234 41.1307C15.9825 41.0777 16.1184 41.0014 16.2311 40.902C16.3438 40.7992 16.4266 40.6766 16.4797 40.5341H18.9854C18.8992 41.0644 18.6953 41.5251 18.3738 41.9162C18.0523 42.304 17.6265 42.6056 17.0961 42.821C16.5692 43.0331 15.9527 43.1392 15.2467 43.1392ZM24.6592 35.3636V37.3523H19.6279V35.3636H24.6592ZM20.6024 33.5341H23.3467V40.544C23.3467 40.6501 23.3649 40.7396 23.4014 40.8125C23.4378 40.8821 23.4942 40.9351 23.5704 40.9716C23.6466 41.0047 23.7444 41.0213 23.8637 41.0213C23.9466 41.0213 24.0427 41.0114 24.1521 40.9915C24.2648 40.9716 24.3476 40.955 24.4007 40.9418L24.7984 42.8707C24.6758 42.9072 24.5001 42.9519 24.2714 43.005C24.046 43.058 23.7776 43.0928 23.466 43.1094C22.8363 43.1425 22.3076 43.0779 21.8801 42.9155C21.4525 42.7498 21.131 42.4896 20.9156 42.1349C20.7001 41.7803 20.5957 41.3362 20.6024 40.8026V33.5341ZM28.5283 43V32.8182H32.9431C33.7187 32.8182 34.3699 32.9226 34.8969 33.1314C35.4272 33.3402 35.8266 33.6352 36.0951 34.0163C36.3669 34.3975 36.5028 34.8466 36.5028 35.3636C36.5028 35.7382 36.4199 36.0795 36.2542 36.3878C36.0918 36.696 35.8631 36.9545 35.5681 37.1634C35.2731 37.3688 34.9284 37.5114 34.534 37.5909V37.6903C34.9715 37.7069 35.3692 37.8179 35.7272 38.0234C36.0851 38.2256 36.3702 38.5057 36.5823 38.8636C36.7944 39.2183 36.9005 39.6359 36.9005 40.1165C36.9005 40.6733 36.7546 41.1688 36.463 41.603C36.1746 42.0372 35.7636 42.3786 35.23 42.6271C34.6964 42.8757 34.06 43 33.3209 43H28.5283ZM31.2925 40.7926H32.5851C33.0492 40.7926 33.3972 40.7064 33.6292 40.5341C33.8612 40.3584 33.9772 40.0999 33.9772 39.7585C33.9772 39.5199 33.9225 39.3177 33.8131 39.152C33.7037 38.9863 33.548 38.8603 33.3458 38.7741C33.1469 38.688 32.9066 38.6449 32.6249 38.6449H31.2925V40.7926ZM31.2925 36.9347H32.426C32.668 36.9347 32.8818 36.8965 33.0674 36.8203C33.253 36.7441 33.3972 36.6347 33.4999 36.4922C33.606 36.3464 33.659 36.169 33.659 35.9602C33.659 35.6454 33.5463 35.4051 33.3209 35.2393C33.0956 35.0703 32.8105 34.9858 32.4658 34.9858H31.2925V36.9347ZM41.5986 43.1392C40.77 43.1392 40.0608 42.9751 39.4708 42.647C38.8808 42.3156 38.4284 41.8549 38.1135 41.2649C37.7987 40.6716 37.6412 39.9839 37.6412 39.2017C37.6412 38.4195 37.7987 37.7334 38.1135 37.1435C38.4284 36.5502 38.8808 36.0895 39.4708 35.7614C40.0608 35.4299 40.77 35.2642 41.5986 35.2642C42.4272 35.2642 43.1365 35.4299 43.7265 35.7614C44.3164 36.0895 44.7689 36.5502 45.0837 37.1435C45.3986 37.7334 45.556 38.4195 45.556 39.2017C45.556 39.9839 45.3986 40.6716 45.0837 41.2649C44.7689 41.8549 44.3164 42.3156 43.7265 42.647C43.1365 42.9751 42.4272 43.1392 41.5986 43.1392ZM41.6185 41.1108C41.8505 41.1108 42.051 41.0329 42.2201 40.8771C42.3891 40.7214 42.52 40.4993 42.6128 40.2109C42.7056 39.9226 42.752 39.5795 42.752 39.1818C42.752 38.7808 42.7056 38.4377 42.6128 38.1527C42.52 37.8643 42.3891 37.6423 42.2201 37.4865C42.051 37.3307 41.8505 37.2528 41.6185 37.2528C41.3733 37.2528 41.1628 37.3307 40.9871 37.4865C40.8115 37.6423 40.6772 37.8643 40.5844 38.1527C40.4916 38.4377 40.4452 38.7808 40.4452 39.1818C40.4452 39.5795 40.4916 39.9226 40.5844 40.2109C40.6772 40.4993 40.8115 40.7214 40.9871 40.8771C41.1628 41.0329 41.3733 41.1108 41.6185 41.1108ZM49.414 38.7045V43H46.6697V35.3636H49.2748V36.8153H49.3543C49.52 36.3314 49.8117 35.9519 50.2293 35.6768C50.6502 35.4018 51.1408 35.2642 51.7009 35.2642C52.2412 35.2642 52.7101 35.3885 53.1079 35.6371C53.5089 35.8823 53.8188 36.2204 54.0376 36.6513C54.2596 37.0821 54.369 37.5743 54.3657 38.1278V43H51.6214V38.7045C51.6247 38.3267 51.5286 38.0301 51.333 37.8146C51.1408 37.5992 50.8723 37.4915 50.5276 37.4915C50.3022 37.4915 50.105 37.5412 49.936 37.6406C49.7703 37.7367 49.6427 37.8759 49.5532 38.0582C49.4637 38.2372 49.4173 38.4527 49.414 38.7045ZM60.6721 39.6591V35.3636H63.4165V43H60.8113V41.5483H60.7318C60.5661 42.0355 60.2761 42.4167 59.8618 42.6918C59.4475 42.9635 58.9553 43.0994 58.3852 43.0994C57.8516 43.0994 57.3843 42.9768 56.9832 42.7315C56.5855 42.4863 56.2756 42.1482 56.0535 41.7173C55.8348 41.2865 55.7238 40.7926 55.7204 40.2358V35.3636H58.4648V39.6591C58.4681 40.0369 58.5642 40.3336 58.7531 40.549C58.9453 40.7644 59.2138 40.8722 59.5585 40.8722C59.7872 40.8722 59.9844 40.8241 60.1501 40.728C60.3192 40.6286 60.4484 40.4893 60.5379 40.3104C60.6307 40.1281 60.6755 39.911 60.6721 39.6591ZM71.7923 37.8494H69.2668C69.2535 37.6937 69.1988 37.5594 69.1027 37.4467C69.0066 37.334 68.8823 37.2479 68.7298 37.1882C68.5807 37.1252 68.415 37.0938 68.2327 37.0938C67.9974 37.0938 67.7952 37.1368 67.6262 37.223C67.4571 37.3092 67.3743 37.4318 67.3776 37.5909C67.3743 37.7036 67.4223 37.808 67.5218 37.9041C67.6245 38.0002 67.8217 38.0748 68.1134 38.1278L69.6645 38.4062C70.4467 38.5488 71.0284 38.7891 71.4095 39.1271C71.794 39.4619 71.9879 39.911 71.9912 40.4744C71.9879 41.018 71.8255 41.4903 71.504 41.8913C71.1858 42.2891 70.75 42.5973 70.1965 42.8161C69.6463 43.0315 69.0182 43.1392 68.3122 43.1392C67.1456 43.1392 66.2325 42.9006 65.5729 42.4233C64.9166 41.946 64.5504 41.3163 64.4742 40.5341H67.1986C67.2351 40.776 67.3544 40.9633 67.5566 41.0959C67.762 41.2251 68.0206 41.2898 68.3321 41.2898C68.584 41.2898 68.7912 41.2467 68.9536 41.1605C69.1193 41.0743 69.2038 40.9517 69.2071 40.7926C69.2038 40.6468 69.1309 40.5308 68.9884 40.4446C68.8492 40.3584 68.6304 40.2888 68.3321 40.2358L66.9798 39.9972C66.201 39.8613 65.6176 39.6027 65.2298 39.2216C64.8421 38.8404 64.6498 38.3499 64.6531 37.75C64.6498 37.2197 64.789 36.7706 65.0708 36.4027C65.3558 36.0315 65.7618 35.7498 66.2888 35.5575C66.8191 35.362 67.4472 35.2642 68.173 35.2642C69.2767 35.2642 70.1468 35.4929 70.7831 35.9503C71.4228 36.4077 71.7592 37.0407 71.7923 37.8494ZM75.792 43V32.8182H80.1869C80.9426 32.8182 81.6038 32.9557 82.1705 33.2308C82.7373 33.5059 83.1781 33.902 83.493 34.419C83.8079 34.9361 83.9653 35.5559 83.9653 36.2784C83.9653 37.0076 83.8029 37.6224 83.4781 38.1229C83.1566 38.6233 82.7042 39.0012 82.1208 39.2564C81.5408 39.5116 80.863 39.6392 80.0874 39.6392H77.4624V37.4915H79.5306C79.8554 37.4915 80.1322 37.4517 80.3609 37.3722C80.5929 37.2893 80.7702 37.1584 80.8928 36.9794C81.0188 36.8004 81.0818 36.5668 81.0818 36.2784C81.0818 35.9867 81.0188 35.7498 80.8928 35.5675C80.7702 35.3819 80.5929 35.246 80.3609 35.1598C80.1322 35.0703 79.8554 35.0256 79.5306 35.0256H78.5562V43H75.792ZM81.7579 38.3267L84.3034 43H81.3005L78.8147 38.3267H81.7579ZM88.6784 43.1392C87.863 43.1392 87.1604 42.9834 86.5704 42.6719C85.9838 42.357 85.5313 41.9062 85.2132 41.3196C84.8983 40.7296 84.7409 40.0237 84.7409 39.2017C84.7409 38.4129 84.8999 37.7235 85.2181 37.1335C85.5363 36.5436 85.9854 36.0845 86.5654 35.7564C87.1454 35.4283 87.8299 35.2642 88.6187 35.2642C89.1954 35.2642 89.7174 35.3537 90.1847 35.5327C90.6521 35.7116 91.0515 35.9718 91.3829 36.3132C91.7143 36.6513 91.9695 37.0623 92.1485 37.5462C92.3275 38.0301 92.417 38.5753 92.417 39.1818V39.8182H85.596V38.3068H89.8914C89.8881 38.0881 89.8318 37.8958 89.7224 37.7301C89.6163 37.5611 89.4722 37.4302 89.2899 37.3374C89.1109 37.2412 88.907 37.1932 88.6784 37.1932C88.4563 37.1932 88.2525 37.2412 88.0669 37.3374C87.8812 37.4302 87.7321 37.5594 87.6194 37.7251C87.51 37.8909 87.452 38.0848 87.4454 38.3068V39.9375C87.4454 40.1828 87.4968 40.4015 87.5995 40.5938C87.7023 40.786 87.8498 40.9368 88.042 41.0462C88.2342 41.1555 88.4662 41.2102 88.738 41.2102C88.9269 41.2102 89.0993 41.1837 89.2551 41.1307C89.4142 41.0777 89.55 41.0014 89.6627 40.902C89.7754 40.7992 89.8583 40.6766 89.9113 40.5341H92.417C92.3308 41.0644 92.127 41.5251 91.8055 41.9162C91.484 42.304 91.0581 42.6056 90.5278 42.821C90.0008 43.0331 89.3843 43.1392 88.6784 43.1392ZM94.7934 43L92.8843 35.3636H95.6286L96.5036 40.017H96.5633L97.5377 35.3636H100.203L101.217 39.9773H101.276L102.112 35.3636H104.856L102.947 43H99.9838L98.9099 38.9034H98.8303L97.7565 43H94.7934ZM107.819 43.1193C107.332 43.1193 106.901 43.0398 106.526 42.8807C106.155 42.7183 105.863 42.473 105.651 42.1449C105.439 41.8168 105.333 41.3991 105.333 40.892C105.333 40.4744 105.404 40.1181 105.547 39.8232C105.689 39.5249 105.888 39.2812 106.144 39.0923C106.399 38.9034 106.695 38.7592 107.033 38.6598C107.375 38.5604 107.743 38.4957 108.137 38.4659C108.565 38.4328 108.908 38.393 109.166 38.3466C109.428 38.2969 109.617 38.2289 109.733 38.1428C109.849 38.0533 109.907 37.9356 109.907 37.7898V37.7699C109.907 37.571 109.831 37.4186 109.678 37.3125C109.526 37.2064 109.33 37.1534 109.092 37.1534C108.83 37.1534 108.616 37.2114 108.45 37.3274C108.288 37.4401 108.19 37.6141 108.157 37.8494H105.631C105.665 37.3854 105.812 36.9579 106.074 36.5668C106.339 36.1723 106.725 35.8575 107.232 35.6222C107.739 35.3835 108.372 35.2642 109.131 35.2642C109.678 35.2642 110.169 35.3288 110.603 35.4581C111.037 35.584 111.407 35.7614 111.712 35.9901C112.017 36.2154 112.249 36.4806 112.408 36.7855C112.57 37.0871 112.651 37.4152 112.651 37.7699V43H110.086V41.9261H110.026C109.874 42.2112 109.688 42.4415 109.47 42.6172C109.254 42.7929 109.007 42.9205 108.729 43C108.454 43.0795 108.15 43.1193 107.819 43.1193ZM108.714 41.3892C108.923 41.3892 109.118 41.3461 109.301 41.2599C109.486 41.1738 109.637 41.0495 109.753 40.8871C109.869 40.7247 109.927 40.5275 109.927 40.2955V39.6591C109.854 39.6889 109.776 39.7171 109.693 39.7436C109.614 39.7701 109.528 39.795 109.435 39.8182C109.345 39.8414 109.249 39.8629 109.146 39.8828C109.047 39.9027 108.943 39.9209 108.833 39.9375C108.621 39.9706 108.447 40.0253 108.311 40.1016C108.179 40.1745 108.079 40.2656 108.013 40.375C107.95 40.4811 107.918 40.6004 107.918 40.733C107.918 40.9451 107.993 41.1075 108.142 41.2202C108.291 41.3329 108.482 41.3892 108.714 41.3892ZM113.963 43V35.3636H116.627V36.8153H116.707C116.846 36.2784 117.067 35.8857 117.368 35.6371C117.673 35.3885 118.029 35.2642 118.437 35.2642C118.556 35.2642 118.674 35.2741 118.79 35.294C118.909 35.3106 119.024 35.3355 119.133 35.3686V37.7102C118.997 37.6638 118.83 37.629 118.631 37.6058C118.432 37.5826 118.261 37.571 118.119 37.571C117.85 37.571 117.608 37.6323 117.393 37.755C117.181 37.8743 117.014 38.0433 116.891 38.2621C116.768 38.4775 116.707 38.7311 116.707 39.0227V43H113.963ZM122.36 43.0994C121.816 43.0994 121.316 42.9569 120.858 42.6719C120.404 42.3868 120.04 41.9543 119.764 41.3743C119.493 40.7943 119.357 40.0634 119.357 39.1818C119.357 38.2604 119.499 37.5114 119.784 36.9347C120.073 36.358 120.444 35.9354 120.898 35.6669C121.355 35.3984 121.836 35.2642 122.34 35.2642C122.718 35.2642 123.049 35.3305 123.334 35.4631C123.619 35.5923 123.858 35.7663 124.05 35.9851C124.242 36.2005 124.388 36.4375 124.487 36.696H124.527V32.8182H127.272V43H124.547V41.7472H124.487C124.381 42.0057 124.229 42.2377 124.03 42.4432C123.835 42.6454 123.596 42.8061 123.314 42.9254C123.036 43.0414 122.718 43.0994 122.36 43.0994ZM123.374 40.9915C123.626 40.9915 123.841 40.9186 124.02 40.7727C124.202 40.6236 124.342 40.4148 124.438 40.1463C124.537 39.8745 124.587 39.553 124.587 39.1818C124.587 38.804 124.537 38.4808 124.438 38.2124C124.342 37.9406 124.202 37.7334 124.02 37.5909C123.841 37.4451 123.626 37.3722 123.374 37.3722C123.122 37.3722 122.907 37.4451 122.728 37.5909C122.552 37.7334 122.416 37.9406 122.32 38.2124C122.227 38.4808 122.181 38.804 122.181 39.1818C122.181 39.5597 122.227 39.8845 122.32 40.1562C122.416 40.4247 122.552 40.6319 122.728 40.7777C122.907 40.9202 123.122 40.9915 123.374 40.9915Z" fill="white"/>
</svg>
