<svg width="56" height="50" viewBox="0 0 56 50" fill="none" xmlns="http://www.w3.org/2000/svg">
<path d="M10.4882 9.21378C10.5393 8.38281 10.3135 7.71591 9.81064 7.21307C9.31206 6.70597 8.59189 6.45241 7.65012 6.45241C7.01092 6.45241 6.42498 6.5696 5.89231 6.80398C5.35964 7.03835 4.91646 7.36009 4.56277 7.76918C4.21333 8.17401 3.99387 8.63636 3.90439 9.15625C3.84899 9.4929 3.8639 9.79758 3.94913 10.0703C4.03862 10.3388 4.18564 10.5774 4.39018 10.7862C4.59473 10.995 4.84828 11.1804 5.15083 11.3423C5.45339 11.5 5.79217 11.6385 6.16717 11.7578L7.52868 12.1797C7.99316 12.3288 8.41717 12.5014 8.80069 12.6974C9.18848 12.8935 9.51447 13.1278 9.77868 13.4006C10.0429 13.669 10.2304 13.9844 10.3412 14.3466C10.4562 14.7088 10.4733 15.1264 10.3923 15.5994C10.2773 16.3026 10.0003 16.9268 9.56135 17.4723C9.12243 18.0178 8.55353 18.4439 7.85467 18.7507C7.15581 19.0575 6.35041 19.2109 5.43848 19.2109C4.59899 19.2109 3.88734 19.0682 3.30353 18.7827C2.72399 18.4972 2.29572 18.1009 2.01873 17.5938C1.74174 17.0824 1.63521 16.4943 1.69913 15.8295H2.51731C2.47044 16.3707 2.56632 16.8395 2.80495 17.2358C3.04359 17.6278 3.39941 17.9304 3.87243 18.1435C4.3497 18.3565 4.91433 18.4631 5.56632 18.4631C6.2737 18.4631 6.91291 18.3416 7.48393 18.0987C8.05922 17.8558 8.53223 17.5192 8.90297 17.0888C9.27797 16.6584 9.51234 16.1598 9.60609 15.593C9.68279 15.1328 9.64018 14.7365 9.47825 14.4041C9.31632 14.0717 9.04146 13.7862 8.65368 13.5476C8.27015 13.3047 7.78223 13.0916 7.1899 12.9084L5.71973 12.4482C4.74814 12.1371 4.03862 11.7152 3.59118 11.1825C3.14373 10.6456 2.98393 9.97869 3.11177 9.18182C3.23109 8.49574 3.51021 7.89276 3.94913 7.37287C4.38805 6.85298 4.9399 6.44602 5.60467 6.15199C6.26944 5.85795 6.99387 5.71094 7.77797 5.71094C8.55779 5.71094 9.22044 5.86222 9.76589 6.16477C10.3156 6.46307 10.7204 6.87642 10.9804 7.40483C11.2446 7.93324 11.3405 8.53622 11.268 9.21378H10.4882ZM17.8135 9.18182L17.692 9.87855H13.4094L13.5244 9.18182H17.8135ZM15.3589 6.82955H16.1324L14.5088 16.6797C14.4406 17.0803 14.4619 17.4084 14.5727 17.6641C14.6878 17.9155 14.8604 18.103 15.0905 18.2266C15.3248 18.3459 15.5912 18.4055 15.8895 18.4055C16.0216 18.4055 16.1409 18.3949 16.2474 18.3736C16.354 18.348 16.4605 18.3203 16.567 18.2905L16.6373 19C16.5052 19.0469 16.3646 19.0852 16.2155 19.1151C16.0663 19.1449 15.8937 19.1598 15.6977 19.1598C15.2886 19.1598 14.9179 19.0682 14.5855 18.8849C14.2574 18.7017 14.0081 18.4354 13.8376 18.0859C13.6714 17.7365 13.6309 17.3146 13.7162 16.8203L15.3589 6.82955ZM22.7673 19.2045C21.8809 19.2045 21.1459 18.9851 20.5621 18.5462C19.9782 18.1072 19.5713 17.5064 19.3412 16.7436C19.1111 15.9808 19.077 15.1115 19.2389 14.1357C19.4008 13.1555 19.7247 12.282 20.2105 11.5149C20.6963 10.7479 21.2907 10.1428 21.9939 9.69957C22.697 9.25639 23.4555 9.0348 24.2694 9.0348C24.8192 9.0348 25.3199 9.1456 25.7716 9.36719C26.2275 9.58878 26.6111 9.90625 26.9221 10.3196C27.2332 10.7287 27.4484 11.2251 27.5677 11.8089C27.6871 12.3928 27.6871 13.049 27.5677 13.7777L27.4782 14.2635H19.7055L19.827 13.554H26.8135C26.9328 12.8466 26.8987 12.2074 26.7112 11.6364C26.5237 11.0611 26.2126 10.6051 25.778 10.2685C25.3476 9.93182 24.8192 9.76349 24.1927 9.76349C23.5535 9.76349 22.9442 9.94886 22.3646 10.3196C21.7893 10.6861 21.295 11.1761 20.8817 11.7898C20.4726 12.4034 20.1998 13.0788 20.0635 13.8161L19.9868 14.2124C19.8504 15.0561 19.8675 15.7997 20.0379 16.4432C20.2126 17.0824 20.5365 17.5831 21.0095 17.9453C21.4825 18.3033 22.1004 18.4822 22.8632 18.4822C23.3959 18.4822 23.8689 18.3928 24.2822 18.2138C24.6998 18.0305 25.0535 17.8089 25.3433 17.549C25.6373 17.2891 25.8675 17.0376 26.0336 16.7947L26.6792 17.0824C26.4832 17.4105 26.202 17.7386 25.8355 18.0668C25.469 18.3906 25.028 18.6612 24.5123 18.8786C23.9967 19.0959 23.415 19.2045 22.7673 19.2045ZM28.787 22.6818L31.037 9.18182H31.7977L31.4397 11.3743H31.5356C31.7572 10.9524 32.0342 10.5646 32.3666 10.2109C32.7032 9.85724 33.0974 9.57386 33.5491 9.3608C34.0051 9.14347 34.5143 9.0348 35.0768 9.0348C35.8694 9.0348 36.5235 9.25213 37.0392 9.68679C37.5548 10.1214 37.9106 10.7202 38.1066 11.483C38.3026 12.2457 38.3197 13.1236 38.1578 14.1165C37.9916 15.1051 37.6805 15.983 37.2245 16.75C36.7728 17.5128 36.2188 18.1136 35.5626 18.5526C34.9063 18.9872 34.1862 19.2045 33.4021 19.2045C32.8438 19.2045 32.3708 19.098 31.983 18.8849C31.5995 18.6719 31.297 18.3885 31.0754 18.0348C30.8538 17.6768 30.7004 17.2848 30.6151 16.8587H30.5384L29.5669 22.6818H28.787ZM30.9859 14.1101C30.8495 14.9453 30.8495 15.6932 30.9859 16.3537C31.1265 17.0099 31.3992 17.5298 31.8041 17.9134C32.2132 18.2926 32.748 18.4822 33.4085 18.4822C34.0775 18.4822 34.6847 18.2905 35.2302 17.907C35.7799 17.5192 36.2401 16.995 36.6109 16.3345C36.9859 15.674 37.2416 14.9325 37.3779 14.1101C37.5143 13.2876 37.5143 12.5483 37.3779 11.892C37.2416 11.2358 36.971 10.718 36.5661 10.3388C36.1613 9.95526 35.6201 9.76349 34.9426 9.76349C34.2778 9.76349 33.6705 9.95312 33.1208 10.3324C32.5711 10.7074 32.1109 11.223 31.7401 11.8793C31.3737 12.5312 31.1222 13.2749 30.9859 14.1101ZM45.2002 16.0597L45.3025 15.4205L52.8003 5.90909H53.2861L53.088 7.14276H52.6725L46.2868 15.2479V15.3182H53.8486L53.7208 16.0597H45.2002ZM50.7613 19L51.2918 15.8359L51.343 15.5547L52.9346 5.90909H53.7144L51.5411 19H50.7613ZM4.228 34.558L5.684 35.356C5.376 35.706 5.026 36.056 4.634 36.378C5.376 37.526 5.516 38.786 5.516 40.06C5.516 41.572 5.306 42.902 4.62 43.616C4.396 43.868 4.088 44.036 3.738 44.106C3.164 44.246 2.604 44.26 1.876 44.232C1.862 43.658 1.68 43 1.344 42.496C2.058 42.538 2.562 42.538 2.842 42.496C3.066 42.482 3.164 42.412 3.276 42.272C3.528 41.95 3.64 41.194 3.654 40.032C2.982 40.69 2.184 41.32 1.484 41.74C1.218 41.292 0.728 40.648 0.322 40.284C1.414 39.836 2.702 38.884 3.36 37.988C3.304 37.82 3.234 37.652 3.15 37.484C2.618 37.834 2.058 38.142 1.512 38.394C1.246 37.988 0.7 37.372 0.322 37.036C0.924 36.798 1.526 36.476 2.086 36.098C1.778 35.818 1.414 35.566 0.98 35.314L2.296 34.278C2.744 34.53 3.122 34.796 3.444 35.062C3.626 34.894 3.808 34.726 3.962 34.558H3.57V33.732H0.728V31.926H3.57V31.03H5.586V31.926H8.456V31.03H10.486V31.926H13.272V33.732H10.486V34.376H8.456V33.732H5.586V34.558H4.228ZM10.15 35.328V36.672H11.284C10.99 36.238 10.556 35.72 10.15 35.328ZM13.216 38.548H10.304C10.864 40.382 11.872 41.88 13.58 42.608C13.146 42.972 12.572 43.742 12.306 44.26C10.962 43.532 10.052 42.398 9.408 40.942C8.89 42.174 8.008 43.364 6.538 44.358C6.188 43.938 5.53 43.378 5.04 43.042C7.056 41.67 7.826 40.032 8.106 38.548H5.586V36.672H8.26V34.642H10.15V35.286L11.494 34.376C12.04 34.824 12.67 35.482 12.936 35.986L11.942 36.672H13.216V38.548ZM24.696 33.27V32.822H21.588V33.27H24.696ZM24.696 35.034V34.572H21.588V35.034H24.696ZM26.754 31.422V36.434H19.628V31.422H26.754ZM17.094 31.044L19.026 31.828C18.032 33.172 16.548 34.586 15.19 35.454C14.98 34.992 14.504 34.152 14.196 33.718C15.274 33.074 16.506 31.94 17.094 31.044ZM17.528 34.11L19.306 34.866C18.942 35.454 18.522 36.07 18.046 36.658V44.33H16.072V38.828C15.722 39.164 15.372 39.472 15.022 39.738C14.882 39.276 14.392 38.114 14.098 37.61C15.316 36.77 16.702 35.426 17.528 34.11ZM23.52 42.328V40.774H21.098C21.602 41.264 22.176 41.866 22.47 42.3L22.162 42.524C22.596 42.538 23.114 42.538 23.268 42.538C23.464 42.524 23.52 42.482 23.52 42.328ZM27.398 39.066V40.774H25.578V42.384C25.578 43.266 25.424 43.742 24.822 44.022C24.234 44.302 23.52 44.316 22.61 44.316C22.526 43.798 22.274 43.098 22.036 42.608L20.958 43.364C20.664 42.846 19.964 42.034 19.404 41.46L20.426 40.774H18.634V39.066H23.52V38.506H19.012V36.854H27.09V38.506H25.578V39.066H27.398ZM31.234 33.676L29.638 34.586C29.456 34.026 28.98 33.158 28.546 32.514L30.044 31.702C30.506 32.29 31.038 33.116 31.234 33.676ZM34.944 34.95L36.386 34.082C36.778 34.432 37.254 34.908 37.604 35.328C38.22 34.936 38.738 34.46 39.13 33.858H36.022C35.49 34.32 34.93 34.74 34.37 35.062C34.118 34.698 33.656 34.11 33.306 33.718V36.63C34.272 36.504 35.168 36.336 35.952 36.084C35.644 35.692 35.28 35.286 34.944 34.95ZM40.474 32.136L41.692 32.682C40.628 36.182 37.898 37.708 34.356 38.324C34.174 37.848 33.656 37.036 33.306 36.644V38.338H31.332V36.322C30.59 36.812 29.834 37.274 29.162 37.68L28.35 35.902C29.106 35.552 30.212 34.95 31.332 34.334V31.03H33.306V33.508C34.44 32.892 35.56 31.856 36.078 30.974L37.996 31.632C37.87 31.814 37.744 31.996 37.604 32.178H40.138L40.474 32.136ZM41.342 40.788H36.414C37.38 41.866 39.144 42.342 41.72 42.44C41.286 42.86 40.768 43.7 40.516 44.246C37.884 43.98 36.218 43.266 35.028 41.838C34.16 43.014 32.55 43.812 29.428 44.288C29.288 43.77 28.84 43 28.476 42.58C31.318 42.23 32.62 41.67 33.264 40.788H28.672V39.024H33.866C33.894 38.8 33.908 38.576 33.936 38.324H36.064C36.036 38.562 36.022 38.8 35.994 39.024H41.342V40.788ZM47.824 38.772H47.362C47.25 40.186 47.04 41.418 46.62 42.482C46.816 42.496 46.984 42.51 47.11 42.496C47.278 42.51 47.376 42.468 47.488 42.3C47.656 42.062 47.754 41.152 47.824 38.772ZM44.968 36.154V37.022C44.968 38.66 44.898 40.816 44.492 42.636C45.528 41.124 45.612 38.968 45.64 36.154H44.968ZM52.752 34.306H55.314C55.314 34.306 55.3 34.908 55.3 35.132C55.202 40.76 55.104 42.832 54.698 43.448C54.362 43.952 54.054 44.12 53.592 44.218C53.186 44.316 52.598 44.316 51.968 44.302C51.94 43.77 51.73 42.986 51.436 42.468C51.912 42.51 52.332 42.51 52.584 42.51C52.78 42.51 52.892 42.454 53.032 42.258C53.27 41.908 53.368 40.34 53.438 36.154H52.696C52.514 39.654 51.94 42.44 50.12 44.372C49.896 44.008 49.49 43.56 49.098 43.224C49.07 43.294 49.042 43.35 49 43.406C48.72 43.784 48.44 43.924 48.062 43.994C47.74 44.064 47.25 44.078 46.718 44.064C46.704 43.714 46.606 43.252 46.466 42.86C46.186 43.476 45.822 44.022 45.36 44.498C45.15 44.12 44.716 43.602 44.324 43.266C44.212 43.672 44.072 44.05 43.918 44.386C43.568 44.078 42.728 43.588 42.266 43.42C43.078 41.642 43.134 38.996 43.134 37.036V31.786H49.966V33.62H44.968V34.39H49.574V36.154H47.46C47.46 36.462 47.46 36.77 47.446 37.078H49.602C49.602 37.078 49.588 37.554 49.574 37.75C49.504 39.948 49.448 41.362 49.322 42.244C50.4 40.704 50.75 38.688 50.862 36.154H49.854V34.306H50.904C50.918 33.354 50.918 32.332 50.918 31.254H52.78C52.78 32.318 52.78 33.34 52.752 34.306Z" fill="white"/>
</svg>
