<svg width="84" height="50" viewBox="0 0 84 50" fill="none" xmlns="http://www.w3.org/2000/svg">
<path d="M24.4882 9.21378C24.5393 8.38281 24.3135 7.71591 23.8106 7.21307C23.3121 6.70597 22.5919 6.45241 21.6501 6.45241C21.0109 6.45241 20.425 6.5696 19.8923 6.80398C19.3596 7.03835 18.9165 7.36009 18.5628 7.76918C18.2133 8.17401 17.9939 8.63636 17.9044 9.15625C17.849 9.4929 17.8639 9.79758 17.9491 10.0703C18.0386 10.3388 18.1856 10.5774 18.3902 10.7862C18.5947 10.995 18.8483 11.1804 19.1508 11.3423C19.4534 11.5 19.7922 11.6385 20.1672 11.7578L21.5287 12.1797C21.9932 12.3288 22.4172 12.5014 22.8007 12.6974C23.1885 12.8935 23.5145 13.1278 23.7787 13.4006C24.0429 13.669 24.2304 13.9844 24.3412 14.3466C24.4562 14.7088 24.4733 15.1264 24.3923 15.5994C24.2773 16.3026 24.0003 16.9268 23.5613 17.4723C23.1224 18.0178 22.5535 18.4439 21.8547 18.7507C21.1558 19.0575 20.3504 19.2109 19.4385 19.2109C18.599 19.2109 17.8873 19.0682 17.3035 18.7827C16.724 18.4972 16.2957 18.1009 16.0187 17.5938C15.7417 17.0824 15.6352 16.4943 15.6991 15.8295H16.5173C16.4704 16.3707 16.5663 16.8395 16.805 17.2358C17.0436 17.6278 17.3994 17.9304 17.8724 18.1435C18.3497 18.3565 18.9143 18.4631 19.5663 18.4631C20.2737 18.4631 20.9129 18.3416 21.4839 18.0987C22.0592 17.8558 22.5322 17.5192 22.903 17.0888C23.278 16.6584 23.5123 16.1598 23.6061 15.593C23.6828 15.1328 23.6402 14.7365 23.4782 14.4041C23.3163 14.0717 23.0415 13.7862 22.6537 13.5476C22.2702 13.3047 21.7822 13.0916 21.1899 12.9084L19.7197 12.4482C18.7481 12.1371 18.0386 11.7152 17.5912 11.1825C17.1437 10.6456 16.9839 9.97869 17.1118 9.18182C17.2311 8.49574 17.5102 7.89276 17.9491 7.37287C18.3881 6.85298 18.9399 6.44602 19.6047 6.15199C20.2694 5.85795 20.9939 5.71094 21.778 5.71094C22.5578 5.71094 23.2204 5.86222 23.7659 6.16477C24.3156 6.46307 24.7204 6.87642 24.9804 7.40483C25.2446 7.93324 25.3405 8.53622 25.268 9.21378H24.4882ZM31.8135 9.18182L31.692 9.87855H27.4094L27.5244 9.18182H31.8135ZM29.3589 6.82955H30.1324L28.5088 16.6797C28.4406 17.0803 28.4619 17.4084 28.5727 17.6641C28.6878 17.9155 28.8604 18.103 29.0905 18.2266C29.3248 18.3459 29.5912 18.4055 29.8895 18.4055C30.0216 18.4055 30.1409 18.3949 30.2474 18.3736C30.354 18.348 30.4605 18.3203 30.567 18.2905L30.6373 19C30.5052 19.0469 30.3646 19.0852 30.2155 19.1151C30.0663 19.1449 29.8937 19.1598 29.6977 19.1598C29.2886 19.1598 28.9179 19.0682 28.5855 18.8849C28.2574 18.7017 28.0081 18.4354 27.8376 18.0859C27.6714 17.7365 27.6309 17.3146 27.7162 16.8203L29.3589 6.82955ZM36.7673 19.2045C35.8809 19.2045 35.1459 18.9851 34.5621 18.5462C33.9782 18.1072 33.5713 17.5064 33.3412 16.7436C33.1111 15.9808 33.077 15.1115 33.2389 14.1357C33.4008 13.1555 33.7247 12.282 34.2105 11.5149C34.6963 10.7479 35.2907 10.1428 35.9939 9.69957C36.697 9.25639 37.4555 9.0348 38.2694 9.0348C38.8192 9.0348 39.3199 9.1456 39.7716 9.36719C40.2275 9.58878 40.6111 9.90625 40.9221 10.3196C41.2332 10.7287 41.4484 11.2251 41.5677 11.8089C41.6871 12.3928 41.6871 13.049 41.5677 13.7777L41.4782 14.2635H33.7055L33.827 13.554H40.8135C40.9328 12.8466 40.8987 12.2074 40.7112 11.6364C40.5237 11.0611 40.2126 10.6051 39.778 10.2685C39.3476 9.93182 38.8192 9.76349 38.1927 9.76349C37.5535 9.76349 36.9442 9.94886 36.3646 10.3196C35.7893 10.6861 35.295 11.1761 34.8817 11.7898C34.4726 12.4034 34.1998 13.0788 34.0635 13.8161L33.9868 14.2124C33.8504 15.0561 33.8675 15.7997 34.0379 16.4432C34.2126 17.0824 34.5365 17.5831 35.0095 17.9453C35.4825 18.3033 36.1004 18.4822 36.8632 18.4822C37.3959 18.4822 37.8689 18.3928 38.2822 18.2138C38.6998 18.0305 39.0535 17.8089 39.3433 17.549C39.6373 17.2891 39.8675 17.0376 40.0336 16.7947L40.6792 17.0824C40.4832 17.4105 40.202 17.7386 39.8355 18.0668C39.469 18.3906 39.028 18.6612 38.5123 18.8786C37.9967 19.0959 37.415 19.2045 36.7673 19.2045ZM42.787 22.6818L45.037 9.18182H45.7977L45.4397 11.3743H45.5356C45.7572 10.9524 46.0342 10.5646 46.3666 10.2109C46.7032 9.85724 47.0974 9.57386 47.5491 9.3608C48.0051 9.14347 48.5143 9.0348 49.0768 9.0348C49.8694 9.0348 50.5235 9.25213 51.0392 9.68679C51.5548 10.1214 51.9106 10.7202 52.1066 11.483C52.3026 12.2457 52.3197 13.1236 52.1578 14.1165C51.9916 15.1051 51.6805 15.983 51.2245 16.75C50.7728 17.5128 50.2188 18.1136 49.5626 18.5526C48.9063 18.9872 48.1862 19.2045 47.4021 19.2045C46.8438 19.2045 46.3708 19.098 45.983 18.8849C45.5995 18.6719 45.297 18.3885 45.0754 18.0348C44.8538 17.6768 44.7004 17.2848 44.6151 16.8587H44.5384L43.5669 22.6818H42.787ZM44.9859 14.1101C44.8495 14.9453 44.8495 15.6932 44.9859 16.3537C45.1265 17.0099 45.3992 17.5298 45.8041 17.9134C46.2132 18.2926 46.748 18.4822 47.4085 18.4822C48.0775 18.4822 48.6847 18.2905 49.2302 17.907C49.7799 17.5192 50.2401 16.995 50.6109 16.3345C50.9859 15.674 51.2416 14.9325 51.3779 14.1101C51.5143 13.2876 51.5143 12.5483 51.3779 11.892C51.2416 11.2358 50.971 10.718 50.5661 10.3388C50.1613 9.95526 49.6201 9.76349 48.9426 9.76349C48.2778 9.76349 47.6705 9.95312 47.1208 10.3324C46.5711 10.7074 46.1109 11.223 45.7401 11.8793C45.3737 12.5312 45.1222 13.2749 44.9859 14.1101ZM59.2002 16.0597L59.3025 15.4205L66.8003 5.90909H67.2861L67.088 7.14276H66.6725L60.2868 15.2479V15.3182H67.8486L67.7208 16.0597H59.2002ZM64.7613 19L65.2918 15.8359L65.343 15.5547L66.9346 5.90909H67.7144L65.5411 19H64.7613ZM4.228 34.558L5.684 35.356C5.376 35.706 5.026 36.056 4.634 36.378C5.376 37.526 5.516 38.786 5.516 40.06C5.516 41.572 5.306 42.902 4.62 43.616C4.396 43.868 4.088 44.036 3.738 44.106C3.164 44.246 2.604 44.26 1.876 44.232C1.862 43.658 1.68 43 1.344 42.496C2.058 42.538 2.562 42.538 2.842 42.496C3.066 42.482 3.164 42.412 3.276 42.272C3.528 41.95 3.64 41.194 3.654 40.032C2.982 40.69 2.184 41.32 1.484 41.74C1.218 41.292 0.728 40.648 0.322 40.284C1.414 39.836 2.702 38.884 3.36 37.988C3.304 37.82 3.234 37.652 3.15 37.484C2.618 37.834 2.058 38.142 1.512 38.394C1.246 37.988 0.7 37.372 0.322 37.036C0.924 36.798 1.526 36.476 2.086 36.098C1.778 35.818 1.414 35.566 0.98 35.314L2.296 34.278C2.744 34.53 3.122 34.796 3.444 35.062C3.626 34.894 3.808 34.726 3.962 34.558H3.57V33.732H0.728V31.926H3.57V31.03H5.586V31.926H8.456V31.03H10.486V31.926H13.272V33.732H10.486V34.376H8.456V33.732H5.586V34.558H4.228ZM10.15 35.328V36.672H11.284C10.99 36.238 10.556 35.72 10.15 35.328ZM13.216 38.548H10.304C10.864 40.382 11.872 41.88 13.58 42.608C13.146 42.972 12.572 43.742 12.306 44.26C10.962 43.532 10.052 42.398 9.408 40.942C8.89 42.174 8.008 43.364 6.538 44.358C6.188 43.938 5.53 43.378 5.04 43.042C7.056 41.67 7.826 40.032 8.106 38.548H5.586V36.672H8.26V34.642H10.15V35.286L11.494 34.376C12.04 34.824 12.67 35.482 12.936 35.986L11.942 36.672H13.216V38.548ZM24.696 33.27V32.822H21.588V33.27H24.696ZM24.696 35.034V34.572H21.588V35.034H24.696ZM26.754 31.422V36.434H19.628V31.422H26.754ZM17.094 31.044L19.026 31.828C18.032 33.172 16.548 34.586 15.19 35.454C14.98 34.992 14.504 34.152 14.196 33.718C15.274 33.074 16.506 31.94 17.094 31.044ZM17.528 34.11L19.306 34.866C18.942 35.454 18.522 36.07 18.046 36.658V44.33H16.072V38.828C15.722 39.164 15.372 39.472 15.022 39.738C14.882 39.276 14.392 38.114 14.098 37.61C15.316 36.77 16.702 35.426 17.528 34.11ZM23.52 42.328V40.774H21.098C21.602 41.264 22.176 41.866 22.47 42.3L22.162 42.524C22.596 42.538 23.114 42.538 23.268 42.538C23.464 42.524 23.52 42.482 23.52 42.328ZM27.398 39.066V40.774H25.578V42.384C25.578 43.266 25.424 43.742 24.822 44.022C24.234 44.302 23.52 44.316 22.61 44.316C22.526 43.798 22.274 43.098 22.036 42.608L20.958 43.364C20.664 42.846 19.964 42.034 19.404 41.46L20.426 40.774H18.634V39.066H23.52V38.506H19.012V36.854H27.09V38.506H25.578V39.066H27.398ZM39.228 33.186H38.122C37.996 33.774 37.814 34.306 37.576 34.782C38.01 34.824 38.374 34.824 38.584 34.824C38.752 34.824 38.878 34.796 38.99 34.684C39.102 34.53 39.172 34.124 39.228 33.186ZM32.942 39.892V41.782C33.67 41.992 34.524 42.034 35.56 42.034C36.848 42.048 40.306 42.048 41.804 41.964C41.496 42.426 41.16 43.364 41.034 43.98H35.546C33.11 43.98 31.444 43.686 30.324 42.272C30.184 43.042 30.002 43.728 29.75 44.302C29.414 44.064 28.56 43.616 28.126 43.448C28.798 42.062 28.896 39.78 28.896 37.428L30.66 37.54C30.66 38.184 30.632 38.814 30.604 39.416C30.758 39.864 30.94 40.228 31.15 40.536V36.882H28.56V35.104H30.842V34.068H28.896V32.318H30.842V31.044H32.704V32.318H34.58V34.068H32.704V35.104H34.804V35.286C35.546 34.782 35.994 34.082 36.218 33.186H34.986V31.506H41.216C41.216 31.506 41.216 31.954 41.202 32.164C41.118 34.418 40.992 35.454 40.656 35.874C40.362 36.224 40.026 36.35 39.634 36.42C39.27 36.476 38.696 36.49 38.066 36.476C38.038 35.958 37.842 35.23 37.576 34.782C37.184 35.594 36.624 36.224 35.91 36.714C35.686 36.49 35.21 36.112 34.804 35.832V36.882H32.942V38.142H34.608V39.892H32.942ZM37.184 38.492V39.752H38.864V38.492H37.184ZM35.294 41.362V36.882H40.88V41.362H35.294ZM48.524 39.836V42.846C49.658 42.426 50.33 41.894 50.75 41.166H49.28V38.842L48.244 39.836H48.524ZM45.276 42.342H46.676V41.39H45.276V42.342ZM44.59 39.836H47.81C47.376 39.57 46.802 39.248 46.186 38.926C45.682 39.276 45.15 39.57 44.59 39.836ZM44.184 34.012V34.586C44.324 34.404 44.45 34.236 44.548 34.068L46.312 34.418C46.214 34.586 46.102 34.754 45.99 34.922H47.208V34.012H44.184ZM51.408 36.448H53.116C53.046 40.83 52.78 43.168 49.112 44.414C49 44.12 48.776 43.742 48.524 43.42V44.204H46.676V43.896H45.276V44.204H43.512V40.27C43.33 40.34 43.148 40.396 42.966 40.452C42.868 39.906 42.532 38.912 42.294 38.506C42.966 38.366 43.61 38.156 44.198 37.904L43.708 37.652L45.038 36.462L45.934 36.868C46.116 36.728 46.298 36.56 46.466 36.392H44.758C44.31 36.826 43.792 37.232 43.19 37.61C42.952 37.204 42.434 36.56 42.084 36.294C42.756 35.944 43.316 35.51 43.75 35.062H42.448V32.416H44.884C44.772 32.094 44.632 31.758 44.52 31.464L46.466 31.072C46.648 31.478 46.886 31.982 47.068 32.416H49.028V35.062H48.314L49.112 35.608C48.748 36.378 48.244 37.078 47.656 37.68C48.258 37.974 48.832 38.268 49.28 38.506V34.586H51.002C51.128 34.264 51.254 33.9 51.366 33.55H49.238V31.8H55.608V33.55H53.158C53.018 33.914 52.864 34.264 52.738 34.586H55.23V41.096H53.494V36.112H50.932V40.774C51.352 39.752 51.38 38.366 51.408 36.448ZM52.402 42.342L53.424 41.082C54.18 41.614 55.3 42.398 55.832 42.916L54.754 44.33C54.264 43.784 53.172 42.93 52.402 42.342ZM66.948 35.482H65.086C65.03 35.636 64.96 35.804 64.904 35.958C65.184 36.952 65.562 37.904 66.024 38.772C66.444 37.82 66.752 36.714 66.948 35.482ZM69.664 35.482H68.964C68.614 37.484 68.082 39.206 67.298 40.634C67.984 41.446 68.81 42.118 69.776 42.594C69.328 42.972 68.698 43.742 68.404 44.274C67.522 43.756 66.766 43.098 66.108 42.328C65.408 43.154 64.568 43.84 63.56 44.4C63.322 43.98 62.636 43.126 62.23 42.734C63.35 42.202 64.232 41.502 64.932 40.62C64.484 39.836 64.106 38.968 63.784 38.03C63.63 38.254 63.476 38.45 63.308 38.646C63.098 38.296 62.622 37.652 62.216 37.204V44.344H60.2V40.886C58.156 41.586 57.666 41.866 57.316 42.146C57.204 41.628 56.868 40.718 56.574 40.284C56.854 40.116 57.092 39.822 57.092 39.248V32.514H59.094V39.234L60.2 38.926V31.24H62.216V36.462C63.196 35.118 63.756 33.116 64.036 31.016L66.136 31.352C66.01 32.108 65.87 32.85 65.674 33.564H69.664V35.482ZM73.85 39.878V42.104H74.676V39.878H73.85ZM74.97 35.398L76.174 36.252C75.278 36.868 73.934 37.61 72.73 38.184H81.69C80.654 37.68 79.114 37.036 77.994 36.616L78.932 35.398H74.97ZM80.052 42.104V39.878H79.198V42.104H80.052ZM77.35 42.104V39.878H76.524V42.104H77.35ZM81.942 38.31V42.104H83.426V43.882H70.56V42.104H72.058V38.492L71.68 38.66C71.414 38.17 70.938 37.4 70.532 36.966C71.792 36.644 73.472 35.986 74.508 35.398H70.7V33.62H73.836C73.542 33.032 73.094 32.318 72.702 31.772L74.452 31.002C75.012 31.688 75.6 32.598 75.894 33.214L75.096 33.62H78.946L78.148 33.354C78.568 32.71 79.086 31.744 79.352 31.016L81.438 31.618C80.976 32.36 80.514 33.074 80.094 33.62H83.314V35.398H79.66C80.948 35.846 82.6 36.476 83.524 36.924L82.348 38.52C82.222 38.45 82.096 38.38 81.942 38.31Z" fill="white"/>
</svg>
