<svg width="304" height="401" viewBox="0 0 304 401" fill="none" xmlns="http://www.w3.org/2000/svg">
<path d="M138.103 17.2051C137.405 17.2051 136.792 17.0889 136.264 16.8564C135.74 16.624 135.32 16.305 135.006 15.8994C134.691 15.4938 134.509 15.029 134.459 14.5049L134.452 14.4297H135.382L135.389 14.5049C135.425 14.8649 135.566 15.1839 135.812 15.4619C136.059 15.7399 136.382 15.9564 136.783 16.1113C137.189 16.2663 137.645 16.3438 138.15 16.3438C138.647 16.3438 139.087 16.2617 139.47 16.0977C139.853 15.929 140.153 15.7012 140.372 15.4141C140.591 15.1224 140.7 14.792 140.7 14.4229V14.416C140.7 13.9557 140.529 13.5706 140.188 13.2607C139.846 12.9463 139.294 12.7025 138.533 12.5293L137.521 12.3037C136.528 12.0804 135.81 11.7546 135.368 11.3262C134.926 10.8932 134.705 10.3372 134.705 9.6582V9.65137C134.705 9.12728 134.849 8.66243 135.136 8.25684C135.423 7.84668 135.819 7.52311 136.325 7.28613C136.836 7.04915 137.419 6.93066 138.075 6.93066C138.718 6.93066 139.285 7.0446 139.777 7.27246C140.274 7.50033 140.668 7.80566 140.96 8.18848C141.256 8.56673 141.423 8.99284 141.459 9.4668L141.466 9.54883H140.536L140.522 9.47363C140.477 9.15462 140.347 8.86979 140.133 8.61914C139.919 8.36393 139.634 8.16113 139.278 8.01074C138.927 7.86035 138.517 7.78743 138.048 7.79199C137.592 7.79199 137.184 7.86947 136.824 8.02441C136.464 8.1748 136.177 8.389 135.963 8.66699C135.753 8.94043 135.648 9.26172 135.648 9.63086V9.6377C135.648 10.0706 135.812 10.4307 136.141 10.7178C136.469 11.0049 137.007 11.2327 137.754 11.4014L138.766 11.6338C139.796 11.8662 140.534 12.1966 140.98 12.625C141.427 13.0534 141.65 13.6117 141.65 14.2998V14.3066C141.65 14.89 141.502 15.3981 141.206 15.8311C140.91 16.264 140.495 16.6012 139.962 16.8428C139.429 17.0843 138.809 17.2051 138.103 17.2051ZM146.025 17.0479C145.328 17.0479 144.822 16.902 144.508 16.6104C144.198 16.3187 144.043 15.8379 144.043 15.168V10.3896H142.86V9.6377H144.043V7.72363H144.973V9.6377H146.661V10.3896H144.973V14.9629C144.973 15.4186 145.062 15.7467 145.239 15.9473C145.417 16.1478 145.713 16.248 146.128 16.248C146.233 16.248 146.324 16.2458 146.401 16.2412C146.479 16.2367 146.565 16.2298 146.661 16.2207V16.9932C146.556 17.0068 146.451 17.0182 146.347 17.0273C146.246 17.041 146.139 17.0479 146.025 17.0479ZM151.378 17.123C150.69 17.123 150.095 16.9681 149.594 16.6582C149.097 16.3483 148.714 15.9108 148.445 15.3457C148.176 14.7806 148.042 14.113 148.042 13.3428V13.3291C148.042 12.5635 148.176 11.8958 148.445 11.3262C148.714 10.752 149.092 10.3076 149.58 9.99316C150.072 9.67415 150.646 9.51465 151.303 9.51465C151.964 9.51465 152.531 9.6696 153.005 9.97949C153.483 10.2848 153.85 10.7132 154.105 11.2646C154.365 11.8115 154.495 12.4473 154.495 13.1719V13.5547H148.507V12.8164H154.037L153.593 13.4795V13.1377C153.593 12.5225 153.495 12.0075 153.299 11.5928C153.107 11.1735 152.839 10.8568 152.492 10.6426C152.15 10.4284 151.754 10.3213 151.303 10.3213C150.847 10.3213 150.444 10.4307 150.093 10.6494C149.742 10.8682 149.464 11.1895 149.259 11.6133C149.058 12.0326 148.958 12.5407 148.958 13.1377V13.4795C148.958 14.0674 149.058 14.5732 149.259 14.9971C149.459 15.4209 149.742 15.7467 150.106 15.9746C150.471 16.2025 150.902 16.3164 151.398 16.3164C151.754 16.3164 152.071 16.2663 152.349 16.166C152.631 16.0658 152.866 15.9336 153.053 15.7695C153.24 15.6009 153.374 15.4232 153.456 15.2363L153.477 15.1816H154.386L154.365 15.2363C154.292 15.487 154.172 15.7262 154.003 15.9541C153.839 16.1774 153.629 16.3779 153.374 16.5557C153.119 16.7288 152.823 16.8678 152.485 16.9727C152.153 17.0729 151.784 17.123 151.378 17.123ZM156.437 19.4404V9.6377H157.339V11.1074H157.421C157.567 10.7793 157.76 10.4967 158.002 10.2598C158.243 10.0182 158.524 9.83366 158.843 9.70605C159.166 9.57845 159.517 9.51465 159.896 9.51465C160.52 9.51465 161.064 9.67415 161.529 9.99316C161.999 10.3076 162.363 10.7497 162.623 11.3193C162.883 11.889 163.013 12.5521 163.013 13.3086V13.3223C163.013 14.0833 162.883 14.7487 162.623 15.3184C162.363 15.888 161.999 16.3324 161.529 16.6514C161.064 16.9658 160.52 17.123 159.896 17.123C159.526 17.123 159.178 17.0592 158.85 16.9316C158.526 16.7995 158.241 16.6172 157.995 16.3848C157.749 16.1523 157.558 15.8766 157.421 15.5576H157.339V19.4404H156.437ZM159.711 16.3232C160.199 16.3232 160.62 16.2002 160.976 15.9541C161.331 15.708 161.604 15.3594 161.796 14.9082C161.992 14.457 162.09 13.9284 162.09 13.3223V13.3086C162.09 12.6979 161.992 12.1693 161.796 11.7227C161.604 11.276 161.331 10.9297 160.976 10.6836C160.62 10.4375 160.199 10.3145 159.711 10.3145C159.223 10.3145 158.799 10.4398 158.439 10.6904C158.084 10.9365 157.808 11.2829 157.612 11.7295C157.416 12.1761 157.318 12.7025 157.318 13.3086V13.3223C157.318 13.9284 157.416 14.457 157.612 14.9082C157.808 15.3548 158.086 15.7035 158.446 15.9541C158.806 16.2002 159.228 16.3232 159.711 16.3232ZM171.059 17V8.1748H170.977L168.427 9.94531V8.96094L171.059 7.13574H171.988V17H171.059ZM113.136 29.086L115.054 29.66C114.76 30.528 114.41 31.424 114.018 32.292V42.316H112.072V35.792C111.834 36.142 111.596 36.45 111.344 36.744C111.162 36.24 110.63 35.092 110.294 34.574C111.442 33.244 112.52 31.158 113.136 29.086ZM116.986 34.126H119.226C119.17 33.37 119.142 32.558 119.114 31.718C118.4 31.844 117.686 31.956 116.986 32.054V34.126ZM123.426 36.016H121.312C121.55 38.242 121.872 39.768 122.124 39.768C122.278 39.768 122.376 39.236 122.432 38.228C122.74 38.634 123.524 39.18 123.832 39.348C123.468 41.714 122.684 42.218 122.11 42.218C120.598 42.218 119.786 39.852 119.38 36.016H116.986V39.922L118.12 39.698L117.84 38.998L119.254 38.55C119.674 39.53 120.234 40.846 120.486 41.63L118.974 42.176C118.82 41.56 118.484 40.65 118.148 39.796C118.12 40.328 118.134 41.028 118.19 41.42C115.978 41.994 115.474 42.204 115.166 42.414C115.082 41.952 114.788 41.154 114.536 40.804C114.816 40.664 115.096 40.412 115.096 39.852V30.528H115.11L115.096 30.5C117.532 30.178 120.136 29.618 121.83 28.974L123.44 30.64C122.698 30.892 121.886 31.116 121.032 31.312C121.06 32.292 121.102 33.23 121.158 34.126H123.426V36.016ZM135.452 33.846L133.786 33.034C134.052 32.642 134.36 32.124 134.64 31.592H125.33V29.688H135.69L136.012 29.576L137.552 30.178C136.978 31.48 136.166 32.894 135.452 33.846ZM130.622 33.216L129.446 34.742C128.844 34.28 127.556 33.58 126.632 33.132L127.738 31.774C128.634 32.138 129.95 32.768 130.622 33.216ZM137.3 38.088H131.938C131.056 40.104 129.25 41.504 125.414 42.316C125.246 41.812 124.77 41.056 124.392 40.636C127.234 40.09 128.788 39.278 129.642 38.088H124.812V36.226H127.136C126.534 35.834 125.666 35.358 124.994 35.05L126.114 33.706C126.926 34.042 128.116 34.602 128.718 35.008L127.766 36.226H130.44C130.72 35.036 130.734 33.622 130.776 31.914H132.82C132.764 33.524 132.708 34.966 132.484 36.226H137.3V38.088ZM131.196 39.992L132.218 38.522C134.094 39.152 136.18 40.076 137.356 40.748L136.068 42.344C134.962 41.63 133.016 40.65 131.196 39.992ZM140.268 37.276C140.03 35.078 142.284 34.63 142.284 33.356C142.284 32.698 141.864 32.376 141.262 32.376C140.688 32.376 140.24 32.614 139.82 33.104L138.448 31.844C139.19 30.934 140.296 30.36 141.556 30.36C143.306 30.36 144.664 31.228 144.664 33.132C144.664 35.218 142.326 35.372 142.452 37.276H140.268ZM139.708 39.614C139.708 38.718 140.394 38.088 141.36 38.088C142.326 38.088 143.012 38.718 143.012 39.614C143.012 40.51 142.326 41.168 141.36 41.168C140.394 41.168 139.708 40.51 139.708 39.614ZM160.246 39.782V39.25H157.67V39.782H160.246ZM164.978 35.904V40.552C164.978 41.406 164.768 41.77 164.152 42.008C163.55 42.218 162.724 42.232 161.688 42.218C161.618 41.896 161.464 41.504 161.296 41.154H157.67V41.658H155.794V37.878H162.024V40.804C162.304 40.804 162.542 40.79 162.626 40.79C162.836 40.79 162.92 40.734 162.92 40.538V37.542H155.024V42.33H153.05V35.904H164.978ZM161.576 34.14V33.664H156.48V34.14H161.576ZM163.732 32.334V35.47H154.45V32.334H163.732ZM160.344 30.248H165.216V31.942H152.728V30.248H157.936C157.852 29.968 157.74 29.674 157.656 29.422L159.784 28.904C159.952 29.31 160.176 29.814 160.344 30.248ZM169.136 35.302L169.948 34.35H166.966V32.642H172.006V31.942H167.918V30.22H172.006V29.114H174.092V30.22H178.32V31.942H174.092V32.642H177.732L178.054 32.53L179.51 33.132C179.006 34.196 178.278 35.344 177.606 36.114L176.094 35.232C176.29 34.98 176.5 34.672 176.696 34.35H170.648C171.348 34.602 172.104 34.966 172.538 35.274L171.516 36.52C171.012 36.114 169.962 35.596 169.136 35.302ZM179.16 39.096H173.812C172.93 40.664 171.194 41.77 167.638 42.414C167.484 41.896 167.022 41.126 166.644 40.692C168.954 40.342 170.34 39.81 171.194 39.096H166.798V37.346H169.206C168.688 37.066 168.03 36.786 167.47 36.604L168.366 35.428C169.178 35.638 170.242 36.072 170.802 36.464L170.13 37.346H172.314C172.538 36.59 172.594 35.708 172.664 34.7H174.792C174.722 35.666 174.638 36.548 174.456 37.346H179.16V39.096ZM173.448 40.706L174.316 39.166C176.206 39.516 178.348 40.118 179.594 40.608L178.488 42.302C177.312 41.756 175.338 41.098 173.448 40.706ZM182.268 37.276C182.03 35.078 184.284 34.63 184.284 33.356C184.284 32.698 183.864 32.376 183.262 32.376C182.688 32.376 182.24 32.614 181.82 33.104L180.448 31.844C181.19 30.934 182.296 30.36 183.556 30.36C185.306 30.36 186.664 31.228 186.664 33.132C186.664 35.218 184.326 35.372 184.452 37.276H182.268ZM181.708 39.614C181.708 38.718 182.394 38.088 183.36 38.088C184.326 38.088 185.012 38.718 185.012 39.614C185.012 40.51 184.326 41.168 183.36 41.168C182.394 41.168 181.708 40.51 181.708 39.614Z" fill="white"/>
<path d="M144 59.5C143.724 59.5 143.5 59.7239 143.5 60C143.5 60.2761 143.724 60.5 144 60.5L144 59.5ZM160 59.5L159 59.5L159 60.5L160 60.5L160 59.5ZM157 59.5L155 59.5L155 60.5L157 60.5L157 59.5ZM153 59.5L151 59.5L151 60.5L153 60.5L153 59.5ZM149 59.5L147 59.5L147 60.5L149 60.5L149 59.5ZM145 59.5L144 59.5L144 60.5L145 60.5L145 59.5Z" fill="white" fill-opacity="0.16"/>
<path d="M135.313 89.2051C134.616 89.2051 134.003 89.0889 133.475 88.8564C132.951 88.624 132.531 88.305 132.217 87.8994C131.902 87.4938 131.72 87.029 131.67 86.5049L131.663 86.4297H132.593L132.6 86.5049C132.636 86.8649 132.777 87.1839 133.023 87.4619C133.27 87.7399 133.593 87.9564 133.994 88.1113C134.4 88.2663 134.855 88.3438 135.361 88.3438C135.858 88.3438 136.298 88.2617 136.681 88.0977C137.063 87.929 137.364 87.7012 137.583 87.4141C137.802 87.1224 137.911 86.792 137.911 86.4229V86.416C137.911 85.9557 137.74 85.5706 137.398 85.2607C137.057 84.9463 136.505 84.7025 135.744 84.5293L134.732 84.3037C133.739 84.0804 133.021 83.7546 132.579 83.3262C132.137 82.8932 131.916 82.3372 131.916 81.6582V81.6514C131.916 81.1273 132.06 80.6624 132.347 80.2568C132.634 79.8467 133.03 79.5231 133.536 79.2861C134.047 79.0492 134.63 78.9307 135.286 78.9307C135.929 78.9307 136.496 79.0446 136.988 79.2725C137.485 79.5003 137.879 79.8057 138.171 80.1885C138.467 80.5667 138.633 80.9928 138.67 81.4668L138.677 81.5488H137.747L137.733 81.4736C137.688 81.1546 137.558 80.8698 137.344 80.6191C137.13 80.3639 136.845 80.1611 136.489 80.0107C136.138 79.8604 135.728 79.7874 135.259 79.792C134.803 79.792 134.395 79.8695 134.035 80.0244C133.675 80.1748 133.388 80.389 133.174 80.667C132.964 80.9404 132.859 81.2617 132.859 81.6309V81.6377C132.859 82.0706 133.023 82.4307 133.352 82.7178C133.68 83.0049 134.217 83.2327 134.965 83.4014L135.977 83.6338C137.007 83.8662 137.745 84.1966 138.191 84.625C138.638 85.0534 138.861 85.6117 138.861 86.2998V86.3066C138.861 86.89 138.713 87.3981 138.417 87.8311C138.121 88.264 137.706 88.6012 137.173 88.8428C136.64 89.0843 136.02 89.2051 135.313 89.2051ZM143.236 89.0479C142.539 89.0479 142.033 88.902 141.719 88.6104C141.409 88.3187 141.254 87.8379 141.254 87.168V82.3896H140.071V81.6377H141.254V79.7236H142.184V81.6377H143.872V82.3896H142.184V86.9629C142.184 87.4186 142.272 87.7467 142.45 87.9473C142.628 88.1478 142.924 88.248 143.339 88.248C143.444 88.248 143.535 88.2458 143.612 88.2412C143.69 88.2367 143.776 88.2298 143.872 88.2207V88.9932C143.767 89.0068 143.662 89.0182 143.558 89.0273C143.457 89.041 143.35 89.0479 143.236 89.0479ZM148.589 89.123C147.901 89.123 147.306 88.9681 146.805 88.6582C146.308 88.3483 145.925 87.9108 145.656 87.3457C145.387 86.7806 145.253 86.113 145.253 85.3428V85.3291C145.253 84.5635 145.387 83.8958 145.656 83.3262C145.925 82.752 146.303 82.3076 146.791 81.9932C147.283 81.6742 147.857 81.5146 148.514 81.5146C149.174 81.5146 149.742 81.6696 150.216 81.9795C150.694 82.2848 151.061 82.7132 151.316 83.2646C151.576 83.8115 151.706 84.4473 151.706 85.1719V85.5547H145.718V84.8164H151.248L150.804 85.4795V85.1377C150.804 84.5225 150.706 84.0075 150.51 83.5928C150.318 83.1735 150.049 82.8568 149.703 82.6426C149.361 82.4284 148.965 82.3213 148.514 82.3213C148.058 82.3213 147.655 82.4307 147.304 82.6494C146.953 82.8682 146.675 83.1895 146.47 83.6133C146.269 84.0326 146.169 84.5407 146.169 85.1377V85.4795C146.169 86.0674 146.269 86.5732 146.47 86.9971C146.67 87.4209 146.953 87.7467 147.317 87.9746C147.682 88.2025 148.113 88.3164 148.609 88.3164C148.965 88.3164 149.282 88.2663 149.56 88.166C149.842 88.0658 150.077 87.9336 150.264 87.7695C150.451 87.6009 150.585 87.4232 150.667 87.2363L150.688 87.1816H151.597L151.576 87.2363C151.503 87.487 151.382 87.7262 151.214 87.9541C151.05 88.1774 150.84 88.3779 150.585 88.5557C150.33 88.7288 150.034 88.8678 149.696 88.9727C149.364 89.0729 148.994 89.123 148.589 89.123ZM153.647 91.4404V81.6377H154.55V83.1074H154.632C154.778 82.7793 154.971 82.4967 155.213 82.2598C155.454 82.0182 155.735 81.8337 156.054 81.7061C156.377 81.5785 156.728 81.5146 157.106 81.5146C157.731 81.5146 158.275 81.6742 158.74 81.9932C159.21 82.3076 159.574 82.7497 159.834 83.3193C160.094 83.889 160.224 84.5521 160.224 85.3086V85.3223C160.224 86.0833 160.094 86.7487 159.834 87.3184C159.574 87.888 159.21 88.3324 158.74 88.6514C158.275 88.9658 157.731 89.123 157.106 89.123C156.737 89.123 156.389 89.0592 156.061 88.9316C155.737 88.7995 155.452 88.6172 155.206 88.3848C154.96 88.1523 154.769 87.8766 154.632 87.5576H154.55V91.4404H153.647ZM156.922 88.3232C157.41 88.3232 157.831 88.2002 158.187 87.9541C158.542 87.708 158.815 87.3594 159.007 86.9082C159.203 86.457 159.301 85.9284 159.301 85.3223V85.3086C159.301 84.6979 159.203 84.1693 159.007 83.7227C158.815 83.276 158.542 82.9297 158.187 82.6836C157.831 82.4375 157.41 82.3145 156.922 82.3145C156.434 82.3145 156.01 82.4398 155.65 82.6904C155.295 82.9365 155.019 83.2829 154.823 83.7295C154.627 84.1761 154.529 84.7025 154.529 85.3086V85.3223C154.529 85.9284 154.627 86.457 154.823 86.9082C155.019 87.3548 155.297 87.7035 155.657 87.9541C156.017 88.2002 156.439 88.3232 156.922 88.3232ZM165.843 89V88.3438L169.24 84.7002C169.696 84.2126 170.051 83.807 170.307 83.4834C170.562 83.1598 170.74 82.8682 170.84 82.6084C170.945 82.3486 170.997 82.0684 170.997 81.7676V81.7539C170.997 81.3757 170.908 81.0361 170.73 80.7354C170.557 80.43 170.311 80.1908 169.992 80.0176C169.678 79.8398 169.309 79.751 168.885 79.751C168.461 79.751 168.085 79.8398 167.757 80.0176C167.429 80.1953 167.171 80.4437 166.984 80.7627C166.798 81.0771 166.702 81.4417 166.697 81.8564L166.69 81.8633L165.795 81.8564H165.788C165.797 81.2868 165.936 80.7832 166.205 80.3457C166.479 79.9036 166.852 79.5573 167.326 79.3066C167.8 79.056 168.34 78.9307 168.946 78.9307C169.511 78.9307 170.02 79.0514 170.471 79.293C170.926 79.5299 171.286 79.8535 171.551 80.2637C171.815 80.6738 171.947 81.141 171.947 81.665V81.6787C171.947 82.0433 171.883 82.3965 171.756 82.7383C171.628 83.0755 171.403 83.4515 171.079 83.8662C170.76 84.2809 170.309 84.7891 169.726 85.3906L166.889 88.3369L167.142 87.8516V88.3369L166.896 88.1592H172.187V89H165.843ZM119.828 103.326H118.288C118.218 104.698 117.714 106.14 115.852 106.98C115.614 106.588 114.886 105.79 114.522 105.496C116.23 104.81 116.398 103.872 116.398 102.948V101.45H121.746V104.418C121.746 104.824 121.774 105.006 121.97 105.006H122.558C122.796 105.006 123.174 104.964 123.384 104.894C123.412 105.398 123.454 106.098 123.524 106.56C123.286 106.672 122.908 106.686 122.586 106.686H121.774C120.15 106.686 119.828 105.986 119.828 104.39V103.326ZM114.858 103.312L113.472 104.712C113.024 104.068 112.002 103.074 111.232 102.388L112.534 101.156C113.29 101.772 114.368 102.696 114.858 103.312ZM113.892 110.172L114.9 109.262C115.068 109.808 115.418 110.578 115.67 110.956C113.01 113.35 112.492 113.812 112.226 114.19C112.072 113.7 111.568 112.846 111.232 112.468C111.568 112.216 111.932 111.698 111.932 111.026V107.246H110.42V105.3H113.892V110.172ZM120.346 108.94H117.546C117.924 109.542 118.414 110.074 119.002 110.55C119.534 110.088 119.982 109.556 120.346 108.94ZM121.69 106.98L122.936 107.498C122.46 109.234 121.69 110.564 120.654 111.572C121.55 112.006 122.586 112.328 123.734 112.524C123.314 112.958 122.768 113.784 122.516 114.33C121.144 114.008 119.968 113.518 118.946 112.874C117.826 113.518 116.524 113.966 115.068 114.288C114.886 113.77 114.48 112.958 114.144 112.524C115.348 112.342 116.44 112.034 117.378 111.572C116.72 110.9 116.16 110.116 115.684 109.22L116.51 108.94H115.306V107.05H121.368L121.69 106.98ZM128.088 112.23V112.58H133.786V112.23H128.088ZM133.786 108.198H128.088V108.548H133.786V108.198ZM128.088 110.844V111.25H133.786V110.844H128.088ZM133.786 109.892V109.514H128.088V109.892H133.786ZM128.508 103.396V102.836H127.318V103.396H128.508ZM130.356 102.836V103.396H131.546V102.836H130.356ZM133.394 102.836V103.396H134.612V102.836H133.394ZM135.802 112.58H137.398V113.98H124.658V112.58H126.17V107.008H129.726L129.768 106.616H124.882V105.16H129.88L129.894 104.726H125.386V101.52H136.656V104.726H131.966L131.91 105.16H136.922V106.616H131.714L131.644 107.008H135.802V112.58ZM141.108 101.086L143.026 101.688C142.676 102.612 142.242 103.578 141.752 104.502V114.316H139.82V107.512C139.596 107.792 139.358 108.058 139.134 108.31C138.952 107.806 138.406 106.672 138.07 106.168C139.274 104.95 140.436 103.018 141.108 101.086ZM143.726 107.456L145.7 107.862C145.322 109.612 144.622 111.404 143.866 112.524C143.488 112.202 142.62 111.67 142.144 111.432C142.886 110.494 143.446 108.94 143.726 107.456ZM149.522 105.314H148.066V112.118C148.066 113.042 147.926 113.602 147.352 113.938C146.792 114.26 146.078 114.344 145.154 114.344C145.07 113.756 144.762 112.846 144.468 112.3C145.014 112.314 145.602 112.314 145.798 112.314C145.98 112.314 146.05 112.272 146.05 112.09V105.314H144.706C144.3 106.084 143.852 106.77 143.404 107.316C143.04 106.952 142.228 106.28 141.766 105.972C142.844 104.838 143.726 102.948 144.202 101.072L146.204 101.534C146.022 102.178 145.812 102.822 145.56 103.438H149.928L150.236 103.382L151.678 103.634C151.524 104.838 151.272 106.196 151.076 107.078L149.34 106.77C149.396 106.378 149.466 105.86 149.522 105.314ZM148.276 107.904L150.096 107.288C150.782 108.716 151.328 110.55 151.51 111.796L149.55 112.482C149.438 111.25 148.906 109.332 148.276 107.904ZM154.758 111.124H156.592V108.716H154.758V111.124ZM156.592 106.966V105.076H154.758V106.966H156.592ZM161.52 103.172H165.342C165.342 103.172 165.342 103.816 165.328 104.054C165.16 110.284 165.02 112.552 164.432 113.322C163.998 113.938 163.564 114.106 162.948 114.218C162.388 114.316 161.52 114.302 160.68 114.274C160.652 113.728 160.372 112.86 160.008 112.3C160.904 112.384 161.744 112.384 162.122 112.384C162.402 112.384 162.556 112.328 162.738 112.132C163.144 111.698 163.312 109.64 163.424 105.02H160.764C160.386 105.818 159.98 106.532 159.574 107.106C159.322 106.882 158.846 106.518 158.426 106.238V112.902H154.758V113.896H152.924V103.312H154.52C154.66 102.598 154.786 101.716 154.828 101.03L157.054 101.338C156.816 102.024 156.578 102.724 156.354 103.312H158.426V105.174C159.126 104.04 159.728 102.528 160.092 101.072L162.052 101.534C161.898 102.08 161.716 102.626 161.52 103.172ZM162.934 109.654L161.212 110.704C160.848 109.85 160.008 108.478 159.378 107.442L160.974 106.546C161.604 107.498 162.514 108.828 162.934 109.654ZM169.892 111.32H175.912V110.06H169.892V111.32ZM175.912 106.854H169.892V108.142H175.912V106.854ZM175.912 103.718H169.892V104.936H175.912V103.718ZM167.834 101.73H178.082V114.134H175.912V113.308H169.892V114.134H167.834V101.73ZM192.768 101.786V103.676H186.552V101.786H192.768ZM186.034 107.946L184.984 109.542C184.802 109.15 184.522 108.632 184.214 108.114V114.33H182.198V109.472C181.904 110.354 181.554 111.166 181.176 111.754C180.98 111.194 180.504 110.284 180.182 109.738C180.896 108.758 181.512 107.022 181.834 105.552H180.35V103.676H182.198V101.03H184.214V103.676H185.74V105.552H184.214V105.804C184.634 106.238 185.796 107.624 186.034 107.946ZM186.3 108.156L188.12 108.576C187.728 110.228 187.028 112.006 186.328 113.112C185.964 112.818 185.18 112.3 184.746 112.076C185.432 111.124 185.992 109.584 186.3 108.156ZM193.538 107.022H190.57V112.006C190.57 112.958 190.444 113.532 189.856 113.868C189.282 114.204 188.568 114.246 187.63 114.246C187.574 113.644 187.336 112.748 187.07 112.146C187.532 112.174 188.092 112.174 188.274 112.174C188.442 112.174 188.498 112.132 188.498 111.964V107.022H185.894V105.132H193.538V107.022ZM190.766 108.66L192.432 108.086C193.048 109.528 193.622 111.348 193.776 112.552L191.956 113.224C191.844 112.034 191.34 110.144 190.766 108.66Z" fill="white"/>
<path d="M144 131.5C143.724 131.5 143.5 131.724 143.5 132C143.5 132.276 143.724 132.5 144 132.5L144 131.5ZM160 131.5L159 131.5L159 132.5L160 132.5L160 131.5ZM157 131.5L155 131.5L155 132.5L157 132.5L157 131.5ZM153 131.5L151 131.5L151 132.5L153 132.5L153 131.5ZM149 131.5L147 131.5L147 132.5L149 132.5L149 131.5ZM145 131.5L144 131.5L144 132.5L145 132.5L145 131.5Z" fill="white" fill-opacity="0.16"/>
<path d="M135.184 161.205C134.486 161.205 133.873 161.089 133.345 160.856C132.821 160.624 132.401 160.305 132.087 159.899C131.772 159.494 131.59 159.029 131.54 158.505L131.533 158.43H132.463L132.47 158.505C132.506 158.865 132.647 159.184 132.894 159.462C133.14 159.74 133.463 159.956 133.864 160.111C134.27 160.266 134.726 160.344 135.231 160.344C135.728 160.344 136.168 160.262 136.551 160.098C136.934 159.929 137.234 159.701 137.453 159.414C137.672 159.122 137.781 158.792 137.781 158.423V158.416C137.781 157.956 137.61 157.571 137.269 157.261C136.927 156.946 136.375 156.702 135.614 156.529L134.603 156.304C133.609 156.08 132.891 155.755 132.449 155.326C132.007 154.893 131.786 154.337 131.786 153.658V153.651C131.786 153.127 131.93 152.662 132.217 152.257C132.504 151.847 132.9 151.523 133.406 151.286C133.917 151.049 134.5 150.931 135.156 150.931C135.799 150.931 136.366 151.045 136.858 151.272C137.355 151.5 137.749 151.806 138.041 152.188C138.337 152.567 138.504 152.993 138.54 153.467L138.547 153.549H137.617L137.604 153.474C137.558 153.155 137.428 152.87 137.214 152.619C137 152.364 136.715 152.161 136.359 152.011C136.008 151.86 135.598 151.787 135.129 151.792C134.673 151.792 134.265 151.869 133.905 152.024C133.545 152.175 133.258 152.389 133.044 152.667C132.834 152.94 132.729 153.262 132.729 153.631V153.638C132.729 154.071 132.894 154.431 133.222 154.718C133.55 155.005 134.088 155.233 134.835 155.401L135.847 155.634C136.877 155.866 137.615 156.197 138.062 156.625C138.508 157.053 138.731 157.612 138.731 158.3V158.307C138.731 158.89 138.583 159.398 138.287 159.831C137.991 160.264 137.576 160.601 137.043 160.843C136.51 161.084 135.89 161.205 135.184 161.205ZM143.106 161.048C142.409 161.048 141.903 160.902 141.589 160.61C141.279 160.319 141.124 159.838 141.124 159.168V154.39H139.941V153.638H141.124V151.724H142.054V153.638H143.742V154.39H142.054V158.963C142.054 159.419 142.143 159.747 142.32 159.947C142.498 160.148 142.794 160.248 143.209 160.248C143.314 160.248 143.405 160.246 143.482 160.241C143.56 160.237 143.646 160.23 143.742 160.221V160.993C143.637 161.007 143.533 161.018 143.428 161.027C143.327 161.041 143.22 161.048 143.106 161.048ZM148.459 161.123C147.771 161.123 147.176 160.968 146.675 160.658C146.178 160.348 145.795 159.911 145.526 159.346C145.257 158.781 145.123 158.113 145.123 157.343V157.329C145.123 156.563 145.257 155.896 145.526 155.326C145.795 154.752 146.174 154.308 146.661 153.993C147.153 153.674 147.728 153.515 148.384 153.515C149.045 153.515 149.612 153.67 150.086 153.979C150.564 154.285 150.931 154.713 151.187 155.265C151.446 155.812 151.576 156.447 151.576 157.172V157.555H145.588V156.816H151.118L150.674 157.479V157.138C150.674 156.522 150.576 156.007 150.38 155.593C150.188 155.174 149.92 154.857 149.573 154.643C149.231 154.428 148.835 154.321 148.384 154.321C147.928 154.321 147.525 154.431 147.174 154.649C146.823 154.868 146.545 155.189 146.34 155.613C146.139 156.033 146.039 156.541 146.039 157.138V157.479C146.039 158.067 146.139 158.573 146.34 158.997C146.54 159.421 146.823 159.747 147.188 159.975C147.552 160.202 147.983 160.316 148.479 160.316C148.835 160.316 149.152 160.266 149.43 160.166C149.712 160.066 149.947 159.934 150.134 159.77C150.321 159.601 150.455 159.423 150.537 159.236L150.558 159.182H151.467L151.446 159.236C151.373 159.487 151.253 159.726 151.084 159.954C150.92 160.177 150.71 160.378 150.455 160.556C150.2 160.729 149.904 160.868 149.566 160.973C149.234 161.073 148.865 161.123 148.459 161.123ZM153.518 163.44V153.638H154.42V155.107H154.502C154.648 154.779 154.841 154.497 155.083 154.26C155.325 154.018 155.605 153.834 155.924 153.706C156.247 153.578 156.598 153.515 156.977 153.515C157.601 153.515 158.146 153.674 158.61 153.993C159.08 154.308 159.444 154.75 159.704 155.319C159.964 155.889 160.094 156.552 160.094 157.309V157.322C160.094 158.083 159.964 158.749 159.704 159.318C159.444 159.888 159.08 160.332 158.61 160.651C158.146 160.966 157.601 161.123 156.977 161.123C156.607 161.123 156.259 161.059 155.931 160.932C155.607 160.799 155.322 160.617 155.076 160.385C154.83 160.152 154.639 159.877 154.502 159.558H154.42V163.44H153.518ZM156.792 160.323C157.28 160.323 157.701 160.2 158.057 159.954C158.412 159.708 158.686 159.359 158.877 158.908C159.073 158.457 159.171 157.928 159.171 157.322V157.309C159.171 156.698 159.073 156.169 158.877 155.723C158.686 155.276 158.412 154.93 158.057 154.684C157.701 154.438 157.28 154.314 156.792 154.314C156.304 154.314 155.881 154.44 155.521 154.69C155.165 154.937 154.889 155.283 154.693 155.729C154.497 156.176 154.399 156.702 154.399 157.309V157.322C154.399 157.928 154.497 158.457 154.693 158.908C154.889 159.355 155.167 159.703 155.527 159.954C155.887 160.2 156.309 160.323 156.792 160.323ZM168.987 161.157C168.322 161.157 167.743 161.043 167.251 160.815C166.763 160.583 166.376 160.269 166.089 159.872C165.802 159.476 165.631 159.024 165.576 158.519L165.569 158.45H166.465L166.472 158.505C166.54 159.038 166.795 159.478 167.237 159.824C167.684 160.171 168.267 160.344 168.987 160.344C169.461 160.344 169.881 160.257 170.245 160.084C170.61 159.911 170.895 159.674 171.1 159.373C171.309 159.068 171.414 158.721 171.414 158.334V158.32C171.414 157.673 171.186 157.174 170.73 156.823C170.279 156.468 169.66 156.29 168.871 156.29H167.688V155.497H168.83C169.272 155.497 169.66 155.417 169.992 155.258C170.329 155.094 170.591 154.87 170.778 154.588C170.97 154.305 171.065 153.982 171.065 153.617V153.604C171.065 153.234 170.979 152.915 170.806 152.646C170.632 152.378 170.386 152.168 170.067 152.018C169.753 151.867 169.379 151.792 168.946 151.792C168.522 151.792 168.146 151.867 167.818 152.018C167.49 152.168 167.228 152.375 167.032 152.64C166.836 152.904 166.72 153.212 166.684 153.562L166.677 153.631H165.781L165.788 153.562C165.838 153.052 166 152.605 166.273 152.223C166.547 151.835 166.911 151.532 167.367 151.313C167.823 151.09 168.349 150.979 168.946 150.979C169.552 150.979 170.083 151.088 170.539 151.307C170.999 151.521 171.357 151.817 171.612 152.195C171.872 152.574 172.002 153.009 172.002 153.501V153.515C172.002 153.92 171.913 154.283 171.735 154.602C171.562 154.916 171.316 155.18 170.997 155.395C170.683 155.604 170.316 155.752 169.896 155.839V155.866C170.635 155.921 171.229 156.165 171.681 156.598C172.132 157.031 172.357 157.598 172.357 158.3V158.313C172.357 158.856 172.212 159.343 171.92 159.776C171.628 160.205 171.227 160.542 170.717 160.788C170.211 161.034 169.634 161.157 168.987 161.157Z" fill="white"/>
<circle cx="61" cy="251" r="5" fill="white"/>
<path d="M61 244.333C64.682 244.333 67.6667 247.318 67.6667 251C67.6667 254.682 64.682 257.667 61 257.667C57.318 257.667 54.3334 254.682 54.3334 251C54.3334 247.318 57.318 244.333 61 244.333ZM63.328 248.395L59.9214 251.807L58.6047 250.491L57.662 251.434L59.922 253.694L64.272 249.338L63.328 248.395Z" fill="#62D62B"/>
<path d="M13.0794 274.58H12.1674C12.1194 275.312 12.0594 275.996 11.9634 276.644C12.3474 276.884 12.7074 277.112 13.0314 277.316C13.0314 276.488 13.0554 275.576 13.0794 274.58ZM12.2274 273.008H14.8674C14.6154 277.46 14.5434 280.532 14.8914 280.532C15.0234 280.532 15.1074 280.052 15.1434 279.044C15.4794 279.356 16.1274 279.704 16.5354 279.836C16.3674 281.672 15.8874 282.164 14.8074 282.164C13.4754 282.164 13.1034 280.712 13.0434 278.288L12.4554 279.056C12.2274 278.864 11.9394 278.636 11.5914 278.408C11.1474 279.968 10.4274 281.252 9.25141 282.248C9.05941 281.912 8.39941 281.144 8.01541 280.82C9.11941 280.016 9.75541 278.864 10.1274 277.436C9.76741 277.208 9.41941 276.992 9.09541 276.8L9.15541 277.148C8.77141 277.28 8.36341 277.424 7.96741 277.556V280.232C7.96741 281.012 7.84741 281.468 7.42741 281.756C7.00741 282.032 6.44341 282.104 5.65141 282.104C5.60341 281.636 5.39941 280.904 5.19541 280.412C5.56741 280.436 5.97541 280.436 6.11941 280.436C6.26341 280.436 6.31141 280.388 6.31141 280.232V278.096L5.35141 278.408L4.96741 276.74C5.35141 276.644 5.80741 276.524 6.31141 276.38V274.532H5.15941V272.936H6.31141V270.74H7.96741V272.936H8.95141V274.532H7.96741V275.888L8.87941 275.6L9.01141 276.32L9.74341 275.396L10.4274 275.768C10.4634 275.384 10.4994 274.988 10.5234 274.58H9.14341V273.008H10.5714C10.5714 272.288 10.5714 271.532 10.5474 270.74L12.2394 270.728C12.2514 271.52 12.2394 272.288 12.2274 273.008ZM27.9714 271.4V273.056H22.1274V271.4H27.9714ZM19.6554 270.74L21.3354 271.436C20.4234 272.624 19.0914 273.908 17.9034 274.724C17.6874 274.328 17.2434 273.632 16.9434 273.284C17.9394 272.66 19.0914 271.568 19.6554 270.74ZM20.0994 273.38L21.7554 274.016C21.4074 274.616 20.9754 275.24 20.5074 275.84V282.14H18.7554V277.808C18.4914 278.048 18.2394 278.288 17.9874 278.492C17.7474 278.12 17.1594 277.328 16.8114 276.968C18.0234 276.128 19.3314 274.736 20.0994 273.38ZM28.2714 274.736V276.392H26.6994V280.184C26.6994 281.072 26.5434 281.552 25.9434 281.816C25.3674 282.08 24.5634 282.104 23.5434 282.104C23.4834 281.588 23.2554 280.82 23.0274 280.316C23.6154 280.352 24.4074 280.352 24.6234 280.352C24.8394 280.352 24.9114 280.304 24.9114 280.136V276.392H21.6234V274.736H28.2714ZM32.0274 279.56H37.1874V278.48H32.0274V279.56ZM37.1874 275.732H32.0274V276.836H37.1874V275.732ZM37.1874 273.044H32.0274V274.088H37.1874V273.044ZM30.2634 271.34H39.0474V281.972H37.1874V281.264H32.0274V281.972H30.2634V271.34ZM51.6354 271.388V273.008H46.3074V271.388H51.6354ZM45.8634 276.668L44.9634 278.036C44.8074 277.7 44.5674 277.256 44.3034 276.812V282.14H42.5754V277.976C42.3234 278.732 42.0234 279.428 41.6994 279.932C41.5314 279.452 41.1234 278.672 40.8474 278.204C41.4594 277.364 41.9874 275.876 42.2634 274.616H40.9914V273.008H42.5754V270.74H44.3034V273.008H45.6114V274.616H44.3034V274.832C44.6634 275.204 45.6594 276.392 45.8634 276.668ZM46.0914 276.848L47.6514 277.208C47.3154 278.624 46.7154 280.148 46.1154 281.096C45.8034 280.844 45.1314 280.4 44.7594 280.208C45.3474 279.392 45.8274 278.072 46.0914 276.848ZM52.2954 275.876H49.7514V280.148C49.7514 280.964 49.6434 281.456 49.1394 281.744C48.6474 282.032 48.0354 282.068 47.2314 282.068C47.1834 281.552 46.9794 280.784 46.7514 280.268C47.1474 280.292 47.6274 280.292 47.7834 280.292C47.9274 280.292 47.9754 280.256 47.9754 280.112V275.876H45.7434V274.256H52.2954V275.876ZM49.9194 277.28L51.3474 276.788C51.8754 278.024 52.3674 279.584 52.4994 280.616L50.9394 281.192C50.8434 280.172 50.4114 278.552 49.9194 277.28ZM59.5074 270.704L61.3434 271.004C61.2714 271.196 61.1994 271.388 61.1154 271.568C61.8594 272.888 63.1434 274.136 64.5234 274.844C64.1394 275.168 63.5874 275.816 63.3234 276.248C63.1314 276.128 62.9394 275.996 62.7474 275.864V282.116H60.9354V275.684H62.5074C61.6554 275.012 60.8994 274.148 60.2634 273.188C59.6514 274.136 58.8594 274.988 57.8274 275.72H59.4954V277.376C59.4954 278.828 59.1714 280.856 57.4674 282.248C57.1914 281.864 56.6154 281.312 56.1714 281.024C57.5874 279.98 57.7194 278.324 57.7194 277.352V275.792C57.4074 276.008 57.0834 276.212 56.7234 276.404C56.5794 276.092 56.2794 275.624 55.9914 275.276V282.128H54.2394V276.44C54.0954 276.62 53.9394 276.788 53.7954 276.944C53.6394 276.512 53.1714 275.54 52.8834 275.108C53.9154 274.064 54.9114 272.408 55.4874 270.752L57.1314 271.268C56.8194 272.096 56.4354 272.948 55.9914 273.776V274.796C57.9714 273.728 59.0034 272.228 59.5074 270.704ZM74.5074 274.868L73.0794 274.172C73.3074 273.836 73.5714 273.392 73.8114 272.936H65.8314V271.304H74.7114L74.9874 271.208L76.3074 271.724C75.8154 272.84 75.1194 274.052 74.5074 274.868ZM70.3674 274.328L69.3594 275.636C68.8434 275.24 67.7394 274.64 66.9474 274.256L67.8954 273.092C68.6634 273.404 69.7914 273.944 70.3674 274.328ZM76.0914 278.504H71.4954C70.7394 280.232 69.1914 281.432 65.9034 282.128C65.7594 281.696 65.3514 281.048 65.0274 280.688C67.4634 280.22 68.7954 279.524 69.5274 278.504H65.3874V276.908H67.3794C66.8634 276.572 66.1194 276.164 65.5434 275.9L66.5034 274.748C67.1994 275.036 68.2194 275.516 68.7354 275.864L67.9194 276.908H70.2114C70.4514 275.888 70.4634 274.676 70.4994 273.212H72.2514C72.2034 274.592 72.1554 275.828 71.9634 276.908H76.0914V278.504ZM70.8594 280.136L71.7354 278.876C73.3434 279.416 75.1314 280.208 76.1394 280.784L75.0354 282.152C74.0874 281.54 72.4194 280.7 70.8594 280.136ZM79.7874 272.216L80.8674 270.704C84.7074 273.536 84.7194 277.544 88.5234 280.028C88.2474 280.508 87.7794 281.504 87.6834 282.044C85.3554 280.736 84.2514 278.432 83.0514 276.272C82.1034 278.84 80.6514 280.76 78.6114 281.972C78.2994 281.6 77.4714 280.868 77.0154 280.544C79.4994 279.344 80.9634 277.088 81.6474 274.016C81.1194 273.32 80.5194 272.696 79.7874 272.216ZM88.8714 283.196L91.5114 271.256H92.9034L90.2634 283.196H88.8714ZM95.9966 276.116L96.6926 275.3H94.1366V273.836H98.4566V273.236H94.9526V271.76H98.4566V270.812H100.245V271.76H103.869V273.236H100.245V273.836H103.365L103.641 273.74L104.889 274.256C104.457 275.168 103.833 276.152 103.257 276.812L101.961 276.056C102.129 275.84 102.309 275.576 102.477 275.3H97.2926C97.8926 275.516 98.5406 275.828 98.9126 276.092L98.0366 277.16C97.6046 276.812 96.7046 276.368 95.9966 276.116ZM104.589 279.368H100.005C99.2486 280.712 97.7606 281.66 94.7126 282.212C94.5806 281.768 94.1846 281.108 93.8606 280.736C95.8406 280.436 97.0286 279.98 97.7606 279.368H93.9926V277.868H96.0566C95.6126 277.628 95.0486 277.388 94.5686 277.232L95.3366 276.224C96.0326 276.404 96.9446 276.776 97.4246 277.112L96.8486 277.868H98.7206C98.9126 277.22 98.9606 276.464 99.0206 275.6H100.845C100.785 276.428 100.713 277.184 100.557 277.868H104.589V279.368ZM99.6926 280.748L100.437 279.428C102.057 279.728 103.893 280.244 104.961 280.664L104.013 282.116C103.005 281.648 101.313 281.084 99.6926 280.748ZM114.357 276.788H116.325V282.14H114.357V281.504H106.197V276.8H108.165V279.764H110.277V276.236H106.869V271.724H108.729V274.544H110.277V270.752H112.233V274.544H113.889V271.712H115.845V276.236H112.233V279.764H114.357V276.788Z" fill="white" fill-opacity="0.65"/>
<path d="M233.5 237V205H179.5" stroke="white" stroke-opacity="0.45" stroke-dasharray="2 2"/>
<path d="M235.5 298V323H179.5" stroke="white" stroke-opacity="0.45" stroke-dasharray="2 2"/>
<path d="M59.5 235V205H121.5" stroke="white" stroke-opacity="0.45" stroke-dasharray="2 2"/>
<path d="M59.5 298V323H125.5" stroke="white" stroke-opacity="0.45" stroke-dasharray="2 2"/>
<path d="M147 347L149.887 342L144.113 342L147 347ZM147.5 323C147.5 322.724 147.276 322.5 147 322.5C146.724 322.5 146.5 322.724 146.5 323L147.5 323ZM147.5 344L147.5 342L146.5 342L146.5 344L147.5 344ZM147.5 340L147.5 338L146.5 338L146.5 340L147.5 340ZM147.5 336L147.5 334L146.5 334L146.5 336L147.5 336ZM147.5 332L147.5 330L146.5 330L146.5 332L147.5 332ZM147.5 328L147.5 326L146.5 326L146.5 328L147.5 328ZM147.5 324L147.5 323L146.5 323L146.5 324L147.5 324Z" fill="#FFE500"/>
<path d="M130.006 370.205C129.309 370.205 128.696 370.089 128.167 369.856C127.643 369.624 127.224 369.305 126.909 368.899C126.595 368.494 126.412 368.029 126.362 367.505L126.355 367.43H127.285L127.292 367.505C127.328 367.865 127.47 368.184 127.716 368.462C127.962 368.74 128.285 368.956 128.687 369.111C129.092 369.266 129.548 369.344 130.054 369.344C130.55 369.344 130.99 369.262 131.373 369.098C131.756 368.929 132.057 368.701 132.275 368.414C132.494 368.122 132.604 367.792 132.604 367.423V367.416C132.604 366.956 132.433 366.571 132.091 366.261C131.749 365.946 131.198 365.702 130.437 365.529L129.425 365.304C128.431 365.08 127.714 364.755 127.271 364.326C126.829 363.893 126.608 363.337 126.608 362.658V362.651C126.608 362.127 126.752 361.662 127.039 361.257C127.326 360.847 127.723 360.523 128.229 360.286C128.739 360.049 129.322 359.931 129.979 359.931C130.621 359.931 131.188 360.045 131.681 360.272C132.177 360.5 132.572 360.806 132.863 361.188C133.16 361.567 133.326 361.993 133.362 362.467L133.369 362.549H132.439L132.426 362.474C132.38 362.155 132.25 361.87 132.036 361.619C131.822 361.364 131.537 361.161 131.182 361.011C130.831 360.86 130.421 360.787 129.951 360.792C129.495 360.792 129.088 360.869 128.728 361.024C128.368 361.175 128.08 361.389 127.866 361.667C127.657 361.94 127.552 362.262 127.552 362.631V362.638C127.552 363.071 127.716 363.431 128.044 363.718C128.372 364.005 128.91 364.233 129.657 364.401L130.669 364.634C131.699 364.866 132.437 365.197 132.884 365.625C133.33 366.053 133.554 366.612 133.554 367.3V367.307C133.554 367.89 133.406 368.398 133.109 368.831C132.813 369.264 132.398 369.601 131.865 369.843C131.332 370.084 130.712 370.205 130.006 370.205ZM137.929 370.048C137.231 370.048 136.726 369.902 136.411 369.61C136.101 369.319 135.946 368.838 135.946 368.168V363.39H134.764V362.638H135.946V360.724H136.876V362.638H138.564V363.39H136.876V367.963C136.876 368.419 136.965 368.747 137.143 368.947C137.32 369.148 137.617 369.248 138.031 369.248C138.136 369.248 138.227 369.246 138.305 369.241C138.382 369.237 138.469 369.23 138.564 369.221V369.993C138.46 370.007 138.355 370.018 138.25 370.027C138.15 370.041 138.043 370.048 137.929 370.048ZM143.281 370.123C142.593 370.123 141.998 369.968 141.497 369.658C141 369.348 140.618 368.911 140.349 368.346C140.08 367.781 139.945 367.113 139.945 366.343V366.329C139.945 365.563 140.08 364.896 140.349 364.326C140.618 363.752 140.996 363.308 141.483 362.993C141.976 362.674 142.55 362.515 143.206 362.515C143.867 362.515 144.434 362.67 144.908 362.979C145.387 363.285 145.754 363.713 146.009 364.265C146.269 364.812 146.398 365.447 146.398 366.172V366.555H140.41V365.816H145.94L145.496 366.479V366.138C145.496 365.522 145.398 365.007 145.202 364.593C145.011 364.174 144.742 363.857 144.396 363.643C144.054 363.428 143.657 363.321 143.206 363.321C142.75 363.321 142.347 363.431 141.996 363.649C141.645 363.868 141.367 364.189 141.162 364.613C140.962 365.033 140.861 365.541 140.861 366.138V366.479C140.861 367.067 140.962 367.573 141.162 367.997C141.363 368.421 141.645 368.747 142.01 368.975C142.374 369.202 142.805 369.316 143.302 369.316C143.657 369.316 143.974 369.266 144.252 369.166C144.535 369.066 144.769 368.934 144.956 368.77C145.143 368.601 145.277 368.423 145.359 368.236L145.38 368.182H146.289L146.269 368.236C146.196 368.487 146.075 368.726 145.906 368.954C145.742 369.177 145.533 369.378 145.277 369.556C145.022 369.729 144.726 369.868 144.389 369.973C144.056 370.073 143.687 370.123 143.281 370.123ZM148.34 372.44V362.638H149.242V364.107H149.324C149.47 363.779 149.664 363.497 149.905 363.26C150.147 363.018 150.427 362.834 150.746 362.706C151.07 362.578 151.421 362.515 151.799 362.515C152.423 362.515 152.968 362.674 153.433 362.993C153.902 363.308 154.267 363.75 154.526 364.319C154.786 364.889 154.916 365.552 154.916 366.309V366.322C154.916 367.083 154.786 367.749 154.526 368.318C154.267 368.888 153.902 369.332 153.433 369.651C152.968 369.966 152.423 370.123 151.799 370.123C151.43 370.123 151.081 370.059 150.753 369.932C150.429 369.799 150.145 369.617 149.898 369.385C149.652 369.152 149.461 368.877 149.324 368.558H149.242V372.44H148.34ZM151.614 369.323C152.102 369.323 152.523 369.2 152.879 368.954C153.234 368.708 153.508 368.359 153.699 367.908C153.895 367.457 153.993 366.928 153.993 366.322V366.309C153.993 365.698 153.895 365.169 153.699 364.723C153.508 364.276 153.234 363.93 152.879 363.684C152.523 363.438 152.102 363.314 151.614 363.314C151.127 363.314 150.703 363.44 150.343 363.69C149.987 363.937 149.712 364.283 149.516 364.729C149.32 365.176 149.222 365.702 149.222 366.309V366.322C149.222 366.928 149.32 367.457 149.516 367.908C149.712 368.355 149.99 368.703 150.35 368.954C150.71 369.2 151.131 369.323 151.614 369.323ZM165.231 370V367.771H160.275V366.924C160.517 366.532 160.758 366.142 161 365.755C161.242 365.363 161.494 364.962 161.759 364.552C162.023 364.142 162.308 363.711 162.613 363.26C162.919 362.804 163.251 362.319 163.611 361.804C163.971 361.284 164.37 360.724 164.808 360.122H166.141V366.938H167.617V367.771H166.141V370H165.231ZM161.253 366.938H165.238V361.018H165.17C164.778 361.56 164.423 362.059 164.104 362.515C163.785 362.966 163.493 363.387 163.229 363.779C162.964 364.171 162.718 364.54 162.49 364.887C162.267 365.233 162.053 365.57 161.848 365.898C161.647 366.222 161.449 366.548 161.253 366.876V366.938ZM109.228 385.558L110.684 386.356C110.376 386.706 110.026 387.056 109.634 387.378C110.376 388.526 110.516 389.786 110.516 391.06C110.516 392.572 110.306 393.902 109.62 394.616C109.396 394.868 109.088 395.036 108.738 395.106C108.164 395.246 107.604 395.26 106.876 395.232C106.862 394.658 106.68 394 106.344 393.496C107.058 393.538 107.562 393.538 107.842 393.496C108.066 393.482 108.164 393.412 108.276 393.272C108.528 392.95 108.64 392.194 108.654 391.032C107.982 391.69 107.184 392.32 106.484 392.74C106.218 392.292 105.728 391.648 105.322 391.284C106.414 390.836 107.702 389.884 108.36 388.988C108.304 388.82 108.234 388.652 108.15 388.484C107.618 388.834 107.058 389.142 106.512 389.394C106.246 388.988 105.7 388.372 105.322 388.036C105.924 387.798 106.526 387.476 107.086 387.098C106.778 386.818 106.414 386.566 105.98 386.314L107.296 385.278C107.744 385.53 108.122 385.796 108.444 386.062C108.626 385.894 108.808 385.726 108.962 385.558H108.57V384.732H105.728V382.926H108.57V382.03H110.586V382.926H113.456V382.03H115.486V382.926H118.272V384.732H115.486V385.376H113.456V384.732H110.586V385.558H109.228ZM115.15 386.328V387.672H116.284C115.99 387.238 115.556 386.72 115.15 386.328ZM118.216 389.548H115.304C115.864 391.382 116.872 392.88 118.58 393.608C118.146 393.972 117.572 394.742 117.306 395.26C115.962 394.532 115.052 393.398 114.408 391.942C113.89 393.174 113.008 394.364 111.538 395.358C111.188 394.938 110.53 394.378 110.04 394.042C112.056 392.67 112.826 391.032 113.106 389.548H110.586V387.672H113.26V385.642H115.15V386.286L116.494 385.376C117.04 385.824 117.67 386.482 117.936 386.986L116.942 387.672H118.216V389.548ZM129.696 384.27V383.822H126.588V384.27H129.696ZM129.696 386.034V385.572H126.588V386.034H129.696ZM131.754 382.422V387.434H124.628V382.422H131.754ZM122.094 382.044L124.026 382.828C123.032 384.172 121.548 385.586 120.19 386.454C119.98 385.992 119.504 385.152 119.196 384.718C120.274 384.074 121.506 382.94 122.094 382.044ZM122.528 385.11L124.306 385.866C123.942 386.454 123.522 387.07 123.046 387.658V395.33H121.072V389.828C120.722 390.164 120.372 390.472 120.022 390.738C119.882 390.276 119.392 389.114 119.098 388.61C120.316 387.77 121.702 386.426 122.528 385.11ZM128.52 393.328V391.774H126.098C126.602 392.264 127.176 392.866 127.47 393.3L127.162 393.524C127.596 393.538 128.114 393.538 128.268 393.538C128.464 393.524 128.52 393.482 128.52 393.328ZM132.398 390.066V391.774H130.578V393.384C130.578 394.266 130.424 394.742 129.822 395.022C129.234 395.302 128.52 395.316 127.61 395.316C127.526 394.798 127.274 394.098 127.036 393.608L125.958 394.364C125.664 393.846 124.964 393.034 124.404 392.46L125.426 391.774H123.634V390.066H128.52V389.506H124.012V387.854H132.09V389.506H130.578V390.066H132.398ZM144.228 384.186H143.122C142.996 384.774 142.814 385.306 142.576 385.782C143.01 385.824 143.374 385.824 143.584 385.824C143.752 385.824 143.878 385.796 143.99 385.684C144.102 385.53 144.172 385.124 144.228 384.186ZM137.942 390.892V392.782C138.67 392.992 139.524 393.034 140.56 393.034C141.848 393.048 145.306 393.048 146.804 392.964C146.496 393.426 146.16 394.364 146.034 394.98H140.546C138.11 394.98 136.444 394.686 135.324 393.272C135.184 394.042 135.002 394.728 134.75 395.302C134.414 395.064 133.56 394.616 133.126 394.448C133.798 393.062 133.896 390.78 133.896 388.428L135.66 388.54C135.66 389.184 135.632 389.814 135.604 390.416C135.758 390.864 135.94 391.228 136.15 391.536V387.882H133.56V386.104H135.842V385.068H133.896V383.318H135.842V382.044H137.704V383.318H139.58V385.068H137.704V386.104H139.804V386.286C140.546 385.782 140.994 385.082 141.218 384.186H139.986V382.506H146.216C146.216 382.506 146.216 382.954 146.202 383.164C146.118 385.418 145.992 386.454 145.656 386.874C145.362 387.224 145.026 387.35 144.634 387.42C144.27 387.476 143.696 387.49 143.066 387.476C143.038 386.958 142.842 386.23 142.576 385.782C142.184 386.594 141.624 387.224 140.91 387.714C140.686 387.49 140.21 387.112 139.804 386.832V387.882H137.942V389.142H139.608V390.892H137.942ZM142.184 389.492V390.752H143.864V389.492H142.184ZM140.294 392.362V387.882H145.88V392.362H140.294ZM153.524 390.836V393.846C154.658 393.426 155.33 392.894 155.75 392.166H154.28V389.842L153.244 390.836H153.524ZM150.276 393.342H151.676V392.39H150.276V393.342ZM149.59 390.836H152.81C152.376 390.57 151.802 390.248 151.186 389.926C150.682 390.276 150.15 390.57 149.59 390.836ZM149.184 385.012V385.586C149.324 385.404 149.45 385.236 149.548 385.068L151.312 385.418C151.214 385.586 151.102 385.754 150.99 385.922H152.208V385.012H149.184ZM156.408 387.448H158.116C158.046 391.83 157.78 394.168 154.112 395.414C154 395.12 153.776 394.742 153.524 394.42V395.204H151.676V394.896H150.276V395.204H148.512V391.27C148.33 391.34 148.148 391.396 147.966 391.452C147.868 390.906 147.532 389.912 147.294 389.506C147.966 389.366 148.61 389.156 149.198 388.904L148.708 388.652L150.038 387.462L150.934 387.868C151.116 387.728 151.298 387.56 151.466 387.392H149.758C149.31 387.826 148.792 388.232 148.19 388.61C147.952 388.204 147.434 387.56 147.084 387.294C147.756 386.944 148.316 386.51 148.75 386.062H147.448V383.416H149.884C149.772 383.094 149.632 382.758 149.52 382.464L151.466 382.072C151.648 382.478 151.886 382.982 152.068 383.416H154.028V386.062H153.314L154.112 386.608C153.748 387.378 153.244 388.078 152.656 388.68C153.258 388.974 153.832 389.268 154.28 389.506V385.586H156.002C156.128 385.264 156.254 384.9 156.366 384.55H154.238V382.8H160.608V384.55H158.158C158.018 384.914 157.864 385.264 157.738 385.586H160.23V392.096H158.494V387.112H155.932V391.774C156.352 390.752 156.38 389.366 156.408 387.448ZM157.402 393.342L158.424 392.082C159.18 392.614 160.3 393.398 160.832 393.916L159.754 395.33C159.264 394.784 158.172 393.93 157.402 393.342ZM171.948 386.482H170.086C170.03 386.636 169.96 386.804 169.904 386.958C170.184 387.952 170.562 388.904 171.024 389.772C171.444 388.82 171.752 387.714 171.948 386.482ZM174.664 386.482H173.964C173.614 388.484 173.082 390.206 172.298 391.634C172.984 392.446 173.81 393.118 174.776 393.594C174.328 393.972 173.698 394.742 173.404 395.274C172.522 394.756 171.766 394.098 171.108 393.328C170.408 394.154 169.568 394.84 168.56 395.4C168.322 394.98 167.636 394.126 167.23 393.734C168.35 393.202 169.232 392.502 169.932 391.62C169.484 390.836 169.106 389.968 168.784 389.03C168.63 389.254 168.476 389.45 168.308 389.646C168.098 389.296 167.622 388.652 167.216 388.204V395.344H165.2V391.886C163.156 392.586 162.666 392.866 162.316 393.146C162.204 392.628 161.868 391.718 161.574 391.284C161.854 391.116 162.092 390.822 162.092 390.248V383.514H164.094V390.234L165.2 389.926V382.24H167.216V387.462C168.196 386.118 168.756 384.116 169.036 382.016L171.136 382.352C171.01 383.108 170.87 383.85 170.674 384.564H174.664V386.482ZM178.85 390.878V393.104H179.676V390.878H178.85ZM179.97 386.398L181.174 387.252C180.278 387.868 178.934 388.61 177.73 389.184H186.69C185.654 388.68 184.114 388.036 182.994 387.616L183.932 386.398H179.97ZM185.052 393.104V390.878H184.198V393.104H185.052ZM182.35 393.104V390.878H181.524V393.104H182.35ZM186.942 389.31V393.104H188.426V394.882H175.56V393.104H177.058V389.492L176.68 389.66C176.414 389.17 175.938 388.4 175.532 387.966C176.792 387.644 178.472 386.986 179.508 386.398H175.7V384.62H178.836C178.542 384.032 178.094 383.318 177.702 382.772L179.452 382.002C180.012 382.688 180.6 383.598 180.894 384.214L180.096 384.62H183.946L183.148 384.354C183.568 383.71 184.086 382.744 184.352 382.016L186.438 382.618C185.976 383.36 185.514 384.074 185.094 384.62H188.314V386.398H184.66C185.948 386.846 187.6 387.476 188.524 387.924L187.348 389.52C187.222 389.45 187.096 389.38 186.942 389.31Z" fill="white"/>
<circle cx="234.5" cy="252.5" r="5.5" fill="white"/>
<path d="M234.341 246.039C230.659 246.039 227.674 249.024 227.674 252.706C227.674 256.388 230.659 259.373 234.341 259.373C238.023 259.373 241.008 256.388 241.008 252.706C241.008 249.024 238.023 246.039 234.341 246.039ZM237.769 255.124C238.047 255.402 238.047 255.856 237.769 256.134C237.491 256.412 237.037 256.412 236.759 256.134L234.341 253.716L231.923 256.134C231.645 256.412 231.191 256.412 230.913 256.134C230.635 255.856 230.635 255.402 230.913 255.124L233.331 252.706L230.913 250.288C230.635 250.01 230.635 249.556 230.913 249.278C231.191 248.999 231.645 248.999 231.923 249.278L234.341 251.696L236.759 249.278C237.037 248.999 237.491 248.999 237.769 249.278C238.047 249.556 238.047 250.01 237.769 250.288L235.351 252.706L237.769 255.124Z" fill="#FF2828"/>
<path d="M227.96 277.148H224.192C225.2 278.372 226.736 279.524 228.284 280.196C227.876 280.544 227.3 281.252 227.012 281.72C225.704 281.012 224.456 279.956 223.424 278.732V282.14H221.564V278.78C220.52 279.968 219.26 281 217.94 281.696C217.652 281.252 217.064 280.544 216.656 280.184C218.216 279.512 219.764 278.372 220.784 277.148H217.1V275.42H221.564V274.184H218.024V272.456H221.564V270.74H223.424V272.456H227.048V274.184H223.424V275.42H227.96V277.148ZM236.888 274.58H235.976C235.928 275.312 235.868 275.996 235.772 276.644C236.156 276.884 236.516 277.112 236.84 277.316C236.84 276.488 236.864 275.576 236.888 274.58ZM236.036 273.008H238.676C238.424 277.46 238.352 280.532 238.7 280.532C238.832 280.532 238.916 280.052 238.952 279.044C239.288 279.356 239.936 279.704 240.344 279.836C240.176 281.672 239.696 282.164 238.616 282.164C237.284 282.164 236.912 280.712 236.852 278.288L236.264 279.056C236.036 278.864 235.748 278.636 235.4 278.408C234.956 279.968 234.236 281.252 233.06 282.248C232.868 281.912 232.208 281.144 231.824 280.82C232.928 280.016 233.564 278.864 233.936 277.436C233.576 277.208 233.228 276.992 232.904 276.8L232.964 277.148C232.58 277.28 232.172 277.424 231.776 277.556V280.232C231.776 281.012 231.656 281.468 231.236 281.756C230.816 282.032 230.252 282.104 229.46 282.104C229.412 281.636 229.208 280.904 229.004 280.412C229.376 280.436 229.784 280.436 229.928 280.436C230.072 280.436 230.12 280.388 230.12 280.232V278.096L229.16 278.408L228.776 276.74C229.16 276.644 229.616 276.524 230.12 276.38V274.532H228.968V272.936H230.12V270.74H231.776V272.936H232.76V274.532H231.776V275.888L232.688 275.6L232.82 276.32L233.552 275.396L234.236 275.768C234.272 275.384 234.308 274.988 234.332 274.58H232.952V273.008H234.38C234.38 272.288 234.38 271.532 234.356 270.74L236.048 270.728C236.06 271.52 236.048 272.288 236.036 273.008ZM251.78 271.4V273.056H245.936V271.4H251.78ZM243.464 270.74L245.144 271.436C244.232 272.624 242.9 273.908 241.712 274.724C241.496 274.328 241.052 273.632 240.752 273.284C241.748 272.66 242.9 271.568 243.464 270.74ZM243.908 273.38L245.564 274.016C245.216 274.616 244.784 275.24 244.316 275.84V282.14H242.564V277.808C242.3 278.048 242.048 278.288 241.796 278.492C241.556 278.12 240.968 277.328 240.62 276.968C241.832 276.128 243.14 274.736 243.908 273.38ZM252.08 274.736V276.392H250.508V280.184C250.508 281.072 250.352 281.552 249.752 281.816C249.176 282.08 248.372 282.104 247.352 282.104C247.292 281.588 247.064 280.82 246.836 280.316C247.424 280.352 248.216 280.352 248.432 280.352C248.648 280.352 248.72 280.304 248.72 280.136V276.392H245.432V274.736H252.08Z" fill="white" fill-opacity="0.65"/>
<path d="M149 204L151.887 199L146.113 199L149 204ZM149.5 180C149.5 179.724 149.276 179.5 149 179.5C148.724 179.5 148.5 179.724 148.5 180L149.5 180ZM149.5 201L149.5 199L148.5 199L148.5 201L149.5 201ZM149.5 197L149.5 195L148.5 195L148.5 197L149.5 197ZM149.5 193L149.5 191L148.5 191L148.5 193L149.5 193ZM149.5 189L149.5 187L148.5 187L148.5 189L149.5 189ZM149.5 185L149.5 183L148.5 183L148.5 185L149.5 185ZM149.5 181L149.5 180L148.5 180L148.5 181L149.5 181Z" fill="#FFE500"/>
</svg>
