<svg width="304" height="401" viewBox="0 0 304 401" fill="none" xmlns="http://www.w3.org/2000/svg">
<path d="M138.103 17.2051C137.405 17.2051 136.792 17.0889 136.264 16.8564C135.74 16.624 135.32 16.305 135.006 15.8994C134.691 15.4938 134.509 15.029 134.459 14.5049L134.452 14.4297H135.382L135.389 14.5049C135.425 14.8649 135.566 15.1839 135.812 15.4619C136.059 15.7399 136.382 15.9564 136.783 16.1113C137.189 16.2663 137.645 16.3438 138.15 16.3438C138.647 16.3438 139.087 16.2617 139.47 16.0977C139.853 15.929 140.153 15.7012 140.372 15.4141C140.591 15.1224 140.7 14.792 140.7 14.4229V14.416C140.7 13.9557 140.529 13.5706 140.188 13.2607C139.846 12.9463 139.294 12.7025 138.533 12.5293L137.521 12.3037C136.528 12.0804 135.81 11.7546 135.368 11.3262C134.926 10.8932 134.705 10.3372 134.705 9.6582V9.65137C134.705 9.12728 134.849 8.66243 135.136 8.25684C135.423 7.84668 135.819 7.52311 136.325 7.28613C136.836 7.04915 137.419 6.93066 138.075 6.93066C138.718 6.93066 139.285 7.0446 139.777 7.27246C140.274 7.50033 140.668 7.80566 140.96 8.18848C141.256 8.56673 141.423 8.99284 141.459 9.4668L141.466 9.54883H140.536L140.522 9.47363C140.477 9.15462 140.347 8.86979 140.133 8.61914C139.919 8.36393 139.634 8.16113 139.278 8.01074C138.927 7.86035 138.517 7.78743 138.048 7.79199C137.592 7.79199 137.184 7.86947 136.824 8.02441C136.464 8.1748 136.177 8.389 135.963 8.66699C135.753 8.94043 135.648 9.26172 135.648 9.63086V9.6377C135.648 10.0706 135.812 10.4307 136.141 10.7178C136.469 11.0049 137.007 11.2327 137.754 11.4014L138.766 11.6338C139.796 11.8662 140.534 12.1966 140.98 12.625C141.427 13.0534 141.65 13.6117 141.65 14.2998V14.3066C141.65 14.89 141.502 15.3981 141.206 15.8311C140.91 16.264 140.495 16.6012 139.962 16.8428C139.429 17.0843 138.809 17.2051 138.103 17.2051ZM146.025 17.0479C145.328 17.0479 144.822 16.902 144.508 16.6104C144.198 16.3187 144.043 15.8379 144.043 15.168V10.3896H142.86V9.6377H144.043V7.72363H144.973V9.6377H146.661V10.3896H144.973V14.9629C144.973 15.4186 145.062 15.7467 145.239 15.9473C145.417 16.1478 145.713 16.248 146.128 16.248C146.233 16.248 146.324 16.2458 146.401 16.2412C146.479 16.2367 146.565 16.2298 146.661 16.2207V16.9932C146.556 17.0068 146.451 17.0182 146.347 17.0273C146.246 17.041 146.139 17.0479 146.025 17.0479ZM151.378 17.123C150.69 17.123 150.095 16.9681 149.594 16.6582C149.097 16.3483 148.714 15.9108 148.445 15.3457C148.176 14.7806 148.042 14.113 148.042 13.3428V13.3291C148.042 12.5635 148.176 11.8958 148.445 11.3262C148.714 10.752 149.092 10.3076 149.58 9.99316C150.072 9.67415 150.646 9.51465 151.303 9.51465C151.964 9.51465 152.531 9.6696 153.005 9.97949C153.483 10.2848 153.85 10.7132 154.105 11.2646C154.365 11.8115 154.495 12.4473 154.495 13.1719V13.5547H148.507V12.8164H154.037L153.593 13.4795V13.1377C153.593 12.5225 153.495 12.0075 153.299 11.5928C153.107 11.1735 152.839 10.8568 152.492 10.6426C152.15 10.4284 151.754 10.3213 151.303 10.3213C150.847 10.3213 150.444 10.4307 150.093 10.6494C149.742 10.8682 149.464 11.1895 149.259 11.6133C149.058 12.0326 148.958 12.5407 148.958 13.1377V13.4795C148.958 14.0674 149.058 14.5732 149.259 14.9971C149.459 15.4209 149.742 15.7467 150.106 15.9746C150.471 16.2025 150.902 16.3164 151.398 16.3164C151.754 16.3164 152.071 16.2663 152.349 16.166C152.631 16.0658 152.866 15.9336 153.053 15.7695C153.24 15.6009 153.374 15.4232 153.456 15.2363L153.477 15.1816H154.386L154.365 15.2363C154.292 15.487 154.172 15.7262 154.003 15.9541C153.839 16.1774 153.629 16.3779 153.374 16.5557C153.119 16.7288 152.823 16.8678 152.485 16.9727C152.153 17.0729 151.784 17.123 151.378 17.123ZM156.437 19.4404V9.6377H157.339V11.1074H157.421C157.567 10.7793 157.76 10.4967 158.002 10.2598C158.243 10.0182 158.524 9.83366 158.843 9.70605C159.166 9.57845 159.517 9.51465 159.896 9.51465C160.52 9.51465 161.064 9.67415 161.529 9.99316C161.999 10.3076 162.363 10.7497 162.623 11.3193C162.883 11.889 163.013 12.5521 163.013 13.3086V13.3223C163.013 14.0833 162.883 14.7487 162.623 15.3184C162.363 15.888 161.999 16.3324 161.529 16.6514C161.064 16.9658 160.52 17.123 159.896 17.123C159.526 17.123 159.178 17.0592 158.85 16.9316C158.526 16.7995 158.241 16.6172 157.995 16.3848C157.749 16.1523 157.558 15.8766 157.421 15.5576H157.339V19.4404H156.437ZM159.711 16.3232C160.199 16.3232 160.62 16.2002 160.976 15.9541C161.331 15.708 161.604 15.3594 161.796 14.9082C161.992 14.457 162.09 13.9284 162.09 13.3223V13.3086C162.09 12.6979 161.992 12.1693 161.796 11.7227C161.604 11.276 161.331 10.9297 160.976 10.6836C160.62 10.4375 160.199 10.3145 159.711 10.3145C159.223 10.3145 158.799 10.4398 158.439 10.6904C158.084 10.9365 157.808 11.2829 157.612 11.7295C157.416 12.1761 157.318 12.7025 157.318 13.3086V13.3223C157.318 13.9284 157.416 14.457 157.612 14.9082C157.808 15.3548 158.086 15.7035 158.446 15.9541C158.806 16.2002 159.228 16.3232 159.711 16.3232ZM171.059 17V8.1748H170.977L168.427 9.94531V8.96094L171.059 7.13574H171.988V17H171.059ZM69.7227 41V39.2295H72.4912C73.0107 39.2295 73.4072 39.1201 73.6807 38.9014C73.9587 38.6781 74.0977 38.359 74.0977 37.9443V37.9307C74.0977 37.6572 74.0339 37.4294 73.9062 37.2471C73.7832 37.0602 73.6009 36.9189 73.3594 36.8232C73.1178 36.7275 72.8239 36.6797 72.4775 36.6797H69.7227V35.1553H72.2998C72.7555 35.1553 73.111 35.0573 73.3662 34.8613C73.6214 34.6608 73.749 34.3874 73.749 34.041V34.0273C73.749 33.681 73.6305 33.4076 73.3936 33.207C73.1566 33.0065 72.8262 32.9062 72.4023 32.9062H69.7227V31.1357H73.0654C73.7262 31.1357 74.2891 31.2337 74.7539 31.4297C75.2188 31.6257 75.5742 31.9082 75.8203 32.2773C76.071 32.6419 76.1963 33.0794 76.1963 33.5898V33.6035C76.1963 33.9544 76.1143 34.2803 75.9502 34.5811C75.7907 34.8818 75.5742 35.1302 75.3008 35.3262C75.0273 35.5221 74.7152 35.6452 74.3643 35.6953V35.8252C74.7926 35.848 75.18 35.9665 75.5264 36.1807C75.8727 36.3903 76.1462 36.666 76.3467 37.0078C76.5518 37.3496 76.6543 37.7301 76.6543 38.1494V38.1631C76.6543 38.7373 76.513 39.2386 76.2305 39.667C75.9479 40.0908 75.5492 40.4189 75.0342 40.6514C74.5192 40.8838 73.9108 41 73.209 41H69.7227ZM68.4648 41V31.1357H70.9736V41H68.4648ZM80.7148 41.1777C80.1543 41.1777 79.6826 41.0661 79.2998 40.8428C78.9215 40.6195 78.6344 40.2936 78.4385 39.8652C78.2471 39.4323 78.1514 38.9128 78.1514 38.3066V33.3916H80.5781V37.7666C80.5781 38.2269 80.6715 38.5824 80.8584 38.833C81.0498 39.0791 81.3506 39.2021 81.7607 39.2021C82.0296 39.2021 82.2575 39.1406 82.4443 39.0176C82.6357 38.8945 82.7793 38.7236 82.875 38.5049C82.9753 38.2816 83.0254 38.0241 83.0254 37.7324V33.3916H85.4521V41H83.0254V39.8105H82.8955C82.7314 40.2253 82.4603 40.5579 82.082 40.8086C81.7083 41.0547 81.2526 41.1777 80.7148 41.1777ZM88.3643 43.6865C88.2275 43.6865 88.0908 43.6865 87.9541 43.6865C87.8174 43.6865 87.6807 43.6842 87.5439 43.6797V41.9023C87.6123 41.9023 87.6943 41.9023 87.79 41.9023C87.8857 41.9069 87.9814 41.9092 88.0771 41.9092C88.4417 41.9092 88.7266 41.8477 88.9316 41.7246C89.1367 41.6016 89.2575 41.4307 89.2939 41.2119L89.3213 41L86.7305 33.3916H89.4102L90.9619 39.7217L90.5107 38.9014H91.126L90.7021 39.7217L92.2539 33.3916H94.8174L92.418 40.7471C92.1855 41.4717 91.8893 42.0482 91.5293 42.4766C91.1738 42.9095 90.7363 43.2194 90.2168 43.4062C89.7018 43.5931 89.0843 43.6865 88.3643 43.6865ZM99.7461 41V31.1357H102.255V38.9834H106.445V41H99.7461ZM111.217 41.1777C110.41 41.1777 109.715 41.0205 109.132 40.7061C108.553 40.387 108.109 39.9313 107.799 39.3389C107.493 38.7419 107.341 38.0286 107.341 37.1992V37.1855C107.341 36.3652 107.498 35.6589 107.812 35.0664C108.127 34.474 108.574 34.0182 109.152 33.6992C109.731 33.3757 110.419 33.2139 111.217 33.2139C112.019 33.2139 112.709 33.3734 113.288 33.6924C113.871 34.0114 114.318 34.4671 114.628 35.0596C114.942 35.652 115.1 36.3607 115.1 37.1855V37.1992C115.1 38.0286 114.945 38.7419 114.635 39.3389C114.329 39.9313 113.887 40.387 113.309 40.7061C112.73 41.0205 112.033 41.1777 111.217 41.1777ZM111.217 39.3389C111.513 39.3389 111.764 39.2546 111.969 39.0859C112.178 38.9128 112.338 38.6667 112.447 38.3477C112.557 38.0286 112.611 37.6458 112.611 37.1992V37.1855C112.611 36.7435 112.554 36.3652 112.44 36.0508C112.331 35.7318 112.174 35.4857 111.969 35.3125C111.764 35.1393 111.513 35.0527 111.217 35.0527C110.93 35.0527 110.681 35.1393 110.472 35.3125C110.262 35.4857 110.1 35.7318 109.986 36.0508C109.877 36.3652 109.822 36.7435 109.822 37.1855V37.1992C109.822 37.6504 109.877 38.0355 109.986 38.3545C110.096 38.6735 110.255 38.9173 110.465 39.0859C110.674 39.2546 110.925 39.3389 111.217 39.3389ZM117.704 41L115.722 33.3916H118.176L119.119 38.6074H119.249L120.397 33.3916H122.708L123.87 38.6074H124L124.943 33.3916H127.343L125.374 41H122.763L121.573 35.9893H121.443L120.274 41H117.704ZM130.385 37.8828L130.364 37.6094C130.323 37.2174 130.335 36.8825 130.398 36.6045C130.462 36.3265 130.588 36.0827 130.774 35.873C130.961 35.6589 131.212 35.4606 131.526 35.2783C131.836 35.096 132.076 34.9342 132.244 34.793C132.413 34.6517 132.529 34.5081 132.593 34.3623C132.661 34.2165 132.695 34.0456 132.695 33.8496V33.8359C132.695 33.6536 132.65 33.4941 132.559 33.3574C132.467 33.2207 132.338 33.1113 132.169 33.0293C132.005 32.9473 131.816 32.9062 131.602 32.9062C131.383 32.9062 131.189 32.9518 131.021 33.043C130.856 33.1341 130.727 33.264 130.631 33.4326C130.535 33.5967 130.485 33.7881 130.48 34.0068H130.467L128.252 34.0137V34C128.261 33.4076 128.405 32.8903 128.683 32.4482C128.965 32.0016 129.366 31.6576 129.886 31.416C130.405 31.1699 131.03 31.0469 131.759 31.0469C132.451 31.0469 133.053 31.1608 133.563 31.3887C134.078 31.612 134.477 31.9287 134.76 32.3389C135.047 32.749 135.19 33.2275 135.19 33.7744V33.7881C135.19 34.2894 135.07 34.7223 134.828 35.0869C134.591 35.4515 134.22 35.7796 133.714 36.0713C133.404 36.249 133.162 36.4108 132.989 36.5566C132.816 36.7025 132.695 36.8529 132.627 37.0078C132.559 37.1628 132.524 37.3473 132.524 37.5615V37.8828H130.385ZM131.513 41.2393C131.075 41.2393 130.731 41.1299 130.48 40.9111C130.234 40.6924 130.111 40.387 130.111 39.9951C130.111 39.5986 130.234 39.291 130.48 39.0723C130.731 38.8535 131.075 38.7441 131.513 38.7441C131.955 38.7441 132.299 38.8535 132.545 39.0723C132.791 39.291 132.914 39.5986 132.914 39.9951C132.914 40.387 132.791 40.6924 132.545 40.9111C132.299 41.1299 131.955 41.2393 131.513 41.2393ZM148.295 41.2666C147.301 41.2666 146.44 41.057 145.711 40.6377C144.982 40.2139 144.419 39.6146 144.022 38.8398C143.626 38.0651 143.428 37.1423 143.428 36.0713V36.0576C143.428 34.9912 143.628 34.0706 144.029 33.2959C144.43 32.5166 144.993 31.9173 145.718 31.498C146.447 31.0788 147.306 30.8691 148.295 30.8691C149.284 30.8691 150.141 31.0788 150.865 31.498C151.594 31.9173 152.157 32.5166 152.554 33.2959C152.955 34.0706 153.155 34.9912 153.155 36.0576V36.0713C153.155 37.1423 152.955 38.0651 152.554 38.8398C152.157 39.6146 151.594 40.2139 150.865 40.6377C150.141 41.057 149.284 41.2666 148.295 41.2666ZM148.295 39.1885C148.755 39.1885 149.159 39.0609 149.505 38.8057C149.851 38.5459 150.12 38.1836 150.312 37.7188C150.503 37.2493 150.599 36.7002 150.599 36.0713V36.0576C150.599 35.4242 150.503 34.875 150.312 34.4102C150.12 33.9453 149.851 33.5853 149.505 33.3301C149.159 33.0749 148.755 32.9473 148.295 32.9473C147.835 32.9473 147.431 33.0749 147.085 33.3301C146.739 33.5853 146.467 33.9453 146.271 34.4102C146.08 34.875 145.984 35.4242 145.984 36.0576V36.0713C145.984 36.7002 146.08 37.2493 146.271 37.7188C146.463 38.1836 146.732 38.5459 147.078 38.8057C147.424 39.0609 147.83 39.1885 148.295 39.1885ZM154.796 41V33.3916H157.223V34.6016H157.353C157.466 34.1823 157.683 33.8564 158.002 33.624C158.326 33.3916 158.729 33.2754 159.212 33.2754C159.362 33.2754 159.508 33.2868 159.649 33.3096C159.791 33.3278 159.921 33.3574 160.039 33.3984V35.4492C159.88 35.4036 159.713 35.3695 159.54 35.3467C159.367 35.3239 159.196 35.3125 159.027 35.3125C158.649 35.3125 158.326 35.3786 158.057 35.5107C157.788 35.6383 157.58 35.8275 157.435 36.0781C157.293 36.3242 157.223 36.625 157.223 36.9805V41H154.796ZM168.632 41.2666C167.812 41.2666 167.101 41.1481 166.499 40.9111C165.897 40.6696 165.426 40.3301 165.084 39.8926C164.747 39.4505 164.56 38.9242 164.523 38.3135L164.517 38.1904H166.916L166.923 38.252C166.946 38.4525 167.032 38.6325 167.183 38.792C167.333 38.9469 167.536 39.07 167.791 39.1611C168.046 39.2523 168.34 39.2979 168.673 39.2979C169.001 39.2979 169.286 39.2523 169.527 39.1611C169.769 39.07 169.956 38.9424 170.088 38.7783C170.225 38.6143 170.293 38.4297 170.293 38.2246V38.2178C170.293 37.9398 170.172 37.7256 169.931 37.5752C169.689 37.4248 169.279 37.2926 168.7 37.1787L167.682 36.9805C166.643 36.7754 165.884 36.429 165.405 35.9414C164.931 35.4538 164.694 34.8249 164.694 34.0547V34.0479C164.699 33.4053 164.87 32.847 165.207 32.373C165.544 31.8945 166.007 31.5254 166.595 31.2656C167.183 31.0013 167.855 30.8691 168.611 30.8691C169.436 30.8691 170.133 30.999 170.703 31.2588C171.277 31.514 171.722 31.8672 172.036 32.3184C172.351 32.765 172.533 33.2799 172.583 33.8633L172.59 33.9453H170.266L170.252 33.8701C170.215 33.6605 170.127 33.4805 169.985 33.3301C169.849 33.1751 169.664 33.0544 169.432 32.9678C169.199 32.8812 168.93 32.8379 168.625 32.8379C168.329 32.8379 168.074 32.8812 167.859 32.9678C167.645 33.0498 167.479 33.166 167.36 33.3164C167.246 33.4622 167.189 33.6331 167.189 33.8291V33.8359C167.189 34.1185 167.308 34.3441 167.545 34.5127C167.786 34.6768 168.174 34.8089 168.707 34.9092L169.726 35.1074C170.778 35.3125 171.551 35.6406 172.043 36.0918C172.535 36.5384 172.781 37.1605 172.781 37.958V37.9648C172.781 38.6348 172.615 39.2181 172.282 39.7148C171.954 40.207 171.48 40.5898 170.86 40.8633C170.241 41.1322 169.498 41.2666 168.632 41.2666ZM177.929 41.1777C177.131 41.1777 176.445 41.0182 175.871 40.6992C175.301 40.3757 174.862 39.9176 174.552 39.3252C174.242 38.7327 174.087 38.0241 174.087 37.1992V37.1924C174.087 36.3721 174.24 35.6657 174.545 35.0732C174.855 34.4762 175.29 34.0182 175.851 33.6992C176.411 33.3757 177.074 33.2139 177.84 33.2139C178.605 33.2139 179.269 33.3711 179.829 33.6855C180.39 34 180.823 34.4443 181.128 35.0186C181.433 35.5928 181.586 36.2673 181.586 37.042V37.7393H175.29V36.3311H180.438L179.316 37.6777V36.7139C179.316 36.3265 179.257 36.0029 179.139 35.7432C179.02 35.4788 178.854 35.2783 178.64 35.1416C178.43 35.0049 178.184 34.9365 177.901 34.9365C177.619 34.9365 177.37 35.0072 177.156 35.1484C176.942 35.2852 176.773 35.4857 176.65 35.75C176.532 36.0143 176.473 36.3356 176.473 36.7139V37.6914C176.473 38.0605 176.532 38.3773 176.65 38.6416C176.769 38.9059 176.94 39.1087 177.163 39.25C177.391 39.3867 177.662 39.4551 177.977 39.4551C178.245 39.4551 178.471 39.4141 178.653 39.332C178.84 39.2454 178.986 39.1497 179.091 39.0449C179.2 38.9401 179.271 38.8558 179.303 38.792L179.323 38.7646L181.538 38.7578L181.518 38.8398C181.467 39.0632 181.365 39.3115 181.21 39.585C181.06 39.8538 180.843 40.109 180.561 40.3506C180.283 40.5921 179.927 40.7904 179.494 40.9453C179.061 41.1003 178.539 41.1777 177.929 41.1777ZM183.165 41V30.5342H185.592V41H183.165ZM187.608 41V30.5342H190.035V41H187.608ZM195.641 41V31.1357H198.149V35.0049H202.08V31.1357H204.589V41H202.08V37.0215H198.149V41H195.641ZM206.701 41V33.3916H209.128V41H206.701ZM207.918 32.3799C207.567 32.3799 207.264 32.2568 207.009 32.0107C206.758 31.7646 206.633 31.4661 206.633 31.1152C206.633 30.7643 206.758 30.4658 207.009 30.2197C207.264 29.9736 207.567 29.8506 207.918 29.8506C208.273 29.8506 208.576 29.9736 208.827 30.2197C209.078 30.4658 209.203 30.7643 209.203 31.1152C209.203 31.4661 209.078 31.7646 208.827 32.0107C208.576 32.2568 208.273 32.3799 207.918 32.3799ZM214.487 43.6729C213.74 43.6729 213.104 43.5794 212.58 43.3926C212.056 43.2057 211.648 42.9437 211.356 42.6064C211.065 42.2692 210.892 41.8818 210.837 41.4443V41.3965H213.202L213.216 41.4375C213.266 41.6198 213.4 41.7679 213.619 41.8818C213.842 41.9958 214.155 42.0527 214.556 42.0527C215.021 42.0527 215.381 41.9479 215.636 41.7383C215.891 41.5332 216.019 41.2393 216.019 40.8564V39.5029H215.889C215.761 39.7627 215.59 39.9837 215.376 40.166C215.162 40.3438 214.911 40.4782 214.624 40.5693C214.337 40.6559 214.016 40.6992 213.66 40.6992C213.036 40.6992 212.496 40.5488 212.04 40.248C211.584 39.9427 211.233 39.5189 210.987 38.9766C210.741 38.4297 210.618 37.7917 210.618 37.0625V37.0488C210.618 36.2878 210.741 35.6247 210.987 35.0596C211.233 34.4945 211.587 34.057 212.047 33.7471C212.507 33.4326 213.059 33.2754 213.701 33.2754C214.048 33.2754 214.364 33.3301 214.651 33.4395C214.938 33.5443 215.189 33.6969 215.403 33.8975C215.618 34.098 215.788 34.3418 215.916 34.6289H216.012V33.3916H218.438V40.6992C218.438 41.3099 218.277 41.8363 217.953 42.2783C217.634 42.7249 217.178 43.069 216.586 43.3105C215.998 43.5521 215.299 43.6729 214.487 43.6729ZM214.556 38.915C214.866 38.915 215.13 38.8376 215.349 38.6826C215.572 38.5277 215.741 38.3112 215.854 38.0332C215.973 37.7552 216.032 37.4316 216.032 37.0625V37.0488C216.032 36.6751 215.973 36.3493 215.854 36.0713C215.741 35.7933 215.572 35.5791 215.349 35.4287C215.13 35.2738 214.866 35.1963 214.556 35.1963C214.25 35.1963 213.988 35.2738 213.77 35.4287C213.555 35.5791 213.389 35.7933 213.271 36.0713C213.157 36.3447 213.1 36.6683 213.1 37.042V37.0557C213.1 37.4294 213.157 37.7552 213.271 38.0332C213.389 38.3112 213.555 38.5277 213.77 38.6826C213.988 38.8376 214.25 38.915 214.556 38.915ZM220.394 41V30.5342H222.82V34.5811H222.95C223.119 34.1663 223.388 33.8359 223.757 33.5898C224.131 33.3392 224.586 33.2139 225.124 33.2139C225.685 33.2139 226.154 33.3278 226.532 33.5557C226.915 33.779 227.204 34.1048 227.4 34.5332C227.596 34.957 227.694 35.4743 227.694 36.085V41H225.268V36.625C225.268 36.1647 225.17 35.8115 224.974 35.5654C224.782 35.3148 224.481 35.1895 224.071 35.1895C223.812 35.1895 223.588 35.251 223.401 35.374C223.215 35.4971 223.071 35.668 222.971 35.8867C222.87 36.1055 222.82 36.3607 222.82 36.6523V41H220.394ZM231.215 37.8828L231.194 37.6094C231.153 37.2174 231.165 36.8825 231.229 36.6045C231.292 36.3265 231.418 36.0827 231.604 35.873C231.791 35.6589 232.042 35.4606 232.356 35.2783C232.666 35.096 232.906 34.9342 233.074 34.793C233.243 34.6517 233.359 34.5081 233.423 34.3623C233.491 34.2165 233.525 34.0456 233.525 33.8496V33.8359C233.525 33.6536 233.48 33.4941 233.389 33.3574C233.298 33.2207 233.168 33.1113 232.999 33.0293C232.835 32.9473 232.646 32.9062 232.432 32.9062C232.213 32.9062 232.019 32.9518 231.851 33.043C231.687 33.1341 231.557 33.264 231.461 33.4326C231.365 33.5967 231.315 33.7881 231.311 34.0068H231.297L229.082 34.0137V34C229.091 33.4076 229.235 32.8903 229.513 32.4482C229.795 32.0016 230.196 31.6576 230.716 31.416C231.235 31.1699 231.86 31.0469 232.589 31.0469C233.282 31.0469 233.883 31.1608 234.394 31.3887C234.909 31.612 235.307 31.9287 235.59 32.3389C235.877 32.749 236.021 33.2275 236.021 33.7744V33.7881C236.021 34.2894 235.9 34.7223 235.658 35.0869C235.421 35.4515 235.05 35.7796 234.544 36.0713C234.234 36.249 233.993 36.4108 233.819 36.5566C233.646 36.7025 233.525 36.8529 233.457 37.0078C233.389 37.1628 233.354 37.3473 233.354 37.5615V37.8828H231.215ZM232.343 41.2393C231.905 41.2393 231.561 41.1299 231.311 40.9111C231.064 40.6924 230.941 40.387 230.941 39.9951C230.941 39.5986 231.064 39.291 231.311 39.0723C231.561 38.8535 231.905 38.7441 232.343 38.7441C232.785 38.7441 233.129 38.8535 233.375 39.0723C233.621 39.291 233.744 39.5986 233.744 39.9951C233.744 40.387 233.621 40.6924 233.375 40.9111C233.129 41.1299 232.785 41.2393 232.343 41.2393Z" fill="white"/>
<path d="M144 59.5C143.724 59.5 143.5 59.7239 143.5 60C143.5 60.2761 143.724 60.5 144 60.5L144 59.5ZM160 59.5L159 59.5L159 60.5L160 60.5L160 59.5ZM157 59.5L155 59.5L155 60.5L157 60.5L157 59.5ZM153 59.5L151 59.5L151 60.5L153 60.5L153 59.5ZM149 59.5L147 59.5L147 60.5L149 60.5L149 59.5ZM145 59.5L144 59.5L144 60.5L145 60.5L145 59.5Z" fill="white" fill-opacity="0.16"/>
<path d="M135.313 89.2051C134.616 89.2051 134.003 89.0889 133.475 88.8564C132.951 88.624 132.531 88.305 132.217 87.8994C131.902 87.4938 131.72 87.029 131.67 86.5049L131.663 86.4297H132.593L132.6 86.5049C132.636 86.8649 132.777 87.1839 133.023 87.4619C133.27 87.7399 133.593 87.9564 133.994 88.1113C134.4 88.2663 134.855 88.3438 135.361 88.3438C135.858 88.3438 136.298 88.2617 136.681 88.0977C137.063 87.929 137.364 87.7012 137.583 87.4141C137.802 87.1224 137.911 86.792 137.911 86.4229V86.416C137.911 85.9557 137.74 85.5706 137.398 85.2607C137.057 84.9463 136.505 84.7025 135.744 84.5293L134.732 84.3037C133.739 84.0804 133.021 83.7546 132.579 83.3262C132.137 82.8932 131.916 82.3372 131.916 81.6582V81.6514C131.916 81.1273 132.06 80.6624 132.347 80.2568C132.634 79.8467 133.03 79.5231 133.536 79.2861C134.047 79.0492 134.63 78.9307 135.286 78.9307C135.929 78.9307 136.496 79.0446 136.988 79.2725C137.485 79.5003 137.879 79.8057 138.171 80.1885C138.467 80.5667 138.633 80.9928 138.67 81.4668L138.677 81.5488H137.747L137.733 81.4736C137.688 81.1546 137.558 80.8698 137.344 80.6191C137.13 80.3639 136.845 80.1611 136.489 80.0107C136.138 79.8604 135.728 79.7874 135.259 79.792C134.803 79.792 134.395 79.8695 134.035 80.0244C133.675 80.1748 133.388 80.389 133.174 80.667C132.964 80.9404 132.859 81.2617 132.859 81.6309V81.6377C132.859 82.0706 133.023 82.4307 133.352 82.7178C133.68 83.0049 134.217 83.2327 134.965 83.4014L135.977 83.6338C137.007 83.8662 137.745 84.1966 138.191 84.625C138.638 85.0534 138.861 85.6117 138.861 86.2998V86.3066C138.861 86.89 138.713 87.3981 138.417 87.8311C138.121 88.264 137.706 88.6012 137.173 88.8428C136.64 89.0843 136.02 89.2051 135.313 89.2051ZM143.236 89.0479C142.539 89.0479 142.033 88.902 141.719 88.6104C141.409 88.3187 141.254 87.8379 141.254 87.168V82.3896H140.071V81.6377H141.254V79.7236H142.184V81.6377H143.872V82.3896H142.184V86.9629C142.184 87.4186 142.272 87.7467 142.45 87.9473C142.628 88.1478 142.924 88.248 143.339 88.248C143.444 88.248 143.535 88.2458 143.612 88.2412C143.69 88.2367 143.776 88.2298 143.872 88.2207V88.9932C143.767 89.0068 143.662 89.0182 143.558 89.0273C143.457 89.041 143.35 89.0479 143.236 89.0479ZM148.589 89.123C147.901 89.123 147.306 88.9681 146.805 88.6582C146.308 88.3483 145.925 87.9108 145.656 87.3457C145.387 86.7806 145.253 86.113 145.253 85.3428V85.3291C145.253 84.5635 145.387 83.8958 145.656 83.3262C145.925 82.752 146.303 82.3076 146.791 81.9932C147.283 81.6742 147.857 81.5146 148.514 81.5146C149.174 81.5146 149.742 81.6696 150.216 81.9795C150.694 82.2848 151.061 82.7132 151.316 83.2646C151.576 83.8115 151.706 84.4473 151.706 85.1719V85.5547H145.718V84.8164H151.248L150.804 85.4795V85.1377C150.804 84.5225 150.706 84.0075 150.51 83.5928C150.318 83.1735 150.049 82.8568 149.703 82.6426C149.361 82.4284 148.965 82.3213 148.514 82.3213C148.058 82.3213 147.655 82.4307 147.304 82.6494C146.953 82.8682 146.675 83.1895 146.47 83.6133C146.269 84.0326 146.169 84.5407 146.169 85.1377V85.4795C146.169 86.0674 146.269 86.5732 146.47 86.9971C146.67 87.4209 146.953 87.7467 147.317 87.9746C147.682 88.2025 148.113 88.3164 148.609 88.3164C148.965 88.3164 149.282 88.2663 149.56 88.166C149.842 88.0658 150.077 87.9336 150.264 87.7695C150.451 87.6009 150.585 87.4232 150.667 87.2363L150.688 87.1816H151.597L151.576 87.2363C151.503 87.487 151.382 87.7262 151.214 87.9541C151.05 88.1774 150.84 88.3779 150.585 88.5557C150.33 88.7288 150.034 88.8678 149.696 88.9727C149.364 89.0729 148.994 89.123 148.589 89.123ZM153.647 91.4404V81.6377H154.55V83.1074H154.632C154.778 82.7793 154.971 82.4967 155.213 82.2598C155.454 82.0182 155.735 81.8337 156.054 81.7061C156.377 81.5785 156.728 81.5146 157.106 81.5146C157.731 81.5146 158.275 81.6742 158.74 81.9932C159.21 82.3076 159.574 82.7497 159.834 83.3193C160.094 83.889 160.224 84.5521 160.224 85.3086V85.3223C160.224 86.0833 160.094 86.7487 159.834 87.3184C159.574 87.888 159.21 88.3324 158.74 88.6514C158.275 88.9658 157.731 89.123 157.106 89.123C156.737 89.123 156.389 89.0592 156.061 88.9316C155.737 88.7995 155.452 88.6172 155.206 88.3848C154.96 88.1523 154.769 87.8766 154.632 87.5576H154.55V91.4404H153.647ZM156.922 88.3232C157.41 88.3232 157.831 88.2002 158.187 87.9541C158.542 87.708 158.815 87.3594 159.007 86.9082C159.203 86.457 159.301 85.9284 159.301 85.3223V85.3086C159.301 84.6979 159.203 84.1693 159.007 83.7227C158.815 83.276 158.542 82.9297 158.187 82.6836C157.831 82.4375 157.41 82.3145 156.922 82.3145C156.434 82.3145 156.01 82.4398 155.65 82.6904C155.295 82.9365 155.019 83.2829 154.823 83.7295C154.627 84.1761 154.529 84.7025 154.529 85.3086V85.3223C154.529 85.9284 154.627 86.457 154.823 86.9082C155.019 87.3548 155.297 87.7035 155.657 87.9541C156.017 88.2002 156.439 88.3232 156.922 88.3232ZM165.843 89V88.3438L169.24 84.7002C169.696 84.2126 170.051 83.807 170.307 83.4834C170.562 83.1598 170.74 82.8682 170.84 82.6084C170.945 82.3486 170.997 82.0684 170.997 81.7676V81.7539C170.997 81.3757 170.908 81.0361 170.73 80.7354C170.557 80.43 170.311 80.1908 169.992 80.0176C169.678 79.8398 169.309 79.751 168.885 79.751C168.461 79.751 168.085 79.8398 167.757 80.0176C167.429 80.1953 167.171 80.4437 166.984 80.7627C166.798 81.0771 166.702 81.4417 166.697 81.8564L166.69 81.8633L165.795 81.8564H165.788C165.797 81.2868 165.936 80.7832 166.205 80.3457C166.479 79.9036 166.852 79.5573 167.326 79.3066C167.8 79.056 168.34 78.9307 168.946 78.9307C169.511 78.9307 170.02 79.0514 170.471 79.293C170.926 79.5299 171.286 79.8535 171.551 80.2637C171.815 80.6738 171.947 81.141 171.947 81.665V81.6787C171.947 82.0433 171.883 82.3965 171.756 82.7383C171.628 83.0755 171.403 83.4515 171.079 83.8662C170.76 84.2809 170.309 84.7891 169.726 85.3906L166.889 88.3369L167.142 87.8516V88.3369L166.896 88.1592H172.187V89H165.843ZM95.9229 113.267C95.1025 113.267 94.3916 113.148 93.79 112.911C93.1885 112.67 92.7168 112.33 92.375 111.893C92.0378 111.451 91.8509 110.924 91.8145 110.313L91.8076 110.19H94.207L94.2139 110.252C94.2367 110.452 94.3232 110.632 94.4736 110.792C94.624 110.947 94.8268 111.07 95.082 111.161C95.3372 111.252 95.6312 111.298 95.9639 111.298C96.292 111.298 96.5768 111.252 96.8184 111.161C97.0599 111.07 97.2467 110.942 97.3789 110.778C97.5156 110.614 97.584 110.43 97.584 110.225V110.218C97.584 109.94 97.4632 109.726 97.2217 109.575C96.9801 109.425 96.57 109.293 95.9912 109.179L94.9727 108.98C93.9336 108.775 93.1748 108.429 92.6963 107.941C92.2223 107.454 91.9854 106.825 91.9854 106.055V106.048C91.9899 105.405 92.1608 104.847 92.498 104.373C92.8353 103.895 93.2979 103.525 93.8857 103.266C94.4736 103.001 95.1458 102.869 95.9023 102.869C96.7272 102.869 97.4245 102.999 97.9941 103.259C98.5684 103.514 99.0127 103.867 99.3271 104.318C99.6416 104.765 99.8239 105.28 99.874 105.863L99.8809 105.945H97.5566L97.543 105.87C97.5065 105.66 97.4176 105.48 97.2764 105.33C97.1396 105.175 96.9551 105.054 96.7227 104.968C96.4902 104.881 96.2214 104.838 95.916 104.838C95.6198 104.838 95.3646 104.881 95.1504 104.968C94.9362 105.05 94.7699 105.166 94.6514 105.316C94.5374 105.462 94.4805 105.633 94.4805 105.829V105.836C94.4805 106.118 94.599 106.344 94.8359 106.513C95.0775 106.677 95.4648 106.809 95.998 106.909L97.0166 107.107C98.0693 107.312 98.8418 107.641 99.334 108.092C99.8262 108.538 100.072 109.16 100.072 109.958V109.965C100.072 110.635 99.9059 111.218 99.5732 111.715C99.2451 112.207 98.7712 112.59 98.1514 112.863C97.5316 113.132 96.7887 113.267 95.9229 113.267ZM105.22 113.178C104.422 113.178 103.736 113.018 103.162 112.699C102.592 112.376 102.153 111.918 101.843 111.325C101.533 110.733 101.378 110.024 101.378 109.199V109.192C101.378 108.372 101.531 107.666 101.836 107.073C102.146 106.476 102.581 106.018 103.142 105.699C103.702 105.376 104.365 105.214 105.131 105.214C105.896 105.214 106.56 105.371 107.12 105.686C107.681 106 108.114 106.444 108.419 107.019C108.724 107.593 108.877 108.267 108.877 109.042V109.739H102.581V108.331H107.729L106.607 109.678V108.714C106.607 108.326 106.548 108.003 106.43 107.743C106.311 107.479 106.145 107.278 105.931 107.142C105.721 107.005 105.475 106.937 105.192 106.937C104.91 106.937 104.661 107.007 104.447 107.148C104.233 107.285 104.064 107.486 103.941 107.75C103.823 108.014 103.764 108.336 103.764 108.714V109.691C103.764 110.061 103.823 110.377 103.941 110.642C104.06 110.906 104.231 111.109 104.454 111.25C104.682 111.387 104.953 111.455 105.268 111.455C105.536 111.455 105.762 111.414 105.944 111.332C106.131 111.245 106.277 111.15 106.382 111.045C106.491 110.94 106.562 110.856 106.594 110.792L106.614 110.765L108.829 110.758L108.809 110.84C108.758 111.063 108.656 111.312 108.501 111.585C108.351 111.854 108.134 112.109 107.852 112.351C107.574 112.592 107.218 112.79 106.785 112.945C106.352 113.1 105.83 113.178 105.22 113.178ZM113.785 113.014C112.787 113.014 112.072 112.85 111.639 112.521C111.206 112.193 110.989 111.658 110.989 110.915V107.169H109.827V105.392H110.989V103.648H113.423V105.392H114.947V107.169H113.423V110.368C113.423 110.651 113.496 110.863 113.642 111.004C113.792 111.145 114.024 111.216 114.339 111.216C114.476 111.216 114.59 111.214 114.681 111.209C114.772 111.2 114.861 111.191 114.947 111.182V112.918C114.82 112.945 114.651 112.968 114.441 112.986C114.236 113.005 114.018 113.014 113.785 113.014ZM122.932 113V109.616L119.534 103.136H122.214L124.128 107.162H124.258L126.165 103.136H128.845L125.44 109.616V113H122.932ZM132.365 113.178C131.559 113.178 130.864 113.021 130.28 112.706C129.701 112.387 129.257 111.931 128.947 111.339C128.642 110.742 128.489 110.029 128.489 109.199V109.186C128.489 108.365 128.646 107.659 128.961 107.066C129.275 106.474 129.722 106.018 130.301 105.699C130.88 105.376 131.568 105.214 132.365 105.214C133.167 105.214 133.858 105.373 134.437 105.692C135.02 106.011 135.466 106.467 135.776 107.06C136.091 107.652 136.248 108.361 136.248 109.186V109.199C136.248 110.029 136.093 110.742 135.783 111.339C135.478 111.931 135.036 112.387 134.457 112.706C133.878 113.021 133.181 113.178 132.365 113.178ZM132.365 111.339C132.661 111.339 132.912 111.255 133.117 111.086C133.327 110.913 133.486 110.667 133.596 110.348C133.705 110.029 133.76 109.646 133.76 109.199V109.186C133.76 108.743 133.703 108.365 133.589 108.051C133.479 107.732 133.322 107.486 133.117 107.312C132.912 107.139 132.661 107.053 132.365 107.053C132.078 107.053 131.83 107.139 131.62 107.312C131.41 107.486 131.249 107.732 131.135 108.051C131.025 108.365 130.971 108.743 130.971 109.186V109.199C130.971 109.65 131.025 110.035 131.135 110.354C131.244 110.674 131.404 110.917 131.613 111.086C131.823 111.255 132.074 111.339 132.365 111.339ZM140.24 113.178C139.68 113.178 139.208 113.066 138.825 112.843C138.447 112.619 138.16 112.294 137.964 111.865C137.772 111.432 137.677 110.913 137.677 110.307V105.392H140.104V109.767C140.104 110.227 140.197 110.582 140.384 110.833C140.575 111.079 140.876 111.202 141.286 111.202C141.555 111.202 141.783 111.141 141.97 111.018C142.161 110.895 142.305 110.724 142.4 110.505C142.501 110.282 142.551 110.024 142.551 109.732V105.392H144.978V113H142.551V111.811H142.421C142.257 112.225 141.986 112.558 141.607 112.809C141.234 113.055 140.778 113.178 140.24 113.178ZM146.851 113V105.392H149.277V106.602H149.407C149.521 106.182 149.738 105.856 150.057 105.624C150.38 105.392 150.784 105.275 151.267 105.275C151.417 105.275 151.563 105.287 151.704 105.31C151.845 105.328 151.975 105.357 152.094 105.398V107.449C151.934 107.404 151.768 107.369 151.595 107.347C151.422 107.324 151.251 107.312 151.082 107.312C150.704 107.312 150.38 107.379 150.111 107.511C149.842 107.638 149.635 107.827 149.489 108.078C149.348 108.324 149.277 108.625 149.277 108.98V113H146.851ZM159.306 113V105.152H156.462V103.136H164.658V105.152H161.814V113H159.306ZM167.064 113.116C166.581 113.116 166.155 113.021 165.786 112.829C165.417 112.638 165.128 112.371 164.918 112.029C164.713 111.683 164.61 111.28 164.61 110.819V110.806C164.61 110.118 164.872 109.577 165.396 109.186C165.921 108.789 166.673 108.561 167.652 108.502L170.503 108.331V109.691L168.035 109.849C167.68 109.871 167.409 109.951 167.222 110.088C167.035 110.225 166.941 110.407 166.941 110.635V110.648C166.941 110.885 167.035 111.075 167.222 111.216C167.409 111.357 167.655 111.428 167.96 111.428C168.215 111.428 168.443 111.378 168.644 111.277C168.849 111.173 169.01 111.034 169.129 110.86C169.252 110.683 169.313 110.484 169.313 110.266V107.812C169.313 107.552 169.22 107.351 169.033 107.21C168.851 107.064 168.593 106.991 168.261 106.991C167.942 106.991 167.684 107.044 167.488 107.148C167.297 107.253 167.165 107.399 167.092 107.586L167.078 107.62H164.884L164.891 107.538C164.936 107.069 165.105 106.661 165.396 106.314C165.693 105.968 166.096 105.699 166.606 105.508C167.117 105.312 167.714 105.214 168.397 105.214C169.104 105.214 169.701 105.316 170.188 105.521C170.681 105.727 171.054 106.023 171.31 106.41C171.565 106.798 171.692 107.265 171.692 107.812V113H169.313V112.057H169.184C169.07 112.271 168.908 112.458 168.698 112.617C168.493 112.777 168.249 112.9 167.967 112.986C167.689 113.073 167.388 113.116 167.064 113.116ZM173.538 113V105.392H175.965V106.602H176.095C176.209 106.182 176.425 105.856 176.744 105.624C177.068 105.392 177.471 105.275 177.954 105.275C178.104 105.275 178.25 105.287 178.392 105.31C178.533 105.328 178.663 105.357 178.781 105.398V107.449C178.622 107.404 178.455 107.369 178.282 107.347C178.109 107.324 177.938 107.312 177.77 107.312C177.391 107.312 177.068 107.379 176.799 107.511C176.53 107.638 176.323 107.827 176.177 108.078C176.035 108.324 175.965 108.625 175.965 108.98V113H173.538ZM183.354 115.673C182.607 115.673 181.971 115.579 181.447 115.393C180.923 115.206 180.515 114.944 180.224 114.606C179.932 114.269 179.759 113.882 179.704 113.444V113.396H182.069L182.083 113.438C182.133 113.62 182.268 113.768 182.486 113.882C182.71 113.996 183.022 114.053 183.423 114.053C183.888 114.053 184.248 113.948 184.503 113.738C184.758 113.533 184.886 113.239 184.886 112.856V111.503H184.756C184.628 111.763 184.457 111.984 184.243 112.166C184.029 112.344 183.778 112.478 183.491 112.569C183.204 112.656 182.883 112.699 182.527 112.699C181.903 112.699 181.363 112.549 180.907 112.248C180.451 111.943 180.101 111.519 179.854 110.977C179.608 110.43 179.485 109.792 179.485 109.062V109.049C179.485 108.288 179.608 107.625 179.854 107.06C180.101 106.494 180.454 106.057 180.914 105.747C181.374 105.433 181.926 105.275 182.568 105.275C182.915 105.275 183.231 105.33 183.519 105.439C183.806 105.544 184.056 105.697 184.271 105.897C184.485 106.098 184.656 106.342 184.783 106.629H184.879V105.392H187.306V112.699C187.306 113.31 187.144 113.836 186.82 114.278C186.501 114.725 186.046 115.069 185.453 115.311C184.865 115.552 184.166 115.673 183.354 115.673ZM183.423 110.915C183.733 110.915 183.997 110.838 184.216 110.683C184.439 110.528 184.608 110.311 184.722 110.033C184.84 109.755 184.899 109.432 184.899 109.062V109.049C184.899 108.675 184.84 108.349 184.722 108.071C184.608 107.793 184.439 107.579 184.216 107.429C183.997 107.274 183.733 107.196 183.423 107.196C183.118 107.196 182.855 107.274 182.637 107.429C182.423 107.579 182.256 107.793 182.138 108.071C182.024 108.345 181.967 108.668 181.967 109.042V109.056C181.967 109.429 182.024 109.755 182.138 110.033C182.256 110.311 182.423 110.528 182.637 110.683C182.855 110.838 183.118 110.915 183.423 110.915ZM192.665 113.178C191.868 113.178 191.182 113.018 190.607 112.699C190.038 112.376 189.598 111.918 189.288 111.325C188.978 110.733 188.823 110.024 188.823 109.199V109.192C188.823 108.372 188.976 107.666 189.281 107.073C189.591 106.476 190.026 106.018 190.587 105.699C191.147 105.376 191.811 105.214 192.576 105.214C193.342 105.214 194.005 105.371 194.565 105.686C195.126 106 195.559 106.444 195.864 107.019C196.17 107.593 196.322 108.267 196.322 109.042V109.739H190.026V108.331H195.174L194.053 109.678V108.714C194.053 108.326 193.993 108.003 193.875 107.743C193.757 107.479 193.59 107.278 193.376 107.142C193.166 107.005 192.92 106.937 192.638 106.937C192.355 106.937 192.107 107.007 191.893 107.148C191.678 107.285 191.51 107.486 191.387 107.75C191.268 108.014 191.209 108.336 191.209 108.714V109.691C191.209 110.061 191.268 110.377 191.387 110.642C191.505 110.906 191.676 111.109 191.899 111.25C192.127 111.387 192.398 111.455 192.713 111.455C192.982 111.455 193.207 111.414 193.39 111.332C193.576 111.245 193.722 111.15 193.827 111.045C193.937 110.94 194.007 110.856 194.039 110.792L194.06 110.765L196.274 110.758L196.254 110.84C196.204 111.063 196.101 111.312 195.946 111.585C195.796 111.854 195.579 112.109 195.297 112.351C195.019 112.592 194.663 112.79 194.23 112.945C193.798 113.1 193.276 113.178 192.665 113.178ZM201.23 113.014C200.232 113.014 199.517 112.85 199.084 112.521C198.651 112.193 198.435 111.658 198.435 110.915V107.169H197.272V105.392H198.435V103.648H200.868V105.392H202.393V107.169H200.868V110.368C200.868 110.651 200.941 110.863 201.087 111.004C201.237 111.145 201.47 111.216 201.784 111.216C201.921 111.216 202.035 111.214 202.126 111.209C202.217 111.2 202.306 111.191 202.393 111.182V112.918C202.265 112.945 202.096 112.968 201.887 112.986C201.682 113.005 201.463 113.014 201.23 113.014ZM208.088 113.203C207.176 113.203 206.393 113.021 205.736 112.656C205.085 112.286 204.583 111.763 204.229 111.086C203.874 110.409 203.697 109.599 203.697 108.656V108.648C203.697 107.711 203.872 106.904 204.221 106.227C204.575 105.544 205.072 105.021 205.713 104.656C206.354 104.286 207.111 104.102 207.986 104.102C208.861 104.102 209.619 104.281 210.26 104.641C210.9 105 211.395 105.508 211.744 106.164C212.093 106.82 212.268 107.591 212.268 108.477V109.273H205.072V107.664H210.955L209.674 109.203V108.102C209.674 107.659 209.606 107.289 209.471 106.992C209.335 106.69 209.145 106.461 208.9 106.305C208.661 106.148 208.38 106.07 208.057 106.07C207.734 106.07 207.45 106.151 207.205 106.312C206.96 106.469 206.768 106.698 206.627 107C206.492 107.302 206.424 107.669 206.424 108.102V109.219C206.424 109.641 206.492 110.003 206.627 110.305C206.762 110.607 206.958 110.839 207.213 111C207.473 111.156 207.783 111.234 208.143 111.234C208.45 111.234 208.708 111.188 208.916 111.094C209.13 110.995 209.296 110.885 209.416 110.766C209.541 110.646 209.622 110.549 209.658 110.477L209.682 110.445L212.213 110.438L212.189 110.531C212.132 110.786 212.015 111.07 211.838 111.383C211.666 111.69 211.419 111.982 211.096 112.258C210.778 112.534 210.372 112.76 209.877 112.938C209.382 113.115 208.786 113.203 208.088 113.203Z" fill="white"/>
<path d="M144 131.5C143.724 131.5 143.5 131.724 143.5 132C143.5 132.276 143.724 132.5 144 132.5L144 131.5ZM160 131.5L159 131.5L159 132.5L160 132.5L160 131.5ZM157 131.5L155 131.5L155 132.5L157 132.5L157 131.5ZM153 131.5L151 131.5L151 132.5L153 132.5L153 131.5ZM149 131.5L147 131.5L147 132.5L149 132.5L149 131.5ZM145 131.5L144 131.5L144 132.5L145 132.5L145 131.5Z" fill="white" fill-opacity="0.16"/>
<path d="M135.184 161.205C134.486 161.205 133.873 161.089 133.345 160.856C132.821 160.624 132.401 160.305 132.087 159.899C131.772 159.494 131.59 159.029 131.54 158.505L131.533 158.43H132.463L132.47 158.505C132.506 158.865 132.647 159.184 132.894 159.462C133.14 159.74 133.463 159.956 133.864 160.111C134.27 160.266 134.726 160.344 135.231 160.344C135.728 160.344 136.168 160.262 136.551 160.098C136.934 159.929 137.234 159.701 137.453 159.414C137.672 159.122 137.781 158.792 137.781 158.423V158.416C137.781 157.956 137.61 157.571 137.269 157.261C136.927 156.946 136.375 156.702 135.614 156.529L134.603 156.304C133.609 156.08 132.891 155.755 132.449 155.326C132.007 154.893 131.786 154.337 131.786 153.658V153.651C131.786 153.127 131.93 152.662 132.217 152.257C132.504 151.847 132.9 151.523 133.406 151.286C133.917 151.049 134.5 150.931 135.156 150.931C135.799 150.931 136.366 151.045 136.858 151.272C137.355 151.5 137.749 151.806 138.041 152.188C138.337 152.567 138.504 152.993 138.54 153.467L138.547 153.549H137.617L137.604 153.474C137.558 153.155 137.428 152.87 137.214 152.619C137 152.364 136.715 152.161 136.359 152.011C136.008 151.86 135.598 151.787 135.129 151.792C134.673 151.792 134.265 151.869 133.905 152.024C133.545 152.175 133.258 152.389 133.044 152.667C132.834 152.94 132.729 153.262 132.729 153.631V153.638C132.729 154.071 132.894 154.431 133.222 154.718C133.55 155.005 134.088 155.233 134.835 155.401L135.847 155.634C136.877 155.866 137.615 156.197 138.062 156.625C138.508 157.053 138.731 157.612 138.731 158.3V158.307C138.731 158.89 138.583 159.398 138.287 159.831C137.991 160.264 137.576 160.601 137.043 160.843C136.51 161.084 135.89 161.205 135.184 161.205ZM143.106 161.048C142.409 161.048 141.903 160.902 141.589 160.61C141.279 160.319 141.124 159.838 141.124 159.168V154.39H139.941V153.638H141.124V151.724H142.054V153.638H143.742V154.39H142.054V158.963C142.054 159.419 142.143 159.747 142.32 159.947C142.498 160.148 142.794 160.248 143.209 160.248C143.314 160.248 143.405 160.246 143.482 160.241C143.56 160.237 143.646 160.23 143.742 160.221V160.993C143.637 161.007 143.533 161.018 143.428 161.027C143.327 161.041 143.22 161.048 143.106 161.048ZM148.459 161.123C147.771 161.123 147.176 160.968 146.675 160.658C146.178 160.348 145.795 159.911 145.526 159.346C145.257 158.781 145.123 158.113 145.123 157.343V157.329C145.123 156.563 145.257 155.896 145.526 155.326C145.795 154.752 146.174 154.308 146.661 153.993C147.153 153.674 147.728 153.515 148.384 153.515C149.045 153.515 149.612 153.67 150.086 153.979C150.564 154.285 150.931 154.713 151.187 155.265C151.446 155.812 151.576 156.447 151.576 157.172V157.555H145.588V156.816H151.118L150.674 157.479V157.138C150.674 156.522 150.576 156.007 150.38 155.593C150.188 155.174 149.92 154.857 149.573 154.643C149.231 154.428 148.835 154.321 148.384 154.321C147.928 154.321 147.525 154.431 147.174 154.649C146.823 154.868 146.545 155.189 146.34 155.613C146.139 156.033 146.039 156.541 146.039 157.138V157.479C146.039 158.067 146.139 158.573 146.34 158.997C146.54 159.421 146.823 159.747 147.188 159.975C147.552 160.202 147.983 160.316 148.479 160.316C148.835 160.316 149.152 160.266 149.43 160.166C149.712 160.066 149.947 159.934 150.134 159.77C150.321 159.601 150.455 159.423 150.537 159.236L150.558 159.182H151.467L151.446 159.236C151.373 159.487 151.253 159.726 151.084 159.954C150.92 160.177 150.71 160.378 150.455 160.556C150.2 160.729 149.904 160.868 149.566 160.973C149.234 161.073 148.865 161.123 148.459 161.123ZM153.518 163.44V153.638H154.42V155.107H154.502C154.648 154.779 154.841 154.497 155.083 154.26C155.325 154.018 155.605 153.834 155.924 153.706C156.247 153.578 156.598 153.515 156.977 153.515C157.601 153.515 158.146 153.674 158.61 153.993C159.08 154.308 159.444 154.75 159.704 155.319C159.964 155.889 160.094 156.552 160.094 157.309V157.322C160.094 158.083 159.964 158.749 159.704 159.318C159.444 159.888 159.08 160.332 158.61 160.651C158.146 160.966 157.601 161.123 156.977 161.123C156.607 161.123 156.259 161.059 155.931 160.932C155.607 160.799 155.322 160.617 155.076 160.385C154.83 160.152 154.639 159.877 154.502 159.558H154.42V163.44H153.518ZM156.792 160.323C157.28 160.323 157.701 160.2 158.057 159.954C158.412 159.708 158.686 159.359 158.877 158.908C159.073 158.457 159.171 157.928 159.171 157.322V157.309C159.171 156.698 159.073 156.169 158.877 155.723C158.686 155.276 158.412 154.93 158.057 154.684C157.701 154.438 157.28 154.314 156.792 154.314C156.304 154.314 155.881 154.44 155.521 154.69C155.165 154.937 154.889 155.283 154.693 155.729C154.497 156.176 154.399 156.702 154.399 157.309V157.322C154.399 157.928 154.497 158.457 154.693 158.908C154.889 159.355 155.167 159.703 155.527 159.954C155.887 160.2 156.309 160.323 156.792 160.323ZM168.987 161.157C168.322 161.157 167.743 161.043 167.251 160.815C166.763 160.583 166.376 160.269 166.089 159.872C165.802 159.476 165.631 159.024 165.576 158.519L165.569 158.45H166.465L166.472 158.505C166.54 159.038 166.795 159.478 167.237 159.824C167.684 160.171 168.267 160.344 168.987 160.344C169.461 160.344 169.881 160.257 170.245 160.084C170.61 159.911 170.895 159.674 171.1 159.373C171.309 159.068 171.414 158.721 171.414 158.334V158.32C171.414 157.673 171.186 157.174 170.73 156.823C170.279 156.468 169.66 156.29 168.871 156.29H167.688V155.497H168.83C169.272 155.497 169.66 155.417 169.992 155.258C170.329 155.094 170.591 154.87 170.778 154.588C170.97 154.305 171.065 153.982 171.065 153.617V153.604C171.065 153.234 170.979 152.915 170.806 152.646C170.632 152.378 170.386 152.168 170.067 152.018C169.753 151.867 169.379 151.792 168.946 151.792C168.522 151.792 168.146 151.867 167.818 152.018C167.49 152.168 167.228 152.375 167.032 152.64C166.836 152.904 166.72 153.212 166.684 153.562L166.677 153.631H165.781L165.788 153.562C165.838 153.052 166 152.605 166.273 152.223C166.547 151.835 166.911 151.532 167.367 151.313C167.823 151.09 168.349 150.979 168.946 150.979C169.552 150.979 170.083 151.088 170.539 151.307C170.999 151.521 171.357 151.817 171.612 152.195C171.872 152.574 172.002 153.009 172.002 153.501V153.515C172.002 153.92 171.913 154.283 171.735 154.602C171.562 154.916 171.316 155.18 170.997 155.395C170.683 155.604 170.316 155.752 169.896 155.839V155.866C170.635 155.921 171.229 156.165 171.681 156.598C172.132 157.031 172.357 157.598 172.357 158.3V158.313C172.357 158.856 172.212 159.343 171.92 159.776C171.628 160.205 171.227 160.542 170.717 160.788C170.211 161.034 169.634 161.157 168.987 161.157Z" fill="white"/>
<circle cx="60" cy="251" r="5" fill="white"/>
<path d="M60 244.333C63.682 244.333 66.6667 247.318 66.6667 251C66.6667 254.682 63.682 257.667 60 257.667C56.318 257.667 53.3334 254.682 53.3334 251C53.3334 247.318 56.318 244.333 60 244.333ZM62.328 248.395L58.9214 251.807L57.6047 250.491L56.662 251.434L58.922 253.694L63.272 249.338L62.328 248.395Z" fill="#62D62B"/>
<path d="M9.98597 273.182V271.273H17.5712V273.182H14.9462V280H12.611V273.182H9.98597ZM19.4302 280.102C19.0126 280.102 18.6433 280.034 18.3223 279.898C18.0041 279.759 17.7541 279.548 17.5723 279.267C17.3904 278.986 17.2995 278.628 17.2995 278.193C17.2995 277.835 17.3606 277.53 17.4828 277.277C17.6049 277.021 17.7754 276.812 17.9941 276.651C18.2129 276.489 18.4672 276.365 18.7569 276.28C19.0495 276.195 19.3649 276.139 19.7029 276.114C20.0694 276.085 20.3635 276.051 20.585 276.011C20.8095 275.969 20.9714 275.911 21.0708 275.837C21.1703 275.76 21.22 275.659 21.22 275.534V275.517C21.22 275.347 21.1547 275.216 21.024 275.125C20.8933 275.034 20.7257 274.989 20.5211 274.989C20.2967 274.989 20.1135 275.038 19.9714 275.138C19.8322 275.234 19.7484 275.384 19.72 275.585H17.5552C17.5836 275.187 17.71 274.821 17.9345 274.486C18.1618 274.148 18.4927 273.878 18.9274 273.676C19.362 273.472 19.9047 273.369 20.5552 273.369C21.024 273.369 21.4444 273.425 21.8166 273.536C22.1887 273.643 22.5055 273.795 22.7669 273.991C23.0282 274.185 23.2271 274.412 23.3635 274.673C23.5027 274.932 23.5723 275.213 23.5723 275.517V280H21.3734V279.08H21.3223C21.1916 279.324 21.0325 279.521 20.845 279.672C20.6603 279.822 20.4487 279.932 20.21 280C19.9743 280.068 19.7143 280.102 19.4302 280.102ZM20.1973 278.619C20.3762 278.619 20.5439 278.582 20.7001 278.509C20.8592 278.435 20.9885 278.328 21.0879 278.189C21.1873 278.05 21.237 277.881 21.237 277.682V277.136C21.1745 277.162 21.1078 277.186 21.0368 277.209C20.9686 277.232 20.8947 277.253 20.8152 277.273C20.7385 277.293 20.6561 277.311 20.568 277.328C20.4828 277.345 20.3933 277.361 20.2995 277.375C20.1177 277.403 19.9686 277.45 19.8521 277.516C19.7385 277.578 19.6532 277.656 19.5964 277.75C19.5424 277.841 19.5154 277.943 19.5154 278.057C19.5154 278.239 19.5794 278.378 19.7072 278.474C19.835 278.571 19.9984 278.619 20.1973 278.619ZM24.6962 280V273.455H26.9803V274.699H27.0485C27.1678 274.239 27.3567 273.902 27.6152 273.689C27.8766 273.476 28.182 273.369 28.5314 273.369C28.6337 273.369 28.7346 273.378 28.834 273.395C28.9363 273.409 29.0343 273.43 29.128 273.459V275.466C29.0115 275.426 28.8681 275.396 28.6976 275.376C28.5272 275.357 28.3809 275.347 28.2587 275.347C28.0286 275.347 27.8212 275.399 27.6365 275.504C27.4547 275.607 27.3113 275.751 27.2061 275.939C27.101 276.124 27.0485 276.341 27.0485 276.591V280H24.6962ZM32.6777 282.591C32.0215 282.591 31.459 282.497 30.9902 282.31C30.5243 282.125 30.1621 281.869 29.9036 281.543C29.6479 281.219 29.5044 280.847 29.4732 280.426H31.7402C31.763 280.565 31.8198 280.678 31.9107 280.763C32.0016 280.848 32.1181 280.909 32.2601 280.946C32.405 280.986 32.5669 281.006 32.7459 281.006C33.0499 281.006 33.3013 280.932 33.5002 280.784C33.7019 280.636 33.8027 280.369 33.8027 279.983V278.875H33.7346C33.6493 279.097 33.5186 279.286 33.3425 279.442C33.1664 279.595 32.9547 279.713 32.7076 279.795C32.4604 279.875 32.1891 279.915 31.8936 279.915C31.4277 279.915 30.9988 279.807 30.6067 279.591C30.2175 279.375 29.905 279.033 29.6692 278.564C29.4363 278.095 29.3198 277.483 29.3198 276.727C29.3198 275.937 29.4419 275.295 29.6863 274.801C29.9334 274.307 30.2516 273.945 30.6408 273.714C31.0328 273.484 31.4448 273.369 31.8766 273.369C32.2005 273.369 32.4846 273.426 32.7289 273.54C32.9732 273.651 33.1777 273.8 33.3425 273.987C33.5073 274.172 33.6323 274.375 33.7175 274.597H33.7686V273.455H36.1209V279.983C36.1209 280.537 35.9775 281.007 35.6905 281.393C35.4064 281.783 35.0059 282.08 34.4888 282.284C33.9718 282.489 33.3681 282.591 32.6777 282.591ZM32.763 278.244C32.9789 278.244 33.1635 278.185 33.3169 278.065C33.4732 277.943 33.5925 277.77 33.6749 277.545C33.7601 277.318 33.8027 277.045 33.8027 276.727C33.8027 276.403 33.7601 276.126 33.6749 275.896C33.5925 275.663 33.4732 275.486 33.3169 275.364C33.1635 275.239 32.9789 275.176 32.763 275.176C32.5471 275.176 32.3624 275.239 32.209 275.364C32.0584 275.486 31.9419 275.663 31.8596 275.896C31.78 276.126 31.7402 276.403 31.7402 276.727C31.7402 277.051 31.78 277.327 31.8596 277.554C31.9419 277.778 32.0584 277.95 32.209 278.07C32.3624 278.186 32.5471 278.244 32.763 278.244ZM40.4537 280.119C39.7548 280.119 39.1525 279.986 38.6468 279.719C38.144 279.449 37.7562 279.062 37.4835 278.56C37.2136 278.054 37.0787 277.449 37.0787 276.744C37.0787 276.068 37.215 275.477 37.4877 274.972C37.7605 274.466 38.1454 274.072 38.6426 273.791C39.1397 273.51 39.7264 273.369 40.4025 273.369C40.8968 273.369 41.3443 273.446 41.7449 273.599C42.1454 273.753 42.4877 273.976 42.7718 274.268C43.0559 274.558 43.2747 274.911 43.4281 275.325C43.5815 275.74 43.6582 276.207 43.6582 276.727V277.273H37.8116V275.977H41.4934C41.4906 275.79 41.4423 275.625 41.3485 275.483C41.2576 275.338 41.1341 275.226 40.9778 275.146C40.8244 275.064 40.6497 275.023 40.4537 275.023C40.2633 275.023 40.0886 275.064 39.9295 275.146C39.7704 275.226 39.6426 275.337 39.546 275.479C39.4522 275.621 39.4025 275.787 39.3968 275.977V277.375C39.3968 277.585 39.4409 277.773 39.5289 277.938C39.617 278.102 39.7434 278.232 39.9082 278.325C40.073 278.419 40.2718 278.466 40.5048 278.466C40.6667 278.466 40.8145 278.443 40.948 278.398C41.0843 278.352 41.2008 278.287 41.2974 278.202C41.394 278.114 41.465 278.009 41.5105 277.886H43.6582C43.5843 278.341 43.4096 278.736 43.1341 279.071C42.8585 279.403 42.4934 279.662 42.0389 279.847C41.5872 280.028 41.0588 280.119 40.4537 280.119ZM48.5215 273.455V275.159H44.209V273.455H48.5215ZM45.0442 271.886H47.3965V277.895C47.3965 277.986 47.4121 278.062 47.4434 278.125C47.4746 278.185 47.5229 278.23 47.5882 278.261C47.6536 278.29 47.7374 278.304 47.8397 278.304C47.9107 278.304 47.9931 278.295 48.0868 278.278C48.1834 278.261 48.2544 278.247 48.2999 278.236L48.6408 279.889C48.5357 279.92 48.3851 279.959 48.1891 280.004C47.9959 280.05 47.7658 280.08 47.4988 280.094C46.959 280.122 46.5059 280.067 46.1394 279.928C45.7729 279.786 45.4973 279.562 45.3127 279.259C45.128 278.955 45.0385 278.574 45.0442 278.116V271.886ZM51.5993 273.182V271.273H59.1845V273.182H56.5595V280H54.2243V273.182H51.5993ZM59.4306 280V273.455H61.7147V274.699H61.7828C61.9022 274.239 62.0911 273.902 62.3496 273.689C62.611 273.476 62.9164 273.369 63.2658 273.369C63.3681 273.369 63.4689 273.378 63.5684 273.395C63.6706 273.409 63.7686 273.43 63.8624 273.459V275.466C63.7459 275.426 63.6025 275.396 63.432 275.376C63.2615 275.357 63.1152 275.347 62.9931 275.347C62.763 275.347 62.5556 275.399 62.3709 275.504C62.1891 275.607 62.0456 275.751 61.9405 275.939C61.8354 276.124 61.7828 276.341 61.7828 276.591V280H59.4306ZM64.6337 280V273.455H66.986V280H64.6337ZM65.8098 272.773C65.4917 272.773 65.2189 272.668 64.9917 272.457C64.7644 272.247 64.6507 271.994 64.6507 271.699C64.6507 271.403 64.7644 271.151 64.9917 270.94C65.2189 270.73 65.4917 270.625 65.8098 270.625C66.1309 270.625 66.4036 270.73 66.628 270.94C66.8553 271.151 66.9689 271.403 66.9689 271.699C66.9689 271.994 66.8553 272.247 66.628 272.457C66.4036 272.668 66.1309 272.773 65.8098 272.773ZM71.3379 282.591C70.6816 282.591 70.1191 282.497 69.6504 282.31C69.1845 282.125 68.8223 281.869 68.5637 281.543C68.3081 281.219 68.1646 280.847 68.1333 280.426H70.4004C70.4231 280.565 70.4799 280.678 70.5708 280.763C70.6618 280.848 70.7782 280.909 70.9203 280.946C71.0652 280.986 71.2271 281.006 71.4061 281.006C71.71 281.006 71.9615 280.932 72.1603 280.784C72.362 280.636 72.4629 280.369 72.4629 279.983V278.875H72.3947C72.3095 279.097 72.1788 279.286 72.0027 279.442C71.8265 279.595 71.6149 279.713 71.3677 279.795C71.1206 279.875 70.8493 279.915 70.5538 279.915C70.0879 279.915 69.6589 279.807 69.2669 279.591C68.8777 279.375 68.5652 279.033 68.3294 278.564C68.0964 278.095 67.9799 277.483 67.9799 276.727C67.9799 275.937 68.1021 275.295 68.3464 274.801C68.5936 274.307 68.9118 273.945 69.301 273.714C69.693 273.484 70.1049 273.369 70.5368 273.369C70.8606 273.369 71.1447 273.426 71.389 273.54C71.6333 273.651 71.8379 273.8 72.0027 273.987C72.1674 274.172 72.2924 274.375 72.3777 274.597H72.4288V273.455H74.7811V279.983C74.7811 280.537 74.6376 281.007 74.3507 281.393C74.0666 281.783 73.666 282.08 73.149 282.284C72.6319 282.489 72.0282 282.591 71.3379 282.591ZM71.4231 278.244C71.639 278.244 71.8237 278.185 71.9771 278.065C72.1333 277.943 72.2527 277.77 72.335 277.545C72.4203 277.318 72.4629 277.045 72.4629 276.727C72.4629 276.403 72.4203 276.126 72.335 275.896C72.2527 275.663 72.1333 275.486 71.9771 275.364C71.8237 275.239 71.639 275.176 71.4231 275.176C71.2072 275.176 71.0225 275.239 70.8691 275.364C70.7186 275.486 70.6021 275.663 70.5197 275.896C70.4402 276.126 70.4004 276.403 70.4004 276.727C70.4004 277.051 70.4402 277.327 70.5197 277.554C70.6021 277.778 70.7186 277.95 70.8691 278.07C71.0225 278.186 71.2072 278.244 71.4231 278.244ZM79.1309 282.591C78.4746 282.591 77.9121 282.497 77.4434 282.31C76.9775 282.125 76.6152 281.869 76.3567 281.543C76.101 281.219 75.9576 280.847 75.9263 280.426H78.1934C78.2161 280.565 78.2729 280.678 78.3638 280.763C78.4547 280.848 78.5712 280.909 78.7132 280.946C78.8581 280.986 79.0201 281.006 79.199 281.006C79.503 281.006 79.7544 280.932 79.9533 280.784C80.155 280.636 80.2559 280.369 80.2559 279.983V278.875H80.1877C80.1025 279.097 79.9718 279.286 79.7956 279.442C79.6195 279.595 79.4078 279.713 79.1607 279.795C78.9135 279.875 78.6422 279.915 78.3468 279.915C77.8809 279.915 77.4519 279.807 77.0598 279.591C76.6706 279.375 76.3581 279.033 76.1223 278.564C75.8894 278.095 75.7729 277.483 75.7729 276.727C75.7729 275.937 75.8951 275.295 76.1394 274.801C76.3865 274.307 76.7047 273.945 77.0939 273.714C77.486 273.484 77.8979 273.369 78.3297 273.369C78.6536 273.369 78.9377 273.426 79.182 273.54C79.4263 273.651 79.6309 273.8 79.7956 273.987C79.9604 274.172 80.0854 274.375 80.1706 274.597H80.2218V273.455H82.574V279.983C82.574 280.537 82.4306 281.007 82.1436 281.393C81.8596 281.783 81.459 282.08 80.9419 282.284C80.4249 282.489 79.8212 282.591 79.1309 282.591ZM79.2161 278.244C79.432 278.244 79.6167 278.185 79.7701 278.065C79.9263 277.943 80.0456 277.77 80.128 277.545C80.2132 277.318 80.2559 277.045 80.2559 276.727C80.2559 276.403 80.2132 276.126 80.128 275.896C80.0456 275.663 79.9263 275.486 79.7701 275.364C79.6167 275.239 79.432 275.176 79.2161 275.176C79.0002 275.176 78.8155 275.239 78.6621 275.364C78.5115 275.486 78.3951 275.663 78.3127 275.896C78.2331 276.126 78.1934 276.403 78.1934 276.727C78.1934 277.051 78.2331 277.327 78.3127 277.554C78.3951 277.778 78.5115 277.95 78.6621 278.07C78.8155 278.186 79.0002 278.244 79.2161 278.244ZM86.9068 280.119C86.2079 280.119 85.6056 279.986 85.1 279.719C84.5971 279.449 84.2093 279.062 83.9366 278.56C83.6667 278.054 83.5318 277.449 83.5318 276.744C83.5318 276.068 83.6681 275.477 83.9409 274.972C84.2136 274.466 84.5985 274.072 85.0957 273.791C85.5929 273.51 86.1795 273.369 86.8556 273.369C87.35 273.369 87.7974 273.446 88.198 273.599C88.5985 273.753 88.9409 273.976 89.225 274.268C89.5091 274.558 89.7278 274.911 89.8812 275.325C90.0346 275.74 90.1113 276.207 90.1113 276.727V277.273H84.2647V275.977H87.9466C87.9437 275.79 87.8954 275.625 87.8017 275.483C87.7108 275.338 87.5872 275.226 87.4309 275.146C87.2775 275.064 87.1028 275.023 86.9068 275.023C86.7164 275.023 86.5417 275.064 86.3826 275.146C86.2235 275.226 86.0957 275.337 85.9991 275.479C85.9054 275.621 85.8556 275.787 85.85 275.977V277.375C85.85 277.585 85.894 277.773 85.9821 277.938C86.0701 278.102 86.1966 278.232 86.3613 278.325C86.5261 278.419 86.725 278.466 86.9579 278.466C87.1199 278.466 87.2676 278.443 87.4011 278.398C87.5375 278.352 87.6539 278.287 87.7505 278.202C87.8471 278.114 87.9181 278.009 87.9636 277.886H90.1113C90.0375 278.341 89.8627 278.736 89.5872 279.071C89.3116 279.403 88.9466 279.662 88.492 279.847C88.0403 280.028 87.5119 280.119 86.9068 280.119ZM91.0712 280V273.455H93.3553V274.699H93.4235C93.5428 274.239 93.7317 273.902 93.9902 273.689C94.2516 273.476 94.557 273.369 94.9064 273.369C95.0087 273.369 95.1096 273.378 95.209 273.395C95.3113 273.409 95.4093 273.43 95.503 273.459V275.466C95.3865 275.426 95.2431 275.396 95.0726 275.376C94.9022 275.357 94.7559 275.347 94.6337 275.347C94.4036 275.347 94.1962 275.399 94.0115 275.504C93.8297 275.607 93.6863 275.751 93.5811 275.939C93.476 276.124 93.4235 276.341 93.4235 276.591V280H91.0712ZM99.0357 280.119C98.3368 280.119 97.7346 279.986 97.2289 279.719C96.726 279.449 96.3382 279.062 96.0655 278.56C95.7956 278.054 95.6607 277.449 95.6607 276.744C95.6607 276.068 95.7971 275.477 96.0698 274.972C96.3425 274.466 96.7275 274.072 97.2246 273.791C97.7218 273.51 98.3084 273.369 98.9846 273.369C99.4789 273.369 99.9263 273.446 100.327 273.599C100.727 273.753 101.07 273.976 101.354 274.268C101.638 274.558 101.857 274.911 102.01 275.325C102.164 275.74 102.24 276.207 102.24 276.727V277.273H96.3936V275.977H100.075C100.073 275.79 100.024 275.625 99.9306 275.483C99.8397 275.338 99.7161 275.226 99.5598 275.146C99.4064 275.064 99.2317 275.023 99.0357 275.023C98.8453 275.023 98.6706 275.064 98.5115 275.146C98.3525 275.226 98.2246 275.337 98.128 275.479C98.0343 275.621 97.9846 275.787 97.9789 275.977V277.375C97.9789 277.585 98.0229 277.773 98.111 277.938C98.199 278.102 98.3255 278.232 98.4902 278.325C98.655 278.419 98.8539 278.466 99.0868 278.466C99.2488 278.466 99.3965 278.443 99.53 278.398C99.6664 278.352 99.7828 278.287 99.8794 278.202C99.976 278.114 100.047 278.009 100.093 277.886H102.24C102.166 278.341 101.992 278.736 101.716 279.071C101.441 279.403 101.075 279.662 100.621 279.847C100.169 280.028 99.6408 280.119 99.0357 280.119ZM105.569 280.085C105.104 280.085 104.675 279.963 104.282 279.719C103.893 279.474 103.581 279.104 103.345 278.607C103.112 278.109 102.996 277.483 102.996 276.727C102.996 275.937 103.118 275.295 103.362 274.801C103.609 274.307 103.927 273.945 104.317 273.714C104.709 273.484 105.121 273.369 105.552 273.369C105.876 273.369 106.16 273.426 106.405 273.54C106.649 273.651 106.854 273.8 107.018 273.987C107.183 274.172 107.308 274.375 107.393 274.597H107.427V271.273H109.78V280H107.444V278.926H107.393C107.302 279.148 107.172 279.347 107.001 279.523C106.834 279.696 106.629 279.834 106.388 279.936C106.149 280.036 105.876 280.085 105.569 280.085ZM106.439 278.278C106.655 278.278 106.839 278.216 106.993 278.091C107.149 277.963 107.268 277.784 107.351 277.554C107.436 277.321 107.479 277.045 107.479 276.727C107.479 276.403 107.436 276.126 107.351 275.896C107.268 275.663 107.149 275.486 106.993 275.364C106.839 275.239 106.655 275.176 106.439 275.176C106.223 275.176 106.038 275.239 105.885 275.364C105.734 275.486 105.618 275.663 105.535 275.896C105.456 276.126 105.416 276.403 105.416 276.727C105.416 277.051 105.456 277.33 105.535 277.562C105.618 277.793 105.734 277.97 105.885 278.095C106.038 278.217 106.223 278.278 106.439 278.278Z" fill="white" fill-opacity="0.65"/>
<path d="M233.5 237V205H179.5" stroke="white" stroke-opacity="0.45" stroke-dasharray="2 2"/>
<path d="M235.5 298V323H179.5" stroke="white" stroke-opacity="0.45" stroke-dasharray="2 2"/>
<path d="M59.5 235V205H121.5" stroke="white" stroke-opacity="0.45" stroke-dasharray="2 2"/>
<path d="M59.5 298V323H125.5" stroke="white" stroke-opacity="0.45" stroke-dasharray="2 2"/>
<path d="M149.5 347L152.387 342L146.613 342L149.5 347ZM150 323C150 322.724 149.776 322.5 149.5 322.5C149.224 322.5 149 322.724 149 323L150 323ZM150 344L150 342L149 342L149 344L150 344ZM150 340L150 338L149 338L149 340L150 340ZM150 336L150 334L149 334L149 336L150 336ZM150 332L150 330L149 330L149 332L150 332ZM150 328L150 326L149 326L149 328L150 328ZM150 324L150 323L149 323L149 324L150 324Z" fill="#FFE500"/>
<path d="M132.506 370.205C131.809 370.205 131.196 370.089 130.667 369.856C130.143 369.624 129.724 369.305 129.409 368.899C129.095 368.494 128.912 368.029 128.862 367.505L128.855 367.43H129.785L129.792 367.505C129.828 367.865 129.97 368.184 130.216 368.462C130.462 368.74 130.785 368.956 131.187 369.111C131.592 369.266 132.048 369.344 132.554 369.344C133.05 369.344 133.49 369.262 133.873 369.098C134.256 368.929 134.557 368.701 134.775 368.414C134.994 368.122 135.104 367.792 135.104 367.423V367.416C135.104 366.956 134.933 366.571 134.591 366.261C134.249 365.946 133.698 365.702 132.937 365.529L131.925 365.304C130.931 365.08 130.214 364.755 129.771 364.326C129.329 363.893 129.108 363.337 129.108 362.658V362.651C129.108 362.127 129.252 361.662 129.539 361.257C129.826 360.847 130.223 360.523 130.729 360.286C131.239 360.049 131.822 359.931 132.479 359.931C133.121 359.931 133.688 360.045 134.181 360.272C134.677 360.5 135.072 360.806 135.363 361.188C135.66 361.567 135.826 361.993 135.862 362.467L135.869 362.549H134.939L134.926 362.474C134.88 362.155 134.75 361.87 134.536 361.619C134.322 361.364 134.037 361.161 133.682 361.011C133.331 360.86 132.921 360.787 132.451 360.792C131.995 360.792 131.588 360.869 131.228 361.024C130.868 361.175 130.58 361.389 130.366 361.667C130.157 361.94 130.052 362.262 130.052 362.631V362.638C130.052 363.071 130.216 363.431 130.544 363.718C130.872 364.005 131.41 364.233 132.157 364.401L133.169 364.634C134.199 364.866 134.937 365.197 135.384 365.625C135.83 366.053 136.054 366.612 136.054 367.3V367.307C136.054 367.89 135.906 368.398 135.609 368.831C135.313 369.264 134.898 369.601 134.365 369.843C133.832 370.084 133.212 370.205 132.506 370.205ZM140.429 370.048C139.731 370.048 139.226 369.902 138.911 369.61C138.601 369.319 138.446 368.838 138.446 368.168V363.39H137.264V362.638H138.446V360.724H139.376V362.638H141.064V363.39H139.376V367.963C139.376 368.419 139.465 368.747 139.643 368.947C139.82 369.148 140.117 369.248 140.531 369.248C140.636 369.248 140.727 369.246 140.805 369.241C140.882 369.237 140.969 369.23 141.064 369.221V369.993C140.96 370.007 140.855 370.018 140.75 370.027C140.65 370.041 140.543 370.048 140.429 370.048ZM145.781 370.123C145.093 370.123 144.498 369.968 143.997 369.658C143.5 369.348 143.118 368.911 142.849 368.346C142.58 367.781 142.445 367.113 142.445 366.343V366.329C142.445 365.563 142.58 364.896 142.849 364.326C143.118 363.752 143.496 363.308 143.983 362.993C144.476 362.674 145.05 362.515 145.706 362.515C146.367 362.515 146.934 362.67 147.408 362.979C147.887 363.285 148.254 363.713 148.509 364.265C148.769 364.812 148.898 365.447 148.898 366.172V366.555H142.91V365.816H148.44L147.996 366.479V366.138C147.996 365.522 147.898 365.007 147.702 364.593C147.511 364.174 147.242 363.857 146.896 363.643C146.554 363.428 146.157 363.321 145.706 363.321C145.25 363.321 144.847 363.431 144.496 363.649C144.145 363.868 143.867 364.189 143.662 364.613C143.462 365.033 143.361 365.541 143.361 366.138V366.479C143.361 367.067 143.462 367.573 143.662 367.997C143.863 368.421 144.145 368.747 144.51 368.975C144.874 369.202 145.305 369.316 145.802 369.316C146.157 369.316 146.474 369.266 146.752 369.166C147.035 369.066 147.269 368.934 147.456 368.77C147.643 368.601 147.777 368.423 147.859 368.236L147.88 368.182H148.789L148.769 368.236C148.696 368.487 148.575 368.726 148.406 368.954C148.242 369.177 148.033 369.378 147.777 369.556C147.522 369.729 147.226 369.868 146.889 369.973C146.556 370.073 146.187 370.123 145.781 370.123ZM150.84 372.44V362.638H151.742V364.107H151.824C151.97 363.779 152.164 363.497 152.405 363.26C152.647 363.018 152.927 362.834 153.246 362.706C153.57 362.578 153.921 362.515 154.299 362.515C154.923 362.515 155.468 362.674 155.933 362.993C156.402 363.308 156.767 363.75 157.026 364.319C157.286 364.889 157.416 365.552 157.416 366.309V366.322C157.416 367.083 157.286 367.749 157.026 368.318C156.767 368.888 156.402 369.332 155.933 369.651C155.468 369.966 154.923 370.123 154.299 370.123C153.93 370.123 153.581 370.059 153.253 369.932C152.929 369.799 152.645 369.617 152.398 369.385C152.152 369.152 151.961 368.877 151.824 368.558H151.742V372.44H150.84ZM154.114 369.323C154.602 369.323 155.023 369.2 155.379 368.954C155.734 368.708 156.008 368.359 156.199 367.908C156.395 367.457 156.493 366.928 156.493 366.322V366.309C156.493 365.698 156.395 365.169 156.199 364.723C156.008 364.276 155.734 363.93 155.379 363.684C155.023 363.438 154.602 363.314 154.114 363.314C153.627 363.314 153.203 363.44 152.843 363.69C152.487 363.937 152.212 364.283 152.016 364.729C151.82 365.176 151.722 365.702 151.722 366.309V366.322C151.722 366.928 151.82 367.457 152.016 367.908C152.212 368.355 152.49 368.703 152.85 368.954C153.21 369.2 153.631 369.323 154.114 369.323ZM167.731 370V367.771H162.775V366.924C163.017 366.532 163.258 366.142 163.5 365.755C163.742 365.363 163.994 364.962 164.259 364.552C164.523 364.142 164.808 363.711 165.113 363.26C165.419 362.804 165.751 362.319 166.111 361.804C166.471 361.284 166.87 360.724 167.308 360.122H168.641V366.938H170.117V367.771H168.641V370H167.731ZM163.753 366.938H167.738V361.018H167.67C167.278 361.56 166.923 362.059 166.604 362.515C166.285 362.966 165.993 363.387 165.729 363.779C165.464 364.171 165.218 364.54 164.99 364.887C164.767 365.233 164.553 365.57 164.348 365.898C164.147 366.222 163.949 366.548 163.753 366.876V366.938ZM80.6758 394V384.136H87.4365V386.152H83.1846V388.121H87.1836V389.967H83.1846V391.983H87.4365V394H80.6758ZM91.4219 394.116C90.9388 394.116 90.5127 394.021 90.1436 393.829C89.7744 393.638 89.485 393.371 89.2754 393.029C89.0703 392.683 88.9678 392.28 88.9678 391.819V391.806C88.9678 391.118 89.2298 390.577 89.7539 390.186C90.278 389.789 91.0299 389.561 92.0098 389.502L94.8604 389.331V390.691L92.3926 390.849C92.0371 390.871 91.766 390.951 91.5791 391.088C91.3923 391.225 91.2988 391.407 91.2988 391.635V391.648C91.2988 391.885 91.3923 392.075 91.5791 392.216C91.766 392.357 92.012 392.428 92.3174 392.428C92.5726 392.428 92.8005 392.378 93.001 392.277C93.2061 392.173 93.3678 392.034 93.4863 391.86C93.6094 391.683 93.6709 391.484 93.6709 391.266V388.812C93.6709 388.552 93.5775 388.351 93.3906 388.21C93.2083 388.064 92.9508 387.991 92.6182 387.991C92.2992 387.991 92.0417 388.044 91.8457 388.148C91.6543 388.253 91.5221 388.399 91.4492 388.586L91.4355 388.62H89.2412L89.248 388.538C89.2936 388.069 89.4622 387.661 89.7539 387.314C90.0501 386.968 90.4535 386.699 90.9639 386.508C91.4743 386.312 92.0713 386.214 92.7549 386.214C93.4613 386.214 94.0583 386.316 94.5459 386.521C95.0381 386.727 95.4118 387.023 95.667 387.41C95.9222 387.798 96.0498 388.265 96.0498 388.812V394H93.6709V393.057H93.541C93.4271 393.271 93.2653 393.458 93.0557 393.617C92.8506 393.777 92.6068 393.9 92.3242 393.986C92.0462 394.073 91.7454 394.116 91.4219 394.116ZM97.8955 394V386.392H100.322V387.602H100.452C100.566 387.182 100.783 386.856 101.102 386.624C101.425 386.392 101.828 386.275 102.312 386.275C102.462 386.275 102.608 386.287 102.749 386.31C102.89 386.328 103.02 386.357 103.139 386.398V388.449C102.979 388.404 102.813 388.369 102.64 388.347C102.466 388.324 102.296 388.312 102.127 388.312C101.749 388.312 101.425 388.379 101.156 388.511C100.887 388.638 100.68 388.827 100.534 389.078C100.393 389.324 100.322 389.625 100.322 389.98V394H97.8955ZM104.417 394V386.392H106.844V387.581H106.974C107.142 387.166 107.411 386.836 107.78 386.59C108.154 386.339 108.61 386.214 109.147 386.214C109.991 386.214 110.629 386.465 111.062 386.966C111.499 387.463 111.718 388.169 111.718 389.085V394H109.291V389.625C109.291 389.165 109.193 388.812 108.997 388.565C108.806 388.315 108.505 388.189 108.095 388.189C107.835 388.189 107.612 388.251 107.425 388.374C107.238 388.497 107.094 388.668 106.994 388.887C106.894 389.105 106.844 389.361 106.844 389.652V394H104.417ZM118.438 394V392.229H121.206C121.726 392.229 122.122 392.12 122.396 391.901C122.674 391.678 122.812 391.359 122.812 390.944V390.931C122.812 390.657 122.749 390.429 122.621 390.247C122.498 390.06 122.316 389.919 122.074 389.823C121.833 389.728 121.539 389.68 121.192 389.68H118.438V388.155H121.015C121.47 388.155 121.826 388.057 122.081 387.861C122.336 387.661 122.464 387.387 122.464 387.041V387.027C122.464 386.681 122.345 386.408 122.108 386.207C121.871 386.007 121.541 385.906 121.117 385.906H118.438V384.136H121.78C122.441 384.136 123.004 384.234 123.469 384.43C123.934 384.626 124.289 384.908 124.535 385.277C124.786 385.642 124.911 386.079 124.911 386.59V386.604C124.911 386.954 124.829 387.28 124.665 387.581C124.506 387.882 124.289 388.13 124.016 388.326C123.742 388.522 123.43 388.645 123.079 388.695V388.825C123.507 388.848 123.895 388.966 124.241 389.181C124.588 389.39 124.861 389.666 125.062 390.008C125.267 390.35 125.369 390.73 125.369 391.149V391.163C125.369 391.737 125.228 392.239 124.945 392.667C124.663 393.091 124.264 393.419 123.749 393.651C123.234 393.884 122.626 394 121.924 394H118.438ZM117.18 394V384.136H119.688V394H117.18ZM130.441 394.178C129.635 394.178 128.94 394.021 128.356 393.706C127.778 393.387 127.333 392.931 127.023 392.339C126.718 391.742 126.565 391.029 126.565 390.199V390.186C126.565 389.365 126.723 388.659 127.037 388.066C127.352 387.474 127.798 387.018 128.377 386.699C128.956 386.376 129.644 386.214 130.441 386.214C131.243 386.214 131.934 386.373 132.513 386.692C133.096 387.011 133.543 387.467 133.853 388.06C134.167 388.652 134.324 389.361 134.324 390.186V390.199C134.324 391.029 134.169 391.742 133.859 392.339C133.554 392.931 133.112 393.387 132.533 393.706C131.954 394.021 131.257 394.178 130.441 394.178ZM130.441 392.339C130.738 392.339 130.988 392.255 131.193 392.086C131.403 391.913 131.562 391.667 131.672 391.348C131.781 391.029 131.836 390.646 131.836 390.199V390.186C131.836 389.743 131.779 389.365 131.665 389.051C131.556 388.732 131.398 388.486 131.193 388.312C130.988 388.139 130.738 388.053 130.441 388.053C130.154 388.053 129.906 388.139 129.696 388.312C129.487 388.486 129.325 388.732 129.211 389.051C129.102 389.365 129.047 389.743 129.047 390.186V390.199C129.047 390.65 129.102 391.035 129.211 391.354C129.32 391.674 129.48 391.917 129.689 392.086C129.899 392.255 130.15 392.339 130.441 392.339ZM135.821 394V386.392H138.248V387.581H138.378C138.547 387.166 138.815 386.836 139.185 386.59C139.558 386.339 140.014 386.214 140.552 386.214C141.395 386.214 142.033 386.465 142.466 386.966C142.903 387.463 143.122 388.169 143.122 389.085V394H140.695V389.625C140.695 389.165 140.597 388.812 140.401 388.565C140.21 388.315 139.909 388.189 139.499 388.189C139.239 388.189 139.016 388.251 138.829 388.374C138.642 388.497 138.499 388.668 138.398 388.887C138.298 389.105 138.248 389.361 138.248 389.652V394H135.821ZM147.422 394.178C146.861 394.178 146.39 394.066 146.007 393.843C145.629 393.619 145.341 393.294 145.146 392.865C144.954 392.432 144.858 391.913 144.858 391.307V386.392H147.285V390.767C147.285 391.227 147.379 391.582 147.565 391.833C147.757 392.079 148.058 392.202 148.468 392.202C148.737 392.202 148.965 392.141 149.151 392.018C149.343 391.895 149.486 391.724 149.582 391.505C149.682 391.282 149.732 391.024 149.732 390.732V386.392H152.159V394H149.732V392.811H149.603C149.438 393.225 149.167 393.558 148.789 393.809C148.415 394.055 147.96 394.178 147.422 394.178ZM157.272 394.178C156.521 394.178 155.887 394.077 155.372 393.877C154.857 393.676 154.458 393.401 154.176 393.05C153.898 392.699 153.734 392.302 153.684 391.86V391.819H156.042L156.056 391.86C156.129 392.052 156.263 392.214 156.459 392.346C156.655 392.478 156.928 392.544 157.279 392.544C157.498 392.544 157.687 392.517 157.847 392.462C158.006 392.407 158.129 392.332 158.216 392.236C158.302 392.136 158.346 392.018 158.346 391.881V391.874C158.346 391.696 158.273 391.553 158.127 391.443C157.986 391.334 157.742 391.245 157.396 391.177L156.083 390.91C155.349 390.76 154.796 390.498 154.422 390.124C154.048 389.746 153.861 389.267 153.861 388.688V388.682C153.861 388.171 153.998 387.734 154.271 387.369C154.545 387 154.932 386.715 155.434 386.515C155.935 386.314 156.525 386.214 157.204 386.214C157.938 386.214 158.551 386.323 159.043 386.542C159.54 386.756 159.913 387.039 160.164 387.39C160.415 387.736 160.547 388.114 160.561 388.524V388.559H158.339L158.325 388.511C158.284 388.351 158.17 388.201 157.983 388.06C157.797 387.914 157.537 387.841 157.204 387.841C157.008 387.841 156.833 387.868 156.678 387.923C156.527 387.978 156.409 388.055 156.322 388.155C156.24 388.256 156.199 388.376 156.199 388.518V388.531C156.199 388.704 156.268 388.843 156.404 388.948C156.546 389.053 156.796 389.142 157.156 389.215L158.469 389.481C159.257 389.641 159.836 389.889 160.205 390.227C160.574 390.559 160.759 391.01 160.759 391.58V391.587C160.759 392.111 160.611 392.569 160.314 392.961C160.023 393.348 159.615 393.649 159.091 393.863C158.567 394.073 157.961 394.178 157.272 394.178ZM165.947 394V384.136H170.233C171.045 384.136 171.726 384.266 172.277 384.525C172.833 384.785 173.255 385.159 173.542 385.646C173.829 386.13 173.973 386.711 173.973 387.39V387.403C173.973 388.005 173.827 388.559 173.535 389.064C173.243 389.57 172.829 389.942 172.291 390.179L174.26 394H171.443L169.755 390.555C169.737 390.555 169.716 390.555 169.693 390.555C169.675 390.555 169.657 390.555 169.639 390.555H168.456V394H165.947ZM168.456 388.832H169.953C170.404 388.832 170.76 388.707 171.02 388.456C171.279 388.205 171.409 387.866 171.409 387.438V387.424C171.409 387.009 171.277 386.674 171.013 386.419C170.748 386.159 170.391 386.029 169.939 386.029H168.456V388.832ZM178.97 394.178C178.172 394.178 177.486 394.018 176.912 393.699C176.342 393.376 175.903 392.918 175.593 392.325C175.283 391.733 175.128 391.024 175.128 390.199V390.192C175.128 389.372 175.281 388.666 175.586 388.073C175.896 387.476 176.331 387.018 176.892 386.699C177.452 386.376 178.115 386.214 178.881 386.214C179.646 386.214 180.31 386.371 180.87 386.686C181.431 387 181.864 387.444 182.169 388.019C182.474 388.593 182.627 389.267 182.627 390.042V390.739H176.331V389.331H181.479L180.357 390.678V389.714C180.357 389.326 180.298 389.003 180.18 388.743C180.061 388.479 179.895 388.278 179.681 388.142C179.471 388.005 179.225 387.937 178.942 387.937C178.66 387.937 178.411 388.007 178.197 388.148C177.983 388.285 177.814 388.486 177.691 388.75C177.573 389.014 177.514 389.336 177.514 389.714V390.691C177.514 391.061 177.573 391.377 177.691 391.642C177.81 391.906 177.981 392.109 178.204 392.25C178.432 392.387 178.703 392.455 179.018 392.455C179.286 392.455 179.512 392.414 179.694 392.332C179.881 392.245 180.027 392.15 180.132 392.045C180.241 391.94 180.312 391.856 180.344 391.792L180.364 391.765L182.579 391.758L182.559 391.84C182.508 392.063 182.406 392.312 182.251 392.585C182.101 392.854 181.884 393.109 181.602 393.351C181.324 393.592 180.968 393.79 180.535 393.945C180.102 394.1 179.58 394.178 178.97 394.178ZM185.368 394L183.386 386.392H185.84L186.783 391.607H186.913L188.062 386.392H190.372L191.534 391.607H191.664L192.607 386.392H195.007L193.038 394H190.427L189.237 388.989H189.107L187.938 394H185.368ZM198.199 394.116C197.716 394.116 197.29 394.021 196.921 393.829C196.552 393.638 196.262 393.371 196.053 393.029C195.848 392.683 195.745 392.28 195.745 391.819V391.806C195.745 391.118 196.007 390.577 196.531 390.186C197.055 389.789 197.807 389.561 198.787 389.502L201.638 389.331V390.691L199.17 390.849C198.814 390.871 198.543 390.951 198.356 391.088C198.17 391.225 198.076 391.407 198.076 391.635V391.648C198.076 391.885 198.17 392.075 198.356 392.216C198.543 392.357 198.789 392.428 199.095 392.428C199.35 392.428 199.578 392.378 199.778 392.277C199.983 392.173 200.145 392.034 200.264 391.86C200.387 391.683 200.448 391.484 200.448 391.266V388.812C200.448 388.552 200.355 388.351 200.168 388.21C199.986 388.064 199.728 387.991 199.396 387.991C199.076 387.991 198.819 388.044 198.623 388.148C198.432 388.253 198.299 388.399 198.227 388.586L198.213 388.62H196.019L196.025 388.538C196.071 388.069 196.24 387.661 196.531 387.314C196.827 386.968 197.231 386.699 197.741 386.508C198.252 386.312 198.849 386.214 199.532 386.214C200.239 386.214 200.836 386.316 201.323 386.521C201.815 386.727 202.189 387.023 202.444 387.41C202.7 387.798 202.827 388.265 202.827 388.812V394H200.448V393.057H200.318C200.204 393.271 200.043 393.458 199.833 393.617C199.628 393.777 199.384 393.9 199.102 393.986C198.824 394.073 198.523 394.116 198.199 394.116ZM204.673 394V386.392H207.1V387.602H207.229C207.343 387.182 207.56 386.856 207.879 386.624C208.202 386.392 208.606 386.275 209.089 386.275C209.239 386.275 209.385 386.287 209.526 386.31C209.668 386.328 209.798 386.357 209.916 386.398V388.449C209.757 388.404 209.59 388.369 209.417 388.347C209.244 388.324 209.073 388.312 208.904 388.312C208.526 388.312 208.202 388.379 207.934 388.511C207.665 388.638 207.457 388.827 207.312 389.078C207.17 389.324 207.1 389.625 207.1 389.98V394H204.673ZM213.683 394.116C213.058 394.116 212.518 393.961 212.062 393.651C211.607 393.337 211.256 392.888 211.01 392.305C210.768 391.721 210.647 391.02 210.647 390.199V390.186C210.647 389.361 210.766 388.657 211.003 388.073C211.244 387.49 211.591 387.046 212.042 386.74C212.493 386.43 213.04 386.275 213.683 386.275C214.207 386.275 214.662 386.394 215.05 386.631C215.442 386.868 215.729 387.196 215.911 387.615H216.041V383.534H218.468V394H216.041V392.838H215.911C215.733 393.243 215.453 393.558 215.07 393.781C214.688 394.005 214.225 394.116 213.683 394.116ZM214.578 392.141C214.883 392.141 215.146 392.063 215.364 391.908C215.588 391.753 215.758 391.532 215.877 391.245C216 390.953 216.062 390.607 216.062 390.206V390.192C216.062 389.787 216 389.44 215.877 389.153C215.754 388.862 215.581 388.638 215.357 388.483C215.139 388.328 214.879 388.251 214.578 388.251C214.282 388.251 214.022 388.331 213.799 388.49C213.58 388.645 213.409 388.868 213.286 389.16C213.168 389.447 213.108 389.789 213.108 390.186V390.199C213.108 390.605 213.168 390.953 213.286 391.245C213.409 391.532 213.58 391.753 213.799 391.908C214.018 392.063 214.277 392.141 214.578 392.141Z" fill="white"/>
<circle cx="235.5" cy="252.5" r="5.5" fill="white"/>
<path d="M235.341 246.039C231.659 246.039 228.674 249.024 228.674 252.706C228.674 256.388 231.659 259.373 235.341 259.373C239.023 259.373 242.008 256.388 242.008 252.706C242.008 249.024 239.023 246.039 235.341 246.039ZM238.769 255.124C239.048 255.402 239.048 255.856 238.769 256.134C238.491 256.412 238.037 256.412 237.759 256.134L235.341 253.716L232.923 256.134C232.645 256.412 232.191 256.412 231.913 256.134C231.635 255.856 231.635 255.402 231.913 255.124L234.331 252.706L231.913 250.288C231.635 250.01 231.635 249.556 231.913 249.278C232.191 248.999 232.645 248.999 232.923 249.278L235.341 251.696L237.759 249.278C238.037 248.999 238.491 248.999 238.769 249.278C239.048 249.556 239.048 250.01 238.769 250.288L236.352 252.706L238.769 255.124Z" fill="#FF2828"/>
<path d="M202.721 271.273V280H200.744L197.59 275.415H197.539V280H195.17V271.273H197.181L200.284 275.841H200.352V271.273H202.721ZM207.029 280.119C206.319 280.119 205.711 279.979 205.205 279.697C204.7 279.413 204.312 279.018 204.042 278.513C203.772 278.004 203.637 277.415 203.637 276.744C203.637 276.074 203.772 275.486 204.042 274.98C204.312 274.472 204.7 274.077 205.205 273.795C205.711 273.511 206.319 273.369 207.029 273.369C207.74 273.369 208.347 273.511 208.853 273.795C209.359 274.077 209.747 274.472 210.017 274.98C210.286 275.486 210.421 276.074 210.421 276.744C210.421 277.415 210.286 278.004 210.017 278.513C209.747 279.018 209.359 279.413 208.853 279.697C208.347 279.979 207.74 280.119 207.029 280.119ZM207.046 278.381C207.245 278.381 207.417 278.314 207.562 278.18C207.707 278.047 207.819 277.857 207.899 277.609C207.978 277.362 208.018 277.068 208.018 276.727C208.018 276.384 207.978 276.089 207.899 275.845C207.819 275.598 207.707 275.408 207.562 275.274C207.417 275.141 207.245 275.074 207.046 275.074C206.836 275.074 206.656 275.141 206.505 275.274C206.355 275.408 206.24 275.598 206.16 275.845C206.08 276.089 206.041 276.384 206.041 276.727C206.041 277.068 206.08 277.362 206.16 277.609C206.24 277.857 206.355 278.047 206.505 278.18C206.656 278.314 206.836 278.381 207.046 278.381ZM215.279 273.455V275.159H210.967V273.455H215.279ZM211.802 271.886H214.154V277.895C214.154 277.986 214.17 278.062 214.201 278.125C214.232 278.185 214.281 278.23 214.346 278.261C214.411 278.29 214.495 278.304 214.597 278.304C214.669 278.304 214.751 278.295 214.845 278.278C214.941 278.261 215.012 278.247 215.058 278.236L215.399 279.889C215.294 279.92 215.143 279.959 214.947 280.004C214.754 280.05 214.524 280.08 214.257 280.094C213.717 280.122 213.264 280.067 212.897 279.928C212.531 279.786 212.255 279.562 212.07 279.259C211.886 278.955 211.796 278.574 211.802 278.116V271.886ZM218.732 276.318V280H216.38V271.273H218.647V274.699H218.715C218.863 274.281 219.108 273.956 219.452 273.723C219.796 273.487 220.209 273.369 220.692 273.369C221.155 273.369 221.557 273.474 221.898 273.685C222.242 273.895 222.508 274.185 222.695 274.554C222.885 274.923 222.979 275.347 222.976 275.824V280H220.624V276.318C220.627 275.994 220.546 275.74 220.381 275.555C220.219 275.371 219.988 275.278 219.687 275.278C219.496 275.278 219.329 275.321 219.184 275.406C219.042 275.489 218.931 275.608 218.851 275.764C218.775 275.918 218.735 276.102 218.732 276.318ZM224.138 280V273.455H226.49V280H224.138ZM225.314 272.773C224.996 272.773 224.723 272.668 224.496 272.457C224.268 272.247 224.155 271.994 224.155 271.699C224.155 271.403 224.268 271.151 224.496 270.94C224.723 270.73 224.996 270.625 225.314 270.625C225.635 270.625 225.907 270.73 226.132 270.94C226.359 271.151 226.473 271.403 226.473 271.699C226.473 271.994 226.359 272.247 226.132 272.457C225.907 272.668 225.635 272.773 225.314 272.773ZM230.041 276.318V280H227.688V273.455H229.921V274.699H229.99C230.132 274.284 230.382 273.959 230.74 273.723C231.1 273.487 231.521 273.369 232.001 273.369C232.464 273.369 232.866 273.476 233.207 273.689C233.551 273.899 233.816 274.189 234.004 274.558C234.194 274.928 234.288 275.349 234.285 275.824V280H231.933V276.318C231.936 275.994 231.853 275.74 231.686 275.555C231.521 275.371 231.291 275.278 230.995 275.278C230.802 275.278 230.633 275.321 230.488 275.406C230.346 275.489 230.237 275.608 230.16 275.764C230.083 275.918 230.044 276.102 230.041 276.318ZM238.6 282.591C237.943 282.591 237.381 282.497 236.912 282.31C236.446 282.125 236.084 281.869 235.825 281.543C235.57 281.219 235.426 280.847 235.395 280.426H237.662C237.685 280.565 237.742 280.678 237.833 280.763C237.923 280.848 238.04 280.909 238.182 280.946C238.327 280.986 238.489 281.006 238.668 281.006C238.972 281.006 239.223 280.932 239.422 280.784C239.624 280.636 239.725 280.369 239.725 279.983V278.875H239.656C239.571 279.097 239.441 279.286 239.264 279.442C239.088 279.595 238.877 279.713 238.629 279.795C238.382 279.875 238.111 279.915 237.816 279.915C237.35 279.915 236.921 279.807 236.529 279.591C236.139 279.375 235.827 279.033 235.591 278.564C235.358 278.095 235.242 277.483 235.242 276.727C235.242 275.937 235.364 275.295 235.608 274.801C235.855 274.307 236.173 273.945 236.563 273.714C236.955 273.484 237.367 273.369 237.798 273.369C238.122 273.369 238.406 273.426 238.651 273.54C238.895 273.651 239.1 273.8 239.264 273.987C239.429 274.172 239.554 274.375 239.639 274.597H239.691V273.455H242.043V279.983C242.043 280.537 241.899 281.007 241.612 281.393C241.328 281.783 240.928 282.08 240.411 282.284C239.894 282.489 239.29 282.591 238.6 282.591ZM238.685 278.244C238.901 278.244 239.085 278.185 239.239 278.065C239.395 277.943 239.514 277.77 239.597 277.545C239.682 277.318 239.725 277.045 239.725 276.727C239.725 276.403 239.682 276.126 239.597 275.896C239.514 275.663 239.395 275.486 239.239 275.364C239.085 275.239 238.901 275.176 238.685 275.176C238.469 275.176 238.284 275.239 238.131 275.364C237.98 275.486 237.864 275.663 237.781 275.896C237.702 276.126 237.662 276.403 237.662 276.727C237.662 277.051 237.702 277.327 237.781 277.554C237.864 277.778 237.98 277.95 238.131 278.07C238.284 278.186 238.469 278.244 238.685 278.244ZM248.954 280H245.596V271.273H248.92C249.817 271.273 250.593 271.447 251.246 271.797C251.903 272.143 252.408 272.643 252.763 273.297C253.121 273.947 253.3 274.727 253.3 275.636C253.3 276.545 253.123 277.327 252.768 277.98C252.412 278.631 251.91 279.131 251.259 279.48C250.608 279.827 249.84 280 248.954 280ZM247.965 277.989H248.868C249.3 277.989 249.668 277.919 249.972 277.78C250.279 277.641 250.512 277.401 250.671 277.06C250.833 276.719 250.914 276.244 250.914 275.636C250.914 275.028 250.831 274.554 250.667 274.213C250.505 273.872 250.266 273.632 249.951 273.493C249.638 273.354 249.255 273.284 248.8 273.284H247.965V277.989ZM257.584 280.119C256.874 280.119 256.266 279.979 255.76 279.697C255.254 279.413 254.867 279.018 254.597 278.513C254.327 278.004 254.192 277.415 254.192 276.744C254.192 276.074 254.327 275.486 254.597 274.98C254.867 274.472 255.254 274.077 255.76 273.795C256.266 273.511 256.874 273.369 257.584 273.369C258.294 273.369 258.902 273.511 259.408 273.795C259.914 274.077 260.301 274.472 260.571 274.98C260.841 275.486 260.976 276.074 260.976 276.744C260.976 277.415 260.841 278.004 260.571 278.513C260.301 279.018 259.914 279.413 259.408 279.697C258.902 279.979 258.294 280.119 257.584 280.119ZM257.601 278.381C257.8 278.381 257.972 278.314 258.117 278.18C258.262 278.047 258.374 277.857 258.453 277.609C258.533 277.362 258.573 277.068 258.573 276.727C258.573 276.384 258.533 276.089 258.453 275.845C258.374 275.598 258.262 275.408 258.117 275.274C257.972 275.141 257.8 275.074 257.601 275.074C257.391 275.074 257.21 275.141 257.06 275.274C256.909 275.408 256.794 275.598 256.715 275.845C256.635 276.089 256.595 276.384 256.595 276.727C256.595 277.068 256.635 277.362 256.715 277.609C256.794 277.857 256.909 278.047 257.06 278.18C257.21 278.314 257.391 278.381 257.601 278.381ZM264.283 276.318V280H261.931V273.455H264.164V274.699H264.232C264.374 274.284 264.624 273.959 264.982 273.723C265.343 273.487 265.763 273.369 266.243 273.369C266.706 273.369 267.108 273.476 267.449 273.689C267.793 273.899 268.058 274.189 268.246 274.558C268.436 274.928 268.53 275.349 268.527 275.824V280H266.175V276.318C266.178 275.994 266.095 275.74 265.928 275.555C265.763 275.371 265.533 275.278 265.237 275.278C265.044 275.278 264.875 275.321 264.73 275.406C264.588 275.489 264.479 275.608 264.402 275.764C264.325 275.918 264.286 276.102 264.283 276.318ZM272.825 280.119C272.126 280.119 271.524 279.986 271.018 279.719C270.515 279.449 270.127 279.062 269.855 278.56C269.585 278.054 269.45 277.449 269.45 276.744C269.45 276.068 269.586 275.477 269.859 274.972C270.132 274.466 270.517 274.072 271.014 273.791C271.511 273.51 272.097 273.369 272.774 273.369C273.268 273.369 273.715 273.446 274.116 273.599C274.517 273.753 274.859 273.976 275.143 274.268C275.427 274.558 275.646 274.911 275.799 275.325C275.953 275.74 276.029 276.207 276.029 276.727V277.273H270.183V275.977H273.865C273.862 275.79 273.813 275.625 273.72 275.483C273.629 275.338 273.505 275.226 273.349 275.146C273.195 275.064 273.021 275.023 272.825 275.023C272.634 275.023 272.46 275.064 272.301 275.146C272.142 275.226 272.014 275.337 271.917 275.479C271.823 275.621 271.774 275.787 271.768 275.977V277.375C271.768 277.585 271.812 277.773 271.9 277.938C271.988 278.102 272.115 278.232 272.279 278.325C272.444 278.419 272.643 278.466 272.876 278.466C273.038 278.466 273.186 278.443 273.319 278.398C273.455 278.352 273.572 278.287 273.669 278.202C273.765 278.114 273.836 278.009 273.882 277.886H276.029C275.955 278.341 275.781 278.736 275.505 279.071C275.23 279.403 274.865 279.662 274.41 279.847C273.958 280.028 273.43 280.119 272.825 280.119Z" fill="white" fill-opacity="0.65"/>
<path d="M150.5 203L153.387 198L147.613 198L150.5 203ZM151 179C151 178.724 150.776 178.5 150.5 178.5C150.224 178.5 150 178.724 150 179L151 179ZM151 200L151 198L150 198L150 200L151 200ZM151 196L151 194L150 194L150 196L151 196ZM151 192L151 190L150 190L150 192L151 192ZM151 188L151 186L150 186L150 188L151 188ZM151 184L151 182L150 182L150 184L151 184ZM151 180L151 179L150 179L150 180L151 180Z" fill="#FFE500"/>
</svg>
