<svg xmlns="http://www.w3.org/2000/svg" width="28" height="28" viewBox="0 0 28 28" fill="none">
  <path fill-rule="evenodd" clip-rule="evenodd" d="M25.9584 1.93264L26.0695 2.04383C28.6438 4.61804 28.6438 8.82941 26.0677 11.4036L23.2995 13.9579C23.2058 14.0758 23.0943 14.179 22.9688 14.263L22.9281 14.3006L22.9232 14.2923C22.7017 14.4289 22.4409 14.5079 22.1616 14.5079C21.3591 14.5079 20.7085 13.8573 20.7085 13.0548C20.7085 12.576 20.9403 12.1513 21.2976 11.8866L23.9242 9.25822C25.322 7.86212 25.322 5.58707 23.9242 4.18916L23.8129 4.07975C22.4151 2.68188 20.1418 2.68188 18.7474 4.07975L12.7808 10.0429C11.383 11.4407 10.8522 13.4714 12.25 14.8692L12.3595 14.9769C12.4063 15.0238 12.4577 15.0712 12.5111 15.1205C12.7061 15.3006 12.9287 15.5062 13.0608 15.8029C13.1419 15.9704 13.1873 16.1583 13.1873 16.3567C13.1873 17.0599 12.6173 17.63 11.9141 17.63C11.6833 17.63 11.4671 17.5683 11.2805 17.461L11.2801 17.4613L11.2774 17.4591C11.1603 17.3913 11.055 17.3056 10.9653 17.2055C10.8414 17.0998 10.7201 16.9896 10.6032 16.8727L10.4938 16.765C7.91951 14.1891 8.06127 10.4717 10.6355 7.89746L16.5986 1.93264C19.1729 -0.641609 23.3841 -0.641609 25.9584 1.93264ZM16.7946 10.2016C17.0302 10.3808 17.2588 10.5741 17.4732 10.7884L17.5828 10.8979C20.1534 13.4703 19.9354 17.531 17.3647 20.1051L11.4017 26.0699C8.82742 28.6424 4.61613 28.6424 2.04188 26.0699L1.93069 25.9588C-0.643562 23.3863 -0.643562 19.1732 1.93069 16.5972L4.66925 14.0347C4.75026 13.9361 4.84404 13.8486 4.94778 13.774L4.97587 13.7477L4.97817 13.7524C5.21284 13.5926 5.49623 13.4992 5.80153 13.4992C6.61057 13.4992 7.26641 14.155 7.26641 14.964C7.26641 15.4292 7.04936 15.8434 6.71124 16.1118L4.07602 18.7461C2.67811 20.1405 2.67811 22.4147 4.07602 23.8125L4.1881 23.9246C5.58597 25.3207 7.85847 25.3207 9.25627 23.9246L15.2211 17.9616C16.619 16.5637 17.0363 14.1584 15.6384 12.7623L15.5272 12.6511C15.4105 12.5343 15.2857 12.4311 15.1585 12.3262C15.0325 12.2494 14.9202 12.1524 14.8259 12.0398L14.8257 12.0397C14.6293 11.8054 14.5109 11.5035 14.5109 11.1739C14.5109 10.4291 15.1147 9.8252 15.8596 9.8252C16.2226 9.8252 16.5518 9.96881 16.7942 10.202L16.7946 10.2016Z" fill="black"/>
</svg>