<svg width="35" height="21" viewBox="0 0 35 21" fill="none" xmlns="http://www.w3.org/2000/svg">
<rect x="0.962891" y="0.324219" width="34" height="20" rx="10" fill="#E10600"/>
<path d="M8.26289 7.17422H9.39289L12.4129 12.7042L12.4629 12.7942L13.1529 7.17422H14.2829L13.3629 14.6842H12.2329L9.20289 9.17422L9.16289 9.08422L8.47289 14.6842H7.34289L8.26289 7.17422ZM17.7829 9.07422C18.4696 9.07422 18.9862 9.23755 19.3329 9.56422C19.6862 9.88422 19.8629 10.3609 19.8629 10.9942C19.8629 11.1409 19.8529 11.3009 19.8329 11.4742L19.7229 12.3742H15.9929V12.3842C15.9796 12.5309 15.9729 12.6309 15.9729 12.6842C15.9729 13.0242 16.0696 13.2776 16.2629 13.4442C16.4629 13.6042 16.7962 13.6842 17.2629 13.6842H17.7529C18.0996 13.6842 18.6262 13.6542 19.3329 13.5942L19.2229 14.6342C18.6362 14.6942 18.1096 14.7242 17.6429 14.7242H17.1529C16.3462 14.7242 15.7529 14.5609 15.3729 14.2342C14.9996 13.9076 14.8129 13.4276 14.8129 12.7942C14.8129 12.6409 14.8229 12.4842 14.8429 12.3242L14.9429 11.4842C15.0362 10.6842 15.2996 10.0842 15.7329 9.68422C16.1662 9.27755 16.7829 9.07422 17.5829 9.07422H17.7829ZM18.6929 11.4042V11.3942C18.7062 11.2476 18.7129 11.1409 18.7129 11.0742C18.7129 10.7542 18.6262 10.5109 18.4529 10.3442C18.2862 10.1776 18.0196 10.0942 17.6529 10.0942H17.4529C16.6662 10.0942 16.2196 10.5309 16.1129 11.4042H18.6929ZM20.597 9.11422H21.747L22.287 13.6442H22.477L24.017 9.61422H25.507L26.087 13.6442H26.277L27.947 9.11422H29.097L27.217 14.2642C27.117 14.5442 26.9236 14.6842 26.637 14.6842H25.607C25.4603 14.6842 25.3403 14.6409 25.247 14.5542C25.1536 14.4742 25.097 14.3542 25.077 14.1942L24.637 10.8342L23.377 14.2642C23.277 14.5309 23.0936 14.6709 22.827 14.6842H21.767C21.6203 14.6842 21.5003 14.6409 21.407 14.5542C21.3136 14.4742 21.257 14.3542 21.237 14.1942L20.597 9.11422Z" fill="white"/>
</svg>
