<svg width="401" height="171" viewBox="0 -14 401 171" fill="none" xmlns="http://www.w3.org/2000/svg">
  <path
    class="price"
    d="M29.477 77.9276L29.2303 79.0174L29.3521 79.0449H29.477V77.9276ZM30.9885 77.9276V79.0449H31.2827L31.5388 78.9L30.9885 77.9276ZM32.5 77.0721V75.9548H32.2057L31.9496 76.0998L32.5 77.0721ZM33.6336 77.0721V78.1895H34.0079L34.3066 77.964L33.6336 77.0721ZM35.5229 75.6463V74.529H35.1487L34.8499 74.7545L35.5229 75.6463ZM37.0344 75.6463L37.3387 74.5712L37.1895 74.529H37.0344V75.6463ZM38.5459 76.0741L39.3833 75.3343L39.166 75.0883L38.8502 74.999L38.5459 76.0741ZM39.6795 77.3573L40.6423 76.7903L40.5879 76.6979L40.5169 76.6176L39.6795 77.3573ZM40.4353 78.6405L39.4725 79.2075L39.5438 79.3285L39.6428 79.4281L40.4353 78.6405ZM41.5689 79.7812L40.7764 80.5688L41.6509 81.4487L42.4348 80.4873L41.5689 79.7812ZM43.0804 77.9276L42.2199 77.2149L42.2145 77.2215L43.0804 77.9276ZM44.9698 75.6463L45.9455 75.1019L45.1503 73.6767L44.1092 74.9336L44.9698 75.6463ZM46.4813 78.3554L45.5055 78.8998L46.3759 80.4597L47.3977 78.9945L46.4813 78.3554ZM48.3706 75.6463L48.9863 74.7139L48.0773 74.1137L47.4542 75.0072L48.3706 75.6463ZM49.8821 76.6444L50.6052 75.7926L50.5539 75.7491L50.4978 75.712L49.8821 76.6444ZM51.3936 77.9276L50.6705 78.7794L50.818 78.9047L50.9992 78.973L51.3936 77.9276ZM53.283 78.6405L52.8885 79.6859L54.333 80.2309L54.3993 78.6885L53.283 78.6405ZM54.4166 52.263L55.5329 52.311L55.5339 52.287V52.263H54.4166ZM54.4166 48.5559L53.3332 48.2824L53.2993 48.4171V48.5559H54.4166ZM55.1723 45.5617L56.2557 45.8351L56.2705 45.7762L56.2789 45.716L55.1723 45.5617ZM55.9281 40.1436L57.0347 40.298L57.0454 40.2211V40.1436H55.9281ZM55.9281 38.29L56.8279 37.6276L54.8108 34.8876V38.29H55.9281ZM57.8174 40.8565H58.9348V40.4896L58.7172 40.1941L57.8174 40.8565ZM57.8174 43.2804H56.7001V43.4192L56.7341 43.5538L57.8174 43.2804ZM58.5732 46.2746H59.6905V46.1358L59.6565 46.0011L58.5732 46.2746ZM58.5732 47.9856H57.4559V49.6014L58.9676 49.0309L58.5732 47.9856ZM61.2183 46.9875L62.1899 46.4357L61.718 45.6048L60.8239 45.9421L61.2183 46.9875ZM62.3519 48.9836H63.4692V48.6885L63.3235 48.4319L62.3519 48.9836ZM62.3519 50.4094H61.2346V50.9265L61.6288 51.2612L62.3519 50.4094ZM63.8634 51.6927L63.1403 52.5444L63.221 52.6129L63.3131 52.665L63.8634 51.6927ZM65.3749 52.5482L64.8245 53.5205L65.6554 53.9908L66.2495 53.2435L65.3749 52.5482ZM66.5085 51.1224L67.3831 51.8177L67.6258 51.5124V51.1224H66.5085ZM66.5085 50.1243L67.1363 49.2L65.3912 48.0148V50.1243H66.5085ZM68.3979 51.4075L67.7701 52.3318L68.132 52.5776L68.5646 52.5123L68.3979 51.4075ZM70.2873 51.1224L70.454 52.2272L70.6975 52.1904L70.9029 52.0547L70.2873 51.1224ZM71.7987 50.1243H72.9161V48.0476L71.1831 49.1919L71.7987 50.1243ZM71.7987 52.5482H70.6814V52.7526L70.7538 52.9438L71.7987 52.5482ZM74.4439 59.5346H75.5612V59.3302L75.4888 59.139L74.4439 59.5346ZM74.4439 67.5192H73.3265V67.5863L73.3346 67.6528L74.4439 67.5192ZM75.1996 73.7928L74.0903 73.9264L74.0974 73.9856L74.1108 74.0437L75.1996 73.7928ZM76.7111 80.3515L75.6223 80.6024L76.4849 84.3453L77.7646 80.7238L76.7111 80.3515ZM78.2226 76.0741L79.154 75.4569L77.9159 73.5883L77.1691 75.7018L78.2226 76.0741ZM79.7341 78.3554L78.8026 78.9725L79.3779 79.8408L80.2844 79.3277L79.7341 78.3554ZM82.0013 77.0721L83.0961 76.8489L82.789 75.3424L81.451 76.0998L82.0013 77.0721ZM82.7571 80.7792L81.6623 81.0024L81.6729 81.0548L81.6886 81.106L82.7571 80.7792ZM83.8907 84.4864L82.8222 84.8131L82.8292 84.836L82.8372 84.8586L83.8907 84.4864ZM84.6464 86.6251L83.5929 86.9973L84.5309 89.6518L85.6685 87.0765L84.6464 86.6251ZM86.5358 82.3476V81.2303H85.8078L85.5137 81.8962L86.5358 82.3476ZM88.803 82.3476V83.465H88.873L88.9425 83.4562L88.803 82.3476ZM91.0703 82.0625L91.2097 83.1711L91.5054 83.1339L91.7433 82.9543L91.0703 82.0625ZM93.3375 80.3515L94.3003 79.7845L93.6645 78.705L92.6645 79.4596L93.3375 80.3515ZM94.0932 81.6347L93.1305 82.2017L93.6398 83.0666L94.5541 82.6526L94.0932 81.6347ZM95.9826 80.7792V79.6619H95.7414L95.5217 79.7614L95.9826 80.7792ZM97.872 80.7792V81.8966H98.472L98.8034 81.3964L97.872 80.7792ZM99.0056 79.0683L99.2127 77.9703L98.4838 77.8328L98.0742 78.4511L99.0056 79.0683ZM100.517 79.3534L101.449 78.7363L101.188 78.343L100.724 78.2555L100.517 79.3534ZM102.029 81.6347L101.097 82.2519L102.167 83.8668L103.029 82.1319L102.029 81.6347ZM103.162 79.3534L104.163 79.8506L104.219 79.7377L104.248 79.6151L103.162 79.3534ZM103.54 77.785L104.09 76.8127L102.801 76.0828L102.454 77.5233L103.54 77.785ZM105.052 78.6405L104.501 79.6129L104.814 79.7899L105.171 79.7514L105.052 78.6405ZM107.697 78.3554L108.219 77.3674L107.917 77.2079L107.577 77.2445L107.697 78.3554ZM109.586 79.3534L110.447 78.6408L110.305 78.4694L110.108 78.3655L109.586 79.3534ZM111.475 81.6347L110.615 82.3474L111.159 83.0045L111.936 82.6526L111.475 81.6347ZM113.365 80.7792L114.038 79.8874L113.508 79.4878L112.904 79.7614L113.365 80.7792ZM114.498 81.6347L115.47 81.083L115.356 80.8821L115.171 80.7429L114.498 81.6347ZM115.632 83.6309L116.619 83.1076L116.612 83.0932L116.604 83.0791L115.632 83.6309ZM116.388 85.0567L115.401 85.58L116.064 86.8308L117.126 85.8953L116.388 85.0567ZM118.655 83.0605L119.393 83.8992L119.408 83.8865L119.422 83.8733L118.655 83.0605ZM119.411 82.3476L120.038 81.4234L119.297 80.9194L118.644 81.5349L119.411 82.3476ZM121.3 83.6309L122.175 82.9355L122.069 82.8022L121.928 82.7066L121.3 83.6309ZM122.434 85.0567L121.559 85.752L122.434 86.852L123.308 85.752L122.434 85.0567ZM123.567 83.6309L124.442 84.3262L124.49 84.2651L124.53 84.1979L123.567 83.6309ZM124.323 82.3476L124.57 81.2579L123.774 81.0778L123.36 81.7806L124.323 82.3476ZM126.212 82.7754L126.936 81.9236L126.727 81.7462L126.459 81.6856L126.212 82.7754ZM127.724 84.0586L127.001 84.9104L127.314 85.1759H127.724V84.0586ZM129.235 84.0586L130.25 83.5909L129.951 82.9413H129.235V84.0586ZM130.747 87.338L129.732 87.8057L130.552 89.5845L131.666 87.9734L130.747 87.338ZM133.014 84.0586L132.215 83.278L132.149 83.3456L132.095 83.4232L133.014 84.0586ZM135.659 81.3496L136.497 80.6098L135.7 79.7083L134.86 80.569L135.659 81.3496ZM137.171 83.0605L136.333 83.8003L136.367 83.8384L136.404 83.8733L137.171 83.0605ZM138.682 84.4864L137.916 85.2991L138.682 86.0224L139.449 85.2991L138.682 84.4864ZM140.949 82.3476L141.716 83.1604L141.81 83.0721L141.881 82.9648L140.949 82.3476ZM142.461 80.0663L143.392 80.6835L143.578 80.4029V80.0663H142.461ZM142.461 76.6444L141.383 76.349L141.344 76.494V76.6444H142.461ZM143.595 72.5095V71.3922H142.742L142.517 72.2141L143.595 72.5095ZM146.995 72.5095H148.113V71.3922H146.995V72.5095ZM146.995 75.6463H145.878V75.8707L145.965 76.0776L146.995 75.6463ZM148.129 78.3554H149.246V78.131L149.16 77.9241L148.129 78.3554ZM148.129 81.6347H147.012V82.7521H148.129V81.6347ZM150.018 81.6347V82.7521H150.522L150.856 82.3745L150.018 81.6347ZM151.152 80.3515L151.032 79.2406L150.602 79.2871L150.315 79.6118L151.152 80.3515ZM153.797 80.0663L154.729 79.4492L154.353 78.8826L153.677 78.9555L153.797 80.0663ZM154.175 80.6367L153.244 81.2538L153.575 81.754H154.175V80.6367ZM156.82 80.6367L157.322 79.6385L157.085 79.5193H156.82V80.6367ZM157.954 81.207L157.452 82.2051L157.985 82.4733L158.504 82.1794L157.954 81.207ZM159.465 80.3515L159.86 79.3061L159.37 79.1214L158.915 79.3791L159.465 80.3515ZM160.977 80.9218L160.582 81.9672L161.016 82.1307L161.438 81.9397L160.977 80.9218ZM162.866 80.0663L163.539 79.1745L163.01 78.7749L162.405 79.0485L162.866 80.0663ZM164 80.9218L163.327 81.8137L163.455 81.9105L163.605 81.9672L164 80.9218ZM164.755 81.207L164.361 82.2524L164.501 82.3053L164.651 82.3194L164.755 81.207ZM166.267 81.3496L166.99 80.4978L166.722 80.2702L166.372 80.2372L166.267 81.3496ZM167.778 82.6328L167.055 83.4846L167.203 83.6098L167.384 83.6782L167.778 82.6328ZM168.912 83.0605L168.518 84.1059L168.951 84.2694L169.373 84.0784L168.912 83.0605ZM170.801 82.2051L171.262 83.2229L171.308 83.2022L171.352 83.1774L170.801 82.2051ZM172.313 81.3496L173.374 80.9982L172.946 79.7074L171.763 80.3772L172.313 81.3496ZM172.691 82.4902L171.63 82.8416L171.693 83.0301L171.816 83.1856L172.691 82.4902ZM173.824 83.916L172.95 84.6114L173.707 85.5632L174.591 84.7288L173.824 83.916ZM174.58 83.2031L175.347 84.0159L175.36 84.0035L175.373 83.9907L174.58 83.2031ZM175.714 82.0625L176.794 81.7762L176.295 79.8929L174.921 81.2749L175.714 82.0625ZM176.47 84.9141L177.579 84.7805L177.57 84.7032L177.55 84.6279L176.47 84.9141ZM176.847 88.0509L175.738 88.1845L175.743 88.2243L175.751 88.2636L176.847 88.0509ZM177.981 93.8967H179.098V93.7894L179.078 93.684L177.981 93.8967ZM177.981 96.178H176.864V96.4332L176.974 96.663L177.981 96.178ZM178.737 97.7464L177.73 98.2314L177.779 98.332L177.846 98.4209L178.737 97.7464ZM180.248 99.7426L179.358 100.417L180.503 101.93L181.27 100.194L180.248 99.7426ZM181.004 98.0316L182.026 98.483L182.048 98.4339L182.065 98.3829L181.004 98.0316ZM181.76 95.7503L182.82 96.1016L182.85 96.0138L182.864 95.9224L181.76 95.7503ZM182.138 93.3264L183.242 93.4985L183.255 93.413V93.3264H182.138ZM182.138 90.6174L181.031 90.463L181.02 90.5398V90.6174H182.138ZM182.516 87.9083L181.41 87.7456L181.409 87.754L182.516 87.9083ZM182.893 85.3418L183.999 85.5046L184.011 85.4237V85.3418H182.893ZM182.893 82.4902L182.57 81.4206L181.776 81.6604V82.4902H182.893ZM184.783 81.9199L185.106 82.9895L185.714 82.8059L185.867 82.1893L184.783 81.9199ZM185.916 77.3573L184.863 76.985L184.845 77.0357L184.832 77.0879L185.916 77.3573ZM186.672 75.2186L185.806 74.5125L185.683 74.6631L185.619 74.8463L186.672 75.2186ZM188.184 73.365L189.237 72.9928L188.575 71.1177L187.318 72.6589L188.184 73.365ZM188.939 75.5037L187.886 75.876L187.913 75.954L187.952 76.027L188.939 75.5037ZM190.073 77.6425L191.171 77.4346L191.139 77.2686L191.06 77.1192L190.073 77.6425ZM190.451 79.6386L191.553 79.456L191.551 79.4434L191.549 79.4308L190.451 79.6386ZM190.829 81.9199L189.726 82.1025L190.008 83.8009L191.444 82.8523L190.829 81.9199ZM192.34 80.9218V79.8045H192.005L191.725 79.9894L192.34 80.9218ZM194.607 80.9218V82.0391H195.561L195.711 81.0973L194.607 80.9218ZM195.741 73.7928L195.113 72.8685L194.714 73.14L194.638 73.6173L195.741 73.7928ZM197.63 72.5095L198.661 72.0782L198.133 70.8172L197.003 71.5852L197.63 72.5095ZM198.764 75.2186L197.733 75.6499L198.37 77.1707L199.547 76.0162L198.764 75.2186ZM200.653 73.365L200.038 72.4326L199.948 72.492L199.871 72.5674L200.653 73.365ZM203.676 71.3689L204.292 72.3013L204.431 72.2096L204.537 72.0816L203.676 71.3689ZM205.566 69.0876L206.426 69.8003L206.683 69.4902V69.0876H205.566ZM205.566 67.6618L204.505 67.3104L204.448 67.4815V67.6618H205.566ZM205.944 66.5211L205.012 65.904L204.93 66.0283L204.883 66.1698L205.944 66.5211ZM207.455 64.2398L208.387 64.8569L208.572 64.5764V64.2398H207.455ZM207.455 63.0992L207.85 62.0538L206.338 61.4834V63.0992H207.455ZM208.967 63.6695L210.001 63.2477L209.817 62.7962L209.361 62.6241L208.967 63.6695ZM209.722 65.5231H210.84V65.304L210.757 65.1012L209.722 65.5231ZM209.722 66.9489H208.605V69.5388L210.489 67.7616L209.722 66.9489ZM211.99 64.8102L212.713 63.9584L211.95 63.3112L211.223 63.9974L211.99 64.8102ZM213.501 66.0934L214.454 65.5104L214.361 65.3576L214.224 65.2416L213.501 66.0934ZM214.635 67.9469L215.597 67.3799L215.593 67.3719L215.588 67.364L214.635 67.9469ZM215.39 69.2302L214.428 69.7972L214.432 69.8052L214.437 69.8131L215.39 69.2302ZM216.524 71.0837L215.571 71.6667L216.244 72.768L217.238 71.9434L216.524 71.0837ZM218.413 69.5153L219.127 70.375L219.43 70.1239L219.508 69.7385L218.413 69.5153ZM218.791 67.6618L217.769 67.2103L217.721 67.3205L217.697 67.4386L218.791 67.6618ZM219.547 65.9508L220.569 66.4022L220.664 66.1866V65.9508H219.547ZM219.547 65.0953L219.34 63.9974L218.43 64.1691V65.0953H219.547ZM221.814 64.6676L222.826 64.1942L222.459 63.4089L221.607 63.5696L221.814 64.6676ZM222.948 67.0914L221.936 67.5648L222.345 68.4405L223.271 68.1611L222.948 67.0914ZM224.837 66.5211L225.16 65.4515L224.837 65.354L224.514 65.4515L224.837 66.5211ZM226.727 67.0914L226.404 68.1611L226.767 68.2706L227.121 68.1368L226.727 67.0914ZM229.75 65.9508L230.226 64.9402L229.798 64.7383L229.355 64.9054L229.75 65.9508ZM232.773 67.3766L232.296 68.3872L232.985 68.7122L233.539 68.1894L232.773 67.3766ZM234.284 65.9508L234.607 64.8812L233.988 64.6943L233.517 65.138L234.284 65.9508ZM236.173 66.5211L236.847 65.6293L236.687 65.5091L236.496 65.4515L236.173 66.5211ZM237.307 67.3766L236.634 68.2685L237.219 68.7102L237.857 68.349L237.307 67.3766ZM238.819 66.5211L239.369 67.4935L239.68 67.3177L239.831 66.9945L238.819 66.5211ZM239.952 64.0972L239.422 63.1137L239.097 63.2891L238.94 63.6239L239.952 64.0972ZM242.597 62.6714L243.127 63.655L243.645 63.3758L243.708 62.7908L242.597 62.6714ZM243.731 52.1204L242.948 51.3228L242.663 51.6031L242.62 52.0011L243.731 52.1204ZM245.62 50.2669L246.729 50.127L246.447 47.891L244.838 49.4693L245.62 50.2669ZM246.376 56.2553L247.488 56.15L247.487 56.1327L247.485 56.1154L246.376 56.2553ZM246.754 60.2475L245.642 60.3528L245.693 60.9005L246.159 61.1934L246.754 60.2475ZM249.021 61.6734L248.426 62.6192L249.23 63.1246L249.859 62.4131L249.021 61.6734ZM250.155 60.3901L249.76 59.3448L249.501 59.4426L249.317 59.6504L250.155 60.3901ZM251.666 59.8198L252.061 60.8652L252.567 60.6741L252.731 60.1584L251.666 59.8198ZM252.8 56.2553L253.865 56.5939L253.917 56.4287V56.2553H252.8ZM252.8 52.8333L251.755 52.4377L251.683 52.6289V52.8333H252.8ZM253.934 49.8391L254.978 50.2347L254.987 50.2128L254.994 50.1905L253.934 49.8391ZM255.067 46.4172L256.149 46.1375L255.199 42.4651L254.006 46.0658L255.067 46.4172ZM256.579 52.263L255.497 52.5427L255.783 53.6494L256.883 53.3381L256.579 52.263ZM258.09 51.8353L258.965 51.1399L258.502 50.5576L257.786 50.7602L258.09 51.8353ZM259.224 53.2611L258.349 53.9564L258.468 54.1055L258.629 54.2069L259.224 53.2611ZM260.357 53.974L259.763 54.9198L259.972 55.0517L260.218 55.0826L260.357 53.974ZM262.625 54.2591L262.485 55.3677L262.985 55.4306L263.363 55.0977L262.625 54.2591ZM264.892 52.263L265.991 52.0643L265.639 50.1162L264.153 51.4244L264.892 52.263ZM266.025 58.5366L264.926 58.7353L267.1 58.8443L266.025 58.5366ZM267.537 53.2611L268.397 52.5484L267.046 50.9169L266.463 52.9533L267.537 53.2611ZM269.426 55.5424L268.566 56.255L268.687 56.401L268.849 56.4989L269.426 55.5424ZM271.316 56.683L272.41 56.4598L272.313 55.9797L271.893 55.7265L271.316 56.683ZM272.071 60.3901L270.977 60.6133L270.99 60.6784L271.011 60.7415L272.071 60.3901ZM273.583 64.9527L272.522 65.3041L272.641 65.664L272.955 65.877L273.583 64.9527ZM275.472 66.236L274.844 67.1603L275.352 67.5047L275.915 67.2619L275.472 66.236ZM278.117 65.0953L278.56 66.1213L278.63 66.0912L278.695 66.0518L278.117 65.0953ZM280.007 63.9547L280.584 64.9112L280.687 64.8494L280.773 64.7674L280.007 63.9547ZM280.762 63.2418L281.223 62.2239L280.541 61.9149L279.996 62.429L280.762 63.2418ZM282.652 64.0972L282.191 65.1151L282.294 65.1619L282.405 65.187L282.652 64.0972ZM284.541 64.525L285.473 63.9079L285.225 63.5342L284.788 63.4352L284.541 64.525ZM285.675 66.236L284.743 66.8531L285.1 67.3916L285.745 67.3511L285.675 66.236ZM290.209 65.9508L290.711 64.9527L290.441 64.8167L290.139 64.8357L290.209 65.9508ZM291.343 66.5211L290.841 67.5192L291.343 67.7719L291.845 67.5192L291.343 66.5211ZM292.477 65.9508L292.082 64.9054L292.027 64.9262L291.974 64.9527L292.477 65.9508ZM295.122 64.9527L295.564 63.9267L295.15 63.748L294.727 63.9074L295.122 64.9527ZM297.767 66.0934L298.217 65.0707L298.209 65.0674L297.767 66.0934ZM300.034 67.0914L299.584 68.1141L299.611 68.1262L299.64 68.1368L300.034 67.0914ZM301.546 67.6618L302.096 66.6894L302.021 66.6469L301.94 66.6164L301.546 67.6618ZM303.057 68.5173L302.507 69.4896L302.521 69.4976L302.535 69.5052L303.057 68.5173ZM304.946 69.5153H306.064V68.8419L305.468 68.5274L304.946 69.5153ZM304.946 71.0837H303.829V71.3789L303.975 71.6355L304.946 71.0837ZM306.08 73.0799L305.108 73.6316L305.155 73.7132L305.214 73.786L306.08 73.0799ZM307.591 74.9334L306.726 75.6395L307.321 76.3702L308.142 75.9058L307.591 74.9334ZM309.103 74.0779L309.826 73.2262L309.231 72.7213L308.553 73.1056L309.103 74.0779ZM310.705 76.4748C311.32 76.4245 311.778 75.8852 311.728 75.2702L310.909 65.2477C310.859 64.6327 310.32 64.1748 309.705 64.2251C309.09 64.2753 308.632 64.8146 308.682 65.4296L309.41 74.3385L300.501 75.0661C299.886 75.1164 299.428 75.6557 299.478 76.2707C299.529 76.8857 300.068 77.3436 300.683 77.2934L310.705 76.4748ZM25.4515 78.1619L29.2303 79.0174L29.7237 76.8379L25.945 75.9824L25.4515 78.1619ZM29.477 79.0449H30.9885V76.8103H29.477V79.0449ZM31.5388 78.9L33.0503 78.0445L31.9496 76.0998L30.4381 76.9552L31.5388 78.9ZM32.5 78.1895H33.6336V75.9548H32.5V78.1895ZM34.3066 77.964L36.196 76.5382L34.8499 74.7545L32.9605 76.1803L34.3066 77.964ZM35.5229 76.7636H37.0344V74.529H35.5229V76.7636ZM36.7302 76.7214L38.2417 77.1492L38.8502 74.999L37.3387 74.5712L36.7302 76.7214ZM37.7086 76.8138L38.8422 78.097L40.5169 76.6176L39.3833 75.3343L37.7086 76.8138ZM38.7168 77.9243L39.4725 79.2075L41.398 78.0735L40.6423 76.7903L38.7168 77.9243ZM39.6428 79.4281L40.7764 80.5688L42.3614 78.9936L41.2278 77.8529L39.6428 79.4281ZM42.4348 80.4873L43.9463 78.6337L42.2145 77.2215L40.703 79.0751L42.4348 80.4873ZM43.9409 78.6403L45.8303 76.359L44.1092 74.9336L42.2199 77.2149L43.9409 78.6403ZM43.994 76.1907L45.5055 78.8998L47.457 77.811L45.9455 75.1019L43.994 76.1907ZM47.3977 78.9945L49.2871 76.2855L47.4542 75.0072L45.5648 77.7162L47.3977 78.9945ZM47.7549 76.5787L49.2664 77.5768L50.4978 75.712L48.9863 74.7139L47.7549 76.5787ZM49.159 77.4961L50.6705 78.7794L52.1167 77.0759L50.6052 75.7926L49.159 77.4961ZM50.9992 78.973L52.8885 79.6859L53.6774 77.5952L51.788 76.8822L50.9992 78.973ZM54.3993 78.6885L55.5329 52.311L53.3003 52.215L52.1667 78.5926L54.3993 78.6885ZM55.5339 52.263V48.5559H53.2993V52.263H55.5339ZM55.4999 48.8293L56.2557 45.8351L54.089 45.2882L53.3332 48.2824L55.4999 48.8293ZM56.2789 45.716L57.0347 40.298L54.8215 39.9892L54.0657 45.4073L56.2789 45.716ZM57.0454 40.1436V38.29H54.8108V40.1436H57.0454ZM55.0283 38.9524L56.9177 41.5189L58.7172 40.1941L56.8279 37.6276L55.0283 38.9524ZM56.7001 40.8565V43.2804H58.9348V40.8565H56.7001ZM56.7341 43.5538L57.4898 46.548L59.6565 46.0011L58.9008 43.0069L56.7341 43.5538ZM57.4559 46.2746V47.9856H59.6905V46.2746H57.4559ZM58.9676 49.0309L61.6127 48.0329L60.8239 45.9421L58.1787 46.9402L58.9676 49.0309ZM60.2467 47.5393L61.3803 49.5354L63.3235 48.4319L62.1899 46.4357L60.2467 47.5393ZM61.2346 48.9836V50.4094H63.4692V48.9836H61.2346ZM61.6288 51.2612L63.1403 52.5444L64.5865 50.8409L63.075 49.5577L61.6288 51.2612ZM63.3131 52.665L64.8245 53.5205L65.9253 51.5758L64.4138 50.7203L63.3131 52.665ZM66.2495 53.2435L67.3831 51.8177L65.6339 50.427L64.5003 51.8528L66.2495 53.2435ZM67.6258 51.1224V50.1243H65.3912V51.1224H67.6258ZM65.8808 51.0486L67.7701 52.3318L69.0257 50.4832L67.1363 49.2L65.8808 51.0486ZM68.5646 52.5123L70.454 52.2272L70.1205 50.0175L68.2311 50.3027L68.5646 52.5123ZM70.9029 52.0547L72.4144 51.0567L71.1831 49.1919L69.6716 50.19L70.9029 52.0547ZM70.6814 50.1243V52.5482H72.9161V50.1243H70.6814ZM70.7538 52.9438L73.3989 59.9303L75.4888 59.139L72.8437 52.1525L70.7538 52.9438ZM73.3265 59.5346V63.2418H75.5612V59.5346H73.3265ZM73.3265 63.2418V67.5192H75.5612V63.2418H73.3265ZM73.3346 67.6528L74.0903 73.9264L76.3089 73.6591L75.5532 67.3856L73.3346 67.6528ZM74.1108 74.0437L75.6223 80.6024L77.7999 80.1006L76.2884 73.5419L74.1108 74.0437ZM77.7646 80.7238L79.2761 76.4463L77.1691 75.7018L75.6576 79.9792L77.7646 80.7238ZM77.2912 76.6912L78.8026 78.9725L80.6655 77.7382L79.154 75.4569L77.2912 76.6912ZM80.2844 79.3277L82.5517 78.0445L81.451 76.0998L79.1837 77.383L80.2844 79.3277ZM80.9065 77.2953L81.6623 81.0024L83.8519 80.5561L83.0961 76.8489L80.9065 77.2953ZM81.6886 81.106L82.8222 84.8131L84.9592 84.1596L83.8255 80.4525L81.6886 81.106ZM82.8372 84.8586L83.5929 86.9973L85.6999 86.2528L84.9442 84.1141L82.8372 84.8586ZM85.6685 87.0765L87.5578 82.7991L85.5137 81.8962L83.6244 86.1736L85.6685 87.0765ZM86.5358 83.465H88.803V81.2303H86.5358V83.465ZM88.9425 83.4562L91.2097 83.1711L90.9308 80.9539L88.6636 81.2391L88.9425 83.4562ZM91.7433 82.9543L94.0105 81.2434L92.6645 79.4596L90.3972 81.1706L91.7433 82.9543ZM92.3747 80.9185L93.1305 82.2017L95.056 81.0677L94.3003 79.7845L92.3747 80.9185ZM94.5541 82.6526L96.4435 81.7971L95.5217 79.7614L93.6324 80.6169L94.5541 82.6526ZM95.9826 81.8966H97.872V79.6619H95.9826V81.8966ZM98.8034 81.3964L99.937 79.6854L98.0742 78.4511L96.9405 80.1621L98.8034 81.3964ZM98.7985 80.1662L100.31 80.4514L100.724 78.2555L99.2127 77.9703L98.7985 80.1662ZM99.5857 79.9706L101.097 82.2519L102.96 81.0176L101.449 78.7363L99.5857 79.9706ZM103.029 82.1319L104.163 79.8506L102.162 78.8562L101.028 81.1375L103.029 82.1319ZM104.248 79.6151L104.626 78.0467L102.454 77.5233L102.076 79.0917L104.248 79.6151ZM102.99 78.7574L104.501 79.6129L105.602 77.6682L104.09 76.8127L102.99 78.7574ZM105.171 79.7514L107.816 79.4662L107.577 77.2445L104.932 77.5296L105.171 79.7514ZM107.175 79.3433L109.064 80.3414L110.108 78.3655L108.219 77.3674L107.175 79.3433ZM108.726 80.0661L110.615 82.3474L112.336 80.9221L110.447 78.6408L108.726 80.0661ZM111.936 82.6526L113.826 81.7971L112.904 79.7614L111.015 80.6169L111.936 82.6526ZM112.692 81.6711L113.825 82.5266L115.171 80.7429L114.038 79.8874L112.692 81.6711ZM113.527 82.1865L114.66 84.1826L116.604 83.0791L115.47 81.083L113.527 82.1865ZM114.645 84.1541L115.401 85.58L117.375 84.5334L116.619 83.1076L114.645 84.1541ZM117.126 85.8953L119.393 83.8992L117.917 82.2219L115.649 84.2181L117.126 85.8953ZM119.422 83.8733L120.177 83.1604L118.644 81.5349L117.888 82.2478L119.422 83.8733ZM118.783 83.2719L120.672 84.5552L121.928 82.7066L120.038 81.4234L118.783 83.2719ZM120.426 84.3262L121.559 85.752L123.308 84.3613L122.175 82.9355L120.426 84.3262ZM123.308 85.752L124.442 84.3262L122.693 82.9355L121.559 84.3613L123.308 85.752ZM124.53 84.1979L125.286 82.9146L123.36 81.7806L122.605 83.0639L124.53 84.1979ZM124.076 83.4374L125.966 83.8651L126.459 81.6856L124.57 81.2579L124.076 83.4374ZM125.489 83.6271L127.001 84.9104L128.447 83.2069L126.936 81.9236L125.489 83.6271ZM127.724 85.1759H129.235V82.9413H127.724V85.1759ZM128.221 84.5263L129.732 87.8057L131.762 86.8703L130.25 83.5909L128.221 84.5263ZM131.666 87.9734L133.933 84.694L132.095 83.4232L129.828 86.7026L131.666 87.9734ZM133.814 84.8392L136.459 82.1301L134.86 80.569L132.215 83.278L133.814 84.8392ZM134.822 82.0893L136.333 83.8003L138.008 82.3208L136.497 80.6098L134.822 82.0893ZM136.404 83.8733L137.916 85.2991L139.449 83.6736L137.937 82.2478L136.404 83.8733ZM139.449 85.2991L141.716 83.1604L140.183 81.5349L137.916 83.6736L139.449 85.2991ZM141.881 82.9648L143.392 80.6835L141.53 79.4492L140.018 81.7305L141.881 82.9648ZM143.578 80.0663V76.6444H141.344V80.0663H143.578ZM143.539 76.9398L144.672 72.805L142.517 72.2141L141.383 76.349L143.539 76.9398ZM143.595 73.6269H146.995V71.3922H143.595V73.6269ZM145.878 72.5095V75.6463H148.113V72.5095H145.878ZM145.965 76.0776L147.098 78.7867L149.16 77.9241L148.026 75.215L145.965 76.0776ZM147.012 78.3554V81.6347H149.246V78.3554H147.012ZM148.129 82.7521H150.018V80.5174H148.129V82.7521ZM150.856 82.3745L151.989 81.0912L150.315 79.6118L149.181 80.895L150.856 82.3745ZM151.272 81.4624L153.917 81.1772L153.677 78.9555L151.032 79.2406L151.272 81.4624ZM152.866 80.6835L153.244 81.2538L155.106 80.0195L154.729 79.4492L152.866 80.6835ZM154.175 81.754H156.82V79.5193H154.175V81.754ZM156.318 81.6348L157.452 82.2051L158.456 80.2089L157.322 79.6385L156.318 81.6348ZM158.504 82.1794L160.016 81.3239L158.915 79.3791L157.403 80.2346L158.504 82.1794ZM159.071 81.3969L160.582 81.9672L161.371 79.8765L159.86 79.3061L159.071 81.3969ZM161.438 81.9397L163.327 81.0842L162.405 79.0485L160.516 79.904L161.438 81.9397ZM162.193 80.9582L163.327 81.8137L164.673 80.03L163.539 79.1745L162.193 80.9582ZM163.605 81.9672L164.361 82.2524L165.15 80.1616L164.394 79.8765L163.605 81.9672ZM164.651 82.3194L166.162 82.462L166.372 80.2372L164.86 80.0946L164.651 82.3194ZM165.544 82.2013L167.055 83.4846L168.502 81.781L166.99 80.4978L165.544 82.2013ZM167.384 83.6782L168.518 84.1059L169.307 82.0152L168.173 81.5874L167.384 83.6782ZM169.373 84.0784L171.262 83.2229L170.341 81.1872L168.451 82.0427L169.373 84.0784ZM171.352 83.1774L172.863 82.3219L171.763 80.3772L170.251 81.2327L171.352 83.1774ZM171.252 81.7009L171.63 82.8416L173.751 82.1389L173.374 80.9982L171.252 81.7009ZM171.816 83.1856L172.95 84.6114L174.699 83.2207L173.565 81.7949L171.816 83.1856ZM174.591 84.7288L175.347 84.0159L173.813 82.3904L173.058 83.1033L174.591 84.7288ZM175.373 83.9907L176.506 82.8501L174.921 81.2749L173.788 82.4155L175.373 83.9907ZM174.634 82.3487L175.39 85.2003L177.55 84.6279L176.794 81.7762L174.634 82.3487ZM175.36 85.0477L175.738 88.1845L177.957 87.9173L177.579 84.7805L175.36 85.0477ZM175.751 88.2636L176.884 94.1094L179.078 93.684L177.944 87.8382L175.751 88.2636ZM176.864 93.8967V96.178H179.098V93.8967H176.864ZM176.974 96.663L177.73 98.2314L179.743 97.2614L178.988 95.693L176.974 96.663ZM177.846 98.4209L179.358 100.417L181.139 99.0681L179.628 97.0719L177.846 98.4209ZM181.27 100.194L182.026 98.483L179.982 97.5801L179.226 99.2911L181.27 100.194ZM182.065 98.3829L182.82 96.1016L180.699 95.3989L179.943 97.6802L182.065 98.3829ZM182.864 95.9224L183.242 93.4985L181.034 93.1543L180.656 95.5782L182.864 95.9224ZM183.255 93.3264V90.6174H181.02V93.3264H183.255ZM183.244 90.7717L183.622 88.0627L181.409 87.754L181.031 90.463L183.244 90.7717ZM183.621 88.0711L183.999 85.5046L181.788 85.1791L181.41 87.7456L183.621 88.0711ZM184.011 85.3418V82.4902H181.776V85.3418H184.011ZM183.216 83.5599L185.106 82.9895L184.46 80.8503L182.57 81.4206L183.216 83.5599ZM185.867 82.1893L187.001 77.6267L184.832 77.0879L183.698 81.6505L185.867 82.1893ZM186.97 77.7296L187.726 75.5908L185.619 74.8463L184.863 76.985L186.97 77.7296ZM187.538 75.9247L189.05 74.0711L187.318 72.6589L185.806 74.5125L187.538 75.9247ZM187.13 73.7373L187.886 75.876L189.993 75.1315L189.237 72.9928L187.13 73.7373ZM187.952 76.027L189.086 78.1657L191.06 77.1192L189.927 74.9805L187.952 76.027ZM188.975 77.8503L189.353 79.8464L191.549 79.4308L191.171 77.4346L188.975 77.8503ZM189.349 79.8212L189.726 82.1025L191.931 81.7373L191.553 79.456L189.349 79.8212ZM191.444 82.8523L192.956 81.8542L191.725 79.9894L190.213 80.9875L191.444 82.8523ZM192.34 82.0391H194.607V79.8045H192.34V82.0391ZM195.711 81.0973L196.845 73.9682L194.638 73.6173L193.504 80.7464L195.711 81.0973ZM196.369 74.7171L198.258 73.4338L197.003 71.5852L195.113 72.8685L196.369 74.7171ZM196.6 72.9408L197.733 75.6499L199.795 74.7873L198.661 72.0782L196.6 72.9408ZM199.547 76.0162L201.436 74.1626L199.871 72.5674L197.982 74.421L199.547 76.0162ZM201.269 74.2974L204.292 72.3013L203.061 70.4365L200.038 72.4326L201.269 74.2974ZM204.537 72.0816L206.426 69.8003L204.705 68.3749L202.816 70.6562L204.537 72.0816ZM206.683 69.0876V67.6618H204.448V69.0876H206.683ZM206.626 68.0131L207.004 66.8725L204.883 66.1698L204.505 67.3104L206.626 68.0131ZM206.875 67.1382L208.387 64.8569L206.524 63.6227L205.012 65.904L206.875 67.1382ZM208.572 64.2398V63.0992H206.338V64.2398H208.572ZM207.061 64.1446L208.572 64.7149L209.361 62.6241L207.85 62.0538L207.061 64.1446ZM207.932 64.0913L208.688 65.9449L210.757 65.1012L210.001 63.2477L207.932 64.0913ZM208.605 65.5231V66.9489H210.84V65.5231H208.605ZM210.489 67.7616L212.001 66.3358L210.467 64.7103L208.956 66.1361L210.489 67.7616ZM212.001 66.3358L212.756 65.6229L211.223 63.9974L210.467 64.7103L212.001 66.3358ZM211.266 65.6619L212.778 66.9451L214.224 65.2416L212.713 63.9584L211.266 65.6619ZM212.548 66.6763L213.682 68.5299L215.588 67.364L214.454 65.5104L212.548 66.6763ZM213.672 68.5139L214.428 69.7972L216.353 68.6632L215.597 67.3799L213.672 68.5139ZM214.437 69.8131L215.571 71.6667L217.477 70.5008L216.344 68.6472L214.437 69.8131ZM217.238 71.9434L219.127 70.375L217.7 68.6556L215.81 70.224L217.238 71.9434ZM219.508 69.7385L219.886 67.885L217.697 67.4386L217.319 69.2921L219.508 69.7385ZM219.813 68.1132L220.569 66.4022L218.525 65.4994L217.769 67.2103L219.813 68.1132ZM220.664 65.9508V65.0953H218.43V65.9508H220.664ZM219.754 66.1933L222.021 65.7655L221.607 63.5696L219.34 63.9974L219.754 66.1933ZM220.802 65.1409L221.936 67.5648L223.96 66.6181L222.826 64.1942L220.802 65.1409ZM223.271 68.1611L225.16 67.5908L224.514 65.4515L222.625 66.0218L223.271 68.1611ZM224.514 67.5908L226.404 68.1611L227.05 66.0218L225.16 65.4515L224.514 67.5908ZM227.121 68.1368L230.144 66.9962L229.355 64.9054L226.332 66.0461L227.121 68.1368ZM229.273 66.9614L232.296 68.3872L233.249 66.3661L230.226 64.9402L229.273 66.9614ZM233.539 68.1894L235.051 66.7636L233.517 65.138L232.006 66.5638L233.539 68.1894ZM233.961 67.0204L235.851 67.5908L236.496 65.4515L234.607 64.8812L233.961 67.0204ZM235.5 67.413L236.634 68.2685L237.98 66.4848L236.847 65.6293L235.5 67.413ZM237.857 68.349L239.369 67.4935L238.268 65.5487L236.757 66.4042L237.857 68.349ZM239.831 66.9945L240.964 64.5706L238.94 63.6239L237.806 66.0478L239.831 66.9945ZM240.482 65.0808L243.127 63.655L242.067 61.6879L239.422 63.1137L240.482 65.0808ZM243.708 62.7908L244.842 52.2398L242.62 52.0011L241.486 62.5521L243.708 62.7908ZM244.513 52.918L246.403 51.0644L244.838 49.4693L242.948 51.3228L244.513 52.918ZM244.512 50.4068L245.268 56.3952L247.485 56.1154L246.729 50.127L244.512 50.4068ZM245.264 56.3606L245.642 60.3528L247.866 60.1423L247.488 56.15L245.264 56.3606ZM246.159 61.1934L248.426 62.6192L249.616 60.7275L247.349 59.3017L246.159 61.1934ZM249.859 62.4131L250.992 61.1299L249.317 59.6504L248.184 60.9336L249.859 62.4131ZM250.549 61.4355L252.061 60.8652L251.272 58.7744L249.76 59.3448L250.549 61.4355ZM252.731 60.1584L253.865 56.5939L251.735 55.9166L250.601 59.4812L252.731 60.1584ZM253.917 56.2553V52.8333H251.683V56.2553H253.917ZM253.845 53.2289L254.978 50.2347L252.889 49.4435L251.755 52.4377L253.845 53.2289ZM254.994 50.1905L256.128 46.7685L254.006 46.0658L252.873 49.4878L254.994 50.1905ZM253.985 46.6969L255.497 52.5427L257.66 51.9833L256.149 46.1375L253.985 46.6969ZM256.883 53.3381L258.394 52.9104L257.786 50.7602L256.274 51.1879L256.883 53.3381ZM257.216 52.5306L258.349 53.9564L260.098 52.5657L258.965 51.1399L257.216 52.5306ZM258.629 54.2069L259.763 54.9198L260.952 53.0281L259.819 52.3152L258.629 54.2069ZM260.218 55.0826L262.485 55.3677L262.764 53.1506L260.497 52.8654L260.218 55.0826ZM263.363 55.0977L265.63 53.1016L264.153 51.4244L261.886 53.4205L263.363 55.0977ZM263.792 52.4617L264.926 58.7353L267.125 58.3379L265.991 52.0643L263.792 52.4617ZM267.1 58.8443L268.611 53.5688L266.463 52.9533L264.951 58.2288L267.1 58.8443ZM266.676 53.9737L268.566 56.255L270.287 54.8297L268.397 52.5484L266.676 53.9737ZM268.849 56.4989L270.738 57.6395L271.893 55.7265L270.004 54.5858L268.849 56.4989ZM270.221 56.9062L270.977 60.6133L273.166 60.1669L272.41 56.4598L270.221 56.9062ZM271.011 60.7415L272.522 65.3041L274.644 64.6014L273.132 60.0388L271.011 60.7415ZM272.955 65.877L274.844 67.1603L276.1 65.3117L274.211 64.0284L272.955 65.877ZM275.915 67.2619L278.56 66.1213L277.675 64.0693L275.03 65.21L275.915 67.2619ZM278.695 66.0518L280.584 64.9112L279.429 62.9981L277.54 64.1388L278.695 66.0518ZM280.773 64.7674L281.529 64.0545L279.996 62.429L279.24 63.1419L280.773 64.7674ZM280.302 64.2596L282.191 65.1151L283.113 63.0794L281.223 62.2239L280.302 64.2596ZM282.405 65.187L284.294 65.6147L284.788 63.4352L282.899 63.0075L282.405 65.187ZM283.61 65.1421L284.743 66.8531L286.606 65.6188L285.473 63.9079L283.61 65.1421ZM285.745 67.3511L290.279 67.0659L290.139 64.8357L285.605 65.1208L285.745 67.3511ZM289.707 66.9489L290.841 67.5192L291.845 65.523L290.711 64.9527L289.707 66.9489ZM291.845 67.5192L292.979 66.9489L291.974 64.9527L290.841 65.523L291.845 67.5192ZM292.871 66.9962L295.516 65.9981L294.727 63.9074L292.082 64.9054L292.871 66.9962ZM294.679 65.9787L297.324 67.1194L298.209 65.0674L295.564 63.9267L294.679 65.9787ZM297.317 67.116L299.584 68.1141L300.484 66.0688L298.217 65.0708L297.317 67.116ZM299.64 68.1368L301.151 68.7072L301.94 66.6164L300.428 66.0461L299.64 68.1368ZM300.995 68.6341L302.507 69.4896L303.607 67.5449L302.096 66.6894L300.995 68.6341ZM302.535 69.5052L304.424 70.5033L305.468 68.5274L303.579 67.5293L302.535 69.5052ZM303.829 69.5153V71.0837H306.064V69.5153H303.829ZM303.975 71.6355L305.108 73.6316L307.052 72.5281L305.918 70.532L303.975 71.6355ZM305.214 73.786L306.726 75.6395L308.457 74.2273L306.946 72.3737L305.214 73.786ZM308.142 75.9058L309.653 75.0503L308.553 73.1056L307.041 73.961L308.142 75.9058ZM308.38 74.9297L309.891 76.2129L311.338 74.5094L309.826 73.2262L308.38 74.9297Z"
    fill="#44C476" />
  <path d="M0 6L335.196 6" stroke="black" stroke-opacity="0.4" stroke-width="1.11732"
    stroke-dasharray="2.23 2.23" />
  <path d="M0 135.386L335.196 135.386" stroke="black" stroke-opacity="0.4" stroke-width="1.11732"
    stroke-dasharray="2.23 2.23" />
</svg>