<svg width="400" height="171" viewBox="0 0 400 171" fill="none" xmlns="http://www.w3.org/2000/svg">
  <path d="M0 19.6738L335.135 19.6738" stroke="black" stroke-opacity="0.4"
    stroke-width="1.11732"
    stroke-dasharray="2.23 2.23" />
  <path d="M0 149.059L335.135 149.059" stroke="#000" stroke-opacity="0.4" stroke-width="1.11732"
    stroke-dasharray="2.23 2.23" />
  <path
    class="price"
    d="M29.3291 92.6219L29.0737 93.7096L29.1997 93.7392H29.3291V92.6219ZM30.7833 92.6219V93.7392H31.0869L31.3488 93.5855L30.7833 92.6219ZM32.2375 91.7685V90.6512H31.9338L31.6719 90.8048L32.2375 91.7685ZM33.3281 91.7685V92.8858H33.7133L34.0166 92.6484L33.3281 91.7685ZM35.1458 90.3461V89.2288H34.7607L34.4573 89.4662L35.1458 90.3461ZM36.6 90.3461L36.9146 89.274L36.7606 89.2288H36.6V90.3461ZM38.0542 90.7728L38.9047 90.0482L38.6886 89.7946L38.3688 89.7007L38.0542 90.7728ZM39.1449 92.0529L40.1164 91.5011L40.0641 91.409L39.9954 91.3283L39.1449 92.0529ZM39.872 93.333L38.9004 93.8849L38.9691 94.0058L39.0653 94.1062L39.872 93.333ZM40.9626 94.4709L40.156 95.244L41.0459 96.1725L41.8408 95.1616L40.9626 94.4709ZM42.4168 92.6219L41.5438 91.9245L41.5385 91.9312L42.4168 92.6219ZM44.2345 90.3461L45.2184 89.8167L44.417 88.3274L43.3615 89.6488L44.2345 90.3461ZM45.6887 93.0486L44.7048 93.578L45.5823 95.2087L46.6158 93.6722L45.6887 93.0486ZM47.5065 90.3461L48.1377 89.4242L47.2081 88.7878L46.5794 89.7225L47.5065 90.3461ZM48.9606 91.3418L49.6989 90.5031L49.6479 90.4582L49.5919 90.4198L48.9606 91.3418ZM50.4148 92.6219L49.6766 93.4605L49.8244 93.5907L50.0078 93.6624L50.4148 92.6219ZM52.2326 93.333L51.8255 94.3736L53.2841 94.9442L53.3489 93.3793L52.2326 93.333ZM53.3232 67.0199L54.4396 67.0662L54.4405 67.043V67.0199H53.3232ZM53.3232 63.3218L52.2376 63.0576L52.2059 63.1878V63.3218H53.3232ZM54.0503 60.3349L55.1359 60.5992L55.1498 60.5421L55.1577 60.4839L54.0503 60.3349ZM54.7774 54.9301L55.8848 55.0791L55.8947 55.0049V54.9301H54.7774ZM54.7774 53.0811L55.6885 52.4342L53.6601 49.5774V53.0811H54.7774ZM56.5951 55.6413H57.7125V55.2849L57.5062 54.9944L56.5951 55.6413ZM56.5951 58.0592H55.4778V58.1933L55.5095 58.3235L56.5951 58.0592ZM57.3222 61.0461H58.4396V60.9121L58.4079 60.7818L57.3222 61.0461ZM57.3222 62.7529H56.2049V64.3898L57.7293 63.7934L57.3222 62.7529ZM59.8671 61.7573L60.847 61.2205L60.375 60.3588L59.46 60.7168L59.8671 61.7573ZM60.9577 63.7485H62.075V63.4626L61.9377 63.2118L60.9577 63.7485ZM60.9577 65.1709H59.8404V65.6759L60.2195 66.0095L60.9577 65.1709ZM62.4119 66.451L61.6736 67.2896L61.754 67.3604L61.8464 67.4146L62.4119 66.451ZM63.8661 67.3044L63.3006 68.268L64.152 68.7677L64.7527 67.9843L63.8661 67.3044ZM64.9567 65.882L65.8434 66.5619L66.0741 66.2611V65.882H64.9567ZM64.9567 64.8864L65.6001 63.9729L63.8394 62.733V64.8864H64.9567ZM66.7745 66.1665L66.1311 67.08L66.5007 67.3403L66.9472 67.2704L66.7745 66.1665ZM68.5922 65.882L68.765 66.9859L69.0148 66.9468L69.2234 66.804L68.5922 65.882ZM70.0464 64.8864H71.1637V62.7673L69.4152 63.9645L70.0464 64.8864ZM70.0464 67.3044H68.9291V67.502L68.9969 67.6876L70.0464 67.3044ZM72.5912 74.2738H73.7086V74.0762L73.6408 73.8906L72.5912 74.2738ZM72.5912 82.2389H71.4739V82.3035L71.4814 82.3678L72.5912 82.2389ZM73.3183 88.4971L72.2085 88.6261L72.2151 88.6833L72.2276 88.7395L73.3183 88.4971ZM74.7725 95.0398L73.6818 95.2823L74.5457 99.1691L75.8301 95.4003L74.7725 95.0398ZM76.2267 90.7728L77.1682 90.1712L75.9181 88.2148L75.1691 90.4124L76.2267 90.7728ZM77.6809 93.0486L76.7394 93.6502L77.3186 94.5567L78.2464 94.0122L77.6809 93.0486ZM79.8622 91.7685L80.9585 91.5529L80.6547 90.0079L79.2967 90.8048L79.8622 91.7685ZM80.5893 95.4665L79.493 95.6821L79.503 95.7329L79.5176 95.7826L80.5893 95.4665ZM81.6799 99.1646L80.6082 99.4807L80.6148 99.503L80.6223 99.525L81.6799 99.1646ZM82.407 101.298L81.3494 101.659L82.291 104.421L83.435 101.736L82.407 101.298ZM84.2248 97.0311V95.9138H83.4863L83.1968 96.5932L84.2248 97.0311ZM86.406 97.0311V98.1484H86.4786L86.5505 98.139L86.406 97.0311ZM88.5873 96.7466L88.7318 97.8546L89.035 97.815L89.2759 97.6266L88.5873 96.7466ZM90.7686 95.0398L91.7402 94.488L91.1003 93.3616L90.0801 94.1599L90.7686 95.0398ZM91.4957 96.3199L90.5242 96.8718L91.0348 97.7707L91.9706 97.3313L91.4957 96.3199ZM93.3135 95.4665V94.3492H93.0642L92.8386 94.4551L93.3135 95.4665ZM95.1312 95.4665V96.5838H95.7432L96.0727 96.0682L95.1312 95.4665ZM96.2218 93.7597L96.4363 92.6632L95.6899 92.5172L95.2803 93.1581L96.2218 93.7597ZM97.676 94.0442L98.6175 93.4426L98.36 93.0395L97.8905 92.9477L97.676 94.0442ZM99.1302 96.3199L98.1887 96.9216L99.27 98.6137L100.138 96.8028L99.1302 96.3199ZM100.221 94.0442L101.228 94.5271L101.281 94.4165L101.309 94.2971L100.221 94.0442ZM100.584 92.4796L101.15 91.516L99.8399 90.7472L99.4961 92.2267L100.584 92.4796ZM102.039 93.333L101.473 94.2967L101.793 94.4847L102.163 94.4434L102.039 93.333ZM104.583 93.0486L105.12 92.0686L104.81 91.8989L104.459 91.9382L104.583 93.0486ZM106.401 94.0442L107.274 93.3469L107.134 93.1719L106.938 93.0643L106.401 94.0442ZM108.219 96.3199L107.346 97.0172L107.896 97.7059L108.694 97.3313L108.219 96.3199ZM110.037 95.4665L110.725 94.5866L110.184 94.1631L109.562 94.4551L110.037 95.4665ZM111.127 96.3199L112.107 95.7832L111.997 95.5816L111.816 95.44L111.127 96.3199ZM112.218 98.3112L113.213 97.8026L113.206 97.7884L113.198 97.7745L112.218 98.3112ZM112.945 99.7335L111.95 100.242L112.617 101.546L113.698 100.559L112.945 99.7335ZM115.126 97.7423L115.88 98.5675L115.894 98.5545L115.908 98.541L115.126 97.7423ZM115.853 97.0311L116.497 96.1176L115.737 95.5823L115.072 96.2323L115.853 97.0311ZM117.671 98.3112L118.558 97.6313L118.454 97.4959L118.314 97.3977L117.671 98.3112ZM118.762 99.7335L117.875 100.413L118.762 101.57L119.648 100.413L118.762 99.7335ZM119.852 98.3112L120.739 98.9911L120.786 98.93L120.824 98.863L119.852 98.3112ZM120.58 97.0311L120.835 95.9433L120.021 95.7523L119.608 96.4793L120.58 97.0311ZM122.397 97.4578L123.136 96.6191L122.925 96.4341L122.653 96.37L122.397 97.4578ZM123.851 98.7379L123.113 99.5766L123.43 99.8552H123.851V98.7379ZM125.306 98.7379L126.327 98.284L126.032 97.6206H125.306V98.7379ZM126.76 102.009L125.739 102.463L126.563 104.318L127.689 102.629L126.76 102.009ZM128.941 98.7379L128.128 97.9719L128.063 98.0401L128.011 98.118L128.941 98.7379ZM131.486 96.0355L132.336 95.3109L131.528 94.3615L130.673 95.2695L131.486 96.0355ZM132.94 97.7423L132.09 98.4669L132.123 98.5055L132.159 98.541L132.94 97.7423ZM134.394 99.1646L133.613 99.9634L134.394 100.728L135.176 99.9634L134.394 99.1646ZM136.576 97.0311L137.357 97.8299L137.448 97.7405L137.517 97.6327L136.576 97.0311ZM138.03 94.7554L138.971 95.357L139.147 95.0819V94.7554H138.03ZM138.03 91.3418L136.95 91.0562L136.912 91.1966V91.3418H138.03ZM139.12 87.217V86.0997H138.26L138.04 86.9314L139.12 87.217ZM142.392 87.217H143.51V86.0997H142.392V87.217ZM142.392 90.3461H141.275V90.5631L141.356 90.7643L142.392 90.3461ZM143.483 93.0486H144.6V92.8316L144.519 92.6304L143.483 93.0486ZM143.483 96.3199H142.366V97.4372H143.483V96.3199ZM145.301 96.3199V97.4372H145.817L146.151 97.0445L145.301 96.3199ZM146.391 95.0398L146.267 93.9294L145.828 93.9786L145.541 94.3152L146.391 95.0398ZM148.936 94.7554L149.878 94.1537L149.503 93.5677L148.812 93.645L148.936 94.7554ZM149.3 95.3243L148.358 95.9259L148.688 96.4416H149.3V95.3243ZM151.845 95.3243L152.361 94.3337L152.119 94.207H151.845V95.3243ZM152.935 95.8932L152.418 96.8839L152.967 97.17L153.501 96.8569L152.935 95.8932ZM154.389 95.0398L154.797 93.9993L154.292 93.8018L153.824 94.0762L154.389 95.0398ZM155.844 95.6088L155.437 96.6493L155.884 96.8243L156.318 96.6202L155.844 95.6088ZM157.661 94.7554L158.35 93.8754L157.809 93.4519L157.187 93.744L157.661 94.7554ZM158.752 95.6088L158.063 96.4887L158.192 96.5896L158.345 96.6493L158.752 95.6088ZM159.479 95.8932L159.072 96.9338L159.216 96.9902L159.37 97.0052L159.479 95.8932ZM160.933 96.0355L161.672 95.1968L161.401 94.9586L161.042 94.9235L160.933 96.0355ZM162.387 97.3156L161.649 98.1542L161.797 98.2843L161.98 98.3561L162.387 97.3156ZM163.478 97.7423L163.071 98.7828L163.518 98.9578L163.953 98.7537L163.478 97.7423ZM165.296 96.8889L165.771 97.9003L165.817 97.8785L165.861 97.8525L165.296 96.8889ZM166.75 96.0355L167.814 95.6954L167.389 94.3648L166.185 95.0718L166.75 96.0355ZM167.114 97.1733L166.049 97.5134L166.109 97.6988L166.227 97.8532L167.114 97.1733ZM168.204 98.5957L167.318 99.2756L168.085 100.276L168.986 99.3944L168.204 98.5957ZM168.931 97.8845L169.713 98.6833L169.725 98.6707L169.738 98.6576L168.931 97.8845ZM170.022 96.7466L171.104 96.4699L170.607 94.522L169.215 95.9735L170.022 96.7466ZM170.749 99.5913L171.859 99.4624L171.85 99.3876L171.832 99.3146L170.749 99.5913ZM171.113 102.72L170.003 102.849L170.007 102.888L170.014 102.926L171.113 102.72ZM172.203 108.552H173.321V108.448L173.302 108.347L172.203 108.552ZM172.203 110.828H171.086V111.075L171.19 111.299L172.203 110.828ZM172.93 112.392L171.917 112.863L171.963 112.963L172.028 113.051L172.93 112.392ZM174.385 114.384L173.482 115.042L174.642 116.63L175.412 114.821L174.385 114.384ZM175.112 112.677L176.14 113.115L176.16 113.067L176.176 113.017L175.112 112.677ZM175.839 110.401L176.903 110.741L176.93 110.656L176.944 110.567L175.839 110.401ZM176.202 107.983L177.307 108.149L177.32 108.067V107.983H176.202ZM176.202 105.281L175.095 105.132L175.085 105.206V105.281H176.202ZM176.566 102.578L175.46 102.421L175.458 102.429L176.566 102.578ZM176.929 100.018L178.036 100.175L178.047 100.097V100.018H176.929ZM176.929 97.1733L176.596 96.107L175.812 96.3523V97.1733H176.929ZM178.747 96.6044L179.081 97.6707L179.686 97.4813L179.834 96.8648L178.747 96.6044ZM179.838 92.0529L178.78 91.6925L178.763 91.7419L178.751 91.7926L179.838 92.0529ZM180.565 89.9194L179.687 89.2287L179.569 89.3786L179.507 89.559L180.565 89.9194ZM182.019 88.0704L183.077 87.71L182.413 85.7623L181.141 87.3797L182.019 88.0704ZM182.746 90.2039L181.689 90.5643L181.715 90.6407L181.751 90.7125L182.746 90.2039ZM183.837 92.3374L184.936 92.1367L184.906 91.9751L184.832 91.8288L183.837 92.3374ZM184.2 94.3287L185.304 94.1524L185.302 94.1402L185.299 94.128L184.2 94.3287ZM184.564 96.6044L183.461 96.7807L183.739 98.5233L185.195 97.5263L184.564 96.6044ZM186.018 95.6088V94.4915H185.672L185.387 94.6868L186.018 95.6088ZM188.199 95.6088V96.7261H189.158L189.304 95.7781L188.199 95.6088ZM189.29 88.4971L188.647 87.5836L188.258 87.8575L188.186 88.3277L189.29 88.4971ZM191.108 87.217L192.144 86.7989L191.616 85.4922L190.464 86.3035L191.108 87.217ZM192.198 89.9194L191.162 90.3376L191.8 91.9183L192.995 90.7027L192.198 89.9194ZM194.016 88.0704L193.385 87.1485L193.295 87.2098L193.219 87.2871L194.016 88.0704ZM196.924 86.0791L197.556 87.0011L197.693 86.9068L197.798 86.7765L196.924 86.0791ZM198.742 83.8034L199.615 84.5007L199.86 84.1949V83.8034H198.742ZM198.742 82.3811L197.678 82.041L197.625 82.2069V82.3811H198.742ZM199.106 81.2432L198.164 80.6416L198.086 80.7644L198.041 80.9032L199.106 81.2432ZM200.56 78.9675L201.501 79.5691L201.677 79.294V78.9675H200.56ZM200.56 77.8296L200.967 76.7891L199.443 76.1927V77.8296H200.56ZM202.014 78.3986L203.054 77.9897L202.876 77.5357L202.421 77.358L202.014 78.3986ZM202.741 80.2476H203.859V80.0358L203.781 79.8387L202.741 80.2476ZM202.741 81.6699H201.624V84.3257L203.523 82.4687L202.741 81.6699ZM204.195 80.2476L203.414 79.4488L203.414 79.4488L204.195 80.2476ZM204.923 79.5364L205.661 78.6978L204.883 78.0127L204.141 78.7376L204.923 79.5364ZM206.377 80.8165L207.339 80.2489L207.249 80.0955L207.115 79.9779L206.377 80.8165ZM207.467 82.6656L208.439 82.1137L208.434 82.1058L208.43 82.0979L207.467 82.6656ZM208.194 83.9456L207.223 84.4975L207.227 84.5054L207.232 84.5133L208.194 83.9456ZM209.285 85.7947L208.323 86.3623L209.001 87.513L210.014 86.6415L209.285 85.7947ZM211.103 84.2301L211.832 85.0769L212.125 84.8249L212.199 84.4457L211.103 84.2301ZM211.466 82.3811L210.438 81.9432L210.393 82.0508L210.37 82.1655L211.466 82.3811ZM212.193 80.6743L213.221 81.1122L213.311 80.9024V80.6743H212.193ZM212.193 79.8209L211.979 78.7244L211.076 78.901V79.8209H212.193ZM214.375 79.3942L215.393 78.9348L215.029 78.1277L214.16 78.2977L214.375 79.3942ZM215.465 81.8122L214.447 82.2716L214.854 83.1743L215.799 82.8785L215.465 81.8122ZM217.283 81.2432L217.617 80.1769L217.283 80.0725L216.949 80.1769L217.283 81.2432ZM219.101 81.8122L218.767 82.8785L219.142 82.9958L219.508 82.8527L219.101 81.8122ZM222.009 80.6743L222.5 79.6706L222.059 79.4549L221.602 79.6338L222.009 80.6743ZM224.918 82.0966L224.427 83.1003L225.135 83.4468L225.699 82.8954L224.918 82.0966ZM226.372 80.6743L226.706 79.608L226.068 79.4085L225.591 79.8755L226.372 80.6743ZM228.19 81.2432L228.878 80.3633L228.718 80.2377L228.523 80.1769L228.19 81.2432ZM229.28 82.0966L228.592 82.9766L229.19 83.4449L229.846 83.0603L229.28 82.0966ZM230.734 81.2432L231.3 82.2069L231.607 82.0268L231.753 81.7026L230.734 81.2432ZM231.825 78.8253L231.28 77.8499L230.958 78.0298L230.807 78.3659L231.825 78.8253ZM234.37 77.4029L234.915 78.3782L235.421 78.0952L235.481 77.5181L234.37 77.4029ZM235.461 66.8777L234.664 66.0944L234.389 66.3734L234.349 66.7625L235.461 66.8777ZM237.278 65.0286L238.387 64.8936L238.107 62.5916L236.481 64.2453L237.278 65.0286ZM238.005 71.0024L239.118 70.9009L239.117 70.8841L239.115 70.8674L238.005 71.0024ZM238.369 74.985L237.256 75.0865L237.305 75.6254L237.759 75.9209L238.369 74.985ZM240.55 76.4073L239.94 77.3432L240.763 77.8801L241.401 77.1319L240.55 76.4073ZM241.641 75.1272L241.234 74.0867L240.972 74.1889L240.79 74.4026L241.641 75.1272ZM243.095 74.5583L243.502 75.5988L244.005 75.4021L244.163 74.8859L243.095 74.5583ZM244.186 71.0024L245.254 71.3301L245.303 71.1699V71.0024H244.186ZM244.186 67.5888L243.136 67.2056L243.068 67.3912V67.5888H244.186ZM245.276 64.6019L246.326 64.9852L246.334 64.9637L246.341 64.942L245.276 64.6019ZM246.367 61.1883L247.451 60.918L246.5 57.1021L245.303 60.8483L246.367 61.1883ZM247.821 67.0199L246.737 67.2902L247.019 68.4198L248.136 68.092L247.821 67.0199ZM249.275 66.5932L250.162 65.9133L249.696 65.3054L248.961 65.5211L249.275 66.5932ZM250.366 68.0155L249.479 68.6954L249.596 68.8471L249.756 68.9515L250.366 68.0155ZM251.457 68.7267L252.535 68.4325L252.423 68.0227L252.067 67.7908L251.457 68.7267ZM264.388 113.595L263.295 113.826L263.699 115.736L265.141 114.42L264.388 113.595ZM266.569 111.604L267.67 111.412L267.32 109.405L265.816 110.778L266.569 111.604ZM267.659 117.862L266.559 118.054L268.736 118.159L267.659 117.862ZM269.114 112.599L269.987 111.902L268.62 110.191L268.037 112.302L269.114 112.599ZM270.931 114.875L270.058 115.572L270.177 115.721L270.339 115.822L270.931 114.875ZM272.749 116.013L273.845 115.797L273.752 115.322L273.342 115.066L272.749 116.013ZM273.476 119.711L272.38 119.926L272.392 119.99L272.412 120.051L273.476 119.711ZM274.93 124.262L273.866 124.602L273.98 124.96L274.287 125.176L274.93 124.262ZM276.748 125.542L276.105 126.456L276.624 126.822L277.204 126.562L276.748 125.542ZM279.293 124.405L279.749 125.425L279.82 125.393L279.886 125.352L279.293 124.405ZM281.111 123.267L281.704 124.214L281.806 124.15L281.892 124.065L281.111 123.267ZM281.838 122.555L282.313 121.544L281.611 121.215L281.057 121.757L281.838 122.555ZM283.656 123.409L283.181 124.42L283.286 124.47L283.4 124.497L283.656 123.409ZM285.473 123.836L286.415 123.234L286.17 122.852L285.729 122.748L285.473 123.836ZM286.564 125.542L285.622 126.144L285.978 126.7L286.637 126.657L286.564 125.542ZM290.927 125.258L291.443 124.267L291.166 124.123L290.854 124.143L290.927 125.258ZM292.017 125.827L291.5 126.817L292.017 127.087L292.534 126.817L292.017 125.827ZM293.108 125.258L294.128 124.803L293.644 123.718L292.591 124.267L293.108 125.258ZM295.653 130.966L294.632 131.421L294.806 131.812L295.197 131.986L295.653 130.966ZM298.197 132.104L298.661 131.088L298.654 131.084L298.197 132.104ZM300.379 133.1L299.915 134.116L299.943 134.129L299.972 134.14L300.379 133.1ZM301.833 133.669L302.398 132.705L302.322 132.66L302.24 132.628L301.833 133.669ZM303.287 134.522L302.722 135.486L302.736 135.494L302.75 135.502L303.287 134.522ZM305.105 135.518H306.222V134.856L305.642 134.538L305.105 135.518ZM305.105 137.082H303.988V137.368L304.125 137.619L305.105 137.082ZM306.196 139.073L305.216 139.61L305.26 139.691L305.317 139.764L306.196 139.073ZM307.65 140.923L306.771 141.613L307.374 142.38L308.215 141.886L307.65 140.923ZM309.104 140.069L309.943 139.331L309.334 138.639L308.538 139.105L309.104 140.069ZM323.56 170.027C324.127 170.27 324.784 170.007 325.027 169.44L328.988 160.197C329.231 159.63 328.969 158.973 328.401 158.73C327.834 158.487 327.177 158.75 326.934 159.317L323.413 167.533L315.197 164.012C314.63 163.769 313.973 164.031 313.73 164.599C313.487 165.166 313.75 165.823 314.317 166.066L323.56 170.027ZM257.922 91.1608L256.848 91.4702L256.858 91.5028L256.869 91.5348L257.922 91.1608ZM254.66 82.3811H253.543V82.6537L253.668 82.8957L254.66 82.3811ZM260.035 103.795H258.918V103.958L258.964 104.114L260.035 103.795ZM252.51 72.5861L253.617 72.4365L253.608 72.3632L253.588 72.2919L252.51 72.5861ZM256.306 85.5522L257.379 85.2428L257.349 85.1361L257.297 85.0376L256.306 85.5522ZM263.639 110.064L264.732 109.833L264.645 109.422L264.31 109.171L263.639 110.064ZM253.027 76.4073L251.919 76.5569L251.95 76.7825L252.066 76.9782L253.027 76.4073ZM260.035 97.1071H261.152V96.9145L261.088 96.733L260.035 97.1071ZM258.979 94.1339L257.926 94.508L257.926 94.508L258.979 94.1339ZM257.114 88.3565L258.188 88.0471V88.0471L257.114 88.3565ZM261.405 108.388L260.334 108.708L260.44 109.061L260.735 109.282L261.405 108.388ZM254.66 79.1555H255.777V78.8485L255.621 78.5846L254.66 79.1555ZM313 144.5L313.93 143.88L313.888 143.818L313.839 143.762L313 144.5ZM316 149L317.037 148.585L316.994 148.477L316.93 148.38L316 149ZM25.4383 92.8562L29.0737 93.7096L29.5844 91.5341L25.9489 90.6807L25.4383 92.8562ZM29.3291 93.7392H30.7833V91.5046H29.3291V93.7392ZM31.3488 93.5855L32.803 92.7321L31.6719 90.8048L30.2178 91.6582L31.3488 93.5855ZM32.2375 92.8858H33.3281V90.6512H32.2375V92.8858ZM34.0166 92.6484L35.8344 91.2261L34.4573 89.4662L32.6396 90.8885L34.0166 92.6484ZM35.1458 91.4635H36.6V89.2288H35.1458V91.4635ZM36.2854 91.4183L37.7396 91.845L38.3688 89.7007L36.9146 89.274L36.2854 91.4183ZM37.2037 91.4975L38.2944 92.7775L39.9954 91.3283L38.9047 90.0482L37.2037 91.4975ZM38.1733 92.6048L38.9004 93.8849L40.8435 92.7812L40.1164 91.5011L38.1733 92.6048ZM39.0653 94.1062L40.156 95.244L41.7692 93.6978L40.6786 92.5599L39.0653 94.1062ZM41.8408 95.1616L43.295 93.3126L41.5385 91.9312L40.0844 93.7802L41.8408 95.1616ZM43.2898 93.3192L45.1075 91.0435L43.3615 89.6488L41.5438 91.9246L43.2898 93.3192ZM43.2506 90.8756L44.7048 93.578L46.6726 92.5191L45.2184 89.8167L43.2506 90.8756ZM46.6158 93.6722L48.4336 90.9697L46.5794 89.7225L44.7616 92.425L46.6158 93.6722ZM46.8752 91.2681L48.3294 92.2637L49.5919 90.4198L48.1377 89.4242L46.8752 91.2681ZM48.2224 92.1804L49.6766 93.4605L51.1531 91.7832L49.6989 90.5031L48.2224 92.1804ZM50.0078 93.6624L51.8255 94.3736L52.6397 92.2925L50.8219 91.5814L50.0078 93.6624ZM53.3489 93.3793L54.4396 67.0662L52.2069 66.9736L51.1162 93.2868L53.3489 93.3793ZM54.4405 67.0199V63.3218H52.2059V67.0199H54.4405ZM54.4088 63.5861L55.1359 60.5992L52.9647 60.0707L52.2376 63.0576L54.4088 63.5861ZM55.1577 60.4839L55.8848 55.0791L53.6701 54.7811L52.943 60.186L55.1577 60.4839ZM55.8947 54.9301V53.0811H53.6601V54.9301H55.8947ZM53.8664 53.7279L55.6841 56.2881L57.5062 54.9944L55.6885 52.4342L53.8664 53.7279ZM55.4778 55.6413V58.0592H57.7125V55.6413H55.4778ZM55.5095 58.3235L56.2366 61.3104L58.4079 60.7818L57.6808 57.7949L55.5095 58.3235ZM56.2049 61.0461V62.7529H58.4396V61.0461H56.2049ZM57.7293 63.7934L60.2742 62.7978L59.46 60.7168L56.9152 61.7124L57.7293 63.7934ZM58.8871 62.294L59.9778 64.2853L61.9377 63.2118L60.847 61.2205L58.8871 62.294ZM59.8404 63.7485V65.1709H62.075V63.7485H59.8404ZM60.2195 66.0095L61.6736 67.2896L63.1502 65.6123L61.696 64.3322L60.2195 66.0095ZM61.8464 67.4146L63.3006 68.268L64.4316 66.3407L62.9774 65.4873L61.8464 67.4146ZM64.7527 67.9843L65.8434 66.5619L64.0701 65.2022L62.9794 66.6245L64.7527 67.9843ZM66.0741 65.882V64.8864H63.8394V65.882H66.0741ZM64.3134 65.7999L66.1311 67.08L67.4178 65.253L65.6001 63.9729L64.3134 65.7999ZM66.9472 67.2704L68.765 66.9859L68.4195 64.7782L66.6017 65.0626L66.9472 67.2704ZM69.2234 66.804L70.6776 65.8083L69.4152 63.9645L67.961 64.9601L69.2234 66.804ZM68.9291 64.8864V67.3044H71.1637V64.8864H68.9291ZM68.9969 67.6876L71.5417 74.657L73.6408 73.8906L71.0959 66.9211L68.9969 67.6876ZM71.4739 74.2738V77.9719H73.7086V74.2738H71.4739ZM71.4739 77.9719V82.2389H73.7086V77.9719H71.4739ZM71.4814 82.3678L72.2085 88.6261L74.4282 88.3682L73.7011 82.1099L71.4814 82.3678ZM72.2276 88.7395L73.6818 95.2823L75.8632 94.7974L74.409 88.2547L72.2276 88.7395ZM75.8301 95.4003L77.2843 91.1333L75.1691 90.4124L73.7149 94.6794L75.8301 95.4003ZM75.2852 91.3745L76.7394 93.6502L78.6224 92.4469L77.1682 90.1712L75.2852 91.3745ZM78.2464 94.0122L80.4277 92.7321L79.2967 90.8048L77.1154 92.0849L78.2464 94.0122ZM78.7659 91.984L79.493 95.6821L81.6856 95.251L80.9585 91.5529L78.7659 91.984ZM79.5176 95.7826L80.6082 99.4807L82.7516 98.8485L81.661 95.1505L79.5176 95.7826ZM80.6223 99.525L81.3494 101.659L83.4646 100.938L82.7375 98.8042L80.6223 99.525ZM83.435 101.736L85.2527 97.469L83.1968 96.5932L81.3791 100.86L83.435 101.736ZM84.2248 98.1484H86.406V95.9138H84.2248V98.1484ZM86.5505 98.139L88.7318 97.8546L88.4428 95.6387L86.2616 95.9232L86.5505 98.139ZM89.2759 97.6266L91.4572 95.9198L90.0801 94.1599L87.8988 95.8667L89.2759 97.6266ZM89.7971 95.5917L90.5242 96.8718L92.4672 95.7681L91.7402 94.488L89.7971 95.5917ZM91.9706 97.3313L93.7883 96.4779L92.8386 94.4551L91.0209 95.3085L91.9706 97.3313ZM93.3135 96.5838H95.1312V94.3492H93.3135V96.5838ZM96.0727 96.0682L97.1633 94.3614L95.2803 93.1581L94.1897 94.8649L96.0727 96.0682ZM96.0073 94.8563L97.4615 95.1407L97.8905 92.9477L96.4363 92.6632L96.0073 94.8563ZM96.7345 94.6458L98.1887 96.9216L100.072 95.7183L98.6175 93.4426L96.7345 94.6458ZM100.138 96.8028L101.228 94.5271L99.2133 93.5613L98.1226 95.837L100.138 96.8028ZM101.309 94.2971L101.673 92.7325L99.4961 92.2267L99.1325 93.7913L101.309 94.2971ZM100.019 93.4433L101.473 94.2967L102.604 92.3694L101.15 91.516L100.019 93.4433ZM102.163 94.4434L104.708 94.159L104.459 91.9382L101.914 92.2226L102.163 94.4434ZM104.047 94.0285L105.864 95.0242L106.938 93.0643L105.12 92.0686L104.047 94.0285ZM105.528 94.7415L107.346 97.0172L109.092 95.6226L107.274 93.3469L105.528 94.7415ZM108.694 97.3313L110.511 96.4779L109.562 94.4551L107.744 95.3085L108.694 97.3313ZM109.348 96.3465L110.439 97.1999L111.816 95.44L110.725 94.5866L109.348 96.3465ZM110.147 96.8567L111.238 98.8479L113.198 97.7745L112.107 95.7832L110.147 96.8567ZM111.223 98.8198L111.95 100.242L113.94 99.2249L113.213 97.8026L111.223 98.8198ZM113.698 100.559L115.88 98.5675L114.373 96.9171L112.192 98.9083L113.698 100.559ZM115.908 98.541L116.635 97.8299L115.072 96.2323L114.345 96.9435L115.908 98.541ZM115.21 97.9446L117.028 99.2247L118.314 97.3977L116.497 96.1176L115.21 97.9446ZM116.784 98.9911L117.875 100.413L119.648 99.0536L118.558 97.6313L116.784 98.9911ZM119.648 100.413L120.739 98.9911L118.966 97.6313L117.875 99.0536L119.648 100.413ZM120.824 98.863L121.551 97.5829L119.608 96.4793L118.881 97.7594L120.824 98.863ZM120.324 98.1188L122.142 98.5455L122.653 96.37L120.835 95.9433L120.324 98.1188ZM121.659 98.2965L123.113 99.5766L124.59 97.8992L123.136 96.6191L121.659 98.2965ZM123.851 99.8552H125.306V97.6206H123.851V99.8552ZM124.285 99.1917L125.739 102.463L127.781 101.555L126.327 98.284L124.285 99.1917ZM127.689 102.629L129.871 99.3577L128.011 98.118L125.83 101.389L127.689 102.629ZM129.755 99.5039L132.299 96.8015L130.673 95.2695L128.128 97.9719L129.755 99.5039ZM130.635 96.7601L132.09 98.4669L133.791 97.0176L132.336 95.3109L130.635 96.7601ZM132.159 98.541L133.613 99.9634L135.176 98.3658L133.721 96.9435L132.159 98.541ZM135.176 99.9634L137.357 97.8299L135.794 96.2323L133.613 98.3658L135.176 99.9634ZM137.517 97.6327L138.971 95.357L137.088 94.1537L135.634 96.4295L137.517 97.6327ZM139.147 94.7554V91.3418H136.912V94.7554H139.147ZM139.11 91.6274L140.201 87.5026L138.04 86.9314L136.95 91.0562L139.11 91.6274ZM139.12 88.3343H142.392V86.0997H139.12V88.3343ZM141.275 87.217V90.3461H143.51V87.217H141.275ZM141.356 90.7643L142.447 93.4667L144.519 92.6304L143.428 89.928L141.356 90.7643ZM142.366 93.0486V96.3199H144.6V93.0486H142.366ZM143.483 97.4372H145.301V95.2026H143.483V97.4372ZM146.151 97.0445L147.242 95.7645L145.541 94.3152L144.45 95.5953L146.151 97.0445ZM146.516 96.1502L149.06 95.8658L148.812 93.645L146.267 93.9294L146.516 96.1502ZM147.995 95.357L148.358 95.9259L150.241 94.7227L149.878 94.1537L147.995 95.357ZM149.3 96.4416H151.845V94.207H149.3V96.4416ZM151.328 96.3149L152.418 96.8839L153.452 94.9026L152.361 94.3337L151.328 96.3149ZM153.501 96.8569L154.955 96.0035L153.824 94.0762L152.37 94.9296L153.501 96.8569ZM153.982 96.0804L155.437 96.6493L156.251 94.5682L154.797 93.9993L153.982 96.0804ZM156.318 96.6202L158.136 95.7668L157.187 93.744L155.369 94.5974L156.318 96.6202ZM156.973 95.6353L158.063 96.4887L159.441 94.7288L158.35 93.8754L156.973 95.6353ZM158.345 96.6493L159.072 96.9338L159.886 94.8527L159.159 94.5682L158.345 96.6493ZM159.37 97.0052L160.825 97.1475L161.042 94.9235L159.588 94.7812L159.37 97.0052ZM160.195 96.8741L161.649 98.1542L163.126 96.4769L161.672 95.1968L160.195 96.8741ZM161.98 98.3561L163.071 98.7828L163.885 96.7017L162.795 96.275L161.98 98.3561ZM163.953 98.7537L165.771 97.9003L164.821 95.8775L163.003 96.7309L163.953 98.7537ZM165.861 97.8525L167.316 96.9991L166.185 95.0718L164.73 95.9252L165.861 97.8525ZM165.686 96.3755L166.049 97.5134L168.178 96.8333L167.814 95.6954L165.686 96.3755ZM166.227 97.8532L167.318 99.2756L169.091 97.9158L168 96.4934L166.227 97.8532ZM168.986 99.3944L169.713 98.6833L168.15 97.0857L167.423 97.7969L168.986 99.3944ZM169.738 98.6576L170.829 97.5198L169.215 95.9735L168.125 97.1114L169.738 98.6576ZM168.939 97.0233L169.667 99.868L171.832 99.3146L171.104 96.4699L168.939 97.0233ZM169.639 99.7202L170.003 102.849L172.222 102.591L171.859 99.4624L169.639 99.7202ZM170.014 102.926L171.105 108.757L173.302 108.347L172.211 102.515L170.014 102.926ZM171.086 108.552V110.828H173.321V108.552H171.086ZM171.19 111.299L171.917 112.863L173.944 111.921L173.217 110.357L171.19 111.299ZM172.028 113.051L173.482 115.042L175.287 113.725L173.833 111.733L172.028 113.051ZM175.412 114.821L176.14 113.115L174.084 112.239L173.357 113.946L175.412 114.821ZM176.176 113.017L176.903 110.741L174.774 110.061L174.047 112.337L176.176 113.017ZM176.944 110.567L177.307 108.149L175.097 107.817L174.734 110.235L176.944 110.567ZM177.32 107.983V105.281H175.085V107.983H177.32ZM177.31 105.43L177.673 102.727L175.458 102.429L175.095 105.132L177.31 105.43ZM177.672 102.735L178.036 100.175L175.823 99.8609L175.46 102.421L177.672 102.735ZM178.047 100.018V97.1733H175.812V100.018H178.047ZM177.263 98.2396L179.081 97.6707L178.413 95.5381L176.596 96.107L177.263 98.2396ZM179.834 96.8648L180.924 92.3133L178.751 91.7926L177.661 96.344L179.834 96.8648ZM180.895 92.4134L181.622 90.2799L179.507 89.559L178.78 91.6925L180.895 92.4134ZM181.443 90.6101L182.897 88.7611L181.141 87.3797L179.687 89.2287L181.443 90.6101ZM180.961 88.4308L181.689 90.5643L183.804 89.8435L183.077 87.71L180.961 88.4308ZM181.751 90.7125L182.842 92.846L184.832 91.8288L183.741 89.6953L181.751 90.7125ZM182.738 92.5381L183.101 94.5293L185.299 94.128L184.936 92.1367L182.738 92.5381ZM183.097 94.5049L183.461 96.7807L185.667 96.4281L185.304 94.1524L183.097 94.5049ZM185.195 97.5263L186.649 96.5307L185.387 94.6868L183.933 95.6825L185.195 97.5263ZM186.018 96.7261H188.199V94.4915H186.018V96.7261ZM189.304 95.7781L190.394 88.6665L188.186 88.3277L187.095 95.4394L189.304 95.7781ZM189.933 89.4106L191.751 88.1305L190.464 86.3035L188.647 87.5836L189.933 89.4106ZM190.072 87.6352L191.162 90.3376L193.234 89.5013L192.144 86.7989L190.072 87.6352ZM192.995 90.7027L194.813 88.8537L193.219 87.2871L191.402 89.1362L192.995 90.7027ZM194.647 88.9923L197.556 87.0011L196.293 85.1572L193.385 87.1485L194.647 88.9923ZM197.798 86.7765L199.615 84.5007L197.869 83.1061L196.051 85.3818L197.798 86.7765ZM199.86 83.8034V82.3811H197.625V83.8034H199.86ZM199.807 82.7211L200.17 81.5833L198.041 80.9032L197.678 82.041L199.807 82.7211ZM200.047 81.8448L201.501 79.5691L199.618 78.3659L198.164 80.6416L200.047 81.8448ZM201.677 78.9675V77.8296H199.443V78.9675H201.677ZM200.153 78.8701L201.607 79.4391L202.421 77.358L200.967 76.7891L200.153 78.8701ZM200.974 78.8074L201.701 80.6565L203.781 79.8387L203.054 77.9897L200.974 78.8074ZM201.624 80.2476V81.6699H203.859V80.2476H201.624ZM203.523 82.4687L204.977 81.0463L203.414 79.4488L201.96 80.8712L203.523 82.4687ZM204.977 81.0464L205.704 80.3352L204.141 78.7376L203.414 79.4488L204.977 81.0464ZM204.184 80.3751L205.638 81.6552L207.115 79.9779L205.661 78.6978L204.184 80.3751ZM205.414 81.3842L206.505 83.2332L208.43 82.0979L207.339 80.2489L205.414 81.3842ZM206.496 83.2174L207.223 84.4975L209.166 83.3938L208.439 82.1137L206.496 83.2174ZM207.232 84.5133L208.323 86.3623L210.247 85.227L209.157 83.378L207.232 84.5133ZM210.014 86.6415L211.832 85.0769L210.374 83.3833L208.556 84.9478L210.014 86.6415ZM212.199 84.4457L212.563 82.5966L210.37 82.1655L210.007 84.0146L212.199 84.4457ZM212.494 82.819L213.221 81.1122L211.166 80.2364L210.438 81.9432L212.494 82.819ZM213.311 80.6743V79.8209H211.076V80.6743H213.311ZM212.408 80.9174L214.589 80.4907L214.16 78.2977L211.979 78.7244L212.408 80.9174ZM213.356 79.8536L214.447 82.2716L216.484 81.3528L215.393 78.9348L213.356 79.8536ZM215.799 82.8785L217.617 82.3095L216.949 80.1769L215.132 80.7458L215.799 82.8785ZM216.949 82.3095L218.767 82.8785L219.435 80.7458L217.617 80.1769L216.949 82.3095ZM219.508 82.8527L222.416 81.7148L221.602 79.6338L218.694 80.7716L219.508 82.8527ZM221.518 81.678L224.427 83.1003L225.409 81.0929L222.5 79.6706L221.518 81.678ZM225.699 82.8954L227.153 81.473L225.591 79.8755L224.136 81.2979L225.699 82.8954ZM226.038 81.7406L227.856 82.3095L228.523 80.1769L226.706 79.608L226.038 81.7406ZM227.501 82.1232L228.592 82.9766L229.969 81.2167L228.878 80.3633L227.501 82.1232ZM229.846 83.0603L231.3 82.2069L230.169 80.2796L228.715 81.133L229.846 83.0603ZM231.753 81.7026L232.844 79.2847L230.807 78.3659L229.716 80.7838L231.753 81.7026ZM232.37 79.8006L234.915 78.3782L233.825 76.4276L231.28 77.8499L232.37 79.8006ZM235.481 77.5181L236.572 66.9928L234.349 66.7625L233.259 77.2878L235.481 77.5181ZM236.257 67.661L238.075 65.8119L236.481 64.2453L234.664 66.0944L236.257 67.661ZM236.169 65.1636L236.896 71.1374L239.115 70.8674L238.387 64.8936L236.169 65.1636ZM236.893 71.104L237.256 75.0865L239.482 74.8834L239.118 70.9009L236.893 71.104ZM237.759 75.9209L239.94 77.3432L241.16 75.4714L238.979 74.049L237.759 75.9209ZM241.401 77.1319L242.491 75.8518L240.79 74.4026L239.7 75.6827L241.401 77.1319ZM242.048 76.1677L243.502 75.5988L242.688 73.5177L241.234 74.0867L242.048 76.1677ZM244.163 74.8859L245.254 71.3301L243.117 70.6748L242.027 74.2306L244.163 74.8859ZM245.303 71.0024V67.5888H243.068V71.0024H245.303ZM245.235 67.9721L246.326 64.9852L244.227 64.2187L243.136 67.2056L245.235 67.9721ZM246.341 64.942L247.431 61.5284L245.303 60.8483L244.212 64.2619L246.341 64.942ZM245.283 61.4587L246.737 67.2902L248.905 66.7496L247.451 60.918L245.283 61.4587ZM248.136 68.092L249.59 67.6653L248.961 65.5211L247.507 65.9478L248.136 68.092ZM248.389 67.2731L249.479 68.6954L251.253 67.3357L250.162 65.9133L248.389 67.2731ZM249.756 68.9515L250.846 69.6626L252.067 67.7908L250.976 67.0796L249.756 68.9515ZM265.141 114.42L267.322 112.429L265.816 110.778L263.634 112.77L265.141 114.42ZM265.468 111.795L266.559 118.054L268.76 117.67L267.67 111.412L265.468 111.795ZM268.736 118.159L270.191 112.897L268.037 112.302L266.582 117.564L268.736 118.159ZM268.241 113.296L270.058 115.572L271.804 114.178L269.987 111.902L268.241 113.296ZM270.339 115.822L272.156 116.96L273.342 115.066L271.524 113.928L270.339 115.822ZM271.653 116.228L272.38 119.926L274.573 119.495L273.845 115.797L271.653 116.228ZM272.412 120.051L273.866 124.602L275.995 123.922L274.541 119.371L272.412 120.051ZM274.287 125.176L276.105 126.456L277.391 124.629L275.574 123.349L274.287 125.176ZM277.204 126.562L279.749 125.425L278.837 123.385L276.292 124.522L277.204 126.562ZM279.886 125.352L281.704 124.214L280.518 122.32L278.7 123.457L279.886 125.352ZM281.892 124.065L282.619 123.354L281.057 121.757L280.329 122.468L281.892 124.065ZM281.363 123.567L283.181 124.42L284.13 122.397L282.313 121.544L281.363 123.567ZM283.4 124.497L285.218 124.923L285.729 122.748L283.911 122.321L283.4 124.497ZM284.532 124.437L285.622 126.144L287.505 124.941L286.415 123.234L284.532 124.437ZM286.637 126.657L290.999 126.373L290.854 124.143L286.491 124.427L286.637 126.657ZM290.41 126.249L291.5 126.817L292.534 124.836L291.443 124.267L290.41 126.249ZM292.534 126.817L293.625 126.249L292.591 124.267L291.5 124.836L292.534 126.817ZM292.087 125.713L294.632 131.421L296.673 130.511L294.128 124.803L292.087 125.713ZM295.197 131.986L297.741 133.124L298.654 131.084L296.109 129.946L295.197 131.986ZM297.733 133.12L299.915 134.116L300.843 132.083L298.661 131.088L297.733 133.12ZM299.972 134.14L301.426 134.709L302.24 132.628L300.786 132.059L299.972 134.14ZM301.267 134.632L302.722 135.486L303.853 133.558L302.398 132.705L301.267 134.632ZM302.75 135.502L304.568 136.498L305.642 134.538L303.824 133.542L302.75 135.502ZM303.988 135.518V137.082H306.222V135.518H303.988ZM304.125 137.619L305.216 139.61L307.175 138.537L306.085 136.545L304.125 137.619ZM305.317 139.764L306.771 141.613L308.528 140.232L307.074 138.383L305.317 139.764ZM308.215 141.886L309.669 141.033L308.538 139.105L307.084 139.959L308.215 141.886ZM250.379 69.021L251.432 72.8804L253.588 72.2919L252.535 68.4325L250.379 69.021ZM253.668 82.8957L255.314 86.0669L257.297 85.0376L255.652 81.8664L253.668 82.8957ZM262.546 110.296L263.295 113.826L265.481 113.363L264.732 109.833L262.546 110.296ZM251.403 72.7358L251.919 76.5569L254.134 76.2576L253.617 72.4365L251.403 72.7358ZM256.869 91.5348L257.926 94.508L260.031 93.7598L258.975 90.7867L256.869 91.5348ZM257.926 94.508L258.982 97.4812L261.088 96.733L260.031 93.7598L257.926 94.508ZM255.232 85.8617L256.04 88.6659L258.188 88.0471L257.379 85.2428L255.232 85.8617ZM256.04 88.6659L256.848 91.4702L258.996 90.8513L258.188 88.0471L256.04 88.6659ZM258.918 97.1071V100.451H261.152V97.1071H258.918ZM258.918 100.451V103.795H261.152V100.451H258.918ZM258.964 104.114L260.334 108.708L262.476 108.069L261.106 103.475L258.964 104.114ZM260.735 109.282L262.969 110.958L264.31 109.171L262.075 107.495L260.735 109.282ZM252.066 76.9782L253.7 79.7264L255.621 78.5846L253.987 75.8364L252.066 76.9782ZM253.543 79.1555V82.3811H255.777V79.1555H253.543ZM308.265 140.807L312.161 145.238L313.839 143.762L309.943 139.331L308.265 140.807ZM312.07 145.12L315.07 149.62L316.93 148.38L313.93 143.88L312.07 145.12ZM314.963 149.415L322.963 169.415L325.037 168.585L317.037 148.585L314.963 149.415Z"
    fill="#50D113" />
  <path
    class="price"
    d="M29.3341 92.7186L29.0785 93.8063L29.2046 93.8359H29.3341V92.7186ZM30.7903 92.7186V93.8359H31.0942L31.3563 93.6819L30.7903 92.7186ZM32.2465 91.8631V90.7458H31.9426L31.6806 90.8997L32.2465 91.8631ZM33.3387 91.8631V92.9804H33.7242L34.0277 92.7427L33.3387 91.8631ZM35.1589 90.4372V89.3199H34.7734L34.4699 89.5576L35.1589 90.4372ZM36.6151 90.4372L36.93 89.3652L36.7759 89.3199H36.6151V90.4372ZM38.0713 90.865L38.9222 90.1408L38.7061 89.8869L38.3862 89.7929L38.0713 90.865ZM39.1635 92.1482L40.1353 91.5968L40.083 91.5047L40.0144 91.4241L39.1635 92.1482ZM39.8916 93.4315L38.9198 93.9828L38.9884 94.1038L39.0846 94.2042L39.8916 93.4315ZM40.9838 94.5721L40.1767 95.3448L41.067 96.2747L41.8624 95.2624L40.9838 94.5721ZM42.44 92.7186L41.5666 92.0217L41.5614 92.0283L42.44 92.7186ZM44.2602 90.4372L45.2444 89.9082L44.4428 88.417L43.3868 89.7404L44.2602 90.4372ZM45.7164 93.1463L44.7323 93.6753L45.61 95.3081L46.6438 93.7694L45.7164 93.1463ZM47.5367 90.4372L48.1684 89.5156L47.2382 88.8781L46.6093 89.8141L47.5367 90.4372ZM48.9929 91.4353L49.7316 90.597L49.6806 90.5521L49.6246 90.5137L48.9929 91.4353ZM50.4491 92.7186L49.7104 93.5568L49.8582 93.6871L50.0416 93.7589L50.4491 92.7186ZM52.2693 93.4315L51.8619 94.4718L53.3209 95.0432L53.3857 93.4777L52.2693 93.4315ZM53.3615 67.0539L54.4779 67.1002L54.4788 67.0771V67.0539H53.3615ZM53.3615 63.3468L52.2758 63.0828L52.2442 63.2129V63.3468H53.3615ZM54.0896 60.3526L55.1753 60.6166L55.1892 60.5596L55.197 60.5014L54.0896 60.3526ZM54.8177 54.9345L55.9251 55.0834L55.935 55.0093V54.9345H54.8177ZM54.8177 53.081L55.7291 52.4346L53.7004 49.5743V53.081H54.8177ZM56.638 55.6474H57.7553V55.2914L57.5493 55.0011L56.638 55.6474ZM56.638 58.0713H55.5206V58.2052L55.5523 58.3353L56.638 58.0713ZM57.3661 61.0655H58.4834V60.9316L58.4517 60.8015L57.3661 61.0655ZM57.3661 62.7765H56.2487V64.414L57.7735 63.8169L57.3661 62.7765ZM59.9144 61.7784L60.8946 61.2421L60.4226 60.3794L59.507 60.7381L59.9144 61.7784ZM61.0066 63.7746H62.1239V63.4889L61.9868 63.2383L61.0066 63.7746ZM61.0066 65.2004H59.8893V65.705L60.2679 66.0387L61.0066 65.2004ZM62.4628 66.4836L61.7241 67.3219L61.8045 67.3927L61.8968 67.447L62.4628 66.4836ZM63.919 67.3391L63.353 68.3025L64.2051 68.803L64.806 68.0185L63.919 67.3391ZM65.0111 65.9133L65.8982 66.5927L66.1285 66.292V65.9133H65.0111ZM65.0111 64.9152L65.6549 64.002L63.8938 62.7605V64.9152H65.0111ZM66.8314 66.1985L66.1876 67.1117L66.5574 67.3723L67.0043 67.3023L66.8314 66.1985ZM68.6517 65.9133L68.8246 67.0171L69.0746 66.978L69.2833 66.8349L68.6517 65.9133ZM70.1079 64.9152H71.2252V62.7948L69.4762 63.9936L70.1079 64.9152ZM70.1079 67.3391H68.9905V67.5365L69.0582 67.722L70.1079 67.3391ZM72.6562 74.3256H73.7735V74.1282L73.7059 73.9427L72.6562 74.3256ZM72.6562 82.3101H71.5389V82.3747L71.5464 82.4389L72.6562 82.3101ZM73.3843 88.5837L72.2745 88.7125L72.2811 88.7697L72.2936 88.8258L73.3843 88.5837ZM74.8405 95.1424L73.7498 95.3846L74.6137 99.2757L75.8982 95.5025L74.8405 95.1424ZM76.2967 90.865L77.2385 90.2638L75.988 88.3047L75.239 90.5049L76.2967 90.865ZM77.7529 93.1463L76.8111 93.7475L77.3905 94.6551L78.3189 94.1097L77.7529 93.1463ZM79.9372 91.8631L81.0336 91.6477L80.7299 90.1015L79.3713 90.8997L79.9372 91.8631ZM80.6654 95.5702L79.569 95.7855L79.579 95.8363L79.5936 95.8859L80.6654 95.5702ZM81.7575 99.2773L80.6857 99.5931L80.6923 99.6154L80.6998 99.6374L81.7575 99.2773ZM82.4856 101.416L81.4279 101.776L82.3696 104.542L83.5137 101.854L82.4856 101.416ZM84.3059 97.1386V96.0213H83.5671L83.2778 96.7011L84.3059 97.1386ZM86.4902 97.1386V98.2559H86.5628L86.6348 98.2465L86.4902 97.1386ZM88.6745 96.8534L88.8191 97.9613L89.1226 97.9217L89.3635 97.733L88.6745 96.8534ZM90.8588 95.1424L91.8306 94.5911L91.1906 93.4632L90.1698 94.2628L90.8588 95.1424ZM91.5869 96.4257L90.6151 96.9771L91.1257 97.877L92.0621 97.4369L91.5869 96.4257ZM93.4071 95.5702V94.4529H93.1577L92.9319 94.559L93.4071 95.5702ZM95.2274 95.5702V96.6875H95.8397L96.1692 96.1714L95.2274 95.5702ZM96.3196 93.8592L96.5343 92.7627L95.7873 92.6164L95.3778 93.258L96.3196 93.8592ZM97.7758 94.1444L98.7176 93.5432L98.4601 93.1398L97.9905 93.0479L97.7758 94.1444ZM99.232 96.4257L98.2902 97.0268L99.3717 98.7213L100.24 96.9081L99.232 96.4257ZM100.324 94.1444L101.332 94.6268L101.385 94.5163L101.413 94.397L100.324 94.1444ZM100.688 92.576L101.254 91.6126L99.9435 90.8426L99.5998 92.3233L100.688 92.576ZM102.144 93.4315L101.578 94.3948L101.899 94.5832L102.269 94.5418L102.144 93.4315ZM104.693 93.1463L105.23 92.1666L104.92 91.9966L104.568 92.0359L104.693 93.1463ZM106.513 94.1444L107.386 93.4475L107.247 93.2724L107.05 93.1647L106.513 94.1444ZM108.333 96.4257L107.46 97.1225L108.01 97.8121L108.808 97.4369L108.333 96.4257ZM110.154 95.5702L110.842 94.6906L110.301 94.2663L109.678 94.559L110.154 95.5702ZM111.246 96.4257L112.226 95.8894L112.116 95.6878L111.935 95.5461L111.246 96.4257ZM112.338 98.4218L113.333 97.9137L113.326 97.8995L113.318 97.8855L112.338 98.4218ZM113.066 99.8476L112.071 100.356L112.738 101.661L113.82 100.672L113.066 99.8476ZM115.25 97.8515L116.004 98.6763L116.018 98.6633L116.032 98.6498L115.25 97.8515ZM115.978 97.1386L116.622 96.2254L115.862 95.6892L115.197 96.3402L115.978 97.1386ZM117.799 98.4218L118.686 97.7424L118.582 97.6069L118.442 97.5086L117.799 98.4218ZM118.891 99.8476L118.004 100.527L118.891 101.685L119.778 100.527L118.891 99.8476ZM119.983 98.4218L120.87 99.1012L120.917 99.0401L120.955 98.9732L119.983 98.4218ZM120.711 97.1386L120.967 96.0509L120.152 95.8595L119.739 96.5872L120.711 97.1386ZM122.531 97.5663L123.27 96.728L123.06 96.5427L122.787 96.4786L122.531 97.5663ZM123.987 98.8496L123.249 99.6878L123.565 99.9669H123.987V98.8496ZM125.444 98.8496L126.465 98.3961L126.17 97.7322H125.444V98.8496ZM126.9 102.129L125.879 102.582L126.703 104.439L127.83 102.748L126.9 102.129ZM129.084 98.8496L128.27 98.084L128.206 98.1522L128.154 98.2302L129.084 98.8496ZM131.633 96.1405L132.483 95.4163L131.674 94.4655L130.819 95.375L131.633 96.1405ZM133.089 97.8515L132.238 98.5757L132.271 98.6143L132.307 98.6498L133.089 97.8515ZM134.545 99.2773L133.763 100.076L134.545 100.841L135.327 100.076L134.545 99.2773ZM136.729 97.1386L137.511 97.9369L137.602 97.8475L137.671 97.7398L136.729 97.1386ZM138.185 94.8573L139.127 95.4585L139.303 95.1835V94.8573H138.185ZM138.185 91.4353L137.105 91.15L137.068 91.2902V91.4353H138.185ZM139.278 87.3004V86.1831H138.417L138.197 87.0151L139.278 87.3004ZM142.554 87.3004H143.671V86.1831H142.554V87.3004ZM142.554 90.4372H141.437V90.654L141.518 90.855L142.554 90.4372ZM143.646 93.1463H144.764V92.9296L144.683 92.7285L143.646 93.1463ZM143.646 96.4257H142.529V97.543H143.646V96.4257ZM145.466 96.4257V97.543H145.983L146.317 97.1498L145.466 96.4257ZM146.559 95.1424L146.434 94.0321L145.995 94.0813L145.708 94.4183L146.559 95.1424ZM149.107 94.8573L150.049 94.2561L149.674 93.6695L148.983 93.7469L149.107 94.8573ZM149.471 95.4276L148.529 96.0288L148.859 96.5449H149.471V95.4276ZM152.019 95.4276L152.537 94.4372L152.294 94.3103H152.019V95.4276ZM153.112 95.9979L152.594 96.9883L153.143 97.2751L153.678 96.9613L153.112 95.9979ZM154.568 95.1424L154.975 94.1021L154.47 93.9041L154.002 94.1791L154.568 95.1424ZM156.024 95.7128L155.617 96.7531L156.064 96.9285L156.499 96.724L156.024 95.7128ZM157.844 94.8573L158.533 93.9777L157.992 93.5535L157.369 93.8461L157.844 94.8573ZM158.936 95.7128L158.247 96.5924L158.376 96.6934L158.529 96.7531L158.936 95.7128ZM159.664 95.9979L159.257 97.0383L159.401 97.0948L159.556 97.1099L159.664 95.9979ZM161.121 96.1405L161.859 95.3022L161.589 95.0637L161.23 95.0285L161.121 96.1405ZM162.577 97.4237L161.838 98.262L161.986 98.3923L162.169 98.4641L162.577 97.4237ZM163.669 97.8515L163.262 98.8919L163.709 99.0672L164.144 98.8627L163.669 97.8515ZM165.489 96.996L165.965 98.0072L166.011 97.9854L166.055 97.9594L165.489 96.996ZM166.946 96.1405L168.01 95.8008L167.585 94.469L166.38 95.1771L166.946 96.1405ZM167.31 97.2812L166.245 97.6209L166.304 97.8062L166.423 97.9606L167.31 97.2812ZM168.402 98.707L167.515 99.3864L168.282 100.388L169.183 99.5053L168.402 98.707ZM169.13 97.9941L169.911 98.7924L169.924 98.7798L169.937 98.7668L169.13 97.9941ZM170.222 96.8534L171.305 96.577L170.807 94.6272L169.415 96.0807L170.222 96.8534ZM170.95 99.705L172.06 99.5762L172.051 99.5015L172.033 99.4286L170.95 99.705ZM171.314 102.842L170.204 102.971L170.209 103.009L170.216 103.047L171.314 102.842ZM172.406 108.688H173.524V108.584L173.505 108.482L172.406 108.688ZM172.406 110.969H171.289V111.216L171.393 111.439L172.406 110.969ZM173.134 112.537L172.121 113.008L172.167 113.107L172.232 113.196L173.134 112.537ZM174.591 114.534L173.688 115.192L174.848 116.782L175.619 114.971L174.591 114.534ZM175.319 112.823L176.347 113.26L176.367 113.212L176.383 113.162L175.319 112.823ZM176.047 110.541L177.111 110.881L177.138 110.796L177.152 110.707L176.047 110.541ZM176.411 108.117L177.516 108.283L177.528 108.201V108.117H176.411ZM176.411 105.408L175.303 105.259L175.294 105.334V105.408H176.411ZM176.775 102.699L175.669 102.542L175.668 102.55L176.775 102.699ZM177.139 100.133L178.245 100.29L178.256 100.212V100.133H177.139ZM177.139 97.2812L176.805 96.215L176.022 96.4604V97.2812H177.139ZM178.959 96.7108L179.293 97.777L179.898 97.5875L180.046 96.9709L178.959 96.7108ZM180.051 92.1482L178.994 91.7881L178.977 91.8375L178.965 91.8881L180.051 92.1482ZM180.779 90.0095L179.901 89.3192L179.783 89.4691L179.722 89.6494L180.779 90.0095ZM182.236 88.1559L183.293 87.7958L182.63 85.846L181.357 87.4657L182.236 88.1559ZM182.964 90.2946L181.906 90.6547L181.932 90.731L181.969 90.8028L182.964 90.2946ZM184.056 92.4334L185.155 92.2329L185.126 92.0714L185.051 91.9253L184.056 92.4334ZM184.42 94.4295L185.523 94.2535L185.521 94.2412L185.519 94.2291L184.42 94.4295ZM184.784 96.7108L183.681 96.8869L183.959 98.6309L185.416 97.6325L184.784 96.7108ZM186.24 95.7128V94.5955H185.894L185.609 94.7911L186.24 95.7128ZM188.425 95.7128V96.8301H189.384L189.529 95.882L188.425 95.7128ZM189.517 88.5837L188.873 87.6705L188.484 87.9445L188.412 88.4145L189.517 88.5837ZM191.337 87.3004L192.373 86.8827L191.846 85.5746L190.693 86.3872L191.337 87.3004ZM192.429 90.0095L191.393 90.4273L192.031 92.0097L193.226 90.7924L192.429 90.0095ZM194.249 88.1559L193.618 87.2343L193.528 87.2956L193.452 87.3731L194.249 88.1559ZM197.162 86.1598L197.793 87.0814L197.931 86.9871L198.035 86.8567L197.162 86.1598ZM198.982 83.8785L199.855 84.5754L200.099 84.2696V83.8785H198.982ZM198.982 82.4527L197.918 82.113L197.865 82.2787V82.4527H198.982ZM199.346 81.312L198.404 80.7109L198.326 80.8336L198.282 80.9723L199.346 81.312ZM200.802 79.0307L201.744 79.6319L201.92 79.3569V79.0307H200.802ZM200.802 77.8901L201.21 76.8497L199.685 76.2525V77.8901H200.802ZM202.258 78.4604L203.298 78.0519L203.12 77.5979L202.666 77.42L202.258 78.4604ZM202.987 80.314H204.104V80.1024L204.027 79.9055L202.987 80.314ZM202.987 81.7398H201.869V84.3975L203.768 82.5381L202.987 81.7398ZM204.443 80.314L203.661 79.5156V79.5156L204.443 80.314ZM205.171 79.6011L205.91 78.7628L205.131 78.0765L204.389 78.8027L205.171 79.6011ZM206.627 80.8843L207.59 80.3171L207.499 80.1637L207.366 80.046L206.627 80.8843ZM207.719 82.7378L208.691 82.1865L208.687 82.1785L208.682 82.1706L207.719 82.7378ZM208.447 84.0211L207.476 84.5725L207.48 84.5804L207.485 84.5883L208.447 84.0211ZM209.54 85.8746L208.577 86.4418L209.256 87.594L210.269 86.7211L209.54 85.8746ZM211.36 84.3062L212.089 85.1527L212.382 84.9006L212.456 84.5216L211.36 84.3062ZM211.724 82.4527L210.696 82.0152L210.65 82.1227L210.627 82.2374L211.724 82.4527ZM212.452 80.7417L213.48 81.1792L213.569 80.9696V80.7417H212.452ZM212.452 79.8862L212.237 78.7897L211.335 78.9665V79.8862H212.452ZM214.636 79.4585L215.655 78.9995L215.291 78.1917L214.422 78.362L214.636 79.4585ZM215.728 81.8824L214.71 82.3414L215.117 83.2449L216.062 82.9486L215.728 81.8824ZM217.549 81.312L217.883 80.2458L217.549 80.1412L217.215 80.2458L217.549 81.312ZM219.369 81.8824L219.035 82.9486L219.41 83.0662L219.776 82.9227L219.369 81.8824ZM222.281 80.7417L222.773 79.7382L222.331 79.5222L221.874 79.7013L222.281 80.7417ZM225.194 82.1675L224.702 83.171L225.411 83.5181L225.975 82.9659L225.194 82.1675ZM226.65 80.7417L226.984 79.6755L226.346 79.4756L225.868 79.9434L226.65 80.7417ZM228.47 81.312L229.159 80.4324L228.999 80.3068L228.804 80.2458L228.47 81.312ZM229.562 82.1675L228.873 83.0471L229.472 83.5163L230.128 83.1309L229.562 82.1675ZM231.019 81.312L231.585 82.2754L231.891 82.0953L232.037 81.771L231.019 81.312ZM232.111 78.8882L231.565 77.9131L231.243 78.0931L231.092 78.4292L232.111 78.8882ZM234.659 77.4624L235.205 78.4374L235.711 78.1543L235.77 77.5774L234.659 77.4624ZM235.751 66.9114L234.954 66.1285L234.68 66.4074L234.64 66.7963L235.751 66.9114ZM237.571 65.0578L238.681 64.9229L238.4 62.619L236.774 64.2749L237.571 65.0578ZM238.3 71.0462L239.412 70.9447L239.411 70.928L239.409 70.9113L238.3 71.0462ZM238.664 75.0385L237.551 75.1399L237.6 75.6785L238.053 75.9741L238.664 75.0385ZM240.848 76.4643L240.237 77.3999L241.061 77.9377L241.699 77.1885L240.848 76.4643ZM241.94 75.1811L241.533 74.1407L241.271 74.2431L241.089 74.4569L241.94 75.1811ZM243.396 74.6107L243.804 75.6511L244.306 75.4542L244.465 74.938L243.396 74.6107ZM244.488 71.0462L245.557 71.3735L245.606 71.2135V71.0462H244.488ZM244.488 67.6243L243.439 67.2414L243.371 67.4268V67.6243H244.488ZM245.581 64.6301L246.63 65.0129L246.638 64.9915L246.645 64.9698L245.581 64.6301ZM246.673 61.2081L247.481 60.4367L246.181 59.0743L245.608 60.8684L246.673 61.2081ZM247.98 62.5785L247.172 63.3498L248.053 64.2728L248.852 63.278L247.98 62.5785ZM250.672 59.2265V58.1092H250.136L249.8 58.527L250.672 59.2265ZM252.825 59.2265V60.3438H253.705L253.911 59.4881L252.825 59.2265ZM253.901 54.7572V53.6399H253.021L252.815 54.4956L253.901 54.7572ZM257.13 54.7572V55.8745H257.945L258.194 55.0989L257.13 54.7572ZM258.745 49.7293L259.752 49.2444L258.537 46.7229L257.681 49.3877L258.745 49.7293ZM260.36 53.0813L259.353 53.5662L260.327 55.5888L261.353 53.5919L260.36 53.0813ZM264.665 44.7014L265.659 45.212L265.724 45.0863L265.755 44.9484L264.665 44.7014ZM303.587 4.25879C303.73 3.6585 303.359 3.05599 302.759 2.91307L292.976 0.583921C292.376 0.440993 291.774 0.811764 291.631 1.41206C291.488 2.01236 291.858 2.61486 292.459 2.75779L301.154 4.82814L299.084 13.5236C298.941 14.1239 299.312 14.7264 299.912 14.8693C300.512 15.0123 301.115 14.6415 301.258 14.0412L303.587 4.25879ZM262.513 48.8913L261.519 48.3807V48.3807L262.513 48.8913ZM265.742 39.9528L264.755 39.4284L264.685 39.5602L264.652 39.7058L265.742 39.9528ZM270.5 31L270.316 29.8979L269.772 29.9886L269.513 30.4756L270.5 31ZM276.5 30L276.684 31.1021L277.617 30.9465V30H276.5ZM276.5 20L275.914 19.0484L275.383 19.3756V20H276.5ZM25.438 92.9508L29.0785 93.8063L29.5897 91.6309L25.9492 90.7754L25.438 92.9508ZM29.3341 93.8359H30.7903V91.6012H29.3341V93.8359ZM31.3563 93.6819L32.8125 92.8264L31.6806 90.8997L30.2244 91.7552L31.3563 93.6819ZM32.2465 92.9804H33.3387V90.7458H32.2465V92.9804ZM34.0277 92.7427L35.8479 91.3168L34.4699 89.5576L32.6497 90.9835L34.0277 92.7427ZM35.1589 91.5545H36.6151V89.3199H35.1589V91.5545ZM36.3002 91.5093L37.7564 91.937L38.3862 89.7929L36.93 89.3652L36.3002 91.5093ZM37.2205 91.5891L38.3126 92.8724L40.0144 91.4241L38.9222 90.1408L37.2205 91.5891ZM38.1917 92.6996L38.9198 93.9828L40.8634 92.8801L40.1353 91.5968L38.1917 92.6996ZM39.0846 94.2042L40.1767 95.3448L41.7908 93.7994L40.6986 92.6587L39.0846 94.2042ZM41.8624 95.2624L43.3186 93.4088L41.5614 92.0283L40.1052 93.8819L41.8624 95.2624ZM43.3133 93.4154L45.1336 91.1341L43.3868 89.7404L41.5666 92.0217L43.3133 93.4154ZM43.2761 90.9662L44.7323 93.6753L46.7006 92.6173L45.2444 89.9082L43.2761 90.9662ZM46.6438 93.7694L48.4641 91.0604L46.6093 89.8141L44.789 92.5232L46.6438 93.7694ZM46.905 91.3588L48.3612 92.3569L49.6246 90.5137L48.1684 89.5156L46.905 91.3588ZM48.2542 92.2736L49.7104 93.5568L51.1878 91.8803L49.7316 90.597L48.2542 92.2736ZM50.0416 93.7589L51.8619 94.4718L52.6768 92.3911L50.8566 91.6782L50.0416 93.7589ZM53.3857 93.4777L54.4779 67.1002L52.2451 67.0077L51.153 93.3852L53.3857 93.4777ZM54.4788 67.0539V63.3468H52.2442V67.0539H54.4788ZM54.4472 63.6108L55.1753 60.6166L53.0039 60.0886L52.2758 63.0828L54.4472 63.6108ZM55.197 60.5014L55.9251 55.0834L53.7103 54.7857L52.9822 60.2038L55.197 60.5014ZM55.935 54.9345V53.081H53.7004V54.9345H55.935ZM53.9063 53.7274L55.7266 56.2938L57.5493 55.0011L55.7291 52.4346L53.9063 53.7274ZM55.5206 55.6474V58.0713H57.7553V55.6474H55.5206ZM55.5523 58.3353L56.2804 61.3295L58.4517 60.8015L57.7236 57.8073L55.5523 58.3353ZM56.2487 61.0655V62.7765H58.4834V61.0655H56.2487ZM57.7735 63.8169L60.3219 62.8188L59.507 60.7381L56.9586 61.7361L57.7735 63.8169ZM58.9342 62.3147L60.0264 64.3109L61.9868 63.2383L60.8946 61.2421L58.9342 62.3147ZM59.8893 63.7746V65.2004H62.1239V63.7746H59.8893ZM60.2679 66.0387L61.7241 67.3219L63.2015 65.6453L61.7453 64.3621L60.2679 66.0387ZM61.8968 67.447L63.353 68.3025L64.485 66.3757L63.0287 65.5202L61.8968 67.447ZM64.806 68.0185L65.8982 66.5927L64.1241 65.2338L63.032 66.6597L64.806 68.0185ZM66.1285 65.9133V64.9152H63.8938V65.9133H66.1285ZM64.3674 65.8284L66.1876 67.1117L67.4752 65.2853L65.6549 64.002L64.3674 65.8284ZM67.0043 67.3023L68.8246 67.0171L68.4787 64.8094L66.6585 65.0946L67.0043 67.3023ZM69.2833 66.8349L70.7395 65.8368L69.4762 63.9936L68.02 64.9917L69.2833 66.8349ZM68.9905 64.9152V67.3391H71.2252V64.9152H68.9905ZM69.0582 67.722L71.6065 74.7084L73.7059 73.9427L71.1575 66.9562L69.0582 67.722ZM71.5389 74.3256V78.0327H73.7735V74.3256H71.5389ZM71.5389 78.0327V82.3101H73.7735V78.0327H71.5389ZM71.5464 82.4389L72.2745 88.7125L74.4942 88.4549L73.7661 82.1813L71.5464 82.4389ZM72.2936 88.8258L73.7498 95.3846L75.9313 94.9003L74.4751 88.3415L72.2936 88.8258ZM75.8982 95.5025L77.3544 91.2251L75.239 90.5049L73.7828 94.7824L75.8982 95.5025ZM75.3549 91.4661L76.8111 93.7475L78.6947 92.5451L77.2385 90.2638L75.3549 91.4661ZM78.3189 94.1097L80.5032 92.8264L79.3713 90.8997L77.187 92.1829L78.3189 94.1097ZM78.8409 92.0784L79.569 95.7855L81.7617 95.3549L81.0336 91.6477L78.8409 92.0784ZM79.5936 95.8859L80.6857 99.5931L82.8293 98.9615L81.7371 95.2544L79.5936 95.8859ZM80.6998 99.6374L81.4279 101.776L83.5433 101.056L82.8152 98.9172L80.6998 99.6374ZM83.5137 101.854L85.334 97.5761L83.2778 96.7011L81.4575 100.979L83.5137 101.854ZM84.3059 98.2559H86.4902V96.0213H84.3059V98.2559ZM86.6348 98.2465L88.8191 97.9613L88.5298 95.7455L86.3455 96.0307L86.6348 98.2465ZM89.3635 97.733L91.5478 96.022L90.1698 94.2628L87.9855 95.9738L89.3635 97.733ZM89.887 95.6938L90.6151 96.9771L92.5587 95.8743L91.8306 94.5911L89.887 95.6938ZM92.0621 97.4369L93.8824 96.5814L92.9319 94.559L91.1116 95.4145L92.0621 97.4369ZM93.4071 96.6875H95.2274V94.4529H93.4071V96.6875ZM96.1692 96.1714L97.2614 94.4604L95.3778 93.258L94.2856 94.969L96.1692 96.1714ZM96.1048 94.9557L97.561 95.2409L97.9905 93.0479L96.5343 92.7627L96.1048 94.9557ZM96.834 94.7455L98.2902 97.0268L100.174 95.8245L98.7176 93.5432L96.834 94.7455ZM100.24 96.9081L101.332 94.6268L99.3163 93.6619L98.2242 95.9432L100.24 96.9081ZM101.413 94.397L101.777 92.8286L99.5998 92.3233L99.2357 93.8917L101.413 94.397ZM100.122 93.5394L101.578 94.3948L102.71 92.4681L101.254 91.6126L100.122 93.5394ZM102.269 94.5418L104.817 94.2567L104.568 92.0359L102.02 92.3211L102.269 94.5418ZM104.156 94.126L105.976 95.1241L107.05 93.1647L105.23 92.1666L104.156 94.126ZM105.64 94.8412L107.46 97.1225L109.207 95.7288L107.386 93.4475L105.64 94.8412ZM108.808 97.4369L110.629 96.5814L109.678 94.559L107.858 95.4145L108.808 97.4369ZM109.465 96.4498L110.557 97.3053L111.935 95.5461L110.842 94.6906L109.465 96.4498ZM110.265 96.962L111.358 98.9581L113.318 97.8855L112.226 95.8894L110.265 96.962ZM111.343 98.93L112.071 100.356L114.061 99.3395L113.333 97.9137L111.343 98.93ZM113.82 100.672L116.004 98.6763L114.496 97.0267L112.312 99.0228L113.82 100.672ZM116.032 98.6498L116.76 97.9369L115.197 96.3402L114.469 97.0531L116.032 98.6498ZM115.335 98.0518L117.155 99.335L118.442 97.5086L116.622 96.2254L115.335 98.0518ZM116.912 99.1012L118.004 100.527L119.778 99.1682L118.686 97.7424L116.912 99.1012ZM119.778 100.527L120.87 99.1012L119.096 97.7424L118.004 99.1682L119.778 100.527ZM120.955 98.9732L121.683 97.69L119.739 96.5872L119.011 97.8704L120.955 98.9732ZM120.455 98.2263L122.276 98.654L122.787 96.4786L120.967 96.0509L120.455 98.2263ZM121.793 98.4046L123.249 99.6878L124.726 98.0113L123.27 96.728L121.793 98.4046ZM123.987 99.9669H125.444V97.7322H123.987V99.9669ZM124.422 99.303L125.879 102.582L127.921 101.675L126.465 98.3961L124.422 99.303ZM127.83 102.748L130.014 99.469L128.154 98.2302L125.97 101.51L127.83 102.748ZM129.898 99.6151L132.446 96.9061L130.819 95.375L128.27 98.084L129.898 99.6151ZM130.782 96.8647L132.238 98.5757L133.94 97.1273L132.483 95.4163L130.782 96.8647ZM132.307 98.6498L133.763 100.076L135.327 98.4789L133.87 97.0531L132.307 98.6498ZM135.327 100.076L137.511 97.9369L135.948 96.3402L133.763 98.479L135.327 100.076ZM137.671 97.7398L139.127 95.4585L137.244 94.2561L135.787 96.5374L137.671 97.7398ZM139.303 94.8573V91.4353H137.068V94.8573H139.303ZM139.266 91.7206L140.358 87.5858L138.197 87.0151L137.105 91.15L139.266 91.7206ZM139.278 88.4178H142.554V86.1831H139.278V88.4178ZM141.437 87.3004V90.4372H143.671V87.3004H141.437ZM141.518 90.855L142.61 93.5641L144.683 92.7285L143.59 90.0195L141.518 90.855ZM142.529 93.1463V96.4257H144.764V93.1463H142.529ZM143.646 97.543H145.466V95.3084H143.646V97.543ZM146.317 97.1498L147.41 95.8666L145.708 94.4183L144.616 95.7015L146.317 97.1498ZM146.683 96.2528L149.231 95.9677L148.983 93.7469L146.434 94.0321L146.683 96.2528ZM148.165 95.4585L148.529 96.0288L150.413 94.8264L150.049 94.2561L148.165 95.4585ZM149.471 96.5449H152.019V94.3103H149.471V96.5449ZM151.502 96.418L152.594 96.9883L153.629 95.0075L152.537 94.4372L151.502 96.418ZM153.678 96.9613L155.134 96.1058L154.002 94.1791L152.546 95.0345L153.678 96.9613ZM154.16 96.1828L155.617 96.7531L156.431 94.6724L154.975 94.1021L154.16 96.1828ZM156.499 96.724L158.319 95.8685L157.369 93.8461L155.549 94.7016L156.499 96.724ZM157.155 95.7369L158.247 96.5924L159.625 94.8332L158.533 93.9777L157.155 95.7369ZM158.529 96.7531L159.257 97.0383L160.072 94.9576L159.344 94.6724L158.529 96.7531ZM159.556 97.1099L161.012 97.2525L161.23 95.0285L159.773 94.8859L159.556 97.1099ZM160.382 96.9788L161.838 98.262L163.316 96.5855L161.859 95.3022L160.382 96.9788ZM162.169 98.4641L163.262 98.8919L164.077 96.8111L162.984 96.3834L162.169 98.4641ZM164.144 98.8627L165.965 98.0072L165.014 95.9848L163.194 96.8403L164.144 98.8627ZM166.055 97.9594L167.511 97.1039L166.38 95.1771L164.923 96.0326L166.055 97.9594ZM165.881 96.4802L166.245 97.6209L168.374 96.9415L168.01 95.8008L165.881 96.4802ZM166.423 97.9606L167.515 99.3864L169.289 98.0275L168.197 96.6017L166.423 97.9606ZM169.183 99.5053L169.911 98.7924L168.348 97.1957L167.62 97.9086L169.183 99.5053ZM169.937 98.7668L171.029 97.6262L169.415 96.0807L168.323 97.2213L169.937 98.7668ZM169.139 97.1298L169.867 99.9815L172.033 99.4286L171.305 96.577L169.139 97.1298ZM169.84 99.8339L170.204 102.971L172.424 102.713L172.06 99.5762L169.84 99.8339ZM170.216 103.047L171.308 108.893L173.505 108.482L172.412 102.637L170.216 103.047ZM171.289 108.688V110.969H173.524V108.688H171.289ZM171.393 111.439L172.121 113.008L174.148 112.067L173.42 110.499L171.393 111.439ZM172.232 113.196L173.688 115.192L175.493 113.875L174.037 111.879L172.232 113.196ZM175.619 114.971L176.347 113.26L174.291 112.385L173.562 114.096L175.619 114.971ZM176.383 113.162L177.111 110.881L174.982 110.202L174.254 112.483L176.383 113.162ZM177.152 110.707L177.516 108.283L175.306 107.951L174.942 110.375L177.152 110.707ZM177.528 108.117V105.408H175.294V108.117H177.528ZM177.518 105.557L177.882 102.848L175.668 102.55L175.303 105.259L177.518 105.557ZM177.881 102.856L178.245 100.29L176.033 99.9759L175.669 102.542L177.881 102.856ZM178.256 100.133V97.2812H176.022V100.133H178.256ZM177.473 98.3474L179.293 97.777L178.625 95.6446L176.805 96.215L177.473 98.3474ZM180.046 96.9709L181.138 92.4083L178.965 91.8881L177.873 96.4507L180.046 96.9709ZM181.109 92.5083L181.837 90.3696L179.722 89.6494L178.994 91.7881L181.109 92.5083ZM181.658 90.6997L183.114 88.8462L181.357 87.4657L179.901 89.3192L181.658 90.6997ZM181.178 88.516L181.906 90.6547L184.021 89.9346L183.293 87.7958L181.178 88.516ZM181.969 90.8028L183.061 92.9415L185.051 91.9253L183.959 89.7865L181.969 90.8028ZM182.957 92.6339L183.321 94.63L185.519 94.2291L185.155 92.2329L182.957 92.6339ZM183.317 94.6056L183.681 96.8869L185.887 96.5348L185.523 94.2535L183.317 94.6056ZM185.416 97.6325L186.872 96.6344L185.609 94.7911L184.152 95.7892L185.416 97.6325ZM186.24 96.8301H188.425V94.5955H186.24V96.8301ZM189.529 95.882L190.621 88.7529L188.412 88.4145L187.32 95.5436L189.529 95.882ZM190.16 89.4969L191.981 88.2137L190.693 86.3872L188.873 87.6705L190.16 89.4969ZM190.301 87.7182L191.393 90.4273L193.465 89.5917L192.373 86.8827L190.301 87.7182ZM193.226 90.7924L195.047 88.9388L193.452 87.3731L191.632 89.2266L193.226 90.7924ZM194.881 89.0776L197.793 87.0814L196.53 85.2382L193.618 87.2343L194.881 89.0776ZM198.035 86.8567L199.855 84.5754L198.109 83.1816L196.288 85.4629L198.035 86.8567ZM200.099 83.8785V82.4527H197.865V83.8785H200.099ZM200.046 82.7924L200.41 81.6518L198.282 80.9723L197.918 82.113L200.046 82.7924ZM200.288 81.9132L201.744 79.6319L199.86 78.4296L198.404 80.7109L200.288 81.9132ZM201.92 79.0307V77.8901H199.685V79.0307H201.92ZM200.395 78.9305L201.851 79.5008L202.666 77.42L201.21 76.8497L200.395 78.9305ZM201.219 78.8689L201.947 80.7225L204.027 79.9055L203.298 78.0519L201.219 78.8689ZM201.869 80.314V81.7398H204.104V80.314H201.869ZM203.768 82.5381L205.224 81.1123L203.661 79.5156L202.205 80.9414L203.768 82.5381ZM205.224 81.1123L205.953 80.3994L204.389 78.8027L203.661 79.5156L205.224 81.1123ZM204.432 80.4393L205.888 81.7226L207.366 80.046L205.91 78.7628L204.432 80.4393ZM205.664 81.4515L206.757 83.3051L208.682 82.1706L207.59 80.3171L205.664 81.4515ZM206.747 83.2892L207.476 84.5725L209.419 83.4697L208.691 82.1865L206.747 83.2892ZM207.485 84.5883L208.577 86.4418L210.502 85.3074L209.41 83.4539L207.485 84.5883ZM210.269 86.7211L212.089 85.1527L210.63 83.4598L208.81 85.0282L210.269 86.7211ZM212.456 84.5216L212.82 82.668L210.627 82.2374L210.263 84.0909L212.456 84.5216ZM212.752 82.8902L213.48 81.1792L211.424 80.3042L210.696 82.0152L212.752 82.8902ZM213.569 80.7417V79.8862H211.335V80.7417H213.569ZM212.667 80.9827L214.851 80.555L214.422 78.362L212.237 78.7897L212.667 80.9827ZM213.618 79.9175L214.71 82.3414L216.747 81.4234L215.655 78.9995L213.618 79.9175ZM216.062 82.9486L217.883 82.3783L217.215 80.2458L215.394 80.8161L216.062 82.9486ZM217.215 82.3783L219.035 82.9486L219.703 80.8161L217.883 80.2458L217.215 82.3783ZM219.776 82.9227L222.689 81.7821L221.874 79.7013L218.961 80.842L219.776 82.9227ZM221.79 81.7452L224.702 83.171L225.685 81.164L222.773 79.7382L221.79 81.7452ZM225.975 82.9659L227.432 81.5401L225.868 79.9434L224.412 81.3692L225.975 82.9659ZM226.316 81.8079L228.136 82.3783L228.804 80.2458L226.984 79.6755L226.316 81.8079ZM227.781 82.1916L228.873 83.0471L230.251 81.2879L229.159 80.4324L227.781 82.1916ZM230.128 83.1309L231.585 82.2754L230.453 80.3487L228.996 81.2041L230.128 83.1309ZM232.037 81.771L233.129 79.3472L231.092 78.4292L230 80.853L232.037 81.771ZM232.656 79.8632L235.205 78.4374L234.114 76.4873L231.565 77.9131L232.656 79.8632ZM235.77 77.5774L236.863 67.0264L234.64 66.7963L233.548 77.3473L235.77 77.5774ZM236.548 67.6942L238.369 65.8407L236.774 64.2749L234.954 66.1285L236.548 67.6942ZM236.462 65.1926L237.19 71.1811L239.409 70.9113L238.681 64.9229L236.462 65.1926ZM237.187 71.1477L237.551 75.1399L239.776 74.937L239.412 70.9447L237.187 71.1477ZM238.053 75.9741L240.237 77.3999L241.459 75.5286L239.274 74.1028L238.053 75.9741ZM241.699 77.1885L242.791 75.9052L241.089 74.4569L239.997 75.7401L241.699 77.1885ZM242.348 76.2214L243.804 75.6511L242.989 73.5704L241.533 74.1407L242.348 76.2214ZM244.465 74.938L245.557 71.3735L243.42 70.7189L242.328 74.2834L244.465 74.938ZM245.606 71.0462V67.6243H243.371V71.0462H245.606ZM245.538 68.0071L246.63 65.0129L244.531 64.2472L243.439 67.2414L245.538 68.0071ZM246.645 64.9698L247.737 61.5478L245.608 60.8684L244.516 64.2903L246.645 64.9698ZM245.864 61.9795L247.172 63.3498L248.789 61.8071L247.481 60.4367L245.864 61.9795ZM248.852 63.278L251.543 59.926L249.8 58.527L247.109 61.879L248.852 63.278ZM250.672 60.3438H252.825V58.1092H250.672V60.3438ZM253.911 59.4881L254.987 55.0189L252.815 54.4956L251.738 58.9649L253.911 59.4881ZM253.901 55.8745H257.13V53.6399H253.901V55.8745ZM258.194 55.0989L259.809 50.0709L257.681 49.3877L256.066 54.4156L258.194 55.0989ZM257.738 50.2142L259.353 53.5662L261.366 52.5964L259.752 49.2444L257.738 50.2142ZM261.353 53.5919L263.506 49.402L261.519 48.3807L259.366 52.5706L261.353 53.5919ZM263.506 49.402L265.659 45.212L263.672 44.1907L261.519 48.3807L263.506 49.402ZM265.755 44.9484L266.832 40.1998L264.652 39.7058L263.576 44.4544L265.755 44.9484ZM266.729 40.4771L271.487 31.5244L269.513 30.4756L264.755 39.4284L266.729 40.4771ZM270.684 32.1021L276.684 31.1021L276.316 28.8979L270.316 29.8979L270.684 32.1021ZM277.617 30V20H275.383V30H277.617ZM277.086 20.9516L303.086 4.95157L301.914 3.04843L275.914 19.0484L277.086 20.9516Z"
    fill="#50D113" />
</svg>