<svg xmlns="http://www.w3.org/2000/svg" width="16" height="16" viewBox="0 0 16 16" fill="none">
  <g opacity="0.45">
    <path fill-rule="evenodd" clip-rule="evenodd" d="M4.90534 8.08747C5.8001 8.98223 6.99008 9.47426 8.25477 9.47426C9.51947 9.47426 10.7094 8.98223 11.6042 8.08565C12.499 7.19089 12.991 6.00091 12.991 4.73622C12.991 3.47153 12.499 2.28155 11.6042 1.38679C10.7094 0.492027 9.51947 0 8.25477 0C6.99008 0 5.8001 0.49385 4.90534 1.38861C4.01058 2.28337 3.51855 3.47335 3.51855 4.73804C3.51855 6.00273 4.01058 7.19271 4.90534 8.08747ZM4.9746 4.73811C4.9746 2.92854 6.44703 1.45793 8.25478 1.45793C10.0625 1.45793 11.535 2.92854 11.535 4.73811C11.535 6.54768 10.0625 8.01829 8.25478 8.01829C6.44521 8.01829 4.9746 6.54768 4.9746 4.73811Z" fill="black"/>
    <path d="M14.7804 15.9992C14.3777 15.9992 14.0515 15.673 14.0515 15.2703C14.0515 12.0739 11.451 9.47348 8.25467 9.47348C5.05831 9.47348 2.45786 12.0739 2.45786 15.2703C2.45786 15.673 2.13166 15.9992 1.72893 15.9992C1.3262 15.9992 1 15.673 1 15.2703C1 14.2917 1.19134 13.3405 1.57039 12.4457C1.93667 11.5819 2.45786 10.8056 3.12483 10.1405C3.78998 9.47531 4.56629 8.9523 5.43007 8.58601C6.32483 8.20697 7.27426 8.01562 8.25467 8.01562C9.23326 8.01562 10.1845 8.20697 11.0793 8.58601C11.9431 8.9523 12.7194 9.47348 13.3845 10.1405C14.0497 10.8074 14.5727 11.5819 14.939 12.4457C15.318 13.3405 15.5093 14.2899 15.5093 15.2703C15.5093 15.673 15.1831 15.9992 14.7804 15.9992Z" fill="black"/>
  </g>
</svg>