<svg xmlns="http://www.w3.org/2000/svg" width="14" height="16" viewBox="0 0 14 16" fill="none">
  <path d="M7.00908 0C3.46215 0 0.563718 2.81651 0.547862 6.27835C0.545497 7.55927 0.945368 8.80862 1.69106 9.85012L1.69476 9.85593C1.73156 9.92073 1.77457 9.9818 1.82319 10.0383L6.04241 15.5349C6.15512 15.6797 6.29941 15.7969 6.46428 15.8775C6.62915 15.9581 6.81024 16 6.99375 16C7.17726 16 7.35835 15.9581 7.52322 15.8775C7.68808 15.7969 7.83238 15.6797 7.94509 15.5349L12.1659 10.0335C12.2165 9.97381 12.2613 9.90939 12.2996 9.84113L12.3023 9.83743C13.0404 8.79626 13.4419 7.55402 13.4529 6.27782C13.4555 2.81651 10.5639 0 7.00908 0ZM11.3583 9.18787C11.3535 9.19527 11.3483 9.20214 11.344 9.20954L11.2986 9.28459L11.2944 9.28882C11.2864 9.29834 11.279 9.30732 11.2716 9.31736L6.99058 14.8833L2.71851 9.31736C2.71058 9.30732 2.70266 9.29728 2.69473 9.28829L2.63131 9.18787C2.02261 8.34089 1.69554 7.32401 1.69635 6.28099C1.70903 3.45074 4.09215 1.14796 7.00908 1.14796C9.926 1.14796 12.3075 3.44651 12.3075 6.272C12.2982 7.3184 11.9668 8.33652 11.3583 9.18787Z" fill="#8C8C8C"/>
  <path d="M7.00161 3.51953C6.46465 3.51964 5.93978 3.67896 5.49337 3.97735C5.04695 4.27575 4.69904 4.69982 4.49363 5.19593C4.28822 5.69205 4.23452 6.23793 4.33934 6.76456C4.44416 7.29119 4.70279 7.77492 5.08251 8.15457C5.46224 8.53422 5.94601 8.79275 6.47266 8.89747C6.99931 9.00218 7.54519 8.94838 8.04126 8.74287C8.53734 8.53736 8.96134 8.18937 9.25964 7.7429C9.55795 7.29643 9.71717 6.77152 9.71717 6.23456C9.71633 5.51466 9.42994 4.82449 8.92085 4.31549C8.41175 3.80649 7.72152 3.52023 7.00161 3.51953ZM7.00161 7.85343C6.68183 7.85333 6.36926 7.75843 6.10341 7.58073C5.83755 7.40302 5.63034 7.15049 5.50797 6.85506C5.38559 6.55962 5.35355 6.23454 5.41588 5.92089C5.47822 5.60725 5.63213 5.31912 5.85818 5.09293C6.08422 4.86674 6.37225 4.71263 6.68585 4.65009C6.99945 4.58755 7.32456 4.61939 7.62007 4.74157C7.91559 4.86375 8.16826 5.07079 8.34613 5.33653C8.52401 5.60228 8.61911 5.91478 8.61943 6.23456C8.61887 6.66341 8.44822 7.07453 8.14493 7.37773C7.84164 7.68092 7.43046 7.85143 7.00161 7.85185V7.85343Z" fill="#8C8C8C"/>
</svg>