<svg xmlns="http://www.w3.org/2000/svg" width="29" height="28" viewBox="0 0 29 28" fill="none">
  <g clip-path="url(#clip0_13439_12714)">
    <path d="M23.25 0H5.75C4.35761 0 3.02226 0.553123 2.03769 1.53769C1.05312 2.52226 0.5 3.85761 0.5 5.25L0.5 22.75C0.5 24.1424 1.05312 25.4777 2.03769 26.4623C3.02226 27.4469 4.35761 28 5.75 28H23.25C24.6424 28 25.9777 27.4469 26.9623 26.4623C27.9469 25.4777 28.5 24.1424 28.5 22.75V5.25C28.5 3.85761 27.9469 2.52226 26.9623 1.53769C25.9777 0.553123 24.6424 0 23.25 0ZM26.4 22.75C26.3982 23.5849 26.0657 24.385 25.4753 24.9753C24.885 25.5657 24.0849 25.8982 23.25 25.9H5.75C4.91514 25.8982 4.115 25.5657 3.52466 24.9753C2.93432 24.385 2.60185 23.5849 2.6 22.75V15.155L6.058 11.949C6.17928 11.8317 6.33885 11.7621 6.50734 11.7531C6.67584 11.7441 6.84191 11.7963 6.975 11.9L15.074 18.375C15.6079 18.8081 16.2826 19.0297 16.9694 18.9974C17.6561 18.9651 18.307 18.6813 18.798 18.2L20.723 16.275C20.8528 16.1529 21.0243 16.085 21.2025 16.085C21.3807 16.085 21.5522 16.1529 21.682 16.275L26.4 20.475V22.75ZM26.4 17.64L23.082 14.7C22.5491 14.2237 21.8541 13.9692 21.1396 13.9887C20.4251 14.0083 19.7451 14.3003 19.239 14.805L17.3 16.702C17.1779 16.8231 17.0155 16.895 16.8438 16.904C16.6721 16.9131 16.5031 16.8586 16.369 16.751L8.284 10.269C7.75926 9.85052 7.10167 9.63446 6.43099 9.66015C5.76031 9.68585 5.12118 9.9516 4.63 10.409L2.6 12.292V5.25C2.60185 4.41514 2.93432 3.615 3.52466 3.02466C4.115 2.43432 4.91514 2.10185 5.75 2.1H23.25C24.0849 2.10185 24.885 2.43432 25.4753 3.02466C26.0657 3.615 26.3982 4.41514 26.4 5.25V17.64Z" fill="black"/>
    <path d="M20.7996 4.33203C20.1337 4.33203 19.4827 4.5295 18.929 4.89947C18.3753 5.26944 17.9438 5.7953 17.6889 6.41054C17.4341 7.02577 17.3674 7.70277 17.4973 8.3559C17.6272 9.00903 17.9479 9.60898 18.4188 10.0799C18.8897 10.5507 19.4896 10.8714 20.1428 11.0013C20.7959 11.1313 21.4729 11.0646 22.0881 10.8097C22.7034 10.5549 23.2292 10.1233 23.5992 9.56964C23.9691 9.01594 24.1666 8.36496 24.1666 7.69903C24.1648 6.80662 23.8094 5.95128 23.1784 5.32025C22.5474 4.68921 21.692 4.33388 20.7996 4.33203ZM20.7996 9.23203C20.4964 9.23203 20.2 9.14212 19.9479 8.97367C19.6958 8.80523 19.4993 8.5658 19.3833 8.28569C19.2673 8.00557 19.2369 7.69733 19.2961 7.39996C19.3552 7.10258 19.5012 6.82943 19.7156 6.61504C19.93 6.40064 20.2032 6.25464 20.5005 6.19549C20.7979 6.13634 21.1062 6.16669 21.3863 6.28272C21.6664 6.39875 21.9058 6.59524 22.0743 6.84734C22.2427 7.09944 22.3326 7.39583 22.3326 7.69903C22.3326 8.10561 22.1711 8.49553 21.8836 8.78303C21.5961 9.07052 21.2062 9.23203 20.7996 9.23203Z" fill="black"/>
  </g>
  <defs>
    <clipPath id="clip0_13439_12714">
      <rect width="28" height="28" fill="white" transform="translate(0.5)"/>
    </clipPath>
  </defs>
</svg>