<svg xmlns="http://www.w3.org/2000/svg" width="16" height="17" viewBox="0 0 16 17" fill="none">
  <path fill-rule="evenodd" clip-rule="evenodd" d="M4.90534 8.58747C5.8001 9.48223 6.99008 9.97426 8.25477 9.97426C9.51947 9.97426 10.7094 9.48223 11.6042 8.58565C12.499 7.69089 12.991 6.50091 12.991 5.23622C12.991 3.97153 12.499 2.78155 11.6042 1.88679C10.7094 0.992027 9.51947 0.5 8.25477 0.5C6.99008 0.5 5.8001 0.99385 4.90534 1.88861C4.01058 2.78337 3.51855 3.97335 3.51855 5.23804C3.51855 6.50273 4.01058 7.69271 4.90534 8.58747ZM4.9746 5.23811C4.9746 3.42854 6.44703 1.95793 8.25478 1.95793C10.0625 1.95793 11.535 3.42854 11.535 5.23811C11.535 7.04768 10.0625 8.51829 8.25478 8.51829C6.44521 8.51829 4.9746 7.04768 4.9746 5.23811Z" fill="black"/>
  <path d="M14.7804 16.4992C14.3777 16.4992 14.0515 16.173 14.0515 15.7703C14.0515 12.5739 11.451 9.97348 8.25467 9.97348C5.05831 9.97348 2.45786 12.5739 2.45786 15.7703C2.45786 16.173 2.13166 16.4992 1.72893 16.4992C1.3262 16.4992 1 16.173 1 15.7703C1 14.7917 1.19134 13.8405 1.57039 12.9457C1.93667 12.0819 2.45786 11.3056 3.12483 10.6405C3.78998 9.97531 4.56629 9.4523 5.43007 9.08601C6.32483 8.70697 7.27426 8.51562 8.25467 8.51562C9.23326 8.51562 10.1845 8.70697 11.0793 9.08601C11.9431 9.4523 12.7194 9.97348 13.3845 10.6405C14.0497 11.3074 14.5727 12.0819 14.939 12.9457C15.318 13.8405 15.5093 14.7899 15.5093 15.7703C15.5093 16.173 15.1831 16.4992 14.7804 16.4992Z" fill="black"/>
</svg>