<svg width="633" height="218" viewBox="0 0 633 218" fill="none" xmlns="http://www.w3.org/2000/svg">
  <path
    d="M104.049 6.608C104.635 6.608 105.163 6.704 105.633 6.896C106.102 7.07733 106.497 7.33333 106.817 7.664C107.137 7.984 107.382 8.36267 107.553 8.8C107.723 9.22667 107.809 9.68 107.809 10.16C107.809 10.64 107.723 11.0987 107.553 11.536C107.382 11.9627 107.137 12.3413 106.817 12.672C106.497 12.992 106.102 13.248 105.633 13.44C105.163 13.6213 104.635 13.712 104.049 13.712H101.857V18H99.6327V6.608H104.049ZM101.857 8.592V11.728H103.937C104.449 11.728 104.849 11.584 105.137 11.296C105.435 11.008 105.585 10.6293 105.585 10.16C105.585 9.68 105.435 9.30133 105.137 9.024C104.849 8.736 104.449 8.592 103.937 8.592H101.857ZM116.067 13.824C116.067 14.5813 116.003 15.216 115.875 15.728C115.758 16.2293 115.507 16.6773 115.123 17.072C114.857 17.3493 114.51 17.5893 114.083 17.792C113.667 17.9947 113.15 18.096 112.531 18.096C111.913 18.096 111.395 17.9947 110.979 17.792C110.563 17.5893 110.222 17.3493 109.955 17.072C109.582 16.6667 109.331 16.2133 109.203 15.712C109.075 15.2107 109.011 14.5813 109.011 13.824C109.011 13.0667 109.075 12.4427 109.203 11.952C109.331 11.4507 109.582 10.9973 109.955 10.592C110.222 10.3147 110.563 10.0747 110.979 9.872C111.395 9.66933 111.913 9.568 112.531 9.568C113.15 9.568 113.667 9.66933 114.083 9.872C114.51 10.0747 114.857 10.3147 115.123 10.592C115.497 10.9973 115.747 11.4507 115.875 11.952C116.003 12.4427 116.067 13.0667 116.067 13.824ZM113.987 13.824C113.987 13.3973 113.961 13.008 113.907 12.656C113.854 12.304 113.721 12.0213 113.507 11.808C113.262 11.5627 112.937 11.44 112.531 11.44C112.137 11.44 111.817 11.5627 111.571 11.808C111.358 12.0213 111.225 12.304 111.171 12.656C111.118 13.008 111.091 13.3973 111.091 13.824C111.091 14.2613 111.118 14.656 111.171 15.008C111.225 15.36 111.358 15.6427 111.571 15.856C111.817 16.1013 112.137 16.224 112.531 16.224C112.937 16.224 113.262 16.1013 113.507 15.856C113.721 15.6427 113.854 15.36 113.907 15.008C113.961 14.656 113.987 14.2613 113.987 13.824ZM120.323 9.904H121.795V11.488H120.323V15.488C120.323 15.9893 120.563 16.24 121.043 16.24H121.795V18H120.659C120.232 18 119.864 17.9307 119.555 17.792C119.256 17.6533 119.005 17.472 118.803 17.248C118.611 17.024 118.467 16.7733 118.371 16.496C118.285 16.208 118.243 15.9147 118.243 15.616V11.488H117.363V9.904H118.243V7.44H120.323V9.904ZM126.814 9.568C127.39 9.568 127.902 9.66933 128.35 9.872C128.808 10.064 129.192 10.3413 129.502 10.704C129.811 11.056 130.046 11.4827 130.206 11.984C130.366 12.4747 130.446 13.0133 130.446 13.6V14.48H125.23C125.23 15.024 125.384 15.472 125.694 15.824C126.003 16.1653 126.456 16.336 127.054 16.336C127.512 16.336 127.875 16.272 128.142 16.144C128.408 16.0053 128.67 15.808 128.926 15.552L130.206 16.784C129.992 16.9973 129.779 17.1893 129.566 17.36C129.352 17.52 129.118 17.6587 128.862 17.776C128.616 17.8827 128.344 17.9627 128.046 18.016C127.747 18.0693 127.411 18.096 127.038 18.096C126.536 18.096 126.056 18.032 125.598 17.904C125.139 17.776 124.728 17.552 124.366 17.232C124.003 16.9013 123.715 16.464 123.502 15.92C123.288 15.3653 123.182 14.6667 123.182 13.824C123.182 13.1413 123.267 12.5387 123.438 12.016C123.619 11.4827 123.87 11.0347 124.19 10.672C124.51 10.3093 124.888 10.0373 125.326 9.856C125.774 9.664 126.27 9.568 126.814 9.568ZM126.814 11.296C126.451 11.296 126.152 11.3813 125.918 11.552C125.694 11.712 125.523 11.9147 125.406 12.16C125.331 12.3093 125.283 12.4533 125.262 12.592C125.251 12.72 125.24 12.8747 125.23 13.056H128.382C128.371 12.8747 128.355 12.72 128.334 12.592C128.323 12.4533 128.28 12.3093 128.206 12.16C128.088 11.9147 127.912 11.712 127.678 11.552C127.454 11.3813 127.166 11.296 126.814 11.296ZM136.475 9.568C137.318 9.568 137.974 9.81333 138.443 10.304C138.785 10.6453 139.009 11.0133 139.115 11.408C139.233 11.792 139.291 12.2133 139.291 12.672V18H137.211V12.96C137.211 12.672 137.169 12.432 137.083 12.24C137.009 12.048 136.907 11.8933 136.779 11.776C136.651 11.6587 136.502 11.5733 136.331 11.52C136.171 11.4667 136.006 11.44 135.835 11.44C135.665 11.44 135.494 11.4667 135.323 11.52C135.163 11.5733 135.014 11.6587 134.875 11.776C134.747 11.8933 134.641 12.048 134.555 12.24C134.481 12.432 134.443 12.672 134.443 12.96V18H132.363V9.664H134.395V10.432C134.673 10.144 134.993 9.93067 135.355 9.792C135.718 9.64267 136.091 9.568 136.475 9.568ZM143.807 9.904H145.279V11.488H143.807V15.488C143.807 15.9893 144.047 16.24 144.527 16.24H145.279V18H144.143C143.717 18 143.349 17.9307 143.039 17.792C142.741 17.6533 142.49 17.472 142.287 17.248C142.095 17.024 141.951 16.7733 141.855 16.496C141.77 16.208 141.727 15.9147 141.727 15.616V11.488H140.847V9.904H141.727V7.44H143.807V9.904ZM149.24 18H147.16V9.904H149.24V18ZM149.256 8.24H147.128V6.544H149.256V8.24ZM154.318 9.568C156.686 9.568 157.87 10.5493 157.87 12.512V18H155.838V17.28C155.561 17.5573 155.268 17.76 154.958 17.888C154.66 18.016 154.27 18.08 153.79 18.08C152.862 18.08 152.153 17.8347 151.662 17.344C151.438 17.1093 151.268 16.832 151.15 16.512C151.033 16.192 150.974 15.8453 150.974 15.472C150.974 15.1413 151.033 14.832 151.15 14.544C151.268 14.2453 151.444 13.9893 151.678 13.776C151.913 13.552 152.212 13.376 152.574 13.248C152.937 13.12 153.364 13.056 153.854 13.056H155.79V12.64C155.79 12.1813 155.668 11.8507 155.422 11.648C155.188 11.4347 154.793 11.328 154.238 11.328C153.865 11.328 153.561 11.3867 153.326 11.504C153.092 11.6107 152.862 11.792 152.638 12.048L151.326 10.752C151.732 10.304 152.158 9.99467 152.606 9.824C153.054 9.65333 153.625 9.568 154.318 9.568ZM154.206 14.48C153.385 14.48 152.974 14.8 152.974 15.44C152.974 15.728 153.076 15.9573 153.278 16.128C153.481 16.2987 153.801 16.384 154.238 16.384C154.494 16.384 154.718 16.3627 154.91 16.32C155.102 16.2667 155.289 16.1547 155.47 15.984C155.588 15.8773 155.668 15.744 155.71 15.584C155.764 15.4133 155.79 15.1947 155.79 14.928V14.48H154.206ZM162.113 15.488C162.113 15.7333 162.167 15.92 162.273 16.048C162.391 16.176 162.583 16.24 162.849 16.24H163.649V18H162.465C162.039 18 161.671 17.936 161.361 17.808C161.052 17.6693 160.796 17.488 160.593 17.264C160.401 17.04 160.257 16.784 160.161 16.496C160.076 16.208 160.033 15.9147 160.033 15.616V6.608H162.113V15.488ZM173.438 13.344V18H171.214V13.344L167.806 6.608H170.222L172.35 11.2L174.446 6.608H176.862L173.438 13.344ZM180.162 18H178.082V9.904H180.162V18ZM180.178 8.24H178.05V6.544H180.178V8.24ZM185.704 9.568C186.28 9.568 186.792 9.66933 187.24 9.872C187.699 10.064 188.083 10.3413 188.392 10.704C188.702 11.056 188.936 11.4827 189.096 11.984C189.256 12.4747 189.336 13.0133 189.336 13.6V14.48H184.12C184.12 15.024 184.275 15.472 184.584 15.824C184.894 16.1653 185.347 16.336 185.944 16.336C186.403 16.336 186.766 16.272 187.032 16.144C187.299 16.0053 187.56 15.808 187.816 15.552L189.096 16.784C188.883 16.9973 188.67 17.1893 188.456 17.36C188.243 17.52 188.008 17.6587 187.752 17.776C187.507 17.8827 187.235 17.9627 186.936 18.016C186.638 18.0693 186.302 18.096 185.928 18.096C185.427 18.096 184.947 18.032 184.488 17.904C184.03 17.776 183.619 17.552 183.256 17.232C182.894 16.9013 182.606 16.464 182.392 15.92C182.179 15.3653 182.072 14.6667 182.072 13.824C182.072 13.1413 182.158 12.5387 182.328 12.016C182.51 11.4827 182.76 11.0347 183.08 10.672C183.4 10.3093 183.779 10.0373 184.216 9.856C184.664 9.664 185.16 9.568 185.704 9.568ZM185.704 11.296C185.342 11.296 185.043 11.3813 184.808 11.552C184.584 11.712 184.414 11.9147 184.296 12.16C184.222 12.3093 184.174 12.4533 184.152 12.592C184.142 12.72 184.131 12.8747 184.12 13.056H187.272C187.262 12.8747 187.246 12.72 187.224 12.592C187.214 12.4533 187.171 12.3093 187.096 12.16C186.979 11.9147 186.803 11.712 186.568 11.552C186.344 11.3813 186.056 11.296 185.704 11.296ZM193.254 15.488C193.254 15.7333 193.307 15.92 193.414 16.048C193.531 16.176 193.723 16.24 193.99 16.24H194.79V18H193.606C193.179 18 192.811 17.936 192.502 17.808C192.193 17.6693 191.937 17.488 191.734 17.264C191.542 17.04 191.398 16.784 191.302 16.496C191.217 16.208 191.174 15.9147 191.174 15.616V6.608H193.254V15.488ZM202.941 18H200.909V17.216C200.621 17.536 200.317 17.7653 199.997 17.904C199.677 18.032 199.293 18.096 198.845 18.096C198.429 18.096 198.045 18.032 197.693 17.904C197.341 17.776 197.047 17.5893 196.813 17.344C196.61 17.1413 196.45 16.912 196.333 16.656C196.226 16.3893 196.141 16.1067 196.077 15.808C196.023 15.5093 195.986 15.1947 195.965 14.864C195.954 14.5227 195.949 14.176 195.949 13.824C195.949 13.472 195.954 13.1307 195.965 12.8C195.986 12.4693 196.023 12.1547 196.077 11.856C196.141 11.5573 196.226 11.28 196.333 11.024C196.45 10.7573 196.61 10.5227 196.813 10.32C197.047 10.0747 197.335 9.888 197.677 9.76C198.029 9.632 198.413 9.568 198.829 9.568C199.255 9.568 199.629 9.632 199.949 9.76C200.279 9.87733 200.583 10.0907 200.861 10.4V6.608H202.941V18ZM199.437 11.44C199.127 11.44 198.877 11.504 198.685 11.632C198.503 11.7493 198.365 11.9147 198.269 12.128C198.173 12.3413 198.109 12.5973 198.077 12.896C198.045 13.184 198.029 13.4933 198.029 13.824C198.029 14.1653 198.045 14.4853 198.077 14.784C198.109 15.072 198.173 15.3227 198.269 15.536C198.365 15.7493 198.503 15.92 198.685 16.048C198.877 16.1653 199.127 16.224 199.437 16.224C199.746 16.224 199.991 16.1653 200.173 16.048C200.365 15.92 200.509 15.7493 200.605 15.536C200.711 15.3227 200.781 15.072 200.813 14.784C200.845 14.4853 200.861 14.1653 200.861 13.824C200.861 13.4933 200.845 13.184 200.813 12.896C200.781 12.5973 200.711 12.3413 200.605 12.128C200.509 11.9147 200.365 11.7493 200.173 11.632C199.991 11.504 199.746 11.44 199.437 11.44ZM212.172 18.096C211.671 18.096 211.202 18.0213 210.764 17.872C210.327 17.712 209.948 17.4827 209.628 17.184C209.308 16.8747 209.058 16.5067 208.876 16.08C208.695 15.6427 208.604 15.1413 208.604 14.576C208.604 14.3733 208.62 14.1707 208.652 13.968C208.684 13.7653 208.732 13.552 208.796 13.328C208.871 13.104 208.962 12.8587 209.068 12.592C209.186 12.3253 209.33 12.0213 209.5 11.68L211.98 6.608H214.236L211.852 11.344C211.991 11.28 212.13 11.2373 212.268 11.216C212.418 11.184 212.567 11.168 212.716 11.168C213.1 11.168 213.474 11.248 213.836 11.408C214.199 11.5573 214.519 11.776 214.796 12.064C215.074 12.352 215.298 12.7093 215.468 13.136C215.639 13.552 215.724 14.0213 215.724 14.544C215.724 15.0987 215.634 15.6 215.452 16.048C215.271 16.4853 215.02 16.8587 214.7 17.168C214.38 17.4667 214.002 17.696 213.564 17.856C213.138 18.016 212.674 18.096 212.172 18.096ZM212.172 16.224C212.599 16.224 212.951 16.08 213.228 15.792C213.506 15.504 213.644 15.0933 213.644 14.56C213.644 14.048 213.511 13.6427 213.244 13.344C212.978 13.0453 212.62 12.896 212.172 12.896C211.735 12.896 211.378 13.04 211.1 13.328C210.823 13.616 210.684 14.0267 210.684 14.56C210.684 15.0933 210.823 15.504 211.1 15.792C211.378 16.08 211.735 16.224 212.172 16.224ZM220.86 18.096C220.348 18.096 219.868 18.0213 219.42 17.872C218.982 17.7227 218.598 17.504 218.268 17.216C217.948 16.928 217.692 16.576 217.5 16.16C217.308 15.7333 217.212 15.2427 217.212 14.688C217.212 14.336 217.254 14.0267 217.34 13.76C217.436 13.4933 217.553 13.2587 217.692 13.056C217.83 12.8427 217.98 12.6613 218.14 12.512C218.31 12.3627 218.476 12.2347 218.636 12.128C218.486 12.032 218.337 11.9093 218.188 11.76C218.038 11.6107 217.9 11.44 217.772 11.248C217.654 11.056 217.553 10.8373 217.468 10.592C217.393 10.3467 217.356 10.0693 217.356 9.76C217.356 9.25867 217.446 8.81067 217.628 8.416C217.82 8.01067 218.076 7.66933 218.396 7.392C218.716 7.104 219.084 6.88533 219.5 6.736C219.926 6.58667 220.38 6.512 220.86 6.512C221.329 6.512 221.772 6.58667 222.188 6.736C222.614 6.88533 222.988 7.104 223.308 7.392C223.628 7.66933 223.878 8.01067 224.06 8.416C224.252 8.81067 224.348 9.25867 224.348 9.76C224.348 10.0693 224.305 10.3467 224.22 10.592C224.145 10.8373 224.044 11.056 223.916 11.248C223.798 11.44 223.665 11.6107 223.516 11.76C223.366 11.9093 223.217 12.032 223.068 12.128C223.228 12.2347 223.393 12.3627 223.564 12.512C223.734 12.6613 223.889 12.8427 224.028 13.056C224.166 13.2587 224.278 13.4933 224.364 13.76C224.46 14.0267 224.508 14.336 224.508 14.688C224.508 15.2427 224.412 15.7333 224.22 16.16C224.028 16.576 223.766 16.928 223.436 17.216C223.105 17.504 222.716 17.7227 222.268 17.872C221.83 18.0213 221.361 18.096 220.86 18.096ZM220.86 16.224C221.297 16.224 221.665 16.0747 221.964 15.776C222.273 15.4773 222.428 15.104 222.428 14.656C222.428 14.208 222.273 13.8347 221.964 13.536C221.665 13.2267 221.297 13.072 220.86 13.072C220.412 13.072 220.038 13.2267 219.74 13.536C219.441 13.8347 219.292 14.208 219.292 14.656C219.292 15.104 219.441 15.4773 219.74 15.776C220.038 16.0747 220.412 16.224 220.86 16.224ZM220.86 11.264C221.265 11.264 221.601 11.1307 221.868 10.864C222.134 10.5867 222.268 10.24 222.268 9.824C222.268 9.408 222.134 9.06667 221.868 8.8C221.601 8.52267 221.265 8.384 220.86 8.384C220.454 8.384 220.113 8.52267 219.836 8.8C219.569 9.06667 219.436 9.408 219.436 9.824C219.436 10.24 219.569 10.5867 219.836 10.864C220.113 11.1307 220.454 11.264 220.86 11.264ZM228.651 18H226.283V15.632H228.651V18ZM234.078 18.096C233.62 18.096 233.182 18.0213 232.766 17.872C232.35 17.7227 231.982 17.504 231.662 17.216C231.342 16.928 231.086 16.576 230.894 16.16C230.713 15.7333 230.622 15.248 230.622 14.704V9.904C230.622 9.36 230.713 8.88 230.894 8.464C231.086 8.03733 231.342 7.68 231.662 7.392C231.982 7.104 232.35 6.88533 232.766 6.736C233.182 6.58667 233.62 6.512 234.078 6.512C234.537 6.512 234.974 6.58667 235.39 6.736C235.817 6.88533 236.19 7.104 236.51 7.392C236.83 7.68 237.081 8.03733 237.262 8.464C237.454 8.88 237.55 9.36 237.55 9.904V14.704C237.55 15.248 237.454 15.7333 237.262 16.16C237.081 16.576 236.83 16.928 236.51 17.216C236.19 17.504 235.817 17.7227 235.39 17.872C234.974 18.0213 234.537 18.096 234.078 18.096ZM234.078 16.224C234.494 16.224 234.83 16.0907 235.086 15.824C235.342 15.5467 235.47 15.168 235.47 14.688V9.936C235.47 9.456 235.342 9.07733 235.086 8.8C234.83 8.52267 234.494 8.384 234.078 8.384C233.673 8.384 233.342 8.52267 233.086 8.8C232.83 9.07733 232.702 9.456 232.702 9.936V14.688C232.702 15.168 232.83 15.5467 233.086 15.824C233.342 16.0907 233.673 16.224 234.078 16.224ZM242.782 18.096C242.27 18.096 241.79 18.0213 241.342 17.872C240.904 17.7227 240.52 17.504 240.19 17.216C239.87 16.928 239.614 16.576 239.422 16.16C239.23 15.7333 239.134 15.2427 239.134 14.688C239.134 14.336 239.176 14.0267 239.262 13.76C239.358 13.4933 239.475 13.2587 239.614 13.056C239.752 12.8427 239.902 12.6613 240.062 12.512C240.232 12.3627 240.398 12.2347 240.558 12.128C240.408 12.032 240.259 11.9093 240.11 11.76C239.96 11.6107 239.822 11.44 239.694 11.248C239.576 11.056 239.475 10.8373 239.39 10.592C239.315 10.3467 239.278 10.0693 239.278 9.76C239.278 9.25867 239.368 8.81067 239.55 8.416C239.742 8.01067 239.998 7.66933 240.318 7.392C240.638 7.104 241.006 6.88533 241.422 6.736C241.848 6.58667 242.302 6.512 242.782 6.512C243.251 6.512 243.694 6.58667 244.11 6.736C244.536 6.88533 244.91 7.104 245.23 7.392C245.55 7.66933 245.8 8.01067 245.982 8.416C246.174 8.81067 246.27 9.25867 246.27 9.76C246.27 10.0693 246.227 10.3467 246.142 10.592C246.067 10.8373 245.966 11.056 245.838 11.248C245.72 11.44 245.587 11.6107 245.438 11.76C245.288 11.9093 245.139 12.032 244.99 12.128C245.15 12.2347 245.315 12.3627 245.486 12.512C245.656 12.6613 245.811 12.8427 245.95 13.056C246.088 13.2587 246.2 13.4933 246.286 13.76C246.382 14.0267 246.43 14.336 246.43 14.688C246.43 15.2427 246.334 15.7333 246.142 16.16C245.95 16.576 245.688 16.928 245.358 17.216C245.027 17.504 244.638 17.7227 244.19 17.872C243.752 18.0213 243.283 18.096 242.782 18.096ZM242.782 16.224C243.219 16.224 243.587 16.0747 243.886 15.776C244.195 15.4773 244.35 15.104 244.35 14.656C244.35 14.208 244.195 13.8347 243.886 13.536C243.587 13.2267 243.219 13.072 242.782 13.072C242.334 13.072 241.96 13.2267 241.662 13.536C241.363 13.8347 241.214 14.208 241.214 14.656C241.214 15.104 241.363 15.4773 241.662 15.776C241.96 16.0747 242.334 16.224 242.782 16.224ZM242.782 11.264C243.187 11.264 243.523 11.1307 243.79 10.864C244.056 10.5867 244.19 10.24 244.19 9.824C244.19 9.408 244.056 9.06667 243.79 8.8C243.523 8.52267 243.187 8.384 242.782 8.384C242.376 8.384 242.035 8.52267 241.758 8.8C241.491 9.06667 241.358 9.408 241.358 9.824C241.358 10.24 241.491 10.5867 241.758 10.864C242.035 11.1307 242.376 11.264 242.782 11.264ZM255.789 6.608H257.421L252.029 18H250.397L255.789 6.608ZM250.269 12.48C249.96 12.48 249.661 12.4373 249.373 12.352C249.096 12.256 248.851 12.1173 248.637 11.936C248.424 11.744 248.253 11.5147 248.125 11.248C248.008 10.9707 247.949 10.6507 247.949 10.288V8.704C247.949 8.34133 248.008 8.02667 248.125 7.76C248.253 7.48267 248.424 7.25333 248.637 7.072C248.851 6.88 249.096 6.74133 249.373 6.656C249.661 6.56 249.96 6.512 250.269 6.512C250.579 6.512 250.872 6.56 251.149 6.656C251.437 6.74133 251.688 6.88 251.901 7.072C252.115 7.25333 252.28 7.48267 252.397 7.76C252.525 8.02667 252.589 8.34133 252.589 8.704V10.288C252.589 10.6507 252.525 10.9707 252.397 11.248C252.28 11.5147 252.115 11.744 251.901 11.936C251.688 12.1173 251.437 12.256 251.149 12.352C250.872 12.4373 250.579 12.48 250.269 12.48ZM250.269 11.136C250.515 11.136 250.712 11.0613 250.861 10.912C251.011 10.752 251.085 10.5173 251.085 10.208V8.784C251.085 8.47467 251.011 8.24533 250.861 8.096C250.712 7.94667 250.515 7.872 250.269 7.872C250.024 7.872 249.827 7.94667 249.677 8.096C249.539 8.24533 249.469 8.47467 249.469 8.784V10.208C249.469 10.5173 249.539 10.752 249.677 10.912C249.827 11.0613 250.024 11.136 250.269 11.136ZM257.533 18.096C257.224 18.096 256.925 18.0533 256.637 17.968C256.36 17.872 256.115 17.7333 255.901 17.552C255.688 17.36 255.517 17.1307 255.389 16.864C255.272 16.5867 255.213 16.2667 255.213 15.904V14.32C255.213 13.9573 255.272 13.6427 255.389 13.376C255.517 13.0987 255.688 12.8693 255.901 12.688C256.115 12.496 256.36 12.3573 256.637 12.272C256.925 12.176 257.224 12.128 257.533 12.128C257.843 12.128 258.136 12.176 258.413 12.272C258.701 12.3573 258.952 12.496 259.165 12.688C259.379 12.8693 259.544 13.0987 259.661 13.376C259.789 13.6427 259.853 13.9573 259.853 14.32V15.904C259.853 16.2667 259.789 16.5867 259.661 16.864C259.544 17.1307 259.379 17.36 259.165 17.552C258.952 17.7333 258.701 17.872 258.413 17.968C258.136 18.0533 257.843 18.096 257.533 18.096ZM257.533 16.736C257.779 16.736 257.976 16.6613 258.125 16.512C258.275 16.3627 258.349 16.1333 258.349 15.824V14.4C258.349 14.0907 258.275 13.8613 258.125 13.712C257.976 13.552 257.779 13.472 257.533 13.472C257.288 13.472 257.091 13.552 256.941 13.712C256.792 13.8613 256.717 14.0907 256.717 14.4V15.824C256.717 16.1333 256.792 16.3627 256.941 16.512C257.091 16.6613 257.288 16.736 257.533 16.736Z"
    fill="#44C476" />
  <path
    d="M461.2 82.512C461.797 82.512 462.331 82.6133 462.8 82.816C463.269 83.008 463.68 83.28 464.032 83.632C464.299 83.8987 464.507 84.1707 464.656 84.448C464.816 84.7253 464.933 85.04 465.008 85.392C465.083 85.744 465.131 86.1547 465.152 86.624C465.173 87.0933 465.184 87.6533 465.184 88.304C465.184 88.9547 465.173 89.5147 465.152 89.984C465.131 90.4533 465.083 90.864 465.008 91.216C464.933 91.568 464.816 91.8827 464.656 92.16C464.507 92.4373 464.299 92.7093 464.032 92.976C463.68 93.328 463.269 93.6053 462.8 93.808C462.331 94 461.797 94.096 461.2 94.096C460.603 94.096 460.064 94 459.584 93.808C459.115 93.6053 458.704 93.328 458.352 92.976C458.085 92.7093 457.872 92.4373 457.712 92.16C457.563 91.8827 457.451 91.568 457.376 91.216C457.301 90.864 457.253 90.4533 457.232 89.984C457.221 89.5147 457.216 88.9547 457.216 88.304C457.216 87.6533 457.221 87.0933 457.232 86.624C457.253 86.1547 457.301 85.744 457.376 85.392C457.451 85.04 457.563 84.7253 457.712 84.448C457.872 84.1707 458.085 83.8987 458.352 83.632C458.704 83.28 459.115 83.008 459.584 82.816C460.064 82.6133 460.603 82.512 461.2 82.512ZM461.2 83.6C460.421 83.6 459.765 83.8667 459.232 84.4C459.051 84.5813 458.907 84.7787 458.8 84.992C458.693 85.2053 458.613 85.4613 458.56 85.76C458.507 86.048 458.469 86.4 458.448 86.816C458.437 87.2213 458.432 87.7173 458.432 88.304C458.432 88.8907 458.437 89.392 458.448 89.808C458.469 90.2133 458.507 90.5653 458.56 90.864C458.613 91.152 458.693 91.4027 458.8 91.616C458.907 91.8293 459.051 92.0267 459.232 92.208C459.765 92.7413 460.421 93.008 461.2 93.008C461.979 93.008 462.635 92.7413 463.168 92.208C463.349 92.0267 463.493 91.8293 463.6 91.616C463.707 91.4027 463.787 91.152 463.84 90.864C463.893 90.5653 463.925 90.2133 463.936 89.808C463.957 89.392 463.968 88.8907 463.968 88.304C463.968 87.7173 463.957 87.2213 463.936 86.816C463.925 86.4 463.893 86.048 463.84 85.76C463.787 85.4613 463.707 85.2053 463.6 84.992C463.493 84.7787 463.349 84.5813 463.168 84.4C462.635 83.8667 461.979 83.6 461.2 83.6ZM471.222 86.032C471.628 86.032 471.996 86.096 472.326 86.224C472.657 86.3413 472.929 86.5067 473.142 86.72C473.334 86.912 473.494 87.136 473.622 87.392C473.75 87.648 473.846 87.92 473.91 88.208C473.985 88.496 474.033 88.8 474.054 89.12C474.086 89.4293 474.102 89.744 474.102 90.064C474.102 90.704 474.038 91.3227 473.91 91.92C473.793 92.5067 473.537 93.0027 473.142 93.408C472.929 93.6213 472.657 93.792 472.326 93.92C471.996 94.0373 471.628 94.096 471.222 94.096C470.785 94.096 470.385 94.0267 470.022 93.888C469.67 93.7493 469.329 93.4773 468.998 93.072V97.52H467.846V86.128H468.998V87.056C469.329 86.6507 469.67 86.3787 470.022 86.24C470.374 86.1013 470.774 86.032 471.222 86.032ZM470.982 87.056C470.545 87.056 470.198 87.1413 469.942 87.312C469.686 87.4827 469.484 87.7067 469.334 87.984C469.196 88.2613 469.105 88.5813 469.062 88.944C469.02 89.3067 468.998 89.68 468.998 90.064C468.998 90.448 469.02 90.8213 469.062 91.184C469.105 91.5467 469.196 91.8667 469.334 92.144C469.484 92.4213 469.686 92.6453 469.942 92.816C470.198 92.9867 470.545 93.072 470.982 93.072C471.409 93.072 471.75 92.9867 472.006 92.816C472.273 92.6453 472.476 92.4213 472.614 92.144C472.753 91.8667 472.844 91.5467 472.886 91.184C472.929 90.8213 472.95 90.448 472.95 90.064C472.95 89.68 472.929 89.3067 472.886 88.944C472.844 88.5813 472.753 88.2613 472.614 87.984C472.476 87.7067 472.273 87.4827 472.006 87.312C471.75 87.1413 471.409 87.056 470.982 87.056ZM477.909 86.128H479.589V87.008H477.909V91.856C477.909 92.2293 477.994 92.5173 478.165 92.72C478.336 92.912 478.608 93.008 478.981 93.008H479.589V94H478.773C478.432 94 478.133 93.9467 477.877 93.84C477.632 93.7227 477.424 93.568 477.253 93.376C477.093 93.184 476.97 92.96 476.885 92.704C476.8 92.448 476.757 92.176 476.757 91.888V87.008H475.765V86.128H476.757V83.712H477.909V86.128ZM483.03 94H481.878V86.128H483.03V94ZM483.11 83.888H481.814V82.592H483.11V83.888ZM494.308 86.032C494.735 86.032 495.119 86.096 495.46 86.224C495.802 86.352 496.095 86.5333 496.34 86.768C496.906 87.312 497.188 88.0427 497.188 88.96V94H496.036V89.152C496.036 88.448 495.86 87.9253 495.508 87.584C495.167 87.232 494.698 87.056 494.1 87.056C493.524 87.056 493.05 87.2267 492.676 87.568C492.314 87.9093 492.132 88.3947 492.132 89.024V94H490.98V89.152C490.98 88.448 490.804 87.9253 490.452 87.584C490.111 87.232 489.642 87.056 489.044 87.056C488.447 87.056 487.967 87.232 487.604 87.584C487.252 87.936 487.076 88.4587 487.076 89.152V94H485.924V86.128H487.076V86.992C487.354 86.672 487.679 86.432 488.052 86.272C488.436 86.112 488.852 86.032 489.3 86.032C489.844 86.032 490.319 86.144 490.724 86.368C491.14 86.5813 491.471 86.9067 491.716 87.344C492.335 86.4693 493.199 86.032 494.308 86.032ZM502.451 86.032C503.518 86.032 504.307 86.256 504.819 86.704C505.342 87.152 505.603 87.8027 505.603 88.656V94H504.451V93.248C504.142 93.5573 503.816 93.776 503.475 93.904C503.134 94.032 502.702 94.096 502.179 94.096C501.635 94.096 501.198 94.0427 500.867 93.936C500.536 93.8293 500.232 93.6427 499.955 93.376C499.752 93.184 499.603 92.9493 499.507 92.672C499.411 92.384 499.363 92.0853 499.363 91.776C499.363 91.072 499.598 90.5173 500.067 90.112C500.536 89.7067 501.214 89.504 502.099 89.504H504.451V88.752C504.451 88.176 504.296 87.744 503.987 87.456C503.688 87.168 503.171 87.024 502.435 87.024C501.934 87.024 501.539 87.0933 501.251 87.232C500.963 87.3707 500.696 87.6053 500.451 87.936L499.667 87.216C500.008 86.7573 500.392 86.448 500.819 86.288C501.256 86.1173 501.8 86.032 502.451 86.032ZM502.259 90.368C501.075 90.368 500.483 90.832 500.483 91.76C500.483 92.2187 500.627 92.56 500.915 92.784C501.203 92.9973 501.667 93.104 502.307 93.104C502.638 93.104 502.947 93.0773 503.235 93.024C503.523 92.96 503.795 92.8107 504.051 92.576C504.318 92.32 504.451 91.8667 504.451 91.216V90.368H502.259ZM509.529 91.856C509.529 92.24 509.603 92.528 509.753 92.72C509.902 92.912 510.179 93.008 510.585 93.008H511.209V94H510.377C509.683 94 509.177 93.8027 508.857 93.408C508.537 93.0027 508.377 92.5013 508.377 91.904V82.608H509.529V91.856ZM527.111 94H525.895V85.344L522.775 92.208H521.735L518.567 85.344V94H517.351V82.608H518.567L522.279 90.688L525.895 82.608H527.111V94ZM532.67 86.032C533.736 86.032 534.526 86.256 535.038 86.704C535.56 87.152 535.822 87.8027 535.822 88.656V94H534.67V93.248C534.36 93.5573 534.035 93.776 533.694 93.904C533.352 94.032 532.92 94.096 532.398 94.096C531.854 94.096 531.416 94.0427 531.086 93.936C530.755 93.8293 530.451 93.6427 530.174 93.376C529.971 93.184 529.822 92.9493 529.726 92.672C529.63 92.384 529.582 92.0853 529.582 91.776C529.582 91.072 529.816 90.5173 530.286 90.112C530.755 89.7067 531.432 89.504 532.318 89.504H534.67V88.752C534.67 88.176 534.515 87.744 534.206 87.456C533.907 87.168 533.39 87.024 532.654 87.024C532.152 87.024 531.758 87.0933 531.47 87.232C531.182 87.3707 530.915 87.6053 530.67 87.936L529.886 87.216C530.227 86.7573 530.611 86.448 531.038 86.288C531.475 86.1173 532.019 86.032 532.67 86.032ZM532.478 90.368C531.294 90.368 530.702 90.832 530.702 91.76C530.702 92.2187 530.846 92.56 531.134 92.784C531.422 92.9973 531.886 93.104 532.526 93.104C532.856 93.104 533.166 93.0773 533.454 93.024C533.742 92.96 534.014 92.8107 534.27 92.576C534.536 92.32 534.67 91.8667 534.67 91.216V90.368H532.478ZM541.988 86.032C542.361 86.032 542.697 86.0853 542.996 86.192C543.305 86.2987 543.598 86.4907 543.876 86.768L543.028 87.632C542.814 87.4187 542.612 87.2693 542.42 87.184C542.228 87.0987 541.977 87.056 541.668 87.056C541.38 87.056 541.118 87.1093 540.884 87.216C540.649 87.3227 540.452 87.472 540.292 87.664C540.132 87.856 540.004 88.08 539.908 88.336C539.822 88.592 539.78 88.8693 539.78 89.168V94H538.628V86.128H539.78V87.088C539.993 86.7573 540.297 86.5013 540.692 86.32C541.097 86.128 541.529 86.032 541.988 86.032ZM546.514 90.224L550.066 86.128H551.506L548.834 89.136L551.97 94H550.546L548.05 89.968L546.514 91.728V94H545.362V82.608H546.514V90.224ZM556.099 86.032C557.134 86.032 557.929 86.3733 558.483 87.056C559.049 87.728 559.331 88.6613 559.331 89.856V90.368H554.019C554.019 91.232 554.211 91.904 554.595 92.384C554.99 92.8533 555.571 93.088 556.339 93.088C556.798 93.088 557.177 93.0187 557.475 92.88C557.785 92.7307 558.094 92.5013 558.403 92.192L559.187 92.88C558.985 93.0827 558.782 93.2587 558.579 93.408C558.387 93.5573 558.174 93.6853 557.939 93.792C557.715 93.888 557.47 93.9627 557.203 94.016C556.937 94.0693 556.638 94.096 556.307 94.096C555.785 94.096 555.31 94.016 554.883 93.856C554.457 93.696 554.094 93.4507 553.795 93.12C553.497 92.7893 553.267 92.3733 553.107 91.872C552.947 91.36 552.867 90.7573 552.867 90.064C552.867 88.7733 553.155 87.7813 553.731 87.088C554.307 86.384 555.097 86.032 556.099 86.032ZM556.099 87.008C555.673 87.008 555.299 87.1147 554.979 87.328C554.67 87.5413 554.43 87.8293 554.259 88.192C554.206 88.2987 554.163 88.4 554.131 88.496C554.11 88.5813 554.089 88.672 554.067 88.768C554.057 88.864 554.046 88.9707 554.035 89.088C554.035 89.2053 554.03 89.344 554.019 89.504H558.195C558.185 89.344 558.174 89.2053 558.163 89.088C558.153 88.9707 558.137 88.864 558.115 88.768C558.105 88.672 558.083 88.5813 558.051 88.496C558.019 88.4 557.982 88.2987 557.939 88.192C557.769 87.8293 557.523 87.5413 557.203 87.328C556.894 87.1147 556.526 87.008 556.099 87.008ZM563.128 86.128H564.808V87.008H563.128V91.856C563.128 92.2293 563.213 92.5173 563.384 92.72C563.554 92.912 563.826 93.008 564.2 93.008H564.808V94H563.992C563.65 94 563.352 93.9467 563.096 93.84C562.85 93.7227 562.642 93.568 562.472 93.376C562.312 93.184 562.189 92.96 562.104 92.704C562.018 92.448 561.976 92.176 561.976 91.888V87.008H560.984V86.128H561.976V83.712H563.128V86.128ZM574.841 82.512C575.438 82.512 575.971 82.6133 576.441 82.816C576.91 83.008 577.321 83.28 577.673 83.632C577.939 83.8987 578.147 84.1707 578.297 84.448C578.457 84.7253 578.574 85.04 578.649 85.392C578.723 85.744 578.771 86.1547 578.793 86.624C578.814 87.0933 578.825 87.6533 578.825 88.304C578.825 88.9547 578.814 89.5147 578.793 89.984C578.771 90.4533 578.723 90.864 578.649 91.216C578.574 91.568 578.457 91.8827 578.297 92.16C578.147 92.4373 577.939 92.7093 577.673 92.976C577.321 93.328 576.91 93.6053 576.441 93.808C575.971 94 575.438 94.096 574.841 94.096C574.243 94.096 573.705 94 573.225 93.808C572.755 93.6053 572.345 93.328 571.993 92.976C571.726 92.7093 571.513 92.4373 571.353 92.16C571.203 91.8827 571.091 91.568 571.017 91.216C570.942 90.864 570.894 90.4533 570.873 89.984C570.862 89.5147 570.857 88.9547 570.857 88.304C570.857 87.6533 570.862 87.0933 570.873 86.624C570.894 86.1547 570.942 85.744 571.017 85.392C571.091 85.04 571.203 84.7253 571.353 84.448C571.513 84.1707 571.726 83.8987 571.993 83.632C572.345 83.28 572.755 83.008 573.225 82.816C573.705 82.6133 574.243 82.512 574.841 82.512ZM574.841 83.6C574.062 83.6 573.406 83.8667 572.873 84.4C572.691 84.5813 572.547 84.7787 572.441 84.992C572.334 85.2053 572.254 85.4613 572.201 85.76C572.147 86.048 572.11 86.4 572.089 86.816C572.078 87.2213 572.073 87.7173 572.073 88.304C572.073 88.8907 572.078 89.392 572.089 89.808C572.11 90.2133 572.147 90.5653 572.201 90.864C572.254 91.152 572.334 91.4027 572.441 91.616C572.547 91.8293 572.691 92.0267 572.873 92.208C573.406 92.7413 574.062 93.008 574.841 93.008C575.619 93.008 576.275 92.7413 576.809 92.208C576.99 92.0267 577.134 91.8293 577.241 91.616C577.347 91.4027 577.427 91.152 577.481 90.864C577.534 90.5653 577.566 90.2133 577.577 89.808C577.598 89.392 577.609 88.8907 577.609 88.304C577.609 87.7173 577.598 87.2213 577.577 86.816C577.566 86.4 577.534 86.048 577.481 85.76C577.427 85.4613 577.347 85.2053 577.241 84.992C577.134 84.7787 576.99 84.5813 576.809 84.4C576.275 83.8667 575.619 83.6 574.841 83.6ZM587.615 94H586.479V93.12C586.202 93.44 585.871 93.6853 585.487 93.856C585.114 94.016 584.703 94.096 584.255 94.096C583.391 94.096 582.714 93.8507 582.223 93.36C581.679 92.8267 581.407 92.0907 581.407 91.152V86.128H582.559V90.976C582.559 91.68 582.73 92.208 583.071 92.56C583.423 92.9013 583.898 93.072 584.495 93.072C585.092 93.072 585.567 92.896 585.919 92.544C586.282 92.192 586.463 91.6693 586.463 90.976V86.128H587.615V94ZM591.847 86.128H593.527V87.008H591.847V91.856C591.847 92.2293 591.932 92.5173 592.103 92.72C592.273 92.912 592.545 93.008 592.919 93.008H593.527V94H592.711C592.369 94 592.071 93.9467 591.815 93.84C591.569 93.7227 591.361 93.568 591.191 93.376C591.031 93.184 590.908 92.96 590.823 92.704C590.737 92.448 590.695 92.176 590.695 91.888V87.008H589.703V86.128H590.695V83.712H591.847V86.128ZM598.809 86.032C599.353 86.032 599.817 86.1173 600.201 86.288C600.596 86.4587 600.996 86.7627 601.401 87.2L600.617 87.936C600.318 87.6053 600.036 87.376 599.769 87.248C599.502 87.12 599.182 87.056 598.809 87.056C598.425 87.056 598.078 87.1307 597.769 87.28C597.46 87.4293 597.198 87.6533 596.985 87.952C596.804 88.208 596.67 88.5013 596.585 88.832C596.51 89.152 596.473 89.5627 596.473 90.064C596.473 90.5653 596.51 90.9813 596.585 91.312C596.67 91.632 596.804 91.92 596.985 92.176C597.198 92.4747 597.46 92.6987 597.769 92.848C598.078 92.9973 598.425 93.072 598.809 93.072C599.182 93.072 599.502 93.008 599.769 92.88C600.036 92.7413 600.318 92.5067 600.617 92.176L601.401 92.928C600.996 93.3653 600.596 93.6693 600.201 93.84C599.817 94.0107 599.353 94.096 598.809 94.096C598.308 94.096 597.844 94.016 597.417 93.856C597.001 93.6853 596.633 93.4347 596.313 93.104C596.004 92.7627 595.758 92.3413 595.577 91.84C595.406 91.328 595.321 90.736 595.321 90.064C595.321 89.392 595.406 88.8053 595.577 88.304C595.758 87.8027 596.004 87.3867 596.313 87.056C596.633 86.7147 597.001 86.4587 597.417 86.288C597.844 86.1173 598.308 86.032 598.809 86.032ZM606.162 86.032C606.642 86.032 607.069 86.112 607.442 86.272C607.815 86.432 608.141 86.6507 608.418 86.928C608.823 87.3333 609.085 87.808 609.202 88.352C609.319 88.8853 609.378 89.456 609.378 90.064C609.378 90.672 609.314 91.248 609.186 91.792C609.069 92.3253 608.813 92.7947 608.418 93.2C608.141 93.4773 607.815 93.696 607.442 93.856C607.069 94.016 606.642 94.096 606.162 94.096C605.682 94.096 605.255 94.016 604.882 93.856C604.509 93.696 604.183 93.4773 603.906 93.2C603.703 92.9973 603.538 92.7787 603.41 92.544C603.293 92.2987 603.197 92.048 603.122 91.792C603.058 91.5253 603.01 91.248 602.978 90.96C602.957 90.672 602.946 90.3733 602.946 90.064C602.946 89.456 603.005 88.8853 603.122 88.352C603.239 87.808 603.501 87.3333 603.906 86.928C604.183 86.6507 604.509 86.432 604.882 86.272C605.255 86.112 605.682 86.032 606.162 86.032ZM606.162 87.056C605.597 87.056 605.122 87.248 604.738 87.632C604.45 87.92 604.269 88.288 604.194 88.736C604.13 89.1733 604.098 89.616 604.098 90.064C604.098 90.288 604.103 90.512 604.114 90.736C604.125 90.96 604.151 91.1787 604.194 91.392C604.237 91.6053 604.301 91.808 604.386 92C604.471 92.1813 604.589 92.3467 604.738 92.496C605.122 92.88 605.597 93.072 606.162 93.072C606.738 93.072 607.218 92.88 607.602 92.496C607.89 92.1973 608.066 91.8293 608.13 91.392C608.194 90.9547 608.226 90.512 608.226 90.064C608.226 89.616 608.194 89.1733 608.13 88.736C608.066 88.288 607.89 87.92 607.602 87.632C607.218 87.248 606.738 87.056 606.162 87.056ZM620.23 86.032C620.657 86.032 621.041 86.096 621.382 86.224C621.724 86.352 622.017 86.5333 622.262 86.768C622.828 87.312 623.11 88.0427 623.11 88.96V94H621.958V89.152C621.958 88.448 621.782 87.9253 621.43 87.584C621.089 87.232 620.62 87.056 620.022 87.056C619.446 87.056 618.972 87.2267 618.598 87.568C618.236 87.9093 618.054 88.3947 618.054 89.024V94H616.902V89.152C616.902 88.448 616.726 87.9253 616.374 87.584C616.033 87.232 615.564 87.056 614.966 87.056C614.369 87.056 613.889 87.232 613.526 87.584C613.174 87.936 612.998 88.4587 612.998 89.152V94H611.846V86.128H612.998V86.992C613.276 86.672 613.601 86.432 613.974 86.272C614.358 86.112 614.774 86.032 615.222 86.032C615.766 86.032 616.241 86.144 616.646 86.368C617.062 86.5813 617.393 86.9067 617.638 87.344C618.257 86.4693 619.121 86.032 620.23 86.032ZM628.709 86.032C629.743 86.032 630.538 86.3733 631.093 87.056C631.658 87.728 631.941 88.6613 631.941 89.856V90.368H626.629C626.629 91.232 626.821 91.904 627.205 92.384C627.599 92.8533 628.181 93.088 628.949 93.088C629.407 93.088 629.786 93.0187 630.085 92.88C630.394 92.7307 630.703 92.5013 631.013 92.192L631.797 92.88C631.594 93.0827 631.391 93.2587 631.189 93.408C630.997 93.5573 630.783 93.6853 630.549 93.792C630.325 93.888 630.079 93.9627 629.813 94.016C629.546 94.0693 629.247 94.096 628.917 94.096C628.394 94.096 627.919 94.016 627.493 93.856C627.066 93.696 626.703 93.4507 626.405 93.12C626.106 92.7893 625.877 92.3733 625.717 91.872C625.557 91.36 625.477 90.7573 625.477 90.064C625.477 88.7733 625.765 87.7813 626.341 87.088C626.917 86.384 627.706 86.032 628.709 86.032ZM628.709 87.008C628.282 87.008 627.909 87.1147 627.589 87.328C627.279 87.5413 627.039 87.8293 626.869 88.192C626.815 88.2987 626.773 88.4 626.741 88.496C626.719 88.5813 626.698 88.672 626.677 88.768C626.666 88.864 626.655 88.9707 626.645 89.088C626.645 89.2053 626.639 89.344 626.629 89.504H630.805C630.794 89.344 630.783 89.2053 630.773 89.088C630.762 88.9707 630.746 88.864 630.725 88.768C630.714 88.672 630.693 88.5813 630.661 88.496C630.629 88.4 630.591 88.2987 630.549 88.192C630.378 87.8293 630.133 87.5413 629.813 87.328C629.503 87.1147 629.135 87.008 628.709 87.008Z"
    fill="black" />
  <path
    d="M433.429 88C433.429 89.4728 434.623 90.6667 436.096 90.6667C437.568 90.6667 438.762 89.4728 438.762 88C438.762 86.5272 437.568 85.3333 436.096 85.3333C434.623 85.3333 433.429 86.5272 433.429 88ZM356.096 88.5H357.096V87.5H356.096V88.5ZM359.096 88.5H361.096V87.5H359.096V88.5ZM363.096 88.5H365.096V87.5H363.096V88.5ZM367.096 88.5H369.096V87.5H367.096V88.5ZM371.096 88.5H373.096V87.5H371.096V88.5ZM375.096 88.5H377.096V87.5H375.096V88.5ZM379.096 88.5H381.096V87.5H379.096V88.5ZM383.096 88.5H385.096V87.5H383.096V88.5ZM387.096 88.5H389.096V87.5H387.096V88.5ZM391.096 88.5H393.096V87.5H391.096V88.5ZM395.096 88.5H397.096V87.5H395.096V88.5ZM399.096 88.5H401.096V87.5H399.096V88.5ZM403.096 88.5H405.096V87.5H403.096V88.5ZM407.096 88.5H409.096V87.5H407.096V88.5ZM411.096 88.5H413.096V87.5H411.096V88.5ZM415.096 88.5H417.096V87.5H415.096V88.5ZM419.096 88.5H421.096V87.5H419.096V88.5ZM423.096 88.5H425.096V87.5H423.096V88.5ZM427.096 88.5H429.096V87.5H427.096V88.5ZM431.096 88.5H433.096V87.5H431.096V88.5ZM435.096 88.5H436.096V87.5H435.096V88.5Z"
    fill="black" fill-opacity="0.3" />
  <path
    d="M433.429 158C433.429 159.473 434.623 160.667 436.096 160.667C437.568 160.667 438.762 159.473 438.762 158C438.762 156.527 437.568 155.333 436.096 155.333C434.623 155.333 433.429 156.527 433.429 158ZM356.096 158.5H357.096V157.5H356.096V158.5ZM359.096 158.5H361.096V157.5H359.096V158.5ZM363.096 158.5H365.096V157.5H363.096V158.5ZM367.096 158.5H369.096V157.5H367.096V158.5ZM371.096 158.5H373.096V157.5H371.096V158.5ZM375.096 158.5H377.096V157.5H375.096V158.5ZM379.096 158.5H381.096V157.5H379.096V158.5ZM383.096 158.5H385.096V157.5H383.096V158.5ZM387.096 158.5H389.096V157.5H387.096V158.5ZM391.096 158.5H393.096V157.5H391.096V158.5ZM395.096 158.5H397.096V157.5H395.096V158.5ZM399.096 158.5H401.096V157.5H399.096V158.5ZM403.096 158.5H405.096V157.5H403.096V158.5ZM407.096 158.5H409.096V157.5H407.096V158.5ZM411.096 158.5H413.096V157.5H411.096V158.5ZM415.096 158.5H417.096V157.5H415.096V158.5ZM419.096 158.5H421.096V157.5H419.096V158.5ZM423.096 158.5H425.096V157.5H423.096V158.5ZM427.096 158.5H429.096V157.5H427.096V158.5ZM431.096 158.5H433.096V157.5H431.096V158.5ZM435.096 158.5H436.096V157.5H435.096V158.5Z"
    fill="black" fill-opacity="0.3" />
  <path
    d="M433.429 198C433.429 199.473 434.623 200.667 436.096 200.667C437.568 200.667 438.762 199.473 438.762 198C438.762 196.527 437.568 195.333 436.096 195.333C434.623 195.333 433.429 196.527 433.429 198ZM356.096 198.5H357.096V197.5H356.096V198.5ZM359.096 198.5H361.096V197.5H359.096V198.5ZM363.096 198.5H365.096V197.5H363.096V198.5ZM367.096 198.5H369.096V197.5H367.096V198.5ZM371.096 198.5H373.096V197.5H371.096V198.5ZM375.096 198.5H377.096V197.5H375.096V198.5ZM379.096 198.5H381.096V197.5H379.096V198.5ZM383.096 198.5H385.096V197.5H383.096V198.5ZM387.096 198.5H389.096V197.5H387.096V198.5ZM391.096 198.5H393.096V197.5H391.096V198.5ZM395.096 198.5H397.096V197.5H395.096V198.5ZM399.096 198.5H401.096V197.5H399.096V198.5ZM403.096 198.5H405.096V197.5H403.096V198.5ZM407.096 198.5H409.096V197.5H407.096V198.5ZM411.096 198.5H413.096V197.5H411.096V198.5ZM415.096 198.5H417.096V197.5H415.096V198.5ZM419.096 198.5H421.096V197.5H419.096V198.5ZM423.096 198.5H425.096V197.5H423.096V198.5ZM427.096 198.5H429.096V197.5H427.096V198.5ZM431.096 198.5H433.096V197.5H431.096V198.5ZM435.096 198.5H436.096V197.5H435.096V198.5Z"
    fill="black" fill-opacity="0.3" />
  <path
    d="M464.288 153.696H460.992V164H459.776V153.696H456.48V152.608H464.288V153.696ZM467.959 156.032C468.439 156.032 468.865 156.112 469.239 156.272C469.612 156.432 469.937 156.651 470.215 156.928C470.62 157.333 470.881 157.808 470.999 158.352C471.116 158.885 471.175 159.456 471.175 160.064C471.175 160.672 471.111 161.248 470.983 161.792C470.865 162.325 470.609 162.795 470.215 163.2C469.937 163.477 469.612 163.696 469.239 163.856C468.865 164.016 468.439 164.096 467.959 164.096C467.479 164.096 467.052 164.016 466.679 163.856C466.305 163.696 465.98 163.477 465.703 163.2C465.5 162.997 465.335 162.779 465.207 162.544C465.089 162.299 464.993 162.048 464.919 161.792C464.855 161.525 464.807 161.248 464.775 160.96C464.753 160.672 464.743 160.373 464.743 160.064C464.743 159.456 464.801 158.885 464.919 158.352C465.036 157.808 465.297 157.333 465.703 156.928C465.98 156.651 466.305 156.432 466.679 156.272C467.052 156.112 467.479 156.032 467.959 156.032ZM467.959 157.056C467.393 157.056 466.919 157.248 466.535 157.632C466.247 157.92 466.065 158.288 465.991 158.736C465.927 159.173 465.895 159.616 465.895 160.064C465.895 160.288 465.9 160.512 465.911 160.736C465.921 160.96 465.948 161.179 465.991 161.392C466.033 161.605 466.097 161.808 466.183 162C466.268 162.181 466.385 162.347 466.535 162.496C466.919 162.88 467.393 163.072 467.959 163.072C468.535 163.072 469.015 162.88 469.399 162.496C469.687 162.197 469.863 161.829 469.927 161.392C469.991 160.955 470.023 160.512 470.023 160.064C470.023 159.616 469.991 159.173 469.927 158.736C469.863 158.288 469.687 157.92 469.399 157.632C469.015 157.248 468.535 157.056 467.959 157.056ZM474.795 160.224L478.347 156.128H479.787L477.115 159.136L480.251 164H478.827L476.331 159.968L474.795 161.728V164H473.643V152.608H474.795V160.224ZM484.381 156.032C485.415 156.032 486.21 156.373 486.765 157.056C487.33 157.728 487.613 158.661 487.613 159.856V160.368H482.301C482.301 161.232 482.493 161.904 482.877 162.384C483.271 162.853 483.853 163.088 484.621 163.088C485.079 163.088 485.458 163.019 485.757 162.88C486.066 162.731 486.375 162.501 486.685 162.192L487.469 162.88C487.266 163.083 487.063 163.259 486.861 163.408C486.669 163.557 486.455 163.685 486.221 163.792C485.997 163.888 485.751 163.963 485.485 164.016C485.218 164.069 484.919 164.096 484.589 164.096C484.066 164.096 483.591 164.016 483.165 163.856C482.738 163.696 482.375 163.451 482.077 163.12C481.778 162.789 481.549 162.373 481.389 161.872C481.229 161.36 481.149 160.757 481.149 160.064C481.149 158.773 481.437 157.781 482.013 157.088C482.589 156.384 483.378 156.032 484.381 156.032ZM484.381 157.008C483.954 157.008 483.581 157.115 483.261 157.328C482.951 157.541 482.711 157.829 482.541 158.192C482.487 158.299 482.445 158.4 482.413 158.496C482.391 158.581 482.37 158.672 482.349 158.768C482.338 158.864 482.327 158.971 482.317 159.088C482.317 159.205 482.311 159.344 482.301 159.504H486.477C486.466 159.344 486.455 159.205 486.445 159.088C486.434 158.971 486.418 158.864 486.397 158.768C486.386 158.672 486.365 158.581 486.333 158.496C486.301 158.4 486.263 158.299 486.221 158.192C486.05 157.829 485.805 157.541 485.485 157.328C485.175 157.115 484.807 157.008 484.381 157.008ZM493.425 156.032C494.289 156.032 494.966 156.277 495.457 156.768C496.001 157.301 496.273 158.037 496.273 158.976V164H495.121V159.152C495.121 158.448 494.945 157.925 494.593 157.584C494.252 157.232 493.782 157.056 493.185 157.056C492.588 157.056 492.108 157.232 491.745 157.584C491.393 157.936 491.217 158.459 491.217 159.152V164H490.065V156.128H491.201V157.008C491.478 156.688 491.804 156.448 492.177 156.288C492.561 156.117 492.977 156.032 493.425 156.032ZM511.209 164H509.913L509.001 161.424H504.025L503.113 164H501.817L506.009 152.608H507.033L511.209 164ZM504.393 160.368H508.633L506.521 154.336L504.393 160.368ZM513.998 164H512.846V156.128H513.998V164ZM514.078 153.888H512.782V152.592H514.078V153.888ZM520.253 156.032C520.626 156.032 520.962 156.085 521.261 156.192C521.57 156.299 521.864 156.491 522.141 156.768L521.293 157.632C521.08 157.419 520.877 157.269 520.685 157.184C520.493 157.099 520.242 157.056 519.933 157.056C519.645 157.056 519.384 157.109 519.149 157.216C518.914 157.323 518.717 157.472 518.557 157.664C518.397 157.856 518.269 158.08 518.173 158.336C518.088 158.592 518.045 158.869 518.045 159.168V164H516.893V156.128H518.045V157.088C518.258 156.757 518.562 156.501 518.957 156.32C519.362 156.128 519.794 156.032 520.253 156.032ZM528.983 164H527.831V163.072C527.5 163.477 527.159 163.749 526.807 163.888C526.455 164.027 526.055 164.096 525.607 164.096C525.202 164.096 524.834 164.037 524.503 163.92C524.172 163.792 523.9 163.621 523.687 163.408C523.495 163.216 523.335 162.992 523.207 162.736C523.079 162.48 522.978 162.208 522.903 161.92C522.839 161.632 522.791 161.333 522.759 161.024C522.738 160.704 522.727 160.384 522.727 160.064C522.727 159.424 522.786 158.811 522.903 158.224C523.031 157.627 523.292 157.125 523.687 156.72C523.9 156.507 524.172 156.341 524.503 156.224C524.834 156.096 525.202 156.032 525.607 156.032C526.044 156.032 526.439 156.101 526.791 156.24C527.154 156.379 527.5 156.651 527.831 157.056V152.608H528.983V164ZM525.847 157.056C525.42 157.056 525.074 157.141 524.807 157.312C524.551 157.483 524.354 157.707 524.215 157.984C524.076 158.261 523.986 158.581 523.943 158.944C523.9 159.307 523.879 159.68 523.879 160.064C523.879 160.448 523.9 160.821 523.943 161.184C523.986 161.547 524.076 161.867 524.215 162.144C524.354 162.421 524.551 162.645 524.807 162.816C525.074 162.987 525.42 163.072 525.847 163.072C526.274 163.072 526.615 162.987 526.871 162.816C527.138 162.645 527.34 162.421 527.479 162.144C527.628 161.867 527.724 161.547 527.767 161.184C527.81 160.821 527.831 160.448 527.831 160.064C527.831 159.68 527.81 159.307 527.767 158.944C527.724 158.581 527.628 158.261 527.479 157.984C527.34 157.707 527.138 157.483 526.871 157.312C526.615 157.141 526.274 157.056 525.847 157.056ZM535.222 156.032C535.595 156.032 535.931 156.085 536.23 156.192C536.539 156.299 536.833 156.491 537.11 156.768L536.262 157.632C536.049 157.419 535.846 157.269 535.654 157.184C535.462 157.099 535.211 157.056 534.902 157.056C534.614 157.056 534.353 157.109 534.118 157.216C533.883 157.323 533.686 157.472 533.526 157.664C533.366 157.856 533.238 158.08 533.142 158.336C533.057 158.592 533.014 158.869 533.014 159.168V164H531.862V156.128H533.014V157.088C533.227 156.757 533.531 156.501 533.926 156.32C534.331 156.128 534.763 156.032 535.222 156.032ZM540.912 156.032C541.392 156.032 541.819 156.112 542.192 156.272C542.565 156.432 542.891 156.651 543.168 156.928C543.573 157.333 543.835 157.808 543.952 158.352C544.069 158.885 544.128 159.456 544.128 160.064C544.128 160.672 544.064 161.248 543.936 161.792C543.819 162.325 543.563 162.795 543.168 163.2C542.891 163.477 542.565 163.696 542.192 163.856C541.819 164.016 541.392 164.096 540.912 164.096C540.432 164.096 540.005 164.016 539.632 163.856C539.259 163.696 538.933 163.477 538.656 163.2C538.453 162.997 538.288 162.779 538.16 162.544C538.043 162.299 537.947 162.048 537.872 161.792C537.808 161.525 537.76 161.248 537.728 160.96C537.707 160.672 537.696 160.373 537.696 160.064C537.696 159.456 537.755 158.885 537.872 158.352C537.989 157.808 538.251 157.333 538.656 156.928C538.933 156.651 539.259 156.432 539.632 156.272C540.005 156.112 540.432 156.032 540.912 156.032ZM540.912 157.056C540.347 157.056 539.872 157.248 539.488 157.632C539.2 157.92 539.019 158.288 538.944 158.736C538.88 159.173 538.848 159.616 538.848 160.064C538.848 160.288 538.853 160.512 538.864 160.736C538.875 160.96 538.901 161.179 538.944 161.392C538.987 161.605 539.051 161.808 539.136 162C539.221 162.181 539.339 162.347 539.488 162.496C539.872 162.88 540.347 163.072 540.912 163.072C541.488 163.072 541.968 162.88 542.352 162.496C542.64 162.197 542.816 161.829 542.88 161.392C542.944 160.955 542.976 160.512 542.976 160.064C542.976 159.616 542.944 159.173 542.88 158.736C542.816 158.288 542.64 157.92 542.352 157.632C541.968 157.248 541.488 157.056 540.912 157.056ZM549.972 156.032C550.378 156.032 550.746 156.096 551.076 156.224C551.407 156.341 551.679 156.507 551.892 156.72C552.084 156.912 552.244 157.136 552.372 157.392C552.5 157.648 552.596 157.92 552.66 158.208C552.735 158.496 552.783 158.8 552.804 159.12C552.836 159.429 552.852 159.744 552.852 160.064C552.852 160.704 552.788 161.323 552.66 161.92C552.543 162.507 552.287 163.003 551.892 163.408C551.679 163.621 551.407 163.792 551.076 163.92C550.746 164.037 550.378 164.096 549.972 164.096C549.535 164.096 549.135 164.027 548.772 163.888C548.42 163.749 548.079 163.477 547.748 163.072V167.52H546.596V156.128H547.748V157.056C548.079 156.651 548.42 156.379 548.772 156.24C549.124 156.101 549.524 156.032 549.972 156.032ZM549.732 157.056C549.295 157.056 548.948 157.141 548.692 157.312C548.436 157.483 548.234 157.707 548.084 157.984C547.946 158.261 547.855 158.581 547.812 158.944C547.77 159.307 547.748 159.68 547.748 160.064C547.748 160.448 547.77 160.821 547.812 161.184C547.855 161.547 547.946 161.867 548.084 162.144C548.234 162.421 548.436 162.645 548.692 162.816C548.948 162.987 549.295 163.072 549.732 163.072C550.159 163.072 550.5 162.987 550.756 162.816C551.023 162.645 551.226 162.421 551.364 162.144C551.503 161.867 551.594 161.547 551.636 161.184C551.679 160.821 551.7 160.448 551.7 160.064C551.7 159.68 551.679 159.307 551.636 158.944C551.594 158.581 551.503 158.261 551.364 157.984C551.226 157.707 551.023 157.483 550.756 157.312C550.5 157.141 550.159 157.056 549.732 157.056ZM557.811 156.032C558.387 156.032 558.91 156.101 559.379 156.24C559.859 156.379 560.28 156.592 560.643 156.88L559.891 157.632C559.614 157.419 559.294 157.264 558.931 157.168C558.579 157.061 558.2 157.008 557.795 157.008C557.219 157.008 556.782 157.125 556.483 157.36C556.184 157.584 556.035 157.899 556.035 158.304C556.035 158.656 556.147 158.923 556.371 159.104C556.595 159.285 556.952 159.403 557.443 159.456L558.675 159.568C559.016 159.6 559.331 159.659 559.619 159.744C559.907 159.829 560.152 159.957 560.355 160.128C560.558 160.288 560.712 160.496 560.819 160.752C560.936 161.008 560.995 161.323 560.995 161.696C560.995 162.453 560.702 163.045 560.115 163.472C559.528 163.888 558.755 164.096 557.795 164.096C557.123 164.096 556.52 164.011 555.987 163.84C555.464 163.669 554.99 163.376 554.563 162.96L555.331 162.192C555.64 162.512 556.003 162.747 556.419 162.896C556.835 163.035 557.288 163.104 557.779 163.104C558.44 163.104 558.952 162.992 559.315 162.768C559.688 162.533 559.875 162.181 559.875 161.712C559.875 161.36 559.774 161.093 559.571 160.912C559.368 160.72 559.032 160.603 558.563 160.56L557.267 160.448C556.499 160.384 555.912 160.181 555.507 159.84C555.112 159.499 554.915 158.997 554.915 158.336C554.915 157.973 554.984 157.653 555.123 157.376C555.272 157.088 555.475 156.848 555.731 156.656C555.987 156.453 556.291 156.299 556.643 156.192C556.995 156.085 557.384 156.032 557.811 156.032Z"
    fill="black" />
  <path
    d="M465.584 204H464.288L463.376 201.424H458.4L457.488 204H456.192L460.384 192.608H461.408L465.584 204ZM458.768 200.368H463.008L460.896 194.336L458.768 200.368ZM469.685 196.032C470.752 196.032 471.541 196.256 472.053 196.704C472.576 197.152 472.837 197.803 472.837 198.656V204H471.685V203.248C471.376 203.557 471.051 203.776 470.709 203.904C470.368 204.032 469.936 204.096 469.413 204.096C468.869 204.096 468.432 204.043 468.101 203.936C467.771 203.829 467.467 203.643 467.189 203.376C466.987 203.184 466.837 202.949 466.741 202.672C466.645 202.384 466.597 202.085 466.597 201.776C466.597 201.072 466.832 200.517 467.301 200.112C467.771 199.707 468.448 199.504 469.333 199.504H471.685V198.752C471.685 198.176 471.531 197.744 471.221 197.456C470.923 197.168 470.405 197.024 469.669 197.024C469.168 197.024 468.773 197.093 468.485 197.232C468.197 197.371 467.931 197.605 467.685 197.936L466.901 197.216C467.243 196.757 467.627 196.448 468.053 196.288C468.491 196.117 469.035 196.032 469.685 196.032ZM469.493 200.368C468.309 200.368 467.717 200.832 467.717 201.76C467.717 202.219 467.861 202.56 468.149 202.784C468.437 202.997 468.901 203.104 469.541 203.104C469.872 203.104 470.181 203.077 470.469 203.024C470.757 202.96 471.029 202.811 471.285 202.576C471.552 202.32 471.685 201.867 471.685 201.216V200.368H469.493ZM474.379 196.128H475.627L477.787 202.448L479.931 196.128H481.179L478.283 204H477.259L474.379 196.128ZM485.443 196.032C486.478 196.032 487.272 196.373 487.827 197.056C488.392 197.728 488.675 198.661 488.675 199.856V200.368H483.363C483.363 201.232 483.555 201.904 483.939 202.384C484.334 202.853 484.915 203.088 485.683 203.088C486.142 203.088 486.52 203.019 486.819 202.88C487.128 202.731 487.438 202.501 487.747 202.192L488.531 202.88C488.328 203.083 488.126 203.259 487.923 203.408C487.731 203.557 487.518 203.685 487.283 203.792C487.059 203.888 486.814 203.963 486.547 204.016C486.28 204.069 485.982 204.096 485.651 204.096C485.128 204.096 484.654 204.016 484.227 203.856C483.8 203.696 483.438 203.451 483.139 203.12C482.84 202.789 482.611 202.373 482.451 201.872C482.291 201.36 482.211 200.757 482.211 200.064C482.211 198.773 482.499 197.781 483.075 197.088C483.651 196.384 484.44 196.032 485.443 196.032ZM485.443 197.008C485.016 197.008 484.643 197.115 484.323 197.328C484.014 197.541 483.774 197.829 483.603 198.192C483.55 198.299 483.507 198.4 483.475 198.496C483.454 198.581 483.432 198.672 483.411 198.768C483.4 198.864 483.39 198.971 483.379 199.088C483.379 199.205 483.374 199.344 483.363 199.504H487.539C487.528 199.344 487.518 199.205 487.507 199.088C487.496 198.971 487.48 198.864 487.459 198.768C487.448 198.672 487.427 198.581 487.395 198.496C487.363 198.4 487.326 198.299 487.283 198.192C487.112 197.829 486.867 197.541 486.547 197.328C486.238 197.115 485.87 197.008 485.443 197.008ZM490.824 205.184H489.688L494.248 191.424H495.384L490.824 205.184ZM498.255 202.912H504.079V204H497.039V192.608H498.255V202.912ZM507.155 204H506.003V196.128H507.155V204ZM507.235 193.888H505.939V192.592H507.235V193.888ZM515.889 204H514.737V203.072C514.407 203.477 514.065 203.749 513.713 203.888C513.361 204.027 512.961 204.096 512.513 204.096C512.108 204.096 511.74 204.037 511.409 203.92C511.079 203.792 510.807 203.621 510.593 203.408C510.401 203.216 510.241 202.992 510.113 202.736C509.985 202.48 509.884 202.208 509.809 201.92C509.745 201.632 509.697 201.333 509.665 201.024C509.644 200.704 509.633 200.384 509.633 200.064C509.633 199.424 509.692 198.811 509.809 198.224C509.937 197.627 510.199 197.125 510.593 196.72C510.807 196.507 511.079 196.341 511.409 196.224C511.74 196.096 512.108 196.032 512.513 196.032C512.951 196.032 513.345 196.101 513.697 196.24C514.06 196.379 514.407 196.651 514.737 197.056V192.608H515.889V204ZM512.753 197.056C512.327 197.056 511.98 197.141 511.713 197.312C511.457 197.483 511.26 197.707 511.121 197.984C510.983 198.261 510.892 198.581 510.849 198.944C510.807 199.307 510.785 199.68 510.785 200.064C510.785 200.448 510.807 200.821 510.849 201.184C510.892 201.547 510.983 201.867 511.121 202.144C511.26 202.421 511.457 202.645 511.713 202.816C511.98 202.987 512.327 203.072 512.753 203.072C513.18 203.072 513.521 202.987 513.777 202.816C514.044 202.645 514.247 202.421 514.385 202.144C514.535 201.867 514.631 201.547 514.673 201.184C514.716 200.821 514.737 200.448 514.737 200.064C514.737 199.68 514.716 199.307 514.673 198.944C514.631 198.581 514.535 198.261 514.385 197.984C514.247 197.707 514.044 197.483 513.777 197.312C513.521 197.141 513.18 197.056 512.753 197.056ZM521.568 196.032C522.048 196.032 522.475 196.112 522.848 196.272C523.221 196.432 523.547 196.651 523.824 196.928C524.229 197.333 524.491 197.808 524.608 198.352C524.725 198.885 524.784 199.456 524.784 200.064C524.784 200.672 524.72 201.248 524.592 201.792C524.475 202.325 524.219 202.795 523.824 203.2C523.547 203.477 523.221 203.696 522.848 203.856C522.475 204.016 522.048 204.096 521.568 204.096C521.088 204.096 520.661 204.016 520.288 203.856C519.915 203.696 519.589 203.477 519.312 203.2C519.109 202.997 518.944 202.779 518.816 202.544C518.699 202.299 518.603 202.048 518.528 201.792C518.464 201.525 518.416 201.248 518.384 200.96C518.363 200.672 518.352 200.373 518.352 200.064C518.352 199.456 518.411 198.885 518.528 198.352C518.645 197.808 518.907 197.333 519.312 196.928C519.589 196.651 519.915 196.432 520.288 196.272C520.661 196.112 521.088 196.032 521.568 196.032ZM521.568 197.056C521.003 197.056 520.528 197.248 520.144 197.632C519.856 197.92 519.675 198.288 519.6 198.736C519.536 199.173 519.504 199.616 519.504 200.064C519.504 200.288 519.509 200.512 519.52 200.736C519.531 200.96 519.557 201.179 519.6 201.392C519.643 201.605 519.707 201.808 519.792 202C519.877 202.181 519.995 202.347 520.144 202.496C520.528 202.88 521.003 203.072 521.568 203.072C522.144 203.072 522.624 202.88 523.008 202.496C523.296 202.197 523.472 201.829 523.536 201.392C523.6 200.955 523.632 200.512 523.632 200.064C523.632 199.616 523.6 199.173 523.536 198.736C523.472 198.288 523.296 197.92 523.008 197.632C522.624 197.248 522.144 197.056 521.568 197.056ZM538.517 193.696H532.661V197.712H537.653V198.8H532.661V202.912H538.517V204H531.445V192.608H538.517V193.696ZM543.295 196.032C544.361 196.032 545.151 196.256 545.663 196.704C546.185 197.152 546.447 197.803 546.447 198.656V204H545.295V203.248C544.985 203.557 544.66 203.776 544.319 203.904C543.977 204.032 543.545 204.096 543.023 204.096C542.479 204.096 542.041 204.043 541.711 203.936C541.38 203.829 541.076 203.643 540.799 203.376C540.596 203.184 540.447 202.949 540.351 202.672C540.255 202.384 540.207 202.085 540.207 201.776C540.207 201.072 540.441 200.517 540.911 200.112C541.38 199.707 542.057 199.504 542.943 199.504H545.295V198.752C545.295 198.176 545.14 197.744 544.831 197.456C544.532 197.168 544.015 197.024 543.279 197.024C542.777 197.024 542.383 197.093 542.095 197.232C541.807 197.371 541.54 197.605 541.295 197.936L540.511 197.216C540.852 196.757 541.236 196.448 541.663 196.288C542.1 196.117 542.644 196.032 543.295 196.032ZM543.103 200.368C541.919 200.368 541.327 200.832 541.327 201.76C541.327 202.219 541.471 202.56 541.759 202.784C542.047 202.997 542.511 203.104 543.151 203.104C543.481 203.104 543.791 203.077 544.079 203.024C544.367 202.96 544.639 202.811 544.895 202.576C545.161 202.32 545.295 201.867 545.295 201.216V200.368H543.103ZM552.613 196.032C552.986 196.032 553.322 196.085 553.621 196.192C553.93 196.299 554.223 196.491 554.501 196.768L553.653 197.632C553.439 197.419 553.237 197.269 553.045 197.184C552.853 197.099 552.602 197.056 552.293 197.056C552.005 197.056 551.743 197.109 551.509 197.216C551.274 197.323 551.077 197.472 550.917 197.664C550.757 197.856 550.629 198.08 550.533 198.336C550.447 198.592 550.405 198.869 550.405 199.168V204H549.253V196.128H550.405V197.088C550.618 196.757 550.922 196.501 551.317 196.32C551.722 196.128 552.154 196.032 552.613 196.032ZM559.347 196.032C560.211 196.032 560.888 196.277 561.379 196.768C561.923 197.301 562.195 198.037 562.195 198.976V204H561.043V199.152C561.043 198.448 560.867 197.925 560.515 197.584C560.174 197.232 559.704 197.056 559.107 197.056C558.51 197.056 558.03 197.232 557.667 197.584C557.315 197.936 557.139 198.459 557.139 199.152V204H555.987V196.128H557.123V197.008C557.4 196.688 557.726 196.448 558.099 196.288C558.483 196.117 558.899 196.032 559.347 196.032ZM566.155 204H565.003V196.128H566.155V204ZM566.235 193.888H564.939V192.592H566.235V193.888ZM572.409 196.032C573.273 196.032 573.951 196.277 574.441 196.768C574.985 197.301 575.257 198.037 575.257 198.976V204H574.105V199.152C574.105 198.448 573.929 197.925 573.577 197.584C573.236 197.232 572.767 197.056 572.169 197.056C571.572 197.056 571.092 197.232 570.729 197.584C570.377 197.936 570.201 198.459 570.201 199.152V204H569.049V196.128H570.185V197.008C570.463 196.688 570.788 196.448 571.161 196.288C571.545 196.117 571.961 196.032 572.409 196.032ZM580.529 196.032C580.966 196.032 581.361 196.101 581.713 196.24C582.076 196.368 582.417 196.64 582.737 197.056V196.128H583.873V204.24C583.873 204.731 583.798 205.179 583.649 205.584C583.5 206 583.286 206.357 583.009 206.656C582.732 206.955 582.385 207.189 581.969 207.36C581.564 207.531 581.105 207.616 580.593 207.616C580.294 207.616 580.028 207.595 579.793 207.552C579.558 207.52 579.334 207.461 579.121 207.376C578.918 207.291 578.716 207.179 578.513 207.04C578.321 206.912 578.124 206.752 577.921 206.56L578.673 205.824C578.812 205.952 578.945 206.064 579.073 206.16C579.212 206.256 579.35 206.336 579.489 206.4C579.638 206.475 579.798 206.528 579.969 206.56C580.14 206.592 580.337 206.608 580.561 206.608C580.945 206.608 581.27 206.544 581.537 206.416C581.814 206.288 582.038 206.117 582.209 205.904C582.39 205.691 582.518 205.435 582.593 205.136C582.678 204.848 582.721 204.533 582.721 204.192V202.96C582.401 203.365 582.06 203.637 581.697 203.776C581.334 203.915 580.94 203.984 580.513 203.984C580.108 203.984 579.74 203.92 579.409 203.792C579.089 203.664 578.822 203.493 578.609 203.28C578.214 202.885 577.953 202.4 577.825 201.824C577.708 201.248 577.649 200.64 577.649 200C577.649 199.36 577.708 198.752 577.825 198.176C577.953 197.6 578.214 197.115 578.609 196.72C578.822 196.507 579.094 196.341 579.425 196.224C579.756 196.096 580.124 196.032 580.529 196.032ZM580.769 197.056C580.342 197.056 579.996 197.141 579.729 197.312C579.473 197.483 579.276 197.707 579.137 197.984C578.998 198.251 578.908 198.565 578.865 198.928C578.822 199.28 578.801 199.637 578.801 200C578.801 200.373 578.822 200.736 578.865 201.088C578.908 201.44 578.998 201.755 579.137 202.032C579.276 202.299 579.473 202.517 579.729 202.688C579.996 202.859 580.342 202.944 580.769 202.944C581.196 202.944 581.537 202.859 581.793 202.688C582.049 202.517 582.246 202.299 582.385 202.032C582.524 201.755 582.614 201.44 582.657 201.088C582.7 200.736 582.721 200.373 582.721 200C582.721 199.637 582.7 199.28 582.657 198.928C582.614 198.565 582.524 198.251 582.385 197.984C582.246 197.707 582.049 197.483 581.793 197.312C581.537 197.141 581.196 197.056 580.769 197.056ZM589.249 196.032C589.825 196.032 590.347 196.101 590.817 196.24C591.297 196.379 591.718 196.592 592.081 196.88L591.329 197.632C591.051 197.419 590.731 197.264 590.369 197.168C590.017 197.061 589.638 197.008 589.233 197.008C588.657 197.008 588.219 197.125 587.921 197.36C587.622 197.584 587.473 197.899 587.473 198.304C587.473 198.656 587.585 198.923 587.809 199.104C588.033 199.285 588.39 199.403 588.881 199.456L590.113 199.568C590.454 199.6 590.769 199.659 591.057 199.744C591.345 199.829 591.59 199.957 591.793 200.128C591.995 200.288 592.15 200.496 592.257 200.752C592.374 201.008 592.433 201.323 592.433 201.696C592.433 202.453 592.139 203.045 591.553 203.472C590.966 203.888 590.193 204.096 589.233 204.096C588.561 204.096 587.958 204.011 587.424 203.84C586.902 203.669 586.427 203.376 586.001 202.96L586.769 202.192C587.078 202.512 587.441 202.747 587.857 202.896C588.273 203.035 588.726 203.104 589.217 203.104C589.878 203.104 590.39 202.992 590.753 202.768C591.126 202.533 591.313 202.181 591.313 201.712C591.313 201.36 591.211 201.093 591.009 200.912C590.806 200.72 590.47 200.603 590.001 200.56L588.705 200.448C587.937 200.384 587.35 200.181 586.945 199.84C586.55 199.499 586.353 198.997 586.353 198.336C586.353 197.973 586.422 197.653 586.561 197.376C586.71 197.088 586.913 196.848 587.169 196.656C587.425 196.453 587.729 196.299 588.081 196.192C588.433 196.085 588.822 196.032 589.249 196.032Z"
    fill="black" />
  <path fill-rule="evenodd" clip-rule="evenodd" d="M0 38H356V138H0V38Z" fill="#44C476" />
  <path
    d="M164.721 78.64C164.721 79.1533 164.628 79.6247 164.441 80.054C164.264 80.474 164.012 80.8333 163.685 81.132C163.368 81.4307 162.99 81.664 162.551 81.832C162.112 82 161.641 82.084 161.137 82.084C160.633 82.084 160.162 82 159.723 81.832C159.284 81.664 158.906 81.4307 158.589 81.132C158.272 80.8333 158.02 80.474 157.833 80.054C157.656 79.6247 157.567 79.1533 157.567 78.64V72.032H159.079V78.57C159.079 79.242 159.266 79.7693 159.639 80.152C160.012 80.5347 160.512 80.726 161.137 80.726C161.762 80.726 162.262 80.5347 162.635 80.152C163.018 79.7693 163.209 79.242 163.209 78.57V72.032H164.721V78.64ZM170.276 74.818C170.64 74.818 170.972 74.874 171.27 74.986C171.569 75.098 171.816 75.252 172.012 75.448C172.18 75.6253 172.316 75.826 172.418 76.05C172.53 76.274 172.614 76.5167 172.67 76.778C172.726 77.03 172.764 77.3007 172.782 77.59C172.801 77.87 172.81 78.1547 172.81 78.444C172.81 78.7333 172.801 79.0227 172.782 79.312C172.764 79.592 172.726 79.8627 172.67 80.124C172.614 80.3853 172.53 80.628 172.418 80.852C172.316 81.076 172.18 81.2767 172.012 81.454C171.816 81.65 171.569 81.804 171.27 81.916C170.981 82.028 170.654 82.084 170.29 82.084C169.908 82.084 169.567 82.028 169.268 81.916C168.97 81.804 168.69 81.5893 168.428 81.272V84.87H167V74.902H168.4V75.658C168.671 75.3313 168.956 75.112 169.254 75C169.553 74.8787 169.894 74.818 170.276 74.818ZM169.912 76.092C169.586 76.092 169.324 76.1573 169.128 76.288C168.932 76.4093 168.783 76.5773 168.68 76.792C168.578 77.0067 168.508 77.2587 168.47 77.548C168.442 77.828 168.428 78.1267 168.428 78.444C168.428 78.7613 168.442 79.0647 168.47 79.354C168.508 79.634 168.578 79.886 168.68 80.11C168.783 80.3247 168.932 80.4973 169.128 80.628C169.324 80.7493 169.586 80.81 169.912 80.81C170.23 80.81 170.486 80.7493 170.682 80.628C170.878 80.4973 171.028 80.3247 171.13 80.11C171.233 79.886 171.298 79.634 171.326 79.354C171.364 79.0647 171.382 78.7613 171.382 78.444C171.382 78.1267 171.364 77.828 171.326 77.548C171.298 77.2587 171.233 77.0067 171.13 76.792C171.028 76.5773 170.878 76.4093 170.682 76.288C170.486 76.1573 170.23 76.092 169.912 76.092ZM177.076 74.818C177.618 74.818 178.108 74.8787 178.546 75C178.994 75.1213 179.382 75.3267 179.708 75.616L178.812 76.526C178.588 76.3393 178.322 76.2087 178.014 76.134C177.716 76.05 177.398 76.008 177.062 76.008C176.624 76.008 176.297 76.092 176.082 76.26C175.877 76.428 175.774 76.6473 175.774 76.918C175.774 77.1607 175.849 77.3473 175.998 77.478C176.148 77.6087 176.4 77.6927 176.754 77.73L177.748 77.814C178.486 77.8793 179.041 78.0753 179.414 78.402C179.797 78.7287 179.988 79.2047 179.988 79.83C179.988 80.2033 179.914 80.53 179.764 80.81C179.615 81.09 179.41 81.328 179.148 81.524C178.887 81.7107 178.574 81.8507 178.21 81.944C177.846 82.0373 177.454 82.084 177.034 82.084C176.456 82.084 175.919 82.0187 175.424 81.888C174.93 81.748 174.472 81.4727 174.052 81.062L174.99 80.124C175.28 80.4227 175.602 80.6233 175.956 80.726C176.32 80.8193 176.68 80.866 177.034 80.866C177.482 80.866 177.851 80.7867 178.14 80.628C178.439 80.4693 178.588 80.222 178.588 79.886C178.588 79.6433 178.514 79.452 178.364 79.312C178.224 79.172 177.982 79.0833 177.636 79.046L176.502 78.948C175.83 78.8827 175.312 78.696 174.948 78.388C174.584 78.08 174.402 77.6133 174.402 76.988C174.402 76.6427 174.472 76.3347 174.612 76.064C174.752 75.7933 174.944 75.5647 175.186 75.378C175.429 75.1913 175.709 75.0513 176.026 74.958C176.353 74.8647 176.703 74.818 177.076 74.818ZM183.153 82H181.725V74.902H183.153V82ZM183.195 73.502H181.683V71.99H183.195V73.502ZM190.89 82H189.49V81.244C189.22 81.5707 188.935 81.7947 188.636 81.916C188.338 82.028 187.997 82.084 187.614 82.084C187.25 82.084 186.919 82.028 186.62 81.916C186.322 81.804 186.074 81.65 185.878 81.454C185.71 81.2767 185.57 81.076 185.458 80.852C185.356 80.628 185.276 80.39 185.22 80.138C185.164 79.8767 185.127 79.606 185.108 79.326C185.09 79.0367 185.08 78.7473 185.08 78.458C185.08 78.1687 185.09 77.884 185.108 77.604C185.127 77.3147 185.164 77.0393 185.22 76.778C185.276 76.5167 185.356 76.274 185.458 76.05C185.57 75.826 185.71 75.6253 185.878 75.448C186.074 75.252 186.317 75.098 186.606 74.986C186.905 74.874 187.236 74.818 187.6 74.818C187.983 74.818 188.324 74.874 188.622 74.986C188.921 75.098 189.201 75.3127 189.462 75.63V72.032H190.89V82ZM187.978 76.092C187.652 76.092 187.39 76.1573 187.194 76.288C187.008 76.4187 186.863 76.5913 186.76 76.806C186.658 77.0207 186.588 77.2727 186.55 77.562C186.522 77.842 186.508 78.1407 186.508 78.458C186.508 78.7753 186.522 79.0787 186.55 79.368C186.588 79.648 186.658 79.8953 186.76 80.11C186.863 80.3247 187.008 80.4973 187.194 80.628C187.39 80.7493 187.652 80.81 187.978 80.81C188.305 80.81 188.566 80.7493 188.762 80.628C188.958 80.4973 189.108 80.3247 189.21 80.11C189.313 79.8953 189.378 79.648 189.406 79.368C189.444 79.0787 189.462 78.7753 189.462 78.458C189.462 78.1407 189.444 77.842 189.406 77.562C189.378 77.2727 189.313 77.0207 189.21 76.806C189.108 76.5913 188.958 76.4187 188.762 76.288C188.566 76.1573 188.305 76.092 187.978 76.092ZM194.205 78.864C194.205 79.48 194.359 79.9653 194.667 80.32C194.975 80.6747 195.423 80.852 196.011 80.852C196.412 80.852 196.734 80.796 196.977 80.684C197.229 80.5627 197.481 80.376 197.733 80.124L198.643 80.978C198.456 81.1647 198.269 81.328 198.083 81.468C197.905 81.5987 197.709 81.7107 197.495 81.804C197.289 81.8973 197.061 81.9673 196.809 82.014C196.566 82.0607 196.291 82.084 195.983 82.084C195.535 82.084 195.115 82.0233 194.723 81.902C194.34 81.7713 194.004 81.566 193.715 81.286C193.435 80.9967 193.211 80.6187 193.043 80.152C192.875 79.6853 192.791 79.116 192.791 78.444C192.791 77.2773 193.061 76.3813 193.603 75.756C194.153 75.1307 194.886 74.818 195.801 74.818C196.277 74.818 196.701 74.902 197.075 75.07C197.448 75.2287 197.761 75.462 198.013 75.77C198.274 76.0687 198.47 76.4327 198.601 76.862C198.741 77.282 198.811 77.7487 198.811 78.262V78.864H194.205ZM197.397 77.87C197.378 77.6553 197.359 77.4827 197.341 77.352C197.322 77.212 197.275 77.0627 197.201 76.904C197.079 76.6333 196.897 76.4187 196.655 76.26C196.421 76.092 196.137 76.008 195.801 76.008C195.455 76.008 195.161 76.092 194.919 76.26C194.685 76.4187 194.508 76.6333 194.387 76.904C194.312 77.0627 194.265 77.212 194.247 77.352C194.228 77.4827 194.214 77.6553 194.205 77.87H197.397Z"
    fill="black" />
  <path
    d="M158.682 106.084C158.243 106.084 157.833 106.019 157.45 105.888C157.067 105.748 156.736 105.547 156.456 105.286C156.176 105.015 155.957 104.693 155.798 104.32C155.639 103.937 155.56 103.499 155.56 103.004C155.56 102.827 155.574 102.649 155.602 102.472C155.63 102.295 155.672 102.108 155.728 101.912C155.793 101.716 155.873 101.501 155.966 101.268C156.069 101.035 156.195 100.769 156.344 100.47L158.514 96.032H160.488L158.402 100.176C158.523 100.12 158.645 100.083 158.766 100.064C158.897 100.036 159.027 100.022 159.158 100.022C159.494 100.022 159.821 100.092 160.138 100.232C160.455 100.363 160.735 100.554 160.978 100.806C161.221 101.058 161.417 101.371 161.566 101.744C161.715 102.108 161.79 102.519 161.79 102.976C161.79 103.461 161.711 103.9 161.552 104.292C161.393 104.675 161.174 105.001 160.894 105.272C160.614 105.533 160.283 105.734 159.9 105.874C159.527 106.014 159.121 106.084 158.682 106.084ZM158.682 104.446C159.055 104.446 159.363 104.32 159.606 104.068C159.849 103.816 159.97 103.457 159.97 102.99C159.97 102.542 159.853 102.187 159.62 101.926C159.387 101.665 159.074 101.534 158.682 101.534C158.299 101.534 157.987 101.66 157.744 101.912C157.501 102.164 157.38 102.523 157.38 102.99C157.38 103.457 157.501 103.816 157.744 104.068C157.987 104.32 158.299 104.446 158.682 104.446ZM165.948 97.992L163.918 99.756V97.796L165.948 96.032H167.768V106H165.948V97.992ZM173.101 106H171.029V103.928H173.101V106ZM177.85 106.084C177.448 106.084 177.066 106.019 176.702 105.888C176.338 105.757 176.016 105.566 175.736 105.314C175.456 105.062 175.232 104.754 175.064 104.39C174.905 104.017 174.826 103.592 174.826 103.116V98.916C174.826 98.44 174.905 98.02 175.064 97.656C175.232 97.2827 175.456 96.97 175.736 96.718C176.016 96.466 176.338 96.2747 176.702 96.144C177.066 96.0133 177.448 95.948 177.85 95.948C178.251 95.948 178.634 96.0133 178.998 96.144C179.371 96.2747 179.698 96.466 179.978 96.718C180.258 96.97 180.477 97.2827 180.636 97.656C180.804 98.02 180.888 98.44 180.888 98.916V103.116C180.888 103.592 180.804 104.017 180.636 104.39C180.477 104.754 180.258 105.062 179.978 105.314C179.698 105.566 179.371 105.757 178.998 105.888C178.634 106.019 178.251 106.084 177.85 106.084ZM177.85 104.446C178.214 104.446 178.508 104.329 178.732 104.096C178.956 103.853 179.068 103.522 179.068 103.102V98.944C179.068 98.524 178.956 98.1927 178.732 97.95C178.508 97.7073 178.214 97.586 177.85 97.586C177.495 97.586 177.206 97.7073 176.982 97.95C176.758 98.1927 176.646 98.524 176.646 98.944V103.102C176.646 103.522 176.758 103.853 176.982 104.096C177.206 104.329 177.495 104.446 177.85 104.446ZM185.465 106.084C185.017 106.084 184.597 106.019 184.205 105.888C183.823 105.757 183.487 105.566 183.197 105.314C182.917 105.062 182.693 104.754 182.525 104.39C182.357 104.017 182.273 103.587 182.273 103.102C182.273 102.794 182.311 102.523 182.385 102.29C182.469 102.057 182.572 101.851 182.693 101.674C182.815 101.487 182.945 101.329 183.085 101.198C183.235 101.067 183.379 100.955 183.519 100.862C183.389 100.778 183.258 100.671 183.127 100.54C182.997 100.409 182.875 100.26 182.763 100.092C182.661 99.924 182.572 99.7327 182.497 99.518C182.432 99.3033 182.399 99.0607 182.399 98.79C182.399 98.3513 182.479 97.9593 182.637 97.614C182.805 97.2593 183.029 96.9607 183.309 96.718C183.589 96.466 183.911 96.2747 184.275 96.144C184.649 96.0133 185.045 95.948 185.465 95.948C185.876 95.948 186.263 96.0133 186.627 96.144C187.001 96.2747 187.327 96.466 187.607 96.718C187.887 96.9607 188.107 97.2593 188.265 97.614C188.433 97.9593 188.517 98.3513 188.517 98.79C188.517 99.0607 188.48 99.3033 188.405 99.518C188.34 99.7327 188.251 99.924 188.139 100.092C188.037 100.26 187.92 100.409 187.789 100.54C187.659 100.671 187.528 100.778 187.397 100.862C187.537 100.955 187.682 101.067 187.831 101.198C187.981 101.329 188.116 101.487 188.237 101.674C188.359 101.851 188.457 102.057 188.531 102.29C188.615 102.523 188.657 102.794 188.657 103.102C188.657 103.587 188.573 104.017 188.405 104.39C188.237 104.754 188.009 105.062 187.719 105.314C187.43 105.566 187.089 105.757 186.697 105.888C186.315 106.019 185.904 106.084 185.465 106.084ZM185.465 104.446C185.848 104.446 186.17 104.315 186.431 104.054C186.702 103.793 186.837 103.466 186.837 103.074C186.837 102.682 186.702 102.355 186.431 102.094C186.17 101.823 185.848 101.688 185.465 101.688C185.073 101.688 184.747 101.823 184.485 102.094C184.224 102.355 184.093 102.682 184.093 103.074C184.093 103.466 184.224 103.793 184.485 104.054C184.747 104.315 185.073 104.446 185.465 104.446ZM185.465 100.106C185.82 100.106 186.114 99.9893 186.347 99.756C186.581 99.5133 186.697 99.21 186.697 98.846C186.697 98.482 186.581 98.1833 186.347 97.95C186.114 97.7073 185.82 97.586 185.465 97.586C185.111 97.586 184.812 97.7073 184.569 97.95C184.336 98.1833 184.219 98.482 184.219 98.846C184.219 99.21 184.336 99.5133 184.569 99.756C184.812 99.9893 185.111 100.106 185.465 100.106ZM196.847 96.032H198.275L193.557 106H192.129L196.847 96.032ZM192.017 101.17C191.746 101.17 191.485 101.133 191.233 101.058C190.99 100.974 190.775 100.853 190.589 100.694C190.402 100.526 190.253 100.325 190.141 100.092C190.038 99.8493 189.987 99.5693 189.987 99.252V97.866C189.987 97.5487 190.038 97.2733 190.141 97.04C190.253 96.7973 190.402 96.5967 190.589 96.438C190.775 96.27 190.99 96.1487 191.233 96.074C191.485 95.99 191.746 95.948 192.017 95.948C192.287 95.948 192.544 95.99 192.787 96.074C193.039 96.1487 193.258 96.27 193.445 96.438C193.631 96.5967 193.776 96.7973 193.879 97.04C193.991 97.2733 194.047 97.5487 194.047 97.866V99.252C194.047 99.5693 193.991 99.8493 193.879 100.092C193.776 100.325 193.631 100.526 193.445 100.694C193.258 100.853 193.039 100.974 192.787 101.058C192.544 101.133 192.287 101.17 192.017 101.17ZM192.017 99.994C192.231 99.994 192.404 99.9287 192.535 99.798C192.665 99.658 192.731 99.4527 192.731 99.182V97.936C192.731 97.6653 192.665 97.4647 192.535 97.334C192.404 97.2033 192.231 97.138 192.017 97.138C191.802 97.138 191.629 97.2033 191.499 97.334C191.377 97.4647 191.317 97.6653 191.317 97.936V99.182C191.317 99.4527 191.377 99.658 191.499 99.798C191.629 99.9287 191.802 99.994 192.017 99.994ZM198.373 106.084C198.102 106.084 197.841 106.047 197.589 105.972C197.346 105.888 197.131 105.767 196.945 105.608C196.758 105.44 196.609 105.239 196.497 105.006C196.394 104.763 196.343 104.483 196.343 104.166V102.78C196.343 102.463 196.394 102.187 196.497 101.954C196.609 101.711 196.758 101.511 196.945 101.352C197.131 101.184 197.346 101.063 197.589 100.988C197.841 100.904 198.102 100.862 198.373 100.862C198.643 100.862 198.9 100.904 199.143 100.988C199.395 101.063 199.614 101.184 199.801 101.352C199.987 101.511 200.132 101.711 200.235 101.954C200.347 102.187 200.403 102.463 200.403 102.78V104.166C200.403 104.483 200.347 104.763 200.235 105.006C200.132 105.239 199.987 105.44 199.801 105.608C199.614 105.767 199.395 105.888 199.143 105.972C198.9 106.047 198.643 106.084 198.373 106.084ZM198.373 104.894C198.587 104.894 198.76 104.829 198.891 104.698C199.021 104.567 199.087 104.367 199.087 104.096V102.85C199.087 102.579 199.021 102.379 198.891 102.248C198.76 102.108 198.587 102.038 198.373 102.038C198.158 102.038 197.985 102.108 197.855 102.248C197.724 102.379 197.659 102.579 197.659 102.85V104.096C197.659 104.367 197.724 104.567 197.855 104.698C197.985 104.829 198.158 104.894 198.373 104.894Z"
    fill="black" />
  <path fill-rule="evenodd" clip-rule="evenodd" d="M0 178H356V138H0V178Z" fill="#51ACF1" />
  <path
    d="M155.412 154.032C155.888 154.032 156.313 154.107 156.686 154.256C157.069 154.396 157.395 154.597 157.666 154.858C157.937 155.11 158.142 155.418 158.282 155.782C158.431 156.137 158.506 156.524 158.506 156.944C158.506 157.663 158.315 158.246 157.932 158.694C157.549 159.133 157.078 159.431 156.518 159.59L158.814 164H157.05L154.95 159.8H153.06V164H151.548V154.032H155.412ZM153.06 155.39V158.512H155.3C155.804 158.512 156.21 158.377 156.518 158.106C156.835 157.835 156.994 157.453 156.994 156.958C156.994 156.463 156.835 156.081 156.518 155.81C156.21 155.53 155.804 155.39 155.3 155.39H153.06ZM163.805 153.948C164.729 153.948 165.509 154.214 166.143 154.746C166.778 155.269 167.184 156.025 167.361 157.014H165.821C165.709 156.501 165.485 156.09 165.149 155.782C164.813 155.465 164.365 155.306 163.805 155.306C163.199 155.306 162.709 155.507 162.335 155.908C162.205 156.039 162.102 156.183 162.027 156.342C161.953 156.501 161.892 156.697 161.845 156.93C161.799 157.154 161.766 157.434 161.747 157.77C161.738 158.106 161.733 158.521 161.733 159.016C161.733 159.511 161.738 159.926 161.747 160.262C161.766 160.598 161.799 160.883 161.845 161.116C161.892 161.34 161.953 161.531 162.027 161.69C162.102 161.849 162.205 161.993 162.335 162.124C162.709 162.525 163.199 162.726 163.805 162.726C164.365 162.726 164.813 162.572 165.149 162.264C165.485 161.947 165.709 161.531 165.821 161.018H167.361C167.184 162.007 166.773 162.768 166.129 163.3C165.495 163.823 164.72 164.084 163.805 164.084C163.255 164.084 162.769 164 162.349 163.832C161.929 163.655 161.556 163.403 161.229 163.076C160.987 162.833 160.795 162.581 160.655 162.32C160.525 162.059 160.427 161.774 160.361 161.466C160.296 161.149 160.254 160.794 160.235 160.402C160.226 160.001 160.221 159.539 160.221 159.016C160.221 158.493 160.226 158.036 160.235 157.644C160.254 157.243 160.296 156.888 160.361 156.58C160.427 156.263 160.525 155.973 160.655 155.712C160.795 155.451 160.987 155.199 161.229 154.956C161.556 154.629 161.929 154.382 162.349 154.214C162.769 154.037 163.255 153.948 163.805 153.948ZM176.446 164H174.934V159.646H170.888V164H169.376V154.032H170.888V158.288H174.934V154.032H176.446V164Z"
    fill="black" />
  <path
    d="M190.102 164.084C189.579 164.084 189.131 164.005 188.758 163.846C188.384 163.687 188.09 163.501 187.876 163.286C187.568 162.969 187.362 162.633 187.26 162.278C187.157 161.923 187.092 161.569 187.064 161.214H188.884C188.93 161.606 189.047 161.909 189.234 162.124C189.43 162.339 189.719 162.446 190.102 162.446C190.466 162.446 190.755 162.339 190.97 162.124C191.128 161.965 191.231 161.76 191.278 161.508C191.324 161.256 191.348 160.967 191.348 160.64C191.348 160.061 191.254 159.618 191.068 159.31C190.89 159.002 190.582 158.848 190.144 158.848C189.761 158.848 189.481 158.937 189.304 159.114C189.126 159.291 189.005 159.473 188.94 159.66H187.274V154.032H192.958V155.67H188.926V157.812C189.056 157.681 189.252 157.565 189.514 157.462C189.784 157.359 190.088 157.308 190.424 157.308C190.844 157.308 191.208 157.369 191.516 157.49C191.824 157.611 192.08 157.775 192.286 157.98C192.482 158.176 192.636 158.381 192.748 158.596C192.869 158.811 192.958 159.03 193.014 159.254C193.079 159.478 193.121 159.707 193.14 159.94C193.158 160.173 193.168 160.407 193.168 160.64C193.168 161.209 193.112 161.699 193 162.11C192.897 162.521 192.664 162.908 192.3 163.272C192.076 163.496 191.782 163.687 191.418 163.846C191.054 164.005 190.615 164.084 190.102 164.084ZM201.455 154.032H202.883L198.165 164H196.737L201.455 154.032ZM196.625 159.17C196.355 159.17 196.093 159.133 195.841 159.058C195.599 158.974 195.384 158.853 195.197 158.694C195.011 158.526 194.861 158.325 194.749 158.092C194.647 157.849 194.595 157.569 194.595 157.252V155.866C194.595 155.549 194.647 155.273 194.749 155.04C194.861 154.797 195.011 154.597 195.197 154.438C195.384 154.27 195.599 154.149 195.841 154.074C196.093 153.99 196.355 153.948 196.625 153.948C196.896 153.948 197.153 153.99 197.395 154.074C197.647 154.149 197.867 154.27 198.053 154.438C198.24 154.597 198.385 154.797 198.487 155.04C198.599 155.273 198.655 155.549 198.655 155.866V157.252C198.655 157.569 198.599 157.849 198.487 158.092C198.385 158.325 198.24 158.526 198.053 158.694C197.867 158.853 197.647 158.974 197.395 159.058C197.153 159.133 196.896 159.17 196.625 159.17ZM196.625 157.994C196.84 157.994 197.013 157.929 197.143 157.798C197.274 157.658 197.339 157.453 197.339 157.182V155.936C197.339 155.665 197.274 155.465 197.143 155.334C197.013 155.203 196.84 155.138 196.625 155.138C196.411 155.138 196.238 155.203 196.107 155.334C195.986 155.465 195.925 155.665 195.925 155.936V157.182C195.925 157.453 195.986 157.658 196.107 157.798C196.238 157.929 196.411 157.994 196.625 157.994ZM202.981 164.084C202.711 164.084 202.449 164.047 202.197 163.972C201.955 163.888 201.74 163.767 201.553 163.608C201.367 163.44 201.217 163.239 201.105 163.006C201.003 162.763 200.951 162.483 200.951 162.166V160.78C200.951 160.463 201.003 160.187 201.105 159.954C201.217 159.711 201.367 159.511 201.553 159.352C201.74 159.184 201.955 159.063 202.197 158.988C202.449 158.904 202.711 158.862 202.981 158.862C203.252 158.862 203.509 158.904 203.751 158.988C204.003 159.063 204.223 159.184 204.409 159.352C204.596 159.511 204.741 159.711 204.843 159.954C204.955 160.187 205.011 160.463 205.011 160.78V162.166C205.011 162.483 204.955 162.763 204.843 163.006C204.741 163.239 204.596 163.44 204.409 163.608C204.223 163.767 204.003 163.888 203.751 163.972C203.509 164.047 203.252 164.084 202.981 164.084ZM202.981 162.894C203.196 162.894 203.369 162.829 203.499 162.698C203.63 162.567 203.695 162.367 203.695 162.096V160.85C203.695 160.579 203.63 160.379 203.499 160.248C203.369 160.108 203.196 160.038 202.981 160.038C202.767 160.038 202.594 160.108 202.463 160.248C202.333 160.379 202.267 160.579 202.267 160.85V162.096C202.267 162.367 202.333 162.567 202.463 162.698C202.594 162.829 202.767 162.894 202.981 162.894Z"
    fill="black" />
  <path fill-rule="evenodd" clip-rule="evenodd" d="M0 218H356V178H0V218Z" fill="#44C476"
    fill-opacity="0.6" />
  <path
    d="M154.047 194.032C154.981 194.032 155.713 194.275 156.245 194.76C156.787 195.245 157.057 195.913 157.057 196.762C157.057 197.033 157.015 197.285 156.931 197.518C156.857 197.742 156.754 197.947 156.623 198.134C156.502 198.311 156.362 198.465 156.203 198.596C156.045 198.717 155.881 198.811 155.713 198.876C155.909 198.951 156.096 199.058 156.273 199.198C156.451 199.329 156.609 199.487 156.749 199.674C156.889 199.861 157.001 200.08 157.085 200.332C157.169 200.584 157.211 200.869 157.211 201.186C157.211 201.643 157.137 202.049 156.987 202.404C156.838 202.749 156.628 203.043 156.357 203.286C156.096 203.519 155.779 203.697 155.405 203.818C155.041 203.939 154.64 204 154.201 204H150.169V194.032H154.047ZM151.681 199.604V202.642H154.061C154.593 202.642 154.999 202.502 155.279 202.222C155.559 201.933 155.699 201.564 155.699 201.116C155.699 200.668 155.559 200.304 155.279 200.024C154.999 199.744 154.593 199.604 154.061 199.604H151.681ZM151.681 195.39V198.246H153.921C154.407 198.246 154.799 198.125 155.097 197.882C155.396 197.639 155.545 197.285 155.545 196.818C155.545 196.351 155.396 195.997 155.097 195.754C154.799 195.511 154.407 195.39 153.921 195.39H151.681ZM161.58 196.818C162.57 196.818 163.302 197.023 163.778 197.434C164.264 197.845 164.506 198.451 164.506 199.254V204H163.106V203.356C162.845 203.617 162.574 203.804 162.294 203.916C162.014 204.028 161.655 204.084 161.216 204.084C160.768 204.084 160.39 204.033 160.082 203.93C159.784 203.818 159.527 203.655 159.312 203.44C158.939 203.048 158.752 202.539 158.752 201.914C158.752 201.317 158.958 200.827 159.368 200.444C159.779 200.061 160.395 199.87 161.216 199.87H163.078V199.366C163.078 198.909 162.957 198.573 162.714 198.358C162.481 198.143 162.084 198.036 161.524 198.036C161.142 198.036 160.838 198.092 160.614 198.204C160.39 198.307 160.176 198.484 159.97 198.736L159.046 197.854C159.214 197.658 159.382 197.495 159.55 197.364C159.728 197.233 159.914 197.126 160.11 197.042C160.316 196.958 160.535 196.902 160.768 196.874C161.011 196.837 161.282 196.818 161.58 196.818ZM161.44 200.864C160.572 200.864 160.138 201.205 160.138 201.886C160.138 202.213 160.241 202.465 160.446 202.642C160.661 202.81 161.006 202.894 161.482 202.894C161.734 202.894 161.963 202.871 162.168 202.824C162.383 202.777 162.584 202.665 162.77 202.488C162.976 202.292 163.078 201.942 163.078 201.438V200.864H161.44ZM169.046 196.818C169.588 196.818 170.078 196.879 170.516 197C170.964 197.121 171.352 197.327 171.678 197.616L170.782 198.526C170.558 198.339 170.292 198.209 169.984 198.134C169.686 198.05 169.368 198.008 169.032 198.008C168.594 198.008 168.267 198.092 168.052 198.26C167.847 198.428 167.744 198.647 167.744 198.918C167.744 199.161 167.819 199.347 167.968 199.478C168.118 199.609 168.37 199.693 168.724 199.73L169.718 199.814C170.456 199.879 171.011 200.075 171.384 200.402C171.767 200.729 171.958 201.205 171.958 201.83C171.958 202.203 171.884 202.53 171.734 202.81C171.585 203.09 171.38 203.328 171.118 203.524C170.857 203.711 170.544 203.851 170.18 203.944C169.816 204.037 169.424 204.084 169.004 204.084C168.426 204.084 167.889 204.019 167.394 203.888C166.9 203.748 166.442 203.473 166.022 203.062L166.96 202.124C167.25 202.423 167.572 202.623 167.926 202.726C168.29 202.819 168.65 202.866 169.004 202.866C169.452 202.866 169.821 202.787 170.11 202.628C170.409 202.469 170.558 202.222 170.558 201.886C170.558 201.643 170.484 201.452 170.334 201.312C170.194 201.172 169.952 201.083 169.606 201.046L168.472 200.948C167.8 200.883 167.282 200.696 166.918 200.388C166.554 200.08 166.372 199.613 166.372 198.988C166.372 198.643 166.442 198.335 166.582 198.064C166.722 197.793 166.914 197.565 167.156 197.378C167.399 197.191 167.679 197.051 167.996 196.958C168.323 196.865 168.673 196.818 169.046 196.818ZM174.745 200.864C174.745 201.48 174.899 201.965 175.207 202.32C175.515 202.675 175.963 202.852 176.551 202.852C176.952 202.852 177.274 202.796 177.517 202.684C177.769 202.563 178.021 202.376 178.273 202.124L179.183 202.978C178.996 203.165 178.809 203.328 178.623 203.468C178.445 203.599 178.249 203.711 178.035 203.804C177.829 203.897 177.601 203.967 177.349 204.014C177.106 204.061 176.831 204.084 176.523 204.084C176.075 204.084 175.655 204.023 175.263 203.902C174.88 203.771 174.544 203.566 174.255 203.286C173.975 202.997 173.751 202.619 173.583 202.152C173.415 201.685 173.331 201.116 173.331 200.444C173.331 199.277 173.601 198.381 174.143 197.756C174.693 197.131 175.426 196.818 176.341 196.818C176.817 196.818 177.241 196.902 177.615 197.07C177.988 197.229 178.301 197.462 178.553 197.77C178.814 198.069 179.01 198.433 179.141 198.862C179.281 199.282 179.351 199.749 179.351 200.262V200.864H174.745ZM177.937 199.87C177.918 199.655 177.899 199.483 177.881 199.352C177.862 199.212 177.815 199.063 177.741 198.904C177.619 198.633 177.437 198.419 177.195 198.26C176.961 198.092 176.677 198.008 176.341 198.008C175.995 198.008 175.701 198.092 175.459 198.26C175.225 198.419 175.048 198.633 174.927 198.904C174.852 199.063 174.805 199.212 174.787 199.352C174.768 199.483 174.754 199.655 174.745 199.87H177.937Z"
    fill="black" />
  <path
    d="M189.586 202.362L193.31 198.036C193.496 197.821 193.632 197.625 193.716 197.448C193.8 197.271 193.842 197.065 193.842 196.832C193.842 196.459 193.739 196.16 193.534 195.936C193.328 195.703 193.03 195.586 192.638 195.586C192.479 195.586 192.325 195.609 192.176 195.656C192.036 195.693 191.905 195.763 191.784 195.866C191.672 195.959 191.578 196.09 191.504 196.258C191.438 196.417 191.406 196.617 191.406 196.86H189.586C189.586 196.403 189.665 195.997 189.824 195.642C189.982 195.278 190.197 194.97 190.468 194.718C190.748 194.466 191.07 194.275 191.434 194.144C191.807 194.013 192.208 193.948 192.638 193.948C193.076 193.948 193.482 194.018 193.856 194.158C194.229 194.289 194.546 194.48 194.808 194.732C195.078 194.975 195.288 195.278 195.438 195.642C195.587 195.997 195.662 196.398 195.662 196.846C195.662 197.089 195.638 197.308 195.592 197.504C195.545 197.691 195.475 197.873 195.382 198.05C195.288 198.218 195.172 198.391 195.032 198.568C194.901 198.745 194.752 198.932 194.584 199.128L191.798 202.362H195.662V204H189.586V202.362ZM203.949 194.032H205.377L200.659 204H199.231L203.949 194.032ZM199.119 199.17C198.849 199.17 198.587 199.133 198.335 199.058C198.093 198.974 197.878 198.853 197.691 198.694C197.505 198.526 197.355 198.325 197.243 198.092C197.141 197.849 197.089 197.569 197.089 197.252V195.866C197.089 195.549 197.141 195.273 197.243 195.04C197.355 194.797 197.505 194.597 197.691 194.438C197.878 194.27 198.093 194.149 198.335 194.074C198.587 193.99 198.849 193.948 199.119 193.948C199.39 193.948 199.647 193.99 199.889 194.074C200.141 194.149 200.361 194.27 200.547 194.438C200.734 194.597 200.879 194.797 200.981 195.04C201.093 195.273 201.149 195.549 201.149 195.866V197.252C201.149 197.569 201.093 197.849 200.981 198.092C200.879 198.325 200.734 198.526 200.547 198.694C200.361 198.853 200.141 198.974 199.889 199.058C199.647 199.133 199.39 199.17 199.119 199.17ZM199.119 197.994C199.334 197.994 199.507 197.929 199.637 197.798C199.768 197.658 199.833 197.453 199.833 197.182V195.936C199.833 195.665 199.768 195.465 199.637 195.334C199.507 195.203 199.334 195.138 199.119 195.138C198.905 195.138 198.732 195.203 198.601 195.334C198.48 195.465 198.419 195.665 198.419 195.936V197.182C198.419 197.453 198.48 197.658 198.601 197.798C198.732 197.929 198.905 197.994 199.119 197.994ZM205.475 204.084C205.205 204.084 204.943 204.047 204.691 203.972C204.449 203.888 204.234 203.767 204.047 203.608C203.861 203.44 203.711 203.239 203.599 203.006C203.497 202.763 203.445 202.483 203.445 202.166V200.78C203.445 200.463 203.497 200.187 203.599 199.954C203.711 199.711 203.861 199.511 204.047 199.352C204.234 199.184 204.449 199.063 204.691 198.988C204.943 198.904 205.205 198.862 205.475 198.862C205.746 198.862 206.003 198.904 206.245 198.988C206.497 199.063 206.717 199.184 206.903 199.352C207.09 199.511 207.235 199.711 207.337 199.954C207.449 200.187 207.505 200.463 207.505 200.78V202.166C207.505 202.483 207.449 202.763 207.337 203.006C207.235 203.239 207.09 203.44 206.903 203.608C206.717 203.767 206.497 203.888 206.245 203.972C206.003 204.047 205.746 204.084 205.475 204.084ZM205.475 202.894C205.69 202.894 205.863 202.829 205.993 202.698C206.124 202.567 206.189 202.367 206.189 202.096V200.85C206.189 200.579 206.124 200.379 205.993 200.248C205.863 200.108 205.69 200.038 205.475 200.038C205.261 200.038 205.088 200.108 204.957 200.248C204.827 200.379 204.761 200.579 204.761 200.85V202.096C204.761 202.367 204.827 202.567 204.957 202.698C205.088 202.829 205.261 202.894 205.475 202.894Z"
    fill="black" />
</svg>