<svg width="40" height="40" viewBox="0 0 40 40" fill="none" xmlns="http://www.w3.org/2000/svg">
  <path
    d="M0.5 8C0.5 3.85786 3.85786 0.5 8 0.5H32C36.1421 0.5 39.5 3.85786 39.5 8V32C39.5 36.1421 36.1421 39.5 32 39.5H8C3.85786 39.5 0.5 36.1421 0.5 32V8Z"
    stroke="white" stroke-opacity="0.24" />
  <path opacity="0.85"
    d="M20 10C14.487 10 10 14.487 10 20C10 25.513 14.487 30 20 30C25.513 30 30 25.513 30 20C30 14.487 25.513 10 20 10ZM20 28.5365C15.3168 28.5365 11.4635 24.6832 11.4635 20C11.4635 15.3168 15.3168 11.4635 20 11.4635C24.6832 11.4635 28.5365 15.3168 28.5365 20C28.5365 24.6832 24.6832 28.5365 20 28.5365ZM19.0239 15.6095C19.0239 15.8684 19.1267 16.1167 19.3098 16.2998C19.4928 16.4828 19.7411 16.5857 20 16.5857C20.2589 16.5857 20.5072 16.4828 20.6902 16.2998C20.8733 16.1167 20.9761 15.8684 20.9761 15.6095C20.9761 15.3507 20.8733 15.1024 20.6902 14.9193C20.5072 14.7362 20.2589 14.6334 20 14.6334C19.7411 14.6334 19.4928 14.7362 19.3098 14.9193C19.1267 15.1024 19.0239 15.3507 19.0239 15.6095ZM20 18.2921C19.6092 18.2921 19.2683 18.6346 19.2683 19.0239V24.3905C19.2683 24.7812 19.6092 25.1222 20 25.1222C20.3908 25.1222 20.7317 24.7812 20.7317 24.3905V19.0239C20.7317 18.6346 20.3908 18.2921 20 18.2921Z"
    fill="white" />
</svg>