<svg width="40" height="40" viewBox="0 0 40 40" fill="none" xmlns="http://www.w3.org/2000/svg">
  <path
    d="M8 0.5H32C36.1421 0.5 39.5 3.85786 39.5 8V32C39.5 36.1421 36.1421 39.5 32 39.5H8C3.85786 39.5 0.5 36.1421 0.5 32V8C0.5 3.85786 3.85786 0.5 8 0.5Z"
    stroke="white" stroke-opacity="0.24" />
  <path
    d="M12.3909 10.9608C12.0142 10.9608 11.653 11.1104 11.3867 11.3767C11.1203 11.643 10.9707 12.0043 10.9707 12.3809V15.2213H30.0012V12.3809C30.0012 12.0043 29.8516 11.643 29.5853 11.3767C29.3189 11.1104 28.9577 10.9608 28.581 10.9608H12.3909Z"
    fill="#C0C0C0" />
  <path
    d="M13.3831 10.9608H11.9629C12.1494 10.9608 12.3341 10.9975 12.5064 11.0689C12.6787 11.1402 12.8352 11.2448 12.9671 11.3767C13.099 11.5086 13.2036 11.6651 13.275 11.8375C13.3463 12.0098 13.3831 12.1944 13.3831 12.3809V27.8964C13.3831 29.001 14.2785 29.8964 15.3831 29.8964H25.585C26.6895 29.8964 27.585 29.001 27.585 27.8964V12.3809C27.585 12.0043 27.7346 11.643 28.0009 11.3767C28.2673 11.1104 28.6285 10.9608 29.0052 10.9608H13.3831Z"
    fill="white" />
  <path
    d="M21.832 24.9746C21.832 25.6792 21.2608 26.2503 20.5562 26.2503V26.2503C19.8516 26.2503 19.2804 25.6792 19.2804 24.9746V20.8191C19.2804 20.1145 19.8516 19.5433 20.5562 19.5433V19.5433C21.2608 19.5433 21.832 20.1145 21.832 20.8191V24.9746ZM21.8452 17.0481C21.8452 17.6648 21.3453 18.1648 20.7285 18.1648H20.3706C19.7539 18.1648 19.2539 17.6648 19.2539 17.0481V17.0481C19.2539 16.4313 19.7539 15.9314 20.3706 15.9314H20.7285C21.3453 15.9314 21.8452 16.4313 21.8452 17.0481V17.0481Z"
    fill="black" />
</svg>