<svg width="302" height="150" viewBox="0 0 302 150" fill="none" xmlns="http://www.w3.org/2000/svg">
  <path d="M90 2.5L90 83" stroke="black" stroke-opacity="0.3" stroke-width="2"
    stroke-dasharray="2 2" />
  <path d="M211 2.5L211 83" stroke="black" stroke-opacity="0.3" stroke-width="2"
    stroke-dasharray="2 2" />
  <path
    d="M87.2438 114.032C88.2331 114.032 88.9938 114.289 89.5258 114.802C90.0671 115.306 90.3378 115.983 90.3378 116.832C90.3378 117.112 90.2958 117.364 90.2118 117.588C90.1371 117.812 90.0345 118.013 89.9038 118.19C89.7825 118.358 89.6471 118.503 89.4978 118.624C89.3578 118.736 89.2271 118.825 89.1058 118.89C89.2551 118.965 89.4138 119.063 89.5818 119.184C89.7498 119.296 89.8991 119.441 90.0298 119.618C90.1605 119.795 90.2678 120.01 90.3518 120.262C90.4451 120.505 90.4918 120.794 90.4918 121.13C90.4918 121.597 90.4125 122.007 90.2538 122.362C90.1045 122.717 89.8945 123.015 89.6238 123.258C89.3531 123.501 89.0311 123.687 88.6578 123.818C88.2845 123.939 87.8738 124 87.4258 124H83.2538V114.032H87.2438ZM85.1998 119.814V122.264H87.2438C87.6825 122.264 88.0091 122.147 88.2238 121.914C88.4385 121.681 88.5458 121.387 88.5458 121.032C88.5458 120.687 88.4385 120.397 88.2238 120.164C88.0091 119.931 87.6825 119.814 87.2438 119.814H85.1998ZM85.1998 115.768V118.078H87.1178C87.5378 118.078 87.8551 117.975 88.0698 117.77C88.2845 117.555 88.3918 117.271 88.3918 116.916C88.3918 116.571 88.2845 116.295 88.0698 116.09C87.8551 115.875 87.5378 115.768 87.1178 115.768H85.1998ZM94.7786 115.992L92.7486 117.756V115.796L94.7786 114.032H96.5986V124H94.7786V115.992Z"
    fill="black" />
  <path
    d="M209.244 114.032C210.233 114.032 210.994 114.289 211.526 114.802C212.067 115.306 212.338 115.983 212.338 116.832C212.338 117.112 212.296 117.364 212.212 117.588C212.137 117.812 212.034 118.013 211.904 118.19C211.782 118.358 211.647 118.503 211.498 118.624C211.358 118.736 211.227 118.825 211.106 118.89C211.255 118.965 211.414 119.063 211.582 119.184C211.75 119.296 211.899 119.441 212.03 119.618C212.16 119.795 212.268 120.01 212.352 120.262C212.445 120.505 212.492 120.794 212.492 121.13C212.492 121.597 212.412 122.007 212.254 122.362C212.104 122.717 211.894 123.015 211.624 123.258C211.353 123.501 211.031 123.687 210.658 123.818C210.284 123.939 209.874 124 209.426 124H205.254V114.032H209.244ZM207.2 119.814V122.264H209.244C209.682 122.264 210.009 122.147 210.224 121.914C210.438 121.681 210.546 121.387 210.546 121.032C210.546 120.687 210.438 120.397 210.224 120.164C210.009 119.931 209.682 119.814 209.244 119.814H207.2ZM207.2 115.768V118.078H209.118C209.538 118.078 209.855 117.975 210.07 117.77C210.284 117.555 210.392 117.271 210.392 116.916C210.392 116.571 210.284 116.295 210.07 116.09C209.855 115.875 209.538 115.768 209.118 115.768H207.2ZM214.133 122.362L217.857 118.036C218.043 117.821 218.179 117.625 218.263 117.448C218.347 117.271 218.389 117.065 218.389 116.832C218.389 116.459 218.286 116.16 218.081 115.936C217.875 115.703 217.577 115.586 217.185 115.586C217.026 115.586 216.872 115.609 216.723 115.656C216.583 115.693 216.452 115.763 216.331 115.866C216.219 115.959 216.125 116.09 216.051 116.258C215.985 116.417 215.953 116.617 215.953 116.86H214.133C214.133 116.403 214.212 115.997 214.371 115.642C214.529 115.278 214.744 114.97 215.015 114.718C215.295 114.466 215.617 114.275 215.981 114.144C216.354 114.013 216.755 113.948 217.185 113.948C217.623 113.948 218.029 114.018 218.403 114.158C218.776 114.289 219.093 114.48 219.355 114.732C219.625 114.975 219.835 115.278 219.985 115.642C220.134 115.997 220.209 116.398 220.209 116.846C220.209 117.089 220.185 117.308 220.139 117.504C220.092 117.691 220.022 117.873 219.929 118.05C219.835 118.218 219.719 118.391 219.579 118.568C219.448 118.745 219.299 118.932 219.131 119.128L216.345 122.362H220.209V124H214.133V122.362Z"
    fill="black" />
  <path
    d="M55.5953 146.184H59.9633V147H54.6833V138.456H55.5953V146.184ZM63.5062 141.024C63.8662 141.024 64.1862 141.084 64.4662 141.204C64.7462 141.324 64.9902 141.488 65.1982 141.696C65.5022 142 65.6982 142.356 65.7862 142.764C65.8742 143.164 65.9182 143.592 65.9182 144.048C65.9182 144.504 65.8702 144.936 65.7742 145.344C65.6862 145.744 65.4942 146.096 65.1982 146.4C64.9902 146.608 64.7462 146.772 64.4662 146.892C64.1862 147.012 63.8662 147.072 63.5062 147.072C63.1462 147.072 62.8262 147.012 62.5462 146.892C62.2662 146.772 62.0222 146.608 61.8142 146.4C61.6622 146.248 61.5382 146.084 61.4422 145.908C61.3542 145.724 61.2822 145.536 61.2262 145.344C61.1782 145.144 61.1422 144.936 61.1182 144.72C61.1022 144.504 61.0942 144.28 61.0942 144.048C61.0942 143.592 61.1382 143.164 61.2262 142.764C61.3142 142.356 61.5102 142 61.8142 141.696C62.0222 141.488 62.2662 141.324 62.5462 141.204C62.8262 141.084 63.1462 141.024 63.5062 141.024ZM63.5062 141.792C63.0822 141.792 62.7262 141.936 62.4382 142.224C62.2222 142.44 62.0862 142.716 62.0302 143.052C61.9822 143.38 61.9582 143.712 61.9582 144.048C61.9582 144.216 61.9622 144.384 61.9702 144.552C61.9782 144.72 61.9982 144.884 62.0302 145.044C62.0622 145.204 62.1102 145.356 62.1742 145.5C62.2382 145.636 62.3262 145.76 62.4382 145.872C62.7262 146.16 63.0822 146.304 63.5062 146.304C63.9382 146.304 64.2982 146.16 64.5862 145.872C64.8022 145.648 64.9342 145.372 64.9822 145.044C65.0302 144.716 65.0542 144.384 65.0542 144.048C65.0542 143.712 65.0302 143.38 64.9822 143.052C64.9342 142.716 64.8022 142.44 64.5862 142.224C64.2982 141.936 63.9382 141.792 63.5062 141.792ZM66.7629 141.096H67.6989L69.0669 145.836L70.6029 141.096H71.3589L72.8829 145.836L74.2509 141.096H75.1869L73.3149 147H72.5109L70.9749 142.188L69.4389 147H68.6469L66.7629 141.096ZM78.4359 141.024C79.2119 141.024 79.8079 141.28 80.2239 141.792C80.6479 142.296 80.8599 142.996 80.8599 143.892V144.276H76.8759C76.8759 144.924 77.0199 145.428 77.3079 145.788C77.6039 146.14 78.0399 146.316 78.6159 146.316C78.9599 146.316 79.2439 146.264 79.4679 146.16C79.6999 146.048 79.9319 145.876 80.1639 145.644L80.7519 146.16C80.5999 146.312 80.4479 146.444 80.2959 146.556C80.1519 146.668 79.9919 146.764 79.8159 146.844C79.6479 146.916 79.4639 146.972 79.2639 147.012C79.0639 147.052 78.8399 147.072 78.5919 147.072C78.1999 147.072 77.8439 147.012 77.5239 146.892C77.2039 146.772 76.9319 146.588 76.7079 146.34C76.4839 146.092 76.3119 145.78 76.1919 145.404C76.0719 145.02 76.0119 144.568 76.0119 144.048C76.0119 143.08 76.2279 142.336 76.6599 141.816C77.0919 141.288 77.6839 141.024 78.4359 141.024ZM78.4359 141.756C78.1159 141.756 77.8359 141.836 77.5959 141.996C77.3639 142.156 77.1839 142.372 77.0559 142.644C77.0159 142.724 76.9839 142.8 76.9599 142.872C76.9439 142.936 76.9279 143.004 76.9119 143.076C76.9039 143.148 76.8959 143.228 76.8879 143.316C76.8879 143.404 76.8839 143.508 76.8759 143.628H80.0079C79.9999 143.508 79.9919 143.404 79.9839 143.316C79.9759 143.228 79.9639 143.148 79.9479 143.076C79.9399 143.004 79.9239 142.936 79.8999 142.872C79.8759 142.8 79.8479 142.724 79.8159 142.644C79.6879 142.372 79.5039 142.156 79.2639 141.996C79.0319 141.836 78.7559 141.756 78.4359 141.756ZM85.2191 141.024C85.4991 141.024 85.7511 141.064 85.9751 141.144C86.2071 141.224 86.4271 141.368 86.6351 141.576L85.9991 142.224C85.8391 142.064 85.6871 141.952 85.5431 141.888C85.3991 141.824 85.2111 141.792 84.9791 141.792C84.7631 141.792 84.5671 141.832 84.3911 141.912C84.2151 141.992 84.0671 142.104 83.9471 142.248C83.8271 142.392 83.7311 142.56 83.6591 142.752C83.5951 142.944 83.5631 143.152 83.5631 143.376V147H82.6991V141.096H83.5631V141.816C83.7231 141.568 83.9511 141.376 84.2471 141.24C84.5511 141.096 84.8751 141.024 85.2191 141.024ZM94.1102 138.456C94.4782 138.456 94.8182 138.508 95.1302 138.612C95.4422 138.716 95.7062 138.868 95.9222 139.068C96.1462 139.26 96.3182 139.496 96.4382 139.776C96.5662 140.056 96.6302 140.376 96.6302 140.736C96.6302 141.192 96.5102 141.584 96.2702 141.912C96.0302 142.24 95.7302 142.472 95.3702 142.608C95.7782 142.76 96.1102 143.008 96.3662 143.352C96.6302 143.696 96.7622 144.124 96.7622 144.636C96.7622 145.02 96.6982 145.36 96.5702 145.656C96.4502 145.952 96.2782 146.2 96.0542 146.4C95.8302 146.6 95.5622 146.752 95.2502 146.856C94.9382 146.952 94.5942 147 94.2182 147H90.8942V138.456H94.1102ZM91.8062 143.052V146.184H94.1342C94.6622 146.184 95.0782 146.044 95.3822 145.764C95.6942 145.476 95.8502 145.092 95.8502 144.612C95.8502 144.132 95.6942 143.752 95.3822 143.472C95.0782 143.192 94.6622 143.052 94.1342 143.052H91.8062ZM91.8062 139.272V142.236H94.0382C94.2782 142.236 94.4982 142.208 94.6982 142.152C94.9062 142.088 95.0822 141.996 95.2262 141.876C95.3782 141.756 95.4982 141.604 95.5862 141.42C95.6742 141.228 95.7182 141.004 95.7182 140.748C95.7182 140.492 95.6742 140.272 95.5862 140.088C95.4982 139.904 95.3782 139.752 95.2262 139.632C95.0822 139.512 94.9062 139.424 94.6982 139.368C94.4982 139.304 94.2782 139.272 94.0382 139.272H91.8062ZM100.602 141.024C101.402 141.024 101.994 141.192 102.378 141.528C102.77 141.864 102.966 142.352 102.966 142.992V147H102.102V146.436C101.87 146.668 101.626 146.832 101.37 146.928C101.114 147.024 100.79 147.072 100.398 147.072C99.9898 147.072 99.6618 147.032 99.4138 146.952C99.1658 146.872 98.9378 146.732 98.7298 146.532C98.5778 146.388 98.4658 146.212 98.3938 146.004C98.3218 145.788 98.2858 145.564 98.2858 145.332C98.2858 144.804 98.4618 144.388 98.8138 144.084C99.1658 143.78 99.6738 143.628 100.338 143.628H102.102V143.064C102.102 142.632 101.986 142.308 101.754 142.092C101.53 141.876 101.142 141.768 100.59 141.768C100.214 141.768 99.9178 141.82 99.7018 141.924C99.4858 142.028 99.2858 142.204 99.1018 142.452L98.5138 141.912C98.7698 141.568 99.0578 141.336 99.3778 141.216C99.7058 141.088 100.114 141.024 100.602 141.024ZM100.458 144.276C99.5698 144.276 99.1258 144.624 99.1258 145.32C99.1258 145.664 99.2338 145.92 99.4498 146.088C99.6658 146.248 100.014 146.328 100.494 146.328C100.742 146.328 100.974 146.308 101.19 146.268C101.406 146.22 101.61 146.108 101.802 145.932C102.002 145.74 102.102 145.4 102.102 144.912V144.276H100.458ZM107.59 141.024C107.87 141.024 108.122 141.064 108.346 141.144C108.578 141.224 108.798 141.368 109.006 141.576L108.37 142.224C108.21 142.064 108.058 141.952 107.914 141.888C107.77 141.824 107.582 141.792 107.35 141.792C107.134 141.792 106.938 141.832 106.762 141.912C106.586 141.992 106.438 142.104 106.318 142.248C106.198 142.392 106.102 142.56 106.03 142.752C105.966 142.944 105.934 143.152 105.934 143.376V147H105.07V141.096H105.934V141.816C106.094 141.568 106.322 141.376 106.618 141.24C106.922 141.096 107.246 141.024 107.59 141.024ZM112.641 141.024C112.921 141.024 113.173 141.064 113.397 141.144C113.629 141.224 113.849 141.368 114.057 141.576L113.421 142.224C113.261 142.064 113.109 141.952 112.965 141.888C112.821 141.824 112.633 141.792 112.401 141.792C112.185 141.792 111.989 141.832 111.813 141.912C111.637 141.992 111.489 142.104 111.369 142.248C111.249 142.392 111.153 142.56 111.081 142.752C111.017 142.944 110.985 143.152 110.985 143.376V147H110.121V141.096H110.985V141.816C111.145 141.568 111.373 141.376 111.669 141.24C111.973 141.096 112.297 141.024 112.641 141.024ZM116.036 147H115.172V141.096H116.036V147ZM116.096 139.416H115.124V138.444H116.096V139.416ZM120.307 141.024C121.083 141.024 121.679 141.28 122.095 141.792C122.519 142.296 122.731 142.996 122.731 143.892V144.276H118.747C118.747 144.924 118.891 145.428 119.179 145.788C119.475 146.14 119.911 146.316 120.487 146.316C120.831 146.316 121.115 146.264 121.339 146.16C121.571 146.048 121.803 145.876 122.035 145.644L122.623 146.16C122.471 146.312 122.319 146.444 122.167 146.556C122.023 146.668 121.863 146.764 121.687 146.844C121.519 146.916 121.335 146.972 121.135 147.012C120.935 147.052 120.711 147.072 120.463 147.072C120.071 147.072 119.715 147.012 119.395 146.892C119.075 146.772 118.803 146.588 118.579 146.34C118.355 146.092 118.183 145.78 118.063 145.404C117.943 145.02 117.883 144.568 117.883 144.048C117.883 143.08 118.099 142.336 118.531 141.816C118.963 141.288 119.555 141.024 120.307 141.024ZM120.307 141.756C119.987 141.756 119.707 141.836 119.467 141.996C119.235 142.156 119.055 142.372 118.927 142.644C118.887 142.724 118.855 142.8 118.831 142.872C118.815 142.936 118.799 143.004 118.783 143.076C118.775 143.148 118.767 143.228 118.759 143.316C118.759 143.404 118.755 143.508 118.747 143.628H121.879C121.871 143.508 121.863 143.404 121.855 143.316C121.847 143.228 121.835 143.148 121.819 143.076C121.811 143.004 121.795 142.936 121.771 142.872C121.747 142.8 121.719 142.724 121.687 142.644C121.559 142.372 121.375 142.156 121.135 141.996C120.903 141.836 120.627 141.756 120.307 141.756ZM127.09 141.024C127.37 141.024 127.622 141.064 127.846 141.144C128.078 141.224 128.298 141.368 128.506 141.576L127.87 142.224C127.71 142.064 127.558 141.952 127.414 141.888C127.27 141.824 127.082 141.792 126.85 141.792C126.634 141.792 126.438 141.832 126.262 141.912C126.086 141.992 125.938 142.104 125.818 142.248C125.698 142.392 125.602 142.56 125.53 142.752C125.466 142.944 125.434 143.152 125.434 143.376V147H124.57V141.096H125.434V141.816C125.594 141.568 125.822 141.376 126.118 141.24C126.422 141.096 126.746 141.024 127.09 141.024Z"
    fill="black" />
  <path
    d="M180.303 144.18C180.303 144.604 180.227 144.996 180.075 145.356C179.931 145.708 179.723 146.012 179.451 146.268C179.187 146.524 178.871 146.724 178.503 146.868C178.143 147.004 177.747 147.072 177.315 147.072C176.883 147.072 176.483 147.004 176.115 146.868C175.755 146.724 175.443 146.524 175.179 146.268C174.915 146.012 174.707 145.708 174.555 145.356C174.411 144.996 174.339 144.604 174.339 144.18V138.456H175.251V144.108C175.251 144.436 175.299 144.732 175.395 144.996C175.491 145.26 175.627 145.484 175.803 145.668C175.987 145.852 176.207 145.996 176.463 146.1C176.719 146.204 177.003 146.256 177.315 146.256C177.627 146.256 177.911 146.204 178.167 146.1C178.423 145.996 178.639 145.852 178.815 145.668C178.999 145.484 179.139 145.26 179.235 144.996C179.339 144.732 179.391 144.436 179.391 144.108V138.456H180.303V144.18ZM185.026 141.024C185.33 141.024 185.606 141.072 185.854 141.168C186.102 141.256 186.306 141.38 186.466 141.54C186.61 141.684 186.73 141.852 186.826 142.044C186.922 142.236 186.994 142.44 187.042 142.656C187.098 142.872 187.134 143.1 187.15 143.34C187.174 143.572 187.186 143.808 187.186 144.048C187.186 144.528 187.138 144.992 187.042 145.44C186.954 145.88 186.762 146.252 186.466 146.556C186.306 146.716 186.102 146.844 185.854 146.94C185.606 147.028 185.33 147.072 185.026 147.072C184.698 147.072 184.398 147.02 184.126 146.916C183.862 146.812 183.606 146.608 183.358 146.304V149.64H182.494V141.096H183.358V141.792C183.606 141.488 183.862 141.284 184.126 141.18C184.39 141.076 184.69 141.024 185.026 141.024ZM184.846 141.792C184.518 141.792 184.258 141.856 184.066 141.984C183.874 142.112 183.722 142.28 183.61 142.488C183.506 142.696 183.438 142.936 183.406 143.208C183.374 143.48 183.358 143.76 183.358 144.048C183.358 144.336 183.374 144.616 183.406 144.888C183.438 145.16 183.506 145.4 183.61 145.608C183.722 145.816 183.874 145.984 184.066 146.112C184.258 146.24 184.518 146.304 184.846 146.304C185.166 146.304 185.422 146.24 185.614 146.112C185.814 145.984 185.966 145.816 186.07 145.608C186.174 145.4 186.242 145.16 186.274 144.888C186.306 144.616 186.322 144.336 186.322 144.048C186.322 143.76 186.306 143.48 186.274 143.208C186.242 142.936 186.174 142.696 186.07 142.488C185.966 142.28 185.814 142.112 185.614 141.984C185.422 141.856 185.166 141.792 184.846 141.792ZM191.565 141.024C191.869 141.024 192.145 141.072 192.393 141.168C192.641 141.256 192.845 141.38 193.005 141.54C193.149 141.684 193.269 141.852 193.365 142.044C193.461 142.236 193.533 142.44 193.581 142.656C193.637 142.872 193.673 143.1 193.689 143.34C193.713 143.572 193.725 143.808 193.725 144.048C193.725 144.528 193.677 144.992 193.581 145.44C193.493 145.88 193.301 146.252 193.005 146.556C192.845 146.716 192.641 146.844 192.393 146.94C192.145 147.028 191.869 147.072 191.565 147.072C191.237 147.072 190.937 147.02 190.665 146.916C190.401 146.812 190.145 146.608 189.897 146.304V149.64H189.033V141.096H189.897V141.792C190.145 141.488 190.401 141.284 190.665 141.18C190.929 141.076 191.229 141.024 191.565 141.024ZM191.385 141.792C191.057 141.792 190.797 141.856 190.605 141.984C190.413 142.112 190.261 142.28 190.149 142.488C190.045 142.696 189.977 142.936 189.945 143.208C189.913 143.48 189.897 143.76 189.897 144.048C189.897 144.336 189.913 144.616 189.945 144.888C189.977 145.16 190.045 145.4 190.149 145.608C190.261 145.816 190.413 145.984 190.605 146.112C190.797 146.24 191.057 146.304 191.385 146.304C191.705 146.304 191.961 146.24 192.153 146.112C192.353 145.984 192.505 145.816 192.609 145.608C192.713 145.4 192.781 145.16 192.813 144.888C192.845 144.616 192.861 144.336 192.861 144.048C192.861 143.76 192.845 143.48 192.813 143.208C192.781 142.936 192.713 142.696 192.609 142.488C192.505 142.28 192.353 142.112 192.153 141.984C191.961 141.856 191.705 141.792 191.385 141.792ZM197.672 141.024C198.448 141.024 199.044 141.28 199.46 141.792C199.884 142.296 200.096 142.996 200.096 143.892V144.276H196.112C196.112 144.924 196.256 145.428 196.544 145.788C196.84 146.14 197.276 146.316 197.852 146.316C198.196 146.316 198.48 146.264 198.704 146.16C198.936 146.048 199.168 145.876 199.4 145.644L199.988 146.16C199.836 146.312 199.684 146.444 199.532 146.556C199.388 146.668 199.228 146.764 199.052 146.844C198.884 146.916 198.7 146.972 198.5 147.012C198.3 147.052 198.076 147.072 197.828 147.072C197.436 147.072 197.08 147.012 196.76 146.892C196.44 146.772 196.168 146.588 195.944 146.34C195.72 146.092 195.548 145.78 195.428 145.404C195.308 145.02 195.248 144.568 195.248 144.048C195.248 143.08 195.464 142.336 195.896 141.816C196.328 141.288 196.92 141.024 197.672 141.024ZM197.672 141.756C197.352 141.756 197.072 141.836 196.832 141.996C196.6 142.156 196.42 142.372 196.292 142.644C196.252 142.724 196.22 142.8 196.196 142.872C196.18 142.936 196.164 143.004 196.148 143.076C196.14 143.148 196.132 143.228 196.124 143.316C196.124 143.404 196.12 143.508 196.112 143.628H199.244C199.236 143.508 199.228 143.404 199.22 143.316C199.212 143.228 199.2 143.148 199.184 143.076C199.176 143.004 199.16 142.936 199.136 142.872C199.112 142.8 199.084 142.724 199.052 142.644C198.924 142.372 198.74 142.156 198.5 141.996C198.268 141.836 197.992 141.756 197.672 141.756ZM204.455 141.024C204.735 141.024 204.987 141.064 205.211 141.144C205.443 141.224 205.663 141.368 205.871 141.576L205.235 142.224C205.075 142.064 204.923 141.952 204.779 141.888C204.635 141.824 204.447 141.792 204.215 141.792C203.999 141.792 203.803 141.832 203.627 141.912C203.451 141.992 203.303 142.104 203.183 142.248C203.063 142.392 202.967 142.56 202.895 142.752C202.831 142.944 202.799 143.152 202.799 143.376V147H201.935V141.096H202.799V141.816C202.959 141.568 203.187 141.376 203.483 141.24C203.787 141.096 204.111 141.024 204.455 141.024ZM213.347 138.456C213.715 138.456 214.055 138.508 214.367 138.612C214.679 138.716 214.943 138.868 215.159 139.068C215.383 139.26 215.555 139.496 215.675 139.776C215.803 140.056 215.867 140.376 215.867 140.736C215.867 141.192 215.747 141.584 215.507 141.912C215.267 142.24 214.967 142.472 214.607 142.608C215.015 142.76 215.347 143.008 215.603 143.352C215.867 143.696 215.999 144.124 215.999 144.636C215.999 145.02 215.935 145.36 215.807 145.656C215.687 145.952 215.515 146.2 215.291 146.4C215.067 146.6 214.799 146.752 214.487 146.856C214.175 146.952 213.831 147 213.455 147H210.131V138.456H213.347ZM211.043 143.052V146.184H213.371C213.899 146.184 214.315 146.044 214.619 145.764C214.931 145.476 215.087 145.092 215.087 144.612C215.087 144.132 214.931 143.752 214.619 143.472C214.315 143.192 213.899 143.052 213.371 143.052H211.043ZM211.043 139.272V142.236H213.275C213.515 142.236 213.735 142.208 213.935 142.152C214.143 142.088 214.319 141.996 214.463 141.876C214.615 141.756 214.735 141.604 214.823 141.42C214.911 141.228 214.955 141.004 214.955 140.748C214.955 140.492 214.911 140.272 214.823 140.088C214.735 139.904 214.615 139.752 214.463 139.632C214.319 139.512 214.143 139.424 213.935 139.368C213.735 139.304 213.515 139.272 213.275 139.272H211.043ZM219.838 141.024C220.638 141.024 221.23 141.192 221.614 141.528C222.006 141.864 222.202 142.352 222.202 142.992V147H221.338V146.436C221.106 146.668 220.862 146.832 220.606 146.928C220.35 147.024 220.026 147.072 219.634 147.072C219.226 147.072 218.898 147.032 218.65 146.952C218.402 146.872 218.174 146.732 217.966 146.532C217.814 146.388 217.702 146.212 217.63 146.004C217.558 145.788 217.522 145.564 217.522 145.332C217.522 144.804 217.698 144.388 218.05 144.084C218.402 143.78 218.91 143.628 219.574 143.628H221.338V143.064C221.338 142.632 221.222 142.308 220.99 142.092C220.766 141.876 220.378 141.768 219.826 141.768C219.45 141.768 219.154 141.82 218.938 141.924C218.722 142.028 218.522 142.204 218.338 142.452L217.75 141.912C218.006 141.568 218.294 141.336 218.614 141.216C218.942 141.088 219.35 141.024 219.838 141.024ZM219.694 144.276C218.806 144.276 218.362 144.624 218.362 145.32C218.362 145.664 218.47 145.92 218.686 146.088C218.902 146.248 219.25 146.328 219.73 146.328C219.978 146.328 220.21 146.308 220.426 146.268C220.642 146.22 220.846 146.108 221.038 145.932C221.238 145.74 221.338 145.4 221.338 144.912V144.276H219.694ZM226.827 141.024C227.107 141.024 227.359 141.064 227.583 141.144C227.815 141.224 228.035 141.368 228.243 141.576L227.607 142.224C227.447 142.064 227.295 141.952 227.151 141.888C227.007 141.824 226.819 141.792 226.587 141.792C226.371 141.792 226.175 141.832 225.999 141.912C225.823 141.992 225.675 142.104 225.555 142.248C225.435 142.392 225.339 142.56 225.267 142.752C225.203 142.944 225.171 143.152 225.171 143.376V147H224.307V141.096H225.171V141.816C225.331 141.568 225.559 141.376 225.855 141.24C226.159 141.096 226.483 141.024 226.827 141.024ZM231.877 141.024C232.157 141.024 232.409 141.064 232.633 141.144C232.865 141.224 233.085 141.368 233.293 141.576L232.657 142.224C232.497 142.064 232.345 141.952 232.201 141.888C232.057 141.824 231.869 141.792 231.637 141.792C231.421 141.792 231.225 141.832 231.049 141.912C230.873 141.992 230.725 142.104 230.605 142.248C230.485 142.392 230.389 142.56 230.317 142.752C230.253 142.944 230.221 143.152 230.221 143.376V147H229.357V141.096H230.221V141.816C230.381 141.568 230.609 141.376 230.905 141.24C231.209 141.096 231.533 141.024 231.877 141.024ZM235.272 147H234.408V141.096H235.272V147ZM235.332 139.416H234.36V138.444H235.332V139.416ZM239.543 141.024C240.319 141.024 240.915 141.28 241.331 141.792C241.755 142.296 241.967 142.996 241.967 143.892V144.276H237.983C237.983 144.924 238.127 145.428 238.415 145.788C238.711 146.14 239.147 146.316 239.723 146.316C240.067 146.316 240.351 146.264 240.575 146.16C240.807 146.048 241.039 145.876 241.271 145.644L241.859 146.16C241.707 146.312 241.555 146.444 241.403 146.556C241.259 146.668 241.099 146.764 240.923 146.844C240.755 146.916 240.571 146.972 240.371 147.012C240.171 147.052 239.947 147.072 239.699 147.072C239.307 147.072 238.951 147.012 238.631 146.892C238.311 146.772 238.039 146.588 237.815 146.34C237.591 146.092 237.419 145.78 237.299 145.404C237.179 145.02 237.119 144.568 237.119 144.048C237.119 143.08 237.335 142.336 237.767 141.816C238.199 141.288 238.791 141.024 239.543 141.024ZM239.543 141.756C239.223 141.756 238.943 141.836 238.703 141.996C238.471 142.156 238.291 142.372 238.163 142.644C238.123 142.724 238.091 142.8 238.067 142.872C238.051 142.936 238.035 143.004 238.019 143.076C238.011 143.148 238.003 143.228 237.995 143.316C237.995 143.404 237.991 143.508 237.983 143.628H241.115C241.107 143.508 241.099 143.404 241.091 143.316C241.083 143.228 241.071 143.148 241.055 143.076C241.047 143.004 241.031 142.936 241.007 142.872C240.983 142.8 240.955 142.724 240.923 142.644C240.795 142.372 240.611 142.156 240.371 141.996C240.139 141.836 239.863 141.756 239.543 141.756ZM246.327 141.024C246.607 141.024 246.859 141.064 247.083 141.144C247.315 141.224 247.535 141.368 247.743 141.576L247.107 142.224C246.947 142.064 246.795 141.952 246.651 141.888C246.507 141.824 246.319 141.792 246.087 141.792C245.871 141.792 245.675 141.832 245.499 141.912C245.323 141.992 245.175 142.104 245.055 142.248C244.935 142.392 244.839 142.56 244.767 142.752C244.703 142.944 244.671 143.152 244.671 143.376V147H243.807V141.096H244.671V141.816C244.831 141.568 245.059 141.376 245.355 141.24C245.659 141.096 245.983 141.024 246.327 141.024Z"
    fill="black" />
  <path fill-rule="evenodd" clip-rule="evenodd" d="M91 4H211V0H91V4Z" fill="#44C476" />
  <path fill-rule="evenodd" clip-rule="evenodd" d="M0 84H90V80H0V84Z" fill="#EB4476" />
  <path fill-rule="evenodd" clip-rule="evenodd" d="M212 84H302V80H212V84Z" fill="#EB4476" />
</svg>