<svg width="329" height="165" viewBox="0 0 329 165" fill="none" xmlns="http://www.w3.org/2000/svg">
  <path
    d="M94.8831 157.278L99.4371 165H96.5031L93.2091 159.168L91.5351 161.148V165H89.0331V152.184H91.5351V157.764L96.0711 152.184H99.1311L94.8831 157.278ZM103.991 154.704L101.381 156.972V154.452L103.991 152.184H106.331V165H103.991V154.704Z"
    fill="black" />
  <path
    d="M226.882 157.278L231.436 165H228.502L225.208 159.168L223.534 161.148V165H221.032V152.184H223.534V157.764L228.07 152.184H231.13L226.882 157.278ZM232.588 162.894L237.376 157.332C237.616 157.056 237.79 156.804 237.898 156.576C238.006 156.348 238.06 156.084 238.06 155.784C238.06 155.304 237.928 154.92 237.664 154.632C237.4 154.332 237.016 154.182 236.512 154.182C236.308 154.182 236.11 154.212 235.918 154.272C235.738 154.32 235.57 154.41 235.414 154.542C235.27 154.662 235.15 154.83 235.054 155.046C234.97 155.25 234.928 155.508 234.928 155.82H232.588C232.588 155.232 232.69 154.71 232.894 154.254C233.098 153.786 233.374 153.39 233.722 153.066C234.082 152.742 234.496 152.496 234.964 152.328C235.444 152.16 235.96 152.076 236.512 152.076C237.076 152.076 237.598 152.166 238.078 152.346C238.558 152.514 238.966 152.76 239.302 153.084C239.65 153.396 239.92 153.786 240.112 154.254C240.304 154.71 240.4 155.226 240.4 155.802C240.4 156.114 240.37 156.396 240.31 156.648C240.25 156.888 240.16 157.122 240.04 157.35C239.92 157.566 239.77 157.788 239.59 158.016C239.422 158.244 239.23 158.484 239.014 158.736L235.432 162.894H240.4V165H232.588V162.894Z"
    fill="black" />
  <path fill-rule="evenodd" clip-rule="evenodd" d="M0 129H98V0H0V129Z" fill="#62D62B" />
  <path fill-rule="evenodd" clip-rule="evenodd"
    d="M99 101.549V129H229.871V101.549L99 0.387695V101.549Z" fill="#00DA99" />
  <path fill-rule="evenodd" clip-rule="evenodd" d="M230.871 129H328.419V100.097H230.871V129Z"
    fill="#51ACF1" />
  <path
    d="M247.344 82.456C247.784 82.456 248.176 82.528 248.52 82.672C248.864 82.808 249.152 82.996 249.384 83.236C249.624 83.468 249.804 83.744 249.924 84.064C250.052 84.376 250.116 84.712 250.116 85.072C250.116 85.376 250.072 85.652 249.984 85.9C249.904 86.14 249.792 86.352 249.648 86.536C249.504 86.72 249.336 86.88 249.144 87.016C248.96 87.144 248.764 87.244 248.556 87.316L250.464 91H248.532L246.864 87.592H245.664V91H243.996V82.456H247.344ZM245.664 83.944V86.188H247.248C247.616 86.188 247.908 86.084 248.124 85.876C248.34 85.668 248.448 85.396 248.448 85.06C248.448 84.724 248.34 84.456 248.124 84.256C247.908 84.048 247.616 83.944 247.248 83.944H245.664ZM254.598 82.384C255.398 82.384 256.082 82.612 256.65 83.068C257.218 83.516 257.578 84.188 257.73 85.084H256.038C255.95 84.732 255.79 84.444 255.558 84.22C255.334 83.988 255.014 83.872 254.598 83.872C254.366 83.872 254.158 83.912 253.974 83.992C253.798 84.072 253.65 84.18 253.53 84.316C253.45 84.404 253.382 84.504 253.326 84.616C253.278 84.728 253.238 84.872 253.206 85.048C253.174 85.224 253.15 85.448 253.134 85.72C253.118 85.984 253.11 86.32 253.11 86.728C253.11 87.136 253.118 87.476 253.134 87.748C253.15 88.012 253.174 88.232 253.206 88.408C253.238 88.584 253.278 88.728 253.326 88.84C253.382 88.952 253.45 89.052 253.53 89.14C253.65 89.276 253.798 89.384 253.974 89.464C254.158 89.544 254.366 89.584 254.598 89.584C255.014 89.584 255.334 89.472 255.558 89.248C255.79 89.016 255.95 88.724 256.038 88.372H257.73C257.578 89.268 257.218 89.944 256.65 90.4C256.082 90.848 255.398 91.072 254.598 91.072C254.102 91.072 253.67 90.996 253.302 90.844C252.934 90.684 252.602 90.46 252.306 90.172C252.09 89.956 251.922 89.732 251.802 89.5C251.69 89.268 251.606 89.016 251.55 88.744C251.502 88.464 251.47 88.16 251.454 87.832C251.446 87.504 251.442 87.136 251.442 86.728C251.442 86.32 251.446 85.952 251.454 85.624C251.47 85.296 251.502 84.996 251.55 84.724C251.606 84.444 251.69 84.188 251.802 83.956C251.922 83.724 252.09 83.5 252.306 83.284C252.602 82.996 252.934 82.776 253.302 82.624C253.67 82.464 254.102 82.384 254.598 82.384ZM265.412 91H263.744V87.424H260.84V91H259.172V82.456H260.84V85.936H263.744V82.456H265.412V91ZM276.787 91H275.035L274.531 89.488H271.507L270.991 91H269.239L272.359 82.456H273.667L276.787 91ZM271.963 88.084H274.063L273.019 84.988L271.963 88.084ZM279.268 91H277.708V84.928H279.268V91ZM279.28 83.68H277.684V82.408H279.28V83.68ZM284.109 84.676C284.421 84.676 284.689 84.72 284.913 84.808C285.145 84.888 285.369 85.04 285.585 85.264L284.421 86.452C284.301 86.332 284.181 86.24 284.061 86.176C283.941 86.112 283.785 86.08 283.593 86.08C283.473 86.08 283.353 86.104 283.233 86.152C283.113 86.192 283.001 86.26 282.897 86.356C282.801 86.452 282.721 86.572 282.657 86.716C282.601 86.86 282.573 87.032 282.573 87.232V91H281.013V84.748H282.537V85.348C282.689 85.164 282.905 85.008 283.185 84.88C283.465 84.744 283.773 84.676 284.109 84.676ZM291.09 91H289.566V90.412C289.35 90.652 289.122 90.824 288.882 90.928C288.642 91.024 288.354 91.072 288.018 91.072C287.706 91.072 287.418 91.024 287.154 90.928C286.89 90.832 286.67 90.692 286.494 90.508C286.342 90.356 286.222 90.184 286.134 89.992C286.054 89.792 285.99 89.58 285.942 89.356C285.902 89.132 285.874 88.896 285.858 88.648C285.85 88.392 285.846 88.132 285.846 87.868C285.846 87.604 285.85 87.348 285.858 87.1C285.874 86.852 285.902 86.616 285.942 86.392C285.99 86.168 286.054 85.96 286.134 85.768C286.222 85.568 286.342 85.392 286.494 85.24C286.67 85.056 286.886 84.916 287.142 84.82C287.406 84.724 287.694 84.676 288.006 84.676C288.326 84.676 288.606 84.724 288.846 84.82C289.094 84.908 289.322 85.068 289.53 85.3V82.456H291.09V91ZM288.462 86.08C288.23 86.08 288.042 86.128 287.898 86.224C287.762 86.312 287.658 86.436 287.586 86.596C287.514 86.756 287.466 86.948 287.442 87.172C287.418 87.388 287.406 87.62 287.406 87.868C287.406 88.124 287.418 88.364 287.442 88.588C287.466 88.804 287.514 88.992 287.586 89.152C287.658 89.312 287.762 89.44 287.898 89.536C288.042 89.624 288.23 89.668 288.462 89.668C288.694 89.668 288.878 89.624 289.014 89.536C289.158 89.44 289.266 89.312 289.338 89.152C289.418 88.992 289.47 88.804 289.494 88.588C289.518 88.364 289.53 88.124 289.53 87.868C289.53 87.62 289.518 87.388 289.494 87.172C289.47 86.948 289.418 86.756 289.338 86.596C289.266 86.436 289.158 86.312 289.014 86.224C288.878 86.128 288.694 86.08 288.462 86.08ZM295.933 84.676C296.245 84.676 296.513 84.72 296.737 84.808C296.969 84.888 297.193 85.04 297.409 85.264L296.245 86.452C296.125 86.332 296.005 86.24 295.885 86.176C295.765 86.112 295.609 86.08 295.417 86.08C295.297 86.08 295.177 86.104 295.057 86.152C294.937 86.192 294.825 86.26 294.721 86.356C294.625 86.452 294.545 86.572 294.481 86.716C294.425 86.86 294.397 87.032 294.397 87.232V91H292.837V84.748H294.361V85.348C294.513 85.164 294.729 85.008 295.009 84.88C295.289 84.744 295.597 84.676 295.933 84.676ZM302.963 87.868C302.963 88.436 302.915 88.912 302.819 89.296C302.731 89.672 302.543 90.008 302.255 90.304C302.055 90.512 301.795 90.692 301.475 90.844C301.163 90.996 300.775 91.072 300.311 91.072C299.847 91.072 299.459 90.996 299.147 90.844C298.835 90.692 298.579 90.512 298.379 90.304C298.099 90 297.911 89.66 297.815 89.284C297.719 88.908 297.671 88.436 297.671 87.868C297.671 87.3 297.719 86.832 297.815 86.464C297.911 86.088 298.099 85.748 298.379 85.444C298.579 85.236 298.835 85.056 299.147 84.904C299.459 84.752 299.847 84.676 300.311 84.676C300.775 84.676 301.163 84.752 301.475 84.904C301.795 85.056 302.055 85.236 302.255 85.444C302.535 85.748 302.723 86.088 302.819 86.464C302.915 86.832 302.963 87.3 302.963 87.868ZM301.403 87.868C301.403 87.548 301.383 87.256 301.343 86.992C301.303 86.728 301.203 86.516 301.043 86.356C300.859 86.172 300.615 86.08 300.311 86.08C300.015 86.08 299.775 86.172 299.591 86.356C299.431 86.516 299.331 86.728 299.291 86.992C299.251 87.256 299.231 87.548 299.231 87.868C299.231 88.196 299.251 88.492 299.291 88.756C299.331 89.02 299.431 89.232 299.591 89.392C299.775 89.576 300.015 89.668 300.311 89.668C300.615 89.668 300.859 89.576 301.043 89.392C301.203 89.232 301.303 89.02 301.343 88.756C301.383 88.492 301.403 88.196 301.403 87.868ZM307.522 84.676C307.834 84.676 308.118 84.724 308.374 84.82C308.638 84.916 308.862 85.056 309.046 85.24C309.19 85.392 309.306 85.568 309.394 85.768C309.482 85.96 309.546 86.168 309.586 86.392C309.634 86.616 309.662 86.852 309.67 87.1C309.686 87.348 309.694 87.604 309.694 87.868C309.694 88.132 309.686 88.392 309.67 88.648C309.662 88.896 309.634 89.132 309.586 89.356C309.546 89.58 309.482 89.792 309.394 89.992C309.306 90.184 309.19 90.356 309.046 90.508C308.862 90.692 308.642 90.832 308.386 90.928C308.13 91.024 307.846 91.072 307.534 91.072C307.206 91.072 306.922 91.028 306.682 90.94C306.442 90.844 306.218 90.68 306.01 90.448V93.292H304.45V84.748H305.962V85.336C306.186 85.096 306.418 84.928 306.658 84.832C306.898 84.728 307.186 84.676 307.522 84.676ZM307.066 86.08C306.834 86.08 306.646 86.128 306.502 86.224C306.366 86.312 306.262 86.436 306.19 86.596C306.118 86.756 306.07 86.948 306.046 87.172C306.022 87.388 306.01 87.62 306.01 87.868C306.01 88.124 306.022 88.364 306.046 88.588C306.07 88.804 306.118 88.992 306.19 89.152C306.262 89.312 306.366 89.44 306.502 89.536C306.646 89.624 306.834 89.668 307.066 89.668C307.306 89.668 307.494 89.624 307.63 89.536C307.774 89.44 307.882 89.312 307.954 89.152C308.026 88.992 308.074 88.804 308.098 88.588C308.122 88.364 308.134 88.124 308.134 87.868C308.134 87.62 308.122 87.388 308.098 87.172C308.074 86.948 308.026 86.756 307.954 86.596C307.882 86.436 307.774 86.312 307.63 86.224C307.494 86.128 307.306 86.08 307.066 86.08ZM313.301 84.676C313.797 84.676 314.241 84.728 314.633 84.832C315.033 84.936 315.385 85.128 315.689 85.408L314.729 86.38C314.545 86.22 314.325 86.112 314.069 86.056C313.821 85.992 313.557 85.96 313.277 85.96C312.965 85.96 312.737 86.02 312.593 86.14C312.457 86.26 312.389 86.4 312.389 86.56C312.389 86.72 312.437 86.844 312.533 86.932C312.637 87.02 312.805 87.076 313.037 87.1L314.021 87.196C314.645 87.26 315.109 87.448 315.413 87.76C315.725 88.072 315.881 88.496 315.881 89.032C315.881 89.376 315.813 89.676 315.677 89.932C315.541 90.188 315.353 90.4 315.113 90.568C314.873 90.736 314.589 90.864 314.261 90.952C313.941 91.032 313.597 91.072 313.229 91.072C312.981 91.072 312.741 91.06 312.509 91.036C312.277 91.02 312.049 90.98 311.825 90.916C311.609 90.852 311.393 90.764 311.177 90.652C310.969 90.532 310.765 90.372 310.565 90.172L311.585 89.152C311.713 89.28 311.849 89.384 311.993 89.464C312.137 89.536 312.281 89.596 312.425 89.644C312.577 89.684 312.721 89.712 312.857 89.728C313.001 89.736 313.133 89.74 313.253 89.74C313.389 89.74 313.521 89.728 313.649 89.704C313.785 89.68 313.905 89.644 314.009 89.596C314.113 89.54 314.197 89.472 314.261 89.392C314.325 89.312 314.357 89.212 314.357 89.092C314.357 88.932 314.309 88.804 314.213 88.708C314.125 88.604 313.953 88.54 313.697 88.516L312.713 88.42C312.145 88.364 311.697 88.204 311.369 87.94C311.049 87.668 310.889 87.244 310.889 86.668C310.889 86.34 310.953 86.052 311.081 85.804C311.217 85.556 311.393 85.348 311.609 85.18C311.833 85.012 312.089 84.888 312.377 84.808C312.673 84.72 312.981 84.676 313.301 84.676Z"
    fill="#51ACF1" />
</svg>