<svg width="329" height="165" viewBox="0 0 329 165" fill="none" xmlns="http://www.w3.org/2000/svg">
  <path
    d="M94.8831 157.278L99.4371 165H96.5031L93.2091 159.168L91.5351 161.148V165H89.0331V152.184H91.5351V157.764L96.0711 152.184H99.1311L94.8831 157.278ZM103.991 154.704L101.381 156.972V154.452L103.991 152.184H106.331V165H103.991V154.704Z"
    fill="black" />
  <path
    d="M226.882 157.278L231.436 165H228.502L225.208 159.168L223.534 161.148V165H221.032V152.184H223.534V157.764L228.07 152.184H231.13L226.882 157.278ZM232.588 162.894L237.376 157.332C237.616 157.056 237.79 156.804 237.898 156.576C238.006 156.348 238.06 156.084 238.06 155.784C238.06 155.304 237.928 154.92 237.664 154.632C237.4 154.332 237.016 154.182 236.512 154.182C236.308 154.182 236.11 154.212 235.918 154.272C235.738 154.32 235.57 154.41 235.414 154.542C235.27 154.662 235.15 154.83 235.054 155.046C234.97 155.25 234.928 155.508 234.928 155.82H232.588C232.588 155.232 232.69 154.71 232.894 154.254C233.098 153.786 233.374 153.39 233.722 153.066C234.082 152.742 234.496 152.496 234.964 152.328C235.444 152.16 235.96 152.076 236.512 152.076C237.076 152.076 237.598 152.166 238.078 152.346C238.558 152.514 238.966 152.76 239.302 153.084C239.65 153.396 239.92 153.786 240.112 154.254C240.304 154.71 240.4 155.226 240.4 155.802C240.4 156.114 240.37 156.396 240.31 156.648C240.25 156.888 240.16 157.122 240.04 157.35C239.92 157.566 239.77 157.788 239.59 158.016C239.422 158.244 239.23 158.484 239.014 158.736L235.432 162.894H240.4V165H232.588V162.894Z"
    fill="black" />
  <path fill-rule="evenodd" clip-rule="evenodd" d="M328.419 129H230.419V0H328.419V129Z"
    fill="#62D62B" />
  <path fill-rule="evenodd" clip-rule="evenodd"
    d="M229.419 101.549V129H98.548V101.549L229.419 0.387695V101.549Z" fill="#00DA99" />
  <path fill-rule="evenodd" clip-rule="evenodd" d="M97.5479 129H-0.000518799V100.097H97.5479V129Z"
    fill="#51ACF1" />
  <path
    d="M18.344 82.456C18.784 82.456 19.176 82.528 19.52 82.672C19.864 82.808 20.152 82.996 20.384 83.236C20.624 83.468 20.804 83.744 20.924 84.064C21.052 84.376 21.116 84.712 21.116 85.072C21.116 85.376 21.072 85.652 20.984 85.9C20.904 86.14 20.792 86.352 20.648 86.536C20.504 86.72 20.336 86.88 20.144 87.016C19.96 87.144 19.764 87.244 19.556 87.316L21.464 91H19.532L17.864 87.592H16.664V91H14.996V82.456H18.344ZM16.664 83.944V86.188H18.248C18.616 86.188 18.908 86.084 19.124 85.876C19.34 85.668 19.448 85.396 19.448 85.06C19.448 84.724 19.34 84.456 19.124 84.256C18.908 84.048 18.616 83.944 18.248 83.944H16.664ZM25.5984 82.384C26.3984 82.384 27.0824 82.612 27.6504 83.068C28.2184 83.516 28.5784 84.188 28.7304 85.084H27.0384C26.9504 84.732 26.7904 84.444 26.5584 84.22C26.3344 83.988 26.0144 83.872 25.5984 83.872C25.3664 83.872 25.1584 83.912 24.9744 83.992C24.7984 84.072 24.6504 84.18 24.5304 84.316C24.4504 84.404 24.3824 84.504 24.3264 84.616C24.2784 84.728 24.2384 84.872 24.2064 85.048C24.1744 85.224 24.1504 85.448 24.1344 85.72C24.1184 85.984 24.1104 86.32 24.1104 86.728C24.1104 87.136 24.1184 87.476 24.1344 87.748C24.1504 88.012 24.1744 88.232 24.2064 88.408C24.2384 88.584 24.2784 88.728 24.3264 88.84C24.3824 88.952 24.4504 89.052 24.5304 89.14C24.6504 89.276 24.7984 89.384 24.9744 89.464C25.1584 89.544 25.3664 89.584 25.5984 89.584C26.0144 89.584 26.3344 89.472 26.5584 89.248C26.7904 89.016 26.9504 88.724 27.0384 88.372H28.7304C28.5784 89.268 28.2184 89.944 27.6504 90.4C27.0824 90.848 26.3984 91.072 25.5984 91.072C25.1024 91.072 24.6704 90.996 24.3024 90.844C23.9344 90.684 23.6024 90.46 23.3064 90.172C23.0904 89.956 22.9224 89.732 22.8024 89.5C22.6904 89.268 22.6064 89.016 22.5504 88.744C22.5024 88.464 22.4704 88.16 22.4544 87.832C22.4464 87.504 22.4424 87.136 22.4424 86.728C22.4424 86.32 22.4464 85.952 22.4544 85.624C22.4704 85.296 22.5024 84.996 22.5504 84.724C22.6064 84.444 22.6904 84.188 22.8024 83.956C22.9224 83.724 23.0904 83.5 23.3064 83.284C23.6024 82.996 23.9344 82.776 24.3024 82.624C24.6704 82.464 25.1024 82.384 25.5984 82.384ZM36.4118 91H34.7438V87.424H31.8398V91H30.1718V82.456H31.8398V85.936H34.7438V82.456H36.4118V91ZM47.7874 91H46.0354L45.5314 89.488H42.5074L41.9914 91H40.2394L43.3594 82.456H44.6674L47.7874 91ZM42.9634 88.084H45.0634L44.0194 84.988L42.9634 88.084ZM50.268 91H48.708V84.928H50.268V91ZM50.28 83.68H48.684V82.408H50.28V83.68ZM55.1087 84.676C55.4207 84.676 55.6887 84.72 55.9127 84.808C56.1447 84.888 56.3687 85.04 56.5847 85.264L55.4207 86.452C55.3007 86.332 55.1807 86.24 55.0607 86.176C54.9407 86.112 54.7847 86.08 54.5927 86.08C54.4727 86.08 54.3527 86.104 54.2327 86.152C54.1127 86.192 54.0007 86.26 53.8967 86.356C53.8007 86.452 53.7207 86.572 53.6567 86.716C53.6007 86.86 53.5727 87.032 53.5727 87.232V91H52.0127V84.748H53.5367V85.348C53.6887 85.164 53.9047 85.008 54.1847 84.88C54.4647 84.744 54.7727 84.676 55.1087 84.676ZM62.0904 91H60.5664V90.412C60.3504 90.652 60.1224 90.824 59.8824 90.928C59.6424 91.024 59.3544 91.072 59.0184 91.072C58.7064 91.072 58.4184 91.024 58.1544 90.928C57.8904 90.832 57.6704 90.692 57.4944 90.508C57.3424 90.356 57.2224 90.184 57.1344 89.992C57.0544 89.792 56.9904 89.58 56.9424 89.356C56.9024 89.132 56.8744 88.896 56.8584 88.648C56.8504 88.392 56.8464 88.132 56.8464 87.868C56.8464 87.604 56.8504 87.348 56.8584 87.1C56.8744 86.852 56.9024 86.616 56.9424 86.392C56.9904 86.168 57.0544 85.96 57.1344 85.768C57.2224 85.568 57.3424 85.392 57.4944 85.24C57.6704 85.056 57.8864 84.916 58.1424 84.82C58.4064 84.724 58.6944 84.676 59.0064 84.676C59.3264 84.676 59.6064 84.724 59.8464 84.82C60.0944 84.908 60.3224 85.068 60.5304 85.3V82.456H62.0904V91ZM59.4624 86.08C59.2304 86.08 59.0424 86.128 58.8984 86.224C58.7624 86.312 58.6584 86.436 58.5864 86.596C58.5144 86.756 58.4664 86.948 58.4424 87.172C58.4184 87.388 58.4064 87.62 58.4064 87.868C58.4064 88.124 58.4184 88.364 58.4424 88.588C58.4664 88.804 58.5144 88.992 58.5864 89.152C58.6584 89.312 58.7624 89.44 58.8984 89.536C59.0424 89.624 59.2304 89.668 59.4624 89.668C59.6944 89.668 59.8784 89.624 60.0144 89.536C60.1584 89.44 60.2664 89.312 60.3384 89.152C60.4184 88.992 60.4704 88.804 60.4944 88.588C60.5184 88.364 60.5304 88.124 60.5304 87.868C60.5304 87.62 60.5184 87.388 60.4944 87.172C60.4704 86.948 60.4184 86.756 60.3384 86.596C60.2664 86.436 60.1584 86.312 60.0144 86.224C59.8784 86.128 59.6944 86.08 59.4624 86.08ZM66.9329 84.676C67.2449 84.676 67.5129 84.72 67.7369 84.808C67.9689 84.888 68.1929 85.04 68.4089 85.264L67.2449 86.452C67.1249 86.332 67.0049 86.24 66.8849 86.176C66.7649 86.112 66.6089 86.08 66.4169 86.08C66.2969 86.08 66.1769 86.104 66.0569 86.152C65.9369 86.192 65.8249 86.26 65.7209 86.356C65.6249 86.452 65.5449 86.572 65.4809 86.716C65.4249 86.86 65.3969 87.032 65.3969 87.232V91H63.8369V84.748H65.3609V85.348C65.5129 85.164 65.7289 85.008 66.0089 84.88C66.2889 84.744 66.5969 84.676 66.9329 84.676ZM73.9626 87.868C73.9626 88.436 73.9146 88.912 73.8186 89.296C73.7306 89.672 73.5426 90.008 73.2546 90.304C73.0546 90.512 72.7946 90.692 72.4746 90.844C72.1626 90.996 71.7746 91.072 71.3106 91.072C70.8466 91.072 70.4586 90.996 70.1466 90.844C69.8346 90.692 69.5786 90.512 69.3786 90.304C69.0986 90 68.9106 89.66 68.8146 89.284C68.7186 88.908 68.6706 88.436 68.6706 87.868C68.6706 87.3 68.7186 86.832 68.8146 86.464C68.9106 86.088 69.0986 85.748 69.3786 85.444C69.5786 85.236 69.8346 85.056 70.1466 84.904C70.4586 84.752 70.8466 84.676 71.3106 84.676C71.7746 84.676 72.1626 84.752 72.4746 84.904C72.7946 85.056 73.0546 85.236 73.2546 85.444C73.5346 85.748 73.7226 86.088 73.8186 86.464C73.9146 86.832 73.9626 87.3 73.9626 87.868ZM72.4026 87.868C72.4026 87.548 72.3826 87.256 72.3426 86.992C72.3026 86.728 72.2026 86.516 72.0426 86.356C71.8586 86.172 71.6146 86.08 71.3106 86.08C71.0146 86.08 70.7746 86.172 70.5906 86.356C70.4306 86.516 70.3306 86.728 70.2906 86.992C70.2506 87.256 70.2306 87.548 70.2306 87.868C70.2306 88.196 70.2506 88.492 70.2906 88.756C70.3306 89.02 70.4306 89.232 70.5906 89.392C70.7746 89.576 71.0146 89.668 71.3106 89.668C71.6146 89.668 71.8586 89.576 72.0426 89.392C72.2026 89.232 72.3026 89.02 72.3426 88.756C72.3826 88.492 72.4026 88.196 72.4026 87.868ZM78.5222 84.676C78.8342 84.676 79.1182 84.724 79.3742 84.82C79.6382 84.916 79.8622 85.056 80.0462 85.24C80.1902 85.392 80.3062 85.568 80.3942 85.768C80.4822 85.96 80.5462 86.168 80.5862 86.392C80.6342 86.616 80.6622 86.852 80.6702 87.1C80.6862 87.348 80.6942 87.604 80.6942 87.868C80.6942 88.132 80.6862 88.392 80.6702 88.648C80.6622 88.896 80.6342 89.132 80.5862 89.356C80.5462 89.58 80.4822 89.792 80.3942 89.992C80.3062 90.184 80.1902 90.356 80.0462 90.508C79.8622 90.692 79.6422 90.832 79.3862 90.928C79.1302 91.024 78.8462 91.072 78.5342 91.072C78.2062 91.072 77.9222 91.028 77.6822 90.94C77.4422 90.844 77.2182 90.68 77.0102 90.448V93.292H75.4502V84.748H76.9622V85.336C77.1862 85.096 77.4182 84.928 77.6582 84.832C77.8982 84.728 78.1862 84.676 78.5222 84.676ZM78.0662 86.08C77.8342 86.08 77.6462 86.128 77.5022 86.224C77.3662 86.312 77.2622 86.436 77.1902 86.596C77.1182 86.756 77.0702 86.948 77.0462 87.172C77.0222 87.388 77.0102 87.62 77.0102 87.868C77.0102 88.124 77.0222 88.364 77.0462 88.588C77.0702 88.804 77.1182 88.992 77.1902 89.152C77.2622 89.312 77.3662 89.44 77.5022 89.536C77.6462 89.624 77.8342 89.668 78.0662 89.668C78.3062 89.668 78.4942 89.624 78.6302 89.536C78.7742 89.44 78.8822 89.312 78.9542 89.152C79.0262 88.992 79.0742 88.804 79.0982 88.588C79.1222 88.364 79.1342 88.124 79.1342 87.868C79.1342 87.62 79.1222 87.388 79.0982 87.172C79.0742 86.948 79.0262 86.756 78.9542 86.596C78.8822 86.436 78.7742 86.312 78.6302 86.224C78.4942 86.128 78.3062 86.08 78.0662 86.08ZM84.3008 84.676C84.7968 84.676 85.2408 84.728 85.6328 84.832C86.0328 84.936 86.3848 85.128 86.6888 85.408L85.7288 86.38C85.5448 86.22 85.3248 86.112 85.0688 86.056C84.8208 85.992 84.5568 85.96 84.2768 85.96C83.9648 85.96 83.7368 86.02 83.5928 86.14C83.4568 86.26 83.3888 86.4 83.3888 86.56C83.3888 86.72 83.4368 86.844 83.5328 86.932C83.6368 87.02 83.8048 87.076 84.0368 87.1L85.0208 87.196C85.6448 87.26 86.1088 87.448 86.4128 87.76C86.7248 88.072 86.8808 88.496 86.8808 89.032C86.8808 89.376 86.8128 89.676 86.6768 89.932C86.5408 90.188 86.3528 90.4 86.1128 90.568C85.8728 90.736 85.5888 90.864 85.2608 90.952C84.9408 91.032 84.5968 91.072 84.2288 91.072C83.9808 91.072 83.7408 91.06 83.5088 91.036C83.2768 91.02 83.0488 90.98 82.8248 90.916C82.6088 90.852 82.3928 90.764 82.1768 90.652C81.9688 90.532 81.7648 90.372 81.5648 90.172L82.5848 89.152C82.7128 89.28 82.8488 89.384 82.9928 89.464C83.1368 89.536 83.2808 89.596 83.4248 89.644C83.5768 89.684 83.7208 89.712 83.8568 89.728C84.0008 89.736 84.1328 89.74 84.2528 89.74C84.3888 89.74 84.5208 89.728 84.6488 89.704C84.7848 89.68 84.9048 89.644 85.0088 89.596C85.1128 89.54 85.1968 89.472 85.2608 89.392C85.3248 89.312 85.3568 89.212 85.3568 89.092C85.3568 88.932 85.3088 88.804 85.2128 88.708C85.1248 88.604 84.9528 88.54 84.6968 88.516L83.7128 88.42C83.1448 88.364 82.6968 88.204 82.3688 87.94C82.0488 87.668 81.8888 87.244 81.8888 86.668C81.8888 86.34 81.9528 86.052 82.0808 85.804C82.2168 85.556 82.3928 85.348 82.6088 85.18C82.8328 85.012 83.0888 84.888 83.3768 84.808C83.6728 84.72 83.9808 84.676 84.3008 84.676Z"
    fill="#51ACF1" />
</svg>