<svg width="21" height="21" viewBox="0 0 21 21" fill="none" xmlns="http://www.w3.org/2000/svg">
  <circle cx="10.8984" cy="6.3418" r="2.5" stroke="currentColor" stroke-linecap="round" />
  <path
    d="M12.6664 4.8418C12.8642 4.49923 13.1591 4.223 13.5139 4.04805C13.8686 3.8731 14.2673 3.80728 14.6595 3.85891C15.0517 3.91054 15.4197 4.0773 15.7171 4.33812C16.0145 4.59893 16.2279 4.94207 16.3303 5.32416C16.4327 5.70624 16.4194 6.11011 16.2923 6.48468C16.1651 6.85925 15.9298 7.1877 15.616 7.4285C15.3021 7.66931 14.924 7.81164 14.5292 7.83751C14.1345 7.86339 13.741 7.77163 13.3984 7.57385"
    stroke="currentColor" />
  <path
    d="M9.13049 4.8418C8.93271 4.49923 8.63778 4.223 8.28301 4.04805C7.92825 3.8731 7.52956 3.80728 7.13739 3.85891C6.74521 3.91054 6.37715 4.0773 6.07975 4.33812C5.78235 4.59893 5.56896 4.94207 5.46659 5.32416C5.36421 5.70624 5.37743 6.11011 5.50458 6.48468C5.63173 6.85925 5.86709 7.1877 6.18091 7.4285C6.49474 7.66931 6.87292 7.81164 7.26763 7.83751C7.66235 7.86339 8.05587 7.77163 8.39844 7.57385"
    stroke="currentColor" />
  <path
    d="M10.8984 10.8418C14.9787 10.8418 16.0319 14.144 16.3038 15.8488C16.3908 16.3942 15.9507 16.8418 15.3984 16.8418H6.39844C5.84615 16.8418 5.40606 16.3942 5.49304 15.8488C5.76493 14.144 6.8182 10.8418 10.8984 10.8418Z"
    stroke="currentColor" stroke-linecap="round" />
  <path
    d="M18.1938 13.758L17.7088 13.8795L18.1938 13.758ZM11.9844 10.9277L11.6151 10.5906L10.9947 11.2701L11.9024 11.4209L11.9844 10.9277ZM16.0786 14.8418L15.5983 14.9808L15.7028 15.3418H16.0786V14.8418ZM14.3973 10.3418C15.425 10.3418 16.1468 10.8444 16.6756 11.5487C17.215 12.2671 17.5317 13.1724 17.7088 13.8795L18.6789 13.6366C18.4877 12.8733 18.1301 11.8205 17.4753 10.9483C16.8099 10.0621 15.8175 9.3418 14.3973 9.3418V10.3418ZM12.3536 11.2648C12.854 10.7168 13.508 10.3418 14.3973 10.3418V9.3418C13.1801 9.3418 12.2709 9.87242 11.6151 10.5906L12.3536 11.2648ZM11.9024 11.4209C14.2029 11.8032 15.1762 13.5219 15.5983 14.9808L16.5589 14.7028C16.0878 13.0744 14.9163 10.9081 12.0664 10.4345L11.9024 11.4209ZM17.2923 14.3418H16.0786V15.3418H17.2923V14.3418ZM17.7088 13.8795C17.7626 14.0944 17.6048 14.3418 17.2923 14.3418V15.3418C18.163 15.3418 18.9125 14.5695 18.6789 13.6366L17.7088 13.8795Z"
    fill="currentColor" />
  <path
    d="M9.81047 10.9277L9.89243 11.4209L10.8001 11.2701L10.1797 10.5906L9.81047 10.9277ZM3.60101 13.758L4.08603 13.8795L3.60101 13.758ZM5.71626 14.8418V15.3418H6.09211L6.19656 14.9808L5.71626 14.8418ZM7.39757 10.3418C8.28689 10.3418 8.94086 10.7168 9.44122 11.2648L10.1797 10.5906C9.52401 9.87242 8.6148 9.3418 7.39757 9.3418V10.3418ZM4.08603 13.8795C4.26311 13.1724 4.57986 12.2671 5.11924 11.5487C5.64805 10.8444 6.36984 10.3418 7.39757 10.3418V9.3418C5.97738 9.3418 4.985 10.0621 4.31957 10.9483C3.66471 11.8205 3.30713 12.8733 3.11598 13.6366L4.08603 13.8795ZM4.50255 14.3418C4.19005 14.3418 4.03222 14.0944 4.08603 13.8795L3.11598 13.6366C2.88235 14.5695 3.63182 15.3418 4.50255 15.3418V14.3418ZM5.71626 14.3418H4.50255V15.3418H5.71626V14.3418ZM6.19656 14.9808C6.61862 13.5219 7.59193 11.8032 9.89243 11.4209L9.7285 10.4345C6.87859 10.9081 5.70708 13.0744 5.23596 14.7028L6.19656 14.9808Z"
    fill="currentColor" />
</svg>