<svg xmlns="http://www.w3.org/2000/svg" width="17" height="16" viewBox="0 0 17 16" fill="none">
  <path d="M15.8514 8.64865C15.5054 8.64865 15.2027 8.95135 15.2027 9.2973V14.4865C15.2027 14.6162 15.1162 14.7027 14.9865 14.7027H2.01351C1.88378 14.7027 1.7973 14.6162 1.7973 14.4865V1.51351C1.7973 1.38378 1.88378 1.2973 2.01351 1.2973H7.2027C7.54865 1.2973 7.85135 0.994595 7.85135 0.648649C7.85135 0.302703 7.54865 0 7.2027 0H2.01351C1.19189 0 0.5 0.691892 0.5 1.51351V14.4865C0.5 15.3081 1.19189 16 2.01351 16H14.9865C15.8081 16 16.5 15.3081 16.5 14.4865V9.2973C16.5 8.95135 16.1973 8.64865 15.8514 8.64865Z" fill="url(#paint0_linear_13884_12193)"/>
  <path d="M15.8514 0H11.0946C10.7487 0 10.446 0.302703 10.446 0.648649C10.446 0.994595 10.7487 1.2973 11.0946 1.2973H14.2946L8.4568 7.09189C8.19734 7.35135 8.19734 7.74054 8.4568 8C8.58653 8.12973 8.7595 8.17297 8.93248 8.17297C9.10545 8.17297 9.27842 8.12973 9.40815 8L15.2027 2.20541V5.40541C15.2027 5.75135 15.5055 6.05405 15.8514 6.05405C16.1973 6.05405 16.5 5.75135 16.5 5.40541V0.648649C16.5 0.302703 16.1973 0 15.8514 0V0Z" fill="url(#paint1_linear_13884_12193)"/>
  <defs>
    <linearGradient id="paint0_linear_13884_12193" x1="0.527285" y1="0.320318" x2="18.0378" y2="2.28345" gradientUnits="userSpaceOnUse">
      <stop stop-color="#50D113"/>
      <stop offset="1" stop-color="#FFE600"/>
    </linearGradient>
    <linearGradient id="paint1_linear_13884_12193" x1="8.27626" y1="0.163622" x2="17.29" y2="1.18219" gradientUnits="userSpaceOnUse">
      <stop stop-color="#50D113"/>
      <stop offset="1" stop-color="#FFE600"/>
    </linearGradient>
  </defs>
</svg>