<svg width="21" height="21" viewBox="0 0 21 21" fill="none" xmlns="http://www.w3.org/2000/svg">
  <path
    d="M10.2 18.0293C6.41297 18.0293 3.34277 16.6222 3.34277 14.8864C3.34277 14.26 3.74597 13.6776 4.43572 13.1877C4.64509 13.0391 4.93094 13.0994 5.085 13.3048C5.27182 13.554 5.18458 13.9045 4.9436 14.1018C4.64915 14.3428 4.48564 14.6079 4.48564 14.8864C4.48564 15.9909 7.04429 16.8864 10.2 16.8864C13.3556 16.8864 15.9143 15.9909 15.9143 14.8864C15.9143 14.608 15.7509 14.343 15.4566 14.1022C15.2156 13.9049 15.1281 13.5542 15.3149 13.305C15.469 13.0995 15.7549 13.0391 15.9643 13.1878C16.654 13.6776 17.0572 14.26 17.0572 14.8864C17.0572 16.6222 13.987 18.0293 10.2 18.0293ZM13.2601 14.1799C13.2601 14.18 13.26 14.1802 13.2599 14.1803C12.7055 14.6967 12.066 15.1136 11.3698 15.4126C10.9593 15.5881 10.6269 15.6823 10.3842 15.7267C10.2485 15.7497 10.1098 15.7497 9.97414 15.7267C9.73825 15.6832 9.40636 15.5881 8.99813 15.4126C8.30585 15.113 7.67064 14.6959 7.12063 14.1797C5.46713 12.6377 4.48564 10.2423 4.48564 6.84247V4.8068C4.48564 4.48039 4.62278 4.16908 4.86187 3.94873C4.97946 3.84023 5.11795 3.75687 5.26887 3.70373C5.41979 3.6506 5.57996 3.62881 5.73959 3.6397L5.74873 3.64016C5.77342 3.6429 5.91605 3.64793 6.06691 3.64793C6.5876 3.64793 7.15583 3.59902 7.64863 3.4797L7.70121 3.46599C8.01801 3.37776 8.37138 3.18256 8.73801 2.90918C9.04384 2.68152 9.57139 2.19741 9.53528 2.22209C9.72754 2.09607 9.95246 2.02905 10.1823 2.0293C10.4122 2.02954 10.637 2.09704 10.829 2.22346C10.9049 2.27375 11.4745 2.7405 11.6752 2.88953C11.9504 3.09387 12.2009 3.25159 12.4313 3.35902C12.5506 3.41479 12.6617 3.45502 12.7632 3.4797C13.2574 3.59947 13.8169 3.64793 14.333 3.64793C14.4825 3.64793 14.6288 3.6429 14.6603 3.6397C14.8205 3.62863 14.9813 3.65055 15.1326 3.70412C15.284 3.75769 15.4227 3.84176 15.5403 3.95112C15.6578 4.06049 15.7517 4.19282 15.816 4.33993C15.8804 4.48703 15.9138 4.64578 15.9143 4.80634V6.84247C15.9143 10.2426 14.9256 12.6385 13.2603 14.1795C13.2602 14.1796 13.2601 14.1798 13.2601 14.1799ZM14.7701 5.09571C14.7699 5.03789 14.7579 4.98071 14.7348 4.92771C14.7117 4.87478 14.678 4.82715 14.6358 4.78775C14.6357 4.78765 14.6357 4.78751 14.6357 4.78737C14.6357 4.78722 14.6356 4.78708 14.6355 4.78698C14.5544 4.71099 14.4474 4.66885 14.3362 4.6692C14.3143 4.6692 14.3106 4.6692 14.3198 4.66828C14.2016 4.6766 14.0831 4.68026 13.9646 4.67925C13.4494 4.67925 12.8948 4.62988 12.3883 4.50508C12.2438 4.46788 12.1034 4.41627 11.9691 4.35102C11.7154 4.23034 11.4535 4.06211 11.1714 3.84816C10.9643 3.69182 10.4656 3.27444 10.4285 3.2493C10.3562 3.2004 10.2708 3.17443 10.1835 3.17479C10.0978 3.17437 10.0139 3.19917 9.94214 3.2461C10.0272 3.18667 9.56042 3.62416 9.2427 3.86553C8.8523 4.16268 8.46647 4.37982 8.09161 4.48634C8.06875 4.4932 8.04589 4.49914 8.02304 4.50462C7.51789 4.62942 6.9556 4.6788 6.43674 4.6788C6.27994 4.6788 6.13091 4.67331 6.09205 4.66965L6.06554 4.6692C5.95357 4.66886 5.84568 4.7112 5.76382 4.7876C5.72167 4.82708 5.68807 4.87481 5.66511 4.9278C5.64214 4.9808 5.63031 5.03795 5.63033 5.09571V6.98739C5.63033 9.96524 6.45274 12.0133 7.82326 13.3175C8.26917 13.7452 8.78635 14.0918 9.3515 14.3415C9.67745 14.4846 9.93528 14.56 10.1012 14.5911C10.1539 14.5998 10.2076 14.6001 10.2603 14.592C10.434 14.56 10.6928 14.4846 11.0205 14.3415C11.5896 14.0918 12.1109 13.7449 12.5611 13.3166C13.9417 12.0123 14.7701 9.96478 14.7701 6.98739V5.09571ZM10.2 12.315C10.1249 12.315 10.0506 12.3002 9.98126 12.2715C9.91192 12.2428 9.84891 12.2007 9.79584 12.1476C9.74277 12.0946 9.70067 12.0316 9.67195 11.9622C9.64322 11.8929 9.62844 11.8186 9.62844 11.7435C9.62844 11.6685 9.64322 11.5942 9.67195 11.5248C9.70067 11.4555 9.74277 11.3925 9.79584 11.3394C9.84891 11.2864 9.91192 11.2443 9.98126 11.2156C10.0506 11.1869 10.1249 11.1721 10.2 11.1721C10.3515 11.1721 10.4968 11.2323 10.604 11.3395C10.7111 11.4467 10.7713 11.592 10.7713 11.7435C10.7713 11.8951 10.7111 12.0404 10.604 12.1476C10.4968 12.2547 10.3515 12.3149 10.2 12.315ZM10.2 10.0292C9.88454 10.0292 9.62853 9.77323 9.62853 9.4578V6.02921C9.62853 5.95416 9.64331 5.87986 9.67203 5.81053C9.70075 5.7412 9.74284 5.6782 9.7959 5.62514C9.84897 5.57208 9.91196 5.52999 9.98129 5.50127C10.0506 5.47255 10.1249 5.45777 10.2 5.45777C10.275 5.45777 10.3493 5.47255 10.4186 5.50127C10.488 5.52999 10.551 5.57208 10.604 5.62514C10.6571 5.6782 10.6992 5.7412 10.7279 5.81053C10.7566 5.87986 10.7714 5.95416 10.7714 6.02921V9.4578C10.7714 9.77323 10.5154 10.0292 10.2 10.0292ZM15.5399 3.95056L15.5396 3.95035C15.5386 3.94958 15.5376 3.94873 15.5367 3.94782L15.5399 3.95056Z"
    fill="currentColor" />
</svg>