<svg width="21" height="21" viewBox="0 0 21 21" fill="none" xmlns="http://www.w3.org/2000/svg">
<path d="M14.7332 3.84766H16.1924C17.4582 3.84766 18.4832 4.87349 18.4832 6.1412V16.1372C18.4832 17.4041 17.4578 18.431 16.1924 18.431H4.94074C3.6749 18.431 2.6499 17.4052 2.6499 16.1374V6.14141C2.6499 4.87453 3.67532 3.84766 4.94074 3.84766H6.3999V3.22266C6.3999 3.0569 6.46575 2.89792 6.58296 2.78071C6.70017 2.6635 6.85914 2.59766 7.0249 2.59766C7.19066 2.59766 7.34963 2.6635 7.46684 2.78071C7.58405 2.89792 7.6499 3.0569 7.6499 3.22266V3.84766H13.4832V3.22266C13.4832 3.0569 13.5491 2.89792 13.6663 2.78071C13.7835 2.6635 13.9425 2.59766 14.1082 2.59766C14.274 2.59766 14.433 2.6635 14.5502 2.78071C14.6674 2.89792 14.7332 3.0569 14.7332 3.22266V3.84766ZM14.7332 5.09766V5.72266C14.7332 5.88842 14.6674 6.04739 14.5502 6.1646C14.433 6.28181 14.274 6.34766 14.1082 6.34766C13.9425 6.34766 13.7835 6.28181 13.6663 6.1646C13.5491 6.04739 13.4832 5.88842 13.4832 5.72266V5.09766H7.6499V5.72266C7.6499 5.88842 7.58405 6.04739 7.46684 6.1646C7.34963 6.28181 7.19066 6.34766 7.0249 6.34766C6.85914 6.34766 6.70017 6.28181 6.58296 6.1646C6.46575 6.04739 6.3999 5.88842 6.3999 5.72266V5.09766H4.94074C4.80387 5.09782 4.66838 5.12494 4.54199 5.17748C4.41561 5.23001 4.30082 5.30693 4.20416 5.40383C4.10751 5.50074 4.03089 5.61573 3.97869 5.74225C3.92648 5.86877 3.89971 6.00433 3.8999 6.1412V16.1372C3.89955 16.2742 3.9262 16.4098 3.97835 16.5364C4.03049 16.663 4.1071 16.7781 4.20378 16.875C4.30047 16.972 4.41533 17.0489 4.54178 17.1014C4.66824 17.1539 4.80381 17.181 4.94074 17.181H16.1924C16.3293 17.1808 16.4648 17.1537 16.5911 17.1012C16.7175 17.0486 16.8323 16.9717 16.929 16.8748C17.0256 16.7779 17.1022 16.6629 17.1544 16.5364C17.2067 16.4099 17.2334 16.2743 17.2332 16.1374V6.14141C17.2336 6.00448 17.2069 5.86884 17.1548 5.74223C17.1026 5.61563 17.026 5.50055 16.9294 5.4036C16.8327 5.30665 16.7178 5.22972 16.5914 5.17722C16.4649 5.12472 16.3293 5.09768 16.1924 5.09766H14.7332ZM14.5249 9.47266C14.6907 9.47266 14.8496 9.5385 14.9668 9.65571C15.0841 9.77292 15.1499 9.9319 15.1499 10.0977C15.1499 10.2634 15.0841 10.4224 14.9668 10.5396C14.8496 10.6568 14.6907 10.7227 14.5249 10.7227H6.60824C6.44248 10.7227 6.2835 10.6568 6.16629 10.5396C6.04908 10.4224 5.98324 10.2634 5.98324 10.0977C5.98324 9.9319 6.04908 9.77292 6.16629 9.65571C6.2835 9.5385 6.44248 9.47266 6.60824 9.47266H14.5249ZM12.0249 12.5977C12.1907 12.5977 12.3496 12.6635 12.4668 12.7807C12.5841 12.8979 12.6499 13.0569 12.6499 13.2227C12.6499 13.3884 12.5841 13.5474 12.4668 13.6646C12.3496 13.7818 12.1907 13.8477 12.0249 13.8477H6.60824C6.44248 13.8477 6.2835 13.7818 6.16629 13.6646C6.04908 13.5474 5.98324 13.3884 5.98324 13.2227C5.98324 13.0569 6.04908 12.8979 6.16629 12.7807C6.2835 12.6635 6.44248 12.5977 6.60824 12.5977H12.0249Z" fill="#8C8C8C"/>
</svg>
