<svg width="18" height="20" viewBox="0 0 18 20" fill="none" xmlns="http://www.w3.org/2000/svg">
  <path
    d="M8.56573 0.23182C8.81339 0.159776 9.07626 0.150449 9.32879 0.204745L9.436 0.231843L16.9384 2.41435C17.5409 2.58961 17.962 3.10577 18.0008 3.70277L18.0037 3.79289V11.6612C18.0037 15.208 15.073 17.7303 9.44128 19.2536L9.00087 19.3699L8.80346 19.3182C3.09457 17.8235 0.0835267 15.3301 -0.00014797 11.8126L-0.00195312 11.6612V3.79289C-0.00195312 3.18848 0.390467 2.65187 0.974384 2.44314L1.06338 2.41433L8.56573 0.23182ZM9.00087 1.61038L1.49852 3.79289V11.6612C1.49852 14.3363 3.76101 16.3685 8.49387 17.7349L8.7248 17.8005L9.00087 17.8758L9.27693 17.8005C14.0106 16.4776 16.3511 14.5103 16.496 11.9202L16.5015 11.7902L16.5032 11.6612V3.79289L9.00087 1.61038ZM10.0628 5.71112L11.4651 9.18362L12.2819 9.18366C12.6797 9.18369 13.0021 9.50615 13.0021 9.90391C13.0021 10.3017 12.6797 10.6242 12.2819 10.6242H10.4378L9.94865 9.41314L8.08872 13.318L6.41256 10.663L5.71993 10.6631C5.32214 10.6633 4.99961 10.3408 4.99961 9.94302C4.99961 9.5453 5.32202 9.22289 5.71973 9.22289H7.25823L7.90301 10.2443L10.0628 5.71112Z"
    fill="url(#paint0_linear_13011_13208)" />
  <defs>
    <linearGradient id="paint0_linear_13011_13208" x1="0.0287522" y1="0.554304" x2="19.7638"
      y2="2.62919" gradientUnits="userSpaceOnUse">
      <stop stop-color="#50D113" />
      <stop offset="1" stop-color="#FFE600" />
    </linearGradient>
  </defs>
</svg>