<svg width="18" height="18" viewBox="0 0 18 18" fill="none" xmlns="http://www.w3.org/2000/svg">
  <path
    d="M18 7.70209C17.6728 3.38158 13.7216 0 9.00502 0C4.24253 0.00144451 0.29131 3.41625 0.00114946 7.77287C-0.00560897 7.87479 0.017538 7.97648 0.0678788 8.06602C0.11822 8.15556 0.193669 8.22925 0.285389 8.27845C0.332 8.30416 0.381736 8.32406 0.43343 8.33768L5.49348 13.2649C5.34799 13.4163 5.26746 13.6163 5.26846 13.8239V17.2979C5.26727 17.3903 5.28502 17.482 5.32066 17.5676C5.3563 17.6532 5.40912 17.731 5.47601 17.7964C5.5429 17.8618 5.62252 17.9135 5.71017 17.9485C5.79783 17.9834 5.89177 18.0009 5.98646 18H11.957C12.0513 18.0004 12.1447 17.9824 12.2319 17.9472C12.319 17.912 12.3981 17.8602 12.4645 17.7949C12.5309 17.7295 12.5834 17.6519 12.6187 17.5666C12.6541 17.4813 12.6717 17.39 12.6705 17.2979V13.8225C12.6702 13.6142 12.5887 13.4138 12.4425 13.262L17.5011 8.2799C17.6435 8.26321 17.7739 8.19411 17.8658 8.08672C17.9577 7.97933 18.0041 7.84175 17.9956 7.70209H18ZM11.8119 13.0106H10.7208L12.2012 8.52257C12.9344 7.88531 13.8841 7.53676 14.866 7.54464C15.5604 7.54124 16.2438 7.71343 16.8497 8.04444L11.8119 13.0106ZM6.12857 13.0106L1.10998 8.11956C1.75517 7.74387 2.4934 7.54755 3.24473 7.55187C4.2053 7.54352 5.13785 7.86747 5.8769 8.46624L7.39581 13.0106H6.12857ZM8.0694 13.0106L6.53569 8.41423C7.24987 7.84769 8.14383 7.54128 9.06423 7.54753C9.36292 7.54751 9.66073 7.57899 9.95248 7.64143C10.0398 7.6602 10.1257 7.68043 10.2101 7.70498C10.4241 7.76473 10.6326 7.84205 10.8333 7.9361C10.9207 7.97655 11.0051 8.02133 11.0865 8.06755L11.1797 8.121C11.3151 8.20205 11.4452 8.29131 11.5691 8.38823L10.0457 13.0106H8.0694Z"
    fill="#51ACF1" />
</svg>