<?xml version="1.0" encoding="UTF-8"?>
<svg version="1.1" width="1em" height="1em" viewBox="0 0 49.0 49.0" xmlns="http://www.w3.org/2000/svg">
  <defs>
    <clipPath id="usd-i0">
      <path d="M1920,0 L1920,1080 L0,1080 L0,0 L1920,0 Z"></path>
    </clipPath>
    <clipPath id="usd-i1">
      <path
        d="M24,0 C37.254834,-2.4348735e-15 48,10.745166 48,24 C48,37.254834 37.254834,48 24,48 C10.745166,48 1.623249e-15,37.254834 0,24 C-1.623249e-15,10.745166 10.745166,2.4348735e-15 24,0 Z"></path>
    </clipPath>
    <clipPath id="usd-i2">
      <path
        d="M11.8104,0 L11.8111693,3.151966 C14.9606412,3.33805842 17.3473569,4.2899509 19.4304,6.30469751 L16.0512,9.64549751 C14.7464146,8.39870256 13.2445846,7.96197967 11.8102171,7.82284643 L11.81,14.574 L12.7872,14.7142975 C15.1584,15.0426175 16.697856,15.6828415 17.8335696,16.6678927 L18.0096,16.8262975 C19.4688,18.2086975 20.1216,20.2054975 20.1216,22.6246975 C20.1216,27.3441543 16.6189845,30.2361595 11.8109117,30.8124557 L11.8104,34.2 L8.2104,34.2 L8.20999709,30.8582034 C4.91670359,30.6179928 2.29098529,29.6332112 0,27.3094975 L3.456,23.8534975 C4.75390099,25.1513985 6.39841659,25.7993971 8.21056148,26.0415642 L8.20934026,19.0348382 C5.92955552,18.6819984 4.24071111,17.9572864 3.0336,16.7878975 C1.728,15.4822975 1.0752,13.7158975 1.0752,11.4118975 C1.0752,7.23116777 3.72793198,4.12281906 8.21084731,3.3206743 L8.2104,0 L11.8104,0 Z M11.6352,19.5142975 L11.81,19.542 L11.8111155,26.0091178 C13.831245,25.6275646 14.8992,24.5184632 14.8992,22.7782975 C14.8992,21.8182975 14.6304,21.0118975 14.0544,20.4742975 C13.5168,19.9750975 12.9024,19.7062975 11.6352,19.5142975 Z M8.21084109,8.18431016 C6.87579775,8.77509127 6.2208,9.92471686 6.2208,11.2198975 C6.2208,11.9110975 6.4512,12.6406975 7.0272,13.1782975 C7.32300274,13.4529715 7.72343629,13.7043942 8.20931038,13.9005818 L8.21084109,8.18431016 Z"></path>
    </clipPath>
  </defs>
  <g transform="translate(-40.0 -861.0)">
    <g clip-path="url(#usd-i0)">
      <g transform="translate(40.086501834053706 861.9207614856823)">
        <g clip-path="url(#usd-i1)">
          <polygon points="0,0 48,0 48,48 0,48 0,0" stroke="none" fill="#FFD639"></polygon>
        </g>
        <g transform="translate(13.98959999999965 6.900000000001455)">
          <g clip-path="url(#usd-i2)">
            <polygon points="0,0 20.1216,0 20.1216,34.2 0,34.2 0,0" stroke="none" fill="#000000"></polygon>
          </g>
        </g>
      </g>
    </g>
  </g>
</svg>
