<svg width="20" height="21" viewBox="0 0 20 21" fill="none" xmlns="http://www.w3.org/2000/svg">
<rect y="0.5" width="20" height="20" rx="10" fill="#FFA800"/>
<path fill-rule="evenodd" clip-rule="evenodd" d="M14.5569 9.26535C14.4276 10.1432 13.9618 10.6745 13.1599 10.8583C13.6863 11.126 14.0439 11.4705 14.2321 11.8912C14.4209 12.3119 14.4019 12.8418 14.1757 13.4807C14.0577 13.807 13.9064 14.0817 13.7207 14.3065C13.551 14.5176 13.3399 14.693 13.0999 14.8221C12.8727 14.9418 12.6059 15.0232 12.3007 15.0661C11.9959 15.109 11.685 15.1196 11.3685 15.0974C11.0091 15.0695 10.6517 15.0201 10.2984 14.9494L9.8459 16.75L8.74138 16.4808L9.18668 14.7085C8.89482 14.6384 8.60376 14.5652 8.31353 14.4888L7.8667 16.2682L6.76219 15.999L7.21415 14.1984C7.08518 14.1667 6.95641 14.1342 6.82786 14.1009C6.65651 14.0565 6.52518 14.0231 6.43438 14.0014L5 13.6519L5.54687 12.4145L6.34306 12.6079C6.58212 12.666 6.7509 12.5796 6.8494 12.3488L7.56249 9.51031L7.67689 9.5386C7.64028 9.52388 7.60254 9.51206 7.56403 9.50324L8.07293 7.4769C8.0914 7.14204 7.91903 6.92991 7.5553 6.84152L6.75911 6.64757L7.04999 5.48944L8.5685 5.86673C8.87477 5.94148 9.10716 5.99553 9.26619 6.02936L9.71303 4.25L10.8175 4.5187L10.3794 6.26271C10.7744 6.34857 11.0669 6.41524 11.2582 6.46171L11.6927 4.73184L12.7972 5.00054L12.3504 6.7799C12.7198 6.90516 13.0409 7.03951 13.3144 7.18345C13.5802 7.32221 13.8259 7.49548 14.0449 7.69862C14.2528 7.88901 14.4088 8.12783 14.4984 8.3931C14.5866 8.65725 14.6061 8.94766 14.5569 9.26535ZM12.0506 12.5663C12.0921 12.3859 12.0941 12.2169 12.0566 12.058C12.023 11.9089 11.9621 11.7684 11.8774 11.6448C11.7798 11.512 11.6614 11.3983 11.5276 11.3088C11.3915 11.2115 11.2492 11.1245 11.1017 11.0485C10.9384 10.9689 10.7706 10.9004 10.5992 10.8435C10.4416 10.7879 10.2824 10.7378 10.1218 10.6932C9.97125 10.6537 9.82026 10.6161 9.66886 10.5805C9.55723 10.5546 9.44579 10.5278 9.33455 10.5L8.75 13.0364C8.78703 13.0461 8.87312 13.0702 9.00774 13.1088C9.24149 13.1788 9.47773 13.2388 9.71591 13.2886C9.98905 13.3526 10.2665 13.3929 10.5457 13.4094C10.6832 13.4198 10.8212 13.419 10.9586 13.4072C11.083 13.3941 11.2063 13.3708 11.3274 13.3375C11.4565 13.3031 11.5661 13.2521 11.6552 13.1856C11.7453 13.1196 11.8254 13.0342 11.896 12.9312C11.967 12.8282 12.0186 12.7058 12.0511 12.5663H12.0506ZM12.4803 8.88579C12.5103 9.03245 12.5056 9.18398 12.4668 9.32858C12.433 9.46229 12.3805 9.57955 12.3093 9.67932C12.2414 9.77612 12.1503 9.85475 12.0442 9.90817C11.9423 9.9597 11.8363 10.0027 11.7271 10.0367C11.6211 10.0691 11.4922 10.0846 11.341 10.083C11.1902 10.082 11.0587 10.0779 10.947 10.0707C10.8093 10.0602 10.6725 10.0408 10.5374 10.0126C10.3763 9.98068 10.2536 9.956 10.1705 9.938C10.0873 9.92 9.97503 9.89274 9.83261 9.8552C9.74956 9.8332 9.6664 9.8116 9.58313 9.7904L10.1346 7.58313C10.3616 7.6364 10.5889 7.68817 10.8165 7.73844C10.9215 7.76158 11.0608 7.80221 11.2339 7.85981C11.407 7.91741 11.5509 7.97295 11.6663 8.02644C11.7812 8.07992 11.9044 8.15243 12.0364 8.24295C12.1679 8.33346 12.2672 8.42911 12.3347 8.5294C12.4023 8.6302 12.4506 8.74848 12.4803 8.88579Z" fill="white"/>
</svg>
