<svg width="1em" height="1em" viewBox="0 0 16 16" fill="none" xmlns="http://www.w3.org/2000/svg">
<path d="M16 8C16 12.4184 12.4184 16 8 16C3.58176 16 1.57031e-08 12.4184 0 8C0 3.58168 3.58176 1.57031e-08 8 0C12.4184 0 16 3.58168 16 8Z" fill="#1BA27A"/>
<path d="M11.7546 4.03418H4.17938V5.86298H7.05258V8.55098H8.88138V5.86298H11.7546V4.03418Z" fill="white"/>
<path d="M7.9844 8.83731C5.6076 8.83731 3.68064 8.46115 3.68064 7.99707C3.68064 7.53307 5.60752 7.15683 7.9844 7.15683C10.3612 7.15683 12.2881 7.53307 12.2881 7.99707C12.2881 8.46115 10.3612 8.83731 7.9844 8.83731ZM12.8168 8.13715C12.8168 7.53875 10.6533 7.05371 7.9844 7.05371C5.3156 7.05371 3.15192 7.53875 3.15192 8.13715C3.15192 8.66411 4.8296 9.10315 7.05272 9.20043V13.0591H8.88136V9.20195C11.1216 9.10771 12.8168 8.66683 12.8168 8.13715Z" fill="white"/>
</svg>
