<svg width="40" height="40" viewBox="0 0 40 40" fill="none" xmlns="http://www.w3.org/2000/svg">
  <path
    d="M12.4854 16.2175C15.5749 10.943 19.9998 5.66675 19.9998 5.66675C19.9998 5.66675 24.5363 11.0761 27.6297 16.4159L20.222 20.8822L12.4854 16.2175Z"
    fill="#00A3FF" />
  <path
    d="M11.5139 17.967L20.2223 23.2175L28.592 18.171C29.6925 20.3119 30.4445 22.3412 30.4445 23.889C30.4445 29.6571 25.7684 34.3334 20.0001 34.3334C14.2317 34.3334 9.55566 29.6571 9.55566 23.889C9.55566 22.292 10.3562 20.1828 11.5139 17.967Z"
    fill="#00A3FF" />
  <path fill-rule="evenodd" clip-rule="evenodd"
    d="M20.0059 20.7526V5.67493C20.2011 5.90858 24.6048 11.1955 27.6291 16.4161L20.2213 20.8825L20.0059 20.7526ZM20.0059 34.3335V23.088L20.2213 23.218L28.5911 18.1715C29.6915 20.3122 30.4435 22.3413 30.4435 23.8891C30.4435 29.6552 25.771 34.33 20.0059 34.3335Z"
    fill="#66C8FF" />
  <path fill-rule="evenodd" clip-rule="evenodd"
    d="M20.0066 23.0879V34.3335L11.5039 17.986C11.5072 17.9798 11.5104 17.9735 11.5137 17.9674L20.0066 23.0879ZM20.0066 20.7526L12.4937 16.2227L20.0066 12.8514V20.7526Z"
    fill="#66C8FF" />
  <path fill-rule="evenodd" clip-rule="evenodd"
    d="M20.0059 12.8547V20.7529L20.2213 20.8828L27.6291 16.4164C27.5923 16.3528 27.5552 16.2892 27.518 16.2257L20.0059 12.8547ZM28.3204 18.3351L20.2213 23.2182L20.0059 23.0883V34.3207L28.3204 18.3351Z"
    fill="#CCEDFF" />
</svg>