<svg width="27" height="17" viewBox="0 0 27 17" fill="none" xmlns="http://www.w3.org/2000/svg" style="color: #fff">
<path d="M5.52638 3.76111C9.91913 -0.522585 17.0415 -0.522585 21.4342 3.76111L21.9629 4.2767C22.1826 4.49082 22.1826 4.83806 21.9629 5.05228L20.1544 6.81591C20.0445 6.92292 19.8666 6.92292 19.7567 6.81591L19.0291 6.10638C15.9646 3.11794 10.996 3.11794 7.93134 6.10638L7.15218 6.86619C7.04241 6.9733 6.86433 6.9733 6.75456 6.86619L4.94608 5.10255C4.72633 4.88844 4.72633 4.5411 4.94608 4.32698L5.52638 3.76111ZM25.1745 7.4084L26.7841 8.97799C27.0037 9.19221 27.0037 9.53944 26.7841 9.75356L19.5263 16.8311C19.3067 17.0454 18.9505 17.0454 18.7309 16.8311L13.5797 11.8081C13.5248 11.7545 13.4359 11.7545 13.3809 11.8081L8.22984 16.8311C8.01019 17.0454 7.65414 17.0454 7.43439 16.8311L0.176447 9.75346C-0.0431907 9.53934 -0.0431907 9.1921 0.176447 8.97799L1.78605 7.40829C2.0057 7.19418 2.36181 7.19418 2.58144 7.40829L7.73269 12.4315C7.78757 12.4851 7.87656 12.4851 7.93144 12.4315L13.0825 7.40829C13.3021 7.19407 13.6582 7.19407 13.8779 7.40829L19.029 12.4315C19.084 12.4851 19.173 12.4851 19.2279 12.4315L24.3791 7.4084C24.5987 7.19418 24.9548 7.19418 25.1745 7.4084Z" fill="currentColor"/>
</svg>
