<?xml version="1.0" encoding="UTF-8"?>
<svg version="1.1" width="1em" height="1em" viewBox="0 0 49.0 49.0" xmlns="http://www.w3.org/2000/svg">
  <defs>
    <clipPath id="usdc-i0">
      <path d="M1920,0 L1920,1080 L0,1080 L0,0 L1920,0 Z"></path>
    </clipPath>
    <clipPath id="usdc-i1">
      <path
        d="M24,0 C37.2548,0 48,10.7452 48,24 C48,37.2548 37.2548,48 24,48 C10.7452,48 0,37.2548 0,24 C0,10.7452 10.7452,0 24,0 Z"></path>
    </clipPath>
    <clipPath id="usdc-i2">
      <path
        d="M13.5,0.757663777 L13.5,2.16391378 C13.5,2.53891378 13.2187,2.97012378 12.8625,3.10142378 C7.1062,5.22012378 3,10.7514238 3,17.2014238 C3,23.6701238 7.1062,29.1826238 12.8625,31.2826238 C13.2187,31.4139238 13.5,31.8451238 13.5,32.2201238 L13.5,33.6451238 C13.5,34.2076238 13.05,34.5264238 12.525,34.3576238 C5.25,32.0326238 0,25.2451238 0,17.2014238 C0,9.17642378 5.25,2.37016378 12.525,0.0451637767 C13.0687,-0.123586223 13.5,0.195163777 13.5,0.757663777 Z"></path>
    </clipPath>
    <clipPath id="usdc-i3">
      <path
        d="M7.56668038,0 C7.97918038,0 8.31668038,0.3375 8.31668038,0.75 L8.31668038,3.1312 C10.7354804,3.5625 12.2729804,4.9312 12.7791804,7.2187 C12.8729804,7.65 12.5354804,8.0437 12.0854804,8.0437 L10.5104804,8.0437 C10.1729804,8.0437 9.89168038,7.8187 9.79798038,7.5 C9.36668038,6.0562 8.33548038,5.4187 6.53548038,5.4187 C4.54798038,5.4187 3.51668038,6.375 3.51668038,7.725 C3.51668038,9.15 4.09798038,9.8625 7.15418038,10.2937 C11.2791804,10.8562 13.4166804,12.0375 13.4166804,15.5437 C13.4166804,18.2062 11.4291804,20.3625 8.33548038,20.85 L8.33548038,23.25 L8.31668038,23.25 C8.31668038,23.6625 7.97918038,24 7.56668038,24 L6.06668038,24 C5.65418038,24 5.31668038,23.6625 5.31668038,23.25 L5.31668038,20.8875 C2.03548038,20.4375 0.44168038,18.6187 0.0104803799,16.1062 C-0.0645196201,15.675 0.27298038,15.3 0.70418038,15.3 L2.41048038,15.3 C2.76668038,15.3 3.06668038,15.5625 3.14168038,15.9 C3.46048038,17.3812 4.32298038,18.525 6.94798038,18.525 C8.87918038,18.525 10.2666804,17.4375 10.2666804,15.825 C10.2666804,14.2125 9.46048038,13.5937 6.61048038,13.125 C2.41048038,12.5625 0.42298038,11.2875 0.42298038,8.0062 C0.42298038,5.475 2.35418038,3.4875 5.31668038,3.075 L5.31668038,0.75 C5.31668038,0.3375 5.65418038,0 6.06668038,0 L7.56668038,0 Z"></path>
    </clipPath>
    <clipPath id="usdc-i4">
      <path
        d="M0.975,0.0451637767 C8.25,2.33266378 13.5,9.13892378 13.5,17.1639238 C13.5,25.2076238 8.25,31.9951238 0.975,34.3201238 C0.4312,34.4889238 0,34.1701238 0,33.6076238 L0,32.2014238 C0,31.7889238 0.2437,31.3951238 0.6375,31.2639238 C6.375,29.1639238 10.5,23.6326238 10.5,17.1826238 C10.5,10.7139238 6.3937,5.20142378 0.6375,3.10142378 C0.2812,2.97012378 0,2.53891378 0,2.16391378 L0,0.757663777 C0,0.195163777 0.45,-0.123586223 0.975,0.0451637767 Z"></path>
    </clipPath>
  </defs>
  <g transform="translate(-36.0 -798.0)">
    <g clip-path="url(#usdc-i0)">
      <g transform="translate(36.08650183405371 798.5)">
        <g clip-path="url(#usdc-i1)">
          <polygon points="0,0 48,0 48,48 0,48 0,0" stroke="none" fill="#2675CA"></polygon>
        </g>
        <g transform="translate(6.0 7.0424762233418114)">
          <g clip-path="url(#usdc-i2)">
            <polygon points="0,-8.32667268e-17 13.5,-8.32667268e-17 13.5,34.4028058 0,34.4028058 0,-8.32667268e-17"
                     stroke="none" fill="#FFFFFF"></polygon>
          </g>
        </g>
        <g transform="translate(17.18311962012399 12.2437)">
          <g clip-path="url(#usdc-i3)">
            <polygon points="6.50521303e-16,0 13.4166804,0 13.4166804,24 6.50521303e-16,24 6.50521303e-16,0"
                     stroke="none" fill="#FFFFFF"></polygon>
          </g>
        </g>
        <g transform="translate(28.5 7.080076223341809)">
          <g clip-path="url(#usdc-i4)">
            <polygon points="0,-8.8817842e-16 13.5,-8.8817842e-16 13.5,34.3653058 0,34.3653058 0,-8.8817842e-16"
                     stroke="none" fill="#FFFFFF"></polygon>
          </g>
        </g>
      </g>
    </g>
  </g>
</svg>
