<svg width="576" height="576" viewBox="0 0 576 576" fill="none" xmlns="http://www.w3.org/2000/svg">
  <path fill-rule="evenodd" clip-rule="evenodd"
    d="M143.2 539.149C187.467 563.716 236 576 288.8 576C341.6 576 389.867 563.716 433.6 539.149C477.333 514.581 512 480.401 537.6 436.606C563.2 392.278 576 342.609 576 287.599C576 232.59 563.2 183.188 537.6 139.394C512.533 95.5994 477.867 61.4186 433.6 36.8512C389.867 12.2837 341.6 0 288.8 0C236 0 187.467 12.2837 143.2 36.8512C99.4667 61.4186 64.5333 95.5994 38.4 139.394C12.8 183.188 0 232.59 0 287.599C0 342.609 12.8 392.278 38.4 436.606C64.5333 480.401 99.4667 514.581 143.2 539.149ZM322.425 142.171C311.417 108.245 263.488 108.245 252.48 142.171L237.917 187.053C232.994 202.225 218.875 212.498 202.945 212.498H155.818C120.196 212.498 105.385 258.145 134.204 279.112L172.33 306.851C185.218 316.228 190.611 332.849 185.688 348.021L171.125 392.903C160.118 426.829 198.893 455.04 227.712 434.073L265.838 406.334C278.727 396.957 296.179 396.957 309.067 406.334L347.193 434.073C376.012 455.04 414.788 426.829 403.78 392.903L389.217 348.021C384.294 332.849 389.687 316.228 402.575 306.851L440.702 279.112C469.521 258.145 454.71 212.498 419.087 212.498H371.961C356.03 212.498 341.911 202.225 336.988 187.053L322.425 142.171Z"
    fill="url(#paint0_linear_7538_20991)" />
  <defs>
    <linearGradient id="paint0_linear_7538_20991" x1="0.982263" y1="11.5315" x2="631.36"
      y2="82.2041" gradientUnits="userSpaceOnUse">
      <stop stop-color="#50D113" />
      <stop offset="1" stop-color="#FFE600" />
    </linearGradient>
  </defs>
</svg>